<svg width="374" height="108" viewBox="0 0 374 108" fill="none" xmlns="http://www.w3.org/2000/svg">
<g clip-path="url(#clip0)">
<path d="M138.061 33.026C124.591 33.9706 110.755 33.7985 97.2882 35.007C85.1293 36.0723 73.2909 37.7309 61.9343 39.9603C40.734 44.1921 18.3947 50.7549 6.83087 60.9111C-3.25695 69.7409 1.86712 79.9635 19.1252 86.6107C28.9249 90.3912 40.3786 92.038 51.7575 93.8169C65.5158 95.9241 79.5902 97.2328 93.6967 97.7164C123.895 98.8083 153.948 97.9619 183.132 95.1974C208.982 92.7662 235.983 89.0852 257.561 81.8529C274.635 76.1713 290.296 66.0766 272.348 55.7945C256.865 46.9603 228.61 43.5312 207.437 41.0944C175.621 37.3852 142.551 36.9197 110.979 38.5915C86.2535 39.9161 56.3599 42.5353 42.6574 53.728C41.4367 54.7105 44.2313 56.031 45.9688 55.2117C61.9291 47.8212 79.2987 44.2564 101.241 42.6839C125.593 40.968 150.51 40.8049 175.42 42.1985C199.075 43.5063 223.293 46.0516 245.749 50.8273C254.967 52.7907 264.943 55.4575 270.694 59.8681C280.14 67.1693 269.105 73.7034 258.603 77.8153C240.282 84.9885 216.768 88.7502 194.083 91.5515C169.159 94.4955 143.474 96.0585 117.465 96.214C92.4387 96.5591 67.1478 94.7793 42.6386 90.9483C19.8118 87.4124 -3.84347 77.3757 5.51988 64.5858C14.0983 52.8693 39.4069 45.2626 61.117 40.6832C72.7254 38.2628 84.8711 36.4485 97.3762 35.2668C110.252 34.0189 124.793 32.705 138.145 33.3707C138.189 33.3697 138.233 33.3643 138.272 33.3547C138.311 33.3451 138.345 33.3315 138.373 33.3148C138.4 33.2981 138.421 33.2785 138.433 33.2572C138.445 33.2359 138.448 33.2133 138.442 33.1906C138.437 33.168 138.423 33.1458 138.401 33.1253C138.378 33.1048 138.349 33.0863 138.313 33.071C138.278 33.0558 138.238 33.0439 138.194 33.0362C138.151 33.0285 138.106 33.025 138.061 33.026Z" fill="#0083C7"/>
</g>
<path d="M54.16 72.1605H55.12C55.3973 71.7445 55.616 71.2165 55.776 70.5765C55.936 69.9258 56.016 69.1578 56.016 68.2725V65.7445H62.048V72.1605H63.328V76.2405H61.184V74.0005H56.304V76.2405H54.16V72.1605ZM59.76 72.1605V67.5845H58.144V68.3365C58.144 69.1685 58.0853 69.9098 57.968 70.5605C57.8507 71.2112 57.6853 71.7445 57.472 72.1605H59.76ZM63.9458 72.1605H65.0658C65.3004 71.8725 65.4818 71.4618 65.6098 70.9285C65.7378 70.3952 65.8018 69.6325 65.8018 68.6405V65.7445H72.1058V74.0005H69.7378V67.5845H67.9298V68.7045C67.9298 69.3765 67.9031 69.9632 67.8498 70.4645C67.7964 70.9658 67.7218 71.3978 67.6258 71.7605C67.5298 72.1232 67.4178 72.4272 67.2898 72.6725C67.1618 72.9178 67.0231 73.1152 66.8738 73.2645C66.5644 73.5738 66.2338 73.7925 65.8818 73.9205C65.5404 74.0378 65.1138 74.0965 64.6018 74.0965H63.9458V72.1605ZM73.9075 72.1605H74.8675L75.2675 71.4565C75.5342 71.0085 75.9448 70.7845 76.4995 70.7845V70.6885C75.8062 70.6245 75.2408 70.4112 74.8035 70.0485C74.3662 69.6858 74.1475 69.1578 74.1475 68.4645C74.1475 68.0485 74.2168 67.6752 74.3555 67.3445C74.4942 67.0032 74.6862 66.7152 74.9315 66.4805C75.1768 66.2458 75.4702 66.0645 75.8115 65.9365C76.1635 65.8085 76.5422 65.7445 76.9475 65.7445H81.5555V74.0005H79.1875V71.0405H78.1635L77.1715 72.8005C76.9155 73.2592 76.6382 73.5738 76.3395 73.7445C76.0408 73.9152 75.6515 74.0005 75.1715 74.0005H73.9075V72.1605ZM79.1875 67.4245H77.4275C77.1395 67.4245 76.9155 67.5152 76.7555 67.6965C76.6062 67.8778 76.5315 68.0752 76.5315 68.2885V68.6565C76.5315 68.8698 76.6062 69.0618 76.7555 69.2325C76.9155 69.3925 77.1395 69.4725 77.4275 69.4725H79.1875V67.4245ZM92.535 72.1605H93.495C93.7723 71.7445 93.991 71.2165 94.151 70.5765C94.311 69.9258 94.391 69.1578 94.391 68.2725V65.7445H100.423V72.1605H101.703V76.2405H99.559V74.0005H94.679V76.2405H92.535V72.1605ZM98.135 72.1605V67.5845H96.519V68.3365C96.519 69.1685 96.4603 69.9098 96.343 70.5605C96.2257 71.2112 96.0603 71.7445 95.847 72.1605H98.135ZM103.057 65.7445H105.361V68.4005L105.169 70.8325H105.265L108.257 65.7445H110.481V74.0005H108.177V71.3445L108.369 68.9125H108.273L105.281 74.0005H103.057V65.7445ZM111.915 72.1605H113.035C113.269 71.8725 113.451 71.4618 113.579 70.9285C113.707 70.3952 113.771 69.6325 113.771 68.6405V65.7445H120.075V74.0005H117.707V67.5845H115.899V68.7045C115.899 69.3765 115.872 69.9632 115.819 70.4645C115.765 70.9658 115.691 71.3978 115.595 71.7605C115.499 72.1232 115.387 72.4272 115.259 72.6725C115.131 72.9178 114.992 73.1152 114.843 73.2645C114.533 73.5738 114.203 73.7925 113.851 73.9205C113.509 74.0378 113.083 74.0965 112.571 74.0965H111.915V72.1605ZM126.18 74.1925C124.794 74.1925 123.743 73.8085 123.028 73.0405C122.314 72.2725 121.956 71.2272 121.956 69.9045C121.956 69.2325 122.047 68.6298 122.228 68.0965C122.42 67.5525 122.687 67.0938 123.028 66.7205C123.38 66.3365 123.802 66.0485 124.292 65.8565C124.794 65.6538 125.354 65.5525 125.972 65.5525C126.591 65.5525 127.146 65.6538 127.636 65.8565C128.127 66.0485 128.543 66.3258 128.884 66.6885C129.226 67.0512 129.487 67.4938 129.668 68.0165C129.86 68.5285 129.956 69.1045 129.956 69.7445V70.4485H124.308V70.5925C124.308 71.1258 124.474 71.5578 124.804 71.8885C125.135 72.2085 125.62 72.3685 126.26 72.3685C126.751 72.3685 127.172 72.2778 127.524 72.0965C127.876 71.9045 128.18 71.6538 128.436 71.3445L129.716 72.7365C129.396 73.1312 128.948 73.4725 128.372 73.7605C127.796 74.0485 127.066 74.1925 126.18 74.1925ZM125.988 67.2485C125.476 67.2485 125.066 67.4085 124.756 67.7285C124.458 68.0378 124.308 68.4592 124.308 68.9925V69.1205H127.636V68.9925C127.636 68.4485 127.487 68.0218 127.188 67.7125C126.9 67.4032 126.5 67.2485 125.988 67.2485ZM131.694 65.7445H134.062V67.2485H134.174C134.377 66.7578 134.67 66.3525 135.054 66.0325C135.438 65.7125 135.961 65.5525 136.622 65.5525C137.081 65.5525 137.497 65.6378 137.87 65.8085C138.254 65.9792 138.579 66.2405 138.846 66.5925C139.123 66.9445 139.337 67.3925 139.486 67.9365C139.646 68.4805 139.726 69.1258 139.726 69.8725C139.726 70.6192 139.646 71.2645 139.486 71.8085C139.337 72.3525 139.123 72.8005 138.846 73.1525C138.579 73.5045 138.254 73.7658 137.87 73.9365C137.497 74.1072 137.081 74.1925 136.622 74.1925C135.961 74.1925 135.438 74.0378 135.054 73.7285C134.67 73.4085 134.377 72.9978 134.174 72.4965H134.062V77.2005H131.694V65.7445ZM135.598 72.3525C136.131 72.3525 136.542 72.1925 136.83 71.8725C137.118 71.5418 137.262 71.0885 137.262 70.5125V69.2325C137.262 68.6565 137.118 68.2085 136.83 67.8885C136.542 67.5578 136.131 67.3925 135.598 67.3925C135.182 67.3925 134.819 67.4938 134.51 67.6965C134.211 67.8992 134.062 68.2192 134.062 68.6565V71.0885C134.062 71.5258 134.211 71.8458 134.51 72.0485C134.819 72.2512 135.182 72.3525 135.598 72.3525ZM145.48 74.1925C144.829 74.1925 144.242 74.0965 143.72 73.9045C143.208 73.7018 142.77 73.4138 142.408 73.0405C142.056 72.6672 141.784 72.2138 141.592 71.6805C141.4 71.1472 141.304 70.5445 141.304 69.8725C141.304 69.2005 141.4 68.5978 141.592 68.0645C141.784 67.5312 142.056 67.0778 142.408 66.7045C142.77 66.3312 143.208 66.0485 143.72 65.8565C144.242 65.6538 144.824 65.5525 145.464 65.5525C146.37 65.5525 147.096 65.7392 147.64 66.1125C148.194 66.4752 148.616 66.9605 148.904 67.5685L147.08 68.5605C146.93 68.2405 146.733 67.9738 146.488 67.7605C146.253 67.5472 145.912 67.4405 145.464 67.4405C144.92 67.4405 144.498 67.6005 144.2 67.9205C143.912 68.2298 143.768 68.6565 143.768 69.2005V70.5445C143.768 71.0885 143.912 71.5205 144.2 71.8405C144.498 72.1498 144.93 72.3045 145.496 72.3045C145.954 72.3045 146.312 72.1978 146.568 71.9845C146.834 71.7712 147.058 71.4938 147.24 71.1525L149.032 72.1765C148.733 72.7845 148.296 73.2752 147.72 73.6485C147.154 74.0112 146.408 74.1925 145.48 74.1925ZM151.074 65.7445H153.442V68.9125H154.658L156.322 65.7445H158.834L157.234 68.5925C157.052 68.9338 156.855 69.1845 156.642 69.3445C156.439 69.4938 156.204 69.5952 155.938 69.6485V69.7445C156.247 69.8085 156.498 69.9258 156.69 70.0965C156.892 70.2565 157.095 70.5338 157.298 70.9285L157.922 72.1605H158.802V74.0005H157.698C157.25 74.0005 156.866 73.9098 156.546 73.7285C156.236 73.5472 155.97 73.2378 155.746 72.8005L154.658 70.7205H153.442V74.0005H151.074V65.7445ZM164.331 74.1925C163.691 74.1925 163.115 74.0965 162.603 73.9045C162.091 73.7018 161.654 73.4138 161.291 73.0405C160.939 72.6672 160.667 72.2138 160.475 71.6805C160.283 71.1472 160.187 70.5445 160.187 69.8725C160.187 69.2005 160.283 68.5978 160.475 68.0645C160.667 67.5312 160.939 67.0778 161.291 66.7045C161.654 66.3312 162.091 66.0485 162.603 65.8565C163.115 65.6538 163.691 65.5525 164.331 65.5525C164.971 65.5525 165.547 65.6538 166.059 65.8565C166.571 66.0485 167.003 66.3312 167.355 66.7045C167.718 67.0778 167.995 67.5312 168.187 68.0645C168.379 68.5978 168.475 69.2005 168.475 69.8725C168.475 70.5445 168.379 71.1472 168.187 71.6805C167.995 72.2138 167.718 72.6672 167.355 73.0405C167.003 73.4138 166.571 73.7018 166.059 73.9045C165.547 74.0965 164.971 74.1925 164.331 74.1925ZM164.331 72.4325C164.865 72.4325 165.281 72.2672 165.579 71.9365C165.878 71.6058 166.027 71.1365 166.027 70.5285V69.2165C166.027 68.6085 165.878 68.1392 165.579 67.8085C165.281 67.4778 164.865 67.3125 164.331 67.3125C163.798 67.3125 163.382 67.4778 163.083 67.8085C162.785 68.1392 162.635 68.6085 162.635 69.2165V70.5285C162.635 71.1365 162.785 71.6058 163.083 71.9365C163.382 72.2672 163.798 72.4325 164.331 72.4325ZM170.213 65.7445H172.517V68.4005L172.325 70.8325H172.421L175.413 65.7445H177.637V74.0005H175.333V71.3445L175.525 68.9125H175.429L172.437 74.0005H170.213V65.7445ZM173.957 64.8805C173.253 64.8805 172.677 64.7258 172.229 64.4165C171.781 64.0965 171.445 63.6432 171.221 63.0565L170.885 62.1765L172.725 61.4885L173.237 63.2005C173.301 63.2325 173.402 63.2592 173.541 63.2805C173.68 63.3018 173.818 63.3125 173.957 63.3125C174.096 63.3125 174.234 63.3018 174.373 63.2805C174.512 63.2592 174.613 63.2325 174.677 63.2005L175.189 61.4885L177.029 62.1765L176.693 63.0565C176.469 63.6432 176.133 64.0965 175.685 64.4165C175.237 64.7258 174.661 64.8805 173.957 64.8805ZM193.449 74.1925C192.798 74.1925 192.211 74.0965 191.689 73.9045C191.177 73.7018 190.739 73.4138 190.377 73.0405C190.025 72.6672 189.753 72.2138 189.561 71.6805C189.369 71.1472 189.273 70.5445 189.273 69.8725C189.273 69.2005 189.369 68.5978 189.561 68.0645C189.753 67.5312 190.025 67.0778 190.377 66.7045C190.739 66.3312 191.177 66.0485 191.689 65.8565C192.211 65.6538 192.793 65.5525 193.433 65.5525C194.339 65.5525 195.065 65.7392 195.609 66.1125C196.163 66.4752 196.585 66.9605 196.873 67.5685L195.049 68.5605C194.899 68.2405 194.702 67.9738 194.457 67.7605C194.222 67.5472 193.881 67.4405 193.433 67.4405C192.889 67.4405 192.467 67.6005 192.169 67.9205C191.881 68.2298 191.737 68.6565 191.737 69.2005V70.5445C191.737 71.0885 191.881 71.5205 192.169 71.8405C192.467 72.1498 192.899 72.3045 193.465 72.3045C193.923 72.3045 194.281 72.1978 194.537 71.9845C194.803 71.7712 195.027 71.4938 195.209 71.1525L197.001 72.1765C196.702 72.7845 196.265 73.2752 195.689 73.6485C195.123 74.0112 194.377 74.1925 193.449 74.1925ZM202.93 74.1925C201.544 74.1925 200.493 73.8085 199.778 73.0405C199.064 72.2725 198.706 71.2272 198.706 69.9045C198.706 69.2325 198.797 68.6298 198.978 68.0965C199.17 67.5525 199.437 67.0938 199.778 66.7205C200.13 66.3365 200.552 66.0485 201.042 65.8565C201.544 65.6538 202.104 65.5525 202.722 65.5525C203.341 65.5525 203.896 65.6538 204.386 65.8565C204.877 66.0485 205.293 66.3258 205.634 66.6885C205.976 67.0512 206.237 67.4938 206.418 68.0165C206.61 68.5285 206.706 69.1045 206.706 69.7445V70.4485H201.058V70.5925C201.058 71.1258 201.224 71.5578 201.554 71.8885C201.885 72.2085 202.37 72.3685 203.01 72.3685C203.501 72.3685 203.922 72.2778 204.274 72.0965C204.626 71.9045 204.93 71.6538 205.186 71.3445L206.466 72.7365C206.146 73.1312 205.698 73.4725 205.122 73.7605C204.546 74.0485 203.816 74.1925 202.93 74.1925ZM202.738 67.2485C202.226 67.2485 201.816 67.4085 201.506 67.7285C201.208 68.0378 201.058 68.4592 201.058 68.9925V69.1205H204.386V68.9925C204.386 68.4485 204.237 68.0218 203.938 67.7125C203.65 67.4032 203.25 67.2485 202.738 67.2485ZM211.132 67.5845H208.412V65.7445H216.188V67.5845H213.468V74.0005H211.132V67.5845ZM218.182 65.7445H220.486V68.4005L220.294 70.8325H220.39L223.382 65.7445H225.606V74.0005H223.302V71.3445L223.494 68.9125H223.398L220.406 74.0005H218.182V65.7445Z" fill="#476481"/>
<g clip-path="url(#clip1)">
<path d="M306.844 57.5585C310.178 57.2476 313.638 57.4342 316.919 56.7084C319.891 55.9605 322.777 54.9183 325.534 53.5974C331.059 51.0591 336.301 47.961 341.178 44.3518C346.002 40.8343 350.551 36.9599 354.786 32.7611C359.335 28.2396 363.102 22.9224 364.099 16.4627C364.32 15.0681 366.479 15.6411 366.245 17.0287C364.217 29.3755 352.553 38.3147 343.05 45.2803C337.817 49.1538 332.114 52.3613 326.072 54.8292C323.049 56.1625 319.877 57.1412 316.62 57.7458C313.396 58.2322 310.125 57.986 306.846 58.1447C306.465 58.173 306.466 57.5963 306.844 57.5585Z" fill="#0083C7"/>
<path d="M360.769 40.4863C361.821 36.3338 361.959 31.6856 362.686 27.4341C363.06 25.3822 363.084 23.0085 363.743 21.025C364.277 19.4261 365.512 17.8072 366.351 16.3529L367.763 17.7691C363.23 20.1439 359.251 23.6798 355.098 26.659C352.861 28.2597 349.902 30.8705 346.885 30.5629C346.669 30.5614 346.461 30.482 346.298 30.3396C346.135 30.1971 346.03 30.0013 346.001 29.7886C345.972 29.5758 346.022 29.3607 346.141 29.1832C346.26 29.0057 346.44 28.878 346.648 28.8238C354.357 26.3835 359.68 19.6646 366.733 15.9724C366.93 15.8699 367.155 15.8332 367.376 15.8676C367.596 15.902 367.801 16.0056 367.959 16.1634C368.118 16.3211 368.221 16.5246 368.256 16.744C368.29 16.9635 368.252 17.1873 368.149 17.3826C367.174 19.0713 365.935 20.7679 365.364 22.6418C364.736 24.6834 364.443 26.9182 363.944 29.0336C363.064 32.8606 362.693 36.9576 361.464 40.6872C361.427 40.7634 361.365 40.8244 361.288 40.8597C361.21 40.895 361.123 40.9026 361.04 40.8811C360.957 40.8596 360.883 40.8104 360.832 40.7417C360.781 40.6731 360.755 40.5892 360.759 40.5044L360.769 40.4863Z" fill="#0083C7"/>
</g>
<defs>
<clipPath id="clip0">
<rect width="278" height="67" fill="white" transform="translate(4.00006 26.0005) rotate(3)"/>
</clipPath>
<clipPath id="clip1">
<rect width="67" height="39" fill="white" transform="matrix(0.5 -0.866025 -0.866025 -0.5 340 78.0005)"/>
</clipPath>
</defs>
</svg>
