<svg width="170" height="93" viewBox="0 0 170 93" fill="none" xmlns="http://www.w3.org/2000/svg">
<g clip-path="url(#clip0)">
<path d="M58.3854 49.6495C55.6353 49.3687 52.7844 49.5011 50.0747 48.8755C47.62 48.2336 45.234 47.3474 42.9523 46.2301C38.3814 44.0817 34.0397 41.4695 29.9954 38.4344C25.9953 35.476 22.2199 32.2224 18.7009 28.7011C14.9216 24.9091 11.781 20.4604 10.9163 15.0795C10.7246 13.9177 8.94915 14.3802 9.15087 15.5362C10.9046 25.8219 20.5788 33.3363 28.4584 39.1945C32.7975 42.4519 37.52 45.1582 42.5174 47.2514C45.018 48.3807 47.6391 49.216 50.328 49.7406C52.989 50.1665 55.6841 49.9834 58.3875 50.1371C58.7019 50.1632 58.6977 49.6834 58.3854 49.6495Z" fill="#F2706D"/>
<path d="M13.8198 35.0889C12.9255 31.627 12.7813 27.7589 12.1534 24.2169C11.8317 22.5074 11.7958 20.5323 11.2396 18.8777C10.789 17.544 9.76044 16.1889 9.05864 14.9733L7.90396 16.1423C11.6567 18.148 14.9604 21.1162 18.4032 23.6223C20.2584 24.9689 22.7147 27.1606 25.1997 26.9247C25.3775 26.9249 25.5489 26.8602 25.682 26.7428C25.8151 26.6253 25.9009 26.4631 25.9233 26.2863C25.9457 26.1095 25.9033 25.9302 25.804 25.7817C25.7046 25.6333 25.5551 25.5258 25.3832 25.4793C19.0122 23.398 14.5802 17.7728 8.74135 14.6542C8.5785 14.5677 8.39261 14.5357 8.21094 14.5628C8.02926 14.5899 7.86138 14.6748 7.7319 14.805C7.60243 14.9352 7.51818 15.1038 7.49152 15.2862C7.46486 15.4685 7.49719 15.6549 7.58377 15.8181C8.39867 17.2296 9.43124 18.6493 9.91438 20.2121C10.4451 21.9149 10.7013 23.7761 11.1272 25.5394C11.8778 28.7292 12.2105 32.1402 13.2483 35.2514C13.2793 35.315 13.3312 35.3661 13.3952 35.3961C13.4593 35.426 13.5315 35.4328 13.5997 35.4155C13.6679 35.3982 13.728 35.3577 13.7697 35.3009C13.8113 35.2441 13.8321 35.1746 13.8285 35.1039L13.8198 35.0889Z" fill="#F2706D"/>
</g>
<path d="M118.234 40.2163C109.916 41.2976 101.557 43.6708 93.5317 48.4936C87.5652 52.0743 79.6371 57.1587 75.7193 66.4025C66.5993 88.0135 100.563 89.6149 105.908 89.5604C122.497 89.3923 139.485 87.2147 155.496 77.0763C159.256 74.6963 164.597 71.1273 166.412 64.3392C168.339 57.1553 164.45 52.0429 161.098 49.7476C155.009 45.5908 147.718 45.6214 141.12 45.5769C130.094 45.5011 119.06 47.6895 108.054 49.8459C107.429 49.9693 107.611 51.5854 108.23 51.4727C122.367 48.8668 136.749 46.0618 150.811 48.1263C155.337 48.7875 162.679 49.7858 165.214 57.1032C168.197 65.7046 160.163 72.0664 156.431 74.6598C144.051 83.2593 130.295 86.5434 117.314 87.6034C109.91 88.3924 102.513 88.3253 95.1735 87.4025C91.5546 86.8435 87.9824 85.8097 84.4881 84.3101C81.3563 83.0304 75.7381 80.2147 75.1372 73.7796C74.423 66.5243 80.2166 60.7702 83.2522 57.7944C86.9107 54.254 90.7483 51.3342 94.7063 49.0795C102.363 44.8224 110.25 42.2179 118.176 41.3288C118.589 41.2724 118.653 40.1713 118.234 40.2163Z" fill="#F2706D"/>
<path d="M105.033 75.8713L110.169 61.5033H112.297L107.161 75.8713H105.033ZM118.259 73.8553C116.766 73.8553 115.662 73.3487 114.947 72.3353C114.243 71.322 113.891 69.9033 113.891 68.0793C113.891 66.2553 114.243 64.8367 114.947 63.8233C115.662 62.81 116.766 62.3033 118.259 62.3033C119.753 62.3033 120.851 62.81 121.555 63.8233C122.27 64.8367 122.627 66.2553 122.627 68.0793C122.627 69.9033 122.27 71.322 121.555 72.3353C120.851 73.3487 119.753 73.8553 118.259 73.8553ZM118.259 71.9673C118.974 71.9673 119.47 71.7167 119.747 71.2153C120.035 70.714 120.179 70.0153 120.179 69.1193V67.0393C120.179 66.1433 120.035 65.4447 119.747 64.9433C119.47 64.442 118.974 64.1913 118.259 64.1913C117.545 64.1913 117.043 64.442 116.755 64.9433C116.478 65.4447 116.339 66.1433 116.339 67.0393V69.1193C116.339 70.0153 116.478 70.714 116.755 71.2153C117.043 71.7167 117.545 71.9673 118.259 71.9673ZM118.259 69.0233C117.886 69.0233 117.625 68.9487 117.475 68.7993C117.337 68.65 117.267 68.4687 117.267 68.2553V67.9033C117.267 67.69 117.337 67.5087 117.475 67.3593C117.625 67.21 117.886 67.1353 118.259 67.1353C118.633 67.1353 118.889 67.21 119.027 67.3593C119.177 67.5087 119.251 67.69 119.251 67.9033V68.2553C119.251 68.4687 119.177 68.65 119.027 68.7993C118.889 68.9487 118.633 69.0233 118.259 69.0233ZM127.421 66.9113C128.04 66.9113 128.488 66.794 128.765 66.5593C129.053 66.3247 129.197 66.0367 129.197 65.6953V65.5833C129.197 65.178 129.058 64.858 128.781 64.6233C128.514 64.378 128.13 64.2553 127.629 64.2553C127.17 64.2553 126.738 64.3727 126.333 64.6073C125.938 64.8313 125.602 65.1567 125.325 65.5833L123.805 64.1753C124.018 63.898 124.253 63.6473 124.509 63.4233C124.765 63.1887 125.048 62.9913 125.357 62.8313C125.666 62.6607 126.013 62.5327 126.397 62.4473C126.792 62.3513 127.234 62.3033 127.725 62.3033C128.333 62.3033 128.882 62.3727 129.373 62.5113C129.864 62.65 130.28 62.8527 130.621 63.1193C130.973 63.3753 131.245 63.6847 131.437 64.0473C131.629 64.41 131.725 64.8153 131.725 65.2633C131.725 65.6153 131.666 65.9353 131.549 66.2233C131.432 66.5113 131.272 66.762 131.069 66.9753C130.877 67.1887 130.648 67.3647 130.381 67.5033C130.125 67.6313 129.848 67.722 129.549 67.7753V67.8713C130.232 67.9887 130.797 68.2767 131.245 68.7353C131.704 69.1833 131.933 69.7913 131.933 70.5593C131.933 71.0607 131.826 71.514 131.613 71.9193C131.41 72.3247 131.117 72.6713 130.733 72.9593C130.36 73.2473 129.901 73.4713 129.357 73.6313C128.824 73.7807 128.226 73.8553 127.565 73.8553C127 73.8553 126.498 73.7967 126.061 73.6793C125.634 73.562 125.256 73.4073 124.925 73.2153C124.594 73.0127 124.306 72.7833 124.061 72.5273C123.826 72.2607 123.618 71.9887 123.437 71.7113L125.213 70.3353C125.458 70.794 125.762 71.1727 126.125 71.4713C126.498 71.7593 126.994 71.9033 127.613 71.9033C128.189 71.9033 128.632 71.77 128.941 71.5033C129.25 71.2367 129.405 70.8687 129.405 70.3993V70.2873C129.405 69.8287 129.229 69.4873 128.877 69.2633C128.525 69.0287 128.034 68.9113 127.405 68.9113H126.365V66.9113H127.421Z" fill="#476481"/>
<defs>
<clipPath id="clip0">
<rect width="56.702" height="32.647" fill="white" transform="translate(31.3512 66.429) rotate(-120)"/>
</clipPath>
</defs>
</svg>
