<svg width="217" height="67" viewBox="0 0 217 67" fill="none" xmlns="http://www.w3.org/2000/svg">
<path d="M106.204 5.6949C95.8065 6.47662 85.128 6.34263 74.733 7.34082C65.3479 8.22095 56.2099 9.58757 47.4435 11.4221C31.0784 14.9041 13.8331 20.2988 4.90279 28.6354C-2.88763 35.8832 1.06223 44.2655 14.3792 49.7089C21.9411 52.8048 30.7805 54.1496 39.5622 55.6028C50.1802 57.3242 61.0426 58.3903 71.9301 58.7797C95.2377 59.6597 118.434 58.9498 140.96 56.6672C160.913 54.6597 181.755 51.6264 198.413 45.683C211.594 41.0138 223.687 32.7256 209.839 24.3011C197.893 17.0629 176.087 14.2649 159.746 12.277C135.192 9.25099 109.667 8.88629 85.298 10.274C66.2137 11.3733 43.1397 13.5371 32.5582 22.7249C31.6156 23.5314 33.7719 24.6131 35.1133 23.9402C47.4355 17.8699 60.8436 14.9369 77.78 13.6357C96.5767 12.2157 115.808 12.069 135.034 13.1992C153.291 14.2597 171.981 16.3349 189.312 20.2405C196.425 21.8462 204.124 24.0285 208.56 27.6433C215.847 33.6272 207.327 38.9924 199.219 42.3706C185.075 48.2639 166.924 51.3616 149.414 53.671C130.176 56.0987 110.351 57.3941 90.2761 57.5351C70.9597 57.8311 51.4404 56.3843 32.5254 53.2546C14.9088 50.3661 -3.34408 42.1458 3.88912 31.6502C10.516 22.0354 30.0536 15.7829 46.8123 12.0154C55.7732 10.0241 65.1484 8.52963 74.8008 7.55391C84.7397 6.52364 95.963 5.43844 106.268 5.97758C106.303 5.97673 106.336 5.97222 106.366 5.96433C106.396 5.95643 106.423 5.9453 106.444 5.93157C106.465 5.91784 106.481 5.90178 106.49 5.8843C106.5 5.86682 106.502 5.84828 106.498 5.82971C106.494 5.81115 106.483 5.79294 106.466 5.77612C106.449 5.7593 106.426 5.7442 106.398 5.73168C106.371 5.71916 106.34 5.70947 106.306 5.70316C106.273 5.69685 106.238 5.69404 106.204 5.6949Z" fill="#0083C7"/>
<path d="M38.4168 40.192C36.9235 40.192 35.8195 39.6853 35.1048 38.672C34.4008 37.6587 34.0488 36.24 34.0488 34.416C34.0488 32.592 34.4008 31.1733 35.1048 30.16C35.8195 29.1467 36.9235 28.64 38.4168 28.64C39.9102 28.64 41.0088 29.1467 41.7128 30.16C42.4275 31.1733 42.7848 32.592 42.7848 34.416C42.7848 36.24 42.4275 37.6587 41.7128 38.672C41.0088 39.6853 39.9102 40.192 38.4168 40.192ZM38.4168 38.256C39.0995 38.256 39.5688 38.0053 39.8248 37.504C40.0915 36.992 40.2248 36.2827 40.2248 35.376V33.44C40.2248 32.544 40.0915 31.8453 39.8248 31.344C39.5688 30.832 39.0995 30.576 38.4168 30.576C37.7342 30.576 37.2595 30.832 36.9928 31.344C36.7368 31.8453 36.6088 32.544 36.6088 33.44V35.392C36.6088 36.288 36.7368 36.992 36.9928 37.504C37.2595 38.0053 37.7342 38.256 38.4168 38.256ZM44.2986 31.744H46.6666V34.896H49.3546V31.744H51.7226V40H49.3546V36.736H46.6666V40H44.2986V31.744ZM53.1563 38.16H54.2763C54.511 37.872 54.6923 37.4613 54.8203 36.928C54.9483 36.3947 55.0123 35.632 55.0123 34.64V31.744H61.3163V40H58.9483V33.584H57.1403V34.704C57.1403 35.376 57.1137 35.9627 57.0603 36.464C57.007 36.9653 56.9323 37.3973 56.8363 37.76C56.7403 38.1227 56.6283 38.4267 56.5003 38.672C56.3723 38.9173 56.2337 39.1147 56.0843 39.264C55.775 39.5733 55.4443 39.792 55.0923 39.92C54.751 40.0373 54.3243 40.096 53.8123 40.096H53.1563V38.16ZM70.1901 40C69.6994 40 69.3047 39.8773 69.0061 39.632C68.7074 39.376 68.5314 39.0133 68.4781 38.544H68.3981C68.2487 39.088 67.9501 39.4987 67.5021 39.776C67.0647 40.0533 66.5261 40.192 65.8861 40.192C65.0861 40.192 64.4407 39.9787 63.9501 39.552C63.4701 39.1147 63.2301 38.5067 63.2301 37.728C63.2301 36.864 63.5447 36.224 64.1741 35.808C64.8034 35.392 65.7261 35.184 66.9421 35.184H68.2701V34.768C68.2701 34.2773 68.1527 33.9093 67.9181 33.664C67.6941 33.408 67.3101 33.28 66.7661 33.28C66.2647 33.28 65.8594 33.376 65.5501 33.568C65.2407 33.76 64.9741 34.0107 64.7501 34.32L63.4541 33.168C63.7314 32.6987 64.1634 32.3147 64.7501 32.016C65.3474 31.7067 66.1101 31.552 67.0381 31.552C68.1687 31.552 69.0487 31.8133 69.6781 32.336C70.3181 32.848 70.6381 33.6267 70.6381 34.672V38.288H71.5501V40H70.1901ZM66.7821 38.64C67.1981 38.64 67.5501 38.5387 67.8381 38.336C68.1261 38.1333 68.2701 37.84 68.2701 37.456V36.464H67.0061C66.0354 36.464 65.5501 36.7893 65.5501 37.44V37.76C65.5501 38.048 65.6621 38.2667 65.8861 38.416C66.1101 38.5653 66.4087 38.64 66.7821 38.64ZM73.0798 31.744H75.3838V34.4L75.1918 36.832H75.2878L78.2798 31.744H80.5038V40H78.1998V37.344L78.3918 34.912H78.2958L75.3038 40H73.0798V31.744ZM76.8238 30.88C76.1198 30.88 75.5438 30.7253 75.0958 30.416C74.6478 30.096 74.3118 29.6427 74.0878 29.056L73.7518 28.176L75.5918 27.488L76.1038 29.2C76.1678 29.232 76.2692 29.2587 76.4078 29.28C76.5465 29.3013 76.6852 29.312 76.8238 29.312C76.9625 29.312 77.1012 29.3013 77.2398 29.28C77.3785 29.2587 77.4798 29.232 77.5438 29.2L78.0558 27.488L79.8958 28.176L79.5598 29.056C79.3358 29.6427 78.9998 30.096 78.5518 30.416C78.1038 30.7253 77.5278 30.88 76.8238 30.88ZM82.6736 31.744H85.0416V34.896H87.7296V31.744H90.0976V40H87.7296V36.736H85.0416V40H82.6736V31.744ZM93.4193 36.256V33.984H98.5393V36.256H93.4193ZM101.909 31.744H104.277V34.912H105.493L107.157 31.744H109.669L108.069 34.592C107.888 34.9333 107.69 35.184 107.477 35.344C107.274 35.4933 107.04 35.5947 106.773 35.648V35.744C107.082 35.808 107.333 35.9253 107.525 36.096C107.728 36.256 107.93 36.5333 108.133 36.928L108.757 38.16H109.637V40H108.533C108.085 40 107.701 39.9093 107.381 39.728C107.072 39.5467 106.805 39.2373 106.581 38.8L105.493 36.72H104.277V40H101.909V31.744ZM115.167 40.192C114.527 40.192 113.951 40.096 113.439 39.904C112.927 39.7013 112.489 39.4133 112.127 39.04C111.775 38.6667 111.503 38.2133 111.311 37.68C111.119 37.1467 111.023 36.544 111.023 35.872C111.023 35.2 111.119 34.5973 111.311 34.064C111.503 33.5307 111.775 33.0773 112.127 32.704C112.489 32.3307 112.927 32.048 113.439 31.856C113.951 31.6533 114.527 31.552 115.167 31.552C115.807 31.552 116.383 31.6533 116.895 31.856C117.407 32.048 117.839 32.3307 118.191 32.704C118.553 33.0773 118.831 33.5307 119.023 34.064C119.215 34.5973 119.311 35.2 119.311 35.872C119.311 36.544 119.215 37.1467 119.023 37.68C118.831 38.2133 118.553 38.6667 118.191 39.04C117.839 39.4133 117.407 39.7013 116.895 39.904C116.383 40.096 115.807 40.192 115.167 40.192ZM115.167 38.432C115.7 38.432 116.116 38.2667 116.415 37.936C116.713 37.6053 116.863 37.136 116.863 36.528V35.216C116.863 34.608 116.713 34.1387 116.415 33.808C116.116 33.4773 115.7 33.312 115.167 33.312C114.633 33.312 114.217 33.4773 113.919 33.808C113.62 34.1387 113.471 34.608 113.471 35.216V36.528C113.471 37.136 113.62 37.6053 113.919 37.936C114.217 38.2667 114.633 38.432 115.167 38.432ZM121.049 31.744H123.417V34.896H126.105V31.744H128.473V40H126.105V36.736H123.417V40H121.049V31.744ZM133.186 33.584H130.466V31.744H138.242V33.584H135.522V40H133.186V33.584ZM140.092 31.744H142.46V33.248H142.572C142.775 32.7573 143.068 32.352 143.452 32.032C143.836 31.712 144.359 31.552 145.02 31.552C145.479 31.552 145.895 31.6373 146.268 31.808C146.652 31.9787 146.977 32.24 147.244 32.592C147.521 32.944 147.735 33.392 147.884 33.936C148.044 34.48 148.124 35.1253 148.124 35.872C148.124 36.6187 148.044 37.264 147.884 37.808C147.735 38.352 147.521 38.8 147.244 39.152C146.977 39.504 146.652 39.7653 146.268 39.936C145.895 40.1067 145.479 40.192 145.02 40.192C144.359 40.192 143.836 40.0373 143.452 39.728C143.068 39.408 142.775 38.9973 142.572 38.496H142.46V43.2H140.092V31.744ZM143.996 38.352C144.529 38.352 144.94 38.192 145.228 37.872C145.516 37.5413 145.66 37.088 145.66 36.512V35.232C145.66 34.656 145.516 34.208 145.228 33.888C144.94 33.5573 144.529 33.392 143.996 33.392C143.58 33.392 143.217 33.4933 142.908 33.696C142.609 33.8987 142.46 34.2187 142.46 34.656V37.088C142.46 37.5253 142.609 37.8453 142.908 38.048C143.217 38.2507 143.58 38.352 143.996 38.352ZM153.542 40.192C152.902 40.192 152.326 40.096 151.814 39.904C151.302 39.7013 150.864 39.4133 150.502 39.04C150.15 38.6667 149.878 38.2133 149.686 37.68C149.494 37.1467 149.398 36.544 149.398 35.872C149.398 35.2 149.494 34.5973 149.686 34.064C149.878 33.5307 150.15 33.0773 150.502 32.704C150.864 32.3307 151.302 32.048 151.814 31.856C152.326 31.6533 152.902 31.552 153.542 31.552C154.182 31.552 154.758 31.6533 155.27 31.856C155.782 32.048 156.214 32.3307 156.566 32.704C156.928 33.0773 157.206 33.5307 157.398 34.064C157.59 34.5973 157.686 35.2 157.686 35.872C157.686 36.544 157.59 37.1467 157.398 37.68C157.206 38.2133 156.928 38.6667 156.566 39.04C156.214 39.4133 155.782 39.7013 155.27 39.904C154.758 40.096 154.182 40.192 153.542 40.192ZM153.542 38.432C154.075 38.432 154.491 38.2667 154.79 37.936C155.088 37.6053 155.238 37.136 155.238 36.528V35.216C155.238 34.608 155.088 34.1387 154.79 33.808C154.491 33.4773 154.075 33.312 153.542 33.312C153.008 33.312 152.592 33.4773 152.294 33.808C151.995 34.1387 151.846 34.608 151.846 35.216V36.528C151.846 37.136 151.995 37.6053 152.294 37.936C152.592 38.2667 153.008 38.432 153.542 38.432ZM158.688 38.16H159.808C160.042 37.872 160.224 37.4613 160.352 36.928C160.48 36.3947 160.544 35.632 160.544 34.64V31.744H166.848V40H164.48V33.584H162.672V34.704C162.672 35.376 162.645 35.9627 162.592 36.464C162.538 36.9653 162.464 37.3973 162.368 37.76C162.272 38.1227 162.16 38.4267 162.032 38.672C161.904 38.9173 161.765 39.1147 161.616 39.264C161.306 39.5733 160.976 39.792 160.624 39.92C160.282 40.0373 159.856 40.096 159.344 40.096H158.688V38.16ZM169.305 31.744H171.673V34.096H173.785C174.191 34.096 174.569 34.16 174.921 34.288C175.273 34.416 175.577 34.608 175.833 34.864C176.1 35.1093 176.308 35.4133 176.457 35.776C176.607 36.1387 176.681 36.56 176.681 37.04C176.681 37.52 176.607 37.9467 176.457 38.32C176.308 38.6827 176.1 38.992 175.833 39.248C175.567 39.4933 175.252 39.68 174.889 39.808C174.537 39.936 174.148 40 173.721 40H169.305V31.744ZM173.273 38.272C173.583 38.272 173.828 38.176 174.009 37.984C174.201 37.792 174.297 37.5413 174.297 37.232V36.864C174.297 36.5547 174.201 36.304 174.009 36.112C173.828 35.92 173.583 35.824 173.273 35.824H171.673V38.272H173.273Z" fill="#476481"/>
</svg>
