<svg width="184" height="60" viewBox="0 0 184 60" fill="none" xmlns="http://www.w3.org/2000/svg">
<path d="M86.2481 4.36616C70.0502 5.03448 53.8356 6.99602 38.3963 11.4302C26.9175 14.7221 11.681 19.4235 4.48798 28.4956C-12.2512 49.7073 54.1901 53.0108 64.6312 53.2233C97.037 53.8841 130.121 52.5501 160.898 43.1855C168.126 40.9873 178.382 37.676 181.589 30.9608C184.995 23.8544 177.142 18.5342 170.477 16.0653C158.373 11.5933 144.127 11.2594 131.234 10.8849C109.686 10.2577 88.2369 11.9003 66.8399 13.5121C65.6241 13.6046 66.0613 15.234 67.2638 15.152C94.7564 13.246 122.718 11.1526 150.296 13.9255C159.173 14.8146 173.568 16.1827 178.888 23.6459C185.146 32.419 169.766 38.3958 162.603 40.8094C138.844 48.8126 112.131 51.4176 86.8198 51.8314C72.3928 52.2524 57.9362 51.8153 43.5495 50.5232C36.4505 49.7818 29.419 48.5667 22.5167 46.8885C16.3335 45.4488 5.21529 42.3449 3.71947 35.8629C1.96113 28.5529 12.9938 23.0733 18.7762 20.2416C25.7476 16.8748 33.0998 14.1391 40.7206 12.0763C55.4686 8.19092 70.748 5.97386 86.1898 5.4787C86.9947 5.4428 87.0651 4.34204 86.2481 4.36616Z" fill="#F2706D"/>
<path d="M58.585 35.0322H50.553V32.8402L54.073 29.9122C54.681 29.3896 55.1184 28.9362 55.385 28.5522C55.6517 28.1682 55.785 27.7629 55.785 27.3362V27.1762C55.785 26.7069 55.6464 26.3549 55.369 26.1202C55.0917 25.8749 54.7184 25.7522 54.249 25.7522C53.7157 25.7522 53.305 25.9069 53.017 26.2162C52.729 26.5256 52.5264 26.8936 52.409 27.3202L50.313 26.5202C50.441 26.1362 50.617 25.7736 50.841 25.4322C51.065 25.0802 51.3477 24.7762 51.689 24.5202C52.041 24.2642 52.4464 24.0616 52.905 23.9122C53.3637 23.7522 53.8917 23.6722 54.489 23.6722C55.097 23.6722 55.641 23.7576 56.121 23.9282C56.601 24.0989 57.0064 24.3336 57.337 24.6322C57.6677 24.9309 57.9184 25.2882 58.089 25.7042C58.2597 26.1096 58.345 26.5522 58.345 27.0322C58.345 27.5016 58.265 27.9336 58.105 28.3282C57.9557 28.7122 57.7424 29.0749 57.465 29.4162C57.1984 29.7576 56.8784 30.0882 56.505 30.4082C56.1424 30.7282 55.753 31.0482 55.337 31.3682L53.209 33.0162H58.585V35.0322ZM69.9805 26.7762H72.3485V29.9282H75.0365V26.7762H77.4045V35.0322H75.0365V31.7682H72.3485V35.0322H69.9805V26.7762ZM83.5103 35.2242C82.1236 35.2242 81.0729 34.8402 80.3583 34.0722C79.6436 33.3042 79.2863 32.2589 79.2863 30.9362C79.2863 30.2642 79.3769 29.6616 79.5583 29.1282C79.7503 28.5842 80.0169 28.1256 80.3583 27.7522C80.7103 27.3682 81.1316 27.0802 81.6223 26.8882C82.1236 26.6856 82.6836 26.5842 83.3023 26.5842C83.9209 26.5842 84.4756 26.6856 84.9663 26.8882C85.4569 27.0802 85.8729 27.3576 86.2143 27.7202C86.5556 28.0829 86.8169 28.5256 86.9983 29.0482C87.1903 29.5602 87.2863 30.1362 87.2863 30.7762V31.4802H81.6383V31.6242C81.6383 32.1576 81.8036 32.5896 82.1343 32.9202C82.4649 33.2402 82.9503 33.4002 83.5903 33.4002C84.0809 33.4002 84.5023 33.3096 84.8543 33.1282C85.2063 32.9362 85.5103 32.6856 85.7663 32.3762L87.0463 33.7682C86.7263 34.1629 86.2783 34.5042 85.7023 34.7922C85.1263 35.0802 84.3956 35.2242 83.5103 35.2242ZM83.3183 28.2802C82.8063 28.2802 82.3956 28.4402 82.0863 28.7602C81.7876 29.0696 81.6383 29.4909 81.6383 30.0242V30.1522H84.9663V30.0242C84.9663 29.4802 84.8169 29.0536 84.5183 28.7442C84.2303 28.4349 83.8303 28.2802 83.3183 28.2802ZM88.24 33.1922H89.2C89.4774 32.7762 89.696 32.2482 89.856 31.6082C90.016 30.9576 90.096 30.1896 90.096 29.3042V26.7762H96.128V33.1922H97.408V37.2722H95.264V35.0322H90.384V37.2722H88.24V33.1922ZM93.84 33.1922V28.6162H92.224V29.3682C92.224 30.2002 92.1654 30.9416 92.048 31.5922C91.9307 32.2429 91.7654 32.7762 91.552 33.1922H93.84ZM102.698 35.2242C101.311 35.2242 100.26 34.8402 99.5458 34.0722C98.8311 33.3042 98.4738 32.2589 98.4738 30.9362C98.4738 30.2642 98.5644 29.6616 98.7458 29.1282C98.9378 28.5842 99.2044 28.1256 99.5458 27.7522C99.8978 27.3682 100.319 27.0802 100.81 26.8882C101.311 26.6856 101.871 26.5842 102.49 26.5842C103.108 26.5842 103.663 26.6856 104.154 26.8882C104.644 27.0802 105.06 27.3576 105.402 27.7202C105.743 28.0829 106.004 28.5256 106.186 29.0482C106.378 29.5602 106.474 30.1362 106.474 30.7762V31.4802H100.826V31.6242C100.826 32.1576 100.991 32.5896 101.322 32.9202C101.652 33.2402 102.138 33.4002 102.778 33.4002C103.268 33.4002 103.69 33.3096 104.042 33.1282C104.394 32.9362 104.698 32.6856 104.954 32.3762L106.234 33.7682C105.914 34.1629 105.466 34.5042 104.89 34.7922C104.314 35.0802 103.583 35.2242 102.698 35.2242ZM102.506 28.2802C101.994 28.2802 101.583 28.4402 101.274 28.7602C100.975 29.0696 100.826 29.4909 100.826 30.0242V30.1522H104.154V30.0242C104.154 29.4802 104.004 29.0536 103.706 28.7442C103.418 28.4349 103.018 28.2802 102.506 28.2802ZM107.62 33.1922H108.74C108.974 32.9042 109.156 32.4936 109.284 31.9602C109.412 31.4269 109.476 30.6642 109.476 29.6722V26.7762H115.78V35.0322H113.412V28.6162H111.604V29.7362C111.604 30.4082 111.577 30.9949 111.524 31.4962C111.47 31.9976 111.396 32.4296 111.3 32.7922C111.204 33.1549 111.092 33.4589 110.964 33.7042C110.836 33.9496 110.697 34.1469 110.548 34.2962C110.238 34.6056 109.908 34.8242 109.556 34.9522C109.214 35.0696 108.788 35.1282 108.276 35.1282H107.62V33.1922ZM117.949 26.7762H120.253V29.4322L120.061 31.8642H120.157L123.149 26.7762H125.373V35.0322H123.069V32.3762L123.261 29.9442H123.165L120.173 35.0322H117.949V26.7762Z" fill="#476481"/>
</svg>
