<svg width="306" height="164" viewBox="0 0 306 164" fill="none" xmlns="http://www.w3.org/2000/svg">
<path d="M181.149 3.2583H178.819V4.53375H181.149V3.2583Z" fill="#FBAE17"/>
<path d="M181.149 35.4077H178.819V36.6832H181.149V35.4077Z" fill="#FBAE17"/>
<path d="M184.724 26.5833C185.597 26.5833 186.433 26.2369 187.05 25.6204C187.667 25.0038 188.014 24.1676 188.014 23.2957C188.014 22.4238 187.667 21.5876 187.05 20.971C186.433 20.3545 185.597 20.0081 184.724 20.0081H153.018V18.7327H184.724C185.935 18.7327 187.096 19.2134 187.953 20.0691C188.809 20.9249 189.29 22.0855 189.29 23.2957C189.29 24.5059 188.809 25.6665 187.953 26.5223C187.096 27.378 185.935 27.8587 184.724 27.8587H153.018V26.5833H184.724Z" fill="#FEE2AA"/>
<path d="M189.068 25.0063H186.737V26.2818H189.068V25.0063Z" fill="#FBAE17"/>
<path d="M192.643 25.3311C193.515 25.3311 194.352 24.9848 194.969 24.3682C195.586 23.7517 195.932 22.9154 195.932 22.0435C195.932 21.1716 195.586 20.3354 194.969 19.7188C194.352 19.1023 193.515 18.7559 192.643 18.7559H154.524V17.4805H192.643C193.854 17.4805 195.015 17.9612 195.871 18.817C196.727 19.6727 197.208 20.8333 197.208 22.0435C197.208 23.2537 196.727 24.4143 195.871 25.2701C195.015 26.1258 193.854 26.6066 192.643 26.6066H154.524V25.3311H192.643Z" fill="#F69476"/>
<path d="M180.293 34.1323H177.963V35.4078H180.293V34.1323Z" fill="#FBAE17"/>
<path d="M180.293 26.2817H177.963V27.5572H180.293V26.2817Z" fill="#FBAE17"/>
<path d="M183.868 17.4571C184.741 17.4571 185.577 17.1107 186.194 16.4942C186.811 15.8776 187.158 15.0414 187.158 14.1695C187.158 13.2976 186.811 12.4613 186.194 11.8448C185.577 11.2283 184.741 10.8819 183.868 10.8819H138.687V9.60645H183.868C185.079 9.60645 186.24 10.0872 187.097 10.9429C187.953 11.7987 188.434 12.9593 188.434 14.1695C188.434 15.3797 187.953 16.5403 187.097 17.3961C186.24 18.2518 185.079 18.7326 183.868 18.7326H138.687V17.4571H183.868Z" fill="#B6E4E9"/>
<path d="M299.651 41.2626H6.60049C4.94951 41.2605 3.36686 40.6035 2.20019 39.4361C1.03351 38.2686 0.378203 36.686 0.378204 35.0359C0.378204 33.1324 1.13481 31.3068 2.48158 29.9608C3.82836 28.6148 5.65497 27.8586 7.5596 27.8586H298.691C300.596 27.8586 302.423 28.6148 303.769 29.9608C305.116 31.3068 305.873 33.1324 305.873 35.0359C305.874 35.8533 305.714 36.6628 305.401 37.4182C305.089 38.1736 304.631 38.8601 304.053 39.4384C303.475 40.0167 302.789 40.4755 302.034 40.7885C301.278 41.1015 300.468 41.2626 299.651 41.2626Z" fill="#4195C9"/>
<path d="M4.92801 31.2175C3.97575 31.1953 3.05589 30.8676 2.30434 30.2827C1.07814 31.5916 0.390413 33.3142 0.378204 35.1072V36.7549C0.378204 37.9609 0.857556 39.1175 1.71081 39.9703C2.56406 40.8231 3.72132 41.3022 4.92801 41.3022H301.323C302.53 41.3022 303.687 40.8231 304.54 39.9703C305.394 39.1175 305.873 37.9609 305.873 36.7549V35.1072C305.861 33.3142 305.173 31.5916 303.947 30.2827C303.195 30.8676 302.275 31.1953 301.323 31.2175H4.92801Z" fill="#418ABC"/>
<path d="M238.07 27.9617L229.961 27.9617C228.111 27.9617 226.337 27.2272 225.029 25.9198C223.72 24.6124 222.986 22.8393 222.986 20.9904V5.93864L245.045 5.93864V20.9904C245.045 22.8393 244.31 24.6124 243.002 25.9198C241.694 27.2272 239.92 27.9617 238.07 27.9617Z" fill="#85D2DA"/>
<path d="M243.896 17.5443H249.761C250.518 17.5443 251.244 17.2439 251.779 16.709C252.314 16.1742 252.615 15.4488 252.615 14.6924V10.066C252.615 9.30965 252.314 8.58425 251.779 8.04941C251.244 7.51458 250.518 7.21411 249.761 7.21411H243.896V17.5443ZM249.761 9.50355C249.91 9.50355 250.054 9.56282 250.159 9.6683C250.265 9.77378 250.324 9.91685 250.324 10.066V14.6924C250.324 14.8416 250.265 14.9847 250.159 15.0902C250.054 15.1956 249.91 15.2549 249.761 15.2549H246.186V9.50355H249.761Z" fill="#85D2DA"/>
<path d="M173.976 18.7327H131.173V27.8587H173.976C175.187 27.8587 176.348 27.378 177.205 26.5223C178.061 25.6665 178.542 24.5059 178.542 23.2957C178.542 22.0855 178.061 20.9249 177.205 20.0691C176.348 19.2134 175.187 18.7327 173.976 18.7327Z" fill="#FECE71"/>
<path d="M103.248 19.3347H134.724C135.284 19.2591 135.854 19.3041 136.396 19.4667C136.937 19.6294 137.437 19.9059 137.863 20.2776C138.288 20.6494 138.63 21.1079 138.863 21.6223C139.097 22.1367 139.218 22.6951 139.218 23.26C139.218 23.825 139.097 24.3834 138.863 24.8978C138.63 25.4122 138.288 25.8707 137.863 26.2424C137.437 26.6142 136.937 26.8907 136.396 27.0533C135.854 27.216 135.284 27.261 134.724 27.1854H103.248C104.231 24.6606 104.231 21.8595 103.248 19.3347Z" fill="#EEF7F9"/>
<path d="M175.427 0.480469H139.068V9.60655H175.427C176.638 9.60655 177.799 9.1258 178.655 8.27006C179.511 7.41433 179.992 6.25371 179.992 5.04352C179.992 3.83332 179.511 2.67269 178.655 1.81696C177.799 0.961222 176.638 0.480469 175.427 0.480469Z" fill="#F47954"/>
<path d="M104.746 1.11426H142.643C143.203 1.03864 143.773 1.08365 144.314 1.24629C144.855 1.40892 145.356 1.6854 145.781 2.05718C146.207 2.42896 146.548 2.88744 146.782 3.40183C147.016 3.91623 147.136 4.47464 147.136 5.03959C147.136 5.60454 147.016 6.16295 146.782 6.67735C146.548 7.19174 146.207 7.65022 145.781 8.022C145.356 8.39378 144.855 8.67026 144.314 8.83289C143.773 8.99552 143.203 9.04054 142.643 8.96492H104.746C105.729 6.44015 105.729 3.63903 104.746 1.11426Z" fill="#EEF7F9"/>
<path d="M161.967 9.60645H130.309V18.7326H162.015C163.226 18.7326 164.387 18.2518 165.243 17.3961C166.1 16.5403 166.581 15.3797 166.581 14.1695C166.581 12.9593 166.1 11.7987 165.243 10.9429C164.387 10.0872 163.226 9.60645 162.015 9.60645H161.967Z" fill="#85D2DA"/>
<path d="M88.9329 10.2402H133.868C134.428 10.1646 134.998 10.2096 135.54 10.3723C136.081 10.5349 136.581 10.8114 137.007 11.1832C137.432 11.5549 137.773 12.0134 138.007 12.5278C138.241 13.0422 138.362 13.6006 138.362 14.1656C138.362 14.7305 138.241 15.2889 138.007 15.8033C137.773 16.3177 137.432 16.7762 137.007 17.148C136.581 17.5198 136.081 17.7962 135.54 17.9589C134.998 18.1215 134.428 18.1665 133.868 18.0909H88.9329C89.9263 15.5682 89.9263 12.763 88.9329 10.2402Z" fill="#EEF7F9"/>
<path d="M2.82748 163.514C4.88408 163.995 7.04684 163.663 8.86475 162.588C10.6827 161.514 12.0154 159.78 12.585 157.747L46.2884 37.4047H21.3041L0.425758 159.878C0.284931 160.676 0.455403 161.498 0.90212 162.174C1.34884 162.85 2.03785 163.33 2.82748 163.514Z" fill="#BF9B55"/>
<path d="M303.424 163.514C301.368 163.994 299.206 163.662 297.39 162.588C295.573 161.513 294.242 159.779 293.674 157.747L259.963 37.4047H284.947L305.833 159.878C305.974 160.677 305.802 161.5 305.354 162.176C304.906 162.853 304.215 163.332 303.424 163.514Z" fill="#BF9B55"/>
<path d="M298.668 27.8586H7.59128C6.59268 27.8629 5.6061 28.0766 4.69537 28.486C3.78463 28.8954 2.97005 29.4913 2.30432 30.2352C3.04983 30.8372 3.97025 31.1818 4.92799 31.2176H301.323C302.275 31.1954 303.195 30.8677 303.947 30.2828C303.286 29.5312 302.475 28.9269 301.565 28.5093C300.656 28.0917 299.668 27.87 298.668 27.8586Z" fill="#4195C9"/>
<path opacity="0.4" d="M45.2104 41.2627H32.9243L32.2743 45.089L30.1738 94.9023L45.2104 41.2627Z" fill="#604E2B"/>
<path opacity="0.4" d="M261.049 41.2627H273.327L273.977 45.089L276.085 94.9023L261.049 41.2627Z" fill="#604E2B"/>
</svg>
