<svg width="71" height="44" viewBox="0 0 71 44" fill="none" xmlns="http://www.w3.org/2000/svg">
<path d="M3.39168 43.752C5.1613 40.89 6.53358 37.6968 8.65806 35.0634C10.6648 32.718 12.9016 30.5785 15.335 28.6766C20.112 24.8187 25.2734 21.4598 30.738 18.6528C36.0955 15.853 41.6555 13.4571 47.3715 11.4852C53.5213 9.37285 60.0482 8.31108 66.3818 10.2404C67.752 10.6514 68.1918 8.45962 66.8226 8.06262C54.6622 4.48534 41.3128 11.0642 30.726 16.563C24.8619 19.5743 19.3953 23.2999 14.4516 27.6544C11.8886 29.7896 9.58231 32.2138 7.57906 34.8784C5.69835 37.5652 4.4643 40.6149 2.85823 43.4936C2.66248 43.8241 3.18841 44.0759 3.39168 43.752Z" fill="#0083C7"/>
<path d="M42.996 2.72488C47.2505 3.59588 51.5495 5.50556 55.7498 6.71118C57.787 7.27264 59.962 8.28905 62.064 8.56441C63.7596 8.78372 65.7859 8.38158 67.4862 8.26269L66.8245 6.37319C62.6386 9.41117 57.6409 11.443 53.0736 13.8741C50.6167 15.1863 46.9176 16.7049 45.853 19.5528C45.7582 19.7474 45.7376 19.9697 45.795 20.1782C45.8523 20.3868 45.9838 20.5674 46.1648 20.6865C46.3459 20.8056 46.5642 20.855 46.7791 20.8255C46.994 20.796 47.1909 20.6897 47.333 20.5263C52.9945 14.661 61.4927 12.8138 68.0033 8.08574C68.1844 7.95364 68.3182 7.76716 68.3853 7.55368C68.4523 7.3402 68.449 7.11094 68.3757 6.89955C68.3025 6.68815 68.1633 6.50574 67.9784 6.37908C67.7936 6.25241 67.5729 6.18816 67.3487 6.19575C65.3745 6.3338 63.2754 6.70584 61.3125 6.39963C59.1715 6.07068 57.0035 5.35646 54.8522 4.88041C50.971 3.99739 47.0707 2.5385 43.1226 2.01211C43.0366 2.01202 42.9532 2.04154 42.8865 2.09569C42.8198 2.14983 42.7739 2.22527 42.7565 2.30926C42.7391 2.39324 42.7514 2.48062 42.7912 2.55662C42.831 2.63262 42.8959 2.69258 42.9749 2.72636L42.996 2.72488Z" fill="#0083C7"/>
</svg>
