<svg width="73" height="78" viewBox="0 0 73 78" fill="none" xmlns="http://www.w3.org/2000/svg">
<g clip-path="url(#clip0)">
<path d="M0.857001 23.8745C4.21911 23.8014 7.64232 23.2149 11.0062 23.5638C14.0646 23.9706 17.0758 24.6823 19.995 25.6884C25.8297 27.5955 31.4557 30.0966 36.7845 33.1522C42.0488 36.1219 47.085 39.4812 51.8508 43.202C56.9707 47.2102 61.4157 52.1063 63.2489 58.4677C63.6509 59.8404 65.727 59.0167 65.3139 57.6524C61.6877 45.5077 48.9034 37.8918 38.5291 32.0051C32.8116 28.7256 26.712 26.1681 20.3704 24.3913C17.1851 23.4035 13.8975 22.7884 10.5735 22.5582C7.29769 22.4428 4.06994 23.0672 0.782907 23.2866C0.399379 23.3022 0.474837 23.8803 0.857001 23.8745Z" fill="#F2706D"/>
<path d="M56.8078 34.7662C58.3955 38.8082 59.1369 43.4526 60.4146 47.6311C61.0538 49.6452 61.3868 52.0222 62.301 53.9349C63.0408 55.4762 64.4816 56.9568 65.5073 58.318L66.7302 56.7351C61.9044 54.8775 57.4796 51.7917 52.9547 49.2841C50.5169 47.9376 47.2294 45.6616 44.2631 46.3183C44.0484 46.3447 43.8509 46.4483 43.7074 46.6099C43.5639 46.7715 43.4841 46.98 43.483 47.1966C43.4818 47.4133 43.5593 47.6232 43.7011 47.7874C43.8428 47.9516 44.0392 48.0589 44.2536 48.0892C52.2522 49.6459 58.4291 55.7679 65.9373 58.6554C66.1466 58.7354 66.3758 58.7462 66.5912 58.6863C66.8066 58.6264 66.9969 58.4988 67.1341 58.3224C67.2714 58.146 67.3484 57.93 67.3538 57.706C67.3593 57.4821 67.2929 57.262 67.1644 57.0781C65.9734 55.4976 64.5183 53.9396 63.7056 52.1268C62.8151 50.1523 62.2327 47.9455 61.4597 45.8823C60.0856 42.1469 59.1835 38.0821 57.4741 34.4846C57.4273 34.4125 57.3572 34.3586 57.2755 34.3321C57.1938 34.3056 57.1055 34.3081 57.0257 34.3393C56.9458 34.3704 56.8793 34.4282 56.8373 34.5029C56.7953 34.5777 56.7804 34.6647 56.7951 34.7494L56.8078 34.7662Z" fill="#F2706D"/>
</g>
<defs>
<clipPath id="clip0">
<rect width="68" height="39" fill="white" transform="translate(31.554 0.0283203) rotate(53)"/>
</clipPath>
</defs>
</svg>
