<svg width="73" height="78" viewBox="0 0 73 78" fill="none" xmlns="http://www.w3.org/2000/svg">
<g clip-path="url(#clip0)">
<path d="M0.857124 23.8745C4.21923 23.8014 7.64244 23.2149 11.0063 23.5638C14.0647 23.9706 17.0759 24.6823 19.9951 25.6884C25.8299 27.5955 31.4559 30.0966 36.7846 33.1522C42.0489 36.1219 47.0851 39.4812 51.851 43.202C56.9709 47.2102 61.4158 52.1063 63.2491 58.4677C63.651 59.8404 65.7271 59.0167 65.314 57.6524C61.6878 45.5077 48.9036 37.8918 38.5292 32.0051C32.8117 28.7256 26.7121 26.1681 20.3705 24.3913C17.1852 23.4035 13.8976 22.7884 10.5736 22.5582C7.29781 22.4428 4.07006 23.0672 0.78303 23.2866C0.399501 23.3022 0.474959 23.8803 0.857124 23.8745Z" fill="#F2706D"/>
<path d="M56.808 34.7662C58.3956 38.8082 59.137 43.4526 60.4147 47.6311C61.0539 49.6452 61.3869 52.0222 62.3011 53.9349C63.041 55.4762 64.4817 56.9568 65.5074 58.318L66.7303 56.7351C61.9046 54.8775 57.4798 51.7917 52.9548 49.2841C50.517 47.9376 47.2295 45.6616 44.2632 46.3182C44.0485 46.3447 43.8511 46.4483 43.7075 46.6099C43.564 46.7715 43.4843 46.98 43.4831 47.1966C43.4819 47.4133 43.5594 47.6232 43.7012 47.7874C43.843 47.9516 44.0393 48.0589 44.2537 48.0892C52.2523 49.6459 58.4292 55.7678 65.9374 58.6554C66.1467 58.7354 66.3759 58.7462 66.5913 58.6863C66.8067 58.6264 66.997 58.4988 67.1342 58.3224C67.2715 58.146 67.3485 57.9299 67.3539 57.706C67.3594 57.4821 67.293 57.262 67.1645 57.0781C65.9735 55.4976 64.5184 53.9396 63.7058 52.1268C62.8152 50.1523 62.2328 47.9455 61.4599 45.8823C60.0857 42.1469 59.1837 38.0821 57.4742 34.4846C57.4275 34.4125 57.3573 34.3586 57.2756 34.3321C57.1939 34.3056 57.1056 34.3081 57.0258 34.3393C56.946 34.3704 56.8794 34.4282 56.8374 34.5029C56.7954 34.5777 56.7805 34.6647 56.7952 34.7494L56.808 34.7662Z" fill="#F2706D"/>
</g>
<defs>
<clipPath id="clip0">
<rect width="68" height="39" fill="white" transform="translate(31.5541 0.0283203) rotate(53)"/>
</clipPath>
</defs>
</svg>
