<svg width="71" height="44" viewBox="0 0 71 44" fill="none" xmlns="http://www.w3.org/2000/svg">
<path d="M3.39168 43.752C5.1613 40.8901 6.53358 37.6969 8.65806 35.0635C10.6648 32.7181 12.9016 30.5785 15.335 28.6767C20.112 24.8188 25.2734 21.4599 30.738 18.6528C36.0955 15.8531 41.6555 13.4572 47.3715 11.4853C53.5213 9.37291 60.0482 8.31114 66.3818 10.2404C67.752 10.6515 68.1918 8.45968 66.8226 8.06269C54.6622 4.4854 41.3128 11.0643 30.726 16.563C24.8619 19.5743 19.3953 23.3 14.4516 27.6544C11.8886 29.7896 9.58231 32.2138 7.57906 34.8785C5.69835 37.5652 4.4643 40.615 2.85823 43.4937C2.66248 43.8241 3.18841 44.076 3.39168 43.752Z" fill="#38B9C6"/>
<path d="M42.996 2.72482C47.2505 3.59581 51.5495 5.5055 55.7498 6.71112C57.787 7.27258 59.962 8.28899 62.064 8.56435C63.7596 8.78366 65.7859 8.38152 67.4862 8.26263L66.8245 6.37313C62.6386 9.41111 57.6409 11.4429 53.0736 13.8741C50.6167 15.1862 46.9176 16.7049 45.853 19.5527C45.7582 19.7473 45.7376 19.9696 45.795 20.1782C45.8523 20.3867 45.9838 20.5674 46.1648 20.6865C46.3459 20.8055 46.5642 20.8549 46.7791 20.8255C46.994 20.796 47.1909 20.6896 47.333 20.5262C52.9945 14.6609 61.4927 12.8137 68.0033 8.08568C68.1844 7.95357 68.3182 7.7671 68.3853 7.55362C68.4523 7.34014 68.449 7.11088 68.3757 6.89948C68.3025 6.68809 68.1633 6.50568 67.9784 6.37902C67.7936 6.25235 67.5729 6.1881 67.3487 6.19569C65.3745 6.33374 63.2754 6.70577 61.3125 6.39957C59.1715 6.07062 57.0035 5.3564 54.8522 4.88035C50.971 3.99733 47.0707 2.53844 43.1226 2.01205C43.0366 2.01196 42.9532 2.04148 42.8865 2.09563C42.8198 2.14977 42.7739 2.22521 42.7565 2.30919C42.7391 2.39318 42.7514 2.48056 42.7912 2.55656C42.831 2.63256 42.8959 2.69252 42.9749 2.7263L42.996 2.72482Z" fill="#38B9C6"/>
</svg>
