<svg width="194" height="120" viewBox="0 0 194 120" fill="none" xmlns="http://www.w3.org/2000/svg">
<g clip-path="url(#clip0)">
<path d="M18.3758 118.871C15.3115 110.018 15.063 100.399 17.664 91.3223C19.0575 86.902 21.1869 82.7396 23.9617 79.012C26.7232 75.1573 29.8918 70.6345 33.5554 67.5909C34.0923 67.1437 34.9962 67.692 34.5809 68.3683C32.3509 71.9689 28.848 74.9415 26.2462 78.2695C23.1723 82.1592 20.474 86.3831 18.8894 91.1004C15.9694 100.12 15.9553 109.792 18.8489 118.741C18.9454 119.044 18.4599 119.178 18.3758 118.871Z" fill="#F2706D"/>
<path d="M17.6793 118.654C16.5276 117.693 16.352 116.343 16.1277 114.911C15.6786 112.584 14.9074 110.335 13.8364 108.228C12.1888 104.712 10.2206 101.238 10.2767 97.2254C10.2953 97.1143 10.3456 97.0105 10.4217 96.9266C10.4977 96.8428 10.5962 96.7825 10.7051 96.753C10.814 96.7236 10.9287 96.7263 11.0352 96.7608C11.1418 96.7953 11.2356 96.8601 11.3053 96.9474C12.9865 99.7533 13.5071 102.904 14.4225 105.994C15.4384 109.392 17.2015 112.826 18.4971 116.156L17.1963 116.005C18.6028 113.905 17.9675 110.11 18.4605 107.667C19.0091 104.908 19.7752 102.175 21.3153 99.7704C21.8799 98.8795 23.3077 99.6871 22.7267 100.57C20.8883 103.363 19.9813 106.88 19.5647 110.169C19.3039 112.273 19.6723 114.866 18.4114 116.69C18.34 116.81 18.2356 116.906 18.1111 116.967C17.9865 117.029 17.8472 117.053 17.7103 117.036C17.5734 117.02 17.4449 116.963 17.3405 116.874C17.2361 116.785 17.1605 116.667 17.1228 116.535C15.9612 113.421 14.4256 110.348 13.4122 107.192C12.3709 103.901 12.0076 100.561 10.3242 97.4879L11.3691 97.2262C11.1898 101.24 13.1704 104.709 14.6614 108.293C15.3433 109.852 15.8914 111.468 16.3 113.123C16.7151 114.895 16.4168 117.086 17.9067 118.419C18.0577 118.57 17.8344 118.785 17.6752 118.65L17.6793 118.654Z" fill="#F2706D"/>
</g>
<g clip-path="url(#clip1)">
<path d="M121.606 -0.000540002C114.856 1.64807 107.894 2.20044 101.153 4.1125C95.0661 5.81311 89.1562 8.08958 83.5037 10.9109C72.9534 16.2477 61.8918 23.9723 56.3439 34.7223C51.5034 44.0701 54.3498 54.0128 63.2042 59.749C68.2322 63.0122 74.0357 64.0574 79.8051 65.2387C86.7798 66.6233 93.8924 67.1937 100.999 66.9383C116.215 66.4481 131.307 64.0294 145.911 59.7405C158.847 55.9588 172.329 50.8685 182.99 42.515C191.427 35.946 199.037 25.0431 189.739 15.7123C181.72 7.69866 167.42 5.75261 156.708 4.42692C140.61 2.3874 123.966 3.6536 108.132 6.97633C95.7328 9.59371 80.7681 13.7747 74.172 25.6719C73.584 26.7172 75.0242 27.8899 75.8764 26.9806C83.7082 18.7631 92.3495 14.2931 103.343 11.5737C115.545 8.585 128.071 7.1178 140.635 7.20577C152.566 7.27376 164.812 8.54846 176.232 12.1431C180.919 13.6218 186.007 15.7633 189.015 19.8678C193.958 26.6662 188.58 33.7705 183.407 38.4275C174.383 46.5516 162.656 51.5399 151.322 55.5254C138.865 59.7707 125.989 62.6766 112.913 64.1934C100.336 65.8482 87.5704 65.3944 75.1435 62.8507C63.5706 60.5138 51.4097 51.7268 55.7815 38.4615C59.7868 26.3093 72.3142 17.3864 83.1116 11.6757C88.8858 8.65039 94.9461 6.20236 101.204 4.36744C107.647 2.44689 114.924 0.373372 121.657 0.33938C121.679 0.336033 121.701 0.328321 121.72 0.316687C121.739 0.305053 121.756 0.289723 121.77 0.271573C121.783 0.253424 121.793 0.232809 121.799 0.210908C121.804 0.189006 121.805 0.166246 121.802 0.143926C121.798 0.121607 121.791 0.100165 121.779 0.0808259C121.767 0.0614866 121.752 0.0446281 121.734 0.0312132C121.715 0.0177983 121.695 0.00808957 121.673 0.00264135C121.651 -0.00280687 121.628 -0.00388793 121.606 -0.000540002Z" fill="#F2706D"/>
</g>
<path d="M89 30.8V40H86.6V30.8H83.384V28.832H92.216V30.8H89ZM97.6498 40.192C96.1564 40.192 95.0471 39.6907 94.3218 38.688C93.6071 37.6747 93.2498 36.2507 93.2498 34.416C93.2498 32.5813 93.6071 31.1627 94.3218 30.16C95.0471 29.1467 96.1564 28.64 97.6498 28.64C98.2258 28.64 98.7324 28.72 99.1698 28.88C99.6178 29.0293 100.002 29.2427 100.322 29.52C100.642 29.7973 100.903 30.1333 101.106 30.528C101.319 30.9227 101.484 31.3653 101.602 31.856L99.3618 32.4C99.2978 32.1333 99.2231 31.888 99.1378 31.664C99.0524 31.44 98.9404 31.248 98.8018 31.088C98.6738 30.928 98.5084 30.8053 98.3058 30.72C98.1138 30.624 97.8791 30.576 97.6018 30.576C96.9511 30.576 96.4871 30.832 96.2098 31.344C95.9431 31.8453 95.8098 32.544 95.8098 33.44V35.392C95.8098 36.288 95.9431 36.992 96.2098 37.504C96.4871 38.0053 96.9511 38.256 97.6018 38.256C98.1564 38.256 98.5564 38.0853 98.8018 37.744C99.0578 37.4027 99.2444 36.9653 99.3618 36.432L101.602 36.976C101.484 37.4667 101.319 37.9093 101.106 38.304C100.903 38.6987 100.642 39.04 100.322 39.328C100.002 39.6053 99.6178 39.8187 99.1698 39.968C98.7324 40.1173 98.2258 40.192 97.6498 40.192ZM105.948 35.248H105.276L104.38 40H102.22L102.972 36.016C103.068 35.4827 103.222 35.0827 103.436 34.816C103.649 34.5493 103.958 34.3733 104.364 34.288V34.192C104.022 34.096 103.745 33.9253 103.532 33.68C103.329 33.4347 103.18 33.0613 103.084 32.56L102.38 28.832H104.412L105.276 33.44H105.948V28.832H108.028V33.44H108.7L109.564 28.832H111.595L110.892 32.56C110.796 33.0613 110.641 33.4347 110.428 33.68C110.225 33.9253 109.953 34.096 109.612 34.192V34.288C110.017 34.3733 110.326 34.5493 110.54 34.816C110.753 35.0827 110.908 35.4827 111.003 36.016L111.756 40H109.596L108.7 35.248H108.028V40H105.948V35.248ZM122.463 31.744H124.767V34.4L124.575 36.832H124.671L127.663 31.744H129.887V40H127.583V37.344L127.775 34.912H127.679L124.687 40H122.463V31.744ZM142.307 38.032H144.195L144.499 37.264L140.819 28.832H143.363L144.995 32.8L145.587 34.72H145.635L146.147 32.8L147.555 28.832H149.987L146.499 38.032C146.36 38.4053 146.205 38.72 146.035 38.976C145.875 39.2213 145.693 39.424 145.491 39.584C145.288 39.7333 145.053 39.84 144.786 39.904C144.531 39.968 144.237 40 143.907 40H142.307V38.032ZM151.132 28.832H153.548V33.376H154.956L156.748 28.832H159.132L157.564 32.816C157.383 33.264 157.196 33.5893 157.004 33.792C156.812 33.9947 156.572 34.128 156.284 34.192V34.288C156.572 34.352 156.807 34.4747 156.988 34.656C157.17 34.8267 157.346 35.1253 157.516 35.552L158.476 38.032H159.372V40H158.188C157.687 40 157.276 39.888 156.956 39.664C156.647 39.44 156.386 39.0453 156.172 38.48L154.956 35.312H153.548V40H151.132V28.832Z" fill="#476481"/>
<defs>
<clipPath id="clip0">
<rect width="26" height="48" fill="white" transform="matrix(0.707107 0.707107 0.707107 -0.707107 0 101)"/>
</clipPath>
<clipPath id="clip1">
<rect width="140" height="67" fill="white" transform="translate(54)"/>
</clipPath>
</defs>
</svg>
