<svg width="349" height="132" viewBox="0 0 349 132" fill="none" xmlns="http://www.w3.org/2000/svg">
<path d="M155.712 7.77286C126.824 9.21625 97.7977 13.1563 69.9473 21.8622C49.2413 28.3255 21.7296 37.5453 8.17389 55.1265C-23.3806 96.2324 94.6162 101.981 113.185 102.293C170.815 103.262 229.817 100.373 285.378 82.0045C298.427 77.6926 316.958 71.2033 323.223 58.2099C329.875 44.4593 316.336 34.2633 304.677 29.5603C283.501 21.0419 258.169 20.5322 235.25 19.9313C196.946 18.9243 158.628 22.2981 120.407 25.6121C118.235 25.8021 118.878 28.9434 121.025 28.7737C170.122 24.8342 220.069 20.5286 268.931 25.6206C284.658 27.253 310.17 29.7577 319.021 44.1146C329.433 60.9911 301.561 72.6744 288.61 77.4015C245.655 93.0758 197.887 98.3574 152.797 99.3957C127.081 100.345 101.384 99.6378 75.8812 97.2795C63.3058 95.9156 50.89 93.6364 38.7424 90.462C27.8551 87.7413 8.32107 81.8546 6.19546 69.3559C3.67116 55.2609 23.7641 44.5787 34.292 39.0575C46.9805 32.4922 60.2947 27.1416 74.0312 23.0875C100.606 15.4475 127.988 11.0231 155.516 9.9211C156.952 9.84417 157.169 7.71858 155.712 7.77286Z" fill="#F2706D"/>
<g clip-path="url(#clip0)">
<path d="M343.712 125.701C338.272 119.63 332.874 113.473 327.1 107.713C324.321 105.055 321.407 102.541 318.368 100.184C315.668 98.0084 312.861 95.0201 309.576 93.8075C309.404 93.7684 309.223 93.7802 309.056 93.8415C308.889 93.9028 308.742 94.0109 308.634 94.1529C308.525 94.2948 308.46 94.4645 308.445 94.6414C308.431 94.8184 308.467 94.995 308.551 95.15C310.594 98.0964 314.338 100.068 317.143 102.274C320.229 104.582 323.178 107.065 325.976 109.711C331.623 115.317 337.032 121.154 342.444 126.977C343.242 127.833 344.509 126.538 343.739 125.673L343.712 125.701Z" fill="#F2706D"/>
<path d="M342.603 124.995C337.01 119.498 335.049 111.747 331.263 105.078L330.162 105.932C335.153 110.831 336.787 118.018 341.227 123.345L342.139 121.752C338.13 120.592 334.352 118.769 330.961 116.358C329.031 114.984 327.041 113.689 324.591 114.571C323.377 115.01 323.877 116.949 325.091 116.501C327.748 115.52 330.609 118.672 332.773 119.856C335.567 121.445 338.536 122.71 341.624 123.629C342.588 123.897 343.087 122.702 342.536 122.036C338.109 116.695 336.411 109.656 331.136 104.952C330.575 104.45 329.598 105.106 330.03 105.801C334.15 112.306 336.478 119.989 342.341 125.258C342.375 125.292 342.421 125.311 342.469 125.31C342.517 125.309 342.563 125.29 342.597 125.256C342.631 125.221 342.651 125.175 342.651 125.127C342.651 125.079 342.632 125.033 342.598 124.999L342.603 124.995Z" fill="#F2706D"/>
</g>
<path d="M67.5 39V53H64.28V41.64H57.96V53H54.74V39H67.5ZM75.7704 53.16C74.6371 53.16 73.6171 52.9267 72.7104 52.46C71.8171 51.98 71.1171 51.32 70.6104 50.48C70.1038 49.64 69.8504 48.6867 69.8504 47.62C69.8504 46.5533 70.1038 45.6 70.6104 44.76C71.1171 43.92 71.8171 43.2667 72.7104 42.8C73.6171 42.32 74.6371 42.08 75.7704 42.08C76.9038 42.08 77.9171 42.32 78.8104 42.8C79.7038 43.2667 80.4038 43.92 80.9104 44.76C81.4171 45.6 81.6704 46.5533 81.6704 47.62C81.6704 48.6867 81.4171 49.64 80.9104 50.48C80.4038 51.32 79.7038 51.98 78.8104 52.46C77.9171 52.9267 76.9038 53.16 75.7704 53.16ZM75.7704 50.6C76.5704 50.6 77.2238 50.3333 77.7304 49.8C78.2504 49.2533 78.5104 48.5267 78.5104 47.62C78.5104 46.7133 78.2504 45.9933 77.7304 45.46C77.2238 44.9133 76.5704 44.64 75.7704 44.64C74.9704 44.64 74.3104 44.9133 73.7904 45.46C73.2704 45.9933 73.0104 46.7133 73.0104 47.62C73.0104 48.5267 73.2704 49.2533 73.7904 49.8C74.3104 50.3333 74.9704 50.6 75.7704 50.6ZM94.7964 42.24V51.2C94.7964 53.1733 94.283 54.64 93.2564 55.6C92.2297 56.56 90.7297 57.04 88.7564 57.04C87.7164 57.04 86.7297 56.9133 85.7964 56.66C84.863 56.4067 84.0897 56.04 83.4764 55.56L84.7164 53.32C85.1697 53.6933 85.743 53.9867 86.4364 54.2C87.1297 54.4267 87.823 54.54 88.5164 54.54C89.5964 54.54 90.3897 54.2933 90.8964 53.8C91.4164 53.32 91.6764 52.5867 91.6764 51.6V51.14C90.863 52.0333 89.7297 52.48 88.2764 52.48C87.2897 52.48 86.383 52.2667 85.5564 51.84C84.743 51.4 84.0964 50.7867 83.6164 50C83.1364 49.2133 82.8964 48.3067 82.8964 47.28C82.8964 46.2533 83.1364 45.3467 83.6164 44.56C84.0964 43.7733 84.743 43.1667 85.5564 42.74C86.383 42.3 87.2897 42.08 88.2764 42.08C89.8364 42.08 91.023 42.5933 91.8364 43.62V42.24H94.7964ZM88.8964 49.92C89.723 49.92 90.3964 49.68 90.9164 49.2C91.4497 48.7067 91.7164 48.0667 91.7164 47.28C91.7164 46.4933 91.4497 45.86 90.9164 45.38C90.3964 44.8867 89.723 44.64 88.8964 44.64C88.0697 44.64 87.3897 44.8867 86.8564 45.38C86.323 45.86 86.0564 46.4933 86.0564 47.28C86.0564 48.0667 86.323 48.7067 86.8564 49.2C87.3897 49.68 88.0697 49.92 88.8964 49.92ZM108.501 42.24V53H105.381V44.8H100.901V53H97.8008V42.24H108.501ZM122.112 42.24V53H119.132V51.74C118.732 52.2067 118.239 52.56 117.652 52.8C117.079 53.04 116.465 53.16 115.812 53.16C114.399 53.16 113.272 52.7533 112.432 51.94C111.605 51.1267 111.192 49.92 111.192 48.32V42.24H114.312V47.86C114.312 49.5933 115.039 50.46 116.492 50.46C117.252 50.46 117.859 50.22 118.312 49.74C118.765 49.2467 118.992 48.52 118.992 47.56V42.24H122.112ZM141.506 42.24V53H125.086V42.24H128.186V50.44H131.766V42.24H134.866V50.44H138.406V42.24H141.506ZM155.12 42.24V53H152.14V51.74C151.74 52.2067 151.247 52.56 150.66 52.8C150.087 53.04 149.473 53.16 148.82 53.16C147.407 53.16 146.28 52.7533 145.44 51.94C144.613 51.1267 144.2 49.92 144.2 48.32V42.24H147.32V47.86C147.32 49.5933 148.047 50.46 149.5 50.46C150.26 50.46 150.867 50.22 151.32 49.74C151.773 49.2467 152 48.52 152 47.56V42.24H155.12ZM171.854 42.08C173.2 42.08 174.267 42.48 175.054 43.28C175.854 44.0667 176.254 45.2533 176.254 46.84V53H173.134V47.32C173.134 46.4667 172.954 45.8333 172.594 45.42C172.247 44.9933 171.747 44.78 171.094 44.78C170.36 44.78 169.78 45.02 169.354 45.5C168.927 45.9667 168.714 46.6667 168.714 47.6V53H165.594V47.32C165.594 45.6267 164.914 44.78 163.554 44.78C162.834 44.78 162.26 45.02 161.834 45.5C161.407 45.9667 161.194 46.6667 161.194 47.6V53H158.074V42.24H161.054V43.48C161.454 43.0267 161.94 42.68 162.514 42.44C163.1 42.2 163.74 42.08 164.434 42.08C165.194 42.08 165.88 42.2333 166.494 42.54C167.107 42.8333 167.6 43.2667 167.974 43.84C168.414 43.28 168.967 42.8467 169.634 42.54C170.314 42.2333 171.054 42.08 171.854 42.08ZM184.333 50.66C184.893 50.66 185.386 50.58 185.813 50.42C186.253 50.2467 186.659 49.98 187.033 49.62L188.693 51.42C187.679 52.58 186.199 53.16 184.253 53.16C183.039 53.16 181.966 52.9267 181.033 52.46C180.099 51.98 179.379 51.32 178.873 50.48C178.366 49.64 178.113 48.6867 178.113 47.62C178.113 46.5667 178.359 45.62 178.853 44.78C179.359 43.9267 180.046 43.2667 180.913 42.8C181.793 42.32 182.779 42.08 183.873 42.08C184.899 42.08 185.833 42.3 186.673 42.74C187.513 43.1667 188.179 43.7933 188.673 44.62C189.179 45.4333 189.433 46.4 189.433 47.52L181.473 49.06C181.699 49.5933 182.053 49.9933 182.533 50.26C183.026 50.5267 183.626 50.66 184.333 50.66ZM183.873 44.44C183.086 44.44 182.446 44.6933 181.953 45.2C181.459 45.7067 181.199 46.4067 181.173 47.3L186.413 46.28C186.266 45.72 185.966 45.2733 185.513 44.94C185.059 44.6067 184.513 44.44 183.873 44.44ZM196.71 53.16C195.563 53.16 194.53 52.9267 193.61 52.46C192.703 51.98 191.99 51.32 191.47 50.48C190.963 49.64 190.71 48.6867 190.71 47.62C190.71 46.5533 190.963 45.6 191.47 44.76C191.99 43.92 192.703 43.2667 193.61 42.8C194.53 42.32 195.563 42.08 196.71 42.08C197.843 42.08 198.83 42.32 199.67 42.8C200.523 43.2667 201.143 43.94 201.53 44.82L199.11 46.12C198.55 45.1333 197.743 44.64 196.69 44.64C195.876 44.64 195.203 44.9067 194.67 45.44C194.136 45.9733 193.87 46.7 193.87 47.62C193.87 48.54 194.136 49.2667 194.67 49.8C195.203 50.3333 195.876 50.6 196.69 50.6C197.756 50.6 198.563 50.1067 199.11 49.12L201.53 50.44C201.143 51.2933 200.523 51.96 199.67 52.44C198.83 52.92 197.843 53.16 196.71 53.16ZM208.366 53.3C206.659 53.3 205.366 52.92 204.486 52.16C203.619 51.4 203.186 50.28 203.186 48.8V42.24H206.286V45.88C206.619 45.64 207.046 45.4533 207.566 45.32C208.099 45.1867 208.692 45.12 209.346 45.12C210.692 45.12 211.746 45.4533 212.506 46.12C213.266 46.7867 213.646 47.76 213.646 49.04C213.646 50.4133 213.172 51.4667 212.226 52.2C211.292 52.9333 210.006 53.3 208.366 53.3ZM208.366 51.1C209.032 51.1 209.546 50.92 209.906 50.56C210.279 50.2 210.466 49.7133 210.466 49.1C210.466 48.5133 210.286 48.0533 209.926 47.72C209.579 47.3867 209.079 47.22 208.426 47.22C207.946 47.22 207.519 47.3067 207.146 47.48C206.772 47.6533 206.486 47.9 206.286 48.22V49.1C206.286 49.7267 206.466 50.22 206.826 50.58C207.199 50.9267 207.712 51.1 208.366 51.1ZM54.5 66.24H57.6V70.44H62.28V66.24H65.4V77H62.28V72.98H57.6V77H54.5V66.24ZM79.2467 66.24V77H76.2667V75.76C75.4934 76.6933 74.3734 77.16 72.9067 77.16C71.8934 77.16 70.9734 76.9333 70.1467 76.48C69.3334 76.0267 68.6934 75.38 68.2267 74.54C67.76 73.7 67.5267 72.7267 67.5267 71.62C67.5267 70.5133 67.76 69.54 68.2267 68.7C68.6934 67.86 69.3334 67.2133 70.1467 66.76C70.9734 66.3067 71.8934 66.08 72.9067 66.08C74.28 66.08 75.3534 66.5133 76.1267 67.38V66.24H79.2467ZM73.4467 74.6C74.2334 74.6 74.8867 74.3333 75.4067 73.8C75.9267 73.2533 76.1867 72.5267 76.1867 71.62C76.1867 70.7133 75.9267 69.9933 75.4067 69.46C74.8867 68.9133 74.2334 68.64 73.4467 68.64C72.6467 68.64 71.9867 68.9133 71.4667 69.46C70.9467 69.9933 70.6867 70.7133 70.6867 71.62C70.6867 72.5267 70.9467 73.2533 71.4667 73.8C71.9867 74.3333 72.6467 74.6 73.4467 74.6ZM92.9793 77.16C91.8327 77.16 90.7993 76.9267 89.8793 76.46C88.9727 75.98 88.2593 75.32 87.7393 74.48C87.2327 73.64 86.9793 72.6867 86.9793 71.62C86.9793 70.5533 87.2327 69.6 87.7393 68.76C88.2593 67.92 88.9727 67.2667 89.8793 66.8C90.7993 66.32 91.8327 66.08 92.9793 66.08C94.1127 66.08 95.0993 66.32 95.9393 66.8C96.7927 67.2667 97.4127 67.94 97.7993 68.82L95.3793 70.12C94.8193 69.1333 94.0127 68.64 92.9593 68.64C92.146 68.64 91.4727 68.9067 90.9393 69.44C90.406 69.9733 90.1393 70.7 90.1393 71.62C90.1393 72.54 90.406 73.2667 90.9393 73.8C91.4727 74.3333 92.146 74.6 92.9593 74.6C94.026 74.6 94.8327 74.1067 95.3793 73.12L97.7993 74.44C97.4127 75.2933 96.7927 75.96 95.9393 76.44C95.0993 76.92 94.1127 77.16 92.9793 77.16ZM107.915 71.38C109.182 71.8067 109.815 72.66 109.815 73.94C109.815 74.9133 109.449 75.6667 108.715 76.2C107.982 76.7333 106.889 77 105.435 77H99.6953V66.24H105.195C106.542 66.24 107.595 66.4867 108.355 66.98C109.115 67.46 109.495 68.14 109.495 69.02C109.495 69.5533 109.355 70.0267 109.075 70.44C108.809 70.84 108.422 71.1533 107.915 71.38ZM102.555 70.66H104.915C106.009 70.66 106.555 70.2733 106.555 69.5C106.555 68.74 106.009 68.36 104.915 68.36H102.555V70.66ZM105.175 74.88C106.322 74.88 106.895 74.4867 106.895 73.7C106.895 73.2867 106.762 72.9867 106.495 72.8C106.229 72.6 105.809 72.5 105.235 72.5H102.555V74.88H105.175ZM117.497 74.66C118.057 74.66 118.55 74.58 118.977 74.42C119.417 74.2467 119.823 73.98 120.197 73.62L121.857 75.42C120.843 76.58 119.363 77.16 117.417 77.16C116.203 77.16 115.13 76.9267 114.197 76.46C113.263 75.98 112.543 75.32 112.037 74.48C111.53 73.64 111.277 72.6867 111.277 71.62C111.277 70.5667 111.523 69.62 112.017 68.78C112.523 67.9267 113.21 67.2667 114.077 66.8C114.957 66.32 115.943 66.08 117.037 66.08C118.063 66.08 118.997 66.3 119.837 66.74C120.677 67.1667 121.343 67.7933 121.837 68.62C122.343 69.4333 122.597 70.4 122.597 71.52L114.637 73.06C114.863 73.5933 115.217 73.9933 115.697 74.26C116.19 74.5267 116.79 74.66 117.497 74.66ZM117.037 68.44C116.25 68.44 115.61 68.6933 115.117 69.2C114.623 69.7067 114.363 70.4067 114.337 71.3L119.577 70.28C119.43 69.72 119.13 69.2733 118.677 68.94C118.223 68.6067 117.677 68.44 117.037 68.44ZM135.121 72.92H133.621V77H130.541V72.92H129.041L126.761 77H123.081L126.461 71.44L123.321 66.24H126.621L129.001 70.42H130.541V66.24H133.621V70.42H135.141L137.541 66.24H140.841L137.701 71.44L141.101 77H137.401L135.121 72.92ZM153.147 66.24V77H150.167V75.74C149.767 76.2067 149.274 76.56 148.687 76.8C148.114 77.04 147.501 77.16 146.847 77.16C145.434 77.16 144.307 76.7533 143.467 75.94C142.641 75.1267 142.227 73.92 142.227 72.32V66.24H145.347V71.86C145.347 73.5933 146.074 74.46 147.527 74.46C148.287 74.46 148.894 74.22 149.347 73.74C149.801 73.2467 150.027 72.52 150.027 71.56V66.24H153.147ZM161.481 74.66C162.041 74.66 162.534 74.58 162.961 74.42C163.401 74.2467 163.808 73.98 164.181 73.62L165.841 75.42C164.828 76.58 163.348 77.16 161.401 77.16C160.188 77.16 159.114 76.9267 158.181 76.46C157.248 75.98 156.528 75.32 156.021 74.48C155.514 73.64 155.261 72.6867 155.261 71.62C155.261 70.5667 155.508 69.62 156.001 68.78C156.508 67.9267 157.194 67.2667 158.061 66.8C158.941 66.32 159.928 66.08 161.021 66.08C162.048 66.08 162.981 66.3 163.821 66.74C164.661 67.1667 165.328 67.7933 165.821 68.62C166.328 69.4333 166.581 70.4 166.581 71.52L158.621 73.06C158.848 73.5933 159.201 73.9933 159.681 74.26C160.174 74.5267 160.774 74.66 161.481 74.66ZM161.021 68.44C160.234 68.44 159.594 68.6933 159.101 69.2C158.608 69.7067 158.348 70.4067 158.321 71.3L163.561 70.28C163.414 69.72 163.114 69.2733 162.661 68.94C162.208 68.6067 161.661 68.44 161.021 68.44ZM174.402 66.24H177.502V70.44H182.182V66.24H185.302V77H182.182V72.98H177.502V77H174.402V66.24ZM193.329 77.16C192.196 77.16 191.176 76.9267 190.269 76.46C189.376 75.98 188.676 75.32 188.169 74.48C187.662 73.64 187.409 72.6867 187.409 71.62C187.409 70.5533 187.662 69.6 188.169 68.76C188.676 67.92 189.376 67.2667 190.269 66.8C191.176 66.32 192.196 66.08 193.329 66.08C194.462 66.08 195.476 66.32 196.369 66.8C197.262 67.2667 197.962 67.92 198.469 68.76C198.976 69.6 199.229 70.5533 199.229 71.62C199.229 72.6867 198.976 73.64 198.469 74.48C197.962 75.32 197.262 75.98 196.369 76.46C195.476 76.9267 194.462 77.16 193.329 77.16ZM193.329 74.6C194.129 74.6 194.782 74.3333 195.289 73.8C195.809 73.2533 196.069 72.5267 196.069 71.62C196.069 70.7133 195.809 69.9933 195.289 69.46C194.782 68.9133 194.129 68.64 193.329 68.64C192.529 68.64 191.869 68.9133 191.349 69.46C190.829 69.9933 190.569 70.7133 190.569 71.62C190.569 72.5267 190.829 73.2533 191.349 73.8C191.869 74.3333 192.529 74.6 193.329 74.6ZM209.595 71.38C210.862 71.8067 211.495 72.66 211.495 73.94C211.495 74.9133 211.128 75.6667 210.395 76.2C209.662 76.7333 208.568 77 207.115 77H201.375V66.24H206.875C208.222 66.24 209.275 66.4867 210.035 66.98C210.795 67.46 211.175 68.14 211.175 69.02C211.175 69.5533 211.035 70.0267 210.755 70.44C210.488 70.84 210.102 71.1533 209.595 71.38ZM204.235 70.66H206.595C207.688 70.66 208.235 70.2733 208.235 69.5C208.235 68.74 207.688 68.36 206.595 68.36H204.235V70.66ZM206.855 74.88C208.002 74.88 208.575 74.4867 208.575 73.7C208.575 73.2867 208.442 72.9867 208.175 72.8C207.908 72.6 207.488 72.5 206.915 72.5H204.235V74.88H206.855ZM218.856 77.16C217.723 77.16 216.703 76.9267 215.796 76.46C214.903 75.98 214.203 75.32 213.696 74.48C213.19 73.64 212.936 72.6867 212.936 71.62C212.936 70.5533 213.19 69.6 213.696 68.76C214.203 67.92 214.903 67.2667 215.796 66.8C216.703 66.32 217.723 66.08 218.856 66.08C219.99 66.08 221.003 66.32 221.896 66.8C222.79 67.2667 223.49 67.92 223.996 68.76C224.503 69.6 224.756 70.5533 224.756 71.62C224.756 72.6867 224.503 73.64 223.996 74.48C223.49 75.32 222.79 75.98 221.896 76.46C221.003 76.9267 219.99 77.16 218.856 77.16ZM218.856 74.6C219.656 74.6 220.31 74.3333 220.816 73.8C221.336 73.2533 221.596 72.5267 221.596 71.62C221.596 70.7133 221.336 69.9933 220.816 69.46C220.31 68.9133 219.656 68.64 218.856 68.64C218.056 68.64 217.396 68.9133 216.876 69.46C216.356 69.9933 216.096 70.7133 216.096 71.62C216.096 72.5267 216.356 73.2533 216.876 73.8C217.396 74.3333 218.056 74.6 218.856 74.6ZM232.022 77.16C230.876 77.16 229.842 76.9267 228.922 76.46C228.016 75.98 227.302 75.32 226.782 74.48C226.276 73.64 226.022 72.6867 226.022 71.62C226.022 70.5533 226.276 69.6 226.782 68.76C227.302 67.92 228.016 67.2667 228.922 66.8C229.842 66.32 230.876 66.08 232.022 66.08C233.156 66.08 234.142 66.32 234.982 66.8C235.836 67.2667 236.456 67.94 236.842 68.82L234.422 70.12C233.862 69.1333 233.056 68.64 232.002 68.64C231.189 68.64 230.516 68.9067 229.982 69.44C229.449 69.9733 229.182 70.7 229.182 71.62C229.182 72.54 229.449 73.2667 229.982 73.8C230.516 74.3333 231.189 74.6 232.002 74.6C233.069 74.6 233.876 74.1067 234.422 73.12L236.842 74.44C236.456 75.2933 235.836 75.96 234.982 76.44C234.142 76.92 233.156 77.16 232.022 77.16ZM252.498 66.08C253.845 66.08 254.912 66.48 255.698 67.28C256.498 68.0667 256.898 69.2533 256.898 70.84V77H253.778V71.32C253.778 70.4667 253.598 69.8333 253.238 69.42C252.892 68.9933 252.392 68.78 251.738 68.78C251.005 68.78 250.425 69.02 249.998 69.5C249.572 69.9667 249.358 70.6667 249.358 71.6V77H246.238V71.32C246.238 69.6267 245.558 68.78 244.198 68.78C243.478 68.78 242.905 69.02 242.478 69.5C242.052 69.9667 241.838 70.6667 241.838 71.6V77H238.718V66.24H241.698V67.48C242.098 67.0267 242.585 66.68 243.158 66.44C243.745 66.2 244.385 66.08 245.078 66.08C245.838 66.08 246.525 66.2333 247.138 66.54C247.752 66.8333 248.245 67.2667 248.618 67.84C249.058 67.28 249.612 66.8467 250.278 66.54C250.958 66.2333 251.698 66.08 252.498 66.08ZM270.237 66.24V77H267.257V75.74C266.857 76.2067 266.364 76.56 265.777 76.8C265.204 77.04 264.59 77.16 263.937 77.16C262.524 77.16 261.397 76.7533 260.557 75.94C259.73 75.1267 259.317 73.92 259.317 72.32V66.24H262.437V71.86C262.437 73.5933 263.164 74.46 264.617 74.46C265.377 74.46 265.984 74.22 266.437 73.74C266.89 73.2467 267.117 72.52 267.117 71.56V66.24H270.237Z" fill="#476481"/>
<defs>
<clipPath id="clip0">
<rect width="12.9929" height="48.5124" fill="white" transform="translate(348.491 122.304) rotate(135)"/>
</clipPath>
</defs>
</svg>
