<svg width="702" height="507" viewBox="0 0 702 507" fill="none" xmlns="http://www.w3.org/2000/svg">
<g clip-path="url(#clip0)">
<path d="M355.377 480.182H355.78L355.871 482.184H365.464L365.209 479.532H364.896L364.319 469.475H354.347L354.43 470.299L350.098 474.417L334.922 478.535C334.922 478.535 333.778 479.029 333.802 479.655L333.843 480.808V481.5C333.843 481.5 334.016 481.813 335.202 482.151H352.495L353.507 480.808L354.487 480.191L355.377 480.182Z" fill="#4195C9"/>
<path d="M352.371 470.595H365.505L374.769 367.912L390.843 256.268H356.991L356.818 268.21L354.784 367.912L352.371 470.595Z" fill="#435D88"/>
<path d="M415.628 480.182H416.024L416.114 482.184H425.724L425.46 479.532H425.148L423.896 469.475H413.924L414.006 470.299L410.342 474.417L395.174 478.535C395.174 478.535 394.021 479.029 394.046 479.655L394.087 480.808V481.5C394.087 481.5 394.268 481.813 395.454 482.151H412.746L413.751 480.808L414.739 480.191L415.628 480.182Z" fill="#4195C9"/>
<path d="M412.137 470.258H425.271L416.559 369.592L411.791 290.317L412.936 268.779L410.029 260.888L409.749 256.268H377.19L396.582 369.592L412.137 470.258Z" fill="#435D88"/>
<path d="M382.946 289.872L383.613 306.485L384.601 299.591L382.946 289.872Z" fill="#324666"/>
<path d="M409.766 256.679L356.966 258.137L354.66 246.145L358.152 158.913L359.362 143.009C359.705 138.544 361.805 134.398 365.202 131.481C368.599 128.564 373.014 127.114 377.478 127.45L411.725 126.841C422.982 126.734 423.443 144.961 422.727 154.284L417.358 194.552L413.24 244.597L409.766 256.679Z" fill="#D9DFE7"/>
<path d="M385.474 134.476L391.353 133.389C394.054 133.158 396.343 129.896 396.36 127.195L397.01 109.602L381.678 112.946L381.266 132.483C381.258 135.555 382.419 134.739 385.474 134.476Z" fill="#F47954"/>
<path d="M392.045 115.005L396.944 111.406L397.01 109.602L381.678 112.946L381.529 119.691L386.849 117.501L392.045 115.005Z" fill="#F47954"/>
<path d="M397.101 111.299L396.944 111.406V111.669L397.101 111.299Z" fill="#B75B3F"/>
<path opacity="0.2" d="M396.903 111.669V111.406L392.004 115.005L386.808 117.476L381.488 119.667L381.422 122.871C384.288 121.874 393.222 119.197 393.84 118.464C394.458 117.731 396.525 112.608 396.903 111.669Z" fill="#B75B3F"/>
<path d="M374.752 84.6127C374.752 84.6127 374.209 83.4267 373.847 83.229C373.434 83.1068 373.001 83.0737 372.575 83.1319C372.149 83.1901 371.741 83.3383 371.376 83.5667C370.956 83.9044 371.121 85.3952 371.105 85.9305C371.215 87.4391 371.441 88.937 371.78 90.4111L374.752 84.6127Z" fill="#317097"/>
<path d="M371.376 83.5667C371.376 83.5667 371.813 82.1418 375.675 81.5159C374.994 82.3965 374.593 83.4607 374.522 84.5716C374.522 84.5716 374.077 82.2654 371.376 83.5667Z" fill="#67AAD4"/>
<path d="M374.291 84.9669C374.291 84.9669 371.623 83.1055 371.492 84.9669C371.438 86.4864 371.482 88.0078 371.623 89.5217L371.804 90.4112L373.451 86.779L374.291 84.9669Z" fill="#214B65"/>
<path d="M379.216 119.584C380.652 119.687 382.094 119.687 383.53 119.584C386.371 119.057 392.061 117.229 394.235 115.367C395.182 114.544 397.068 111.249 397.068 111.249L398.509 106.917L399.596 87.5118L383.95 80.6509L376.539 81.1039C376.539 81.1039 371.014 89.505 370.643 94.1256C370.503 95.8882 369.458 100.641 369.458 100.641L369.614 105.813L369.696 108.457C369.785 110.937 370.002 113.412 370.347 115.87C371.376 120.251 375.634 119.37 379.216 119.584Z" fill="#F47954"/>
<path d="M405.08 92.9232C405.764 86.96 398.888 83.1136 398.493 82.3724C398.097 81.6311 395.578 79.4073 387.615 78.7648C379.652 78.1224 379.059 78.3695 376.317 79.9756C374.538 81.0134 374.357 83.789 374.341 84.9833C374.497 84.7119 374.682 84.4578 374.892 84.2256C377.626 80.7745 379.932 90.9876 383.638 92.462C386.767 93.7221 389.5 90.8723 391.345 91.4983C392.168 91.7866 392.992 94.7352 392.992 94.7352L393.815 98.6887L395.075 99.1334L395.899 96.9755C395.899 96.9755 396.533 96.2095 396.829 96.2507C397.34 96.3166 398.015 97.3956 398.056 97.898C398.114 98.5898 397.043 99.7347 396.78 100.369C396.261 101.662 396.047 105.896 396.047 105.896L398.04 108.745L400.749 103.589C403.029 100.434 404.514 96.7751 405.08 92.9232Z" fill="#4195C9"/>
<path d="M386.8 137.91L385.663 138.462L381.826 138.166L380.895 137.268L381.266 132.482L387.178 132.935L386.8 137.91Z" fill="#FECE71"/>
<path d="M381.867 138.174L379.981 146.122L370.083 239.679L375.856 243.995L382.221 240.61L386.412 146.122L385.663 138.462L381.867 138.174Z" fill="#FECE71"/>
<path d="M378.886 127.492L381.389 124.469L382.139 132.425L375.831 138.133L378.886 127.492Z" fill="white"/>
<path d="M400.263 127.047L396.475 124.131L385.375 132.82L393.824 140.859L400.263 127.047Z" fill="white"/>
<path opacity="0.2" d="M385.375 132.82L386.915 136.403L393.824 140.859L385.375 132.82Z" fill="#485E88"/>
<path opacity="0.2" d="M375.831 138.133L381.093 134.92L381.151 133.957L382.139 132.425L375.831 138.133Z" fill="#485E88"/>
<path d="M447.027 151.591L456.398 136.041L461.948 131.149L468.082 128.917L473.567 129.304L471.673 131.527L468.906 131.651L466.592 132.771L466.954 133.397L472.15 132.919L481.323 129.485L480.986 131.717L479.059 134.657L477.066 138.388L470.594 141.526L462.944 144.648L454.981 158.897L447.027 151.591Z" fill="#F47954"/>
<path d="M434.09 205.778L435.169 205.49C436.881 205.043 438.355 203.955 439.287 202.451C440.219 200.947 440.537 199.142 440.176 197.41L421.36 135.901C420.166 130.135 415.497 125.547 408.053 127.17L406.875 127.549C401.202 129.031 399.11 134.566 400.864 140.159L425.773 201.207C426.312 202.888 427.475 204.299 429.022 205.15C430.569 206 432.382 206.225 434.09 205.778Z" fill="#D9DFE7"/>
<path d="M460.408 151.624L450.938 144.211C450.938 144.211 425.848 183.417 425.016 197.377C424.794 201.249 428.441 205.984 432.254 205.96L433.366 205.737C437.17 205.737 439.336 203.448 440.843 199.206C444.836 188.037 460.408 151.624 460.408 151.624Z" fill="#D9DFE7"/>
<path opacity="0.2" d="M409.255 160.684C409.255 160.684 418.181 192.048 416.592 203.456L417.3 194.84L418.741 183.944L409.255 160.684Z" fill="#485E88"/>
<path opacity="0.2" d="M433.324 174.982L430.319 181.209L432.575 172.536L433.324 174.982Z" fill="#485E88"/>
<path d="M299.687 215.3L289.007 221.461L281.694 223.684L277.404 227.671L274.431 230.908L276.918 231.501L279.356 229.878L280.599 228.651L280.953 229.302L276.194 233.502L269.227 237.299L271.376 238.213L275.453 240.404L279.817 240.676L286.124 236.912L294.219 228.239L306.818 221.741L299.687 215.3Z" fill="#F47954"/>
<path d="M342.193 207.45L341.139 207.088C339.465 206.515 338.075 205.319 337.256 203.75C336.438 202.18 336.254 200.356 336.742 198.654L360.82 137.82C361.2 136.482 361.85 135.236 362.728 134.157C363.607 133.079 364.695 132.19 365.928 131.547C367.161 130.903 368.513 130.518 369.899 130.414C371.286 130.31 372.68 130.49 373.995 130.943L375.148 131.42C380.689 133.315 382.369 138.989 380.204 144.434L350.831 203.439C350.182 205.09 348.923 206.427 347.315 207.174C345.707 207.921 343.872 208.02 342.193 207.45Z" fill="#D9DFE7"/>
<path d="M295.66 228.149L289.855 219.55C289.855 219.55 328.878 195.812 342.621 192.839C346.409 192.015 351.276 196.134 351.309 199.947L351.646 200.458C351.646 204.271 348.904 207.047 344.68 208.637C333.498 212.804 295.66 228.149 295.66 228.149Z" fill="#D9DFE7"/>
<path opacity="0.2" d="M357.831 166.878L354.784 195.516L356.851 191.357L357.831 166.878Z" fill="#485E88"/>
<path d="M282.781 64.87C278.115 58.9294 275.221 51.7915 274.432 44.2781C273.644 36.7646 274.992 29.1812 278.323 22.4008C281.654 15.6203 286.831 9.91858 293.26 5.95198C299.688 1.98538 307.105 -0.0848147 314.658 -0.0202638C322.21 0.0442871 329.591 2.24096 335.951 6.31685C342.31 10.3927 347.39 16.1821 350.604 23.0185C353.819 29.8549 355.038 37.4603 354.121 44.9591C353.204 52.458 350.188 59.5454 345.421 65.4053L345.289 79.5637L331.505 76.3268C323.288 80.2279 313.99 81.2189 305.136 79.137C296.282 77.0552 288.399 72.0242 282.781 64.87Z" fill="#CEEDF0"/>
<path d="M574.242 507.008C610.142 507.008 639.245 505.957 639.245 504.661C639.245 503.364 610.142 502.313 574.242 502.313C538.341 502.313 509.238 503.364 509.238 504.661C509.238 505.957 538.341 507.008 574.242 507.008Z" fill="#1D283D" fill-opacity="0.5"/>
<path d="M448.007 483.246C448.007 484.539 418.906 485.585 383.003 485.585C347.101 485.585 318.008 484.539 318.008 483.246C318.008 481.953 347.109 480.899 383.003 480.899C418.898 480.899 448.007 481.953 448.007 483.246Z" fill="#1D283D" fill-opacity="0.5"/>
<path d="M196.805 504.661C196.805 505.954 167.704 507 131.802 507C95.8991 507 66.7983 505.954 66.7983 504.661C66.7983 503.368 95.9073 502.313 131.802 502.313C167.696 502.313 196.805 503.368 196.805 504.661Z" fill="#1D283D" fill-opacity="0.5"/>
<path d="M331.529 502.314C331.529 503.607 302.429 504.661 266.526 504.661C230.624 504.661 201.523 503.607 201.523 502.314C201.523 501.02 230.624 499.95 266.526 499.95C302.429 499.95 331.529 501.02 331.529 502.314Z" fill="#1D283D" fill-opacity="0.5"/>
<path d="M695.223 497.347C695.223 498.994 539.591 500.37 347.612 500.37C155.632 500.37 0 499.019 0 497.347C0 495.675 155.632 494.316 347.612 494.316C539.591 494.316 695.223 495.675 695.223 497.347Z" fill="#1D283D" fill-opacity="0.5"/>
<path d="M207.608 274.7C205.581 274.62 203.561 274.4 201.564 274.042C195.8 272.617 190.859 266.011 190.859 260.097V231.319H151.334V260.097C151.334 266.011 146.393 272.617 140.629 274.042C138.629 274.4 136.607 274.62 134.577 274.7C134.184 274.724 133.815 274.896 133.546 275.182C133.276 275.469 133.127 275.847 133.127 276.241V277.674H209.058V276.241C209.056 275.848 208.906 275.47 208.637 275.185C208.368 274.899 208 274.726 207.608 274.7Z" fill="#435D88"/>
<path d="M151.334 231.319V252.61L190.859 259.512V231.319H151.334Z" fill="#324666"/>
<path d="M253.104 133.866H89.0891C86.7015 133.866 84.766 135.802 84.766 138.19V246.763C84.766 249.151 86.7015 251.087 89.0891 251.087H253.104C255.492 251.087 257.427 249.151 257.427 246.763V138.19C257.427 135.802 255.492 133.866 253.104 133.866Z" fill="#435D88"/>
<path d="M251.861 139.442H90.349V231.319H251.861V139.442Z" fill="#B3D5E9"/>
<path d="M246.475 144.252H95.7179V225.274H246.475V144.252Z" fill="white"/>
<path opacity="0.9" d="M136.833 224.986H224.119V213.521H136.833V224.986Z" fill="white"/>
<path d="M146.508 215.818H139.633V222.696H146.508V215.818Z" fill="#231F20"/>
<path d="M153.985 215.818H147.109V222.696H153.985V215.818Z" fill="#404041"/>
<path d="M161.462 215.818H154.586V222.696H161.462V215.818Z" fill="#435D88"/>
<path d="M168.939 215.818H162.063V222.696H168.939V215.818Z" fill="#324666"/>
<path d="M176.416 215.818H169.54V222.696H176.416V215.818Z" fill="#435D88"/>
<path d="M183.901 215.818H177.025V222.696H183.901V215.818Z" fill="#697DA0"/>
<path d="M191.378 215.818H184.502V222.696H191.378V215.818Z" fill="#8E9EB8"/>
<path d="M198.855 215.818H191.979V222.696H198.855V215.818Z" fill="#B4BECF"/>
<path d="M206.332 215.818H199.456V222.696H206.332V215.818Z" fill="#D9DFE7"/>
<path d="M213.809 215.818H206.933V222.696H213.809V215.818Z" fill="#E1E5EC"/>
<path d="M221.286 215.818H214.41V222.696H221.286V215.818Z" fill="#E8ECF1"/>
<path d="M243.017 149.532H229.562V219.682H243.017V149.532Z" fill="#ADBDCF"/>
<path d="M239.525 174.505H233.037V180.979H239.509L239.525 174.505ZM239.089 180.55H233.481V174.933H239.089V180.55Z" fill="#435D88"/>
<path d="M239.525 163.591H233.037V170.073H239.509L239.525 163.591ZM239.089 164.028V169.67H236.207V164.061L239.089 164.028ZM233.481 164.028H235.894V169.67H233.481V164.028Z" fill="#435D88"/>
<path d="M239.525 152.687H233.037V159.16H239.509L239.525 152.687ZM235.894 158.732H233.481V156.08H235.894V158.732ZM235.894 155.767H233.481V153.115H235.894V155.767ZM239.089 158.732H236.207V156.08H239.089V158.732ZM239.089 155.767H236.207V153.115H239.089V155.767Z" fill="#435D88"/>
<path d="M236.33 191.958C236.982 191.958 237.619 191.765 238.16 191.403C238.702 191.041 239.124 190.526 239.373 189.924C239.623 189.322 239.688 188.66 239.561 188.02C239.434 187.381 239.12 186.794 238.659 186.334C238.199 185.873 237.612 185.559 236.973 185.432C236.334 185.305 235.672 185.37 235.07 185.619C234.468 185.869 233.954 186.291 233.592 186.833C233.23 187.375 233.037 188.012 233.037 188.663C233.037 189.537 233.384 190.375 234.001 190.993C234.619 191.611 235.457 191.958 236.33 191.958ZM236.33 185.772C236.901 185.772 237.458 185.942 237.932 186.259C238.407 186.576 238.776 187.026 238.994 187.554C239.212 188.081 239.268 188.661 239.156 189.22C239.045 189.78 238.769 190.293 238.365 190.696C237.961 191.099 237.447 191.373 236.888 191.483C236.328 191.594 235.748 191.535 235.222 191.316C234.695 191.096 234.246 190.726 233.93 190.251C233.614 189.775 233.447 189.217 233.448 188.647C233.448 188.269 233.523 187.894 233.668 187.545C233.813 187.196 234.025 186.878 234.293 186.611C234.561 186.344 234.878 186.133 235.228 185.989C235.578 185.845 235.952 185.771 236.33 185.772Z" fill="#435D88"/>
<path d="M234.683 196.611L233.144 199.321L234.716 202.039H237.862L239.427 199.321L237.862 196.595L234.683 196.611ZM237.574 201.627H234.93L233.613 199.337L234.93 197.048H237.574L238.891 199.337L237.574 201.627Z" fill="#435D88"/>
<path d="M234.008 209.452H235.993V213.883H236.849V209.452H238.85V208.735H234.008V209.452Z" fill="#435D88"/>
<path d="M227.659 149.532H174.539V191.744H227.659V149.532Z" fill="#ADBDCF"/>
<path d="M212.623 154.935H179.273V185.558H212.623V154.935Z" fill="url(#paint0_linear)"/>
<path d="M218.684 169.11H215.621V172.174H218.684V169.11Z" fill="#435D88"/>
<path d="M218.684 173.566H215.621V176.63H218.684V173.566Z" fill="#435D88"/>
<path d="M218.684 178.03H215.621V181.094H218.684V178.03Z" fill="#435D88"/>
<path d="M218.684 182.494H215.621V185.558H218.684V182.494Z" fill="#435D88"/>
<path d="M223.863 154.935H215.826C215.554 154.935 215.332 155.156 215.332 155.429V157.562C215.332 157.835 215.554 158.057 215.826 158.057H223.863C224.136 158.057 224.357 157.835 224.357 157.562V155.429C224.357 155.156 224.136 154.935 223.863 154.935Z" fill="#435D88"/>
<path d="M223.863 159.49H215.826C215.554 159.49 215.332 159.711 215.332 159.984V162.117C215.332 162.39 215.554 162.611 215.826 162.611H223.863C224.136 162.611 224.357 162.39 224.357 162.117V159.984C224.357 159.711 224.136 159.49 223.863 159.49Z" fill="#435D88"/>
<path d="M701.992 276.974H19.4417V286.478H701.992V276.974Z" fill="#ADBDCF"/>
<path d="M37.9693 286.479H28.9525V497.339H37.9693V286.479Z" fill="#849DB7"/>
<path d="M682.674 286.479H673.657V497.339H682.674V286.479Z" fill="#849DB7"/>
<path d="M555.269 270.064H438.479C438.229 270.061 437.989 269.961 437.812 269.784C437.635 269.607 437.534 269.367 437.532 269.116L432.386 199.066C432.386 198.816 432.484 198.576 432.66 198.399C432.836 198.222 433.075 198.121 433.324 198.119H550.115C550.366 198.119 550.607 198.218 550.784 198.396C550.962 198.574 551.061 198.815 551.061 199.066L556.216 269.116C556.214 269.367 556.114 269.607 555.937 269.784C555.759 269.961 555.52 270.061 555.269 270.064Z" fill="#485E88"/>
<path d="M434.42 270.063H570.198V274.808C570.198 275.389 569.968 275.946 569.557 276.357C569.146 276.768 568.589 276.999 568.008 276.999H436.61C436.029 276.999 435.472 276.768 435.061 276.357C434.65 275.946 434.42 275.389 434.42 274.808V270.063Z" fill="#364766"/>
<path d="M551.169 265.006H442.588L437.433 203.176H546.014L551.169 265.006Z" fill="#B3D5E9"/>
<path d="M535.49 255.773H462.162L457.633 211.223H530.961L535.49 255.773Z" fill="white"/>
<path d="M463.183 216.206H524.604L525.806 228.395H464.171L463.183 216.206Z" fill="#D9DFE7"/>
<path d="M465.324 232.456H487.705L488.907 244.646H466.312L465.324 232.456Z" fill="#D9DFE7"/>
<path d="M268.848 434.956L278.186 457.384L282.238 458.224L296.714 459.459L297.472 461.98L271.846 469.648L269.384 467.844L258.86 439.865L268.848 434.956Z" fill="#FECE71"/>
<path d="M284.519 458.265L281.538 457.598L283.531 461.617L270.199 462.828L266.526 462.095L269.112 468.536L270.973 470.266L276.655 468.561L286.001 465.76L301.375 461.156L301.581 459.171L284.519 458.265Z" fill="#0083C7"/>
<path d="M224.703 468.396L225.642 492.479L229.282 494.464L242.762 499.867L242.753 502.503L216.008 502.355L214.18 499.917L213.718 470.175L224.703 468.396Z" fill="#FECE71"/>
<path d="M231.447 495.164L228.796 493.657L229.529 498.088L216.419 495.362L213.809 493.698L213.718 500.502L214.995 502.701L220.924 502.725L230.681 502.775L246.731 502.849L247.505 501.004L231.447 495.164Z" fill="#0083C7"/>
<path d="M226.572 478.37L211.701 480.553L205.476 365.754H107.987C106.808 365.755 105.64 365.524 104.55 365.073C103.46 364.622 102.47 363.961 101.635 363.127C100.801 362.294 100.139 361.304 99.6875 360.214C99.2359 359.124 99.0035 357.956 99.0035 356.776V337.289L226.572 347.321V478.37Z" fill="#85D2DA"/>
<path d="M274.226 445.705L257.526 448.761L216.724 345.089L210.68 346.069L159.996 342.083L99.0776 337.8L225.971 322.505L230.945 326.096L274.226 445.705Z" fill="#9DDBE1"/>
<path d="M103.31 263.895L114.888 264.166L123.765 262.717L129.776 265.641L131.357 268.803L130.081 271.686L129.208 272.37L123.839 273.086L117.704 273.21L113.381 272.708L103.351 273.539L103.31 263.895Z" fill="#FECE71"/>
<path d="M61.0424 276.537L62.2694 276.801C64.2226 277.222 66.2631 276.877 67.9689 275.836C69.6746 274.795 70.9153 273.138 71.4344 271.208C71.4344 271.208 107.23 235.685 114.254 219.797C116.996 213.586 113.01 207.442 106.225 206.132L104.842 205.918C98.3777 204.526 90.5631 209.04 87.0387 214.591L56.7358 263.787C56.1963 264.751 55.7284 265.753 55.3359 266.785C54.1584 270.763 56.991 275.656 61.0424 276.537Z" fill="#F47954"/>
<path d="M107.106 273.539L111.108 263.31L60.1119 261.712C59.1506 262.075 58.2705 262.624 57.5223 263.328C56.774 264.033 56.1725 264.878 55.7523 265.816C55.3321 266.754 55.1016 267.765 55.0739 268.793C55.0463 269.82 55.222 270.842 55.5912 271.802C57.1146 275.821 60.5319 277.402 65.5796 276.834L107.106 273.539Z" fill="#F47954"/>
<path d="M111.668 194.223L139.954 191.653L141.592 179.323L143.577 177.404L139.789 166.664L138.727 150.314L107.172 153.831L111.668 194.223Z" fill="#FECE71"/>
<path d="M117.358 209.427L126.35 209.378C126.906 209.377 127.456 209.266 127.969 209.051C128.482 208.837 128.947 208.523 129.338 208.128C129.729 207.733 130.038 207.265 130.247 206.75C130.457 206.235 130.562 205.684 130.558 205.128L130.435 180.913L112.986 181.003L113.109 205.218C113.116 206.34 113.567 207.413 114.363 208.202C115.16 208.991 116.237 209.431 117.358 209.427Z" fill="#FECE71"/>
<path d="M122.694 142.646C111.611 142.712 105.031 144.615 100.535 164.432C99.5717 168.665 96.2696 171.021 92.2183 171.367C90.2008 173.64 86.6929 179.405 91.7489 184.998C98.2377 192.172 94.5075 199.576 104.01 197.196C111.051 195.434 112.36 196.307 117.951 195.598C126.581 194.503 122.587 192.872 128.878 189.586C135.318 186.225 135.425 177.495 132.419 175.436C129.636 173.525 129.949 169.736 129.545 168.435C129.315 167.759 129.842 162.48 131.604 163.41C136.248 165.881 134.371 160.939 134.898 160.009C135.189 159.518 135.562 159.08 136.001 158.716C136.758 158.499 137.468 158.141 138.093 157.661C141.082 155.339 143.577 142.49 122.694 142.646Z" fill="#435D88"/>
<path d="M92.1524 347.123L98.0977 303.371L98.3036 281.281L89.188 229.919C88.5704 219.5 91.2219 206.306 101.639 205.68L105.393 205.465L135.285 204.123L143.371 203.975C156.9 203.975 158.654 232.522 158.654 232.522L155.122 279.626L156.299 293.356L162.788 319.07L176.416 343.376L92.1524 347.123Z" fill="#F47954"/>
<path d="M252.256 276.974H264.443C264.972 277.01 265.493 276.837 265.896 276.492C266.298 276.147 266.548 275.657 266.592 275.129V274.305C266.592 272.79 266.386 271.645 261.791 270.352C261.791 270.352 257.888 269.026 256.381 268.704C253.088 267.963 250.082 270.047 250.082 272.946V275.096C250.1 275.363 250.17 275.623 250.289 275.862C250.409 276.102 250.574 276.315 250.776 276.49C250.979 276.664 251.214 276.797 251.468 276.88C251.722 276.963 251.989 276.995 252.256 276.974Z" fill="#435D88"/>
<path d="M229.364 265.097L245.866 267.732L250.411 266.678L258.522 265.434L264.534 268.169L266.411 270.302L267.325 273.267L266.584 273.621L265.275 271.908L264.369 271.538L265.176 272.312L266.395 274.42L265.373 274.75L263.233 273.004L260.293 272.394L257.938 274.28L254.487 276.158L248.328 276.298L225.724 273.803L229.364 265.097Z" fill="#FECE71"/>
<path d="M187.533 268.606L188.504 267.658C190.058 266.164 190.977 264.128 191.072 261.974C191.167 259.82 190.431 257.712 189.015 256.086C189.015 256.086 162.953 219.657 153.022 208.546C148.139 203.085 140.283 201.957 134.906 208.241L133.868 209.765C129.553 217.49 133.942 224.137 139.138 229.021L175.963 268.671C177.533 270.146 179.608 270.961 181.761 270.949C183.914 270.936 185.98 270.098 187.533 268.606Z" fill="#F47954"/>
<path d="M233.209 275.549L237.129 265.5L183.522 253.623C178.961 253.31 175.642 257.832 175.642 257.832L174.901 260.303C174.901 260.303 173.583 269.857 181.118 270.945C193.371 272.699 233.209 275.549 233.209 275.549Z" fill="#F47954"/>
<path d="M144.606 234.927C144.606 234.927 156.958 252.569 156.579 257.931L157.403 248.747L144.606 234.927Z" fill="#B75B3F"/>
<path d="M126.029 480.561H133.613V402.892H126.029L126.029 480.561Z" fill="#8E9EB8"/>
<path d="M168.643 488.147V480.561H90.9913V488.147H168.643Z" fill="#435D88"/>
<path d="M106.316 495.008C106.316 493.09 105.747 491.215 104.682 489.621C103.616 488.027 102.102 486.784 100.331 486.051C98.5593 485.317 96.6101 485.126 94.7298 485.5C92.8496 485.875 91.1226 486.799 89.7675 488.156C88.4124 489.512 87.4899 491.24 87.1169 493.121C86.7439 495.003 86.937 496.952 87.6718 498.723C88.4066 500.494 89.6502 502.008 91.2451 503.072C92.84 504.136 94.7147 504.704 96.6319 504.702C99.201 504.7 101.664 503.677 103.48 501.86C105.296 500.042 106.316 497.577 106.316 495.008Z" fill="#4195C9"/>
<path d="M139.797 495.008C139.805 493.089 139.244 491.211 138.184 489.611C137.124 488.011 135.613 486.762 133.843 486.022C132.073 485.282 130.123 485.084 128.24 485.454C126.357 485.823 124.626 486.743 123.267 488.097C121.907 489.451 120.98 491.179 120.603 493.06C120.225 494.942 120.415 496.893 121.147 498.667C121.879 500.441 123.122 501.957 124.716 503.024C126.311 504.091 128.187 504.661 130.105 504.661C132.669 504.661 135.128 503.645 136.944 501.836C138.76 500.027 139.786 497.572 139.797 495.008Z" fill="#4195C9"/>
<path d="M173.279 495.008C173.279 493.09 172.71 491.215 171.645 489.621C170.579 488.027 169.065 486.784 167.294 486.051C165.522 485.317 163.573 485.126 161.693 485.5C159.813 485.875 158.086 486.799 156.731 488.156C155.375 489.512 154.453 491.24 154.08 493.121C153.707 495.003 153.9 496.952 154.635 498.723C155.37 500.494 156.613 502.008 158.208 503.072C159.803 504.136 161.678 504.704 163.595 504.702C164.867 504.702 166.127 504.451 167.303 503.964C168.478 503.477 169.546 502.762 170.445 501.862C171.345 500.962 172.058 499.893 172.544 498.717C173.03 497.541 173.28 496.28 173.279 495.008Z" fill="#4195C9"/>
<path d="M81.5628 389.903H178.689C186.923 389.903 193.61 384.5 193.61 377.828C193.61 371.165 186.923 365.754 178.689 365.754H81.5628C73.3283 365.754 66.6418 371.165 66.6418 377.828C66.6418 384.5 73.2871 389.903 81.5628 389.903Z" fill="#D9DFE7"/>
<path d="M169.194 389.903C169.194 389.903 132.666 422.511 91.0242 389.903H169.194Z" fill="#8E9EB8"/>
<path d="M90.8431 328.748H126.704C143.503 328.748 151.334 315.125 151.334 298.331L148.509 270.582C148.509 253.78 140.678 240.157 123.88 240.157H86.3882C69.5898 240.157 62.187 253.78 62.187 270.582L66.6418 298.331C66.6418 315.125 74.0447 328.748 90.8431 328.748Z" fill="#D9DFE7"/>
<path d="M103.994 392.424H108.63L105.311 288.192H100.675L103.994 392.424Z" fill="#8E9EB8"/>
<path d="M426.218 493.418H426.729L426.836 495.971H439.056L438.718 492.586H438.323L437.252 480.322L426.325 480.454L419.54 486.055L400.197 491.359C400.197 491.359 398.74 491.993 398.764 492.792L398.822 494.258V495.14C398.822 495.14 399.044 495.527 400.551 495.963H422.578L423.863 494.25L425.115 493.426L426.218 493.418Z" fill="#F47954"/>
<path d="M483.094 487.422H483.604L483.711 489.975H495.923L495.594 486.598H495.199L494.07 474.334L483.151 474.466L476.358 480.067L457.056 485.371C457.056 485.371 455.599 486.005 455.624 486.804L455.681 488.27V489.152C455.681 489.152 455.912 489.539 457.419 489.975H479.446L480.731 488.27L481.974 487.447L483.094 487.422Z" fill="#F47954"/>
<path d="M510.951 341.119L581.644 342.436H621.285L619.639 351.892C618.965 355.773 616.944 359.291 613.931 361.827C610.918 364.363 607.107 365.754 603.169 365.754L562.458 368.282L523.599 365.754L495.256 477.028L479.042 476.558L501.095 356.002L510.951 341.119Z" fill="#418ABC"/>
<path d="M550.576 341.901L473.171 346.456L466.205 353.729L424.275 481.064L440.167 483.246L489.13 371.462L517.3 370.399L605.088 366.339C608.534 366.179 611.827 364.871 614.444 362.623C617.061 360.376 618.852 357.317 619.531 353.935L622.529 335.502L624.118 330.123L552.593 329.3L550.576 341.901Z" fill="#4195C9"/>
<path d="M648.879 276.834L647.537 276.941C643.107 277.295 639.805 273.976 638.594 269.701C634.477 255.032 619.218 230.537 614.928 216.667C612.829 209.888 615.595 202.665 622.66 202.088L624.307 202.55C633.275 205.169 638.1 211.692 640.241 218.446C644.836 232.884 654.586 252.215 656.751 266.382C656.987 267.593 656.965 268.84 656.688 270.042C656.41 271.245 655.884 272.375 655.141 273.361C654.399 274.346 653.458 275.164 652.379 275.763C651.3 276.361 650.108 276.726 648.879 276.834Z" fill="#85D2DA"/>
<path d="M594.696 278.053L591.88 266.332C591.88 266.332 634.642 259.439 649.76 260.616C654.355 260.971 657.822 264.85 656.685 269.314L656.282 270.78C655.146 275.252 651.63 276.933 646.17 276.941L594.696 278.053Z" fill="#85D2DA"/>
<path opacity="0.4" d="M639.648 276.999H644.342C644.342 276.999 646.59 245.478 641.583 226.962L639.648 276.999Z" fill="#649EA3"/>
<path d="M611.239 192.847L589.13 187.996C588.476 187.848 587.905 187.454 587.534 186.896C587.163 186.337 587.021 185.658 587.137 184.998L586.058 175.436L583.011 175.049L586.478 165.741L588.067 163.863L590.192 149.145L621.483 153.626L613.248 185.838L611.239 192.847Z" fill="#FECE71"/>
<path d="M609.617 212.269L595.487 212.096C595.305 212.093 595.125 212.056 594.958 211.984C594.791 211.912 594.64 211.809 594.513 211.679C594.386 211.549 594.286 211.395 594.219 211.226C594.151 211.058 594.117 210.877 594.12 210.695L594.441 187.288L612.244 187.518L611.947 210.028C611.932 210.633 611.679 211.208 611.243 211.628C610.806 212.047 610.222 212.277 609.617 212.269Z" fill="#FECE71"/>
<path d="M605.129 184.043C605.381 184.475 605.741 184.833 606.175 185.082C606.608 185.331 607.1 185.461 607.6 185.459H613.767L616.303 182.89C616.702 182.261 617.062 181.609 617.382 180.938L619.457 177.363C619.681 177.044 619.843 176.687 619.935 176.309L625.147 164.728C625.353 163.905 624.917 157.686 624.472 156.945L620.133 148.807C618.604 147.251 616.936 145.836 615.151 144.582L603.993 142.564C603.993 142.564 592.745 141.955 589.097 146.682C588.61 147.475 588.178 148.301 587.804 149.153C587.384 150.076 587.203 154.194 589.204 155.981C589.368 156.121 589.558 151.237 590.579 149.853C590.628 149.788 599.184 151.789 599.686 151.608L598.649 153.131C597.915 154.308 597.509 155.659 597.474 157.046C597.439 158.432 597.777 159.802 598.451 161.014C598.487 161.07 598.507 161.136 598.509 161.203C598.393 161.739 598.006 166.277 598.83 166.227C599.843 166.161 600.748 163.625 602.47 165.115C603.845 166.31 603.038 168.945 601.547 171.746C601.369 172.064 601.276 172.423 601.276 172.788C601.276 173.152 601.369 173.511 601.547 173.83L605.129 184.043Z" fill="#435D88"/>
<path d="M621.886 339.472L551.531 336.597L549.332 325.066C549.332 325.066 559 288.439 560.77 275.261C562.079 265.608 563.677 227.901 563.677 227.901C567.926 209.172 572.619 201.232 583.794 199.848L619.556 201.438C642.226 204.18 642.489 230.191 642.201 240.865C641.954 250.362 642.003 259.266 640.702 270.063C639.237 282.245 628.935 329.324 628.935 329.324L621.886 339.472Z" fill="#85D2DA"/>
<path d="M469.342 240.511L457.345 235.784L450.765 231.254L444.721 230.331L440.134 230.01L441.279 232.431L444.186 233.362L445.997 233.585L445.701 234.301L439.163 233.14L431.521 229.911L432.172 232.258L433.036 237.027L435.647 240.767L442.835 243.485L455.195 244.465L468.708 250.543L469.342 240.511Z" fill="#FECE71"/>
<path d="M511.676 270.574L510.696 269.652C509.142 268.179 508.214 266.165 508.102 264.027C507.99 261.889 508.703 259.789 510.095 258.162L572.619 204.189C573.712 202.913 575.052 201.872 576.559 201.13C578.065 200.388 579.707 199.96 581.384 199.871C583.061 199.783 584.739 200.036 586.315 200.615C587.891 201.194 589.333 202.088 590.554 203.242L591.584 204.337C596.73 209.213 595.701 216.304 590.604 221.205L523.179 270.541C521.634 272.024 519.576 272.855 517.434 272.861C515.292 272.868 513.23 272.048 511.676 270.574Z" fill="#85D2DA"/>
<path d="M459.988 249.563L461.832 236.574L522.652 257.849C524.384 259.227 525.499 261.236 525.75 263.435C526.002 265.635 525.371 267.844 523.995 269.577C521.121 273.185 517.119 273.696 512.145 271.464L459.988 249.563Z" fill="#85D2DA"/>
<path opacity="0.4" d="M576.638 231.443C576.638 231.443 562.82 246.771 562.516 252.1L563.076 241.392L576.638 231.443Z" fill="#649EA3"/>
<path d="M576.234 402.884H568.65V480.553H576.234V402.884Z" fill="#8E9EB8"/>
<path d="M611.272 488.139V480.553H533.621V488.139H611.272Z" fill="#435D88"/>
<path d="M595.948 495.008C595.948 493.09 596.516 491.215 597.582 489.621C598.647 488.027 600.161 486.784 601.933 486.051C603.704 485.317 605.653 485.126 607.534 485.5C609.414 485.875 611.141 486.799 612.496 488.156C613.851 489.512 614.774 491.24 615.147 493.121C615.52 495.003 615.327 496.952 614.592 498.723C613.857 500.494 612.613 502.008 611.018 503.072C609.423 504.136 607.549 504.704 605.632 504.702C603.062 504.7 600.599 503.677 598.784 501.86C596.968 500.042 595.948 497.577 595.948 495.008Z" fill="#4195C9"/>
<path d="M562.466 495.008C562.466 493.09 563.035 491.215 564.1 489.621C565.166 488.027 566.68 486.784 568.451 486.051C570.223 485.317 572.172 485.126 574.052 485.5C575.932 485.875 577.659 486.799 579.014 488.156C580.37 489.512 581.292 491.24 581.665 493.121C582.038 495.003 581.845 496.952 581.11 498.723C580.375 500.494 579.132 502.008 577.537 503.072C575.942 504.136 574.067 504.704 572.15 504.702C570.878 504.702 569.618 504.451 568.442 503.964C567.267 503.477 566.199 502.762 565.3 501.862C564.4 500.962 563.687 499.893 563.201 498.717C562.715 497.541 562.465 496.28 562.466 495.008Z" fill="#4195C9"/>
<path d="M528.985 495.008C528.985 493.09 529.553 491.215 530.619 489.621C531.684 488.027 533.198 486.784 534.97 486.051C536.741 485.317 538.69 485.126 540.571 485.5C542.451 485.875 544.178 486.799 545.533 488.156C546.888 489.512 547.811 491.24 548.184 493.121C548.557 495.003 548.364 496.952 547.629 498.723C546.894 500.494 545.65 502.008 544.055 503.072C542.46 504.136 540.586 504.704 538.669 504.702C537.396 504.702 536.136 504.451 534.961 503.964C533.785 503.477 532.718 502.762 531.818 501.862C530.919 500.962 530.206 499.893 529.72 498.717C529.233 497.541 528.984 496.28 528.985 495.008Z" fill="#4195C9"/>
<path d="M620.701 389.903H523.608C515.373 389.903 508.678 384.5 508.678 377.828C508.678 371.165 515.365 365.754 523.608 365.754H620.701C628.935 365.754 635.622 371.165 635.622 377.828C635.622 384.5 628.943 389.903 620.701 389.903Z" fill="#D9DFE7"/>
<path d="M533.069 389.903C533.069 389.903 569.597 422.511 611.239 389.903H533.069Z" fill="#8E9EB8"/>
<path d="M617.234 326.467L592.193 325.799C575.518 323.773 572.957 308.61 574.983 291.931L578.326 264.389C580.352 247.71 587.384 236.772 604.1 238.79L624.39 240.264C641.065 242.282 644.301 256.152 642.275 272.831L636.091 299.352C634.057 316.031 633.909 328.493 617.234 326.467Z" fill="#D9DFE7"/>
<path d="M600.131 396.048L595.528 395.487L611.939 292.928L616.551 293.488L600.131 396.048Z" fill="#8E9EB8"/>
</g>
<defs>
<linearGradient id="paint0_linear" x1="179.957" y1="186.242" x2="211.947" y2="154.259" gradientUnits="userSpaceOnUse">
<stop stop-color="white"/>
<stop offset="1" stop-color="#59C3C5"/>
</linearGradient>
<clipPath id="clip0">
<rect width="702" height="507" fill="white"/>
</clipPath>
</defs>
</svg>
