<svg width="18" height="18" viewBox="0 0 18 18" fill="none" xmlns="http://www.w3.org/2000/svg">
<path d="M13.0325 0H4.96721C2.22829 0 0 2.2284 0 4.96732V13.0326C0 15.7716 2.22829 17.9999 4.96721 17.9999H13.0325C15.7716 17.9999 17.9999 15.7715 17.9999 13.0326V4.96732C18 2.2284 15.7716 0 13.0325 0ZM16.403 13.0326C16.403 14.891 14.891 16.4029 13.0326 16.4029H4.96721C3.1089 16.403 1.59704 14.891 1.59704 13.0326V4.96732C1.59704 3.10901 3.1089 1.59704 4.96721 1.59704H13.0325C14.8909 1.59704 16.4029 3.10901 16.4029 4.96732V13.0326H16.403Z" fill="white"/>
<path d="M8.99928 4.36182C6.44178 4.36182 4.36116 6.44244 4.36116 8.99993C4.36116 11.5573 6.44178 13.6378 8.99928 13.6378C11.5568 13.6378 13.6374 11.5573 13.6374 8.99993C13.6374 6.44244 11.5568 4.36182 8.99928 4.36182ZM8.99928 12.0407C7.32249 12.0407 5.9582 10.6766 5.9582 8.99983C5.9582 7.32294 7.32239 5.95875 8.99928 5.95875C10.6762 5.95875 12.0404 7.32294 12.0404 8.99983C12.0404 10.6766 10.6761 12.0407 8.99928 12.0407Z" fill="white"/>
<path d="M13.8318 3.00781C13.5241 3.00781 13.2218 3.13238 13.0045 3.35064C12.7862 3.56784 12.6606 3.87021 12.6606 4.17897C12.6606 4.48678 12.7863 4.78904 13.0045 5.0073C13.2217 5.2245 13.5241 5.35013 13.8318 5.35013C14.1406 5.35013 14.4419 5.2245 14.6601 5.0073C14.8784 4.78904 15.003 4.48667 15.003 4.17897C15.003 3.87021 14.8784 3.56784 14.6601 3.35064C14.4429 3.13238 14.1406 3.00781 13.8318 3.00781Z" fill="white"/>
</svg>
