<svg width="363" height="88" viewBox="0 0 363 88" fill="none" xmlns="http://www.w3.org/2000/svg">
<g clip-path="url(#clip0)">
<path d="M55.3832 48.6475C52.6348 48.3657 49.7859 48.4969 47.0778 47.8703C44.6245 47.2275 42.2397 46.3406 39.9591 45.2227C35.3904 43.0729 31.0506 40.4594 27.0078 37.4233C23.0092 34.464 19.2351 31.2096 15.717 27.6875C11.9387 23.8949 8.79844 19.4459 7.93221 14.0657C7.74014 12.9041 5.96607 13.3658 6.16812 14.5216C7.9248 24.8059 17.5955 32.3226 25.4721 38.1827C29.8097 41.4411 34.53 44.1488 39.5249 46.2436C42.0243 47.3736 44.6439 48.2097 47.3313 48.7353C49.9906 49.1623 52.6839 48.9803 55.3855 49.135C55.6997 49.1612 55.6953 48.6816 55.3832 48.6475Z" fill="#38B9C6"/>
<path d="M10.8423 34.0718C9.9472 30.6103 9.80153 26.743 9.17265 23.2015C8.85045 21.4921 8.81378 19.5175 8.25738 17.863C7.80646 16.5293 6.77809 15.1741 6.07628 13.9586L4.92285 15.1268C8.67381 17.1336 11.9765 20.1025 15.418 22.6095C17.2725 23.9566 19.728 26.1488 22.2113 25.9139C22.3889 25.9141 22.5602 25.8496 22.6932 25.7322C22.8261 25.6148 22.9118 25.4527 22.9341 25.2759C22.9565 25.0992 22.914 24.9199 22.8147 24.7714C22.7153 24.623 22.5658 24.5155 22.394 24.4689C16.0265 22.3855 11.5952 16.7596 5.75907 13.6394C5.5963 13.5528 5.41052 13.5207 5.22898 13.5478C5.04744 13.5748 4.8797 13.6596 4.75036 13.7898C4.62103 13.9199 4.5369 14.0884 4.51034 14.2707C4.48377 14.453 4.51615 14.6394 4.60274 14.8026C5.41765 16.2141 6.4501 17.6339 6.93354 19.1966C7.46456 20.8992 7.7214 22.7601 8.14773 24.5232C8.89908 27.7127 9.23295 31.1231 10.2713 34.234C10.3023 34.2977 10.3541 34.3488 10.4181 34.3787C10.4821 34.4087 10.5543 34.4156 10.6225 34.3983C10.6907 34.381 10.7506 34.3405 10.7923 34.2838C10.8339 34.227 10.8546 34.1575 10.851 34.0868L10.8423 34.0718Z" fill="#38B9C6"/>
</g>
<g clip-path="url(#clip1)">
<path d="M207.84 32.6042C182.068 33.2203 156.332 35.1308 131.952 39.5188C113.825 42.7763 89.7799 47.4324 78.7613 56.4897C53.1242 77.6667 159.131 81.1901 175.774 81.4369C227.431 82.2041 280.072 80.9767 328.648 71.7038C340.055 69.5271 356.234 66.2461 361.017 59.5351C366.098 52.4331 353.329 47.0822 342.591 44.5892C323.091 40.0735 300.38 39.6929 279.822 39.276C245.465 38.5778 211.374 40.152 177.365 41.6955C175.433 41.7841 176.209 43.4164 178.12 43.3383C221.826 41.5202 266.269 39.5161 310.338 42.3816C324.522 43.3005 347.522 44.7168 356.358 52.2045C366.753 61.0062 342.542 66.9385 331.249 69.331C293.788 77.2642 251.358 79.7845 211.055 80.1161C188.092 80.4904 165.04 80.0057 142.059 78.6654C130.713 77.9002 119.453 76.661 108.375 74.9587C98.455 73.4975 80.5922 70.3543 77.8946 63.8614C74.7386 56.5387 92.0485 51.09 101.123 48.2744C112.065 44.9272 123.645 42.213 135.686 40.1731C158.992 36.3322 183.225 34.1629 207.801 33.7176C209.082 33.6843 209.141 32.5828 207.84 32.6042Z" fill="#38B9C6"/>
<path d="M118.353 63.3548L119.313 63.3575C119.591 62.9422 119.811 62.4148 119.972 61.7753C120.133 61.1251 120.214 60.3573 120.216 59.472L120.22 56.944L126.252 56.9609L126.241 63.3769L127.521 63.3804L127.514 67.4604L125.37 67.4544L125.374 65.2144L120.494 65.2008L120.49 67.4408L118.346 67.4348L118.353 63.3548ZM123.953 63.3704L123.961 58.7945L122.345 58.7899L122.344 59.5419C122.342 60.3739 122.282 61.1151 122.164 61.7654C122.045 62.4158 121.879 62.9486 121.665 63.364L123.953 63.3704ZM128.139 63.3822L129.259 63.3853C129.494 63.098 129.676 62.6878 129.805 62.1548C129.934 61.6219 129.999 60.8594 130.001 59.8674L130.006 56.9714L136.31 56.989L136.296 65.245L133.928 65.2384L133.938 58.8224L132.131 58.8173L132.129 59.9373C132.127 60.6093 132.1 61.1959 132.046 61.6971C131.991 62.1983 131.916 62.6301 131.819 62.9925C131.723 63.3549 131.61 63.6586 131.482 63.9035C131.353 64.1485 131.214 64.3455 131.065 64.4944C130.755 64.8028 130.424 65.0206 130.072 65.1476C129.73 65.264 129.303 65.3214 128.791 65.32L128.135 65.3182L128.139 63.3822ZM138.1 63.4101L139.06 63.4128L139.462 62.7099C139.729 62.2626 140.14 62.0398 140.695 62.0413L140.695 61.9453C140.002 61.8794 139.437 61.6645 139 61.3006C138.563 60.9367 138.346 60.4081 138.347 59.7147C138.347 59.2987 138.417 58.9256 138.557 58.5953C138.696 58.2544 138.888 57.9669 139.134 57.7329C139.38 57.499 139.673 57.3185 140.015 57.1914C140.367 57.0644 140.746 57.0015 141.151 57.0026L145.759 57.0155L145.745 65.2715L143.377 65.2649L143.382 62.3049L142.358 62.302L141.363 64.0592C141.107 64.5172 140.829 64.8311 140.53 65.0009C140.231 65.1707 139.841 65.255 139.361 65.2536L138.097 65.2501L138.1 63.4101ZM143.388 58.6889L141.628 58.6839C141.34 58.6831 141.116 58.7732 140.956 58.9541C140.806 59.135 140.731 59.3321 140.731 59.5454L140.73 59.9134C140.73 60.1268 140.804 60.319 140.953 60.4901C141.113 60.6505 141.337 60.7311 141.625 60.7319L143.385 60.7369L143.388 58.6889ZM160.208 58.896L157.488 58.8884L157.491 57.0484L165.267 57.0701L165.264 58.9101L162.544 58.9025L162.533 65.3185L160.197 65.312L160.208 58.896ZM170.958 65.5341C170.318 65.5323 169.742 65.4347 169.231 65.2413C168.719 65.0372 168.282 64.7479 167.92 64.3736C167.569 63.9993 167.298 63.5452 167.106 63.0113C166.915 62.4774 166.82 61.8745 166.821 61.2025C166.823 60.5305 166.92 59.9281 167.113 59.3953C167.305 58.8625 167.578 58.4099 167.931 58.0376C168.294 57.6653 168.732 57.3838 169.244 57.1933C169.757 56.992 170.333 56.8923 170.973 56.8941C171.613 56.8959 172.189 56.9989 172.7 57.203C173.212 57.3964 173.643 57.6803 173.995 58.0546C174.357 58.4289 174.633 58.883 174.825 59.4169C175.016 59.9508 175.111 60.5537 175.109 61.2257C175.108 61.8977 175.011 62.5001 174.818 63.0329C174.625 63.5657 174.347 64.0183 173.984 64.3906C173.631 64.7629 173.199 65.0497 172.687 65.2509C172.174 65.4415 171.598 65.5359 170.958 65.5341ZM170.961 63.7741C171.494 63.7756 171.911 63.6114 172.21 63.2816C172.509 62.9518 172.659 62.4829 172.66 61.8749L172.663 60.5629C172.664 59.9549 172.515 59.4851 172.217 59.1536C171.919 58.8221 171.503 58.6556 170.97 58.6541C170.436 58.6526 170.02 58.8168 169.721 59.1466C169.422 59.4765 169.272 59.9454 169.271 60.5534L169.268 61.8654C169.267 62.4734 169.416 62.9431 169.714 63.2746C170.012 63.6061 170.428 63.7726 170.961 63.7741ZM176.71 57.1022L179.078 57.1088L179.076 58.6128L179.188 58.6131C179.391 58.123 179.685 57.7185 180.07 57.3996C180.454 57.0807 180.977 56.9221 181.639 56.924C182.097 56.9253 182.513 57.0118 182.886 57.1835C183.27 57.3552 183.595 57.6175 183.861 57.9702C184.137 58.323 184.35 58.7716 184.498 59.316C184.658 59.8605 184.736 60.506 184.735 61.2527C184.734 61.9993 184.653 62.6445 184.492 63.188C184.342 63.7316 184.128 64.179 183.85 64.5302C183.582 64.8815 183.257 65.1419 182.872 65.3115C182.499 65.4811 182.083 65.5653 181.624 65.564C180.963 65.5621 180.44 65.406 180.057 65.0956C179.673 64.7745 179.381 64.363 179.179 63.8611L179.067 63.8608L179.059 68.5648L176.691 68.5582L176.71 57.1022ZM180.603 63.7211C181.136 63.7226 181.547 63.5638 181.836 63.2446C182.124 62.9147 182.269 62.4618 182.27 61.8858L182.272 60.6058C182.273 60.0298 182.13 59.5814 181.843 59.2606C181.555 58.9291 181.145 58.7626 180.611 58.7611C180.195 58.76 179.833 58.8603 179.523 59.0621C179.224 59.2639 179.074 59.5835 179.073 60.0208L179.069 62.4528C179.068 62.8901 179.217 63.2106 179.516 63.4141C179.824 63.6176 180.187 63.7199 180.603 63.7211ZM187.312 57.1319L193.552 57.1494L193.549 58.9894L189.677 58.9785L189.666 65.3945L187.298 65.3879L187.312 57.1319ZM199.739 65.6147C199.099 65.6129 198.523 65.5153 198.012 65.3219C197.5 65.1178 197.063 64.8286 196.701 64.4542C196.35 64.0799 196.079 63.6258 195.888 63.0919C195.696 62.5581 195.601 61.9551 195.603 61.2831C195.604 60.6111 195.701 60.0087 195.894 59.4759C196.087 58.9431 196.359 58.4906 196.712 58.1182C197.075 57.7459 197.513 57.4645 198.025 57.2739C198.538 57.0727 199.114 56.9729 199.754 56.9747C200.394 56.9765 200.97 57.0795 201.481 57.2836C201.993 57.477 202.425 57.7609 202.776 58.1352C203.138 58.5095 203.415 58.9637 203.606 59.4975C203.797 60.0314 203.892 60.6343 203.891 61.3063C203.889 61.9783 203.792 62.5807 203.6 63.1135C203.407 63.6463 203.129 64.0989 202.765 64.4712C202.413 64.8435 201.98 65.1303 201.468 65.3316C200.955 65.5221 200.379 65.6165 199.739 65.6147ZM199.742 63.8547C200.276 63.8562 200.692 63.692 200.991 63.3622C201.29 63.0324 201.44 62.5635 201.441 61.9555L201.444 60.6435C201.445 60.0355 201.296 59.5657 200.998 59.2342C200.7 58.9027 200.284 58.7362 199.751 58.7347C199.218 58.7332 198.801 58.8974 198.502 59.2272C198.203 59.5571 198.053 60.026 198.052 60.634L198.05 61.946C198.048 62.554 198.197 63.0237 198.495 63.3552C198.793 63.6867 199.209 63.8532 199.742 63.8547ZM205.827 57.1837L210.547 57.197C211.315 57.1991 211.902 57.3928 212.306 57.7779C212.711 58.163 212.913 58.6756 212.912 59.3156C212.911 59.7849 212.772 60.1739 212.494 60.4824C212.227 60.791 211.784 61.0031 211.165 61.1187L211.165 61.1987C211.826 61.2539 212.332 61.4366 212.684 61.747C213.046 62.0573 213.226 62.4845 213.225 63.0285C213.224 63.7751 212.989 64.3665 212.518 64.8025C212.048 65.2385 211.397 65.4554 210.565 65.453L205.813 65.4397L205.827 57.1837ZM210.152 63.7719C210.622 63.7732 210.857 63.5498 210.857 63.1018L210.858 62.7178C210.858 62.4832 210.795 62.3123 210.667 62.2053C210.539 62.0876 210.368 62.0285 210.155 62.0279L208.123 62.0222L208.12 63.7662L210.152 63.7719ZM209.87 60.6191C210.083 60.6197 210.248 60.5615 210.366 60.4445C210.483 60.3168 210.542 60.141 210.543 59.917L210.543 59.581C210.544 59.357 210.485 59.1861 210.368 59.0685C210.251 58.9401 210.086 58.8757 209.872 58.8751L208.128 58.8702L208.126 60.6142L209.87 60.6191ZM218.927 65.6685C218.287 65.6667 217.711 65.5691 217.199 65.3756C216.688 65.1715 216.251 64.8823 215.889 64.5079C215.537 64.1336 215.266 63.6795 215.075 63.1457C214.884 62.6118 214.789 62.0089 214.79 61.3369C214.791 60.6649 214.888 60.0625 215.081 59.5297C215.274 58.9969 215.547 58.5443 215.899 58.172C216.263 57.7996 216.701 57.5182 217.213 57.3276C217.725 57.1264 218.301 57.0267 218.941 57.0285C219.581 57.0303 220.157 57.1332 220.669 57.3373C221.181 57.5307 221.612 57.8146 221.963 58.1889C222.325 58.5633 222.602 59.0174 222.793 59.5513C222.984 60.0851 223.079 60.6881 223.078 61.3601C223.077 62.0321 222.98 62.6345 222.787 63.1673C222.594 63.7001 222.316 64.1526 221.953 64.5249C221.6 64.8973 221.168 65.1841 220.655 65.3853C220.143 65.5759 219.567 65.6703 218.927 65.6685ZM218.93 63.9085C219.463 63.91 219.879 63.7458 220.179 63.416C220.478 63.0861 220.628 62.6172 220.629 62.0092L220.631 60.6972C220.632 60.0892 220.484 59.6195 220.186 59.288C219.887 58.9565 219.472 58.79 218.938 58.7885C218.405 58.787 217.989 58.9511 217.69 59.281C217.39 59.6108 217.24 60.0797 217.239 60.6877L217.237 61.9997C217.236 62.6077 217.384 63.0775 217.683 63.409C217.981 63.7405 218.396 63.907 218.93 63.9085ZM224.823 57.2369L227.127 57.2434L227.122 59.8994L226.926 62.3309L227.022 62.3311L230.023 57.2515L232.247 57.2577L232.233 65.5137L229.929 65.5073L229.933 62.8513L230.129 60.4198L230.033 60.4195L227.033 65.4992L224.809 65.4929L224.823 57.2369ZM228.568 56.3834C227.864 56.3815 227.288 56.2252 226.841 55.9146C226.394 55.5933 226.058 55.1391 225.835 54.5518L225.501 53.6708L227.342 52.988L227.851 54.7014C227.915 54.7336 228.016 54.7605 228.155 54.7823C228.294 54.804 228.432 54.815 228.571 54.8154C228.71 54.8158 228.848 54.8055 228.987 54.7846C229.126 54.7637 229.227 54.7373 229.291 54.7055L229.806 52.9949L231.645 53.688L231.307 54.5671C231.082 55.1531 230.746 55.6055 230.297 55.9243C229.848 56.2323 229.272 56.3854 228.568 56.3834ZM244.058 57.2908L246.426 57.2975L246.421 60.4654L247.637 60.4689L249.306 57.3055L251.818 57.3126L250.213 60.1561C250.031 60.4969 249.834 60.747 249.62 60.9064C249.417 61.0552 249.182 61.1559 248.916 61.2084L248.915 61.3044C249.225 61.3693 249.475 61.4873 249.667 61.6585C249.869 61.8191 250.071 62.097 250.273 62.4922L250.895 63.726L251.775 63.7285L251.772 65.5685L250.668 65.5654C250.22 65.5641 249.836 65.4724 249.517 65.2901C249.208 65.1079 248.941 64.7979 248.718 64.3599L247.634 62.2769L246.418 62.2734L246.412 65.5534L244.044 65.5468L244.058 57.2908ZM257.302 65.7759C256.662 65.7741 256.086 65.6765 255.574 65.4831C255.062 65.279 254.626 64.9898 254.264 64.6154C253.912 64.2411 253.641 63.787 253.45 63.2531C253.259 62.7193 253.164 62.1163 253.165 61.4443C253.166 60.7723 253.263 60.1699 253.456 59.6371C253.649 59.1044 253.922 58.6518 254.274 58.2794C254.638 57.9071 255.075 57.6257 255.588 57.4351C256.1 57.2339 256.676 57.1342 257.316 57.136C257.956 57.1377 258.532 57.2407 259.044 57.4448C259.555 57.6382 259.987 57.9221 260.338 58.2964C260.7 58.6708 260.977 59.1249 261.168 59.6587C261.359 60.1926 261.454 60.7956 261.453 61.4676C261.452 62.1396 261.355 62.7419 261.162 63.2747C260.969 63.8075 260.691 64.2601 260.328 64.6324C259.975 65.0048 259.542 65.2915 259.03 65.4928C258.518 65.6833 257.942 65.7777 257.302 65.7759ZM257.305 64.0159C257.838 64.0174 258.254 63.8533 258.553 63.5234C258.853 63.1936 259.003 62.7247 259.004 62.1167L259.006 60.8047C259.007 60.1967 258.858 59.7269 258.56 59.3954C258.262 59.0639 257.847 58.8974 257.313 58.8959C256.78 58.8945 256.364 59.0586 256.064 59.3885C255.765 59.7183 255.615 60.1872 255.614 60.7952L255.612 62.1072C255.611 62.7152 255.759 63.1849 256.057 63.5164C256.355 63.848 256.771 64.0144 257.305 64.0159ZM262.91 57.3436L265.31 57.3503L266.952 60.827L267.08 60.8273L268.734 57.3599L270.91 57.366L270.896 65.622L268.976 65.6166L268.982 61.6646L269.065 60.2089L268.937 60.2085L266.898 64.4748L264.873 60.1971L264.745 60.1968L264.822 61.653L264.816 65.605L262.896 65.5996L262.91 57.3436ZM272.791 57.3713L280.215 57.3921L280.201 65.6481L277.833 65.6414L277.844 59.2255L275.156 59.2179L275.145 65.6339L272.777 65.6273L272.791 57.3713ZM289.075 65.6729C288.584 65.6716 288.19 65.5478 287.892 65.3016C287.593 65.0448 287.418 64.6816 287.365 64.2121L287.285 64.2119C287.135 64.7555 286.836 65.1653 286.387 65.4414C285.95 65.7175 285.411 65.8547 284.771 65.8529C283.971 65.8506 283.326 65.6355 282.836 65.2075C282.357 64.7688 282.118 64.1601 282.119 63.3814C282.12 62.5174 282.436 61.8783 283.066 61.4641C283.696 61.0499 284.619 60.8444 285.835 60.8478L287.163 60.8516L287.164 60.4356C287.165 59.9449 287.048 59.5766 286.814 59.3306C286.59 59.0739 286.206 58.9449 285.662 58.9434C285.161 58.9419 284.756 59.0368 284.446 59.2279C284.136 59.4191 283.869 59.669 283.645 59.9777L282.351 58.8221C282.629 58.3535 283.061 57.9707 283.649 57.6737C284.246 57.366 285.009 57.2135 285.937 57.2161C287.068 57.2193 287.948 57.4831 288.576 58.0075C289.215 58.5213 289.534 59.3009 289.532 60.3462L289.526 63.9622L290.438 63.9647L290.435 65.6767L289.075 65.6729ZM285.669 64.3034C286.085 64.3046 286.438 64.2042 286.726 64.0023C287.014 63.8005 287.159 63.5076 287.159 63.1236L287.161 62.1316L285.897 62.128C284.926 62.1253 284.44 62.4493 284.439 63.0999L284.439 63.4199C284.438 63.7079 284.55 63.9269 284.774 64.0769C284.997 64.2268 285.296 64.3023 285.669 64.3034ZM291.979 57.425L294.347 57.4317L294.341 60.5837L297.029 60.5912L297.035 57.4392L299.403 57.4458L299.389 65.7018L297.021 65.6952L297.026 62.4312L294.338 62.4237L294.333 65.6877L291.965 65.681L291.979 57.425ZM301.572 57.4519L303.876 57.4584L303.872 60.1144L303.676 62.5458L303.772 62.5461L306.772 57.4665L308.996 57.4727L308.982 65.7287L306.678 65.7222L306.683 63.0662L306.879 60.6348L306.783 60.6345L303.782 65.7141L301.558 65.7079L301.572 57.4519ZM311.166 57.4788L313.47 57.4852L313.466 60.1412L313.27 62.5727L313.366 62.573L316.366 57.4933L318.59 57.4996L318.576 65.7556L316.272 65.7491L316.277 63.0931L316.473 60.6617L316.377 60.6614L313.376 65.741L311.152 65.7348L311.166 57.4788Z" fill="#476481"/>
</g>
<defs>
<clipPath id="clip0">
<rect width="56" height="32" fill="white" transform="translate(28 65) rotate(-120)"/>
</clipPath>
<clipPath id="clip1">
<rect width="287" height="50" fill="white" transform="translate(76 28) rotate(2)"/>
</clipPath>
</defs>
</svg>
