<svg width="109" height="77" viewBox="0 0 109 77" fill="none" xmlns="http://www.w3.org/2000/svg">
<path d="M109 0H0V6.18552H109V0Z" fill="#3D95D1"/>
<path d="M109 6.18555H0V77H109V6.18555Z" fill="white"/>
<path d="M34.3739 42.3819V21.105C30.1719 21.1037 26.0639 22.3506 22.5695 24.688C19.0751 27.0254 16.3512 30.3483 14.7423 34.2364C13.1335 38.1246 12.712 42.4032 13.5311 46.5313C14.3502 50.6594 16.3731 54.4515 19.344 57.4279C22.3149 60.4044 26.1004 62.4315 30.2216 63.2529C34.3428 64.0742 38.6146 63.653 42.4967 62.0424C46.3789 60.4318 49.697 57.7043 52.0314 54.2047C54.3658 50.7051 55.6116 46.5907 55.6113 42.3819C55.6113 42.241 55.5919 42.1034 55.5903 41.9625L34.3739 42.3819Z" fill="#005D92"/>
<path d="M58.5842 39.3023C58.4771 33.7349 56.1942 28.4316 52.226 24.5317C48.2578 20.6318 42.9207 18.4463 37.3613 18.4448V39.7233L58.5842 39.3023Z" fill="#FAA634"/>
<path d="M78.6741 21.105H71.2959V28.4952H78.6741V21.105Z" fill="#FAA634"/>
<path opacity="0.7" d="M98.8637 21.105H81.9604V22.7841H98.8637V21.105Z" fill="#99B6CA"/>
<path opacity="0.7" d="M91.9721 23.96H81.9604V25.6391H91.9721V23.96Z" fill="#99B6CA"/>
<path d="M78.6741 34.9917H71.2959V42.3819H78.6741V34.9917Z" fill="#76BEEA"/>
<path opacity="0.7" d="M98.8637 34.9917H81.9604V36.6709H98.8637V34.9917Z" fill="#99B6CA"/>
<path opacity="0.7" d="M91.9721 37.8481H81.9604V39.5273H91.9721V37.8481Z" fill="#99B6CA"/>
</svg>
