<svg width="185" height="63" viewBox="0 0 185 63" fill="none" xmlns="http://www.w3.org/2000/svg">
<path d="M85.037 22.4389L92.461 22.4597L92.447 30.7157L90.079 30.7091L90.0899 24.2931L87.4019 24.2856L87.391 30.7015L85.0231 30.6949L85.037 22.4389ZM94.4868 22.4654L96.8547 22.472L96.8522 23.976L96.9642 23.9763C97.1677 23.4862 97.4617 23.0817 97.8463 22.7628C98.2308 22.4439 98.7537 22.2853 99.4151 22.2872C99.8737 22.2885 100.29 22.375 100.663 22.5467C101.046 22.7184 101.371 22.9807 101.637 23.3334C101.914 23.6862 102.127 24.1348 102.275 24.6792C102.434 25.2237 102.513 25.8692 102.512 26.6159C102.51 27.3626 102.429 28.0077 102.268 28.5512C102.118 29.0948 101.904 29.5422 101.626 29.8934C101.359 30.2447 101.033 30.5051 100.649 30.6747C100.275 30.8443 99.8591 30.9285 99.4004 30.9272C98.7391 30.9253 98.2167 30.7692 97.8332 30.4588C97.4498 30.1377 97.1571 29.7262 96.9553 29.2243L96.8433 29.224L96.8353 33.928L94.4673 33.9214L94.4868 22.4654ZM98.3795 29.0843C98.9129 29.0858 99.3238 28.927 99.6123 28.6078C99.9009 28.2779 100.046 27.825 100.047 27.249L100.049 25.969C100.05 25.393 99.9066 24.9446 99.6191 24.6238C99.3317 24.2923 98.9213 24.1258 98.3879 24.1243C97.9719 24.1232 97.6091 24.2235 97.2994 24.4253C97.0004 24.6271 96.8506 24.9467 96.8498 25.384L96.8457 27.816C96.8449 28.2534 96.9937 28.5738 97.2921 28.7773C97.601 28.9808 97.9635 29.0832 98.3795 29.0843ZM104.224 22.4927L106.528 22.4991L106.524 25.1551L106.328 27.5866L106.424 27.5868L109.424 22.5072L111.648 22.5135L111.634 30.7695L109.33 30.763L109.335 28.107L109.531 25.6755L109.435 25.6753L106.434 30.7549L104.21 30.7487L104.224 22.4927ZM113.53 22.5187L115.93 22.5255L117.572 26.0021L117.7 26.0024L119.354 22.535L121.53 22.5411L121.516 30.7971L119.596 30.7918L119.603 26.8398L119.685 25.384L119.557 25.3836L117.518 29.6499L115.493 25.3722L115.365 25.3719L115.443 26.8281L115.436 30.7801L113.516 30.7747L113.53 22.5187ZM127.334 31.0054C125.947 31.0015 124.897 30.6146 124.184 29.8446C123.47 29.0746 123.115 28.0283 123.117 26.7056C123.118 26.0336 123.21 25.4312 123.392 24.8984C123.585 24.3549 123.852 23.897 124.194 23.5246C124.547 23.1416 124.969 22.8548 125.46 22.6641C125.961 22.4629 126.522 22.3631 127.14 22.3649C127.759 22.3666 128.313 22.4695 128.804 22.6735C129.294 22.8669 129.71 23.1454 130.05 23.509C130.391 23.8726 130.652 24.316 130.832 24.8392C131.023 25.3517 131.118 25.928 131.117 26.568L131.116 27.272L125.468 27.2562L125.468 27.4002C125.467 27.9335 125.631 28.366 125.961 28.6976C126.292 29.0185 126.777 29.1799 127.417 29.1816C127.907 29.183 128.329 29.0935 128.681 28.9132C129.033 28.7222 129.338 28.4724 129.594 28.1637L130.872 29.5593C130.551 29.9531 130.103 30.2932 129.526 30.5796C128.95 30.8659 128.219 31.0079 127.334 31.0054ZM127.153 24.0609C126.641 24.0595 126.23 24.2183 125.921 24.5374C125.621 24.8459 125.471 25.2669 125.47 25.8002L125.47 25.9282L128.798 25.9375L128.798 25.8095C128.799 25.2655 128.651 24.8384 128.353 24.5283C128.065 24.2181 127.665 24.0623 127.153 24.0609ZM132.862 22.5729L135.23 22.5795L135.227 24.0835L135.339 24.0838C135.543 23.5937 135.837 23.1892 136.221 22.8703C136.606 22.5514 137.129 22.3928 137.79 22.3947C138.249 22.396 138.664 22.4825 139.037 22.6542C139.421 22.8259 139.746 23.0882 140.012 23.4409C140.289 23.7937 140.501 24.2423 140.65 24.7867C140.809 25.3311 140.888 25.9767 140.887 26.7234C140.885 27.47 140.804 28.1151 140.643 28.6587C140.493 29.2023 140.279 29.6497 140.001 30.0009C139.734 30.3522 139.408 30.6126 139.024 30.7822C138.65 30.9518 138.234 31.036 137.775 31.0347C137.114 31.0328 136.592 30.8767 136.208 30.5663C135.825 30.2452 135.532 29.8337 135.33 29.3318L135.218 29.3315L135.21 34.0355L132.842 34.0289L132.862 22.5729ZM136.754 29.1918C137.288 29.1933 137.699 29.0344 137.987 28.7153C138.276 28.3854 138.421 27.9325 138.422 27.3565L138.424 26.0765C138.425 25.5005 138.281 25.0521 137.994 24.7313C137.707 24.3998 137.296 24.2333 136.763 24.2318C136.347 24.2306 135.984 24.331 135.674 24.5328C135.375 24.7346 135.225 25.0542 135.225 25.4915L135.221 27.9235C135.22 28.3608 135.369 28.6813 135.667 28.8848C135.976 29.0883 136.338 29.1906 136.754 29.1918Z" fill="#476481"/>
<path d="M111.569 2.17594C99.3806 3.1308 87.1898 5.26303 75.6016 9.62913C66.9859 12.8708 55.5523 17.4758 50.2069 25.8866C37.7682 45.5504 87.8077 47.1354 95.669 47.1054C120.068 47.0134 144.962 45.0913 168.058 35.9097C173.482 33.7543 181.177 30.5211 183.54 24.3407C186.05 17.8001 180.098 13.126 175.062 11.0215C165.916 7.21032 155.19 7.21132 145.482 7.14637C129.257 7.03657 113.123 8.9905 97.0287 10.9154C96.1142 11.0255 96.4557 12.4991 97.3603 12.3988C118.041 10.0758 139.073 7.57222 159.855 9.50584C166.543 10.1251 177.39 11.0622 181.451 17.741C186.229 25.5918 174.697 31.3606 169.324 33.7106C151.5 41.503 131.411 44.4456 112.361 45.3638C101.504 46.0556 90.6185 45.9671 79.7789 45.099C74.4294 44.5761 69.1271 43.6207 63.9185 42.2409C59.2531 41.0629 50.8601 38.4758 49.6846 32.6084C48.3052 25.9928 56.5684 20.7696 60.8996 18.0685C66.1217 14.8551 71.6353 12.2079 77.3562 10.1675C88.4282 6.31561 99.913 3.97084 111.533 3.18976C112.139 3.13985 112.183 2.13651 111.569 2.17594Z" fill="#38B9C6"/>
<path d="M34.3127 31.1645C32.5756 31.4138 30.764 31.4035 29.0613 31.8706C27.5206 32.3414 26.0298 32.9655 24.6109 33.7334C21.7662 35.215 19.0787 36.9849 16.5907 39.0155C14.1286 40.9963 11.8165 43.1585 9.67389 45.4841C7.37299 47.9881 5.49387 50.8923 5.08194 54.3293C4.98979 55.0715 3.85197 54.8239 3.95059 54.0851C4.80203 47.5127 10.7473 42.4941 15.5965 38.5729C18.266 36.3936 21.1926 34.5541 24.3091 33.0966C25.8666 32.3153 27.5078 31.7175 29.2 31.3151C30.8769 30.9759 32.591 31.0224 34.3017 30.855C34.5005 30.8303 34.51 31.1349 34.3127 31.1645V31.1645Z" fill="#38B9C6"/>
<path d="M6.41632 41.557C5.93691 43.7769 5.94355 46.2352 5.63515 48.4991C5.47446 49.5923 5.50178 50.8465 5.19103 51.9108C4.939 52.7689 4.32103 53.6554 3.90674 54.4449L3.14472 53.7329C5.47402 52.3631 7.49416 50.3941 9.61423 48.7148C10.7568 47.8123 12.2591 46.358 13.8412 46.4434C13.954 46.4387 14.0643 46.4753 14.1517 46.5464C14.2391 46.6175 14.2976 46.7182 14.3163 46.8298C14.3351 46.9414 14.3127 47.0563 14.2535 47.1531C14.1942 47.2499 14.1021 47.3219 13.9942 47.3559C10.0062 48.8414 7.33783 52.5256 3.71358 54.6556C3.61249 54.7147 3.4954 54.7398 3.37948 54.7273C3.26357 54.7148 3.15493 54.6652 3.06951 54.586C2.98409 54.5067 2.92638 54.4019 2.90484 54.2869C2.88331 54.1719 2.89909 54.0527 2.94986 53.9469C3.43091 53.0302 4.04982 52.1025 4.31662 51.0983C4.61003 50.0041 4.72536 48.8164 4.95077 47.6864C5.34592 45.6428 5.47044 43.4697 6.04974 41.4686C6.06779 41.4274 6.09941 41.3936 6.13926 41.373C6.17911 41.3524 6.22475 41.3461 6.26846 41.3554C6.31217 41.3646 6.35127 41.3887 6.37915 41.4237C6.40702 41.4586 6.42197 41.5023 6.42146 41.5472L6.41632 41.557Z" fill="#38B9C6"/>
</svg>
