<svg width="14" height="17" viewBox="0 0 14 17" fill="none" xmlns="http://www.w3.org/2000/svg">
<g clip-path="url(#clip0)">
<path d="M11.9198 5.43905C11.6765 5.32166 11.4249 5.21731 11.169 5.11731C11.169 4.39557 11.1481 3.67818 11.1313 2.9434C11.1313 2.30427 10.4896 2.32601 10.477 2.9434C10.4644 3.56079 10.4519 4.19557 10.4435 4.82601C7.33142 3.83036 3.80835 4.04775 0.687923 4.82601C0.687923 4.7434 0.687923 4.66079 0.687923 4.58253C0.687923 4.50427 0.574681 4.46949 0.570487 4.58253C0.566293 4.69557 0.570487 4.76514 0.570487 4.85644L0.0671918 4.99122C-0.025079 5.01731 -0.0041084 5.27818 0.0965507 5.25644L0.553711 5.21731C0.48241 9.07383 0.323034 12.9999 0.553711 16.8391C0.553711 16.9912 0.696311 16.9825 0.704699 16.8391C0.931182 12.9869 0.771805 9.05644 0.704699 5.19557C4.11452 4.65209 7.13849 5.07818 10.4393 5.75644C10.4015 8.96079 10.4393 12.1912 10.6196 15.3782C7.46361 15.2102 4.29972 15.3018 1.15766 15.6521C1.06539 15.6521 1.06959 15.8651 1.15766 15.8738C4.31363 16.2082 7.4904 16.2795 10.6574 16.0869C10.6574 16.3434 10.6867 16.5956 10.7077 16.8521C10.7077 16.9912 10.8838 17.0695 10.9006 16.8869C10.9216 16.5869 10.9384 16.2825 10.9593 15.9825C10.9981 15.918 11.0208 15.8444 11.0252 15.7684C11.0296 15.6925 11.0156 15.6167 10.9845 15.5477C11.1816 12.3521 11.2152 9.11296 11.1816 5.89992L11.8275 6.08688C12.1337 6.13036 12.1631 5.54775 11.9198 5.43905Z" fill="#222C36"/>
<path d="M13.2493 0.117474C8.95033 3.6653 6.09413 8.88269 5.03302 14.4392C4.04977 12.4722 2.54523 10.8371 0.696287 9.72617C0.339786 9.51313 0.230739 10.4131 0.482387 10.5957C2.47302 12.0175 3.9919 14.0415 4.8317 16.3914C5.02882 16.9523 5.55728 16.6783 5.63278 16.2044C6.56387 10.2653 9.43266 5.374 13.7862 1.46965C14.2601 1.05226 13.9036 -0.4347 13.2493 0.117474Z" fill="#0083C7"/>
</g>
<defs>
<clipPath id="clip0">
<rect width="14" height="17" fill="white"/>
</clipPath>
</defs>
</svg>
