<svg width="427" height="154" viewBox="0 0 427 154" fill="none" xmlns="http://www.w3.org/2000/svg">
<path d="M176.4 9.03066C143.728 10.9042 110.893 15.8469 79.3704 26.6436C55.9342 34.6592 24.7928 46.0864 9.40377 67.7431C-26.4187 118.377 106.99 125.037 127.986 125.356C193.149 126.349 259.878 122.596 322.769 99.8269C337.538 94.482 358.515 86.4419 365.645 70.4494C373.214 53.525 357.939 41.039 344.772 35.2984C320.855 24.9008 292.213 24.3615 266.298 23.7017C222.988 22.5957 179.648 26.8744 136.416 31.0793C133.959 31.3203 134.676 35.1792 137.104 34.9632C192.636 29.9522 249.129 24.4881 304.365 30.5788C322.142 32.5312 350.982 35.5221 360.941 53.1385C372.657 73.8466 341.099 88.303 326.439 94.1579C277.812 113.572 223.779 120.228 172.789 121.659C143.706 122.914 114.65 122.134 85.8209 119.323C71.6056 117.689 57.5739 114.931 43.8484 111.071C31.5467 107.764 9.47827 100.595 7.11766 85.2399C4.31171 67.9237 27.0692 54.7246 38.9929 47.9019C53.3633 39.7885 68.4372 33.1661 83.9841 28.1357C114.06 18.6535 145.039 13.121 176.171 11.6719C177.795 11.5724 178.047 8.95893 176.4 9.03066Z" fill="#0083C7"/>
<g clip-path="url(#clip0)">
<path d="M421.71 147.698C416.271 141.628 410.873 135.471 405.098 129.711C402.32 127.052 399.405 124.539 396.366 122.181C393.666 120.006 390.859 117.018 387.575 115.805C387.402 115.766 387.222 115.778 387.054 115.839C386.887 115.901 386.74 116.009 386.632 116.151C386.524 116.293 386.458 116.462 386.444 116.639C386.429 116.816 386.466 116.993 386.55 117.148C388.593 120.094 392.336 122.066 395.141 124.272C398.227 126.579 401.176 129.062 403.975 131.709C409.622 137.315 415.03 143.152 420.443 148.975C421.24 149.831 422.507 148.536 421.738 147.671L421.71 147.698Z" fill="#0083C7"/>
<path d="M420.601 146.992C415.008 141.495 413.047 133.745 409.261 127.076L408.16 127.929C413.151 132.829 414.785 140.016 419.225 145.342L420.137 143.749C416.128 142.589 412.35 140.766 408.959 138.355C407.029 136.981 405.039 135.686 402.589 136.568C401.375 137.007 401.875 138.946 403.089 138.498C405.746 137.517 408.607 140.669 410.771 141.853C413.565 143.442 416.534 144.708 419.622 145.626C420.586 145.894 421.085 144.699 420.534 144.033C416.107 138.693 414.409 131.653 409.133 126.949C408.573 126.447 407.596 127.103 408.028 127.798C412.148 134.304 414.476 141.986 420.339 147.256C420.373 147.289 420.419 147.308 420.467 147.307C420.515 147.307 420.561 147.287 420.595 147.253C420.629 147.218 420.648 147.172 420.649 147.124C420.649 147.076 420.63 147.03 420.596 146.997L420.601 146.992Z" fill="#0083C7"/>
</g>
<path d="M91.2188 51.9976V65.9976H72.7388V51.9976H75.9588V63.3576H80.3788V51.9976H83.5988V63.3576H87.9988V51.9976H91.2188ZM105.072 55.2376V65.9976H102.092V64.7376C101.692 65.2042 101.199 65.5576 100.612 65.7976C100.039 66.0376 99.4252 66.1576 98.7719 66.1576C97.3586 66.1576 96.2319 65.7509 95.3919 64.9376C94.5652 64.1242 94.1519 62.9176 94.1519 61.3176V55.2376H97.2719V60.8576C97.2719 62.5909 97.9986 63.4576 99.4519 63.4576C100.212 63.4576 100.819 63.2176 101.272 62.7376C101.725 62.2442 101.952 61.5176 101.952 60.5576V55.2376H105.072ZM113.566 55.0776C114.712 55.0776 115.712 55.3042 116.566 55.7576C117.419 56.2109 118.079 56.8576 118.546 57.6976C119.012 58.5376 119.246 59.5176 119.246 60.6376C119.246 61.7309 119.026 62.6976 118.586 63.5376C118.146 64.3642 117.526 65.0109 116.726 65.4776C115.926 65.9309 115.006 66.1576 113.966 66.1576C112.592 66.1576 111.519 65.7242 110.746 64.8576V69.8776H107.626V60.6576C107.626 59.5509 107.872 58.5776 108.366 57.7376C108.859 56.8976 109.552 56.2442 110.446 55.7776C111.339 55.3109 112.379 55.0776 113.566 55.0776ZM113.426 63.5976C114.239 63.5976 114.899 63.3242 115.406 62.7776C115.912 62.2309 116.166 61.5176 116.166 60.6376C116.166 59.7442 115.912 59.0242 115.406 58.4776C114.899 57.9176 114.239 57.6376 113.426 57.6376C112.612 57.6376 111.952 57.9109 111.446 58.4576C110.952 59.0042 110.706 59.7242 110.706 60.6176C110.706 61.5109 110.952 62.2309 111.446 62.7776C111.939 63.3242 112.599 63.5976 113.426 63.5976ZM126.484 66.1576C125.351 66.1576 124.331 65.9242 123.424 65.4576C122.531 64.9776 121.831 64.3176 121.324 63.4776C120.817 62.6376 120.564 61.6842 120.564 60.6176C120.564 59.5509 120.817 58.5976 121.324 57.7576C121.831 56.9176 122.531 56.2642 123.424 55.7976C124.331 55.3176 125.351 55.0776 126.484 55.0776C127.617 55.0776 128.631 55.3176 129.524 55.7976C130.417 56.2642 131.117 56.9176 131.624 57.7576C132.131 58.5976 132.384 59.5509 132.384 60.6176C132.384 61.6842 132.131 62.6376 131.624 63.4776C131.117 64.3176 130.417 64.9776 129.524 65.4576C128.631 65.9242 127.617 66.1576 126.484 66.1576ZM126.484 63.5976C127.284 63.5976 127.937 63.3309 128.444 62.7976C128.964 62.2509 129.224 61.5242 129.224 60.6176C129.224 59.7109 128.964 58.9909 128.444 58.4576C127.937 57.9109 127.284 57.6376 126.484 57.6376C125.684 57.6376 125.024 57.9109 124.504 58.4576C123.984 58.9909 123.724 59.7109 123.724 60.6176C123.724 61.5242 123.984 62.2509 124.504 62.7976C125.024 63.3309 125.684 63.5976 126.484 63.5976ZM139.27 61.9176H137.65V65.9976H134.53V55.2376H137.65V59.4176H139.33L142.25 55.2376H145.57L141.81 60.3976L145.83 65.9976H142.15L139.27 61.9176ZM157.787 55.2376V65.9976H154.807V64.7376C154.407 65.2042 153.913 65.5576 153.327 65.7976C152.753 66.0376 152.14 66.1576 151.487 66.1576C150.073 66.1576 148.947 65.7509 148.107 64.9376C147.28 64.1242 146.867 62.9176 146.867 61.3176V55.2376H149.987V60.8576C149.987 62.5909 150.713 63.4576 152.167 63.4576C152.927 63.4576 153.533 63.2176 153.987 62.7376C154.44 62.2442 154.667 61.5176 154.667 60.5576V55.2376H157.787ZM171.38 55.2376V65.9976H168.4V64.7376C168 65.2042 167.507 65.5576 166.92 65.7976C166.347 66.0376 165.734 66.1576 165.08 66.1576C163.667 66.1576 162.54 65.7509 161.7 64.9376C160.874 64.1242 160.46 62.9176 160.46 61.3176V55.2376H163.58V60.8576C163.58 62.5909 164.307 63.4576 165.76 63.4576C166.52 63.4576 167.127 63.2176 167.58 62.7376C168.034 62.2442 168.26 61.5176 168.26 60.5576V55.2376H171.38ZM165.84 54.0776C163.494 54.0776 162.314 53.0442 162.3 50.9776H164.34C164.354 51.4442 164.48 51.8109 164.72 52.0776C164.974 52.3309 165.34 52.4576 165.82 52.4576C166.3 52.4576 166.667 52.3309 166.92 52.0776C167.187 51.8109 167.32 51.4442 167.32 50.9776H169.4C169.387 53.0442 168.2 54.0776 165.84 54.0776ZM194.878 60.5776C194.878 62.2442 194.318 63.5642 193.198 64.5376C192.092 65.4976 190.505 66.0509 188.438 66.1976V69.8776H185.578V66.1976C183.512 66.0509 181.918 65.5042 180.798 64.5576C179.692 63.5976 179.138 62.2709 179.138 60.5776C179.138 58.9109 179.685 57.6176 180.778 56.6976C181.885 55.7776 183.485 55.2442 185.578 55.0976V51.1576H188.438V55.0976C190.505 55.2442 192.092 55.7842 193.198 56.7176C194.318 57.6509 194.878 58.9376 194.878 60.5776ZM182.158 60.5776C182.158 61.5376 182.432 62.2776 182.978 62.7976C183.525 63.3176 184.392 63.6442 185.578 63.7776V57.5176C184.392 57.6376 183.525 57.9509 182.978 58.4576C182.432 58.9509 182.158 59.6576 182.158 60.5776ZM188.438 63.7776C189.625 63.6442 190.492 63.3176 191.038 62.7976C191.598 62.2776 191.878 61.5376 191.878 60.5776C191.878 59.6576 191.598 58.9509 191.038 58.4576C190.492 57.9509 189.625 57.6376 188.438 57.5176V63.7776ZM207.771 55.2376V64.1976C207.771 66.1709 207.271 67.6376 206.271 68.5976C205.271 69.5576 203.818 70.0376 201.911 70.0376C200.898 70.0376 199.938 69.9109 199.031 69.6576C198.138 69.4042 197.384 69.0376 196.771 68.5576L198.011 66.3176C198.464 66.6909 199.018 66.9842 199.671 67.1976C200.324 67.4109 200.984 67.5176 201.651 67.5176C202.691 67.5176 203.451 67.2776 203.931 66.7976C204.411 66.3176 204.651 65.5842 204.651 64.5976V64.2376C204.251 64.6376 203.778 64.9442 203.231 65.1576C202.684 65.3709 202.098 65.4776 201.471 65.4776C200.058 65.4776 198.938 65.0776 198.111 64.2776C197.284 63.4642 196.871 62.2509 196.871 60.6376V55.2376H199.991V60.1776C199.991 61.9242 200.718 62.7976 202.171 62.7976C202.918 62.7976 203.518 62.5576 203.971 62.0776C204.424 61.5842 204.651 60.8576 204.651 59.8976V55.2376H207.771ZM210.721 55.2376H213.821V59.4376H218.501V55.2376H221.621V65.9976H218.501V61.9776H213.821V65.9976H210.721V55.2376ZM229.348 61.9176H227.728V65.9976H224.608V55.2376H227.728V59.4176H229.408L232.328 55.2376H235.648L231.888 60.3976L235.908 65.9976H232.228L229.348 61.9176ZM249.56 63.4376V68.3576H246.66V65.9976H237.44V55.2376H240.54V63.4376H244.88V55.2376H248V63.4376H249.56ZM262.142 55.2376V65.9976H259.162V64.7376C258.762 65.2042 258.269 65.5576 257.682 65.7976C257.109 66.0376 256.496 66.1576 255.842 66.1576C254.429 66.1576 253.302 65.7509 252.462 64.9376C251.636 64.1242 251.222 62.9176 251.222 61.3176V55.2376H254.342V60.8576C254.342 62.5909 255.069 63.4576 256.522 63.4576C257.282 63.4576 257.889 63.2176 258.342 62.7376C258.796 62.2442 259.022 61.5176 259.022 60.5576V55.2376H262.142ZM270.156 66.1576C269.023 66.1576 268.003 65.9242 267.096 65.4576C266.203 64.9776 265.503 64.3176 264.996 63.4776C264.489 62.6376 264.236 61.6842 264.236 60.6176C264.236 59.5509 264.489 58.5976 264.996 57.7576C265.503 56.9176 266.203 56.2642 267.096 55.7976C268.003 55.3176 269.023 55.0776 270.156 55.0776C271.289 55.0776 272.303 55.3176 273.196 55.7976C274.089 56.2642 274.789 56.9176 275.296 57.7576C275.803 58.5976 276.056 59.5509 276.056 60.6176C276.056 61.6842 275.803 62.6376 275.296 63.4776C274.789 64.3176 274.089 64.9776 273.196 65.4576C272.303 65.9242 271.289 66.1576 270.156 66.1576ZM270.156 63.5976C270.956 63.5976 271.609 63.3309 272.116 62.7976C272.636 62.2509 272.896 61.5242 272.896 60.6176C272.896 59.7109 272.636 58.9909 272.116 58.4576C271.609 57.9109 270.956 57.6376 270.156 57.6376C269.356 57.6376 268.696 57.9109 268.176 58.4576C267.656 58.9909 267.396 59.7109 267.396 60.6176C267.396 61.5242 267.656 62.2509 268.176 62.7976C268.696 63.3309 269.356 63.5976 270.156 63.5976ZM278.202 55.2376H281.302V59.4376H285.982V55.2376H289.102V65.9976H285.982V61.9776H281.302V65.9976H278.202V55.2376ZM302.949 55.2376V65.9976H299.969V64.7576C299.195 65.6909 298.075 66.1576 296.609 66.1576C295.595 66.1576 294.675 65.9309 293.849 65.4776C293.035 65.0242 292.395 64.3776 291.929 63.5376C291.462 62.6976 291.229 61.7242 291.229 60.6176C291.229 59.5109 291.462 58.5376 291.929 57.6976C292.395 56.8576 293.035 56.2109 293.849 55.7576C294.675 55.3042 295.595 55.0776 296.609 55.0776C297.982 55.0776 299.055 55.5109 299.829 56.3776V55.2376H302.949ZM297.149 63.5976C297.935 63.5976 298.589 63.3309 299.109 62.7976C299.629 62.2509 299.889 61.5242 299.889 60.6176C299.889 59.7109 299.629 58.9909 299.109 58.4576C298.589 57.9109 297.935 57.6376 297.149 57.6376C296.349 57.6376 295.689 57.9109 295.169 58.4576C294.649 58.9909 294.389 59.7109 294.389 60.6176C294.389 61.5242 294.649 62.2509 295.169 62.7976C295.689 63.3309 296.349 63.5976 297.149 63.5976ZM316.217 55.2376V65.9976H313.097V57.7976H309.697L309.597 59.6976C309.544 61.1109 309.411 62.2842 309.197 63.2176C308.984 64.1509 308.637 64.8842 308.157 65.4176C307.677 65.9509 307.011 66.2176 306.157 66.2176C305.704 66.2176 305.164 66.1376 304.537 65.9776L304.697 63.4176C304.911 63.4442 305.064 63.4576 305.157 63.4576C305.624 63.4576 305.971 63.2909 306.197 62.9576C306.437 62.6109 306.597 62.1776 306.677 61.6576C306.757 61.1242 306.817 60.4242 306.857 59.5576L307.017 55.2376H316.217ZM83.1988 79.2376V89.9976H80.0788V81.7976H75.5988V89.9976H72.4988V79.2376H83.1988ZM91.2302 90.1576C90.0969 90.1576 89.0769 89.9242 88.1702 89.4576C87.2769 88.9776 86.5769 88.3176 86.0702 87.4776C85.5635 86.6376 85.3102 85.6842 85.3102 84.6176C85.3102 83.5509 85.5635 82.5976 86.0702 81.7576C86.5769 80.9176 87.2769 80.2642 88.1702 79.7976C89.0769 79.3176 90.0969 79.0776 91.2302 79.0776C92.3635 79.0776 93.3769 79.3176 94.2702 79.7976C95.1635 80.2642 95.8635 80.9176 96.3702 81.7576C96.8769 82.5976 97.1302 83.5509 97.1302 84.6176C97.1302 85.6842 96.8769 86.6376 96.3702 87.4776C95.8635 88.3176 95.1635 88.9776 94.2702 89.4576C93.3769 89.9242 92.3635 90.1576 91.2302 90.1576ZM91.2302 87.5976C92.0302 87.5976 92.6835 87.3309 93.1902 86.7976C93.7102 86.2509 93.9702 85.5242 93.9702 84.6176C93.9702 83.7109 93.7102 82.9909 93.1902 82.4576C92.6835 81.9109 92.0302 81.6376 91.2302 81.6376C90.4302 81.6376 89.7702 81.9109 89.2502 82.4576C88.7302 82.9909 88.4702 83.7109 88.4702 84.6176C88.4702 85.5242 88.7302 86.2509 89.2502 86.7976C89.7702 87.3309 90.4302 87.5976 91.2302 87.5976ZM110.256 79.2376V88.1976C110.256 90.1709 109.743 91.6376 108.716 92.5976C107.689 93.5576 106.189 94.0376 104.216 94.0376C103.176 94.0376 102.189 93.9109 101.256 93.6576C100.323 93.4042 99.5495 93.0376 98.9361 92.5576L100.176 90.3176C100.629 90.6909 101.203 90.9842 101.896 91.1976C102.589 91.4242 103.283 91.5376 103.976 91.5376C105.056 91.5376 105.849 91.2909 106.356 90.7976C106.876 90.3176 107.136 89.5842 107.136 88.5976V88.1376C106.323 89.0309 105.189 89.4776 103.736 89.4776C102.749 89.4776 101.843 89.2642 101.016 88.8376C100.203 88.3976 99.5561 87.7842 99.0761 86.9976C98.5961 86.2109 98.3561 85.3042 98.3561 84.2776C98.3561 83.2509 98.5961 82.3442 99.0761 81.5576C99.5561 80.7709 100.203 80.1642 101.016 79.7376C101.843 79.2976 102.749 79.0776 103.736 79.0776C105.296 79.0776 106.483 79.5909 107.296 80.6176V79.2376H110.256ZM104.356 86.9176C105.183 86.9176 105.856 86.6776 106.376 86.1976C106.909 85.7042 107.176 85.0642 107.176 84.2776C107.176 83.4909 106.909 82.8576 106.376 82.3776C105.856 81.8842 105.183 81.6376 104.356 81.6376C103.529 81.6376 102.849 81.8842 102.316 82.3776C101.783 82.8576 101.516 83.4909 101.516 84.2776C101.516 85.0642 101.783 85.7042 102.316 86.1976C102.849 86.6776 103.529 86.9176 104.356 86.9176ZM129.245 79.2376V89.9976H126.125V81.7976H122.725L122.625 83.6976C122.571 85.1109 122.438 86.2842 122.225 87.2176C122.011 88.1509 121.665 88.8842 121.185 89.4176C120.705 89.9509 120.038 90.2176 119.185 90.2176C118.731 90.2176 118.191 90.1376 117.565 89.9776L117.725 87.4176C117.938 87.4442 118.091 87.4576 118.185 87.4576C118.651 87.4576 118.998 87.2909 119.225 86.9576C119.465 86.6109 119.625 86.1776 119.705 85.6576C119.785 85.1242 119.845 84.4242 119.885 83.5576L120.045 79.2376H129.245ZM142.425 79.0776C143.518 79.0776 144.498 79.3176 145.365 79.7976C146.232 80.2642 146.912 80.9176 147.405 81.7576C147.898 82.5976 148.145 83.5509 148.145 84.6176C148.145 85.6842 147.898 86.6376 147.405 87.4776C146.912 88.3176 146.232 88.9776 145.365 89.4576C144.498 89.9242 143.518 90.1576 142.425 90.1576C141.478 90.1576 140.612 89.9842 139.825 89.6376C139.038 89.2776 138.385 88.7776 137.865 88.1376C137.345 87.4842 136.998 86.7376 136.825 85.8976H135.345V89.9976H132.245V79.2376H135.345V83.1976H136.845C137.152 81.9442 137.805 80.9442 138.805 80.1976C139.805 79.4509 141.012 79.0776 142.425 79.0776ZM142.425 87.5976C143.185 87.5976 143.812 87.3309 144.305 86.7976C144.812 86.2509 145.065 85.5242 145.065 84.6176C145.065 83.6976 144.812 82.9709 144.305 82.4376C143.812 81.9042 143.185 81.6376 142.425 81.6376C141.652 81.6376 141.012 81.9042 140.505 82.4376C140.012 82.9709 139.765 83.6976 139.765 84.6176C139.765 85.5242 140.012 86.2509 140.505 86.7976C141.012 87.3309 141.652 87.5976 142.425 87.5976ZM156.531 79.9776C157.558 79.9776 158.458 80.1909 159.231 80.6176C160.005 81.0309 160.598 81.6176 161.011 82.3776C161.438 83.1376 161.651 84.0176 161.651 85.0176C161.651 86.0442 161.398 86.9576 160.891 87.7576C160.398 88.5442 159.705 89.1576 158.811 89.5976C157.918 90.0242 156.905 90.2376 155.771 90.2376C153.891 90.2376 152.411 89.6376 151.331 88.4376C150.265 87.2242 149.731 85.4509 149.731 83.1176C149.731 80.9576 150.198 79.2376 151.131 77.9576C152.078 76.6642 153.525 75.8176 155.471 75.4176L160.591 74.3976L161.011 77.0776L156.491 77.9776C155.265 78.2176 154.351 78.6176 153.751 79.1776C153.165 79.7376 152.818 80.5309 152.711 81.5576C153.178 81.0509 153.738 80.6642 154.391 80.3976C155.045 80.1176 155.758 79.9776 156.531 79.9776ZM155.791 87.8176C156.591 87.8176 157.231 87.5576 157.711 87.0376C158.205 86.5176 158.451 85.8576 158.451 85.0576C158.451 84.2442 158.205 83.5976 157.711 83.1176C157.231 82.6376 156.591 82.3976 155.791 82.3976C154.978 82.3976 154.325 82.6376 153.831 83.1176C153.338 83.5976 153.091 84.2442 153.091 85.0576C153.091 85.8709 153.345 86.5376 153.851 87.0576C154.358 87.5642 155.005 87.8176 155.791 87.8176ZM168.648 90.2976C166.942 90.2976 165.662 89.9176 164.808 89.1576C163.955 88.3976 163.528 87.2776 163.528 85.7976V79.2376H166.628V82.8776C166.935 82.6642 167.335 82.4842 167.828 82.3376C168.335 82.1909 168.908 82.1176 169.548 82.1176C170.868 82.1176 171.902 82.4509 172.648 83.1176C173.395 83.7842 173.768 84.7576 173.768 86.0376C173.768 87.3976 173.308 88.4509 172.388 89.1976C171.468 89.9309 170.222 90.2976 168.648 90.2976ZM174.908 79.2376H178.028V89.9976H174.908V79.2376ZM168.648 88.0976C169.288 88.0976 169.775 87.9109 170.108 87.5376C170.442 87.1642 170.608 86.6776 170.608 86.0776C170.608 85.5176 170.435 85.0709 170.088 84.7376C169.755 84.3909 169.268 84.2176 168.628 84.2176C168.175 84.2176 167.775 84.3109 167.428 84.4976C167.095 84.6709 166.828 84.9109 166.628 85.2176V86.0976C166.628 86.7242 166.802 87.2176 167.148 87.5776C167.495 87.9242 167.995 88.0976 168.648 88.0976ZM186.374 87.6576C186.934 87.6576 187.428 87.5776 187.854 87.4176C188.294 87.2442 188.701 86.9776 189.074 86.6176L190.734 88.4176C189.721 89.5776 188.241 90.1576 186.294 90.1576C185.081 90.1576 184.008 89.9242 183.074 89.4576C182.141 88.9776 181.421 88.3176 180.914 87.4776C180.408 86.6376 180.154 85.6842 180.154 84.6176C180.154 83.5642 180.401 82.6176 180.894 81.7776C181.401 80.9242 182.088 80.2642 182.954 79.7976C183.834 79.3176 184.821 79.0776 185.914 79.0776C186.941 79.0776 187.874 79.2976 188.714 79.7376C189.554 80.1642 190.221 80.7909 190.714 81.6176C191.221 82.4309 191.474 83.3976 191.474 84.5176L183.514 86.0576C183.741 86.5909 184.094 86.9909 184.574 87.2576C185.068 87.5242 185.668 87.6576 186.374 87.6576ZM185.914 81.4376C185.128 81.4376 184.488 81.6909 183.994 82.1976C183.501 82.7042 183.241 83.4042 183.214 84.2976L188.454 83.2776C188.308 82.7176 188.008 82.2709 187.554 81.9376C187.101 81.6042 186.554 81.4376 185.914 81.4376ZM206.276 84.3976C206.916 84.5976 207.409 84.9042 207.756 85.3176C208.116 85.7309 208.296 86.2242 208.296 86.7976C208.296 87.4776 208.062 88.0776 207.596 88.5976C207.129 89.1042 206.489 89.4976 205.676 89.7776C204.862 90.0576 203.942 90.1976 202.916 90.1976C202.076 90.1976 201.249 90.1109 200.436 89.9376C199.622 89.7642 198.869 89.5042 198.176 89.1576L199.016 86.9776C200.149 87.5242 201.402 87.7976 202.776 87.7976C203.509 87.7976 204.082 87.6909 204.496 87.4776C204.922 87.2509 205.136 86.9376 205.136 86.5376C205.136 86.1909 204.989 85.9309 204.696 85.7576C204.402 85.5709 203.976 85.4776 203.416 85.4776H201.216V83.5376H203.136C203.682 83.5376 204.102 83.4509 204.396 83.2776C204.689 83.1042 204.836 82.8509 204.836 82.5176C204.836 82.1709 204.649 81.9042 204.276 81.7176C203.916 81.5309 203.396 81.4376 202.716 81.4376C201.676 81.4376 200.542 81.6842 199.316 82.1776L198.556 80.0176C200.049 79.3642 201.502 79.0376 202.916 79.0376C203.889 79.0376 204.756 79.1576 205.516 79.3976C206.289 79.6376 206.896 79.9909 207.336 80.4576C207.776 80.9109 207.996 81.4442 207.996 82.0576C207.996 82.5642 207.842 83.0242 207.536 83.4376C207.229 83.8376 206.809 84.1576 206.276 84.3976ZM221.425 79.2376V89.9976H218.445V88.7576C217.672 89.6909 216.552 90.1576 215.085 90.1576C214.072 90.1576 213.152 89.9309 212.325 89.4776C211.512 89.0242 210.872 88.3776 210.405 87.5376C209.939 86.6976 209.705 85.7242 209.705 84.6176C209.705 83.5109 209.939 82.5376 210.405 81.6976C210.872 80.8576 211.512 80.2109 212.325 79.7576C213.152 79.3042 214.072 79.0776 215.085 79.0776C216.459 79.0776 217.532 79.5109 218.305 80.3776V79.2376H221.425ZM215.625 87.5976C216.412 87.5976 217.065 87.3309 217.585 86.7976C218.105 86.2509 218.365 85.5242 218.365 84.6176C218.365 83.7109 218.105 82.9909 217.585 82.4576C217.065 81.9109 216.412 81.6376 215.625 81.6376C214.825 81.6376 214.165 81.9109 213.645 82.4576C213.125 82.9909 212.865 83.7109 212.865 84.6176C212.865 85.5242 213.125 86.2509 213.645 86.7976C214.165 87.3309 214.825 87.5976 215.625 87.5976ZM235.354 79.2376V88.1976C235.354 90.1709 234.84 91.6376 233.814 92.5976C232.787 93.5576 231.287 94.0376 229.314 94.0376C228.274 94.0376 227.287 93.9109 226.354 93.6576C225.42 93.4042 224.647 93.0376 224.034 92.5576L225.274 90.3176C225.727 90.6909 226.3 90.9842 226.994 91.1976C227.687 91.4242 228.38 91.5376 229.074 91.5376C230.154 91.5376 230.947 91.2909 231.454 90.7976C231.974 90.3176 232.234 89.5842 232.234 88.5976V88.1376C231.42 89.0309 230.287 89.4776 228.834 89.4776C227.847 89.4776 226.94 89.2642 226.114 88.8376C225.3 88.3976 224.654 87.7842 224.174 86.9976C223.694 86.2109 223.454 85.3042 223.454 84.2776C223.454 83.2509 223.694 82.3442 224.174 81.5576C224.654 80.7709 225.3 80.1642 226.114 79.7376C226.94 79.2976 227.847 79.0776 228.834 79.0776C230.394 79.0776 231.58 79.5909 232.394 80.6176V79.2376H235.354ZM229.454 86.9176C230.28 86.9176 230.954 86.6776 231.474 86.1976C232.007 85.7042 232.274 85.0642 232.274 84.2776C232.274 83.4909 232.007 82.8576 231.474 82.3776C230.954 81.8842 230.28 81.6376 229.454 81.6376C228.627 81.6376 227.947 81.8842 227.414 82.3776C226.88 82.8576 226.614 83.4909 226.614 84.2776C226.614 85.0642 226.88 85.7042 227.414 86.1976C227.947 86.6776 228.627 86.9176 229.454 86.9176ZM249.218 79.2376V89.9976H246.238V88.7576C245.465 89.6909 244.345 90.1576 242.878 90.1576C241.865 90.1576 240.945 89.9309 240.118 89.4776C239.305 89.0242 238.665 88.3776 238.198 87.5376C237.731 86.6976 237.498 85.7242 237.498 84.6176C237.498 83.5109 237.731 82.5376 238.198 81.6976C238.665 80.8576 239.305 80.2109 240.118 79.7576C240.945 79.3042 241.865 79.0776 242.878 79.0776C244.251 79.0776 245.325 79.5109 246.098 80.3776V79.2376H249.218ZM243.418 87.5976C244.205 87.5976 244.858 87.3309 245.378 86.7976C245.898 86.2509 246.158 85.5242 246.158 84.6176C246.158 83.7109 245.898 82.9909 245.378 82.4576C244.858 81.9109 244.205 81.6376 243.418 81.6376C242.618 81.6376 241.958 81.9109 241.438 82.4576C240.918 82.9909 240.658 83.7109 240.658 84.6176C240.658 85.5242 240.918 86.2509 241.438 86.7976C241.958 87.3309 242.618 87.5976 243.418 87.5976ZM261.847 79.2376V89.9976H258.727V85.9976C257.82 86.4509 256.82 86.6776 255.727 86.6776C254.273 86.6776 253.173 86.3509 252.427 85.6976C251.693 85.0309 251.327 84.0042 251.327 82.6176V79.2376H254.447V82.4176C254.447 83.0709 254.613 83.5442 254.947 83.8376C255.293 84.1309 255.787 84.2776 256.427 84.2776C257.24 84.2776 258.007 84.1042 258.727 83.7576V79.2376H261.847ZM275.463 79.2376V89.9976H272.483V88.7376C272.083 89.2042 271.589 89.5576 271.003 89.7976C270.429 90.0376 269.816 90.1576 269.163 90.1576C267.749 90.1576 266.623 89.7509 265.783 88.9376C264.956 88.1242 264.543 86.9176 264.543 85.3176V79.2376H267.663V84.8576C267.663 86.5909 268.389 87.4576 269.843 87.4576C270.603 87.4576 271.209 87.2176 271.663 86.7376C272.116 86.2442 272.343 85.5176 272.343 84.5576V79.2376H275.463Z" fill="#476481"/>
<defs>
<clipPath id="clip0">
<rect width="12.9929" height="48.5124" fill="white" transform="translate(426.489 144.301) rotate(135)"/>
</clipPath>
</defs>
</svg>
