<svg width="158" height="108" viewBox="0 0 158 108" fill="none" xmlns="http://www.w3.org/2000/svg">
<path d="M157.94 2.53662H0V107.963H157.94V2.53662Z" fill="white"/>
<path d="M64.6737 16.3545H21.687V17.4041H64.6737V16.3545Z" fill="#58595B"/>
<path d="M47.1693 19.4521H22.5203V20.5018H47.1693V19.4521Z" fill="#0083C7"/>
<path d="M28.237 26.4175H22.1638V27.4671H28.237V26.4175Z" fill="#F2706D"/>
<path d="M46.5154 26.4175H30.5586V27.4671H46.5154V26.4175Z" fill="#0083C7"/>
<path d="M34.8455 29.7217H28.5342V30.7713H34.8455V29.7217Z" fill="#58595B"/>
<path d="M42.2873 29.7217H36.155V30.7713H42.2873V29.7217Z" fill="#58595B"/>
<path d="M56.5174 29.7217H45.5625V30.7713H56.5174V29.7217Z" fill="#38B9C6"/>
<path d="M39.6665 33.0259H34.3081V34.0754H39.6665V33.0259Z" fill="#F2706D"/>
<path d="M45.978 33.0259H40.978V34.0754H45.978V33.0259Z" fill="#58595B"/>
<path d="M63.7205 33.0259H47.9429V34.0754H63.7205V33.0259Z" fill="#58595B"/>
<path d="M101.349 33.0259H77.2356V34.0754H101.349V33.0259Z" fill="#58595B"/>
<path d="M114.923 33.0259H104.386V34.0754H114.923V33.0259Z" fill="#38B9C6"/>
<path d="M38.3865 36.3306H34.3081V37.3802H38.3865V36.3306Z" fill="#F2706D"/>
<path d="M47.0493 36.3306H40.917V37.3802H47.0493V36.3306Z" fill="#58595B"/>
<path d="M70.5086 36.3306H48.1814V37.3802H70.5086V36.3306Z" fill="#38B9C6"/>
<path d="M72.7696 39.6348H43.1797V40.6844H72.7696V39.6348Z" fill="#0083C7"/>
<path d="M43.1796 42.9395H34.3081V43.989H43.1796V42.9395Z" fill="#58595B"/>
<path d="M38.0005 46.2437H34.3081V47.2932H38.0005V46.2437Z" fill="#F2706D"/>
<path d="M46.9921 46.2437H41.2163V47.2932H46.9921V46.2437Z" fill="#38B9C6"/>
<path d="M76.6998 46.2437H50.8594V47.2932H76.6998V46.2437Z" fill="#58595B"/>
<path d="M74.6778 49.5479H41.5137V50.5974H74.6778V49.5479Z" fill="#58595B"/>
<path d="M42.1674 52.8525H34.3081V53.9021H42.1674V52.8525Z" fill="#58595B"/>
<path d="M40.4404 56.1572H34.3081V57.2068H40.4404V56.1572Z" fill="#F2706D"/>
<path d="M45.5898 56.1572H42.1672V57.2068H45.5898V56.1572Z" fill="#0083C7"/>
<path d="M65.0303 56.1572H49.0144V57.2068H65.0303V56.1572Z" fill="#58595B"/>
<path d="M51.872 59.4609H42.7031V60.5105H51.872V59.4609Z" fill="#38B9C6"/>
<path d="M92.2393 59.4609H55.623V60.5105H92.2393V59.4609Z" fill="#58595B"/>
<path d="M107.838 59.4609H95.6917V60.5105H107.838V59.4609Z" fill="#38B9C6"/>
<path d="M36.7498 62.7656H22.8174V63.8152H36.7498V62.7656Z" fill="#58595B"/>
<path d="M55.2649 62.7656H42.7031V63.8152H55.2649V62.7656Z" fill="#58595B"/>
<path d="M43.8787 66.0698H34.3081V67.1194H43.8787V66.0698Z" fill="#58595B"/>
<path d="M37.6442 69.374H29.4875V70.4236H37.6442V69.374Z" fill="#0083C7"/>
<path d="M31.5096 72.6787H22.8174V73.7283H31.5096V72.6787Z" fill="#58595B"/>
<path d="M27.6401 78.7905H22.8174V79.8401H27.6401V78.7905Z" fill="#F2706D"/>
<path d="M36.7501 78.7905H30.0823V79.8401H36.7501V78.7905Z" fill="#58595B"/>
<path d="M56.7533 78.7905H38.595V79.8401H56.7533V78.7905Z" fill="#58595B"/>
<path d="M42.3465 82.0083H28.6523V83.0579H42.3465V82.0083Z" fill="#58595B"/>
<path d="M56.1588 82.0083H46.3953V83.0579H56.1588V82.0083Z" fill="#0083C7"/>
<path d="M61.9935 85.228H35.2019V86.2776H61.9935V85.228Z" fill="#58595B"/>
<path d="M40.6194 88.4458H35.2019V89.4954H40.6194V88.4458Z" fill="#F2706D"/>
<path d="M46.931 88.4458H43.0615V89.4954H46.931V88.4458Z" fill="#38B9C6"/>
<path d="M85.5123 88.4458H49.4319V89.4954H85.5123V88.4458Z" fill="#58595B"/>
<path d="M96.4063 88.4458H89.2029V89.4954H96.4063V88.4458Z" fill="#58595B"/>
<path d="M36.75 91.6655H28.6523V92.7151H36.75V91.6655Z" fill="#58595B"/>
<path d="M33.9515 94.8853H22.8174V95.9349H33.9515V94.8853Z" fill="#58595B"/>
<path d="M1.60292 0H156.335C156.76 0 157.168 0.169089 157.469 0.470069C157.77 0.771048 157.94 1.17926 157.94 1.60491V5.07271H0.00585938V1.59507C0.00844693 1.17249 0.177581 0.767978 0.476585 0.469348C0.775588 0.170717 1.18033 0.00206613 1.60292 0Z" fill="#485E88"/>
</svg>
