<svg width="238" height="108" viewBox="0 0 238 108" fill="none" xmlns="http://www.w3.org/2000/svg">
<path d="M231.992 70H206.008C202.69 70 200 72.6898 200 76.0078V101.992C200 105.31 202.69 107.999 206.008 107.999H231.992C235.31 107.999 238 105.31 238 101.992V76.0078C238 72.6898 235.31 70 231.992 70Z" fill="#FBC98F"/>
<path d="M207.567 89.0101L215.124 85.1172V86.2414L208.752 89.4273V89.4607L215.124 92.6467V93.7709L207.567 89.8901V89.0101Z" fill="white"/>
<path d="M216.189 94.4333L220.733 82.6255H221.841L217.28 94.4333H216.189Z" fill="white"/>
<path d="M230.428 89.9063L222.87 93.7826V92.6584L229.287 89.4724V89.4391L222.87 86.2531V85.1289L230.428 89.0067V89.9063Z" fill="white"/>
<path d="M3.3137 11.7079H4.00163C4.22131 10.9784 4.51478 10.2729 4.87752 9.60231L4.39446 9.11987C4.08592 8.81352 3.84105 8.44971 3.67384 8.04921C3.50662 7.64872 3.42034 7.21937 3.4199 6.7857C3.41946 6.35203 3.50489 5.92251 3.6713 5.52169C3.83771 5.12086 4.08184 4.75656 4.38976 4.4496C4.69768 4.14264 5.06336 3.89903 5.46591 3.73267C5.86847 3.56631 6.30002 3.48045 6.73592 3.48002C7.17182 3.47959 7.60354 3.56457 8.00643 3.73013C8.40932 3.89569 8.77548 4.13859 9.08402 4.44493L9.56895 4.92738C10.243 4.56649 10.9521 4.27454 11.6854 4.05598V3.37717C11.6748 2.93751 11.7528 2.50018 11.9146 2.09093C12.0765 1.68167 12.3189 1.30875 12.6278 0.994086C12.9366 0.679426 13.3056 0.429379 13.713 0.258662C14.1204 0.0879454 14.5579 0 15 0C15.442 0 15.8796 0.0879454 16.287 0.258662C16.6944 0.429379 17.0634 0.679426 17.3722 0.994086C17.681 1.30875 17.9235 1.68167 18.0854 2.09093C18.2472 2.50018 18.3252 2.93751 18.3146 3.37717V4.05972C19.0484 4.27862 19.7581 4.57056 20.4329 4.93112L20.9179 4.44867C21.541 3.83022 22.3855 3.48337 23.2657 3.48443C24.1459 3.48548 24.9896 3.83435 25.6112 4.45428C26.2328 5.07422 26.5814 5.91444 26.5804 6.79011C26.5793 7.66577 26.2287 8.50515 25.6055 9.1236L25.1206 9.60606C25.4833 10.2767 25.7768 10.9821 25.9965 11.7117H26.6844C27.5638 11.7117 28.4071 12.0592 29.0289 12.6778C29.6507 13.2964 30 14.1354 30 15.0103C30 15.8851 29.6507 16.7242 29.0289 17.3428C28.4071 17.9614 27.5638 18.3089 26.6844 18.3089H25.9965C25.7765 19.0377 25.483 19.7425 25.1206 20.4126L25.6055 20.897C25.9252 21.2005 26.1806 21.5646 26.3568 21.9678C26.533 22.3709 26.6264 22.8051 26.6315 23.2447C26.6366 23.6843 26.5534 24.1205 26.3867 24.5276C26.2199 24.9347 25.9731 25.3046 25.6606 25.6155C25.3481 25.9263 24.9764 26.1719 24.5672 26.3378C24.1579 26.5037 23.7195 26.5865 23.2776 26.5814C22.8358 26.5763 22.3994 26.4834 21.9942 26.3081C21.5889 26.1328 21.223 25.8787 20.9179 25.5607L20.4311 25.0689C19.7562 25.4294 19.0465 25.7214 18.3128 25.9403V26.6228C18.3233 27.0625 18.2453 27.4998 18.0835 27.9091C17.9216 28.3183 17.6792 28.6913 17.3703 29.0059C17.0615 29.3206 16.6925 29.5706 16.2851 29.7413C15.8778 29.9121 15.4402 30 14.9981 30C14.5561 30 14.1185 29.9121 13.7111 29.7413C13.3037 29.5706 12.9347 29.3206 12.6259 29.0059C12.3171 28.6913 12.0746 28.3183 11.9128 27.9091C11.7509 27.4998 11.673 27.0625 11.6835 26.6228V25.9403C10.9502 25.7217 10.2411 25.4298 9.56707 25.0689L9.08214 25.5513C8.45292 26.1278 7.62409 26.4401 6.76887 26.4229C5.91365 26.4056 5.09822 26.0602 4.493 25.4588C3.88778 24.8574 3.53961 24.0465 3.52124 23.1957C3.50288 22.3449 3.81575 21.5199 4.39446 20.8932L4.87939 20.4089C4.51699 19.7388 4.22355 19.034 4.00351 18.3052H3.31558C2.43624 18.3052 1.59291 17.9577 0.971115 17.339C0.349323 16.7204 0 15.8814 0 15.0065C0 14.1317 0.349323 13.2927 0.971115 12.6741C1.59291 12.0554 2.43624 11.7079 3.31558 11.7079H3.3137ZM14.9972 21.6188C16.3114 21.6188 17.5961 21.231 18.6888 20.5046C19.7815 19.7782 20.6331 18.7456 21.1359 17.5377C21.6388 16.3297 21.7702 15.0004 21.5137 13.7181C21.2572 12.4358 20.6242 11.2579 19.6948 10.3335C18.7653 9.40913 17.5813 8.77969 16.2923 8.52484C15.0033 8.26999 13.6673 8.40116 12.4532 8.90177C11.2391 9.40238 10.2016 10.2499 9.47172 11.3373C8.74186 12.4246 8.35249 13.7028 8.35286 15.0103C8.35435 16.7625 9.05504 18.4424 10.3009 19.6809C11.5468 20.9194 13.236 21.615 14.9972 21.615V21.6188Z" fill="#78859D"/>
</svg>
