<svg width="295" height="92" viewBox="0 0 295 92" fill="none" xmlns="http://www.w3.org/2000/svg">
<g clip-path="url(#clip0)">
<path d="M58.3832 49.6479C55.6348 49.3661 52.7859 49.4973 50.0778 48.8708C47.6245 48.228 45.2397 47.3411 42.9591 46.2232C38.3904 44.0734 34.0506 41.4599 30.0078 38.4238C26.0092 35.4644 22.2351 32.2101 18.717 28.688C14.9387 24.8954 11.7984 20.4464 10.9322 15.0662C10.7401 13.9046 8.96608 14.3663 9.16812 15.5221C10.9248 25.8064 20.5955 33.3231 28.4721 39.1832C32.8097 42.4416 37.53 45.1493 42.5249 47.2441C45.0243 48.3741 47.6439 49.2102 50.3313 49.7358C52.9906 50.1628 55.6839 49.9808 58.3855 50.1355C58.6997 50.1617 58.6953 49.682 58.3832 49.6479Z" fill="#F2706D"/>
<path d="M13.8423 35.072C12.9472 31.6106 12.8015 27.7432 12.1726 24.2017C11.8505 22.4924 11.8138 20.5177 11.2574 18.8632C10.8065 17.5296 9.77809 16.1744 9.07628 14.9588L7.92285 16.127C11.6738 18.1339 14.9765 21.1028 18.418 23.6098C20.2725 24.9568 22.728 27.149 25.2113 26.9141C25.3889 26.9144 25.5602 26.8498 25.6932 26.7324C25.8261 26.6151 25.9118 26.4529 25.9341 26.2762C25.9565 26.0994 25.914 25.9201 25.8147 25.7717C25.7153 25.6232 25.5658 25.5157 25.394 25.4692C19.0265 23.3857 14.5952 17.7599 8.75907 14.6396C8.5963 14.5531 8.41052 14.521 8.22898 14.548C8.04744 14.5751 7.8797 14.6599 7.75037 14.79C7.62103 14.9201 7.53691 15.0887 7.51034 15.271C7.48377 15.4532 7.51615 15.6397 7.60274 15.8029C8.41765 17.2143 9.4501 18.6342 9.93354 20.1968C10.4646 21.8995 10.7214 23.7604 11.1477 25.5235C11.8991 28.7129 12.2329 32.1234 13.2713 35.2343C13.3023 35.2979 13.3541 35.3491 13.4181 35.379C13.4821 35.4089 13.5543 35.4158 13.6225 35.3985C13.6907 35.3812 13.7506 35.3408 13.7923 35.284C13.8339 35.2273 13.8546 35.1577 13.851 35.0871L13.8423 35.072Z" fill="#F2706D"/>
</g>
<path d="M181.485 35.0047C162.778 35.5719 144.061 37.4585 126.258 41.8736C113.021 45.1512 95.4531 49.8405 87.2081 59.0465C68.0216 80.5716 144.797 84.4132 156.86 84.704C194.299 85.6078 232.508 84.481 267.995 75.1437C276.328 72.9519 288.153 69.6458 291.81 62.8166C295.695 55.5896 286.584 50.1053 278.868 47.5389C264.854 42.89 248.394 42.4484 233.498 41.975C208.603 41.1823 183.836 42.7064 159.13 44.1995C157.726 44.2852 158.243 45.9509 159.631 45.8757C191.377 44.1257 223.662 42.1878 255.541 45.2126C265.8 46.1827 282.44 47.6806 288.638 55.3335C295.929 64.3296 278.205 70.3193 269.947 72.7313C242.558 80.7292 211.718 83.198 182.482 83.441C165.819 83.7683 149.116 83.2198 132.487 81.7995C124.282 80.9927 116.15 79.7031 108.165 77.9417C101.012 76.4289 88.1464 73.183 86.3726 66.5584C84.2896 59.087 96.9955 53.574 103.655 50.7255C111.685 47.3395 120.158 44.6002 128.947 42.5494C145.956 38.6893 163.591 36.5353 181.426 36.1395C182.355 36.1086 182.429 34.9859 181.485 35.0047Z" fill="#F2706D"/>
<path d="M126.001 67.8566C125.35 67.8566 124.763 67.7606 124.241 67.5686C123.729 67.3659 123.291 67.0779 122.929 66.7046C122.577 66.3312 122.305 65.8779 122.113 65.3446C121.921 64.8112 121.825 64.2086 121.825 63.5366C121.825 62.8646 121.921 62.2619 122.113 61.7286C122.305 61.1952 122.577 60.7419 122.929 60.3686C123.291 59.9952 123.729 59.7126 124.241 59.5206C124.763 59.3179 125.345 59.2166 125.985 59.2166C126.891 59.2166 127.617 59.4032 128.161 59.7766C128.715 60.1392 129.137 60.6246 129.425 61.2326L127.601 62.2246C127.451 61.9046 127.254 61.6379 127.009 61.4246C126.774 61.2112 126.433 61.1046 125.985 61.1046C125.441 61.1046 125.019 61.2646 124.721 61.5846C124.433 61.8939 124.289 62.3206 124.289 62.8646V64.2086C124.289 64.7526 124.433 65.1846 124.721 65.5046C125.019 65.8139 125.451 65.9686 126.017 65.9686C126.475 65.9686 126.833 65.8619 127.089 65.6486C127.355 65.4352 127.579 65.1579 127.761 64.8166L129.553 65.8406C129.254 66.4486 128.817 66.9392 128.241 67.3126C127.675 67.6752 126.929 67.8566 126.001 67.8566ZM130.81 65.8246H131.93C132.165 65.5366 132.346 65.1259 132.474 64.5926C132.602 64.0592 132.666 63.2966 132.666 62.3046V59.4086H138.97V67.6646H136.602V61.2486H134.794V62.3686C134.794 63.0406 134.768 63.6272 134.714 64.1286C134.661 64.6299 134.586 65.0619 134.49 65.4246C134.394 65.7872 134.282 66.0912 134.154 66.3366C134.026 66.5819 133.888 66.7792 133.738 66.9286C133.429 67.2379 133.098 67.4566 132.746 67.5846C132.405 67.7019 131.978 67.7606 131.466 67.7606H130.81V65.8246ZM144.852 67.8566C144.212 67.8566 143.636 67.7606 143.124 67.5686C142.612 67.3659 142.175 67.0779 141.812 66.7046C141.46 66.3312 141.188 65.8779 140.996 65.3446C140.804 64.8112 140.708 64.2086 140.708 63.5366C140.708 62.8646 140.804 62.2619 140.996 61.7286C141.188 61.1952 141.46 60.7419 141.812 60.3686C142.175 59.9952 142.612 59.7126 143.124 59.5206C143.636 59.3179 144.212 59.2166 144.852 59.2166C145.492 59.2166 146.068 59.3179 146.58 59.5206C147.092 59.7126 147.524 59.9952 147.876 60.3686C148.239 60.7419 148.516 61.1952 148.708 61.7286C148.9 62.2619 148.996 62.8646 148.996 63.5366C148.996 64.2086 148.9 64.8112 148.708 65.3446C148.516 65.8779 148.239 66.3312 147.876 66.7046C147.524 67.0779 147.092 67.3659 146.58 67.5686C146.068 67.7606 145.492 67.8566 144.852 67.8566ZM144.852 66.0966C145.386 66.0966 145.802 65.9312 146.1 65.6006C146.399 65.2699 146.548 64.8006 146.548 64.1926V62.8806C146.548 62.2726 146.399 61.8032 146.1 61.4726C145.802 61.1419 145.386 60.9766 144.852 60.9766C144.319 60.9766 143.903 61.1419 143.604 61.4726C143.306 61.8032 143.156 62.2726 143.156 62.8806V64.1926C143.156 64.8006 143.306 65.2699 143.604 65.6006C143.903 65.9312 144.319 66.0966 144.852 66.0966ZM153.502 64.3046H152.718L151.902 67.6646H149.87L150.542 64.9446C150.649 64.5179 150.793 64.1926 150.974 63.9686C151.166 63.7339 151.454 63.5686 151.838 63.4726V63.3606C151.529 63.2646 151.283 63.1152 151.102 62.9126C150.921 62.7099 150.782 62.4219 150.686 62.0486L149.998 59.4086H151.95L152.782 62.6566H153.502V59.4086H155.39V62.6566H156.11L156.958 59.4086H158.894L158.206 62.0486C158.11 62.4219 157.971 62.7099 157.79 62.9126C157.609 63.1152 157.363 63.2646 157.054 63.3606V63.4726C157.438 63.5686 157.721 63.7339 157.902 63.9686C158.094 64.1926 158.243 64.5179 158.35 64.9446L159.022 67.6646H156.974L156.174 64.3046H155.39V67.6646H153.502V64.3046ZM160.328 59.4086H162.696V62.5606H165.384V59.4086H167.752V67.6646H165.384V64.4006H162.696V67.6646H160.328V59.4086ZM169.313 59.4086H171.297V61.7606H172.225C172.631 61.7606 173.009 61.8246 173.361 61.9526C173.713 62.0806 174.017 62.2726 174.273 62.5286C174.54 62.7739 174.748 63.0779 174.897 63.4406C175.047 63.8032 175.121 64.2246 175.121 64.7046C175.121 65.1846 175.047 65.6112 174.897 65.9846C174.748 66.3472 174.54 66.6566 174.273 66.9126C174.007 67.1579 173.692 67.3446 173.329 67.4726C172.977 67.6006 172.588 67.6646 172.161 67.6646H169.313V59.4086ZM172.145 66.0486C172.455 66.0486 172.695 65.9579 172.865 65.7766C173.036 65.5952 173.121 65.3072 173.121 64.9126V64.5126C173.121 64.1179 173.036 63.8299 172.865 63.6486C172.695 63.4672 172.455 63.3766 172.145 63.3766H171.297V66.0486H172.145ZM175.953 59.4086H177.937V67.6646H175.953V59.4086ZM183.451 67.8566C182.065 67.8566 181.014 67.4726 180.299 66.7046C179.585 65.9366 179.227 64.8912 179.227 63.5686C179.227 62.8966 179.318 62.2939 179.499 61.7606C179.691 61.2166 179.958 60.7579 180.299 60.3846C180.651 60.0006 181.073 59.7126 181.563 59.5206C182.065 59.3179 182.625 59.2166 183.243 59.2166C183.862 59.2166 184.417 59.3179 184.907 59.5206C185.398 59.7126 185.814 59.9899 186.155 60.3526C186.497 60.7152 186.758 61.1579 186.939 61.6806C187.131 62.1926 187.227 62.7686 187.227 63.4086V64.1126H181.579V64.2566C181.579 64.7899 181.745 65.2219 182.075 65.5526C182.406 65.8726 182.891 66.0326 183.531 66.0326C184.022 66.0326 184.443 65.9419 184.795 65.7606C185.147 65.5686 185.451 65.3179 185.707 65.0086L186.987 66.4006C186.667 66.7952 186.219 67.1366 185.643 67.4246C185.067 67.7126 184.337 67.8566 183.451 67.8566ZM183.259 60.9126C182.747 60.9126 182.337 61.0726 182.027 61.3926C181.729 61.7019 181.579 62.1232 181.579 62.6566V62.7846H184.907V62.6566C184.907 62.1126 184.758 61.6859 184.459 61.3766C184.171 61.0672 183.771 60.9126 183.259 60.9126ZM202.239 67.8566C201.375 67.8566 200.612 67.7179 199.951 67.4406C199.289 67.1632 198.783 66.7899 198.431 66.3206L199.791 65.0566C200.111 65.4086 200.463 65.6699 200.847 65.8406C201.231 66.0112 201.716 66.0966 202.303 66.0966C202.793 66.0966 203.167 66.0112 203.423 65.8406C203.679 65.6699 203.807 65.4406 203.807 65.1526V65.0566C203.807 64.5659 203.508 64.3206 202.911 64.3206H200.975V62.7526H202.703C203.044 62.7526 203.284 62.6832 203.423 62.5446C203.572 62.3952 203.647 62.1979 203.647 61.9526V61.8566C203.647 61.6112 203.524 61.4032 203.279 61.2326C203.044 61.0619 202.681 60.9766 202.191 60.9766C201.711 60.9766 201.295 61.0566 200.943 61.2166C200.601 61.3659 200.276 61.6006 199.967 61.9206L198.655 60.7046C199.092 60.2352 199.599 59.8726 200.175 59.6166C200.761 59.3499 201.503 59.2166 202.399 59.2166C202.975 59.2166 203.487 59.2752 203.935 59.3926C204.383 59.4992 204.761 59.6539 205.071 59.8566C205.391 60.0592 205.631 60.2992 205.791 60.5766C205.951 60.8432 206.031 61.1366 206.031 61.4566C206.031 61.9686 205.871 62.3846 205.551 62.7046C205.241 63.0139 204.831 63.2166 204.319 63.3126V63.3926C204.863 63.4779 205.311 63.6912 205.663 64.0326C206.015 64.3739 206.191 64.8166 206.191 65.3606C206.191 66.1072 205.855 66.7099 205.183 67.1686C204.511 67.6272 203.529 67.8566 202.239 67.8566ZM215 67.6646C214.51 67.6646 214.115 67.5419 213.816 67.2966C213.518 67.0406 213.342 66.6779 213.288 66.2086H213.208C213.059 66.7526 212.76 67.1632 212.312 67.4406C211.875 67.7179 211.336 67.8566 210.696 67.8566C209.896 67.8566 209.251 67.6432 208.76 67.2166C208.28 66.7792 208.04 66.1712 208.04 65.3926C208.04 64.5286 208.355 63.8886 208.984 63.4726C209.614 63.0566 210.536 62.8486 211.752 62.8486H213.08V62.4326C213.08 61.9419 212.963 61.5739 212.728 61.3286C212.504 61.0726 212.12 60.9446 211.576 60.9446C211.075 60.9446 210.67 61.0406 210.36 61.2326C210.051 61.4246 209.784 61.6752 209.56 61.9846L208.264 60.8326C208.542 60.3632 208.974 59.9792 209.56 59.6806C210.158 59.3712 210.92 59.2166 211.848 59.2166C212.979 59.2166 213.859 59.4779 214.488 60.0006C215.128 60.5126 215.448 61.2912 215.448 62.3366V65.9526H216.36V67.6646H215ZM211.592 66.3046C212.008 66.3046 212.36 66.2032 212.648 66.0006C212.936 65.7979 213.08 65.5046 213.08 65.1206V64.1286H211.816C210.846 64.1286 210.36 64.4539 210.36 65.1046V65.4246C210.36 65.7126 210.472 65.9312 210.696 66.0806C210.92 66.2299 211.219 66.3046 211.592 66.3046ZM216.962 65.8246H217.922C218.2 65.4086 218.418 64.8806 218.578 64.2406C218.738 63.5899 218.818 62.8219 218.818 61.9366V59.4086H224.85V65.8246H226.13V69.9046H223.986V67.6646H219.106V69.9046H216.962V65.8246ZM222.562 65.8246V61.2486H220.946V62.0006C220.946 62.8326 220.888 63.5739 220.77 64.2246C220.653 64.8752 220.488 65.4086 220.274 65.8246H222.562ZM234.188 67.6646C233.697 67.6646 233.303 67.5419 233.004 67.2966C232.705 67.0406 232.529 66.6779 232.476 66.2086H232.396C232.247 66.7526 231.948 67.1632 231.5 67.4406C231.063 67.7179 230.524 67.8566 229.884 67.8566C229.084 67.8566 228.439 67.6432 227.948 67.2166C227.468 66.7792 227.228 66.1712 227.228 65.3926C227.228 64.5286 227.543 63.8886 228.172 63.4726C228.801 63.0566 229.724 62.8486 230.94 62.8486H232.268V62.4326C232.268 61.9419 232.151 61.5739 231.916 61.3286C231.692 61.0726 231.308 60.9446 230.764 60.9446C230.263 60.9446 229.857 61.0406 229.548 61.2326C229.239 61.4246 228.972 61.6752 228.748 61.9846L227.452 60.8326C227.729 60.3632 228.161 59.9792 228.748 59.6806C229.345 59.3712 230.108 59.2166 231.036 59.2166C232.167 59.2166 233.047 59.4779 233.676 60.0006C234.316 60.5126 234.636 61.2912 234.636 62.3366V65.9526H235.548V67.6646H234.188ZM230.78 66.3046C231.196 66.3046 231.548 66.2032 231.836 66.0006C232.124 65.7979 232.268 65.5046 232.268 65.1206V64.1286H231.004C230.033 64.1286 229.548 64.4539 229.548 65.1046V65.4246C229.548 65.7126 229.66 65.9312 229.884 66.0806C230.108 66.2299 230.407 66.3046 230.78 66.3046ZM241.974 64.2246H241.894C241.638 64.5659 241.323 64.8379 240.95 65.0406C240.587 65.2326 240.139 65.3286 239.606 65.3286C238.656 65.3286 237.963 65.0832 237.526 64.5926C237.099 64.1019 236.886 63.3499 236.886 62.3366V59.4086H239.254V62.2246C239.254 62.6406 239.35 62.9446 239.542 63.1366C239.744 63.3179 240.08 63.4086 240.55 63.4086C241.03 63.4086 241.387 63.3286 241.622 63.1686C241.856 63.0086 241.974 62.7846 241.974 62.4966V59.4086H244.342V67.6646H241.974V64.2246ZM246.671 59.4086H248.975V62.0646L248.783 64.4966H248.879L251.871 59.4086H254.095V67.6646H251.791V65.0086L251.983 62.5766H251.887L248.895 67.6646H246.671V59.4086Z" fill="#476481"/>
<defs>
<clipPath id="clip0">
<rect width="56" height="32" fill="white" transform="translate(31 66) rotate(-120)"/>
</clipPath>
</defs>
</svg>
