<svg width="385" height="99" viewBox="0 0 385 99" fill="none" xmlns="http://www.w3.org/2000/svg">
<g clip-path="url(#clip0)">
<path d="M329.067 46.092C331.816 46.3738 334.665 46.2426 337.373 46.8692C339.826 47.512 342.211 48.3989 344.492 49.5168C349.06 51.6666 353.4 54.2801 357.443 57.3162C361.441 60.2755 365.216 63.5299 368.734 67.052C372.512 70.8446 375.652 75.2936 376.518 80.6738C376.71 81.8354 378.485 81.3737 378.283 80.2179C376.526 69.9336 366.855 62.4169 358.978 56.5568C354.641 53.2984 349.921 50.5907 344.926 48.4959C342.426 47.3659 339.807 46.5298 337.119 46.0042C334.46 45.5772 331.767 45.7592 329.065 45.6045C328.751 45.5783 328.755 46.0579 329.067 46.092Z" fill="white"/>
<path d="M373.829 60.668C374.724 64.1294 374.87 67.9968 375.499 71.5383C375.821 73.2476 375.858 75.2223 376.414 76.8768C376.865 78.2104 377.893 79.5656 378.595 80.7812L379.749 79.6129C375.998 77.6061 372.695 74.6372 369.254 72.1302C367.399 70.7832 364.944 68.591 362.46 68.8259C362.283 68.8256 362.111 68.8902 361.978 69.0076C361.845 69.1249 361.76 69.2871 361.737 69.4638C361.715 69.6406 361.758 69.8199 361.857 69.9683C361.956 70.1168 362.106 70.2243 362.278 70.2708C368.645 72.3543 373.076 77.9801 378.912 81.1003C379.075 81.1869 379.261 81.219 379.443 81.192C379.624 81.1649 379.792 81.0801 379.921 80.95C380.051 80.8199 380.135 80.6513 380.161 80.469C380.188 80.2868 380.155 80.1003 380.069 79.9371C379.254 78.5257 378.221 77.1058 377.738 75.5432C377.207 73.8405 376.95 71.9796 376.524 70.2165C375.772 67.027 375.439 63.6166 374.4 60.5057C374.369 60.442 374.317 60.3909 374.253 60.361C374.189 60.3311 374.117 60.3242 374.049 60.3415C373.981 60.3588 373.921 60.3992 373.879 60.456C373.838 60.5127 373.817 60.5823 373.821 60.6529L373.829 60.668Z" fill="white"/>
</g>
<g clip-path="url(#clip1)">
<path d="M145.475 4.97468C117.601 6.66172 89.7347 10.6183 63.2758 18.8885C43.6037 25.0287 17.5015 33.7613 5.37718 49.9069C-22.8351 87.6546 91.6761 91.3405 109.663 91.3817C165.486 91.5118 222.42 88.1204 275.149 70.7127C287.532 66.6263 305.098 60.4908 310.427 48.6071C316.087 36.0307 302.409 26.9458 290.861 22.8257C269.887 15.3639 245.344 15.2307 223.131 14.9832C186.008 14.567 149.118 18.1302 112.317 21.6378C110.226 21.8387 111.026 24.6836 113.095 24.5015C160.384 20.2842 208.474 15.7233 256.046 19.7124C271.357 20.9905 296.187 22.9335 305.563 35.8588C316.593 51.0525 290.281 62.0274 278.017 66.4896C237.334 81.2859 191.407 86.7049 147.832 88.2349C123 89.4317 98.0925 89.124 73.2804 87.3138C61.034 86.2387 48.8904 84.3301 36.9556 81.6048C26.2661 79.2753 7.03021 74.1825 4.26685 62.8574C1.02745 50.0876 19.8678 40.1233 29.7437 34.9713C41.6514 28.8428 54.2332 23.8095 67.297 19.9483C92.5816 12.6629 118.829 8.28771 145.407 6.9285C146.792 6.83993 146.881 4.90641 145.475 4.97468Z" fill="white"/>
<path d="M51.42 44.24C49.9667 44.24 48.6533 43.9267 47.48 43.3C46.32 42.6733 45.4067 41.8133 44.74 40.72C44.0867 39.6133 43.76 38.3733 43.76 37C43.76 35.6267 44.0867 34.3933 44.74 33.3C45.4067 32.1933 46.32 31.3267 47.48 30.7C48.6533 30.0733 49.9667 29.76 51.42 29.76C52.8733 29.76 54.18 30.0733 55.34 30.7C56.5 31.3267 57.4133 32.1933 58.08 33.3C58.7467 34.3933 59.08 35.6267 59.08 37C59.08 38.3733 58.7467 39.6133 58.08 40.72C57.4133 41.8133 56.5 42.6733 55.34 43.3C54.18 43.9267 52.8733 44.24 51.42 44.24ZM51.42 41.48C52.2467 41.48 52.9933 41.2933 53.66 40.92C54.3267 40.5333 54.8467 40 55.22 39.32C55.6067 38.64 55.8 37.8667 55.8 37C55.8 36.1333 55.6067 35.36 55.22 34.68C54.8467 34 54.3267 33.4733 53.66 33.1C52.9933 32.7133 52.2467 32.52 51.42 32.52C50.5933 32.52 49.8467 32.7133 49.18 33.1C48.5133 33.4733 47.9867 34 47.6 34.68C47.2267 35.36 47.04 36.1333 47.04 37C47.04 37.8667 47.2267 38.64 47.6 39.32C47.9867 40 48.5133 40.5333 49.18 40.92C49.8467 41.2933 50.5933 41.48 51.42 41.48ZM66.4559 44.16C65.3093 44.16 64.2759 43.9267 63.3559 43.46C62.4493 42.98 61.7359 42.32 61.2159 41.48C60.7093 40.64 60.4559 39.6867 60.4559 38.62C60.4559 37.5533 60.7093 36.6 61.2159 35.76C61.7359 34.92 62.4493 34.2667 63.3559 33.8C64.2759 33.32 65.3093 33.08 66.4559 33.08C67.5893 33.08 68.5759 33.32 69.4159 33.8C70.2693 34.2667 70.8893 34.94 71.2759 35.82L68.8559 37.12C68.2959 36.1333 67.4893 35.64 66.4359 35.64C65.6226 35.64 64.9493 35.9067 64.4159 36.44C63.8826 36.9733 63.6159 37.7 63.6159 38.62C63.6159 39.54 63.8826 40.2667 64.4159 40.8C64.9493 41.3333 65.6226 41.6 66.4359 41.6C67.5026 41.6 68.3093 41.1067 68.8559 40.12L71.2759 41.44C70.8893 42.2933 70.2693 42.96 69.4159 43.44C68.5759 43.92 67.5893 44.16 66.4559 44.16ZM86.9319 33.08C88.2785 33.08 89.3452 33.48 90.1319 34.28C90.9319 35.0667 91.3319 36.2533 91.3319 37.84V44H88.2119V38.32C88.2119 37.4667 88.0319 36.8333 87.6719 36.42C87.3252 35.9933 86.8252 35.78 86.1719 35.78C85.4385 35.78 84.8585 36.02 84.4319 36.5C84.0052 36.9667 83.7919 37.6667 83.7919 38.6V44H80.6719V38.32C80.6719 36.6267 79.9919 35.78 78.6319 35.78C77.9119 35.78 77.3385 36.02 76.9119 36.5C76.4852 36.9667 76.2719 37.6667 76.2719 38.6V44H73.1519V33.24H76.1319V34.48C76.5319 34.0267 77.0185 33.68 77.5919 33.44C78.1785 33.2 78.8185 33.08 79.5119 33.08C80.2719 33.08 80.9585 33.2333 81.5719 33.54C82.1852 33.8333 82.6785 34.2667 83.0519 34.84C83.4919 34.28 84.0452 33.8467 84.7119 33.54C85.3919 33.2333 86.1319 33.08 86.9319 33.08ZM104.911 33.24V44H101.931V42.76C101.157 43.6933 100.037 44.16 98.5708 44.16C97.5574 44.16 96.6374 43.9333 95.8108 43.48C94.9974 43.0267 94.3574 42.38 93.8908 41.54C93.4241 40.7 93.1908 39.7267 93.1908 38.62C93.1908 37.5133 93.4241 36.54 93.8908 35.7C94.3574 34.86 94.9974 34.2133 95.8108 33.76C96.6374 33.3067 97.5574 33.08 98.5708 33.08C99.9441 33.08 101.017 33.5133 101.791 34.38V33.24H104.911ZM99.1108 41.6C99.8974 41.6 100.551 41.3333 101.071 40.8C101.591 40.2533 101.851 39.5267 101.851 38.62C101.851 37.7133 101.591 36.9933 101.071 36.46C100.551 35.9133 99.8974 35.64 99.1108 35.64C98.3108 35.64 97.6508 35.9133 97.1308 36.46C96.6108 36.9933 96.3508 37.7133 96.3508 38.62C96.3508 39.5267 96.6108 40.2533 97.1308 40.8C97.6508 41.3333 98.3108 41.6 99.1108 41.6ZM116.079 38.38C117.346 38.8067 117.979 39.66 117.979 40.94C117.979 41.9133 117.613 42.6667 116.879 43.2C116.146 43.7333 115.053 44 113.599 44H107.859V33.24H113.359C114.706 33.24 115.759 33.4867 116.519 33.98C117.279 34.46 117.659 35.14 117.659 36.02C117.659 36.5533 117.519 37.0267 117.239 37.44C116.973 37.84 116.586 38.1533 116.079 38.38ZM110.719 37.66H113.079C114.173 37.66 114.719 37.2733 114.719 36.5C114.719 35.74 114.173 35.36 113.079 35.36H110.719V37.66ZM113.339 41.88C114.486 41.88 115.059 41.4867 115.059 40.7C115.059 40.2867 114.926 39.9867 114.659 39.8C114.393 39.6 113.973 39.5 113.399 39.5H110.719V41.88H113.339ZM125.241 44.3C123.534 44.3 122.241 43.92 121.361 43.16C120.494 42.4 120.061 41.28 120.061 39.8V33.24H123.161V36.88C123.494 36.64 123.921 36.4533 124.441 36.32C124.974 36.1867 125.567 36.12 126.221 36.12C127.567 36.12 128.621 36.4533 129.381 37.12C130.141 37.7867 130.521 38.76 130.521 40.04C130.521 41.4133 130.047 42.4667 129.101 43.2C128.167 43.9333 126.881 44.3 125.241 44.3ZM125.241 42.1C125.907 42.1 126.421 41.92 126.781 41.56C127.154 41.2 127.341 40.7133 127.341 40.1C127.341 39.5133 127.161 39.0533 126.801 38.72C126.454 38.3867 125.954 38.22 125.301 38.22C124.821 38.22 124.394 38.3067 124.021 38.48C123.647 38.6533 123.361 38.9 123.161 39.22V40.1C123.161 40.7267 123.341 41.22 123.701 41.58C124.074 41.9267 124.587 42.1 125.241 42.1ZM146.287 33.08C147.634 33.08 148.701 33.48 149.487 34.28C150.287 35.0667 150.687 36.2533 150.687 37.84V44H147.567V38.32C147.567 37.4667 147.387 36.8333 147.027 36.42C146.681 35.9933 146.181 35.78 145.527 35.78C144.794 35.78 144.214 36.02 143.787 36.5C143.361 36.9667 143.147 37.6667 143.147 38.6V44H140.027V38.32C140.027 36.6267 139.347 35.78 137.987 35.78C137.267 35.78 136.694 36.02 136.267 36.5C135.841 36.9667 135.627 37.6667 135.627 38.6V44H132.507V33.24H135.487V34.48C135.887 34.0267 136.374 33.68 136.947 33.44C137.534 33.2 138.174 33.08 138.867 33.08C139.627 33.08 140.314 33.2333 140.927 33.54C141.541 33.8333 142.034 34.2667 142.407 34.84C142.847 34.28 143.401 33.8467 144.067 33.54C144.747 33.2333 145.487 33.08 146.287 33.08ZM158.766 41.66C159.326 41.66 159.82 41.58 160.246 41.42C160.686 41.2467 161.093 40.98 161.466 40.62L163.126 42.42C162.113 43.58 160.633 44.16 158.686 44.16C157.473 44.16 156.4 43.9267 155.466 43.46C154.533 42.98 153.813 42.32 153.306 41.48C152.8 40.64 152.546 39.6867 152.546 38.62C152.546 37.5667 152.793 36.62 153.286 35.78C153.793 34.9267 154.48 34.2667 155.346 33.8C156.226 33.32 157.213 33.08 158.306 33.08C159.333 33.08 160.266 33.3 161.106 33.74C161.946 34.1667 162.613 34.7933 163.106 35.62C163.613 36.4333 163.866 37.4 163.866 38.52L155.906 40.06C156.133 40.5933 156.486 40.9933 156.966 41.26C157.46 41.5267 158.06 41.66 158.766 41.66ZM158.306 35.44C157.52 35.44 156.88 35.6933 156.386 36.2C155.893 36.7067 155.633 37.4067 155.606 38.3L160.846 37.28C160.7 36.72 160.4 36.2733 159.946 35.94C159.493 35.6067 158.946 35.44 158.306 35.44ZM178.668 38.4C179.308 38.6 179.801 38.9067 180.148 39.32C180.508 39.7333 180.688 40.2267 180.688 40.8C180.688 41.48 180.454 42.08 179.988 42.6C179.521 43.1067 178.881 43.5 178.068 43.78C177.254 44.06 176.334 44.2 175.308 44.2C174.468 44.2 173.641 44.1133 172.827 43.94C172.014 43.7667 171.261 43.5067 170.568 43.16L171.408 40.98C172.541 41.5267 173.794 41.8 175.168 41.8C175.901 41.8 176.474 41.6933 176.888 41.48C177.314 41.2533 177.528 40.94 177.528 40.54C177.528 40.1933 177.381 39.9333 177.088 39.76C176.794 39.5733 176.368 39.48 175.808 39.48H173.608V37.54H175.528C176.074 37.54 176.494 37.4533 176.788 37.28C177.081 37.1067 177.228 36.8533 177.228 36.52C177.228 36.1733 177.041 35.9067 176.668 35.72C176.308 35.5333 175.788 35.44 175.108 35.44C174.068 35.44 172.934 35.6867 171.708 36.18L170.948 34.02C172.441 33.3667 173.894 33.04 175.308 33.04C176.281 33.04 177.148 33.16 177.908 33.4C178.681 33.64 179.288 33.9933 179.728 34.46C180.168 34.9133 180.388 35.4467 180.388 36.06C180.388 36.5667 180.234 37.0267 179.928 37.44C179.621 37.84 179.201 38.16 178.668 38.4ZM193.817 33.24V44H190.837V42.76C190.064 43.6933 188.944 44.16 187.477 44.16C186.464 44.16 185.544 43.9333 184.717 43.48C183.904 43.0267 183.264 42.38 182.797 41.54C182.33 40.7 182.097 39.7267 182.097 38.62C182.097 37.5133 182.33 36.54 182.797 35.7C183.264 34.86 183.904 34.2133 184.717 33.76C185.544 33.3067 186.464 33.08 187.477 33.08C188.85 33.08 189.924 33.5133 190.697 34.38V33.24H193.817ZM188.017 41.6C188.804 41.6 189.457 41.3333 189.977 40.8C190.497 40.2533 190.757 39.5267 190.757 38.62C190.757 37.7133 190.497 36.9933 189.977 36.46C189.457 35.9133 188.804 35.64 188.017 35.64C187.217 35.64 186.557 35.9133 186.037 36.46C185.517 36.9933 185.257 37.7133 185.257 38.62C185.257 39.5267 185.517 40.2533 186.037 40.8C186.557 41.3333 187.217 41.6 188.017 41.6ZM206.326 33.24V44H203.546V40.92H201.246L199.206 44H195.886L198.346 40.48C197.599 40.1867 197.026 39.7667 196.626 39.22C196.239 38.66 196.046 37.9867 196.046 37.2C196.046 35.9333 196.499 34.96 197.406 34.28C198.326 33.5867 199.586 33.24 201.186 33.24H206.326ZM201.246 35.78C200.579 35.78 200.072 35.9 199.726 36.14C199.392 36.38 199.226 36.7667 199.226 37.3C199.226 37.8333 199.386 38.2267 199.706 38.48C200.039 38.72 200.539 38.84 201.206 38.84H203.546V35.78H201.246ZM217.544 38.38C218.811 38.8067 219.444 39.66 219.444 40.94C219.444 41.9133 219.078 42.6667 218.344 43.2C217.611 43.7333 216.518 44 215.064 44H209.324V33.24H214.824C216.171 33.24 217.224 33.4867 217.984 33.98C218.744 34.46 219.124 35.14 219.124 36.02C219.124 36.5533 218.984 37.0267 218.704 37.44C218.438 37.84 218.051 38.1533 217.544 38.38ZM212.184 37.66H214.544C215.638 37.66 216.184 37.2733 216.184 36.5C216.184 35.74 215.638 35.36 214.544 35.36H212.184V37.66ZM214.804 41.88C215.951 41.88 216.524 41.4867 216.524 40.7C216.524 40.2867 216.391 39.9867 216.124 39.8C215.858 39.6 215.438 39.5 214.864 39.5H212.184V41.88H214.804ZM226.506 39.92H224.886V44H221.766V33.24H224.886V37.42H226.566L229.486 33.24H232.806L229.046 38.4L233.066 44H229.386L226.506 39.92ZM245.182 33.24V42.2C245.182 44.1733 244.682 45.64 243.682 46.6C242.682 47.56 241.229 48.04 239.322 48.04C238.309 48.04 237.349 47.9133 236.442 47.66C235.549 47.4067 234.796 47.04 234.182 46.56L235.422 44.32C235.876 44.6933 236.429 44.9867 237.082 45.2C237.736 45.4133 238.396 45.52 239.062 45.52C240.102 45.52 240.862 45.28 241.342 44.8C241.822 44.32 242.062 43.5867 242.062 42.6V42.24C241.662 42.64 241.189 42.9467 240.642 43.16C240.096 43.3733 239.509 43.48 238.882 43.48C237.469 43.48 236.349 43.08 235.522 42.28C234.696 41.4667 234.282 40.2533 234.282 38.64V33.24H237.402V38.18C237.402 39.9267 238.129 40.8 239.582 40.8C240.329 40.8 240.929 40.56 241.382 40.08C241.836 39.5867 242.062 38.86 242.062 37.9V33.24H245.182ZM44.5 57.24H47.6V61.44H52.28V57.24H55.4V68H52.28V63.98H47.6V68H44.5V57.24ZM69.2467 57.24V68H66.2667V66.76C65.4934 67.6933 64.3734 68.16 62.9067 68.16C61.8934 68.16 60.9734 67.9333 60.1467 67.48C59.3334 67.0267 58.6934 66.38 58.2267 65.54C57.7601 64.7 57.5267 63.7267 57.5267 62.62C57.5267 61.5133 57.7601 60.54 58.2267 59.7C58.6934 58.86 59.3334 58.2133 60.1467 57.76C60.9734 57.3067 61.8934 57.08 62.9067 57.08C64.2801 57.08 65.3534 57.5133 66.1267 58.38V57.24H69.2467ZM63.4467 65.6C64.2334 65.6 64.8867 65.3333 65.4067 64.8C65.9267 64.2533 66.1867 63.5267 66.1867 62.62C66.1867 61.7133 65.9267 60.9933 65.4067 60.46C64.8867 59.9133 64.2334 59.64 63.4467 59.64C62.6467 59.64 61.9867 59.9133 61.4667 60.46C60.9467 60.9933 60.6867 61.7133 60.6867 62.62C60.6867 63.5267 60.9467 64.2533 61.4667 64.8C61.9867 65.3333 62.6467 65.6 63.4467 65.6ZM88.8394 57.24V66.2C88.8394 68.1733 88.326 69.64 87.2994 70.6C86.2727 71.56 84.7727 72.04 82.7994 72.04C81.7594 72.04 80.7727 71.9133 79.8394 71.66C78.906 71.4067 78.1327 71.04 77.5194 70.56L78.7594 68.32C79.2127 68.6933 79.786 68.9867 80.4794 69.2C81.1727 69.4267 81.866 69.54 82.5594 69.54C83.6394 69.54 84.4327 69.2933 84.9394 68.8C85.4594 68.32 85.7194 67.5867 85.7194 66.6V66.14C84.906 67.0333 83.7727 67.48 82.3194 67.48C81.3327 67.48 80.426 67.2667 79.5994 66.84C78.786 66.4 78.1394 65.7867 77.6594 65C77.1794 64.2133 76.9394 63.3067 76.9394 62.28C76.9394 61.2533 77.1794 60.3467 77.6594 59.56C78.1394 58.7733 78.786 58.1667 79.5994 57.74C80.426 57.3 81.3327 57.08 82.3194 57.08C83.8794 57.08 85.066 57.5933 85.8794 58.62V57.24H88.8394ZM82.9394 64.92C83.766 64.92 84.4394 64.68 84.9594 64.2C85.4927 63.7067 85.7594 63.0667 85.7594 62.28C85.7594 61.4933 85.4927 60.86 84.9594 60.38C84.4394 59.8867 83.766 59.64 82.9394 59.64C82.1127 59.64 81.4327 59.8867 80.8994 60.38C80.366 60.86 80.0994 61.4933 80.0994 62.28C80.0994 63.0667 80.366 63.7067 80.8994 64.2C81.4327 64.68 82.1127 64.92 82.9394 64.92ZM97.2038 65.66C97.7638 65.66 98.2571 65.58 98.6838 65.42C99.1238 65.2467 99.5304 64.98 99.9038 64.62L101.564 66.42C100.55 67.58 99.0704 68.16 97.1238 68.16C95.9104 68.16 94.8371 67.9267 93.9038 67.46C92.9704 66.98 92.2504 66.32 91.7438 65.48C91.2371 64.64 90.9838 63.6867 90.9838 62.62C90.9838 61.5667 91.2304 60.62 91.7238 59.78C92.2304 58.9267 92.9171 58.2667 93.7838 57.8C94.6638 57.32 95.6504 57.08 96.7438 57.08C97.7704 57.08 98.7038 57.3 99.5438 57.74C100.384 58.1667 101.05 58.7933 101.544 59.62C102.05 60.4333 102.304 61.4 102.304 62.52L94.3438 64.06C94.5704 64.5933 94.9238 64.9933 95.4038 65.26C95.8971 65.5267 96.4971 65.66 97.2038 65.66ZM96.7438 59.44C95.9571 59.44 95.3171 59.6933 94.8238 60.2C94.3304 60.7067 94.0704 61.4067 94.0438 62.3L99.2838 61.28C99.1371 60.72 98.8371 60.2733 98.3838 59.94C97.9304 59.6067 97.3838 59.44 96.7438 59.44ZM114.961 68V61.56L111.741 66.96H110.421L107.281 61.54V68H104.461V57.24H107.721L111.161 63.46L114.821 57.24H117.741L117.781 68H114.961ZM125.81 68.16C124.676 68.16 123.656 67.9267 122.75 67.46C121.856 66.98 121.156 66.32 120.65 65.48C120.143 64.64 119.89 63.6867 119.89 62.62C119.89 61.5533 120.143 60.6 120.65 59.76C121.156 58.92 121.856 58.2667 122.75 57.8C123.656 57.32 124.676 57.08 125.81 57.08C126.943 57.08 127.956 57.32 128.85 57.8C129.743 58.2667 130.443 58.92 130.95 59.76C131.456 60.6 131.71 61.5533 131.71 62.62C131.71 63.6867 131.456 64.64 130.95 65.48C130.443 66.32 129.743 66.98 128.85 67.46C127.956 67.9267 126.943 68.16 125.81 68.16ZM125.81 65.6C126.61 65.6 127.263 65.3333 127.77 64.8C128.29 64.2533 128.55 63.5267 128.55 62.62C128.55 61.7133 128.29 60.9933 127.77 60.46C127.263 59.9133 126.61 59.64 125.81 59.64C125.01 59.64 124.35 59.9133 123.83 60.46C123.31 60.9933 123.05 61.7133 123.05 62.62C123.05 63.5267 123.31 64.2533 123.83 64.8C124.35 65.3333 125.01 65.6 125.81 65.6ZM150.5 57.24V66.2C150.5 68.1733 149.986 69.64 148.96 70.6C147.933 71.56 146.433 72.04 144.46 72.04C143.42 72.04 142.433 71.9133 141.5 71.66C140.566 71.4067 139.793 71.04 139.18 70.56L140.42 68.32C140.873 68.6933 141.446 68.9867 142.14 69.2C142.833 69.4267 143.526 69.54 144.22 69.54C145.3 69.54 146.093 69.2933 146.6 68.8C147.12 68.32 147.38 67.5867 147.38 66.6V66.14C146.566 67.0333 145.433 67.48 143.98 67.48C142.993 67.48 142.086 67.2667 141.26 66.84C140.446 66.4 139.8 65.7867 139.32 65C138.84 64.2133 138.6 63.3067 138.6 62.28C138.6 61.2533 138.84 60.3467 139.32 59.56C139.8 58.7733 140.446 58.1667 141.26 57.74C142.086 57.3 142.993 57.08 143.98 57.08C145.54 57.08 146.726 57.5933 147.54 58.62V57.24H150.5ZM144.6 64.92C145.426 64.92 146.1 64.68 146.62 64.2C147.153 63.7067 147.42 63.0667 147.42 62.28C147.42 61.4933 147.153 60.86 146.62 60.38C146.1 59.8867 145.426 59.64 144.6 59.64C143.773 59.64 143.093 59.8867 142.56 60.38C142.026 60.86 141.76 61.4933 141.76 62.28C141.76 63.0667 142.026 63.7067 142.56 64.2C143.093 64.68 143.773 64.92 144.6 64.92ZM158.544 68.16C157.411 68.16 156.391 67.9267 155.484 67.46C154.591 66.98 153.891 66.32 153.384 65.48C152.877 64.64 152.624 63.6867 152.624 62.62C152.624 61.5533 152.877 60.6 153.384 59.76C153.891 58.92 154.591 58.2667 155.484 57.8C156.391 57.32 157.411 57.08 158.544 57.08C159.677 57.08 160.691 57.32 161.584 57.8C162.477 58.2667 163.177 58.92 163.684 59.76C164.191 60.6 164.444 61.5533 164.444 62.62C164.444 63.6867 164.191 64.64 163.684 65.48C163.177 66.32 162.477 66.98 161.584 67.46C160.691 67.9267 159.677 68.16 158.544 68.16ZM158.544 65.6C159.344 65.6 159.997 65.3333 160.504 64.8C161.024 64.2533 161.284 63.5267 161.284 62.62C161.284 61.7133 161.024 60.9933 160.504 60.46C159.997 59.9133 159.344 59.64 158.544 59.64C157.744 59.64 157.084 59.9133 156.564 60.46C156.044 60.9933 155.784 61.7133 155.784 62.62C155.784 63.5267 156.044 64.2533 156.564 64.8C157.084 65.3333 157.744 65.6 158.544 65.6ZM171.71 68.16C170.563 68.16 169.53 67.9267 168.61 67.46C167.703 66.98 166.99 66.32 166.47 65.48C165.963 64.64 165.71 63.6867 165.71 62.62C165.71 61.5533 165.963 60.6 166.47 59.76C166.99 58.92 167.703 58.2667 168.61 57.8C169.53 57.32 170.563 57.08 171.71 57.08C172.843 57.08 173.83 57.32 174.67 57.8C175.523 58.2667 176.143 58.94 176.53 59.82L174.11 61.12C173.55 60.1333 172.743 59.64 171.69 59.64C170.877 59.64 170.203 59.9067 169.67 60.44C169.137 60.9733 168.87 61.7 168.87 62.62C168.87 63.54 169.137 64.2667 169.67 64.8C170.203 65.3333 170.877 65.6 171.69 65.6C172.757 65.6 173.563 65.1067 174.11 64.12L176.53 65.44C176.143 66.2933 175.523 66.96 174.67 67.44C173.83 67.92 172.843 68.16 171.71 68.16ZM192.186 57.08C193.532 57.08 194.599 57.48 195.386 58.28C196.186 59.0667 196.586 60.2533 196.586 61.84V68H193.466V62.32C193.466 61.4667 193.286 60.8333 192.926 60.42C192.579 59.9933 192.079 59.78 191.426 59.78C190.692 59.78 190.112 60.02 189.686 60.5C189.259 60.9667 189.046 61.6667 189.046 62.6V68H185.926V62.32C185.926 60.6267 185.246 59.78 183.886 59.78C183.166 59.78 182.592 60.02 182.166 60.5C181.739 60.9667 181.526 61.6667 181.526 62.6V68H178.406V57.24H181.386V58.48C181.786 58.0267 182.272 57.68 182.846 57.44C183.432 57.2 184.072 57.08 184.766 57.08C185.526 57.08 186.212 57.2333 186.826 57.54C187.439 57.8333 187.932 58.2667 188.306 58.84C188.746 58.28 189.299 57.8467 189.966 57.54C190.646 57.2333 191.386 57.08 192.186 57.08ZM210.085 57.24V66.2C210.085 68.1733 209.585 69.64 208.585 70.6C207.585 71.56 206.131 72.04 204.225 72.04C203.211 72.04 202.251 71.9133 201.345 71.66C200.451 71.4067 199.698 71.04 199.085 70.56L200.325 68.32C200.778 68.6933 201.331 68.9867 201.985 69.2C202.638 69.4133 203.298 69.52 203.965 69.52C205.005 69.52 205.765 69.28 206.245 68.8C206.725 68.32 206.965 67.5867 206.965 66.6V66.24C206.565 66.64 206.091 66.9467 205.545 67.16C204.998 67.3733 204.411 67.48 203.785 67.48C202.371 67.48 201.251 67.08 200.425 66.28C199.598 65.4667 199.185 64.2533 199.185 62.64V57.24H202.305V62.18C202.305 63.9267 203.031 64.8 204.485 64.8C205.231 64.8 205.831 64.56 206.285 64.08C206.738 63.5867 206.965 62.86 206.965 61.9V57.24H210.085ZM223.735 57.24V68H220.615V59.8H216.135V68H213.035V57.24H223.735Z" fill="white"/>
</g>
<defs>
<clipPath id="clip0">
<rect width="56" height="32" fill="white" transform="translate(356.451 29.7397) rotate(60)"/>
</clipPath>
<clipPath id="clip1">
<rect width="310.014" height="87.7411" fill="white" transform="translate(3.06201) rotate(2)"/>
</clipPath>
</defs>
</svg>
