<svg width="154" height="201" viewBox="0 0 154 201" fill="none" xmlns="http://www.w3.org/2000/svg">
	<style>

</style>
<path opacity="0.2" d="M77.4028 200.71C100.821 200.71 119.806 199.208 119.806 197.355C119.806 195.502 100.821 194 77.4028 194C53.9844 194 35 195.502 35 197.355C35 199.208 53.9844 200.71 77.4028 200.71Z" fill="#296E94"/>
<g clip-path="url(#clip0)" class='vibrate'>
<path d="M30.6201 39.1799C30.6201 39.1799 89.2101 81.9999 59.1201 169.77L67.3101 170.26C67.3101 170.26 91.8401 82.4299 30.6201 39.1799Z" fill="#364766"/>
<path d="M138.93 46.51C138.93 46.51 78.6001 76 91.8201 160.9L84.2801 160C84.2801 160 76.1401 76 138.93 46.51Z" fill="#364766"/>
<path d="M34.4399 54.22C40.3599 44.14 43.6799 30.82 44.9999 24.49C42.9999 22.65 42.4499 19.87 41.9999 17C41.4699 13.82 38.3599 6.09995 38.3599 6.09995C37.3599 0.0999541 30.7499 -2.02005 26.2299 2.25995L12.2299 15.53C1.51992 25.61 -2.69008 41.48 1.74992 54.9L12.5999 79.9C13.2799 81.98 14.5999 88.7 16.3999 92.59C16.7999 91.1799 17.1699 88.2 17.4999 86.86C21.9999 68.62 26.4199 67.9 34.4399 54.22Z" fill="#85D2DA"/>
<path d="M20.9999 90.34L47.9999 75C61.9999 67.16 71.5599 51.87 72.9999 35.24L73.9999 23.24C74.5699 16.68 70.1299 14.06 63.1499 15.34C60.4499 15.84 57.7199 16.95 52.5999 19.4C50.3899 20.46 47.3699 24 44.9999 24.49C43.6599 30.82 40.3399 44.14 34.4199 54.22C26.4199 67.9 21.9999 68.62 17.4999 86.84C17.1699 88.18 16.7999 91.16 16.3999 92.57C18.0499 91.18 19.4599 91.2 20.9999 90.34Z" fill="#9DDBE1"/>
<path d="M124.71 33.2C123.744 33.5555 122.695 33.6219 121.691 33.391C120.688 33.1601 119.773 32.642 119.06 31.9L110.34 23.9C106.34 20.24 102.55 21.83 103.1 27.53C103.3 29.59 102.8 36.74 102.8 36.74C102.7 51.23 107.8 60.55 117.27 70.13C121.64 74.53 128.86 84.38 133.91 88.55C135.1 89.55 140.58 94.55 141.8 94.37C139.74 82.97 136.4 69.84 132.23 59.82C128.72 51.2612 126.197 42.3302 124.71 33.2Z" fill="#85D2DA"/>
<path d="M145.27 84.9099C148.27 79.9099 152.89 68.1399 153.63 61.0599C154.51 50.2165 151.37 39.4283 144.81 30.7499C142.29 27.4299 141.96 20.1099 140.5 16.7499C138.38 11.8199 131.63 14.1299 130.44 19.8999C129.89 22.5899 127.99 29.1399 127.99 29.1399C127.812 30.0312 127.42 30.866 126.849 31.573C126.278 32.28 125.544 32.8382 124.71 33.1999C126.201 42.3131 128.724 51.2271 132.23 59.7699C136.4 69.7699 139.74 82.9199 141.8 94.3199C143.19 90.4099 141 92.0799 145.27 84.9099Z" fill="#9DDBE1"/>
<path d="M92.57 36.2C92.57 36.2 87.88 55.78 83.43 92.57C81.43 108.73 81.99 126.68 81.23 144.08H83.91C82.8383 126.995 83.1091 109.852 84.72 92.81C87.86 63.08 92.6 41.15 93.44 35.59C95.12 24.51 92.57 36.2 92.57 36.2Z" fill="#0083C7"/>
<path d="M89.7199 53.74C87.1399 53.21 86.9099 49.08 87.7199 45.67C89.8299 37.28 92.9299 22.96 95.4799 15.67C96.6199 12.42 97.1899 9.66996 98.1499 9.75996H98.6899C99.6899 10.31 100.06 12.76 99.8099 14.85C98.8099 23.19 96.2699 39.67 94.4699 48.19C93.7999 51.66 92.2999 54.27 89.7199 53.74Z" fill="#F47954"/>
<path d="M45 86C45 86 55.2 92.14 62.71 117.4C70.22 142.66 75.23 145.4 75.23 145.4L72.93 146.31C67.32 135.88 61.62 123.82 59.33 114.31C54.21 93 45 86 45 86Z" fill="#85D2DA"/>
<path d="M66.42 136.64C66.42 136.64 58.11 123.44 55.58 109.36C53.05 95.28 47.79 88.89 45 86C45 86 54.26 93 59.38 114.27C61.67 123.79 67.38 135.85 72.98 146.27L71.62 146.81L66.42 136.64Z" fill="#A6A8AB"/>
<path d="M66.42 136.64C66.42 136.64 58.11 123.44 55.58 109.36C53.05 95.28 47.79 88.89 45 86C45 86 54.26 93 59.38 114.27C61.67 123.79 67.38 135.85 72.98 146.27L71.62 146.81L66.42 136.64Z" fill="#9DDBE1"/>
<path d="M117.65 77.72C117.65 77.72 106.43 84.59 98.46 112.53C90.49 140.47 85 143.53 85 143.53L87.55 144.53C93.55 132.96 99.74 119.6 102.15 109.08C107.53 85.52 117.65 77.72 117.65 77.72Z" fill="#85D2DA"/>
<path d="M94.6098 133.78C94.6098 133.78 103.61 119.13 106.22 103.58C108.83 88.03 114.55 80.92 117.65 77.72C117.65 77.72 107.53 85.52 102.15 109.06C99.7398 119.58 93.5998 132.94 87.5498 144.51L89.0598 145.09L94.6098 133.78Z" fill="#A6A8AB"/>
<path d="M94.6098 133.78C94.6098 133.78 103.61 119.13 106.22 103.58C108.83 88.03 114.55 80.92 117.65 77.72C117.65 77.72 107.53 85.52 102.15 109.06C99.7398 119.58 93.5998 132.94 87.5498 144.51L89.0598 145.09L94.6098 133.78Z" fill="#9DDBE1"/>
<path d="M101.33 58.0999C101.33 58.0999 90.7798 67.6499 87.9198 98.9199C85.0598 130.19 79.8398 134.54 79.8398 134.54L82.7498 135.07C86.8498 121.57 90.6898 106.15 91.1398 94.4999C92.1398 68.4199 101.33 58.0999 101.33 58.0999Z" fill="#85D2DA"/>
<path d="M88.09 122.26C88.09 122.26 94.71 104.9 94.37 87.8599C94.03 70.8199 98.68 62.1299 101.37 58.0999C101.37 58.0999 92.18 68.4199 91.18 94.4999C90.73 106.15 86.89 121.57 82.79 135.07L84.5 135.39L88.09 122.26Z" fill="#A6A8AB"/>
<path d="M88.09 122.26C88.09 122.26 94.71 104.9 94.37 87.8599C94.03 70.8199 98.68 62.1299 101.37 58.0999C101.37 58.0999 92.18 68.4199 91.18 94.4999C90.73 106.15 86.89 121.57 82.79 135.07L84.5 135.39L88.09 122.26Z" fill="#9DDBE1"/>
<path d="M76.1797 36.5C76.1797 36.5 87.1797 51.72 82.3897 92.92C77.5997 134.12 83.1197 141.18 83.1197 141.18L79.2097 141.08C77.5797 122.5 76.8297 101.52 79.4297 86.33C85.2397 52.34 76.1797 36.5 76.1797 36.5Z" fill="#85D2DA"/>
<path d="M75.8001 123.05C75.8001 123.05 72.0001 98.8 77.0601 76.87C82.1201 54.94 78.5101 42.42 76.1801 36.5C76.1801 36.5 85.2401 52.34 79.4301 86.33C76.8301 101.52 77.5801 122.5 79.2101 141.08L76.9101 141.01L75.8001 123.05Z" fill="#A6A8AB"/>
<path d="M75.8001 123.05C75.8001 123.05 72.0001 98.8 77.0601 76.87C82.1201 54.94 78.5101 42.42 76.1801 36.5C76.1801 36.5 85.2401 52.34 79.4301 86.33C76.8301 101.52 77.5801 122.5 79.2101 141.08L76.9101 141.01L75.8001 123.05Z" fill="#9DDBE1"/>
<path d="M104.98 189.13H50.9899L49.8199 176.07L46.0299 174.15L42.5999 135.59L39.6999 135.1L38.6099 127.92H117.32L116.23 135.07L113.28 135.73L109.52 173.84L106.27 176.09L104.98 189.13Z" fill="#DEEFFA"/>
</g>
<defs>
<clipPath id="clip0">
<rect width="153.81" height="189.14" fill="white"/>
</clipPath>
</defs>
</svg>
