<svg width="88" height="56" viewBox="0 0 88 56" fill="none" xmlns="http://www.w3.org/2000/svg">
<g clip-path="url(#clip0)">
<path d="M42.4959 0.99925C38.2533 2.25416 33.8769 2.67463 29.6398 4.13007C25.8138 5.42456 22.0991 7.1574 18.546 9.30498C11.9144 13.3673 4.9614 19.2473 1.47418 27.4301C-1.56843 34.5456 0.220711 42.1139 5.78633 46.4802C8.94679 48.9642 12.5947 49.7598 16.2212 50.6589C20.6053 51.7129 25.0761 52.1471 29.5433 51.9527C39.1076 51.5796 48.5938 49.7385 57.7732 46.4737C65.9047 43.5952 74.379 39.7205 81.0802 33.3618C86.3834 28.3616 91.1669 20.0623 85.3228 12.9598C80.2821 6.85983 71.2935 5.37851 64.5602 4.36941C54.4413 2.81694 43.9797 3.78076 34.0269 6.31C26.2329 8.30234 16.8265 11.4849 12.6804 20.541C12.3108 21.3366 13.2161 22.2293 13.7518 21.5372C18.6746 15.282 24.1063 11.8795 31.0164 9.80953C38.6861 7.53451 46.5599 6.41769 54.4574 6.48465C61.9568 6.5364 69.6544 7.5067 76.8324 10.2429C79.7786 11.3685 82.9765 12.9986 84.8674 16.1229C87.9743 21.2978 84.5942 26.7056 81.3427 30.2504C75.67 36.4344 68.2991 40.2315 61.1747 43.2653C53.3447 46.4968 45.2512 48.7087 37.032 49.8633C29.1265 51.1229 21.1022 50.7775 13.2911 48.8413C6.01667 47.0624 -1.62735 40.3738 1.12064 30.2763C3.63829 21.0261 11.5127 14.2341 18.2996 9.88715C21.9291 7.58429 25.7384 5.72086 29.6719 4.32413C33.7216 2.86222 38.2962 1.28387 42.528 1.258C42.5421 1.25545 42.5556 1.24958 42.5678 1.24072C42.58 1.23187 42.5906 1.2202 42.599 1.20638C42.6075 1.19257 42.6136 1.17687 42.6171 1.1602C42.6205 1.14353 42.6212 1.12621 42.6191 1.10922C42.617 1.09223 42.6121 1.07591 42.6048 1.06119C42.5974 1.04646 42.5878 1.03363 42.5763 1.02342C42.5649 1.01321 42.5519 1.00582 42.5381 1.00167C42.5243 0.997525 42.5099 0.996702 42.4959 0.99925Z" fill="white"/>
</g>
<path d="M30.78 35.24C29.62 35.24 28.5867 34.9533 27.68 34.38C26.7733 33.8067 26.06 32.98 25.54 31.9C25.0333 30.8067 24.78 29.5067 24.78 28C24.78 26.4933 25.0333 25.2 25.54 24.12C26.06 23.0267 26.7733 22.1933 27.68 21.62C28.5867 21.0467 29.62 20.76 30.78 20.76C31.94 20.76 32.9733 21.0467 33.88 21.62C34.7867 22.1933 35.4933 23.0267 36 24.12C36.52 25.2 36.78 26.4933 36.78 28C36.78 29.5067 36.52 30.8067 36 31.9C35.4933 32.98 34.7867 33.8067 33.88 34.38C32.9733 34.9533 31.94 35.24 30.78 35.24ZM30.78 32.5C31.6333 32.5 32.3 32.1333 32.78 31.4C33.2733 30.6667 33.52 29.5333 33.52 28C33.52 26.4667 33.2733 25.3333 32.78 24.6C32.3 23.8667 31.6333 23.5 30.78 23.5C29.94 23.5 29.2733 23.8667 28.78 24.6C28.3 25.3333 28.06 26.4667 28.06 28C28.06 29.5333 28.3 30.6667 28.78 31.4C29.2733 32.1333 29.94 32.5 30.78 32.5ZM49.0383 30.42V31.54H53.3583V33.2H49.0383V35H45.7783V33.2H43.8383V31.54H45.7783V21H51.8383C53.7449 21 55.2316 21.4 56.2983 22.2C57.3783 23 57.9183 24.1733 57.9183 25.72C57.9183 27.2533 57.3783 28.42 56.2983 29.22C55.2316 30.02 53.7449 30.42 51.8383 30.42H49.0383ZM54.6383 25.74C54.6383 25.06 54.3916 24.54 53.8983 24.18C53.4183 23.82 52.7249 23.64 51.8183 23.64H49.0383V27.88H51.8183C52.7249 27.88 53.4183 27.7 53.8983 27.34C54.3916 26.9667 54.6383 26.4333 54.6383 25.74Z" fill="white"/>
<defs>
<clipPath id="clip0">
<rect width="88" height="51" fill="white" transform="translate(0 1)"/>
</clipPath>
</defs>
</svg>
