<svg width="301" height="137" viewBox="0 0 301 137" fill="none" xmlns="http://www.w3.org/2000/svg">
<g clip-path="url(#clip0)">
<path d="M185.327 3.42477C166.105 5.62657 146.858 10.278 128.521 19.5666C114.888 26.4632 96.7906 36.246 88.2193 53.8398C68.2723 94.9713 147.093 97.3858 159.48 97.1846C197.928 96.5626 237.188 92.1241 273.743 72.6134C282.328 68.0332 294.51 61.1704 298.343 48.2699C302.413 34.6173 293.116 24.9975 285.218 20.7079C270.874 12.9399 253.973 13.1313 238.677 13.1675C213.113 13.2255 187.656 17.5755 162.262 21.8645C160.819 22.1098 161.331 25.1698 162.758 24.945C195.386 19.7468 228.571 14.1666 261.282 17.8229C271.811 18.9933 288.886 20.7514 295.167 34.5755C302.557 50.8254 284.284 63.0315 275.776 68.0157C247.553 84.543 215.847 91.0198 185.813 93.2665C168.693 94.8975 151.542 94.9056 134.477 93.2906C126.057 92.2973 117.719 90.4029 109.536 87.6242C102.206 85.2557 89.0263 80.0211 87.2777 67.8341C85.221 54.0943 98.3336 43.0811 105.206 37.3849C113.491 30.607 122.226 25.002 131.276 20.6557C148.791 12.4461 166.929 7.36493 185.253 5.53472C186.208 5.4202 186.296 3.33187 185.327 3.42477Z" fill="#38B9C6"/>
</g>
<path d="M138.136 51.4361C137.485 51.4361 136.899 51.3401 136.376 51.1481C135.864 50.9455 135.427 50.6575 135.064 50.2841C134.712 49.9108 134.44 49.4575 134.248 48.9241C134.056 48.3908 133.96 47.7881 133.96 47.1161C133.96 46.4441 134.056 45.8415 134.248 45.3081C134.44 44.7748 134.712 44.3215 135.064 43.9481C135.427 43.5748 135.864 43.2921 136.376 43.1001C136.899 42.8975 137.48 42.7961 138.12 42.7961C139.027 42.7961 139.752 42.9828 140.296 43.3561C140.851 43.7188 141.272 44.2041 141.56 44.8121L139.736 45.8041C139.587 45.4841 139.389 45.2175 139.144 45.0041C138.909 44.7908 138.568 44.6841 138.12 44.6841C137.576 44.6841 137.155 44.8441 136.856 45.1641C136.568 45.4735 136.424 45.9001 136.424 46.4441V47.7881C136.424 48.3321 136.568 48.7641 136.856 49.0841C137.155 49.3935 137.587 49.5481 138.152 49.5481C138.611 49.5481 138.968 49.4415 139.224 49.2281C139.491 49.0148 139.715 48.7375 139.896 48.3961L141.688 49.4201C141.389 50.0281 140.952 50.5188 140.376 50.8921C139.811 51.2548 139.064 51.4361 138.136 51.4361ZM147.394 51.4361C146.754 51.4361 146.178 51.3401 145.666 51.1481C145.154 50.9455 144.716 50.6575 144.354 50.2841C144.002 49.9108 143.73 49.4575 143.538 48.9241C143.346 48.3908 143.25 47.7881 143.25 47.1161C143.25 46.4441 143.346 45.8415 143.538 45.3081C143.73 44.7748 144.002 44.3215 144.354 43.9481C144.716 43.5748 145.154 43.2921 145.666 43.1001C146.178 42.8975 146.754 42.7961 147.394 42.7961C148.034 42.7961 148.61 42.8975 149.122 43.1001C149.634 43.2921 150.066 43.5748 150.418 43.9481C150.78 44.3215 151.058 44.7748 151.25 45.3081C151.442 45.8415 151.538 46.4441 151.538 47.1161C151.538 47.7881 151.442 48.3908 151.25 48.9241C151.058 49.4575 150.78 49.9108 150.418 50.2841C150.066 50.6575 149.634 50.9455 149.122 51.1481C148.61 51.3401 148.034 51.4361 147.394 51.4361ZM147.394 49.6761C147.927 49.6761 148.343 49.5108 148.642 49.1801C148.94 48.8495 149.09 48.3801 149.09 47.7721V46.4601C149.09 45.8521 148.94 45.3828 148.642 45.0521C148.343 44.7215 147.927 44.5561 147.394 44.5561C146.86 44.5561 146.444 44.7215 146.146 45.0521C145.847 45.3828 145.698 45.8521 145.698 46.4601V47.7721C145.698 48.3801 145.847 48.8495 146.146 49.1801C146.444 49.5108 146.86 49.6761 147.394 49.6761ZM153.276 42.9881H160.7V51.2441H158.332V44.8281H155.644V51.2441H153.276V42.9881ZM162.725 42.9881H165.093V44.4921H165.205C165.408 44.0015 165.701 43.5961 166.085 43.2761C166.469 42.9561 166.992 42.7961 167.653 42.7961C168.112 42.7961 168.528 42.8815 168.901 43.0521C169.285 43.2228 169.611 43.4841 169.877 43.8361C170.155 44.1881 170.368 44.6361 170.517 45.1801C170.677 45.7241 170.757 46.3695 170.757 47.1161C170.757 47.8628 170.677 48.5081 170.517 49.0521C170.368 49.5961 170.155 50.0441 169.877 50.3961C169.611 50.7481 169.285 51.0095 168.901 51.1801C168.528 51.3508 168.112 51.4361 167.653 51.4361C166.992 51.4361 166.469 51.2815 166.085 50.9721C165.701 50.6521 165.408 50.2415 165.205 49.7401H165.093V54.4441H162.725V42.9881ZM166.629 49.5961C167.163 49.5961 167.573 49.4361 167.861 49.1161C168.149 48.7855 168.293 48.3321 168.293 47.7561V46.4761C168.293 45.9001 168.149 45.4521 167.861 45.1321C167.573 44.8015 167.163 44.6361 166.629 44.6361C166.213 44.6361 165.851 44.7375 165.541 44.9401C165.243 45.1428 165.093 45.4628 165.093 45.9001V48.3321C165.093 48.7695 165.243 49.0895 165.541 49.2921C165.851 49.4948 166.213 49.5961 166.629 49.5961ZM176.175 51.4361C175.535 51.4361 174.959 51.3401 174.447 51.1481C173.935 50.9455 173.498 50.6575 173.135 50.2841C172.783 49.9108 172.511 49.4575 172.319 48.9241C172.127 48.3908 172.031 47.7881 172.031 47.1161C172.031 46.4441 172.127 45.8415 172.319 45.3081C172.511 44.7748 172.783 44.3215 173.135 43.9481C173.498 43.5748 173.935 43.2921 174.447 43.1001C174.959 42.8975 175.535 42.7961 176.175 42.7961C176.815 42.7961 177.391 42.8975 177.903 43.1001C178.415 43.2921 178.847 43.5748 179.199 43.9481C179.562 44.3215 179.839 44.7748 180.031 45.3081C180.223 45.8415 180.319 46.4441 180.319 47.1161C180.319 47.7881 180.223 48.3908 180.031 48.9241C179.839 49.4575 179.562 49.9108 179.199 50.2841C178.847 50.6575 178.415 50.9455 177.903 51.1481C177.391 51.3401 176.815 51.4361 176.175 51.4361ZM176.175 49.6761C176.708 49.6761 177.124 49.5108 177.423 49.1801C177.722 48.8495 177.871 48.3801 177.871 47.7721V46.4601C177.871 45.8521 177.722 45.3828 177.423 45.0521C177.124 44.7215 176.708 44.5561 176.175 44.5561C175.642 44.5561 175.226 44.7215 174.927 45.0521C174.628 45.3828 174.479 45.8521 174.479 46.4601V47.7721C174.479 48.3801 174.628 48.8495 174.927 49.1801C175.226 49.5108 175.642 49.6761 176.175 49.6761ZM182.249 42.9881H186.969C187.737 42.9881 188.323 43.1801 188.729 43.5641C189.134 43.9481 189.337 44.4601 189.337 45.1001C189.337 45.5695 189.198 45.9588 188.921 46.2681C188.654 46.5775 188.211 46.7908 187.593 46.9081V46.9881C188.254 47.0415 188.761 47.2228 189.113 47.5321C189.475 47.8415 189.657 48.2681 189.657 48.8121C189.657 49.5588 189.422 50.1508 188.953 50.5881C188.483 51.0255 187.833 51.2441 187.001 51.2441H182.249V42.9881ZM186.585 49.5641C187.054 49.5641 187.289 49.3401 187.289 48.8921V48.5081C187.289 48.2735 187.225 48.1028 187.097 47.9961C186.969 47.8788 186.798 47.8201 186.585 47.8201H184.553V49.5641H186.585ZM186.297 46.4121C186.51 46.4121 186.675 46.3535 186.793 46.2361C186.91 46.1081 186.969 45.9321 186.969 45.7081V45.3721C186.969 45.1481 186.91 44.9775 186.793 44.8601C186.675 44.7321 186.51 44.6681 186.297 44.6681H184.553V46.4121H186.297ZM195.363 51.4361C194.723 51.4361 194.147 51.3401 193.635 51.1481C193.123 50.9455 192.685 50.6575 192.323 50.2841C191.971 49.9108 191.699 49.4575 191.507 48.9241C191.315 48.3908 191.219 47.7881 191.219 47.1161C191.219 46.4441 191.315 45.8415 191.507 45.3081C191.699 44.7748 191.971 44.3215 192.323 43.9481C192.685 43.5748 193.123 43.2921 193.635 43.1001C194.147 42.8975 194.723 42.7961 195.363 42.7961C196.003 42.7961 196.579 42.8975 197.091 43.1001C197.603 43.2921 198.035 43.5748 198.387 43.9481C198.749 44.3215 199.027 44.7748 199.219 45.3081C199.411 45.8415 199.507 46.4441 199.507 47.1161C199.507 47.7881 199.411 48.3908 199.219 48.9241C199.027 49.4575 198.749 49.9108 198.387 50.2841C198.035 50.6575 197.603 50.9455 197.091 51.1481C196.579 51.3401 196.003 51.4361 195.363 51.4361ZM195.363 49.6761C195.896 49.6761 196.312 49.5108 196.611 49.1801C196.909 48.8495 197.059 48.3801 197.059 47.7721V46.4601C197.059 45.8521 196.909 45.3828 196.611 45.0521C196.312 44.7215 195.896 44.5561 195.363 44.5561C194.829 44.5561 194.413 44.7215 194.115 45.0521C193.816 45.3828 193.667 45.8521 193.667 46.4601V47.7721C193.667 48.3801 193.816 48.8495 194.115 49.1801C194.413 49.5108 194.829 49.6761 195.363 49.6761ZM204.012 47.8841H203.228L202.412 51.2441H200.38L201.052 48.5241C201.159 48.0975 201.303 47.7721 201.484 47.5481C201.676 47.3135 201.964 47.1481 202.348 47.0521V46.9401C202.039 46.8441 201.794 46.6948 201.612 46.4921C201.431 46.2895 201.292 46.0015 201.196 45.6281L200.508 42.9881H202.46L203.292 46.2361H204.012V42.9881H205.9V46.2361H206.62L207.468 42.9881H209.404L208.716 45.6281C208.62 46.0015 208.482 46.2895 208.3 46.4921C208.119 46.6948 207.874 46.8441 207.564 46.9401V47.0521C207.948 47.1481 208.231 47.3135 208.412 47.5481C208.604 47.7721 208.754 48.0975 208.86 48.5241L209.532 51.2441H207.484L206.684 47.8841H205.9V51.2441H204.012V47.8841ZM209.91 49.4041H210.87C211.147 48.9881 211.366 48.4601 211.526 47.8201C211.686 47.1695 211.766 46.4015 211.766 45.5161V42.9881H217.798V49.4041H219.078V53.4841H216.934V51.2441H212.054V53.4841H209.91V49.4041ZM215.51 49.4041V44.8281H213.894V45.5801C213.894 46.4121 213.835 47.1535 213.718 47.8041C213.601 48.4548 213.435 48.9881 213.222 49.4041H215.51ZM224.368 51.4361C222.981 51.4361 221.93 51.0521 221.216 50.2841C220.501 49.5161 220.144 48.4708 220.144 47.1481C220.144 46.4761 220.234 45.8735 220.416 45.3401C220.608 44.7961 220.874 44.3375 221.216 43.9641C221.568 43.5801 221.989 43.2921 222.48 43.1001C222.981 42.8975 223.541 42.7961 224.16 42.7961C224.778 42.7961 225.333 42.8975 225.824 43.1001C226.314 43.2921 226.73 43.5695 227.072 43.9321C227.413 44.2948 227.674 44.7375 227.856 45.2601C228.048 45.7721 228.144 46.3481 228.144 46.9881V47.6921H222.496V47.8361C222.496 48.3695 222.661 48.8015 222.992 49.1321C223.322 49.4521 223.808 49.6121 224.448 49.6121C224.938 49.6121 225.36 49.5215 225.712 49.3401C226.064 49.1481 226.368 48.8975 226.624 48.5881L227.904 49.9801C227.584 50.3748 227.136 50.7161 226.56 51.0041C225.984 51.2921 225.253 51.4361 224.368 51.4361ZM224.176 44.4921C223.664 44.4921 223.253 44.6521 222.944 44.9721C222.645 45.2815 222.496 45.7028 222.496 46.2361V46.3641H225.824V46.2361C225.824 45.6921 225.674 45.2655 225.376 44.9561C225.088 44.6468 224.688 44.4921 224.176 44.4921ZM230.026 42.9881H232.394V46.1401H235.082V42.9881H237.45V51.2441H235.082V47.9801H232.394V51.2441H230.026V42.9881ZM239.619 42.9881H241.923V45.6441L241.731 48.0761H241.827L244.819 42.9881H247.043V51.2441H244.739V48.5881L244.931 46.1561H244.835L241.843 51.2441H239.619V42.9881ZM253.149 51.4361C251.762 51.4361 250.712 51.0521 249.997 50.2841C249.282 49.5161 248.925 48.4708 248.925 47.1481C248.925 46.4761 249.016 45.8735 249.197 45.3401C249.389 44.7961 249.656 44.3375 249.997 43.9641C250.349 43.5801 250.77 43.2921 251.261 43.1001C251.762 42.8975 252.322 42.7961 252.941 42.7961C253.56 42.7961 254.114 42.8975 254.605 43.1001C255.096 43.2921 255.512 43.5695 255.853 43.9321C256.194 44.2948 256.456 44.7375 256.637 45.2601C256.829 45.7721 256.925 46.3481 256.925 46.9881V47.6921H251.277V47.8361C251.277 48.3695 251.442 48.8015 251.773 49.1321C252.104 49.4521 252.589 49.6121 253.229 49.6121C253.72 49.6121 254.141 49.5215 254.493 49.3401C254.845 49.1481 255.149 48.8975 255.405 48.5881L256.685 49.9801C256.365 50.3748 255.917 50.7161 255.341 51.0041C254.765 51.2921 254.034 51.4361 253.149 51.4361ZM252.957 44.4921C252.445 44.4921 252.034 44.6521 251.725 44.9721C251.426 45.2815 251.277 45.7028 251.277 46.2361V46.3641H254.605V46.2361C254.605 45.6921 254.456 45.2655 254.157 44.9561C253.869 44.6468 253.469 44.4921 252.957 44.4921ZM134.088 63.9881H141.512V72.2441H139.144V65.8281H136.456V72.2441H134.088V63.9881ZM143.538 63.9881H145.906V65.4921H146.018C146.22 65.0015 146.514 64.5961 146.898 64.2761C147.282 63.9561 147.804 63.7961 148.466 63.7961C148.924 63.7961 149.34 63.8815 149.714 64.0521C150.098 64.2228 150.423 64.4841 150.69 64.8361C150.967 65.1881 151.18 65.6361 151.33 66.1801C151.49 66.7241 151.57 67.3695 151.57 68.1161C151.57 68.8628 151.49 69.5081 151.33 70.0521C151.18 70.5961 150.967 71.0441 150.69 71.3961C150.423 71.7481 150.098 72.0095 149.714 72.1801C149.34 72.3508 148.924 72.4361 148.466 72.4361C147.804 72.4361 147.282 72.2815 146.898 71.9721C146.514 71.6521 146.22 71.2415 146.018 70.7401H145.906V75.4441H143.538V63.9881ZM147.442 70.5961C147.975 70.5961 148.386 70.4361 148.674 70.1161C148.962 69.7855 149.106 69.3321 149.106 68.7561V67.4761C149.106 66.9001 148.962 66.4521 148.674 66.1321C148.386 65.8015 147.975 65.6361 147.442 65.6361C147.026 65.6361 146.663 65.7375 146.354 65.9401C146.055 66.1428 145.906 66.4628 145.906 66.9001V69.3321C145.906 69.7695 146.055 70.0895 146.354 70.2921C146.663 70.4948 147.026 70.5961 147.442 70.5961ZM156.988 72.4361C156.348 72.4361 155.772 72.3401 155.26 72.1481C154.748 71.9455 154.31 71.6575 153.948 71.2841C153.596 70.9108 153.324 70.4575 153.132 69.9241C152.94 69.3908 152.844 68.7881 152.844 68.1161C152.844 67.4441 152.94 66.8415 153.132 66.3081C153.324 65.7748 153.596 65.3215 153.948 64.9481C154.31 64.5748 154.748 64.2921 155.26 64.1001C155.772 63.8975 156.348 63.7961 156.988 63.7961C157.628 63.7961 158.204 63.8975 158.716 64.1001C159.228 64.2921 159.66 64.5748 160.012 64.9481C160.374 65.3215 160.652 65.7748 160.844 66.3081C161.036 66.8415 161.132 67.4441 161.132 68.1161C161.132 68.7881 161.036 69.3908 160.844 69.9241C160.652 70.4575 160.374 70.9108 160.012 71.2841C159.66 71.6575 159.228 71.9455 158.716 72.1481C158.204 72.3401 157.628 72.4361 156.988 72.4361ZM156.988 70.6761C157.521 70.6761 157.937 70.5108 158.236 70.1801C158.534 69.8495 158.684 69.3801 158.684 68.7721V67.4601C158.684 66.8521 158.534 66.3828 158.236 66.0521C157.937 65.7215 157.521 65.5561 156.988 65.5561C156.454 65.5561 156.038 65.7215 155.74 66.0521C155.441 66.3828 155.292 66.8521 155.292 67.4601V68.7721C155.292 69.3801 155.441 69.8495 155.74 70.1801C156.038 70.5108 156.454 70.6761 156.988 70.6761ZM166.805 72.4361C165.419 72.4361 164.368 72.0521 163.653 71.2841C162.939 70.5161 162.581 69.4708 162.581 68.1481C162.581 67.4761 162.672 66.8735 162.853 66.3401C163.045 65.7961 163.312 65.3375 163.653 64.9641C164.005 64.5801 164.427 64.2921 164.917 64.1001C165.419 63.8975 165.979 63.7961 166.597 63.7961C167.216 63.7961 167.771 63.8975 168.261 64.1001C168.752 64.2921 169.168 64.5695 169.509 64.9321C169.851 65.2948 170.112 65.7375 170.293 66.2601C170.485 66.7721 170.581 67.3481 170.581 67.9881V68.6921H164.933V68.8361C164.933 69.3695 165.099 69.8015 165.429 70.1321C165.76 70.4521 166.245 70.6121 166.885 70.6121C167.376 70.6121 167.797 70.5215 168.149 70.3401C168.501 70.1481 168.805 69.8975 169.061 69.5881L170.341 70.9801C170.021 71.3748 169.573 71.7161 168.997 72.0041C168.421 72.2921 167.691 72.4361 166.805 72.4361ZM166.613 65.4921C166.101 65.4921 165.691 65.6521 165.381 65.9721C165.083 66.2815 164.933 66.7028 164.933 67.2361V67.3641H168.261V67.2361C168.261 66.6921 168.112 66.2655 167.813 65.9561C167.525 65.6468 167.125 65.4921 166.613 65.4921ZM172.511 63.9881H174.879V67.1561H176.095L177.759 63.9881H180.271L178.671 66.8361C178.49 67.1775 178.292 67.4281 178.079 67.5881C177.876 67.7375 177.642 67.8388 177.375 67.8921V67.9881C177.684 68.0521 177.935 68.1695 178.127 68.3401C178.33 68.5001 178.532 68.7775 178.735 69.1721L179.359 70.4041H180.239V72.2441H179.135C178.687 72.2441 178.303 72.1535 177.983 71.9721C177.674 71.7908 177.407 71.4815 177.183 71.0441L176.095 68.9641H174.879V72.2441H172.511V63.9881ZM184.601 65.8281H181.881V63.9881H189.657V65.8281H186.937V72.2441H184.601V65.8281ZM198.355 72.2441C197.864 72.2441 197.469 72.1215 197.171 71.8761C196.872 71.6201 196.696 71.2575 196.643 70.7881H196.563C196.413 71.3321 196.115 71.7428 195.667 72.0201C195.229 72.2975 194.691 72.4361 194.051 72.4361C193.251 72.4361 192.605 72.2228 192.115 71.7961C191.635 71.3588 191.395 70.7508 191.395 69.9721C191.395 69.1081 191.709 68.4681 192.339 68.0521C192.968 67.6361 193.891 67.4281 195.107 67.4281H196.435V67.0121C196.435 66.5215 196.317 66.1535 196.083 65.9081C195.859 65.6521 195.475 65.5241 194.931 65.5241C194.429 65.5241 194.024 65.6201 193.715 65.8121C193.405 66.0041 193.139 66.2548 192.914 66.5641L191.618 65.4121C191.896 64.9428 192.328 64.5588 192.914 64.2601C193.512 63.9508 194.275 63.7961 195.203 63.7961C196.333 63.7961 197.213 64.0575 197.843 64.5801C198.483 65.0921 198.803 65.8708 198.803 66.9161V70.5321H199.715V72.2441H198.355ZM194.947 70.8841C195.363 70.8841 195.715 70.7828 196.003 70.5801C196.291 70.3775 196.435 70.0841 196.435 69.7001V68.7081H195.171C194.2 68.7081 193.715 69.0335 193.715 69.6841V70.0041C193.715 70.2921 193.827 70.5108 194.051 70.6601C194.275 70.8095 194.573 70.8841 194.947 70.8841Z" fill="#476481"/>
<g clip-path="url(#clip1)">
<path d="M67.7104 96.6152C65.7256 99.4002 64.1115 102.555 61.7904 105.079C59.609 107.317 57.214 109.327 54.6413 111.079C49.5813 114.646 44.1764 117.672 38.5117 120.111C32.9545 122.55 27.2263 124.561 21.3753 126.127C15.0809 127.802 8.49148 128.374 2.3251 125.905C0.99065 125.378 0.383373 127.583 1.71793 128.096C13.567 132.706 27.3837 127.033 38.3628 122.247C44.4415 119.631 50.1789 116.254 55.4433 112.193C58.1633 110.213 60.6495 107.917 62.852 105.352C64.9341 102.755 66.3994 99.736 68.2224 96.921C68.443 96.5988 67.938 96.3002 67.7104 96.6152Z" fill="#38B9C6"/>
<path d="M25.0631 135.421C20.8882 134.197 16.749 131.909 12.6539 130.347C10.6659 129.613 8.57561 128.404 6.50105 127.957C4.82731 127.6 2.77597 127.852 1.07161 127.84L1.58577 129.822C5.99336 127.047 11.1327 125.364 15.8738 123.239C18.4245 122.091 22.2297 120.83 23.5105 118.004C23.62 117.813 23.6576 117.587 23.6165 117.37C23.5754 117.152 23.4582 116.957 23.2869 116.821C23.1155 116.685 22.9017 116.618 22.6851 116.631C22.4686 116.644 22.2641 116.737 22.1098 116.893C16.0133 122.441 7.39785 123.661 0.542374 127.98C0.351657 128.1 0.203813 128.281 0.120536 128.493C0.037259 128.706 0.0229334 128.941 0.0796553 129.162C0.136377 129.384 0.261161 129.581 0.435705 129.725C0.61025 129.869 0.825367 129.952 1.0495 129.962C3.02852 129.976 5.15004 129.761 7.0836 130.228C9.19297 130.732 11.2995 131.632 13.4078 132.288C17.2096 133.495 20.9861 135.292 24.882 136.14C24.9677 136.147 25.0531 136.123 25.1238 136.073C25.1945 136.023 25.2461 135.949 25.2699 135.865C25.2937 135.78 25.2882 135.69 25.2544 135.609C25.2206 135.529 25.1605 135.462 25.0843 135.422L25.0631 135.421Z" fill="#38B9C6"/>
</g>
<defs>
<clipPath id="clip0">
<rect width="213.377" height="94.7526" fill="white" transform="translate(87.3066) rotate(2)"/>
</clipPath>
<clipPath id="clip1">
<rect width="68" height="40" fill="white" transform="translate(67.998 136.481) rotate(-179.593)"/>
</clipPath>
</defs>
</svg>
