<svg width="20" height="22" viewBox="0 0 20 22" fill="none" xmlns="http://www.w3.org/2000/svg">
<circle cx="10.0005" cy="12" r="10" fill="#CEECF8"/>
<path d="M9.25049 13.4V11.281C10.0392 11.255 10.6545 11.0773 11.0965 10.748C11.5385 10.41 11.7595 9.93767 11.7595 9.331V9.084C11.7595 8.564 11.5948 8.161 11.2655 7.875C10.9362 7.589 10.4855 7.446 9.91349 7.446C9.34149 7.446 8.88216 7.59333 8.53549 7.888C8.19749 8.18267 7.95915 8.577 7.82049 9.071L7.11849 8.824C7.20515 8.52933 7.32649 8.25633 7.48249 8.005C7.63849 7.75367 7.83349 7.537 8.06749 7.355C8.30149 7.173 8.57449 7.03 8.88649 6.926C9.19849 6.822 9.54949 6.77 9.93949 6.77C10.7542 6.77 11.3955 6.98667 11.8635 7.42C12.3315 7.85333 12.5655 8.43833 12.5655 9.175C12.5655 9.57367 12.4962 9.92467 12.3575 10.228C12.2275 10.5313 12.0455 10.7957 11.8115 11.021C11.5775 11.2377 11.3045 11.4153 10.9925 11.554C10.6805 11.684 10.3468 11.775 9.99149 11.827V13.4H9.25049ZM9.65349 16.091C9.37616 16.091 9.17682 16.0347 9.05549 15.922C8.94282 15.8093 8.88649 15.662 8.88649 15.48V15.298C8.88649 15.1247 8.94282 14.9817 9.05549 14.869C9.17682 14.7477 9.37616 14.687 9.65349 14.687C9.92216 14.687 10.1128 14.7477 10.2255 14.869C10.3468 14.9817 10.4075 15.1247 10.4075 15.298V15.48C10.4075 15.662 10.3468 15.8093 10.2255 15.922C10.1128 16.0347 9.92216 16.091 9.65349 16.091Z" fill="#333333"/>
</svg>
