<svg width="126" height="59" viewBox="0 0 126 59" fill="none" xmlns="http://www.w3.org/2000/svg">
<path d="M30.944 24.8V36H28.352V26.88H26.112V24.8H30.944ZM36.7296 29.008C38.3083 29.008 39.471 29.3227 40.2176 29.952C40.975 30.5813 41.3536 31.424 41.3536 32.48C41.3536 33.1627 41.183 33.7867 40.8416 34.352C40.5003 34.9067 39.9776 35.3547 39.2736 35.696C38.5803 36.0267 37.7216 36.192 36.6976 36.192C35.9083 36.192 35.1296 36.0907 34.3616 35.888C33.6043 35.6747 32.959 35.376 32.4256 34.992L33.4496 33.008C33.8763 33.328 34.367 33.5787 34.9216 33.76C35.4763 33.9307 36.047 34.016 36.6336 34.016C37.2843 34.016 37.7963 33.888 38.1696 33.632C38.543 33.376 38.7296 33.0187 38.7296 32.56C38.7296 32.08 38.5323 31.7173 38.1376 31.472C37.7536 31.2267 37.0816 31.104 36.1216 31.104H33.2576L33.8336 24.8H40.6656V26.88H35.9936L35.8176 29.008H36.7296ZM47.2053 36.192C46.2773 36.192 45.4506 35.9627 44.7253 35.504C43.9999 35.0453 43.4293 34.384 43.0133 33.52C42.6079 32.6453 42.4053 31.6053 42.4053 30.4C42.4053 29.1947 42.6079 28.16 43.0133 27.296C43.4293 26.4213 43.9999 25.7547 44.7253 25.296C45.4506 24.8373 46.2773 24.608 47.2053 24.608C48.1333 24.608 48.9599 24.8373 49.6853 25.296C50.4106 25.7547 50.9759 26.4213 51.3813 27.296C51.7973 28.16 52.0053 29.1947 52.0053 30.4C52.0053 31.6053 51.7973 32.6453 51.3813 33.52C50.9759 34.384 50.4106 35.0453 49.6853 35.504C48.9599 35.9627 48.1333 36.192 47.2053 36.192ZM47.2053 34C47.8879 34 48.4213 33.7067 48.8053 33.12C49.1999 32.5333 49.3973 31.6267 49.3973 30.4C49.3973 29.1733 49.1999 28.2667 48.8053 27.68C48.4213 27.0933 47.8879 26.8 47.2053 26.8C46.5333 26.8 45.9999 27.0933 45.6053 27.68C45.2213 28.2667 45.0293 29.1733 45.0293 30.4C45.0293 31.6267 45.2213 32.5333 45.6053 33.12C45.9999 33.7067 46.5333 34 47.2053 34ZM60.3303 36.192C59.4023 36.192 58.5756 35.9627 57.8503 35.504C57.1249 35.0453 56.5543 34.384 56.1383 33.52C55.7329 32.6453 55.5303 31.6053 55.5303 30.4C55.5303 29.1947 55.7329 28.16 56.1383 27.296C56.5543 26.4213 57.1249 25.7547 57.8503 25.296C58.5756 24.8373 59.4023 24.608 60.3303 24.608C61.2583 24.608 62.0849 24.8373 62.8103 25.296C63.5356 25.7547 64.1009 26.4213 64.5063 27.296C64.9223 28.16 65.1303 29.1947 65.1303 30.4C65.1303 31.6053 64.9223 32.6453 64.5063 33.52C64.1009 34.384 63.5356 35.0453 62.8103 35.504C62.0849 35.9627 61.2583 36.192 60.3303 36.192ZM60.3303 34C61.0129 34 61.5463 33.7067 61.9303 33.12C62.3249 32.5333 62.5223 31.6267 62.5223 30.4C62.5223 29.1733 62.3249 28.2667 61.9303 27.68C61.5463 27.0933 61.0129 26.8 60.3303 26.8C59.6583 26.8 59.1249 27.0933 58.7303 27.68C58.3463 28.2667 58.1543 29.1733 58.1543 30.4C58.1543 31.6267 58.3463 32.5333 58.7303 33.12C59.1249 33.7067 59.6583 34 60.3303 34ZM71.1896 36.192C70.2616 36.192 69.435 35.9627 68.7096 35.504C67.9843 35.0453 67.4136 34.384 66.9976 33.52C66.5923 32.6453 66.3896 31.6053 66.3896 30.4C66.3896 29.1947 66.5923 28.16 66.9976 27.296C67.4136 26.4213 67.9843 25.7547 68.7096 25.296C69.435 24.8373 70.2616 24.608 71.1896 24.608C72.1176 24.608 72.9443 24.8373 73.6696 25.296C74.395 25.7547 74.9603 26.4213 75.3656 27.296C75.7816 28.16 75.9896 29.1947 75.9896 30.4C75.9896 31.6053 75.7816 32.6453 75.3656 33.52C74.9603 34.384 74.395 35.0453 73.6696 35.504C72.9443 35.9627 72.1176 36.192 71.1896 36.192ZM71.1896 34C71.8723 34 72.4056 33.7067 72.7896 33.12C73.1843 32.5333 73.3816 31.6267 73.3816 30.4C73.3816 29.1733 73.1843 28.2667 72.7896 27.68C72.4056 27.0933 71.8723 26.8 71.1896 26.8C70.5176 26.8 69.9843 27.0933 69.5896 27.68C69.2056 28.2667 69.0136 29.1733 69.0136 30.4C69.0136 31.6267 69.2056 32.5333 69.5896 33.12C69.9843 33.7067 70.5176 34 71.1896 34ZM82.049 36.192C81.121 36.192 80.2943 35.9627 79.569 35.504C78.8437 35.0453 78.273 34.384 77.857 33.52C77.4517 32.6453 77.249 31.6053 77.249 30.4C77.249 29.1947 77.4517 28.16 77.857 27.296C78.273 26.4213 78.8437 25.7547 79.569 25.296C80.2943 24.8373 81.121 24.608 82.049 24.608C82.977 24.608 83.8037 24.8373 84.529 25.296C85.2543 25.7547 85.8197 26.4213 86.225 27.296C86.641 28.16 86.849 29.1947 86.849 30.4C86.849 31.6053 86.641 32.6453 86.225 33.52C85.8197 34.384 85.2543 35.0453 84.529 35.504C83.8037 35.9627 82.977 36.192 82.049 36.192ZM82.049 34C82.7317 34 83.265 33.7067 83.649 33.12C84.0437 32.5333 84.241 31.6267 84.241 30.4C84.241 29.1733 84.0437 28.2667 83.649 27.68C83.265 27.0933 82.7317 26.8 82.049 26.8C81.377 26.8 80.8437 27.0933 80.449 27.68C80.065 28.2667 79.873 29.1733 79.873 30.4C79.873 31.6267 80.065 32.5333 80.449 33.12C80.8437 33.7067 81.377 34 82.049 34ZM94.39 32.336V33.232H97.846V34.56H94.39V36H91.782V34.56H90.23V33.232H91.782V24.8H96.63C98.1553 24.8 99.3447 25.12 100.198 25.76C101.062 26.4 101.494 27.3387 101.494 28.576C101.494 29.8027 101.062 30.736 100.198 31.376C99.3447 32.016 98.1553 32.336 96.63 32.336H94.39ZM98.87 28.592C98.87 28.048 98.6727 27.632 98.278 27.344C97.894 27.056 97.3393 26.912 96.614 26.912H94.39V30.304H96.614C97.3393 30.304 97.894 30.16 98.278 29.872C98.6727 29.5733 98.87 29.1467 98.87 28.592Z" fill="white"/>
<path d="M58.6708 1.98639C47.5355 3.22911 36.3866 5.863 25.7669 11.1307C17.8712 15.0419 7.39039 20.5903 2.43165 30.5785C-9.10825 53.9293 36.5574 55.332 43.7341 55.2228C66.0084 54.8849 88.752 52.38 109.923 41.3143C114.894 38.7167 121.95 34.8241 124.165 27.4994C126.517 19.7476 121.127 14.2808 116.55 11.8415C108.237 7.42431 98.4448 7.52625 89.583 7.5407C74.7727 7.56337 60.0259 10.0236 45.3153 12.4492C44.4795 12.5879 44.7774 14.3259 45.6041 14.1988C64.5052 11.2598 83.7287 8.10407 102.682 10.1935C108.782 10.8624 118.675 11.8677 122.32 19.721C126.607 28.9524 116.026 35.8769 111.098 38.7041C94.7543 48.0787 76.3877 51.7442 58.9884 53.0082C49.0709 53.9276 39.1343 53.9253 29.2471 53.0013C24.3685 52.4338 19.5371 51.3547 14.7952 49.7733C10.5472 48.4253 2.90964 45.4473 1.8917 38.5256C0.694634 30.7218 8.28703 24.4726 12.2663 21.2405C17.0637 17.3945 22.1218 14.215 27.3635 11.7503C37.5073 7.09506 48.0137 4.21667 58.6289 3.18462C59.1823 3.11996 59.2324 1.93402 58.6708 1.98639Z" fill="white"/>
</svg>
