<svg width="778" height="402" xmlns="http://www.w3.org/2000/svg">
 <defs>
  <clipPath id="clip0">
   <rect id="svg_1" fill="white" height="402" width="778"/>
  </clipPath>
 </defs>
 <g>
  <title>background</title>
  <rect fill="none" id="canvas_background" height="402" width="582" y="-1" x="-1"/>
 </g>
 <g>
  <title>Layer 1</title>
  <g id="svg_2" clip-path="url(#clip0)">
   <path id="svg_3" fill="#C75F5D" d="m394.61,268.784l40.211,0l0,-154.53l-40.211,-36.1432l0,190.6732z"/>
   <path id="svg_4" fill="#C75F5D" d="m219.987,85.4154c-0.311,-0.4304 -0.483,-0.9457 -0.492,-1.4767c0.015,-0.4076 0.118,-0.8073 0.301,-1.1716c0.184,-0.3644 0.444,-0.685 0.762,-0.94l0,-9.6276c0,-1.1961 0.838,-2.2347 2.078,-2.786l2,-73.4135l2.014,73.4135c1.24,0.5513 2.078,1.5899 2.078,2.786l0,9.6129c0.318,0.2549 0.578,0.5755 0.762,0.9399c0.183,0.3644 0.286,0.764 0.301,1.1717c-0.009,0.531 -0.18,1.0465 -0.492,1.4766c3.068,0.9637 5.729,2.9184 7.565,5.5573c1.836,2.6389 2.744,5.8127 2.581,9.0231c-0.164,3.2103 -1.389,6.2756 -3.484,8.7146c-2.095,2.439 -4.94,4.1137 -8.09,4.7611l0.187,6.9503c1.246,0.438 2.048,1.102 2.048,1.851c0,0.59 -0.492,1.132 -1.334,1.545c0.827,0.418 1.334,0.96 1.334,1.551c0,0.708 -0.724,1.343 -1.861,1.781l3.225,138.898l-13.64,0l3.221,-138.898c-1.138,-0.438 -1.857,-1.073 -1.857,-1.781c0,-0.591 0.493,-1.133 1.33,-1.551c-0.827,-0.413 -1.33,-0.955 -1.33,-1.545c0,-0.749 0.798,-1.413 2.044,-1.851l0.162,-6.9158c-3.147,-0.6511 -5.989,-2.3274 -8.08,-4.7661c-2.092,-2.4387 -3.315,-5.5022 -3.479,-8.7104c-0.163,-3.2083 0.743,-6.38 2.576,-9.0184c1.834,-2.6383 4.491,-4.5942 7.555,-5.5612l0.015,-0.0197z"/>
   <path id="svg_5" fill="#C75F5D" d="m561.314,164.756l0.064,-7.801l5.588,0.039l0,-8.422l4.373,0.035l4.87,-40.8638l0.01,0l4.545,40.9278l4.377,0.029l-0.064,8.461l6.028,0l-0.064,7.802l7.504,9.47l0,144.529l-45.401,0.004l0.01,-144.848l8.16,-9.362z"/>
   <path id="svg_6" fill="#C75F5D" d="m292.579,136.773l0.049,-6.591l3.619,0.025l0.01,-7.113l2.832,0.02l3.21,-34.5388l0.005,0l2.881,34.5778l2.831,0.02l-0.059,7.152l3.9,-0.01l-0.054,6.591l4.835,7.993l-0.212,123.034l-29.362,0.064l0.221,-123.3l5.294,-7.924z"/>
   <path id="svg_7" fill="#C75F5D" d="m348.985,108.5148l4.796,0l0,-7.7228l15.526,0l0,7.7228l4.796,0l0,6.7433l2.103,0l0,153.7079l-29.329,0l0,-153.7079l2.108,0l0,-6.7433z"/>
   <path id="svg_8" fill="#C75F5D" d="m439.047,158.179l3.117,0l0,-2.623c0,-1.447 2.26,-2.624 5.047,-2.624c2.788,0 5.048,1.177 5.048,2.624l0,2.623l3.122,0l0,4.578l1.369,0l0,106.209l-19.082,0l0,-106.209l1.379,0l0,-4.578z"/>
   <path id="svg_9" fill="#C75F5D" d="m412.875,144.383l3.122,0l0,-2.954c0,-1.639 2.26,-2.953 5.048,-2.953c2.787,0 5.047,1.329 5.047,2.953l0,2.954l3.107,0l0,5.188l1.379,0l0,119.396l-19.072,0l0,-119.396l1.369,0l0,-5.188z"/>
   <path id="svg_10" fill="#C75F5D" d="m464.983,110.3703l5.717,2.5545c1.044,-6.0345 6.628,-10.6416 13.374,-10.6416c6.746,0 12.31,4.612 13.369,10.6466l5.722,-2.5595c0.31,-0.1379 0.566,0.2313 0.566,0.8318l0,157.7639l-39.314,0l0,-157.7639c0,-0.6005 0.236,-0.9697 0.566,-0.8318z"/>
   <path id="svg_11" fill="#C75F5D" d="m568.117,158.515l-4.796,0l0,-7.723l-15.526,0l0,7.723l-4.796,0l0,6.743l-2.108,0l0,153.708l29.328,0l0,-153.708l-2.102,0l0,-6.743z"/>
   <path stroke="null" id="svg_12" fill="#B05352" d="m84.149849,188.647l3.271466,0l0,-9.446l7.463993,0l0,-4.188l24.165165,0l0,4.188l7.463993,0l0,9.446l2.911846,0l0,-19.024l20.321462,0l0,-11.227c0.017441,-0.659 0.250821,-1.283 0.649476,-1.735c0.398655,-0.452 0.929366,-0.696 1.476686,-0.677l14.437141,0l11.495396,0.157c0.658612,-0.022 1.297291,0.27 1.776508,0.814c0.479217,0.543 0.759937,1.293 0.77987,2.085l0,12.271l29.404992,0l0,-34.642l6.330316,0l0,-4.577l9.447304,0l0,4.577l17.442007,0l0,61.675l26.133526,0l0,-54.099c0,-3.717 2.862844,-6.724 6.387623,-6.724l14.265221,0c3.528931,0 6.387623,3.007 6.387623,6.724l0,33.332l1.226696,0l0,-3.888l7.455687,0l0,-4.46l24.153537,0l0,4.46l7.463993,0l0,3.898l3.271466,0l0,24.916l10.546928,0c1.411074,0 2.552225,0.802 2.552225,1.796l0,7.615l23.454229,0l0,-16.228l3.271466,0l0,-3.338l7.468145,0l0,-3.819l24.149385,0l0,3.819l7.47562,0l0,3.338l3.271466,0l0,8.21l14.539297,0l0,-5.789l11.928934,0l0,5.789l1.09215,0l0,2.21l13.602456,0l0,-8.392c0,-1.093 1.079692,-1.969 2.408543,-1.969l10.166545,0l0,-26.826c0,-2.953 2.409374,-5.33 5.382679,-5.33l12.015309,0c2.973305,0 5.381849,2.387 5.381849,5.33l0,43.187l11.561008,0l0,-23.459l3.272297,0l0,-9.446l7.471468,0l0,-4.188l24.161843,0l0,4.188l7.45984,0l0,9.446l2.911015,0l0,-19.024l20.301529,0l0,-9.298l64.547301,0l0,35.439l15.540088,0l0,-35.439l14.163065,0l0,9.298l4.310462,0l0,99.21l-164.138908,0l0,-0.403l-11.561008,0l0,0.403l-256.327151,0l0,-0.315l-31.330996,0l0,0.315l-126.632074,0l0,-0.403l-3.009849,0l0,-56.324l3.009849,0l0,-23.459z"/>
   <path id="svg_13" fill="#E26A68" d="m271.64,379c-99.136,0 -179.5,1.58 -179.5,3.002c0,1.423 80.364,2.998 179.5,2.998c99.135,0 179.5,-1.575 179.5,-2.998c0,-1.422 -80.365,-3.002 -179.5,-3.002z"/>
   <path id="svg_14" fill="#CADFEB" d="m127.909,337.784l6.303,-0.089l0,-10.149c-1.97,-0.95 -3.94,-1.743 -5.826,-1.895c-0.992,3.968 -1.154,8.099 -0.477,12.133z"/>
   <path id="svg_15" fill="#FBB157" d="m250.554,245.405c-5.416,0.251 -38.034,1.826 -40.644,3.495c-9.611,6.133 -37.841,41.616 -37.841,41.616c-4.137,4.696 -10.174,7.088 -15.974,9.658c-7.067,3.13 -16.004,6.58 -20.465,10.582c-3.194,2.967 -5.443,6.809 -6.466,11.045c-0.723,2.796 -0.807,5.144 -1.157,7.521l0,27.417c-0.001,0.623 0.234,1.223 0.658,1.68c0.424,0.457 1.005,0.736 1.627,0.781l9.75,0.64l111.285,0l0,-113.702c0.002,-0.1 -0.017,-0.199 -0.056,-0.291c-0.039,-0.093 -0.096,-0.176 -0.169,-0.245c-0.073,-0.069 -0.159,-0.122 -0.253,-0.156c-0.094,-0.034 -0.195,-0.048 -0.295,-0.041z"/>
   <path id="svg_16" fill="#FBB157" d="m127.998,356.739c-0.002,0.623 0.233,1.224 0.657,1.68c0.424,0.457 1.006,0.736 1.627,0.781l9.75,0.64l111.286,0l0,-27.333l-123.32,0l0,24.232z"/>
   <path id="svg_17" fill="#FBB157" d="m135.63,310.756c-3.194,2.967 -5.443,6.809 -6.466,11.046c-0.723,2.795 -0.807,5.143 -1.157,7.521l0,3.184l123.311,0l0,-23.759l-113.034,0c-0.933,0.603 -1.82,1.275 -2.654,2.008z"/>
   <path id="svg_18" fill="#485E88" d="m424.869,209.907l-166.958,0c-0.502,-0.001 -0.998,0.097 -1.462,0.289c-0.464,0.191 -0.885,0.472 -1.24,0.826c-0.355,0.355 -0.636,0.775 -0.828,1.238c-0.192,0.464 -0.291,0.96 -0.291,1.461l0,144.573l172.305,0c0.608,0 1.19,-0.241 1.619,-0.67c0.43,-0.429 0.671,-1.012 0.671,-1.619l0,-142.249c0.005,-0.504 -0.091,-1.004 -0.281,-1.471c-0.189,-0.466 -0.47,-0.891 -0.824,-1.249c-0.355,-0.358 -0.778,-0.642 -1.243,-0.836c-0.465,-0.193 -0.964,-0.293 -1.468,-0.293z"/>
   <path id="svg_19" fill="#485E88" d="m428.685,308.748l-174.595,0l0,23.759l174.595,0l0,-23.759z"/>
   <path id="svg_20" fill="#485E88" d="m254.09,358.294l172.305,0c0.608,0 1.19,-0.241 1.619,-0.67c0.43,-0.429 0.671,-1.011 0.671,-1.618l0,-23.499l-174.595,0l0,25.787z"/>
   <path id="svg_21" fill="#485E88" d="m242.257,253.714l-1.537,0.074c-4.348,0.206 -12.448,0.59 -19.002,1.019c-5.554,0.359 -10.188,0.94 -10.646,0.984c-5.17,1.708 -20.105,20.673 -28.136,30.837c-1.369,1.738 -2.581,3.278 -3.57,4.509c-1.478,1.86 -5.983,9.327 -7.387,11.867c0.399,0.03 0.838,0.044 1.32,0.044c0.675,0 1.369,-0.029 2.039,-0.054c0.669,-0.024 1.241,-0.054 1.851,-0.054c2.546,0 5.087,0 7.638,0c3.483,0 6.966,0 10.449,0c3.483,0 6.967,0 10.454,0c2.557,0 5.112,0 7.666,0c1.704,0 3.694,0 5.855,0l9.469,0l9.356,0l4.077,0c0.295,-0.001 0.576,-0.119 0.784,-0.327c0.208,-0.209 0.324,-0.491 0.324,-0.785l0,-47.066c0.004,-0.135 -0.019,-0.269 -0.067,-0.395c-0.049,-0.126 -0.122,-0.242 -0.215,-0.339c-0.094,-0.098 -0.206,-0.176 -0.33,-0.23c-0.124,-0.053 -0.257,-0.082 -0.392,-0.084z"/>
   <path id="svg_22" fill="#6E6E6E" d="m242.257,253.305l-0.079,0c-3.481,0.168 -13.054,0.606 -20.489,1.088c-5.85,0.384 -10.7,1.009 -10.705,1.009c-6.116,1.944 -24.857,26.653 -31.948,35.493c-1.669,2.082 -6.869,10.829 -7.716,12.488c0.653,0.078 1.311,0.114 1.969,0.108c1.3,0 2.63,-0.098 3.891,-0.108c2.547,0 5.093,0 7.637,0c6.968,0 13.935,0.039 20.903,0.039c2.557,0 5.114,0 7.672,0c1.698,0 3.688,0 5.85,0c5.909,0 13.014,0.03 18.839,0.03l4.082,0c0.406,-0.004 0.793,-0.167 1.079,-0.455c0.286,-0.287 0.447,-0.676 0.448,-1.081l0,-47.154c0.002,-0.19 -0.034,-0.378 -0.105,-0.554c-0.071,-0.176 -0.176,-0.336 -0.309,-0.472c-0.133,-0.135 -0.292,-0.243 -0.467,-0.317c-0.174,-0.074 -0.362,-0.113 -0.552,-0.114zm0.606,48.552c-0.002,0.183 -0.075,0.358 -0.203,0.488c-0.129,0.129 -0.304,0.203 -0.487,0.206l-4.077,0l-9.356,0l-9.474,0c-2.378,0 -4.294,0 -5.855,0c-2.353,0 -4.86,0 -7.667,0c-3.481,0 -7.026,0 -10.449,0c-3.422,0 -6.972,0 -10.453,0c-2.802,0 -5.299,0 -7.643,0c-0.61,0 -1.25,0.03 -1.861,0.054c-0.611,0.025 -1.359,0.054 -2.024,0.054c-0.217,0 -0.423,0 -0.62,0c1.654,-2.928 5.628,-9.494 7.012,-11.217c0.984,-1.231 2.186,-2.752 3.575,-4.514c7.982,-10.125 22.813,-28.942 27.9,-30.679c0.63,-0.079 5.136,-0.64 10.577,-0.985c6.549,-0.428 14.644,-0.812 18.992,-1.019l1.477,-0.069l0.035,0c0.081,-0.001 0.161,0.014 0.236,0.045c0.074,0.03 0.142,0.076 0.199,0.133c0.056,0.058 0.101,0.126 0.13,0.201c0.029,0.076 0.043,0.156 0.041,0.237l-0.005,47.065z"/>
   <path id="svg_23" fill="#DEEFFA" d="m238.249,258.537c-2.63,0.128 -9.848,0.468 -15.472,0.847c-4.431,0.295 -8.085,0.783 -8.09,0.783c-1.522,0.384 -2.954,1.993 -4.023,3.042c-3.781,3.73 -7.26,7.754 -10.405,12.034c-3.476,4.661 -6.549,8.86 -10.074,14.028c-1.65,2.442 -3.164,4.973 -4.536,7.58c-0.047,0.064 -0.073,0.14 -0.077,0.219c-0.003,0.079 0.017,0.158 0.058,0.225c0.041,0.068 0.102,0.121 0.173,0.155c0.072,0.033 0.152,0.044 0.23,0.031c1.271,0 2.069,0 3.137,0c9.115,-0.054 18.219,0.054 27.349,0c5.667,-0.034 15.604,0.03 21.73,0c0.311,-0.007 0.606,-0.137 0.822,-0.361c0.215,-0.224 0.334,-0.524 0.33,-0.835l0,-36.62c0.004,-0.152 -0.023,-0.302 -0.079,-0.442c-0.057,-0.141 -0.142,-0.268 -0.25,-0.374c-0.109,-0.106 -0.238,-0.188 -0.379,-0.242c-0.142,-0.053 -0.293,-0.077 -0.444,-0.07z"/>
   <path id="svg_24" fill="#485E88" d="m375.145,323.327c-17.727,0 -32.066,14.033 -32.066,32.265c0.001,1.44 0.095,2.878 0.281,4.307l63.58,0c0.182,-1.429 0.274,-2.867 0.276,-4.307c0,-18.232 -14.354,-32.265 -32.071,-32.265z"/>
   <path id="svg_25" fill="#FBB157" d="m170.7,323.264c-17.727,0 -32.071,14.033 -32.071,32.264c0.001,1.439 0.095,2.876 0.281,4.302l63.58,0c0.183,-1.427 0.277,-2.863 0.281,-4.302c0,-18.231 -14.359,-32.264 -32.071,-32.264z"/>
   <path id="svg_26" fill="#4A4A4A" d="m127.274,357.935c0.206,0.628 0.599,1.178 1.127,1.576c0.529,0.398 1.166,0.624 1.827,0.649l17.304,0l0,-18.315c-6.559,0 -12.946,0.029 -19.505,0.029c-1.517,5.257 -2.211,11.267 -0.753,16.061z"/>
   <path id="svg_27" fill="#434B5A" d="m138.629,355.528c0.001,1.439 0.094,2.876 0.28,4.302l8.598,0l0,-17.985l-5.939,0c-1.952,4.297 -2.954,8.964 -2.939,13.683z"/>
   <path id="svg_28" fill="#4A4A4A" d="m399.249,341.16l0,18.872l26.472,0c0.731,-0.024 1.437,-0.273 2.021,-0.714c0.583,-0.44 1.016,-1.051 1.238,-1.747c1.527,-4.952 1.276,-11.375 -0.261,-16.401c-9.735,0.034 -19.735,-0.01 -29.47,-0.01z"/>
   <path id="svg_29" fill="#424242" d="m398.968,341.16l0,18.872l8.125,0c0.195,-1.438 0.294,-2.886 0.295,-4.337c0.015,-5.057 -1.186,-10.043 -3.501,-14.54l-4.919,0.005z"/>
   <path id="svg_30" fill="#54656F" d="m170.699,327.364c-15.57,0 -28.19,11.872 -28.19,27.431c0,1.818 0.178,3.631 0.532,5.414l55.317,0c0.352,-1.783 0.528,-3.597 0.527,-5.414c0,-15.559 -12.601,-27.431 -28.186,-27.431z"/>
   <path id="svg_31" fill="#54656F" d="m375.135,327.26c-15.565,0 -28.186,11.872 -28.186,27.436c0.001,1.818 0.178,3.631 0.527,5.415l55.323,0c0.349,-1.784 0.526,-3.597 0.527,-5.415c0,-15.564 -12.621,-27.436 -28.191,-27.436z"/>
   <path id="svg_32" fill="#54656F" d="m193.764,359.407c0,0.984 0.399,1.786 0.891,1.786l156.036,0c0.493,0 0.887,-0.802 0.887,-1.786l0,-5.365l-157.814,0l0,5.365z"/>
   <path id="svg_33" fill="#54656F" d="m170.439,331.976c-13.473,0 -24.395,10.828 -24.395,24.148c0,13.319 10.922,24.147 24.395,24.147c13.472,0 24.394,-10.828 24.394,-24.147c0,-13.32 -10.922,-24.148 -24.394,-24.148z"/>
   <path id="svg_34" fill="#BDBDBD" d="m170.438,341.032c-2.984,0.005 -5.901,0.894 -8.38,2.556c-2.48,1.661 -4.411,4.019 -5.55,6.777c-1.139,2.758 -1.434,5.792 -0.849,8.718c0.585,2.925 2.025,5.612 4.137,7.72c2.113,2.108 4.803,3.543 7.731,4.124c2.928,0.58 5.962,0.28 8.719,-0.863c2.758,-1.143 5.114,-3.078 6.772,-5.559c1.658,-2.481 2.543,-5.398 2.543,-8.382c-0.002,-1.983 -0.394,-3.947 -1.155,-5.779c-0.76,-1.832 -1.875,-3.496 -3.279,-4.897c-1.404,-1.402 -3.071,-2.513 -4.905,-3.27c-1.834,-0.758 -3.799,-1.147 -5.784,-1.145z"/>
   <path id="svg_35" fill="#54656F" d="m170.438,342.356c-2.721,0.023 -5.375,0.852 -7.627,2.38c-2.252,1.528 -4.001,3.689 -5.026,6.209c-1.025,2.521 -1.282,5.288 -0.736,7.953c0.545,2.666 1.867,5.111 3.8,7.026c1.933,1.916 4.39,3.217 7.061,3.739c2.671,0.522 5.437,0.243 7.95,-0.804c2.512,-1.046 4.659,-2.813 6.169,-5.077c1.509,-2.263 2.315,-4.923 2.315,-7.644c-0.006,-1.818 -0.371,-3.617 -1.074,-5.294c-0.702,-1.677 -1.729,-3.199 -3.02,-4.479c-1.292,-1.28 -2.823,-2.293 -4.507,-2.981c-1.683,-0.688 -3.486,-1.037 -5.305,-1.028z"/>
   <path id="svg_36" fill="#BDBDBD" d="m177.342,356.999l7.332,-2.382l-1.783,-5.508l-7.189,2.343c-0.264,0.115 -0.554,0.158 -0.84,0.126c-0.286,-0.031 -0.559,-0.137 -0.792,-0.307c-0.233,-0.169 -0.417,-0.396 -0.535,-0.659c-0.118,-0.263 -0.165,-0.552 -0.137,-0.838l0,-7.743l-5.776,0l0,7.58c0.027,0.286 -0.02,0.574 -0.138,0.836c-0.117,0.262 -0.301,0.489 -0.533,0.659c-0.233,0.169 -0.505,0.275 -0.79,0.307c-0.286,0.033 -0.575,-0.01 -0.839,-0.123l-7.332,-2.387l-1.787,5.512l7.189,2.338c0.281,0.065 0.54,0.2 0.752,0.395c0.213,0.194 0.371,0.44 0.46,0.714c0.089,0.274 0.105,0.566 0.047,0.848c-0.058,0.282 -0.188,0.544 -0.378,0.76l-4.535,6.256l4.678,3.407l4.432,-6.133c0.146,-0.247 0.355,-0.452 0.604,-0.594c0.25,-0.142 0.532,-0.217 0.819,-0.217c0.287,0 0.569,0.075 0.819,0.217c0.249,0.142 0.458,0.347 0.604,0.594l4.53,6.256l4.673,-3.407l-4.432,-6.137c-0.189,-0.216 -0.32,-0.478 -0.378,-0.759c-0.058,-0.281 -0.043,-0.573 0.046,-0.846c0.088,-0.274 0.246,-0.52 0.458,-0.714c0.212,-0.194 0.471,-0.329 0.751,-0.394z"/>
   <path id="svg_37" fill="#54656F" d="m170.439,353.008c-0.616,0.006 -1.215,0.193 -1.724,0.539c-0.509,0.346 -0.904,0.835 -1.135,1.405c-0.231,0.569 -0.289,1.195 -0.165,1.797c0.123,0.603 0.422,1.155 0.859,1.588c0.438,0.433 0.993,0.727 1.597,0.844c0.604,0.118 1.229,0.055 1.797,-0.182c0.567,-0.236 1.053,-0.636 1.394,-1.148c0.341,-0.511 0.523,-1.112 0.523,-1.727c-0.002,-0.412 -0.085,-0.818 -0.244,-1.197c-0.159,-0.379 -0.391,-0.723 -0.684,-1.013c-0.292,-0.289 -0.638,-0.518 -1.019,-0.674c-0.381,-0.155 -0.788,-0.234 -1.199,-0.232z"/>
   <path id="svg_38" fill="#54656F" d="m170.384,350.36c-0.22,0.003 -0.435,0.071 -0.617,0.195c-0.182,0.125 -0.323,0.3 -0.405,0.505c-0.082,0.204 -0.102,0.428 -0.057,0.644c0.044,0.216 0.152,0.414 0.309,0.568c0.157,0.155 0.356,0.26 0.572,0.302c0.217,0.042 0.441,0.019 0.644,-0.066c0.204,-0.085 0.377,-0.228 0.499,-0.412c0.123,-0.183 0.188,-0.398 0.188,-0.619c-0.001,-0.148 -0.031,-0.294 -0.088,-0.43c-0.057,-0.136 -0.141,-0.26 -0.246,-0.364c-0.105,-0.103 -0.23,-0.185 -0.367,-0.241c-0.137,-0.055 -0.284,-0.083 -0.432,-0.082z"/>
   <path id="svg_39" fill="#54656F" d="m165.879,354.017c-0.284,-0.093 -0.594,-0.07 -0.861,0.065c-0.266,0.135 -0.469,0.37 -0.562,0.654c-0.046,0.14 -0.064,0.287 -0.052,0.434c0.011,0.147 0.052,0.29 0.119,0.421c0.068,0.131 0.16,0.247 0.273,0.342c0.113,0.095 0.243,0.166 0.384,0.211c0.284,0.091 0.593,0.068 0.859,-0.067c0.267,-0.135 0.469,-0.369 0.564,-0.652c0.045,-0.14 0.062,-0.287 0.05,-0.434c-0.012,-0.147 -0.053,-0.289 -0.12,-0.42c-0.067,-0.131 -0.159,-0.247 -0.272,-0.342c-0.112,-0.095 -0.242,-0.167 -0.382,-0.212z"/>
   <path id="svg_40" fill="#54656F" d="m168.153,359.865c-0.243,-0.174 -0.545,-0.246 -0.84,-0.2c-0.296,0.046 -0.561,0.206 -0.74,0.446c-0.087,0.118 -0.149,0.253 -0.183,0.396c-0.035,0.143 -0.04,0.291 -0.017,0.436c0.023,0.145 0.075,0.284 0.153,0.409c0.077,0.125 0.178,0.234 0.298,0.319c0.243,0.175 0.545,0.248 0.841,0.202c0.296,-0.046 0.562,-0.207 0.74,-0.448c0.087,-0.119 0.15,-0.253 0.184,-0.396c0.035,-0.143 0.041,-0.292 0.017,-0.437c-0.023,-0.145 -0.075,-0.284 -0.153,-0.409c-0.078,-0.125 -0.179,-0.233 -0.3,-0.318z"/>
   <path id="svg_41" fill="#54656F" d="m172.896,359.776c-0.12,0.085 -0.221,0.193 -0.299,0.318c-0.077,0.125 -0.129,0.264 -0.152,0.409c-0.024,0.145 -0.018,0.294 0.016,0.437c0.035,0.143 0.097,0.277 0.184,0.396c0.178,0.24 0.443,0.401 0.739,0.448c0.295,0.047 0.597,-0.024 0.841,-0.197c0.237,-0.176 0.394,-0.437 0.439,-0.728c0.046,-0.291 -0.026,-0.588 -0.197,-0.828c-0.177,-0.239 -0.44,-0.4 -0.734,-0.448c-0.293,-0.048 -0.594,0.021 -0.837,0.193z"/>
   <path id="svg_42" fill="#54656F" d="m175.003,353.869c-0.141,0.045 -0.271,0.117 -0.384,0.213c-0.112,0.095 -0.205,0.212 -0.272,0.343c-0.068,0.131 -0.108,0.275 -0.12,0.422c-0.011,0.147 0.006,0.295 0.052,0.435c0.068,0.213 0.197,0.401 0.372,0.54c0.175,0.139 0.387,0.224 0.61,0.242c0.222,0.018 0.445,-0.03 0.641,-0.138c0.195,-0.109 0.354,-0.273 0.455,-0.471c0.102,-0.199 0.143,-0.424 0.117,-0.646c-0.026,-0.221 -0.118,-0.431 -0.263,-0.6c-0.145,-0.17 -0.337,-0.293 -0.552,-0.354c-0.215,-0.06 -0.444,-0.055 -0.656,0.014z"/>
   <path id="svg_43" fill="#4A4A4A" d="m170.439,331.739c-4.825,0 -9.541,1.43 -13.553,4.11c-4.012,2.679 -7.138,6.487 -8.985,10.943c-1.846,4.456 -2.329,9.359 -1.388,14.089c0.941,4.73 3.265,9.075 6.676,12.485c3.412,3.41 7.759,5.732 12.491,6.673c4.732,0.941 9.636,0.458 14.094,-1.387c4.457,-1.846 8.267,-4.971 10.948,-8.981c2.68,-4.01 4.111,-8.725 4.111,-13.548c0,-6.467 -2.57,-12.669 -7.145,-17.242c-4.575,-4.573 -10.78,-7.142 -17.249,-7.142zm0,44.733c-4.028,0 -7.965,-1.194 -11.313,-3.431c-3.349,-2.237 -5.958,-5.416 -7.499,-9.135c-1.541,-3.719 -1.944,-7.812 -1.158,-11.76c0.786,-3.948 2.726,-7.575 5.574,-10.421c2.848,-2.846 6.476,-4.784 10.426,-5.569c3.95,-0.785 8.045,-0.381 11.765,1.16c3.72,1.541 6.9,4.151 9.137,7.499c2.237,3.347 3.43,7.283 3.429,11.308c-0.008,5.396 -2.156,10.567 -5.973,14.382c-3.817,3.814 -8.991,5.96 -14.388,5.967z"/>
   <path id="svg_44" fill="#595959" d="m170.064,331.754l-0.492,0.581c-0.315,0.374 -0.384,0.832 -0.158,1.023c0.227,0.192 0.665,0.04 0.985,-0.334l0.823,-0.985c0.073,-0.086 0.134,-0.182 0.182,-0.285c-0.266,0 -0.537,0 -0.808,0c-0.182,-0.015 -0.354,-0.005 -0.532,0z"/>
   <path id="svg_45" fill="#595959" d="m166.883,332.01l-0.409,0.64c-0.261,0.413 -0.27,0.876 0,1.039c0.271,0.162 0.665,-0.05 0.926,-0.463l0.689,-1.078c0.062,-0.095 0.112,-0.198 0.148,-0.305c-0.271,0 -0.537,0.049 -0.807,0.083l-0.547,0.084z"/>
   <path id="svg_46" fill="#595959" d="m163.766,332.679l-0.32,0.69c-0.206,0.448 -0.157,0.905 0.109,1.033c0.266,0.128 0.655,-0.138 0.861,-0.581l0.537,-1.156c0.052,-0.103 0.088,-0.212 0.108,-0.325c-0.26,0.064 -0.526,0.123 -0.787,0.192c-0.148,0.044 -0.34,0.098 -0.508,0.147z"/>
   <path id="svg_47" fill="#595959" d="m160.763,333.752l-0.232,0.724c-0.143,0.467 -0.034,0.92 0.246,0.984c0.281,0.064 0.631,-0.216 0.778,-0.684l0.384,-1.221c0.033,-0.109 0.055,-0.221 0.064,-0.334c-0.251,0.098 -0.492,0.187 -0.758,0.29l-0.482,0.241z"/>
   <path id="svg_48" fill="#595959" d="m158.374,334.929l-0.453,0.275l-0.128,0.753c-0.088,0.493 0.079,0.911 0.375,0.985c0.295,0.074 0.595,-0.3 0.679,-0.783l0.222,-1.255c0.012,-0.114 0.012,-0.23 0,-0.344l-0.695,0.369z"/>
   <path id="svg_49" fill="#595959" d="m155.711,336.686l-0.409,0.33l-0.034,0.763c0,0.492 0.201,0.896 0.492,0.91c0.291,0.015 0.551,-0.374 0.571,-0.866l0.054,-1.275c0.018,-0.112 0.018,-0.227 0,-0.34l-0.674,0.478z"/>
   <path id="svg_50" fill="#595959" d="m153.957,338.547c-0.009,-0.113 -0.032,-0.224 -0.069,-0.33c-0.197,0.182 -0.399,0.364 -0.591,0.556c-0.192,0.192 -0.241,0.256 -0.359,0.384l0.064,0.758c0.039,0.492 0.315,0.861 0.611,0.837c0.295,-0.025 0.492,-0.443 0.453,-0.931l-0.109,-1.274z"/>
   <path id="svg_51" fill="#595959" d="m151.815,340.836c-0.022,-0.112 -0.061,-0.219 -0.113,-0.32c-0.167,0.206 -0.34,0.413 -0.492,0.63l-0.311,0.423l0.163,0.743c0.108,0.492 0.428,0.812 0.719,0.753c0.29,-0.059 0.433,-0.492 0.33,-0.984l-0.296,-1.245z"/>
   <path id="svg_52" fill="#595959" d="m149.969,343.41c-0.041,-0.106 -0.094,-0.207 -0.158,-0.301l-0.418,0.689c-0.089,0.153 -0.168,0.311 -0.256,0.463l0.261,0.719c0.167,0.458 0.531,0.748 0.807,0.649c0.276,-0.098 0.37,-0.556 0.202,-1.013l-0.438,-1.206z"/>
   <path id="svg_53" fill="#595959" d="m148.486,346.191c-0.054,-0.101 -0.12,-0.195 -0.196,-0.281c-0.109,0.246 -0.222,0.492 -0.325,0.743c-0.069,0.163 -0.129,0.33 -0.193,0.493l0.35,0.679c0.227,0.433 0.625,0.674 0.886,0.541c0.261,-0.133 0.296,-0.605 0.064,-1.038l-0.586,-1.137z"/>
   <path id="svg_54" fill="#595959" d="m147.384,349.139c-0.065,-0.092 -0.141,-0.177 -0.227,-0.251c-0.079,0.256 -0.157,0.492 -0.231,0.778c-0.045,0.172 -0.079,0.34 -0.118,0.492l0.433,0.625c0.281,0.399 0.704,0.591 0.95,0.419c0.246,-0.173 0.207,-0.635 -0.074,-1.034l-0.733,-1.029z"/>
   <path id="svg_55" fill="#595959" d="m146.66,352.21c-0.076,-0.084 -0.162,-0.159 -0.256,-0.221c-0.044,0.266 -0.089,0.531 -0.128,0.802c0,0.172 -0.035,0.35 -0.054,0.522l0.492,0.561c0.33,0.359 0.778,0.492 0.985,0.295c0.207,-0.197 0.128,-0.659 -0.207,-1.019l-0.832,-0.94z"/>
   <path id="svg_56" fill="#595959" d="m147.335,356.168l-0.985,-0.822c-0.088,-0.074 -0.183,-0.137 -0.286,-0.187c0,0.27 0,0.541 -0.024,0.812c0,0.177 0,0.349 0,0.527l0.581,0.492c0.374,0.315 0.832,0.389 1.024,0.162c0.192,-0.226 0.064,-0.669 -0.31,-0.984z"/>
   <path id="svg_57" fill="#595959" d="m147.536,359.18l-1.078,-0.684c-0.098,-0.061 -0.202,-0.111 -0.311,-0.148c0.03,0.266 0.055,0.537 0.089,0.807c0.025,0.173 0.054,0.345 0.084,0.522l0.64,0.409c0.414,0.261 0.876,0.275 1.039,0c0.162,-0.276 -0.049,-0.645 -0.463,-0.906z"/>
   <path id="svg_58" fill="#595959" d="m148.133,362.148l-1.158,-0.546c-0.104,-0.047 -0.213,-0.082 -0.325,-0.103c0.059,0.26 0.119,0.521 0.188,0.787c0.049,0.167 0.103,0.335 0.152,0.492l0.689,0.32c0.444,0.207 0.907,0.158 1.035,-0.108c0.128,-0.266 -0.138,-0.64 -0.581,-0.842z"/>
   <path id="svg_59" fill="#595959" d="m149.107,365.003l-1.216,-0.384c-0.109,-0.035 -0.221,-0.056 -0.335,-0.064c0.094,0.256 0.187,0.492 0.291,0.758c0.069,0.163 0.142,0.32 0.216,0.492l0.724,0.227c0.468,0.148 0.921,0.039 0.985,-0.241c0.064,-0.281 -0.197,-0.64 -0.665,-0.788z"/>
   <path id="svg_60" fill="#595959" d="m150.451,367.71l-1.255,-0.221c-0.115,-0.015 -0.23,-0.015 -0.345,0c0.128,0.236 0.256,0.492 0.389,0.713l0.276,0.448l0.748,0.133c0.493,0.084 0.916,-0.083 0.985,-0.374c0.069,-0.29 -0.315,-0.615 -0.798,-0.699z"/>
   <path id="svg_61" fill="#595959" d="m152.136,370.22l-1.276,-0.054c-0.112,-0.018 -0.227,-0.018 -0.339,0c0.157,0.217 0.31,0.438 0.492,0.655l0.33,0.408l0.763,0.035c0.492,0 0.896,-0.202 0.911,-0.492c0.015,-0.291 -0.394,-0.532 -0.881,-0.552z"/>
   <path id="svg_62" fill="#595959" d="m154.13,372.485l-1.271,0.113c-0.112,0.009 -0.223,0.032 -0.33,0.069c0.182,0.197 0.365,0.394 0.557,0.591c0.192,0.197 0.256,0.241 0.384,0.364l0.758,-0.069c0.493,-0.044 0.862,-0.315 0.837,-0.61c-0.024,-0.296 -0.443,-0.497 -0.935,-0.458z"/>
   <path id="svg_63" fill="#595959" d="m156.41,374.473l-1.246,0.276c-0.112,0.026 -0.221,0.064 -0.325,0.113c0.212,0.172 0.418,0.345 0.635,0.492c0.138,0.109 0.281,0.207 0.424,0.31l0.743,-0.167c0.493,-0.103 0.813,-0.423 0.754,-0.714c-0.06,-0.29 -0.508,-0.418 -0.985,-0.31z"/>
   <path id="svg_64" fill="#595959" d="m158.926,376.147l-1.197,0.438c-0.109,0.038 -0.213,0.089 -0.31,0.152c0.231,0.143 0.458,0.286 0.694,0.424c0.153,0.088 0.31,0.167 0.463,0.251l0.719,-0.261c0.458,-0.162 0.749,-0.527 0.65,-0.807c-0.098,-0.281 -0.561,-0.365 -1.019,-0.197z"/>
   <path id="svg_65" fill="#595959" d="m161.664,377.481l-1.133,0.586c-0.101,0.053 -0.196,0.119 -0.281,0.196c0.247,0.109 0.493,0.222 0.744,0.325c0.158,0.069 0.325,0.128 0.492,0.192l0.68,-0.354c0.433,-0.222 0.675,-0.62 0.542,-0.886c-0.133,-0.266 -0.636,-0.281 -1.044,-0.059z"/>
   <path id="svg_66" fill="#595959" d="m164.5,378.445l-1.044,0.729c-0.094,0.065 -0.178,0.143 -0.251,0.231l0.778,0.232l0.493,0.123l0.625,-0.438c0.399,-0.281 0.586,-0.704 0.418,-0.95c-0.167,-0.247 -0.615,-0.212 -1.019,0.073z"/>
   <path id="svg_67" fill="#595959" d="m167.469,379.026l-0.94,0.862c-0.085,0.077 -0.16,0.164 -0.222,0.261l0.798,0.128l0.527,0.054l0.561,-0.492c0.36,-0.335 0.492,-0.778 0.296,-0.985c-0.197,-0.207 -0.66,-0.157 -1.02,0.172z"/>
   <path id="svg_68" fill="#595959" d="m170.483,379.228l-0.817,0.984c-0.076,0.086 -0.139,0.182 -0.187,0.286c0.265,0 0.536,0 0.812,0l0.527,0l0.492,-0.586c0.315,-0.374 0.389,-0.837 0.163,-1.024c-0.227,-0.187 -0.675,-0.049 -0.99,0.34z"/>
   <path id="svg_69" fill="#595959" d="m174.432,378.554c-0.251,-0.158 -0.67,0.049 -0.931,0.462l-0.689,1.073c-0.06,0.098 -0.108,0.202 -0.143,0.311c0.266,0 0.537,-0.05 0.803,-0.084l0.502,-0.103l0.414,-0.64c0.28,-0.394 0.29,-0.837 0.044,-1.019z"/>
   <path id="svg_70" fill="#595959" d="m177.323,377.84c-0.266,-0.123 -0.65,0.133 -0.857,0.581l-0.542,1.156c-0.048,0.104 -0.082,0.213 -0.103,0.325l0.788,-0.192c0.167,-0.044 0.334,-0.098 0.492,-0.152l0.32,-0.684c0.222,-0.443 0.172,-0.906 -0.098,-1.034z"/>
   <path id="svg_71" fill="#595959" d="m180.105,376.767c-0.286,-0.088 -0.636,0.217 -0.779,0.684l-0.388,1.221c-0.034,0.109 -0.054,0.221 -0.06,0.335c0.252,-0.094 0.493,-0.187 0.759,-0.291l0.492,-0.216l0.227,-0.729c0.138,-0.472 0.019,-0.925 -0.251,-1.004z"/>
   <path id="svg_72" fill="#595959" d="m182.714,375.32c-0.29,-0.05 -0.595,0.3 -0.679,0.782l-0.222,1.255c-0.016,0.113 -0.016,0.227 0,0.34l0.714,-0.384c0.148,-0.089 0.296,-0.187 0.448,-0.276l0.133,-0.753c0.064,-0.477 -0.103,-0.91 -0.394,-0.964z"/>
   <path id="svg_73" fill="#595959" d="m185.118,373.553c-0.296,0 -0.557,0.374 -0.576,0.866l-0.055,1.275c-0.013,0.113 -0.013,0.227 0,0.339l0.655,-0.492c0.143,-0.108 0.276,-0.221 0.414,-0.329l0.029,-0.763c0.05,-0.473 -0.172,-0.881 -0.467,-0.896z"/>
   <path id="svg_74" fill="#595959" d="m187.269,371.49c-0.295,0.03 -0.492,0.443 -0.457,0.931l0.108,1.27c0.013,0.115 0.038,0.229 0.074,0.339c0.197,-0.187 0.394,-0.369 0.586,-0.561l0.364,-0.384l-0.064,-0.758c-0.044,-0.482 -0.315,-0.861 -0.611,-0.837z"/>
   <path id="svg_75" fill="#595959" d="m189.131,369.163c-0.286,0.064 -0.439,0.492 -0.33,0.984l0.275,1.245c0.023,0.112 0.061,0.219 0.114,0.32c0.172,-0.207 0.344,-0.413 0.492,-0.625l0.315,-0.428l-0.167,-0.743c-0.099,-0.478 -0.409,-0.813 -0.699,-0.753z"/>
   <path id="svg_76" fill="#595959" d="m190.672,366.612c-0.276,0.104 -0.369,0.557 -0.197,1.019l0.433,1.201c0.042,0.106 0.095,0.207 0.158,0.301c0.143,-0.227 0.286,-0.453 0.423,-0.689l0.252,-0.493l-0.261,-0.713c-0.168,-0.434 -0.527,-0.724 -0.808,-0.626z"/>
   <path id="svg_77" fill="#595959" d="m191.869,363.881c-0.261,0.138 -0.291,0.605 -0.06,1.039l0.586,1.132c0.053,0.1 0.118,0.194 0.192,0.28c0.109,-0.246 0.227,-0.492 0.33,-0.743c0.064,-0.158 0.123,-0.325 0.192,-0.492l-0.354,-0.675c-0.227,-0.452 -0.621,-0.674 -0.886,-0.541z"/>
   <path id="svg_78" fill="#595959" d="m192.686,361.016c-0.241,0.168 -0.212,0.635 0.074,1.034l0.729,1.048c0.066,0.092 0.142,0.176 0.226,0.251c0.079,-0.256 0.158,-0.492 0.232,-0.777c0.044,-0.173 0.078,-0.34 0.123,-0.493l-0.439,-0.625c-0.261,-0.413 -0.689,-0.6 -0.945,-0.438z"/>
   <path id="svg_79" fill="#595959" d="m193.149,358.063c-0.217,0.202 -0.124,0.654 0.206,1.019l0.862,0.94c0.078,0.083 0.166,0.158 0.261,0.221c0.039,-0.265 0.089,-0.531 0.128,-0.797c0,-0.177 0.03,-0.354 0.054,-0.527l-0.492,-0.561c-0.355,-0.354 -0.798,-0.482 -1.019,-0.295z"/>
   <path id="svg_80" fill="#595959" d="m194.232,355.257c-0.374,-0.315 -0.832,-0.389 -1.019,-0.162c-0.187,0.226 -0.045,0.664 0.335,0.984l0.984,0.822c0.088,0.074 0.186,0.135 0.291,0.182c0,-0.265 0,-0.531 0,-0.807l0,-0.527l-0.591,-0.492z"/>
   <path id="svg_81" fill="#595959" d="m194.562,352.57l-0.645,-0.414c-0.409,-0.26 -0.876,-0.27 -1.034,0c-0.158,0.271 0.044,0.665 0.463,0.931l1.073,0.689c0.099,0.057 0.203,0.105 0.311,0.143c-0.03,-0.266 -0.055,-0.532 -0.089,-0.808c-0.025,-0.197 -0.054,-0.369 -0.079,-0.541z"/>
   <path id="svg_82" fill="#595959" d="m193.892,349.449l-0.694,-0.32c-0.438,-0.206 -0.901,-0.157 -1.029,0.109c-0.128,0.266 0.133,0.654 0.581,0.861l1.152,0.542c0.106,0.047 0.216,0.081 0.33,0.103c-0.064,-0.261 -0.123,-0.522 -0.192,-0.783c-0.049,-0.172 -0.103,-0.339 -0.148,-0.512z"/>
   <path id="svg_83" fill="#595959" d="m192.819,346.447l-0.729,-0.232c-0.463,-0.143 -0.916,-0.034 -0.985,0.246c-0.069,0.281 0.217,0.635 0.685,0.778l1.216,0.384c0.111,0.034 0.225,0.056 0.34,0.064c-0.099,-0.251 -0.187,-0.492 -0.291,-0.753c-0.093,-0.168 -0.167,-0.325 -0.236,-0.487z"/>
   <path id="svg_84" fill="#595959" d="m191.366,343.606l-0.753,-0.128c-0.493,-0.083 -0.916,0.079 -0.985,0.37c-0.069,0.29 0.295,0.6 0.783,0.684l1.29,0.241c0.113,0.012 0.227,0.012 0.34,0c-0.128,-0.236 -0.251,-0.492 -0.389,-0.709c-0.104,-0.152 -0.197,-0.275 -0.286,-0.458z"/>
   <path id="svg_85" fill="#595959" d="m189.549,340.988l-0.758,-0.034c-0.493,0 -0.896,0.201 -0.911,0.492c-0.015,0.29 0.374,0.551 0.862,0.571l1.275,0.059c0.116,0.005 0.232,-0.005 0.345,-0.03l-0.493,-0.654c-0.093,-0.133 -0.207,-0.266 -0.32,-0.404z"/>
   <path id="svg_86" fill="#595959" d="m187.412,338.625l-0.758,0.064c-0.493,0.045 -0.862,0.315 -0.842,0.611c0.019,0.295 0.443,0.492 0.935,0.453l1.271,-0.109c0.114,-0.008 0.226,-0.031 0.335,-0.069c-0.183,-0.196 -0.365,-0.393 -0.557,-0.59c-0.192,-0.197 -0.261,-0.236 -0.384,-0.36z"/>
   <path id="svg_87" fill="#595959" d="m184.98,336.558l-0.739,0.167c-0.493,0.104 -0.817,0.424 -0.753,0.709c0.064,0.286 0.492,0.443 0.984,0.335l1.246,-0.276c0.112,-0.022 0.219,-0.061 0.32,-0.113c-0.207,-0.172 -0.413,-0.344 -0.63,-0.492l-0.428,-0.33z"/>
   <path id="svg_88" fill="#595959" d="m182.3,334.826l-0.714,0.265c-0.457,0.168 -0.753,0.527 -0.654,0.803c0.098,0.275 0.561,0.369 1.024,0.202l1.196,-0.434c0.108,-0.04 0.21,-0.093 0.306,-0.157c-0.232,-0.143 -0.453,-0.286 -0.69,-0.423l-0.468,-0.256z"/>
   <path id="svg_89" fill="#595959" d="m179.42,333.452l-0.674,0.355c-0.434,0.221 -0.675,0.62 -0.542,0.881c0.133,0.261 0.601,0.295 1.034,0.064l1.133,-0.586c0.102,-0.055 0.198,-0.121 0.285,-0.197c-0.246,-0.108 -0.492,-0.222 -0.743,-0.325c-0.163,-0.059 -0.33,-0.118 -0.493,-0.192z"/>
   <path id="svg_90" fill="#595959" d="m176.387,332.468l-0.625,0.433c-0.399,0.28 -0.586,0.704 -0.419,0.95c0.167,0.246 0.63,0.212 1.034,-0.074l1.044,-0.728c0.094,-0.067 0.18,-0.145 0.256,-0.232c-0.261,-0.074 -0.492,-0.157 -0.778,-0.226l-0.512,-0.123z"/>
   <path id="svg_91" fill="#595959" d="m173.25,331.912l-0.561,0.492c-0.364,0.33 -0.493,0.773 -0.296,0.984c0.197,0.212 0.655,0.128 1.015,-0.202l0.945,-0.861c0.084,-0.078 0.158,-0.166 0.222,-0.261l-0.803,-0.128l-0.522,-0.024z"/>
   <path id="svg_92" fill="#222C36" d="m374.879,332.468c-13.472,0 -24.394,10.828 -24.394,24.148c0,13.319 10.922,24.148 24.394,24.148c13.472,0 24.394,-10.829 24.394,-24.148c0,-13.32 -10.912,-24.148 -24.394,-24.148z"/>
   <path id="svg_93" fill="#BDBDBD" d="m374.879,341.544c-2.984,0.005 -5.9,0.894 -8.378,2.555c-2.479,1.661 -4.41,4.018 -5.548,6.776c-1.139,2.757 -1.434,5.789 -0.849,8.714c0.585,2.925 2.025,5.611 4.136,7.718c2.112,2.107 4.801,3.542 7.728,4.122c2.927,0.58 5.96,0.28 8.717,-0.863c2.756,-1.142 5.112,-3.076 6.769,-5.556c1.657,-2.481 2.542,-5.396 2.542,-8.379c-0.004,-4.004 -1.599,-7.843 -4.433,-10.672c-2.835,-2.829 -6.678,-4.417 -10.684,-4.415z"/>
   <path id="svg_94" fill="#54656F" d="m374.879,342.868c-2.722,0.024 -5.376,0.852 -7.628,2.38c-2.251,1.529 -4,3.689 -5.026,6.21c-1.025,2.52 -1.281,5.287 -0.736,7.953c0.545,2.665 1.868,5.11 3.8,7.026c1.933,1.915 4.39,3.216 7.061,3.738c2.672,0.523 5.438,0.243 7.95,-0.804c2.513,-1.046 4.659,-2.812 6.169,-5.076c1.51,-2.264 2.316,-4.924 2.316,-7.645c-0.007,-1.818 -0.372,-3.617 -1.074,-5.294c-0.703,-1.676 -1.729,-3.198 -3.021,-4.478c-1.291,-1.28 -2.823,-2.293 -4.506,-2.981c-1.684,-0.688 -3.486,-1.038 -5.305,-1.029z"/>
   <path id="svg_95" fill="#BDBDBD" d="m381.773,357.512l7.332,-2.392l-1.783,-5.513l-7.189,2.343c-0.264,0.114 -0.554,0.158 -0.84,0.126c-0.286,-0.032 -0.559,-0.138 -0.792,-0.307c-0.233,-0.17 -0.417,-0.397 -0.535,-0.66c-0.118,-0.262 -0.165,-0.551 -0.137,-0.838l0,-7.732l-5.757,0l0,7.58c0.029,0.286 -0.018,0.575 -0.135,0.837c-0.117,0.263 -0.301,0.491 -0.533,0.661c-0.233,0.17 -0.505,0.276 -0.791,0.309c-0.286,0.032 -0.576,-0.01 -0.84,-0.124l-7.332,-2.392l-1.788,5.513l7.19,2.343c0.28,0.063 0.54,0.198 0.752,0.392c0.213,0.194 0.371,0.44 0.46,0.713c0.089,0.274 0.105,0.565 0.047,0.847c-0.058,0.282 -0.188,0.544 -0.378,0.76l-4.535,6.261l4.678,3.406l4.432,-6.138c0.146,-0.248 0.354,-0.454 0.604,-0.597c0.25,-0.142 0.533,-0.218 0.821,-0.218c0.288,0 0.571,0.076 0.821,0.218c0.25,0.143 0.458,0.349 0.605,0.597l4.53,6.256l4.673,-3.406l-4.432,-6.133c-0.191,-0.214 -0.323,-0.473 -0.384,-0.754c-0.061,-0.28 -0.047,-0.571 0.039,-0.844c0.085,-0.274 0.241,-0.52 0.451,-0.716c0.21,-0.195 0.467,-0.332 0.746,-0.398z"/>
   <path id="svg_96" fill="#54656F" d="m374.879,353.515c-0.615,0.007 -1.214,0.195 -1.722,0.541c-0.508,0.347 -0.902,0.836 -1.133,1.406c-0.231,0.57 -0.288,1.195 -0.163,1.797c0.124,0.602 0.423,1.154 0.86,1.586c0.438,0.433 0.993,0.726 1.597,0.844c0.604,0.117 1.228,0.053 1.796,-0.183c0.568,-0.237 1.052,-0.637 1.393,-1.148c0.341,-0.512 0.523,-1.113 0.523,-1.728c-0.002,-0.411 -0.085,-0.818 -0.244,-1.198c-0.16,-0.379 -0.392,-0.723 -0.685,-1.013c-0.293,-0.289 -0.64,-0.518 -1.021,-0.673c-0.381,-0.155 -0.789,-0.234 -1.201,-0.231z"/>
   <path id="svg_97" fill="#54656F" d="m374.834,350.867c-0.22,0.003 -0.435,0.071 -0.617,0.195c-0.181,0.125 -0.322,0.3 -0.405,0.505c-0.082,0.204 -0.102,0.428 -0.057,0.644c0.045,0.216 0.152,0.413 0.309,0.568c0.157,0.155 0.356,0.26 0.573,0.302c0.216,0.042 0.44,0.019 0.643,-0.066c0.204,-0.085 0.377,-0.228 0.5,-0.412c0.122,-0.183 0.187,-0.399 0.187,-0.619c-0.003,-0.298 -0.123,-0.583 -0.336,-0.792c-0.212,-0.21 -0.498,-0.327 -0.797,-0.325z"/>
   <path id="svg_98" fill="#54656F" d="m370.324,354.524c-0.284,-0.091 -0.591,-0.066 -0.856,0.069c-0.266,0.134 -0.468,0.367 -0.562,0.649c-0.047,0.14 -0.065,0.288 -0.054,0.435c0.012,0.147 0.052,0.29 0.12,0.421c0.067,0.132 0.16,0.248 0.273,0.343c0.113,0.094 0.244,0.166 0.385,0.209c0.284,0.093 0.593,0.07 0.86,-0.065c0.267,-0.134 0.469,-0.37 0.563,-0.653c0.045,-0.141 0.062,-0.289 0.049,-0.435c-0.012,-0.147 -0.053,-0.29 -0.121,-0.421c-0.067,-0.131 -0.16,-0.247 -0.273,-0.342c-0.113,-0.094 -0.243,-0.166 -0.384,-0.21z"/>
   <path id="svg_99" fill="#54656F" d="m372.604,360.376c-0.12,-0.087 -0.255,-0.15 -0.399,-0.185c-0.144,-0.034 -0.294,-0.041 -0.44,-0.018c-0.146,0.023 -0.287,0.074 -0.413,0.152c-0.127,0.077 -0.237,0.178 -0.324,0.297c-0.087,0.119 -0.151,0.253 -0.186,0.396c-0.035,0.143 -0.041,0.291 -0.018,0.436c0.023,0.145 0.075,0.285 0.152,0.41c0.077,0.125 0.179,0.233 0.298,0.319c0.244,0.173 0.546,0.243 0.841,0.198c0.295,-0.046 0.56,-0.206 0.74,-0.444c0.087,-0.119 0.15,-0.253 0.185,-0.396c0.034,-0.143 0.04,-0.292 0.017,-0.437c-0.023,-0.145 -0.076,-0.285 -0.153,-0.409c-0.078,-0.125 -0.18,-0.234 -0.3,-0.319z"/>
   <path id="svg_100" fill="#54656F" d="m377.341,360.288c-0.119,0.085 -0.221,0.194 -0.298,0.318c-0.078,0.125 -0.13,0.264 -0.153,0.41c-0.023,0.145 -0.018,0.293 0.017,0.436c0.034,0.143 0.096,0.277 0.183,0.396c0.179,0.24 0.444,0.4 0.74,0.446c0.296,0.046 0.597,-0.026 0.841,-0.2c0.119,-0.086 0.221,-0.195 0.298,-0.32c0.078,-0.125 0.13,-0.265 0.153,-0.41c0.023,-0.146 0.018,-0.294 -0.017,-0.438c-0.034,-0.143 -0.097,-0.278 -0.183,-0.397c-0.179,-0.24 -0.445,-0.4 -0.741,-0.445c-0.296,-0.045 -0.598,0.028 -0.84,0.204z"/>
   <path id="svg_101" fill="#54656F" d="m379.453,354.381c-0.141,0.044 -0.271,0.115 -0.384,0.21c-0.113,0.094 -0.206,0.211 -0.274,0.342c-0.067,0.131 -0.108,0.274 -0.119,0.421c-0.011,0.147 0.007,0.295 0.053,0.435c0.096,0.28 0.297,0.511 0.561,0.643c0.265,0.133 0.57,0.157 0.852,0.066c0.281,-0.09 0.516,-0.287 0.653,-0.549c0.137,-0.261 0.167,-0.566 0.081,-0.849c-0.094,-0.283 -0.297,-0.518 -0.563,-0.652c-0.267,-0.135 -0.576,-0.159 -0.86,-0.067z"/>
   <path id="svg_102" fill="#434B5A" d="m374.879,332.251c-4.824,0.001 -9.538,1.432 -13.549,4.111c-4.01,2.679 -7.135,6.487 -8.98,10.942c-1.845,4.455 -2.328,9.357 -1.386,14.085c0.941,4.729 3.265,9.073 6.676,12.482c3.411,3.409 7.757,5.73 12.488,6.67c4.731,0.941 9.634,0.458 14.09,-1.388c4.457,-1.845 8.265,-4.97 10.945,-8.979c2.68,-4.009 4.11,-8.722 4.11,-13.544c0,-3.202 -0.631,-6.372 -1.857,-9.33c-1.226,-2.959 -3.023,-5.646 -5.288,-7.91c-2.265,-2.264 -4.955,-4.06 -7.914,-5.285c-2.96,-1.225 -6.132,-1.855 -9.335,-1.854zm0,44.732c-4.027,0 -7.964,-1.193 -11.312,-3.43c-3.349,-2.236 -5.958,-5.415 -7.499,-9.134c-1.542,-3.719 -1.945,-7.811 -1.159,-11.759c0.786,-3.948 2.725,-7.575 5.572,-10.421c2.848,-2.847 6.476,-4.785 10.426,-5.571c3.949,-0.785 8.043,-0.382 11.764,1.159c3.72,1.54 6.9,4.149 9.138,7.496c2.237,3.347 3.431,7.282 3.431,11.307c-0.006,5.396 -2.154,10.569 -5.971,14.385c-3.817,3.815 -8.992,5.962 -14.39,5.968z"/>
   <path id="svg_103" fill="#595959" d="m374.515,332.261l-0.493,0.581c-0.315,0.379 -0.384,0.837 -0.157,1.029c0.226,0.192 0.664,0.039 0.984,-0.335l0.823,-0.984c0.073,-0.087 0.134,-0.183 0.182,-0.286c-0.266,0 -0.537,0 -0.808,0l-0.531,-0.005z"/>
   <path id="svg_104" fill="#595959" d="m371.334,332.517l-0.409,0.645c-0.261,0.413 -0.276,0.876 -0.025,1.033c0.251,0.158 0.665,-0.049 0.926,-0.457l0.689,-1.078c0.062,-0.098 0.111,-0.202 0.148,-0.31l-0.807,0.088l-0.522,0.079z"/>
   <path id="svg_105" fill="#595959" d="m368.217,333.191l-0.325,0.689c-0.202,0.443 -0.153,0.901 0.113,1.029c0.266,0.128 0.655,-0.133 0.862,-0.576l0.536,-1.162c0.049,-0.102 0.085,-0.209 0.109,-0.319c-0.261,0.059 -0.527,0.118 -0.788,0.192c-0.173,0.039 -0.34,0.098 -0.507,0.147z"/>
   <path id="svg_106" fill="#595959" d="m365.213,334.264l-0.227,0.724c-0.148,0.492 -0.039,0.916 0.241,0.984c0.281,0.069 0.631,-0.216 0.778,-0.684l0.384,-1.216c0.032,-0.109 0.054,-0.221 0.064,-0.334c-0.256,0.093 -0.492,0.187 -0.758,0.29c-0.172,0.084 -0.32,0.163 -0.482,0.236z"/>
   <path id="svg_107" fill="#595959" d="m362.371,335.716l-0.128,0.748c-0.088,0.492 0.079,0.916 0.375,0.985c0.295,0.069 0.595,-0.301 0.679,-0.788l0.222,-1.255c0.012,-0.113 0.012,-0.227 0,-0.34c-0.242,0.128 -0.493,0.251 -0.714,0.389l-0.434,0.261z"/>
   <path id="svg_108" fill="#595959" d="m360.16,337.198c-0.137,0.103 -0.27,0.222 -0.408,0.33l-0.035,0.758c0,0.492 0.202,0.896 0.493,0.91c0.29,0.015 0.551,-0.374 0.571,-0.861l0.054,-1.28c0.015,-0.111 0.015,-0.223 0,-0.334c-0.236,0.177 -0.458,0.31 -0.675,0.477z"/>
   <path id="svg_109" fill="#595959" d="m358.408,339.058c-0.011,-0.114 -0.036,-0.226 -0.074,-0.334c-0.192,0.187 -0.394,0.369 -0.586,0.561c-0.192,0.192 -0.241,0.256 -0.364,0.379l0.069,0.758c0.044,0.492 0.315,0.861 0.61,0.837c0.296,-0.025 0.493,-0.443 0.453,-0.931l-0.108,-1.27z"/>
   <path id="svg_110" fill="#595959" d="m356.251,341.357c-0.024,-0.111 -0.062,-0.219 -0.113,-0.32c-0.168,0.207 -0.34,0.414 -0.493,0.63l-0.31,0.428l0.162,0.744c0.109,0.492 0.429,0.812 0.719,0.753c0.291,-0.059 0.434,-0.493 0.33,-0.985l-0.295,-1.25z"/>
   <path id="svg_111" fill="#595959" d="m354.419,343.922c-0.039,-0.108 -0.092,-0.211 -0.158,-0.305c-0.142,0.231 -0.28,0.457 -0.418,0.694c-0.089,0.152 -0.167,0.31 -0.251,0.462l0.256,0.714c0.167,0.463 0.532,0.753 0.807,0.65c0.276,-0.104 0.37,-0.556 0.197,-1.014l-0.433,-1.201z"/>
   <path id="svg_112" fill="#595959" d="m352.932,346.702c-0.052,-0.103 -0.116,-0.199 -0.192,-0.285c-0.109,0.246 -0.222,0.492 -0.33,0.743c-0.064,0.163 -0.123,0.33 -0.187,0.492l0.349,0.675c0.227,0.433 0.621,0.674 0.887,0.541c0.265,-0.133 0.295,-0.6 0.064,-1.033l-0.591,-1.133z"/>
   <path id="svg_113" fill="#595959" d="m351.824,349.651c-0.062,-0.095 -0.139,-0.179 -0.226,-0.251c-0.079,0.256 -0.158,0.492 -0.232,0.773c-0.044,0.172 -0.079,0.344 -0.123,0.492l0.438,0.62c0.281,0.404 0.705,0.591 0.946,0.418c0.241,-0.172 0.212,-0.63 -0.069,-1.028l-0.734,-1.024z"/>
   <path id="svg_114" fill="#595959" d="m351.11,352.718c-0.077,-0.085 -0.165,-0.159 -0.261,-0.222c-0.039,0.266 -0.088,0.532 -0.123,0.802c0,0.173 -0.034,0.35 -0.054,0.527l0.492,0.561c0.33,0.359 0.778,0.492 0.985,0.291c0.207,-0.202 0.128,-0.655 -0.207,-1.014l-0.832,-0.945z"/>
   <path id="svg_115" fill="#595959" d="m351.785,356.68l-0.985,-0.827c-0.088,-0.072 -0.184,-0.133 -0.286,-0.182c0,0.266 0,0.536 0,0.807c0,0.177 0,0.354 0,0.532l0.581,0.492c0.374,0.315 0.832,0.384 1.024,0.157c0.192,-0.226 0.04,-0.669 -0.334,-0.979z"/>
   <path id="svg_116" fill="#595959" d="m351.987,359.692l-1.079,-0.689c-0.096,-0.062 -0.2,-0.11 -0.31,-0.143c0.03,0.266 0.054,0.532 0.089,0.803c0,0.177 0.054,0.349 0.083,0.521l0.641,0.409c0.413,0.266 0.876,0.276 1.039,0.029c0.162,-0.246 -0.05,-0.669 -0.463,-0.93z"/>
   <path id="svg_117" fill="#595959" d="m352.582,362.655l-1.157,-0.541c-0.103,-0.05 -0.212,-0.084 -0.325,-0.104c0.059,0.261 0.118,0.522 0.187,0.788c0.049,0.167 0.104,0.334 0.153,0.492l0.689,0.32c0.443,0.212 0.906,0.157 1.034,-0.108c0.128,-0.266 -0.138,-0.645 -0.581,-0.847z"/>
   <path id="svg_118" fill="#595959" d="m353.557,365.515l-1.216,-0.389c-0.109,-0.033 -0.221,-0.053 -0.335,-0.059c0.094,0.251 0.187,0.492 0.291,0.753c0.069,0.162 0.143,0.32 0.217,0.492l0.723,0.227c0.493,0.147 0.921,0.034 1.01,-0.246c0.088,-0.281 -0.222,-0.635 -0.69,-0.778z"/>
   <path id="svg_119" fill="#595959" d="m354.902,368.217l-1.261,-0.221c-0.113,-0.015 -0.227,-0.015 -0.34,0c0.128,0.231 0.251,0.492 0.389,0.709c0.089,0.152 0.187,0.3 0.276,0.452l0.749,0.128c0.492,0.089 0.915,-0.078 0.984,-0.369c0.069,-0.29 -0.315,-0.615 -0.797,-0.699z"/>
   <path id="svg_120" fill="#595959" d="m356.586,370.728l-1.276,-0.055c-0.112,-0.013 -0.226,-0.013 -0.339,0c0.157,0.222 0.31,0.438 0.492,0.655c0.108,0.143 0.222,0.276 0.33,0.413l0.763,0.03c0.493,0.025 0.896,-0.197 0.911,-0.492c0.015,-0.296 -0.394,-0.532 -0.881,-0.551z"/>
   <path id="svg_121" fill="#595959" d="m358.58,372.997l-1.271,0.108c-0.112,0.013 -0.223,0.037 -0.33,0.074c0.183,0.197 0.365,0.394 0.557,0.586l0.384,0.364l0.758,-0.069c0.493,-0.039 0.862,-0.315 0.837,-0.61c-0.024,-0.296 -0.443,-0.497 -0.935,-0.453z"/>
   <path id="svg_122" fill="#595959" d="m360.86,374.985l-1.246,0.276c-0.113,0.023 -0.222,0.061 -0.325,0.113c0.207,0.167 0.419,0.344 0.635,0.492c0.138,0.108 0.286,0.207 0.424,0.315l0.743,-0.167c0.493,-0.104 0.813,-0.428 0.754,-0.714c-0.059,-0.285 -0.507,-0.423 -0.985,-0.315z"/>
   <path id="svg_123" fill="#595959" d="m363.376,376.659l-1.202,0.433c-0.107,0.04 -0.21,0.093 -0.305,0.157c0.232,0.138 0.458,0.286 0.694,0.419l0.463,0.256l0.719,-0.261c0.458,-0.167 0.749,-0.527 0.65,-0.807c-0.098,-0.281 -0.561,-0.369 -1.019,-0.197z"/>
   <path id="svg_124" fill="#595959" d="m366.089,377.988l-1.133,0.585c-0.101,0.054 -0.195,0.12 -0.28,0.197l0.738,0.33l0.493,0.187l0.679,-0.349c0.434,-0.227 0.675,-0.621 0.537,-0.886c-0.138,-0.266 -0.615,-0.301 -1.034,-0.064z"/>
   <path id="svg_125" fill="#595959" d="m368.97,378.958l-1.044,0.728c-0.093,0.065 -0.177,0.141 -0.251,0.226l0.773,0.232l0.517,0.123l0.625,-0.438c0.399,-0.281 0.586,-0.704 0.419,-0.945c-0.168,-0.242 -0.655,-0.212 -1.039,0.074z"/>
   <path id="svg_126" fill="#595959" d="m371.924,379.538l-0.94,0.861c-0.087,0.075 -0.162,0.163 -0.222,0.261c0.261,0.044 0.527,0.089 0.798,0.123c0.177,0.025 0.35,0.035 0.527,0.054l0.561,-0.492c0.36,-0.33 0.493,-0.778 0.291,-0.984c-0.202,-0.207 -0.66,-0.133 -1.015,0.177z"/>
   <path id="svg_127" fill="#595959" d="m374.938,379.72l-0.822,0.985c-0.073,0.088 -0.135,0.183 -0.187,0.285c0.266,0 0.536,0 0.807,0l0.532,0l0.492,-0.586c0.316,-0.374 0.389,-0.832 0.163,-1.023c-0.227,-0.192 -0.675,-0.03 -0.985,0.339z"/>
   <path id="svg_128" fill="#595959" d="m378.878,379.061c-0.247,-0.153 -0.665,0.049 -0.926,0.462l-0.69,1.078c-0.059,0.098 -0.107,0.202 -0.142,0.31c0.266,-0.029 0.531,-0.049 0.802,-0.088l0.522,-0.079l0.414,-0.645c0.261,-0.408 0.271,-0.871 0.02,-1.038z"/>
   <path id="svg_129" fill="#595959" d="m381.772,378.352c-0.266,-0.128 -0.65,0.133 -0.856,0.576l-0.542,1.157c-0.047,0.105 -0.082,0.216 -0.103,0.329l0.782,-0.192l0.493,-0.152l0.325,-0.689c0.221,-0.443 0.172,-0.901 -0.099,-1.029z"/>
   <path id="svg_130" fill="#595959" d="m384.555,377.259c-0.286,-0.084 -0.636,0.221 -0.778,0.689l-0.389,1.216c-0.033,0.109 -0.053,0.221 -0.059,0.335c0.251,-0.094 0.492,-0.188 0.753,-0.291l0.492,-0.212l0.227,-0.728c0.143,-0.458 0.034,-0.911 -0.246,-1.009z"/>
   <path id="svg_131" fill="#595959" d="m387.189,375.827c-0.29,-0.049 -0.596,0.3 -0.679,0.787l-0.222,1.256c-0.017,0.112 -0.017,0.227 0,0.339c0.236,-0.128 0.492,-0.251 0.709,-0.389l0.453,-0.275l0.133,-0.748c0.039,-0.483 -0.128,-0.916 -0.394,-0.97z"/>
   <path id="svg_132" fill="#595959" d="m389.568,374.065c-0.296,0 -0.552,0.374 -0.571,0.866l-0.059,1.27c-0.014,0.113 -0.014,0.227 0,0.34c0.216,-0.158 0.438,-0.31 0.654,-0.492l0.414,-0.335l0.03,-0.758c0.049,-0.473 -0.173,-0.876 -0.468,-0.891z"/>
   <path id="svg_133" fill="#595959" d="m391.719,371.997c-0.295,0.03 -0.492,0.448 -0.458,0.936l0.113,1.269c0.007,0.115 0.03,0.227 0.069,0.335l0.586,-0.556l0.365,-0.389l-0.064,-0.758c-0.045,-0.497 -0.32,-0.856 -0.611,-0.837z"/>
   <path id="svg_134" fill="#595959" d="m393.59,369.669c-0.285,0.069 -0.438,0.493 -0.329,0.985l0.275,1.245c0.024,0.111 0.062,0.219 0.114,0.32c0.167,-0.207 0.344,-0.418 0.492,-0.63l0.315,-0.428l-0.167,-0.743c-0.099,-0.473 -0.419,-0.808 -0.7,-0.749z"/>
   <path id="svg_135" fill="#595959" d="m395.122,367.12c-0.276,0.108 -0.37,0.561 -0.197,1.018l0.433,1.201c0.042,0.107 0.094,0.21 0.158,0.306c0.142,-0.232 0.285,-0.458 0.423,-0.689l0.251,-0.493l-0.261,-0.713c-0.167,-0.434 -0.527,-0.729 -0.807,-0.63z"/>
   <path id="svg_136" fill="#595959" d="m396.319,364.393c-0.261,0.138 -0.291,0.6 -0.059,1.034l0.586,1.132c0.053,0.1 0.118,0.194 0.192,0.28c0.113,-0.241 0.226,-0.492 0.33,-0.738c0.064,-0.162 0.123,-0.33 0.187,-0.492l-0.35,-0.675c-0.226,-0.433 -0.62,-0.674 -0.886,-0.541z"/>
   <path id="svg_137" fill="#595959" d="m397.151,361.508c-0.241,0.173 -0.212,0.635 0.074,1.039l0.728,1.043c0.067,0.094 0.145,0.18 0.232,0.256c0.074,-0.261 0.153,-0.492 0.226,-0.777c0.045,-0.173 0.084,-0.345 0.124,-0.517l-0.439,-0.62c-0.28,-0.379 -0.699,-0.571 -0.945,-0.424z"/>
   <path id="svg_138" fill="#595959" d="m397.599,358.58c-0.217,0.201 -0.128,0.659 0.206,1.019l0.862,0.94c0.077,0.086 0.165,0.162 0.261,0.226c0.044,-0.266 0.089,-0.531 0.123,-0.802c0.025,-0.177 0.04,-0.35 0.059,-0.527l-0.492,-0.561c-0.355,-0.359 -0.798,-0.487 -1.019,-0.295z"/>
   <path id="svg_139" fill="#595959" d="m398.687,355.765c-0.379,-0.315 -0.832,-0.389 -1.024,-0.163c-0.192,0.227 -0.039,0.67 0.335,0.985l0.985,0.821c0.09,0.072 0.187,0.133 0.29,0.183c0,-0.266 0,-0.537 0,-0.808c0,-0.177 0,-0.354 0,-0.531l-0.586,-0.487z"/>
   <path id="svg_140" fill="#595959" d="m399.007,353.077l-0.645,-0.409c-0.409,-0.261 -0.877,-0.276 -1.034,-0.029c-0.158,0.246 0.044,0.669 0.463,0.93l1.073,0.689c0.097,0.062 0.201,0.11 0.31,0.143c-0.029,-0.266 -0.049,-0.532 -0.083,-0.803c-0.02,-0.177 -0.054,-0.349 -0.084,-0.521z"/>
   <path id="svg_141" fill="#595959" d="m398.342,349.961l-0.694,-0.325c-0.438,-0.206 -0.901,-0.157 -1.029,0.109c-0.128,0.265 0.133,0.659 0.581,0.866l1.152,0.541c0.107,0.044 0.217,0.077 0.33,0.099c-0.064,-0.261 -0.123,-0.522 -0.192,-0.783c-0.049,-0.172 -0.103,-0.34 -0.148,-0.507z"/>
   <path id="svg_142" fill="#595959" d="m397.269,346.954l-0.724,-0.212c-0.463,-0.143 -0.916,-0.039 -0.985,0.241c-0.069,0.281 0.217,0.635 0.684,0.778l1.217,0.389c0.11,0.035 0.224,0.055 0.34,0.059c-0.099,-0.251 -0.188,-0.492 -0.296,-0.753c-0.094,-0.177 -0.167,-0.335 -0.236,-0.502z"/>
   <path id="svg_143" fill="#595959" d="m395.816,344.118l-0.753,-0.133c-0.492,-0.083 -0.916,0.084 -0.985,0.374c-0.069,0.291 0.3,0.596 0.788,0.68l1.256,0.226c0.112,0.014 0.227,0.014 0.339,0c-0.128,-0.236 -0.251,-0.492 -0.389,-0.709l-0.256,-0.438z"/>
   <path id="svg_144" fill="#595959" d="m393.999,341.495l-0.758,-0.03c-0.492,0 -0.896,0.197 -0.911,0.493c-0.015,0.295 0.374,0.556 0.867,0.575l1.27,0.055c0.116,0.005 0.232,-0.005 0.345,-0.03l-0.493,-0.65c-0.093,-0.142 -0.206,-0.27 -0.32,-0.413z"/>
   <path id="svg_145" fill="#595959" d="m391.862,339.132l-0.758,0.064c-0.493,0.045 -0.867,0.315 -0.842,0.616c0.025,0.3 0.443,0.492 0.936,0.452l1.27,-0.108c0.114,-0.01 0.227,-0.035 0.335,-0.074c-0.182,-0.192 -0.365,-0.389 -0.557,-0.585l-0.384,-0.365z"/>
   <path id="svg_146" fill="#595959" d="m389.435,337.065l-0.744,0.168c-0.492,0.103 -0.817,0.428 -0.753,0.713c0.064,0.286 0.492,0.439 0.985,0.33l1.245,-0.27c0.111,-0.027 0.219,-0.067 0.32,-0.119c-0.206,-0.167 -0.413,-0.339 -0.63,-0.492c-0.216,-0.152 -0.285,-0.221 -0.423,-0.33z"/>
   <path id="svg_147" fill="#595959" d="m386.756,335.337l-0.719,0.261c-0.458,0.173 -0.754,0.527 -0.65,0.807c0.103,0.281 0.556,0.37 1.019,0.197l1.197,-0.433c0.108,-0.038 0.211,-0.091 0.305,-0.157c-0.231,-0.143 -0.453,-0.286 -0.694,-0.419c-0.153,-0.088 -0.311,-0.172 -0.458,-0.256z"/>
   <path id="svg_148" fill="#595959" d="m383.87,333.969l-0.674,0.36c-0.433,0.221 -0.675,0.615 -0.542,0.881c0.133,0.265 0.601,0.29 1.034,0.059l1.133,-0.581c0.101,-0.054 0.196,-0.12 0.281,-0.197l-0.739,-0.33c-0.163,-0.064 -0.33,-0.123 -0.493,-0.192z"/>
   <path id="svg_149" fill="#595959" d="m380.837,332.995l-0.625,0.438c-0.399,0.28 -0.591,0.704 -0.419,0.945c0.173,0.241 0.631,0.211 1.034,-0.069l1.044,-0.734c0.095,-0.063 0.182,-0.139 0.256,-0.226c-0.256,-0.079 -0.492,-0.157 -0.778,-0.231l-0.512,-0.123z"/>
   <path id="svg_150" fill="#595959" d="m377.695,332.419l-0.556,0.517c-0.364,0.33 -0.492,0.773 -0.295,0.984c0.197,0.212 0.655,0.128 1.014,-0.207l0.945,-0.861c0.085,-0.077 0.159,-0.165 0.222,-0.261c-0.266,-0.044 -0.532,-0.088 -0.803,-0.123l-0.527,-0.049z"/>
   <path id="svg_151" fill="#E66337" d="m179.144,291.786c-5.524,0 -10,6.399 -10,8.565c0,4.725 4.476,8.559 10,8.559c4.053,0 3.969,-7.717 2.566,-16.444c-0.143,-0.906 -1.536,-0.68 -2.566,-0.68z"/>
   <path id="svg_152" fill="#F2706D" d="m179.391,292.736c-5.525,0 -10.006,6.399 -10.006,8.56c0,4.73 4.481,8.559 10.006,8.559c4.047,0 3.969,-7.718 2.565,-16.44c-0.143,-0.905 -1.531,-0.679 -2.565,-0.679z"/>
   <g id="svg_153" opacity="0.4">
    <path id="svg_154" fill="#BDD8DE" d="m194.976,301.774l14.319,-0.055l29.141,-46.844l-13.167,0.763l-30.293,46.136z" opacity="0.4"/>
   </g>
   <g id="svg_155" opacity="0.4">
    <path id="svg_156" fill="#BDD8DE" d="m232.714,301.975l3.944,0l5.471,-11.065l-0.128,-5.601l-9.287,16.666z" opacity="0.4"/>
   </g>
   <path id="svg_157" fill="#B2C4CF" d="m137.201,328.304c-2.989,-1.585 -5.855,-3.259 -8.667,-3.505c-1.048,4.477 -1.216,9.114 -0.492,13.654c3.176,-0.044 6.362,-0.098 9.553,-0.137c0.224,-0.012 0.435,-0.108 0.589,-0.27c0.155,-0.163 0.242,-0.378 0.243,-0.602c0.054,-2.367 0.128,-4.336 0.197,-6.595c-0.002,-0.51 -0.134,-1.011 -0.383,-1.457c-0.249,-0.445 -0.607,-0.819 -1.04,-1.088z"/>
   <path id="svg_158" fill="#F2706D" d="m423.17,336.637c-0.015,0.078 -0.012,0.158 0.008,0.234c0.02,0.077 0.057,0.148 0.108,0.209c0.051,0.061 0.114,0.109 0.186,0.143c0.072,0.033 0.15,0.05 0.23,0.049l4.973,0c0.49,-6.882 0.49,-13.791 0,-20.673c-2.142,6.128 -4.555,13.319 -5.505,20.038z"/>
   <path id="svg_159" fill="#F2706D" d="m136.644,328.766c-0.812,-0.408 -1.625,-0.817 -2.432,-1.201l0,10.13l2.797,-0.034c0.205,-0.004 0.4,-0.086 0.546,-0.23c0.146,-0.144 0.23,-0.338 0.237,-0.543c0.054,-2.107 0.123,-3.854 0.187,-5.857c-0.004,-0.462 -0.13,-0.914 -0.364,-1.311c-0.234,-0.398 -0.569,-0.726 -0.971,-0.954z"/>
   <path id="svg_160" fill="#C2C2C2" d="m240.588,308.748l-8.371,0c-0.424,-0.017 -0.837,0.133 -1.15,0.419c-0.312,0.286 -0.499,0.684 -0.52,1.107l0,1.275c0.021,0.423 0.208,0.821 0.52,1.106c0.313,0.286 0.726,0.437 1.15,0.419l8.371,0c0.423,0.018 0.836,-0.133 1.149,-0.419c0.313,-0.285 0.5,-0.683 0.52,-1.106l0,-1.275c-0.02,-0.423 -0.207,-0.821 -0.52,-1.107c-0.313,-0.286 -0.726,-0.436 -1.149,-0.419z"/>
   <path id="svg_161" fill="white" d="m-51,357.024l0.3348,0.217l-0.256,-0.34l-0.0788,0.123z"/>
   <path id="svg_162" fill="#485E88" d="m520,68c0,-11.0457 8.954,-20 20,-20l118,0c11.046,0 20,8.9543 20,20l0,264c0,11.046 -8.954,20 -20,20l-118,0c-11.046,0 -20,-8.954 -20,-20l0,-264z"/>
   <path id="svg_163" fill="#C4C4C4" d="m666,71l-133,0l0,245l133,0l0,-245z"/>
   <path id="svg_164" fill="#D8D7D2" d="m657.223,251.379l2.164,-37.039l-9.297,-1.357l-4.727,29.786c1.638,0.46 3.175,1.285 4.519,2.424l7.341,6.186z"/>
   <path id="svg_165" fill="#D8D7D2" d="m585.433,113.6866c-1.961,2.7876 -3.989,5.6644 -5.747,8.6994c-4.427,7.834 -7.122,16.724 -7.866,25.941c-0.534,7.274 0.624,13.985 1.83,21.08c0.302,1.783 0.657,3.571 1.002,5.297c0.293,1.457 0.581,2.924 0.846,4.412l67.237,-28.833l-21.667,-47.0789l-28.89,0c-2.046,3.6501 -4.298,7.1514 -6.745,10.4825zm5.464,50.6134l-10.63,0l0,-9.993l10.626,0l0.004,9.993zm4.358,-24.931l-6.007,0l0,6.664l-7.615,0l0,-15.158l13.622,0l0,8.494zm16.804,14.017c-0.002,1.041 -0.373,2.038 -1.034,2.773c-0.661,0.736 -1.558,1.15 -2.492,1.151l-7.662,0c-0.935,-0.001 -1.831,-0.415 -2.492,-1.151c-0.661,-0.735 -1.033,-1.732 -1.034,-2.773l0,-5.054c0.001,-1.04 0.373,-2.038 1.034,-2.773c0.661,-0.736 1.557,-1.149 2.492,-1.151l7.662,0c0.934,0.002 1.831,0.415 2.492,1.151c0.661,0.735 1.032,1.733 1.034,2.773l0,5.054zm13.168,-14.627l0,6.669l-7.619,0l0,-6.669l-6.003,0l0,-8.494l13.622,0l0,8.494zm-5.993,-24.4886l0,7.8896l-25.614,0l0,-7.8896l25.614,0z"/>
   <path id="svg_166" fill="#D8D7D2" d="m562.362,226.8l59.198,40.437l7.931,-11.635l7.057,-44.575l-61.773,-9.057c-2.298,9.441 -6.712,18.34 -12.413,24.83zm60.152,-12.328l6.916,1.578l-3.867,20.718l-6.915,-1.578l3.866,-20.718zm-17.058,11.471l1.583,-8.347c0.402,-2.104 1.853,-3.571 3.238,-3.245l3.238,0.757c1.385,0.326 2.183,2.315 1.782,4.429l-1.589,8.347c-0.397,2.104 -1.852,3.571 -3.237,3.245l-3.233,-0.757c-1.385,-0.326 -2.184,-2.314 -1.782,-4.429zm16.657,26.004l-3.527,6.837l-20.627,-13.149l3.526,-6.837l20.628,13.149zm-28.361,-38.027l5.786,2.882l-7.842,19.461l-5.781,-2.883l7.837,-19.46zm-16.255,15l-5.781,-2.882l7.837,-19.461l5.786,2.882l-7.842,19.461z"/>
   <path id="svg_167" fill="#D8D7D2" d="m570.204,234.627l-9.25,-6.312c-0.473,0.526 -0.997,1.01 -1.513,1.484c-3.976,3.646 -8.3,6.796 -12.894,9.393l13.362,19.724c4.117,-7.715 7.564,-15.848 10.295,-24.289z"/>
   <path id="svg_168" fill="#D8D7D2" d="m660.848,189.394c-0.233,-0.353 -0.44,-0.725 -0.619,-1.115l-4.637,-10.072l-5.171,32.672l9.089,1.331l1.338,-22.816z"/>
   <path id="svg_169" fill="#D8D7D2" d="m558.775,101.0845l19.824,0c2.141,-3.2505 4.031,-6.6692 5.062,-10.4562c1.72,-6.2853 -0.719,-12.4706 -3.035,-17.1517c-0.581,-1.1729 -1.2,-2.33 -1.838,-3.4766l-44.904,0c-0.234,0.0014 -0.458,0.1054 -0.624,0.2896c-0.165,0.1842 -0.259,0.4335 -0.26,0.694l0,14.1694l25.775,15.9315zm-9.529,-21.0386l4.49,2.288l2.056,-4.9967l5.719,2.9191l-2.041,4.9967l-2.624,6.3641l-5.719,-2.9191l-4.49,-2.2879l2.609,-6.3642z"/>
   <path id="svg_170" fill="#D8D7D2" d="m608.537,145.623l-7.666,0c-1.345,0 -2.434,1.213 -2.434,2.709l0,5.054c0,1.496 1.089,2.709 2.434,2.709l7.666,0c1.345,0 2.435,-1.213 2.435,-2.709l0,-5.054c0,-1.496 -1.09,-2.709 -2.435,-2.709z"/>
   <path id="svg_171" fill="#D8D7D2" d="m576.429,191.209c-0.187,2.932 -0.584,5.843 -1.186,8.704l61.636,9.01l8.399,-53.122l-1.673,-3.613l-67.748,29.059c0.547,3.283 0.739,6.628 0.572,9.962zm58.271,4.839l-1.262,6.837l-6.145,-1.409l-4.84,-1.1l1.267,-6.837l4.835,1.104l0.993,-5.38l6.144,1.404l-0.992,5.381zm1.891,-30.638l2.604,7.332l-23.818,10.483l-2.604,-7.332l23.818,-10.483zm-32.459,8.416l2.605,7.332l-23.813,10.482l-2.61,-7.332l23.818,-10.482z"/>
   <path id="svg_172" fill="#D8D7D2" d="m593.838,99.8274c-0.189,0.4261 -0.388,0.8416 -0.587,1.2571l26.839,0l-14.299,-31.0845l-12.88,0c3.9,9.299 5.535,19.3765 0.927,29.8274zm5.672,-14.9584l10.63,0l0,9.9933l-10.649,0l0.019,-9.9933z"/>
   <path id="svg_173" fill="#D8D7D2" d="m607.46,229.183l3.238,0.763c0.945,0.221 1.961,-0.784 2.235,-2.246l1.589,-8.326c0.274,-1.462 -0.279,-2.835 -1.234,-3.061l-3.243,-0.779c-0.945,-0.221 -1.961,0.784 -2.24,2.246l-1.584,8.342c-0.269,1.462 0.284,2.835 1.239,3.061z"/>
   <path id="svg_174" fill="#D8D7D2" d="m561.016,262.745c-5.276,9.404 -11.345,17.541 -17.962,23.926c-1.765,1.704 -3.536,3.254 -5.313,4.649l33.215,22.68l18.699,0l14.066,-20.628l-42.705,-30.627zm1.394,38.574l-13.774,-9.268l2.539,-4.665l13.768,9.273l-2.533,4.66zm10.238,-11.398l-13.769,-9.267l2.534,-4.66l13.773,9.267l-2.538,4.66zm5.431,11.529l4.675,-8.541l9.075,6.153l-4.675,8.542l-9.075,-6.154z"/>
   <path id="svg_175" fill="#D8D7D2" d="m559.115,260.399l-13.859,-20.471c-3.972,2.157 -8.066,4.025 -12.256,5.591l0,45.638c9.354,-6.327 18.505,-17.02 26.115,-30.758zm-20.916,-10.772l7.09,-0.042c4.727,7.132 4.727,16.073 0.109,23.242l-7.09,0.042c4.646,-7.211 4.618,-16.099 -0.109,-23.242z"/>
   <path id="svg_176" fill="#D8D7D2" d="m661.406,212.494l4.594,0.673l0,-20.46c-1.204,-0.129 -2.358,-0.596 -3.356,-1.357l-1.238,21.144z"/>
   <path id="svg_177" fill="#D8D7D2" d="m659.042,252.915l6.958,5.875l0,-43.482l-4.718,-0.689l-2.24,38.296z"/>
   <path id="svg_178" fill="#D8D7D2" d="m561.729,261.451l42.819,30.706l15.854,-23.253l-47.825,-32.641c-2.872,8.768 -6.505,17.204 -10.848,25.188zm38.584,1.441l4.906,3.819l6.244,4.865l-4.372,6.969l-3.427,5.459l-6.258,-4.865l3.427,-5.464l-4.892,-3.808l4.372,-6.975zm-17.016,-13.191l5.256,3.203l-3.663,7.448l-5.256,-3.198l-2.874,5.875l-6.698,-4.076l2.874,-5.849l3.663,-7.453l6.698,4.05z"/>
   <path id="svg_179" fill="#D8D7D2" d="m539.707,314l27.599,0l-22.225,-15.169l-5.374,15.169z"/>
   <path id="svg_180" fill="#D8D7D2" d="m535.992,292.625c-0.997,0.731 -1.995,1.399 -2.992,2.03l0,18.341c0,0.129 0.023,0.258 0.068,0.377c0.044,0.12 0.11,0.229 0.193,0.32c0.082,0.091 0.18,0.164 0.288,0.213c0.108,0.049 0.223,0.074 0.34,0.073l3.781,0l5.771,-16.305l-7.449,-5.049z"/>
   <path id="svg_181" fill="#D8D7D2" d="m537.514,167.403c1.385,0.395 2.836,0.652 4.254,0.9c1.281,0.226 2.609,0.462 3.918,0.804c4.472,1.163 11.345,2.951 16.383,6.622c-0.056,-0.3 -0.118,-0.594 -0.175,-0.899c-3.308,-17.189 -2.793,-33.394 1.522,-46.864c2.198,-6.9 5.72,-13.6326 10.735,-20.5858l0.813,-1.1203c0.728,-1.0099 1.465,-2.025 2.188,-3.0559l-18.954,0l0,-0.0683l-25.198,-15.5581l0,78.7634c1.502,0.256 2.991,0.607 4.457,1.052l0.057,0.01zm11.949,-6.069l-7.09,0l0,-28.502l7.09,0l0,28.502zm-3.942,-58.961l6.112,7.3635l-7.795,8.0155l-6.111,-7.3423l7.794,-8.0367z"/>
   <path id="svg_182" fill="#A5D9AD" d="m562.778,179.348c-4.622,-4.507 -12.658,-6.601 -17.583,-7.889c-1.234,-0.321 -2.519,-0.526 -3.781,-0.768c-1.456,-0.258 -2.959,-0.526 -4.444,-0.947l-0.056,0c-1.121,-0.337 -2.496,-0.715 -3.914,-0.952l0,28.56l30.563,-13.107c-0.203,-1.615 -0.482,-3.23 -0.785,-4.897z"/>
   <path id="svg_183" fill="#A5D9AD" d="m556.983,209.681c3.522,-5.181 5.72,-10.467 6.533,-15.721c0.377,-2.488 0.466,-5.019 0.264,-7.532l-30.78,13.196l0,26.908c3.918,-1.193 7.804,-2.603 11.344,-4.733c4.939,-2.995 9.248,-7.126 12.639,-12.118z"/>
   <path id="svg_184" fill="white" d="m536.975,169.754c1.485,0.421 2.988,0.689 4.444,0.947c1.247,0.221 2.533,0.447 3.781,0.768c4.925,1.278 12.961,3.371 17.583,7.889c-0.164,-0.873 -0.337,-1.763 -0.52,-2.672l-0.184,-0.946c-5.043,-3.682 -11.911,-5.46 -16.383,-6.622c-1.309,-0.342 -2.637,-0.579 -3.918,-0.805c-1.418,-0.247 -2.865,-0.526 -4.254,-0.899l-0.057,0c-1.467,-0.445 -2.955,-0.796 -4.457,-1.052l0,2.451c1.418,0.236 2.793,0.626 3.918,0.947l0.047,-0.006z"/>
   <path id="svg_185" fill="#A5D9AD" d="m627.057,270.96l1.72,-10.851l-5.596,8.205l3.876,2.646z"/>
   <path id="svg_186" fill="#A5D9AD" d="m655.469,314l9.647,0c0.234,0 0.459,-0.104 0.625,-0.288c0.166,-0.184 0.259,-0.435 0.259,-0.696l0,-12.986l-9.34,-6.374l-1.191,20.344z"/>
   <path id="svg_187" fill="#A5D9AD" d="m622.023,270.014l-29.996,43.986l28.223,0l6.452,-40.794l-4.679,-3.192z"/>
   <path id="svg_188" fill="#A5D9AD" d="m657.076,253.898l-8.319,-7.027c-1.105,-0.939 -2.363,-1.628 -3.706,-2.03l-5.483,34.656l15.395,10.519l2.113,-36.118z"/>
   <path id="svg_189" fill="#A5D9AD" d="m656.802,291.263l9.198,6.28l0,-36.113l-7.104,-5.996l-2.094,35.829z"/>
   <path id="svg_190" fill="#A5D9AD" d="m639.209,281.743l-5.1,32.257l19.45,0l1.262,-21.601l-15.612,-10.656z"/>
   <path id="svg_191" fill="#A5D9AD" d="m618.497,92.2905l27.41,59.5545l9.42,-59.5545l-36.83,0z"/>
   <path id="svg_192" fill="#A5D9AD" d="m662.167,187.185c0.369,0.819 0.91,1.528 1.577,2.065c0.667,0.538 1.441,0.888 2.256,1.022l0,-17.546l-4.561,12.876l0.728,1.583z"/>
   <path id="svg_193" fill="#A5D9AD" d="m655.663,90.1655l3.19,-20.1655l-50.618,0l9.283,20.1655l38.145,0z"/>
   <path id="svg_194" fill="#A5D9AD" d="m660.281,183.082l5.719,-16.152l0,-54.4954l-9.779,61.8214l4.06,8.826z"/>
   <path id="svg_195" fill="white" d="m543.427,297.7l-5.771,16.3l2.051,0l5.374,-15.169l-1.654,-1.131z"/>
   <path id="svg_196" fill="white" d="m560.112,262.098l0.322,0.231l-0.246,-0.363l-0.076,0.132z"/>
   <path id="svg_197" fill="#B8B8B8" d="m619.234,114.2705l-25.614,0l0,7.8845l25.614,0l0,-7.8845z"/>
   <path id="svg_198" fill="#B8B8B8" d="m602.059,239.027l-3.542,6.859l20.684,13.228l3.543,-6.859l-20.685,-13.228z"/>
   <path id="svg_199" fill="#B8B8B8" d="m636.569,165.413l-23.819,10.483l2.606,7.332l23.819,-10.483l-2.606,-7.332z"/>
   <path id="svg_200" fill="#B8B8B8" d="m604.11,173.831l-23.818,10.483l2.605,7.332l23.819,-10.483l-2.606,-7.332z"/>
   <path id="svg_201" fill="#B8B8B8" d="m545.398,272.828c4.618,-7.169 4.618,-16.11 -0.109,-23.243l-7.09,0.043c4.727,7.142 4.727,16.047 0.104,23.242l7.095,-0.042z"/>
   <path id="svg_202" fill="#B8B8B8" d="m549.463,132.832l-7.085,0l0,28.502l7.085,0l0,-28.502z"/>
   <path id="svg_203" fill="#B8B8B8" d="m590.898,154.296l-10.626,0l0,10.004l10.626,0l0,-10.004z"/>
   <path id="svg_204" fill="#B8B8B8" d="m582.752,292.908l-4.677,8.543l9.074,6.152l4.677,-8.544l-9.074,-6.151z"/>
   <path id="svg_205" fill="#B8B8B8" d="m579.555,206.56l-7.838,19.481l5.781,2.88l7.838,-19.481l-5.781,-2.88z"/>
   <path id="svg_206" fill="#B8B8B8" d="m593.734,213.924l-7.838,19.48l5.78,2.88l7.839,-19.48l-5.781,-2.88z"/>
   <path id="svg_207" fill="#B8B8B8" d="m610.116,84.8691l-10.625,0l0,10.0039l10.625,0l0,-10.0039z"/>
   <path id="svg_208" fill="#B8B8B8" d="m561.423,275.975l-2.535,4.663l13.771,9.269l2.535,-4.662l-13.771,-9.27z"/>
   <path id="svg_209" fill="#B8B8B8" d="m552.087,287.764l-2.546,4.686l13.841,9.312l2.546,-4.686l-13.841,-9.312z"/>
   <path id="svg_210" fill="#B8B8B8" d="m622.516,214.476l-3.866,20.718l6.914,1.597l3.866,-20.717l-6.914,-1.598z"/>
   <path id="svg_211" fill="#B8B8B8" d="m545.516,102.3765l-7.793,8.0365l6.11,7.338l7.794,-8.0368l-6.111,-7.3377z"/>
   <path id="svg_212" fill="#B8B8B8" d="m581.633,130.87l0,8.499l0,6.664l7.633,0l0,-6.664l5.989,0l0,-8.499l-5.989,0l-7.633,0z"/>
   <path id="svg_213" fill="#B8B8B8" d="m570.062,258.931l6.698,4.077l2.874,-5.849l5.256,3.203l3.663,-7.453l-5.256,-3.203l-6.698,-4.076l-3.663,7.453l-2.874,5.848z"/>
   <path id="svg_214" fill="#B8B8B8" d="m597.42,279.139l6.259,4.865l3.426,-5.459l4.373,-6.969l-6.259,-4.865l-4.906,-3.814l-4.372,6.964l4.906,3.813l-3.427,5.465z"/>
   <path id="svg_215" fill="#B8B8B8" d="m556.832,91.6066l2.624,-6.3642l2.056,-4.9966l-5.72,-2.9191l-2.056,4.9966l-4.49,-2.2879l-2.623,6.3641l4.49,2.288l5.719,2.9191z"/>
   <path id="svg_216" fill="#B8B8B8" d="m628.536,194.637l-4.835,-1.104l-1.263,6.864l4.836,1.099l6.164,1.41l1.262,-6.859l0.992,-5.386l-6.163,-1.404l-0.993,5.38z"/>
   <path id="svg_217" fill="#B8B8B8" d="m611.605,130.265l0,8.494l5.989,0l0,6.67l7.633,0l0,-6.67l0,-8.494l-7.633,0l-5.989,0z"/>
   <path id="svg_218" fill="#B8B8B8" d="m608.533,144.408l-7.662,0c-0.935,0.002 -1.831,0.415 -2.492,1.151c-0.661,0.736 -1.033,1.733 -1.034,2.773l0,5.054c0.001,1.041 0.373,2.038 1.034,2.773c0.661,0.736 1.557,1.15 2.492,1.151l7.662,0c0.935,-0.001 1.831,-0.415 2.492,-1.151c0.661,-0.735 1.033,-1.732 1.034,-2.773l0,-5.054c-0.001,-1.04 -0.373,-2.037 -1.034,-2.773c-0.661,-0.736 -1.557,-1.149 -2.492,-1.151zm2.458,8.978c-0.002,0.719 -0.259,1.408 -0.716,1.916c-0.458,0.508 -1.077,0.793 -1.723,0.793l-7.681,0c-0.645,-0.001 -1.264,-0.287 -1.72,-0.795c-0.456,-0.507 -0.713,-1.196 -0.714,-1.914l0,-5.054c0.001,-0.718 0.258,-1.406 0.714,-1.914c0.456,-0.508 1.075,-0.793 1.72,-0.795l7.662,0c0.646,0 1.266,0.285 1.723,0.793c0.457,0.508 0.715,1.197 0.716,1.916l0.019,5.054z"/>
   <path id="svg_219" fill="#B8B8B8" d="m607.237,230.372l3.234,0.757c1.384,0.326 2.836,-1.131 3.237,-3.245l1.588,-8.347c0.402,-2.104 -0.397,-4.103 -1.781,-4.429l-3.238,-0.757c-1.385,-0.326 -2.836,1.131 -3.238,3.245l-1.584,8.347c-0.401,2.114 0.398,4.103 1.782,4.429zm-1.006,-4.25l1.583,-8.326c0.279,-1.462 1.281,-2.467 2.241,-2.246l3.233,0.763c0.945,0.226 1.507,1.578 1.233,3.061l-1.588,8.342c-0.274,1.462 -1.281,2.466 -2.236,2.245l-3.237,-0.762c-0.955,-0.242 -1.508,-1.615 -1.229,-3.077z"/>
   <path id="svg_220" fill="#9DCBD4" d="m571.513,169.865c-1.238,-7.269 -2.401,-14.133 -1.891,-21.728c0.755,-9.625 3.577,-18.908 8.229,-27.066c1.811,-3.124 3.872,-6.0537 5.866,-8.8782c1.995,-2.8244 4.113,-5.8277 5.899,-8.9887l-9.718,0c-1.054,1.5779 -2.151,3.0769 -3.238,4.5811l-0.808,1.1361c-4.93,6.8376 -8.229,13.1487 -10.399,19.8767c-4.183,13.049 -4.684,28.796 -1.446,45.543c0.118,0.62 0.241,1.231 0.359,1.835c0.473,2.425 0.946,4.802 1.262,7.196l7.799,-3.346c-0.274,-1.577 -0.591,-3.155 -0.912,-4.77c-0.336,-1.767 -0.695,-3.571 -1.002,-5.391z"/>
   <path id="svg_221" fill="#9DCBD4" d="m574.255,191.04c0.153,-2.979 -0.006,-5.967 -0.473,-8.905l-7.903,3.387c0.294,2.947 0.219,5.924 -0.222,8.847c-0.87,5.639 -3.205,11.282 -6.939,16.773c-3.584,5.279 -8.14,9.646 -13.362,12.807c-3.886,2.336 -8.102,3.84 -12.356,5.097l0,13.912c10.285,-3.982 18.434,-8.868 25.052,-15.006c8.98,-8.294 15.323,-22.78 16.203,-36.912z"/>
   <path id="svg_222" fill="#9DCBD4" d="m585.745,91.3331c-1.021,3.4906 -2.528,6.7811 -4.467,9.7514l9.487,0c0.387,-0.7627 0.766,-1.5306 1.115,-2.3248c4.429,-10.0459 2.69,-19.6763 -1.352,-28.7597l-9.188,0c0.406,0.7626 0.813,1.5306 1.196,2.3037c2.524,5.1071 5.171,11.8973 3.209,19.0294z"/>
   <path id="svg_223" fill="#F2F2F2" d="m583.661,90.6283c-1.03,3.787 -2.921,7.2057 -5.062,10.4562l2.68,0c1.938,-2.9703 3.445,-6.2608 4.466,-9.7514c1.962,-7.1478 -0.685,-13.9223 -3.209,-19.0294c-0.378,-0.7731 -0.789,-1.5411 -1.196,-2.3037l-2.552,0c0.638,1.1466 1.257,2.3037 1.838,3.4766c2.316,4.6811 4.755,10.8664 3.035,17.1517z"/>
   <path id="svg_224" fill="#F2F2F2" d="m573.649,169.407c-1.21,-7.1 -2.363,-13.812 -1.834,-21.086c0.746,-9.215 3.443,-18.103 7.87,-25.935c1.759,-3.035 3.782,-5.9118 5.748,-8.6994c2.446,-3.3311 4.699,-6.8324 6.745,-10.4825l-2.562,0c-1.805,3.1558 -3.871,6.1117 -5.899,8.9887c-2.028,2.877 -4.055,5.7542 -5.866,8.8782c-4.644,8.161 -7.458,17.443 -8.205,27.066c-0.534,7.595 0.628,14.459 1.891,21.728c0.307,1.82 0.666,3.624 1.016,5.37c0.321,1.609 0.638,3.198 0.912,4.77l2.061,-0.883c-0.265,-1.489 -0.553,-2.956 -0.846,-4.413c-0.369,-1.725 -0.723,-3.514 -1.031,-5.302z"/>
   <path id="svg_225" fill="#F2F2F2" d="m591.881,98.7597c-0.35,0.7942 -0.728,1.5779 -1.116,2.3248l2.486,0c0.199,-0.4155 0.397,-0.831 0.587,-1.2571c4.608,-10.4509 2.987,-20.5126 -0.946,-29.8274l-2.363,0c4.041,9.0834 5.781,18.7138 1.352,28.7597z"/>
   <path id="svg_226" fill="#F2F2F2" d="m564.381,176.155c-0.118,-0.605 -0.241,-1.215 -0.359,-1.835c-3.238,-16.747 -2.737,-32.494 1.446,-45.544c2.155,-6.706 5.455,-13.0171 10.385,-19.8547l0.808,-1.115c1.087,-1.5148 2.188,-3.0401 3.238,-4.6022l-2.747,0c-0.723,1.0519 -1.46,2.046 -2.188,3.0559l-0.813,1.1203c-5.015,6.9532 -8.508,13.6747 -10.739,20.5857c-4.316,13.47 -4.845,29.675 -1.522,46.864c0.057,0.305 0.118,0.599 0.175,0.899l0.184,0.947c0.18,0.912 0.353,1.802 0.52,2.672c0.312,1.667 0.591,3.282 0.794,4.897l2.08,-0.894c-0.322,-2.373 -0.785,-4.771 -1.262,-7.196z"/>
   <path id="svg_227" fill="#F2F2F2" d="m558.723,211.142c3.734,-5.491 6.069,-11.134 6.939,-16.773c0.441,-2.923 0.516,-5.9 0.222,-8.847l-2.103,0.905c0.201,2.513 0.112,5.044 -0.265,7.532c-0.813,5.26 -3.011,10.519 -6.532,15.721c-3.39,4.998 -7.699,9.135 -12.64,12.134c-3.516,2.104 -7.402,3.524 -11.32,4.734l0,2.514c4.254,-1.268 8.47,-2.762 12.356,-5.097c5.217,-3.169 9.766,-7.541 13.343,-12.823z"/>
   <path id="svg_228" fill="white" d="m655.663,90.1655l-38.145,0l-9.283,-20.1655l-2.448,0l14.303,31.0845l-61.315,0l-25.775,-15.9315l0,2.4247l25.198,15.5791l0,0.0473l62.87,0l21.672,47.0839l-109.74,47.064l0,2.272l110.614,-47.437l1.664,3.624l0.629,-3.966l-27.41,-59.5546l36.83,0l0.336,-2.1249z"/>
   <path id="svg_229" fill="white" d="m666,166.93l-5.719,16.152l-4.061,-8.826l-0.628,3.961c0,0 5.029,10.835 5.256,11.177l-1.338,22.816l-9.089,-1.331l-0.331,2.104l9.297,1.357l-2.165,37.038l-7.326,-6.185c-1.343,-1.14 -2.881,-1.964 -4.519,-2.425l-0.326,2.073c1.342,0.402 2.601,1.091 3.706,2.03l8.319,7.027l-2.127,36.107l-15.395,-10.519l-0.359,2.251l15.598,10.651l-1.262,21.601l1.891,0l1.191,-20.344l9.34,6.375l0,-2.488l-9.198,-6.28l2.093,-35.829l7.091,5.996l0,-2.63l-6.958,-5.869l2.302,-38.28l4.726,0.689l0,-2.162l-4.594,-0.673l1.238,-21.144c0.998,0.761 2.153,1.228 3.356,1.357l0,-2.435c-0.815,-0.134 -1.588,-0.484 -2.256,-1.022c-0.667,-0.537 -1.208,-1.246 -1.577,-2.065l-0.728,-1.578l4.561,-12.876l-0.009,-5.801z"/>
   <path id="svg_230" fill="white" d="m574.453,199.782l-0.245,2.104l0.567,0.084l61.768,9.031l0.336,-2.094l-61.636,-9.01l-0.79,-0.115z"/>
   <path id="svg_231" fill="white" d="m629.491,255.576l-7.931,11.66l-59.198,-40.436c5.701,-6.49 10.115,-15.389 12.413,-24.83l-0.568,-0.085l0.251,-2.103l0.785,0.115c0.601,-2.856 0.998,-5.762 1.186,-8.689c0.167,-3.334 -0.025,-6.678 -0.572,-9.961l-2.07,0.888c0.467,2.938 0.625,5.926 0.472,8.905c-0.883,14.133 -7.227,28.618 -16.207,36.912c-6.618,6.138 -14.762,11.045 -25.052,15.006l0,2.561c4.19,-1.566 8.284,-3.433 12.256,-5.591l13.859,20.471c-7.61,13.738 -16.761,24.431 -26.115,30.758l0,3.498c0.997,-0.631 1.995,-1.299 2.992,-2.03l7.435,5.075l1.654,1.131l22.216,15.169l3.658,0l-33.228,-22.68c1.777,-1.402 3.548,-2.952 5.313,-4.649c6.617,-6.385 12.705,-14.522 17.961,-23.926l42.706,30.627l-14.067,20.628l2.363,0l29.996,-43.986l4.68,3.192l0.354,-2.246l-3.876,-2.63l5.597,-8.205l0.737,-4.549zm-69.582,3.355l-13.362,-19.723c4.594,-2.597 8.918,-5.747 12.894,-9.394c0.501,-0.447 1.016,-0.973 1.513,-1.499l9.25,6.312c-2.731,8.447 -6.178,16.585 -10.295,24.304zm44.639,33.231l-42.819,-30.711c4.351,-7.985 7.992,-16.423 10.871,-25.194l47.825,32.647l-15.877,23.258z"/>
   <path id="svg_232" fill="#FFD8B1" d="m655.327,92.2904l-9.42,59.5546l-0.629,3.961l-8.399,53.122l-0.331,2.104l-7.057,44.575l-0.714,4.534l-1.716,10.819l-0.354,2.246l-6.452,40.794l13.859,0l5.1,-32.252l0.359,-2.251l5.483,-34.656l0.326,-2.072l4.727,-29.786l0.331,-2.104l5.171,-32.672l0.628,-3.961l9.761,-61.8112l0,-41.4512c0,-0.2609 -0.093,-0.5111 -0.259,-0.6955c-0.166,-0.1845 -0.391,-0.2881 -0.625,-0.2881l-6.263,0l-3.19,20.1655l-0.336,2.1249z"/>
   <path id="svg_233" fill="#F2706D" d="m593.563,159.661c0.222,3.482 -2.179,7.958 -4.136,11.014c-1.956,3.056 -3.573,5.223 -3.535,5.223c0.038,0 -1.522,-2.167 -3.531,-5.223c-2.009,-3.056 -4.358,-7.532 -4.136,-11.014c0.511,-6.964 4.178,-8.873 7.667,-8.878c3.488,-0.006 7.161,1.914 7.671,8.878z"/>
   <path id="svg_234" fill="#F2706D" d="m633.353,203.878c0.222,3.482 -2.179,7.958 -4.136,11.014c-1.957,3.056 -3.573,5.223 -3.536,5.223c0.038,0 -1.522,-2.167 -3.53,-5.223c-2.009,-3.056 -4.359,-7.532 -4.136,-11.014c0.51,-6.963 4.178,-8.873 7.666,-8.878c3.489,-0.005 7.161,1.915 7.672,8.878z"/>
   <path id="svg_235" fill="#F2706D" d="m586.353,235.878c0.222,3.482 -2.179,7.958 -4.136,11.014c-1.957,3.056 -3.573,5.223 -3.536,5.223c0.038,0 -1.522,-2.167 -3.53,-5.223c-2.009,-3.056 -4.359,-7.532 -4.136,-11.014c0.51,-6.963 4.178,-8.873 7.666,-8.878c3.489,-0.005 7.161,1.915 7.672,8.878z"/>
   <path id="svg_236" fill="#F2706D" d="m631.353,117.878c0.222,3.482 -2.179,7.958 -4.136,11.014c-1.957,3.056 -3.573,5.223 -3.536,5.223c0.038,0 -1.522,-2.167 -3.53,-5.223c-2.009,-3.056 -4.359,-7.532 -4.136,-11.014c0.51,-6.9635 4.178,-8.8727 7.666,-8.878c3.489,-0.0052 7.161,1.9145 7.672,8.878z"/>
   <path id="svg_237" fill="white" d="m589.673,159.588c0,-0.833 -0.222,-1.646 -0.637,-2.338c-0.416,-0.692 -1.006,-1.231 -1.697,-1.55c-0.691,-0.318 -1.451,-0.402 -2.185,-0.239c-0.734,0.162 -1.407,0.563 -1.936,1.151c-0.529,0.589 -0.889,1.338 -1.035,2.155c-0.146,0.816 -0.071,1.662 0.215,2.431c0.286,0.769 0.771,1.426 1.393,1.888c0.622,0.463 1.353,0.709 2.101,0.709c1.003,0 1.964,-0.443 2.674,-1.232c0.709,-0.789 1.107,-1.859 1.107,-2.975z"/>
   <path id="svg_238" fill="white" d="m629.463,203.805c0,-0.832 -0.222,-1.646 -0.638,-2.338c-0.415,-0.692 -1.006,-1.231 -1.697,-1.55c-0.691,-0.318 -1.451,-0.401 -2.184,-0.239c-0.734,0.162 -1.408,0.563 -1.937,1.152c-0.528,0.588 -0.889,1.338 -1.034,2.154c-0.146,0.816 -0.071,1.662 0.215,2.431c0.286,0.769 0.771,1.426 1.392,1.888c0.622,0.463 1.353,0.71 2.101,0.71c1.003,0 1.965,-0.444 2.674,-1.233c0.709,-0.789 1.108,-1.859 1.108,-2.975z"/>
   <path id="svg_239" fill="white" d="m582.463,235.805c0,-0.832 -0.222,-1.646 -0.638,-2.338c-0.415,-0.692 -1.006,-1.231 -1.697,-1.55c-0.691,-0.318 -1.451,-0.401 -2.184,-0.239c-0.734,0.162 -1.408,0.563 -1.937,1.152c-0.528,0.588 -0.889,1.338 -1.034,2.154c-0.146,0.816 -0.071,1.662 0.215,2.431c0.286,0.769 0.771,1.426 1.392,1.888c0.622,0.463 1.353,0.71 2.101,0.71c1.003,0 1.965,-0.444 2.674,-1.233c0.709,-0.789 1.108,-1.859 1.108,-2.975z"/>
   <path id="svg_240" fill="white" d="m627.463,117.805c0,-0.8323 -0.222,-1.6458 -0.638,-2.3378c-0.415,-0.692 -1.006,-1.2313 -1.697,-1.5497c-0.691,-0.3185 -1.451,-0.4018 -2.184,-0.2395c-0.734,0.1624 -1.408,0.5631 -1.937,1.1516c-0.528,0.5884 -0.889,1.3382 -1.034,2.1544c-0.146,0.816 -0.071,1.662 0.215,2.431c0.286,0.769 0.771,1.426 1.392,1.888c0.622,0.463 1.353,0.71 2.101,0.71c1.003,0 1.965,-0.444 2.674,-1.233c0.709,-0.789 1.108,-1.859 1.108,-2.975z"/>
  </g>
 </g>
</svg>