<svg width="638" height="587" viewBox="0 0 638 587" fill="none" xmlns="http://www.w3.org/2000/svg">
	 <style>
                        
            .b-ball_bounce {
              animation: move 3s linear alternate infinite;
            }
             @keyframes move {
                0% {
                    transform: translate3d(0, 0, 0);
                }
                25% {
                    transform: translate3d(10px, 10px, 10px);
                }
                50% {
                    transform: translate3d(-10px, -10px, -10px);
                }

            }


            .b-ball_bounce1 {
              animation: movee 3s linear alternate infinite;
            }
             @keyframes movee {
                0% {
                    transform: translate3d(0, 0, 0);
                }
                25% {
                    transform: translate3d(-7px, 15px, 10px);
                }
                50% {
                    transform: translate3d(7px, 9px, -16px);
                }

            }

            .b-ball_bounce2 {
              animation: moveee 5s linear alternate infinite;
            }
             @keyframes moveee {
                0% {
                    transform: translate3d(0, 0, 0);
                }
                25% {
                    transform: translate3d(5px, -6px, 10px);
                }
                75% {
                    transform: translate3d(14px, 5px, -16px);
                }

            }

            .b-ball_bounce3 {
              animation: moveeee 7s linear alternate infinite;
            }
             @keyframes moveeee {
                0% {
                    transform: translate3d(0, 0, 0);
                }
                25% {
                    transform: translate3d(5px, 16px, 4px);
                }
                75% {
                    transform: translate3d(14px, 5px, -16px);
                }

            }

            .b-ball_bounce4 {
              animation: moveeeee 7s linear alternate infinite;
            }
             @keyframes moveeeee {
                0% {
                    transform: translate3d(0, 0, 0);
                }
                25% {
                    transform: translate3d(-5px, -7px, 12px);
                }
                75% {
                    transform: translate3d(-9px, 9px, -12px);
                }

            }
        </style>
<g clip-path="url(#clip0)">
<path opacity="0.2" d="M103.305 554.56C142.199 554.56 173.729 553.004 173.729 551.085C173.729 549.166 142.199 547.61 103.305 547.61C64.4107 547.61 32.8809 549.166 32.8809 551.085C32.8809 553.004 64.4107 554.56 103.305 554.56Z" fill="#0083C7"/>
<path opacity="0.2" d="M438.588 586.997C472.69 586.997 500.336 585.442 500.336 583.523C500.336 581.604 472.69 580.048 438.588 580.048C404.485 580.048 376.839 581.604 376.839 583.523C376.839 585.442 404.485 586.997 438.588 586.997Z" fill="#0083C7"/>
<path opacity="0.2" d="M438.654 511.395C548.067 511.395 636.763 509.029 636.763 506.11C636.763 503.192 548.067 500.826 438.654 500.826C329.241 500.826 240.544 503.192 240.544 506.11C240.544 509.029 329.241 511.395 438.654 511.395Z" fill="#0083C7"/>
<path d="M521.752 498.606C517.648 498.365 510.866 497.871 507.644 497.072C494.26 493.753 482.677 478.354 482.677 464.575V397.478H390.436V464.575C390.436 478.354 378.852 493.753 365.472 497.072C362.249 497.871 355.475 498.365 351.361 498.606C350.443 498.659 349.58 499.061 348.948 499.729C348.317 500.398 347.966 501.282 347.966 502.201V505.542H525.147V502.212C525.15 501.291 524.8 500.404 524.168 499.733C523.537 499.063 522.672 498.659 521.752 498.606Z" fill="#29374F"/>
<path d="M390.436 397.478V447.105L482.677 463.197V397.478H390.436Z" fill="#1B2433"/>
<path d="M627.916 184.235H245.197C239.628 184.235 235.113 188.747 235.113 194.312V433.49C235.113 439.056 239.628 443.567 245.197 443.567H627.916C633.485 443.567 638 439.056 638 433.49V194.312C638 188.747 633.485 184.235 627.916 184.235Z" fill="#29374F"/>
<path d="M624.16 195.8H247.29V396.045H624.16V195.8Z" fill="#99CDE9"/>
<path d="M428.504 362.618L428.206 362.626V362.618H428.504Z" fill="#2A2A3B"/>
<path d="M428.504 184.227L428.206 184.238V184.227H428.504Z" fill="#2A2A3B"/>
<path d="M498.881 102.81H128.805V349.673H498.881V102.81Z" fill="white"/>
<path opacity="0.1" d="M510.837 184.235H245.195C243.871 184.235 242.559 184.495 241.335 185.002C240.112 185.508 239 186.25 238.063 187.186C237.126 188.122 236.383 189.233 235.876 190.455C235.369 191.678 235.108 192.989 235.108 194.312V360.425H510.837V184.235Z" fill="#364766"/>
<path d="M498.881 102.81H128.805V349.673H498.881V102.81Z" fill="white"/>
<path d="M133.187 95.8853H498.881V109.738H128.805V100.265C128.804 99.6896 128.917 99.1197 129.137 98.588C129.357 98.0564 129.68 97.5733 130.087 97.1664C130.494 96.7596 130.977 96.437 131.509 96.2172C132.041 95.9973 132.612 95.8845 133.187 95.8853Z" fill="#6D7EA0"/>
<path opacity="0.7" d="M380.82 176.009H311.859V227.682H380.82V176.009Z" fill="#D2EEFD"/>
<path d="M381.364 293.577H311.329V240.854H381.364V293.577ZM312.393 292.524H380.287V241.904H312.393V292.524Z" fill="#E6E7E8"/>
<path d="M463.065 293.577H461.467V292.513H462V291.98H463.065V293.577Z" fill="#E6E7E8"/>
<path d="M459.311 293.576H457.145V292.524H459.301L459.311 293.576ZM455 293.576H452.844V292.524H455V293.576ZM450.688 293.576H448.533V292.524H450.688V293.576ZM446.377 293.576H444.221V292.524H446.377V293.576ZM442.065 293.576H439.909V292.524H442.065V293.576ZM437.754 293.576H435.598V292.524H437.754V293.576ZM433.442 293.576H431.286V292.524H433.442V293.576ZM429.131 293.576H426.975V292.524H429.131V293.576ZM424.819 293.576H422.674V292.524H424.83L424.819 293.576ZM420.507 293.576H418.352V292.524H420.507V293.576ZM416.196 293.576H414.04V292.524H416.196V293.576ZM411.884 293.576H409.729V292.524H411.884V293.576ZM407.573 293.576H405.417V292.524H407.573V293.576ZM403.261 293.576H401.106V292.524H403.25L403.261 293.576ZM398.95 293.576H396.794V292.524H398.95V293.576Z" fill="#E6E7E8"/>
<path d="M394.638 293.577H393.038V291.98H394.105V292.513H394.638V293.577Z" fill="#E6E7E8"/>
<path d="M394.105 289.826H393.038V287.672H394.105V289.826ZM394.105 285.517H393.038V283.363H394.105V285.517ZM394.105 281.212H393.038V279.057H394.105V281.212ZM394.105 276.903H393.038V274.754H394.105V276.903ZM394.105 272.594H393.038V270.44H394.105V272.594ZM394.105 268.289H393.038V266.134H394.105V268.289ZM394.105 263.98H393.038V261.826H394.105V263.98ZM394.105 259.671H393.038V257.531H394.105V259.671ZM394.105 255.363H393.038V253.208H394.105V255.363ZM394.105 251.054H393.038V248.9H394.105V251.054ZM394.105 246.746H393.038V244.591H394.105V246.746Z" fill="#E6E7E8"/>
<path d="M394.105 242.437H393.038V240.84H394.638V241.904H394.105V242.437Z" fill="#E6E7E8"/>
<path d="M459.311 241.904H457.145V240.854H459.301L459.311 241.904ZM455 241.904H452.844V240.854H455V241.904ZM450.688 241.904H448.533V240.854H450.688V241.904ZM446.377 241.904H444.221V240.854H446.377V241.904ZM442.065 241.904H439.909V240.854H442.065V241.904ZM437.754 241.904H435.598V240.854H437.754V241.904ZM433.442 241.904H431.286V240.854H433.442V241.904ZM429.131 241.904H426.975V240.854H429.131V241.904ZM424.819 241.904H422.674V240.854H424.83L424.819 241.904ZM420.507 241.904H418.352V240.854H420.507V241.904ZM416.196 241.904H414.04V240.854H416.196V241.904ZM411.884 241.904H409.729V240.854H411.884V241.904ZM407.573 241.904H405.417V240.854H407.573V241.904ZM403.261 241.904H401.106V240.854H403.25L403.261 241.904ZM398.95 241.904H396.794V240.854H398.95V241.904Z" fill="#E6E7E8"/>
<path d="M463.065 242.437H462V241.904H461.467V240.84H463.065V242.437Z" fill="#E6E7E8"/>
<path d="M463.065 289.826H462.001V287.672H463.065V289.826ZM463.065 285.517H462.001V283.363H463.065V285.517ZM463.065 281.209H462.001V279.054H463.065V281.209ZM463.065 276.903H462.001V274.754H463.065V276.903ZM463.065 272.594H462.001V270.44H463.065V272.594ZM463.065 268.286H462.001V266.131H463.065V268.286ZM463.065 263.98H462.001V261.826H463.065V263.98ZM463.065 259.671H462.001V257.531H463.065V259.671ZM463.065 255.363H462.001V253.208H463.065V255.363ZM463.065 251.054H462.001V248.9H463.065V251.054ZM463.065 246.746H462.001V244.591H463.065V246.746Z" fill="#E6E7E8"/>
<path opacity="0.7" d="M237.401 127.776H168.44V160.432H237.401V127.776Z" fill="#D2EEFD"/>
<path d="M460.349 160.962H245.994V127.242H460.349V160.962ZM247.058 159.898H459.282V128.306H247.058V159.898Z" fill="#E6E7E8"/>
<path opacity="0.7" d="M462.532 176.009H393.571V227.682H462.532V176.009Z" fill="#D2EEFD"/>
<path d="M324.316 217.815H320.611V218.868H324.316V217.815Z" fill="#6D7EA0"/>
<path d="M333.335 217.815H327.541V218.868H333.335V217.815Z" fill="#6D7EA0"/>
<path d="M363.147 217.815H337.221V218.868H363.147V217.815Z" fill="#6D7EA0"/>
<path d="M361.114 221.129H327.842V222.181H361.114V221.129Z" fill="#6D7EA0"/>
<path d="M407.917 217.815H404.213V218.868H407.917V217.815Z" fill="#6D7EA0"/>
<path d="M416.937 217.815H411.143V218.868H416.937V217.815Z" fill="#6D7EA0"/>
<path d="M446.743 217.815H420.819V218.868H446.743V217.815Z" fill="#6D7EA0"/>
<path d="M444.714 221.129H411.441V222.181H444.714V221.129Z" fill="#6D7EA0"/>
<path d="M463.064 336.572H167.906V307.935H463.064V336.572ZM168.97 335.508H461.997V308.99H168.973L168.97 335.508Z" fill="#E6E7E8"/>
<path d="M320.666 455.329H257.082C250.269 455.329 244.746 460.848 244.746 467.656V531.199C244.746 538.007 250.269 543.526 257.082 543.526H320.666C327.479 543.526 333.002 538.007 333.002 531.199V467.656C333.002 460.848 327.479 455.329 320.666 455.329Z" fill="#F2706D"/>
<path d="M314.13 480.002H263.617V518.85H314.13V480.002Z" fill="white"/>
<path d="M310.626 512.926H268.378V513.962H310.626V512.926Z" fill="#364766"/>
<path d="M274.725 513.443C274.725 513.848 274.605 514.244 274.38 514.58C274.155 514.917 273.835 515.179 273.46 515.334C273.086 515.489 272.674 515.53 272.276 515.451C271.879 515.372 271.514 515.177 271.227 514.891C270.941 514.604 270.745 514.239 270.666 513.842C270.587 513.445 270.628 513.033 270.783 512.659C270.938 512.285 271.201 511.965 271.538 511.74C271.875 511.515 272.271 511.395 272.676 511.395C273.219 511.395 273.741 511.611 274.125 511.995C274.509 512.379 274.725 512.9 274.725 513.443Z" fill="#364766"/>
<path d="M295.177 496.263L282.57 489.371V503.152L295.177 496.263Z" fill="#364766"/>
<path d="M198.69 470.57H148.771C142.396 470.57 137.229 475.734 137.229 482.104V531.992C137.229 538.362 142.396 543.526 148.771 543.526H198.69C205.065 543.526 210.232 538.362 210.232 531.992V482.104C210.232 475.734 205.065 470.57 198.69 470.57Z" fill="#38B9C6"/>
<path d="M176.642 504.3H189.271C190.649 504.3 191.971 504.848 192.946 505.822C193.921 506.796 194.468 508.117 194.468 509.495V513.396C194.466 514.483 194.122 515.542 193.483 516.422C192.845 517.303 191.945 517.96 190.912 518.3V523.142L186.351 518.585H176.642C175.264 518.585 173.942 518.037 172.967 517.063C171.992 516.089 171.444 514.768 171.444 513.39V509.489C171.446 508.112 171.994 506.793 172.969 505.82C173.943 504.847 175.265 504.3 176.642 504.3Z" fill="white"/>
	<path d="M168.886 509.49C168.889 507.435 169.706 505.465 171.16 504.012C172.615 502.558 174.586 501.741 176.642 501.739H185.96C185.73 499.865 184.823 498.14 183.409 496.888C181.996 495.636 180.173 494.943 178.284 494.94H159.38C158.359 494.94 157.348 495.141 156.405 495.531C155.462 495.922 154.605 496.494 153.883 497.216C153.161 497.937 152.589 498.794 152.198 499.736C151.808 500.679 151.607 501.689 151.607 502.71V508.546C151.612 510.175 152.13 511.761 153.089 513.078C154.048 514.395 155.398 515.376 156.948 515.881V523.132L163.787 516.297H169.48C169.097 515.37 168.9 514.377 168.897 513.374L168.886 509.49Z" fill="white"/>
<g class='b-ball_bounce3'>

<path d="M21.1284 244.853H34.3257L34.9112 243.85H20.543L21.1284 244.853Z" fill="#29374F"/>
<path d="M19.9546 242.85H35.4991L36.0873 241.849H19.3691L19.9546 242.85Z" fill="#29374F"/>
<path d="M18.7806 240.846H36.6724L37.2606 239.842H18.1924L18.7806 240.846Z" fill="#29374F"/>
<path d="M17.605 238.842H37.8496L38.435 237.838H17.0195L17.605 238.842Z" fill="#29374F"/>
<path d="M27.7267 192.538C23.511 192.535 19.4044 193.878 16.0059 196.371C12.6073 198.863 10.0944 202.376 8.83343 206.396C7.57251 210.416 7.62952 214.733 8.99615 218.719C10.3628 222.704 12.9676 226.149 16.4308 228.551V234.798L17.019 236.195H38.4345L39.0227 234.798V228.551C42.4835 226.148 45.086 222.704 46.4511 218.719C47.8162 214.735 47.8726 210.419 46.6119 206.401C45.3513 202.382 42.8395 198.871 39.4426 196.378C36.0456 193.886 31.941 192.542 27.7267 192.544V192.538Z" fill="#FBB157"/>
<path d="M28.2278 184.597H27.2266V188.941H28.2278V184.597Z" fill="#FBB157"/>
<path d="M55.4536 211.801H51.1064V212.805H55.4536V211.801Z" fill="#FBB157"/>
<path d="M4.34712 211.801H0V212.805H4.34712V211.801Z" fill="#FBB157"/>
<path d="M8.47851 192.357L7.76855 193.066L10.8424 196.138L11.5524 195.429L8.47851 192.357Z" fill="#FBB157"/>
<path d="M46.9721 192.363L43.9004 195.437L44.6108 196.146L47.6826 193.072L46.9721 192.363Z" fill="#FBB157"/>
</g>
<g class='b-ball_bounce4'>
	<path d="M19.7191 113.825L72.2894 113.825C79.0024 113.825 84.4443 108.386 84.4443 101.678L84.4443 49.1441C84.4443 42.4357 79.0024 36.9975 72.2894 36.9975L19.7191 36.9975C13.0061 36.9975 7.56412 42.4357 7.56412 49.1441L7.56412 101.678C7.56412 108.386 13.0061 113.825 19.7191 113.825Z" fill="#38B9C6"/>
<path d="M30.7412 84.1376V66.6846H23.6365V84.1376H30.7412Z" fill="white"/>
<path d="M33.5488 84.0831V75.4113V66.7395L40.8752 61.064L59.3962 75.4113L40.8752 89.7587L33.5488 84.0831Z" fill="white"/>
<path d="M32.3506 84.1347V66.6816H31.3602V84.1347H32.3506Z" fill="white"/>
<path d="M39.8184 75.4112C39.8188 75.0732 39.7525 74.7384 39.6233 74.4259C39.494 74.1135 39.3045 73.8296 39.0654 73.5904C38.8263 73.3512 38.5424 73.1615 38.2299 73.032C37.9174 72.9026 37.5824 72.8359 37.2441 72.8359C36.5606 72.8359 35.9051 73.1073 35.4218 73.5902C34.9385 74.0732 34.667 74.7282 34.667 75.4112C34.667 75.7494 34.7337 76.0843 34.8632 76.3968C34.9927 76.7092 35.1825 76.9931 35.4218 77.2323C35.6611 77.4714 35.9452 77.6611 36.2579 77.7905C36.5705 77.9199 36.9056 77.9865 37.2441 77.9865C37.5824 77.9865 37.9174 77.9199 38.2299 77.7905C38.5424 77.661 38.8263 77.4713 39.0654 77.2321C39.3045 76.9929 39.494 76.709 39.6233 76.3966C39.7525 76.0841 39.8188 75.7493 39.8184 75.4112Z" fill="#38B9C6"/>
<path d="M57.295 75.0991H37.7344V75.706H57.295V75.0991Z" fill="#38B9C6"/>
<path d="M51.3694 95.6088C55.7489 94.4346 59.6339 91.8831 62.4499 88.3317C65.2659 84.7802 66.8634 80.4173 67.006 75.8883C67.1487 71.3594 65.829 66.9048 63.2421 63.1833C60.6552 59.4619 56.9384 56.6713 52.6415 55.2241L52.4446 55.8119C56.6181 57.2142 60.2288 59.9222 62.742 63.5351C65.2553 67.1479 66.5374 71.4735 66.3987 75.8714C66.26 80.2693 64.7077 84.5056 61.9718 87.9531C59.2358 91.4007 55.4616 93.8761 51.208 95.0129L51.3694 95.6088Z" fill="white"/>
<path d="M52.9395 96.9595V93.6597H49.6374V96.9595H52.9395Z" fill="white"/>
<path d="M52.9395 57.1626V53.8628H49.6374V57.1626H52.9395Z" fill="white"/>
<path d="M68.3691 77.0595V73.7598H65.0671V77.0595H68.3691Z" fill="white"/>
</g>
<g opacity="0.3">
<path opacity="0.3" d="M499.171 103.797V95.8877H446.596C446.499 97.8549 446.57 99.8269 446.809 101.782C450.366 130.367 483.537 104.893 487.799 118.357C487.948 118.836 488.069 119.324 488.16 119.817C485.747 126.357 485.952 125.471 481.57 127.144C479.805 127.817 483.126 128.957 488.135 129.208C488.248 131.767 489.23 133.771 493.216 134.856C495.173 135.373 497.164 135.749 499.174 135.983V103.797H499.171Z" fill="#364766"/>
</g>
<g class='b-ball_bounce2'>
	<path d="M541.729 94.5918C541.729 119.022 523.197 134.061 499.598 127.672C490.866 125.304 496.529 118.584 494.181 111.173C489.919 97.7112 456.735 123.185 453.192 94.6C450.182 70.3533 473.009 50.3633 497.459 50.3633C503.272 50.3626 509.028 51.506 514.399 53.7283C519.769 55.9506 524.649 59.2083 528.76 63.3153C532.871 67.4222 536.132 72.2982 538.357 77.6646C540.583 83.031 541.728 88.7829 541.729 94.5918Z" fill="white"/>
<path d="M522.122 93.7064C522.122 100.951 512.757 99.6471 505.507 99.6471C501.571 99.6471 494.668 103.693 490.16 101.014C482.377 96.3856 483.282 92.8616 483.282 89.5509C483.282 82.3061 494.556 76.2998 501.806 76.2998C509.056 76.2998 522.122 86.4616 522.122 93.7064Z" fill="#FFEBC6"/>
<path d="M468.087 94.95C468.087 95.8795 467.811 96.7881 467.295 97.5609C466.778 98.3337 466.043 98.9361 465.184 99.2918C464.325 99.6475 463.379 99.7406 462.467 99.5592C461.555 99.3779 460.717 98.9303 460.059 98.2731C459.401 97.6158 458.953 96.7785 458.772 95.8668C458.591 94.9552 458.684 94.0103 459.04 93.1516C459.396 92.2929 459.998 91.5589 460.772 91.0425C461.545 90.5261 462.454 90.2505 463.384 90.2505C464.002 90.2501 464.614 90.3714 465.184 90.6075C465.755 90.8435 466.274 91.1897 466.711 91.6261C467.147 92.0626 467.494 92.5808 467.73 93.1511C467.966 93.7215 468.088 94.3328 468.087 94.95Z" fill="#F2706D"/>
<path d="M470.611 80.2988C470.611 81.3262 470.306 82.3305 469.735 83.1847C469.164 84.0389 468.352 84.7046 467.402 85.0978C466.452 85.4909 465.407 85.5938 464.399 85.3934C463.39 85.1929 462.464 84.6982 461.737 83.9718C461.01 83.2453 460.515 82.3198 460.315 81.3122C460.114 80.3046 460.217 79.2602 460.611 78.311C461.004 77.3619 461.67 76.5507 462.525 75.9799C463.38 75.4091 464.385 75.1045 465.413 75.1045C466.791 75.1045 468.114 75.6518 469.088 76.6259C470.063 77.6 470.611 78.9212 470.611 80.2988Z" fill="#0083C7"/>
<path d="M481.364 68.9822C482.057 66.0491 480.239 63.1101 477.304 62.4178C474.369 61.7256 471.428 63.5421 470.735 66.4752C470.042 69.4083 471.86 72.3473 474.795 73.0396C477.73 73.7319 480.671 71.9153 481.364 68.9822Z" fill="#485E88"/>
<path d="M495.229 62.2009C495.229 63.297 494.903 64.3684 494.294 65.2796C493.684 66.1907 492.818 66.9006 491.804 67.3194C490.791 67.7383 489.675 67.8471 488.6 67.6323C487.524 67.4175 486.537 66.8886 485.762 66.1126C484.988 65.3366 484.461 64.3484 484.248 63.2731C484.036 62.1978 484.148 61.0837 484.569 60.0718C484.991 59.06 485.704 58.1959 486.617 57.5889C487.53 56.982 488.603 56.6594 489.7 56.6621C491.168 56.665 492.574 57.2499 493.611 58.2884C494.648 59.3269 495.23 60.7341 495.229 62.2009Z" fill="#38B9C6"/>
<path d="M505.507 67.737C508.807 67.737 511.482 65.0637 511.482 61.7662C511.482 58.4686 508.807 55.7954 505.507 55.7954C502.207 55.7954 499.532 58.4686 499.532 61.7662C499.532 65.0637 502.207 67.737 505.507 67.737Z" fill="#FECE71"/>
<path d="M527.61 86.5655L512.385 98.8159L518.395 106.275L533.62 94.0249L527.61 86.5655Z" fill="#AFB5C2"/>
<path d="M512.632 99.1113C512.632 99.1113 499.426 99.5132 495.719 109.484C492.012 119.454 492.953 118.038 487.969 119.938C482.984 121.838 518.579 127.527 518.256 106.077L512.632 99.1113Z" fill="#FBB157"/>
<path d="M525.706 99.7647L520.278 93.0257C520.188 92.9114 520.121 92.7803 520.083 92.64C520.044 92.4997 520.033 92.353 520.052 92.2087C520.071 92.0643 520.118 91.9251 520.191 91.7992C520.264 91.6733 520.362 91.5633 520.478 91.4756L565.451 58.4559C567.246 57.1382 569.404 57.0562 570.375 58.2645C571.352 59.4756 570.81 61.5643 569.136 63.0351L527.263 99.8959C527.152 99.9907 527.024 100.063 526.886 100.107C526.748 100.152 526.602 100.169 526.457 100.157C526.312 100.145 526.171 100.104 526.042 100.036C525.913 99.9689 525.799 99.8766 525.706 99.7647Z" fill="#364766"/>
<path d="M461.609 563.8L463.954 578.279L461.713 579.49L454.868 582.557V584.173L469.849 584.373L470.982 582.88L468.216 563.196L461.609 563.8Z" fill="#F9C0B2"/>
</g>
<path d="M460.381 579.914L462.014 578.995L461.552 581.713L468.974 580.108L471.007 579.028L471.264 583.241L470.47 584.589H466.826H460.83L452.42 584.373L451.952 583.244L460.381 579.914Z" fill="#1A2C3D"/>
<path d="M411.387 564.355L409.097 577.429L406.854 578.64L400.009 581.707V583.32L414.993 583.522L416.122 582.03L418.445 563.713L411.387 564.355Z" fill="#F9C0B2"/>
<path d="M405.521 579.064L407.157 578.145L406.692 580.862L414.757 579.225L416.789 578.145L416.404 582.391L415.613 583.736H411.966H405.972L397.563 583.523L397.095 582.393L405.521 579.064Z" fill="#1A2C3D"/>
<path d="M409.915 569.817L418.694 569.815L430.835 491.692L445.967 424.529L424.538 425.138L417.586 491.692L409.915 569.817Z" fill="#0083C7"/>
<path d="M462.149 573.361H470.315L462.699 492.225L462.121 439.401L465.202 423.545L438.443 425.265L441.401 451.452L449.449 492.225L462.149 573.361Z" fill="#0083C7"/>
<path d="M444.905 290.446L444.347 284.678L446.503 280.028L445.471 272.067L444.232 273.023L444.224 275.5L443.844 277.491L443.351 277.452L441.836 272.835L440.979 266.853L433.593 270.626L433.858 276.063L434.545 279.768L436.947 283.828L437.992 291.389L444.905 290.446Z" fill="#F9C0B2"/>

<g class=''>
	<path d="M435.341 284.675L393.645 281.157C391.5 280.975 389.515 279.949 388.126 278.305C386.737 276.661 386.059 274.533 386.24 272.389L389.761 230.722C389.85 229.661 390.148 228.627 390.638 227.681C391.127 226.735 391.798 225.894 392.612 225.207C393.427 224.52 394.369 223.999 395.384 223.676C396.4 223.352 397.469 223.232 398.531 223.322L440.227 226.84C442.372 227.022 444.358 228.047 445.747 229.692C447.135 231.336 447.814 233.464 447.633 235.608L444.112 277.275C444.022 278.336 443.724 279.369 443.235 280.316C442.746 281.262 442.075 282.103 441.26 282.79C440.446 283.477 439.504 283.997 438.488 284.321C437.473 284.644 436.403 284.765 435.341 284.675Z" fill="#F2706D"/>
<path d="M434.09 252.883L428.419 256.926L428.86 251.732C428.885 251.427 428.788 251.125 428.591 250.891C428.393 250.658 428.111 250.512 427.806 250.485L400.925 248.216C400.62 248.191 400.318 248.288 400.084 248.485C399.85 248.682 399.704 248.964 399.677 249.269L398.238 266.301C398.213 266.606 398.309 266.908 398.507 267.142C398.704 267.376 398.987 267.522 399.292 267.547L426.173 269.814C426.324 269.827 426.476 269.81 426.621 269.765C426.765 269.719 426.899 269.645 427.015 269.548C427.131 269.45 427.226 269.331 427.296 269.196C427.366 269.062 427.408 268.915 427.421 268.764L427.858 263.586L432.676 268.431L433.374 268.6L434.701 252.888L434.09 252.883Z" fill="white"/>
<path d="M408.766 247.855C409.707 247.935 410.65 247.733 411.476 247.277C412.303 246.821 412.975 246.13 413.409 245.292C413.842 244.454 414.017 243.506 413.911 242.568C413.806 241.631 413.424 240.745 412.815 240.024C412.206 239.303 411.397 238.779 410.49 238.518C409.583 238.256 408.618 238.27 407.719 238.556C406.819 238.842 406.025 239.389 405.436 240.126C404.847 240.864 404.49 241.759 404.411 242.699C404.358 243.324 404.428 243.952 404.619 244.549C404.809 245.146 405.115 245.7 405.519 246.179C405.924 246.658 406.419 247.052 406.976 247.34C407.533 247.627 408.141 247.803 408.766 247.855Z" fill="white"/>
<path d="M419.665 248.782C420.606 248.861 421.549 248.66 422.376 248.204C423.202 247.748 423.875 247.057 424.308 246.219C424.741 245.38 424.916 244.433 424.811 243.495C424.705 242.557 424.324 241.672 423.715 240.951C423.106 240.23 422.297 239.706 421.389 239.445C420.482 239.183 419.518 239.196 418.618 239.483C417.719 239.769 416.924 240.315 416.335 241.053C415.746 241.79 415.39 242.686 415.31 243.626C415.257 244.25 415.328 244.879 415.518 245.476C415.708 246.073 416.014 246.627 416.419 247.106C416.823 247.584 417.318 247.979 417.875 248.267C418.432 248.554 419.041 248.729 419.665 248.782Z" fill="white"/>
</g>


<path d="M462.756 362.407C463.913 361.861 464.783 361.358 464.783 361.358C467.215 360.193 468.282 356.357 466.95 354.012C460.004 341.764 450.976 323.537 450.976 323.537L445.324 286.455L436.979 289.599L440.987 325.506L441.931 329.464L454.866 364.108C456.02 366.506 461.008 363.239 462.756 362.407Z" fill="#38B9C6"/>
<path d="M450.831 342.715L434.422 336.769L435.368 329.188L433.65 327.698L438.422 321.954L441.606 312.41L459.815 319.423L450.831 342.715Z" fill="#F9C0B2"/>
<path d="M449.733 351.505L444.204 351.477C443.515 351.474 442.855 351.197 442.37 350.707C441.884 350.218 441.613 349.555 441.616 348.866L441.69 333.994L452.42 334.049L452.346 348.918C452.344 349.26 452.276 349.597 452.144 349.912C452.011 350.227 451.819 350.512 451.576 350.753C451.333 350.993 451.046 351.183 450.729 351.312C450.413 351.441 450.075 351.506 449.733 351.505Z" fill="#F9C0B2"/>
<path d="M453.054 310.549C459.516 312.714 463.25 314.475 462.829 326.952C462.739 329.62 464.334 331.545 466.689 332.37C467.529 334.038 468.716 338.008 464.837 340.539C459.858 343.787 460.922 348.771 455.642 345.873C451.733 343.727 450.718 343.262 449.664 342.338C449.24 341.958 445.43 338.404 444.923 337.964C442.051 335.503 443.572 332.663 444.732 330.905C445.61 329.571 447.076 326.826 447.539 326.124C447.78 325.76 448.001 323.756 446.806 323.485C444.781 323.026 445.837 320.926 445.673 320.281C445.575 319.945 445.422 319.628 445.219 319.344C445.219 319.344 442.773 318.608 442.27 317.977C440.831 316.112 438.604 305.702 453.054 310.549Z" fill="#1A2C3D"/>
<path d="M466.72 430.339L462.928 409.197L462.802 395.629L468.402 364.091C468.785 357.694 467.155 349.602 460.742 349.203L458.431 349.071L440.128 347.871L434.999 347.513C426.682 347.513 425.697 365.691 425.697 365.691L427.886 394.615L427.158 403.049L419.413 427.531L466.72 430.339Z" fill="#38B9C6"/>
<path d="M405.351 292.269L404.175 286.9L405.012 282.313L404.533 278.685L402.353 274.846L401.625 276.736L402.104 278.349L402.293 280.205L401.822 280.224L400.055 276.85L398.774 271.653L394.069 275.814L393.801 279.948L394.865 283.357L397.114 286.933L398.95 293.937L405.351 292.269Z" fill="#F9C0B2"/>
<path d="M435.461 360.239C436.506 359.504 437.278 358.872 437.278 358.872C439.466 357.311 439.879 353.352 438.17 351.264C429.245 340.372 414.095 326.298 414.095 326.298L405.401 288.352L397.193 291.031L404.58 329.929L406.183 333.671L427.982 363.263C429.514 365.42 433.891 361.357 435.461 360.239Z" fill="#38B9C6"/>



	<path d="M249.047 488.515H207.505C202.2 488.515 197.899 492.813 197.899 498.114V539.627C197.899 544.929 202.2 549.226 207.505 549.226H249.047C254.352 549.226 258.652 544.929 258.652 539.627V498.114C258.652 492.813 254.352 488.515 249.047 488.515Z" fill="#0083C7"/>
	<path d="M211.241 506.518L228.274 518.391L245.528 506.518H211.241Z" fill="white"/>
	<path d="M228.274 521.302L227.127 520.482L210.765 508.937V529.509C210.765 529.962 210.945 530.396 211.265 530.716C211.585 531.036 212.019 531.215 212.472 531.215H244.075C244.528 531.215 244.962 531.036 245.282 530.716C245.603 530.396 245.782 529.962 245.782 529.509V508.937L229.42 520.482L228.274 521.302Z" fill="white"/>
<g class='b-ball_bounce1'>
	<path d="M225.541 25.1707C225.541 30.1497 224.064 35.017 221.297 39.1571C218.529 43.2972 214.595 46.5242 209.992 48.4299C205.389 50.3357 200.324 50.8346 195.437 49.8636C190.55 48.8926 186.062 46.4952 182.538 42.9748C179.015 39.4543 176.616 34.9688 175.643 30.0856C174.671 25.2023 175.17 20.1406 177.076 15.5406C178.983 10.9406 182.212 7.0089 186.354 4.24268C190.497 1.47647 195.368 2.93615e-08 200.35 0C207.031 -3.93688e-08 213.438 2.65182 218.162 7.37217C222.886 12.0925 225.54 18.4948 225.541 25.1707Z" fill="white"/>
	<path d="M218.538 29.9166C218.538 24.0662 213.92 21.1874 208.265 20.452C207.368 16.7203 203.672 14.853 200.331 14.853C199.194 14.853 198.067 15.077 197.016 15.5122C195.966 15.9474 195.011 16.5852 194.207 17.3893C193.403 18.1933 192.765 19.1478 192.33 20.1983C191.895 21.2487 191.672 22.3744 191.673 23.5112C191.673 23.5112 191.673 23.5413 191.673 23.5549C191.399 23.5276 191.106 23.5112 190.816 23.5112C188.521 23.5119 186.32 24.4236 184.697 26.0457C183.075 27.6678 182.163 29.8675 182.163 32.1612V32.1912C182.163 33.6921 183.118 35.4965 186.127 35.4965H212.486C217.501 35.4965 218.529 32.1584 218.538 29.9659V29.9166Z" fill="#0083C7"/>
	<path opacity="0.4" d="M299.978 175.75H168.178V293.046H299.978V175.75Z" fill="#E6E7E8"/>
</g>

<path d="M237.633 172.723H231.051V179.301H237.633V172.723Z" fill="#B6BFCF"/>
<path d="M171.731 237.816V231.239H165.149V237.816H171.731Z" fill="#B6BFCF"/>
<path d="M300.503 293.309H299.188V292.784H299.978V291.997H300.503V293.309Z" fill="#B6BFCF"/>
<path d="M297.062 293.309H294.936V292.797H297.062V293.309ZM292.81 293.309H290.685V292.797H292.81V293.309ZM288.556 293.309H286.433V292.797H288.559L288.556 293.309ZM284.305 293.309H282.179V292.797H284.305V293.309ZM280.053 293.309H277.928V292.797H280.053V293.309ZM275.799 293.309H273.674V292.797H275.799V293.309ZM271.548 293.309H269.422V292.797H271.548V293.309ZM267.297 293.309H265.168V292.797H267.297V293.309ZM263.043 293.309H260.917V292.797H263.043V293.309ZM258.791 293.309H256.666V292.797H258.802L258.791 293.309ZM254.537 293.309H252.411V292.797H254.537V293.309ZM250.286 293.309H248.16V292.797H250.286V293.309ZM246.034 293.309H243.909V292.797H246.034V293.309ZM241.78 293.309H239.652V292.797H241.778L241.78 293.309ZM237.529 293.309H235.403V292.797H237.529V293.309ZM233.278 293.309H231.152V292.797H233.278V293.309ZM229.026 293.309H226.901V292.797H229.026V293.309ZM224.772 293.309H222.646V292.797H224.772V293.309ZM220.521 293.309H218.395V292.797H220.521V293.309ZM216.269 293.309H214.144V292.797H216.269V293.309ZM212.015 293.309H209.89V292.797H212.021L212.015 293.309ZM207.764 293.309H205.638V292.797H207.764V293.309ZM203.513 293.309H201.384V292.797H203.513V293.309ZM199.258 293.309H197.133V292.797H199.258V293.309ZM195.007 293.309H192.87V292.797H194.996L195.007 293.309ZM190.753 293.309H188.627V292.797H190.753V293.309ZM186.502 293.309H184.39V292.797H186.515L186.502 293.309ZM182.25 293.309H180.125V292.797H182.25V293.309ZM177.996 293.309H175.87V292.797H177.996V293.309ZM173.745 293.309H171.619V292.797H173.745V293.309Z" fill="#B6BFCF"/>
<path d="M169.491 293.309H168.178V291.997H168.703V292.784H169.491V293.309Z" fill="#B6BFCF"/>


<path d="M168.703 289.905H168.178V287.814H168.703V289.905ZM168.703 285.725H168.178V283.636H168.703V285.725ZM168.703 281.548H168.178V279.456H168.703V281.548ZM168.703 277.367H168.178V275.276H168.703V277.367ZM168.703 273.187H168.178V271.096H168.703V273.187ZM168.703 269.007H168.178V266.919H168.703V269.007ZM168.703 264.83H168.178V262.738H168.703V264.83ZM168.703 260.65H168.178V258.558H168.703V260.65ZM168.703 256.47H168.178V254.381H168.703V256.47ZM168.703 252.292H168.178V250.201H168.703V252.292ZM168.703 248.11H168.178V246.021H168.703V248.11ZM168.703 243.932H168.178V241.844H168.703V243.932ZM168.703 239.752H168.178V237.663H168.703V239.752ZM168.703 235.572H168.178V233.472H168.703V235.572ZM168.703 231.392H168.178V229.303H168.703V231.392ZM168.703 227.215H168.178V225.126H168.703V227.215ZM168.703 223.034H168.178V220.946H168.703V223.034ZM168.703 218.854H168.178V216.766H168.703V218.854ZM168.703 214.677H168.178V212.588H168.703V214.677ZM168.703 210.497H168.178V208.406H168.703V210.497ZM168.703 206.317H168.178V204.22H168.703V206.317ZM168.703 202.14H168.178V200.048H168.703V202.14ZM168.703 197.959H168.178V195.868H168.703V197.959ZM168.703 193.779H168.178V191.688H168.703V193.779ZM168.703 189.599H168.178V187.511H168.703V189.599ZM168.703 185.422H168.178V183.33H168.703V185.422ZM168.703 181.242H168.178V179.15H168.703V181.242Z" fill="#B6BFCF"/>
<path d="M168.703 177.062H168.178V175.75H169.491V176.274H168.703V177.062Z" fill="#B6BFCF"/>
<path d="M297.062 176.274H294.936V175.75H297.062V176.274ZM292.81 176.274H290.685V175.75H292.81V176.274ZM288.556 176.274H286.433V175.75H288.559L288.556 176.274ZM284.305 176.274H282.179V175.75H284.305V176.274ZM280.053 176.274H277.928V175.75H280.053V176.274ZM275.799 176.274H273.674V175.75H275.799V176.274ZM271.548 176.274H269.422V175.75H271.548V176.274ZM267.297 176.274H265.168V175.75H267.297V176.274ZM263.043 176.274H260.917V175.75H263.043V176.274ZM258.791 176.274H256.666V175.75H258.802L258.791 176.274ZM254.537 176.274H252.411V175.75H254.537V176.274ZM250.286 176.274H248.16V175.75H250.286V176.274ZM246.034 176.274H243.909V175.75H246.034V176.274ZM241.78 176.274H239.652V175.75H241.778L241.78 176.274ZM237.529 176.274H235.403V175.75H237.529V176.274ZM233.278 176.274H231.152V175.75H233.278V176.274ZM229.026 176.274H226.901V175.75H229.026V176.274ZM224.772 176.274H222.646V175.75H224.772V176.274ZM220.521 176.274H218.395V175.75H220.521V176.274ZM216.269 176.274H214.144V175.75H216.269V176.274ZM212.015 176.274H209.89V175.75H212.021L212.015 176.274ZM207.764 176.274H205.638V175.75H207.764V176.274ZM203.513 176.274H201.384V175.75H203.513V176.274ZM199.258 176.274H197.133V175.75H199.258V176.274ZM195.007 176.274H192.87V175.75H194.996L195.007 176.274ZM190.753 176.274H188.627V175.75H190.753V176.274ZM186.502 176.274H184.39V175.75H186.515L186.502 176.274ZM182.25 176.274H180.125V175.75H182.25V176.274ZM177.996 176.274H175.87V175.75H177.996V176.274ZM173.745 176.274H171.619V175.75H173.745V176.274Z" fill="#B6BFCF"/>
<path d="M300.503 177.062H299.978V176.274H299.188V175.75H300.503V177.062Z" fill="#B6BFCF"/>
<path d="M300.504 289.905H299.979V287.814H300.504V289.905ZM300.504 285.725H299.979V283.636H300.504V285.725ZM300.504 281.548H299.979V279.456H300.504V281.548ZM300.504 277.367H299.979V275.276H300.504V277.367ZM300.504 273.187H299.979V271.096H300.504V273.187ZM300.504 269.007H299.979V266.919H300.504V269.007ZM300.504 264.83H299.979V262.738H300.504V264.83ZM300.504 260.65H299.979V258.558H300.504V260.65ZM300.504 256.47H299.979V254.381H300.504V256.47ZM300.504 252.29H299.979V250.201H300.504V252.29ZM300.504 248.11H299.979V246.021H300.504V248.11ZM300.504 243.932H299.979V241.844H300.504V243.932ZM300.504 239.752H299.979V237.663H300.504V239.752ZM300.504 235.572H299.979V233.472H300.504V235.572ZM300.504 231.392H299.979V229.303H300.504V231.392ZM300.504 227.215H299.979V225.126H300.504V227.215ZM300.504 223.034H299.979V220.946H300.504V223.034ZM300.504 218.854H299.979V216.766H300.504V218.854ZM300.504 214.677H299.979V212.586H300.504V214.677ZM300.504 210.497H299.979V208.406H300.504V210.497ZM300.504 206.317H299.979V204.22H300.504V206.317ZM300.504 202.14H299.979V200.048H300.504V202.14ZM300.504 197.959H299.979V195.868H300.504V197.959ZM300.504 193.779H299.979V191.688H300.504V193.779ZM300.504 189.599H299.979V187.511H300.504V189.599ZM300.504 185.422H299.979V183.33H300.504V185.422ZM300.504 181.242H299.979V179.15H300.504V181.242Z" fill="#B6BFCF"/>
<path d="M171.732 172.723H165.149V179.301H171.732V172.723Z" fill="#B6BFCF"/>
<path d="M302.295 173.956H298.184V178.065H302.295V173.956Z" fill="#B6BFCF"/>
<path d="M302.295 232.475H298.184V236.584H302.295V232.475Z" fill="#B6BFCF"/>
<path d="M302.295 290.993H298.184V295.102H302.295V290.993Z" fill="#B6BFCF"/>
<path d="M236.397 290.993H232.285V295.102H236.397V290.993Z" fill="#B6BFCF"/>
<path d="M170.498 290.993H166.386V295.102H170.498V290.993Z" fill="#B6BFCF"/>
<path opacity="0.1" d="M249.953 153.359L121.677 183.614L148.579 297.518L276.855 267.263L249.953 153.359Z" fill="#364766"/>
<path d="M238.588 147.248L110.312 177.503L137.214 291.408L265.49 261.153L238.588 147.248Z" fill="#F1FAFE"/>
<path d="M232.973 157.165L119.77 183.865L142.827 281.491L256.03 254.791L232.973 157.165Z" fill="#B6E4E9"/>
<path d="M215.942 188.828L169.119 275.298L256.001 254.695L245.387 209.745L215.942 188.828Z" fill="#38B9C6"/>
<path d="M161.248 215.825L137.397 258.531L142.814 281.476L225.544 261.877L161.248 215.825Z" fill="#85D2DA"/>
<path d="M191.377 196.614C191.736 198.136 191.636 199.73 191.088 201.195C190.541 202.66 189.571 203.929 188.301 204.843C187.032 205.757 185.52 206.274 183.956 206.33C182.392 206.385 180.848 205.976 179.517 205.154C178.186 204.332 177.129 203.134 176.479 201.711C175.829 200.289 175.616 198.706 175.867 197.163C176.117 195.619 176.82 194.185 177.886 193.04C178.952 191.896 180.334 191.094 181.857 190.734C182.868 190.495 183.917 190.458 184.943 190.624C185.969 190.79 186.952 191.157 187.836 191.703C188.72 192.249 189.488 192.964 190.096 193.807C190.703 194.649 191.139 195.603 191.377 196.614Z" fill="#FECE71"/>
<path d="M150.846 216.924C150.121 213.854 147.342 212.916 144.281 213.231C143.348 211.383 141.178 210.861 139.422 211.273C138.22 211.561 137.182 212.313 136.534 213.365C135.886 214.416 135.682 215.682 135.967 216.883C135.968 216.891 135.968 216.898 135.967 216.905C135.816 216.927 135.666 216.954 135.513 216.99C133.004 217.58 131.382 219.74 131.975 222.247L132.046 222.613C132.235 223.404 132.957 224.232 134.536 223.857L148.368 220.596C151 219.975 151.125 218.097 150.857 216.946L150.846 216.924Z" fill="white"/>
<path d="M163.349 224.618C162.843 222.469 160.887 221.81 158.753 222.031C158.099 220.738 156.581 220.372 155.353 220.664C154.511 220.864 153.782 221.39 153.328 222.126C152.873 222.862 152.73 223.749 152.929 224.59C152.822 224.607 152.718 224.626 152.611 224.65C152.193 224.75 151.799 224.931 151.451 225.183C151.103 225.435 150.808 225.754 150.583 226.12C150.359 226.486 150.208 226.893 150.141 227.317C150.074 227.742 150.092 228.175 150.193 228.593C150.324 229.139 150.83 229.725 151.936 229.462L161.62 227.179C163.464 226.745 163.552 225.43 163.366 224.623L163.349 224.618Z" fill="white"/>
<path d="M238.167 196.697C237.485 193.81 234.867 192.927 231.992 193.222C231.111 191.483 229.07 190.991 227.421 191.382C226.859 191.513 226.328 191.753 225.859 192.089C225.39 192.425 224.993 192.851 224.689 193.341C224.386 193.832 224.182 194.377 224.09 194.946C223.998 195.516 224.02 196.098 224.154 196.658V196.68C224.011 196.699 223.868 196.725 223.727 196.76C223.166 196.891 222.637 197.132 222.169 197.468C221.702 197.805 221.305 198.23 221.002 198.72C220.7 199.21 220.497 199.755 220.405 200.324C220.314 200.892 220.335 201.473 220.469 202.033C220.647 202.777 221.328 203.556 222.814 203.206L235.822 200.152C238.298 199.57 238.418 197.801 238.167 196.719V196.697Z" fill="white"/>
<path d="M97.3848 550.093L97.683 550.104V550.093H97.3848Z" fill="#2A2A3B"/>
<path d="M105.712 549.718H105.438L105.378 551.085H98.8398L99.0177 549.278H99.2311V549.262L99.6277 542.449H106.421L106.363 542.996L109.315 545.784L119.656 548.622C119.656 548.622 120.439 548.961 120.422 549.39L120.395 550.172L120.378 550.645C120.378 550.645 120.258 550.853 119.448 551.088H107.649L106.962 550.172L106.292 549.754L105.712 549.718Z" fill="#1A2C3D"/>
<path d="M64.6572 549.718H64.3836L64.3234 551.085H57.7822L57.9573 549.278H58.1734V549.262L59.0243 542.449H65.8199L65.7624 542.996L68.2602 545.784L78.6013 548.622C78.6013 548.622 79.3837 548.961 79.3673 549.39L79.34 550.172L79.3236 550.645C79.3236 550.645 79.2032 550.853 78.3934 551.088H66.5914L65.9047 550.172L65.2344 549.754L64.6572 549.718Z" fill="#1A2C3D"/>
<path d="M67.0318 542.977H58.0859L64.0225 474.436L68.6624 397.278H90.8466L77.6384 474.436L67.0318 542.977Z" fill="#325B87"/>
<path d="M107.762 543.206H98.8158L92.5016 473.29L81.5449 397.278H104.616L104.736 405.408L106.117 473.29L107.762 543.206Z" fill="#325B87"/>
<path d="M73.1517 307.077L91.1174 302.571L89.8617 295.925L91.4785 292.464L86.9974 288.686L82.891 277.272L65.4424 285.889L73.1517 307.077Z" fill="#F9C0B2"/>
<path d="M77.2875 316.982L82.086 316.386C83.6755 316.186 84.9722 315.511 84.7752 313.925L82.8192 298.842L72.2646 300.16L74.0511 314.469C74.0984 314.846 74.2197 315.211 74.408 315.541C74.5963 315.872 74.8479 316.162 75.1484 316.395C75.449 316.629 75.7926 316.801 76.1596 316.901C76.5266 317.002 76.9099 317.029 77.2875 316.982Z" fill="#F9C0B2"/>
<path d="M72.2651 303.112C72.2651 303.112 72.1968 301.661 72.6892 300.69C73.1816 299.72 74.5823 294.542 73.0476 293.795C71.097 292.844 71.7371 289.968 72.9053 289.675C73.4853 289.522 74.503 290.605 75.0939 290.643C75.5809 290.676 75.838 287.909 75.6739 287.636C75.3647 287.122 75.4003 286.302 75.2362 285.722C75.0501 285.102 75.7833 283.147 76.3825 282.925C77.3071 282.589 83.9386 283.248 84.7894 282.759C85.3092 282.461 85.1287 281.698 85.0055 281.118C84.8168 280.238 83.334 277.928 83.334 277.928C83.151 277.577 82.8645 277.291 82.5133 277.108L80.0976 275.877C79.856 275.751 79.5906 275.678 79.3186 275.661C79.0465 275.645 78.7741 275.686 78.5191 275.782L76.7025 278.581L76.5794 278.633L69.13 280.618C68.7768 280.779 68.4804 281.043 68.2791 281.375L64.1618 287.018C64.0303 287.234 63.9427 287.473 63.9042 287.723C63.8657 287.972 63.877 288.227 63.9375 288.472L66.2301 296.417C66.2825 296.641 66.3752 296.853 66.5036 297.043L68.7634 299.952C68.8678 300.108 68.9951 300.247 69.1409 300.365L71.6906 303.287L72.2651 303.112Z" fill="#1A2C3D"/>
<path d="M134.575 280.304L134.137 280.757L133.825 280.356L135.491 278.215L135.256 276.648L131.459 280.246L131.407 284.582L129.275 287.849L133.39 291.439L135.45 287.997L136.202 287.308L134.575 280.304Z" fill="#F9C0B2"/>
<path d="M83.3149 320.535L83.1781 319.833C82.527 317.76 85.5801 312.391 87.7222 312.036C99.869 310.029 113.942 309.028 113.942 309.028L130.663 285.143L135.056 289.995L122.102 314.234L118.688 316.998L91.5495 325.473C89.5497 326.38 84.6144 324.666 83.3149 320.535Z" fill="#0083C7"/>
<path d="M68.7874 397.97H104.798L106.076 392.073L101.151 332.835L99.8683 322.05C99.689 320.55 99.2156 319.1 98.4754 317.782C97.7351 316.465 96.7425 315.306 95.5541 314.372C94.3657 313.438 93.0048 312.747 91.5492 312.339C90.0935 311.93 88.5717 311.813 87.0705 311.992L63.77 314.365C57.4559 315.12 56.3233 327.047 57.0784 333.355L61.907 358.801L66.4894 392.155L68.7874 397.97Z" fill="#0083C7"/>
<path d="M81.0445 319.384L81.8297 319.726L84.4341 319.414L85.0415 318.775L84.653 315.527L80.6396 316.008L81.0445 319.384Z" fill="white"/>
<path d="M84.4065 319.417L85.9194 324.767L95.3878 388.122L91.5824 391.225L87.1505 389.106L81.5449 324.959L81.8294 319.726L84.4065 319.417Z" fill="white"/>
<path d="M85.9596 311.292L84.1184 309.25L84.0527 315.513L88.512 319.212L85.9596 311.292Z" fill="#66B5DD"/>
<path d="M70.916 313.638L73.5314 310.311L81.8618 315.877L76.3465 321.59L70.916 313.638Z" fill="#E9E1AA"/>
<path opacity="0.6" d="M68.9658 327.321L101.891 314.603L106.076 309.715L99.2917 310.311L90.7862 315.527L76.9953 322.118L71.2639 325.711L68.9658 327.321Z" fill="#006295"/>
<path d="M139.174 267.203L138.659 261.413L134.011 263.015L130.652 263.474L130.001 262.875L130.187 262.184L129.724 260.196L127.703 263.078L127.287 267.236L124.54 270.539L128.389 274.623L132.052 270.547L135.01 269.672L139.174 267.203Z" fill="#F9C0B2"/>
<path d="M60.3019 323.564L59.8642 322.621C58.9258 320.661 59.0434 316.139 63.1662 314.526C73.6606 310.425 97.4398 300.816 97.4398 300.816L125.892 268.428L130.556 273.127L106.148 307.153L102.463 310.371L71.0589 326.353C67.486 328.805 62.1704 327.471 60.3019 323.564Z" fill="#0083C7"/>
</g>
<defs>
<clipPath id="clip0">
<rect width="638" height="587" fill="white"/>
</clipPath>
</defs>
</svg>
