<svg width="237" height="101" viewBox="0 0 237 101" fill="none" xmlns="http://www.w3.org/2000/svg">
<g clip-path="url(#clip0)">
<path d="M164.507 54.5541C167.925 54.6693 171.412 55.3035 174.826 54.9928C177.93 54.6199 180.981 53.9387 183.936 52.9593C189.843 51.1063 195.53 48.6514 200.908 45.6331C206.222 42.7007 211.299 39.3722 216.097 35.6755C221.251 31.6932 225.708 26.8065 227.493 20.4086C227.885 19.0281 230.005 19.885 229.602 21.2568C226.066 33.4697 213.167 40.9988 202.695 46.8123C196.925 50.0518 190.757 52.5579 184.333 54.273C181.108 55.2307 177.774 55.811 174.399 56.0024C171.071 56.0785 167.783 55.4085 164.439 55.1466C164.049 55.1261 164.119 54.5436 164.507 54.5541Z" fill="#0083C7"/>
<path d="M221.24 44.2512C222.803 40.1913 223.5 35.5129 224.747 31.3113C225.372 29.2865 225.681 26.8914 226.586 24.9723C227.319 23.4257 228.765 21.9492 229.791 20.588L231.054 22.2007C226.172 24.0161 221.713 27.0759 217.145 29.551C214.683 30.8801 211.37 33.1367 208.347 32.4374C208.129 32.408 207.927 32.301 207.779 32.1361C207.631 31.9713 207.547 31.7598 207.544 31.5412C207.54 31.3226 207.616 31.1116 207.758 30.9476C207.9 30.7836 208.098 30.6778 208.316 30.6498C216.426 29.1772 222.629 23.0746 230.224 20.2527C230.436 20.1746 230.668 20.1665 230.888 20.2296C231.108 20.2928 231.303 20.4238 231.444 20.6036C231.586 20.7833 231.667 21.0023 231.675 21.2284C231.684 21.4545 231.619 21.6758 231.491 21.8598C230.3 23.4404 228.84 24.9948 228.036 26.8145C227.155 28.7964 226.591 31.0164 225.831 33.0893C224.48 36.8425 223.613 40.9339 221.92 44.5437C221.874 44.6159 221.803 44.6694 221.72 44.6952C221.638 44.7209 221.548 44.7173 221.466 44.6849C221.385 44.6525 221.316 44.5933 221.273 44.5174C221.229 44.4414 221.213 44.3534 221.227 44.2681L221.24 44.2512Z" fill="#0083C7"/>
</g>
<path d="M35.7949 70.2818C34.8775 70.2818 34.0775 70.1432 33.3949 69.8658C32.7229 69.5885 32.2162 69.2098 31.8749 68.7298L33.2029 67.4978C33.5229 67.8498 33.8962 68.1272 34.3229 68.3298C34.7602 68.5218 35.2562 68.6178 35.8109 68.6178C36.2802 68.6178 36.6482 68.5485 36.9149 68.4098C37.1815 68.2605 37.3149 68.0365 37.3149 67.7378C37.3149 67.5032 37.2242 67.3432 37.0429 67.2578C36.8615 67.1618 36.6109 67.0872 36.2909 67.0338L34.9629 66.8258C34.5895 66.7725 34.2429 66.6925 33.9229 66.5858C33.6029 66.4685 33.3255 66.3138 33.0909 66.1218C32.8562 65.9298 32.6695 65.6952 32.5309 65.4178C32.3922 65.1405 32.3229 64.8045 32.3229 64.4098C32.3229 63.5458 32.6535 62.8685 33.3149 62.3778C33.9762 61.8872 34.9042 61.6418 36.0989 61.6418C36.9095 61.6418 37.5975 61.7538 38.1629 61.9778C38.7389 62.1912 39.1975 62.5005 39.5389 62.9058L38.3549 64.2498C38.1095 63.9832 37.7949 63.7592 37.4109 63.5778C37.0269 63.3965 36.5629 63.3058 36.0189 63.3058C35.1015 63.3058 34.6429 63.5832 34.6429 64.1378C34.6429 64.3832 34.7335 64.5538 34.9149 64.6498C35.0962 64.7352 35.3469 64.8045 35.6669 64.8578L36.9789 65.0658C37.3522 65.1192 37.6989 65.2045 38.0189 65.3218C38.3389 65.4285 38.6162 65.5778 38.8509 65.7698C39.0962 65.9618 39.2882 66.1965 39.4269 66.4738C39.5655 66.7512 39.6349 67.0872 39.6349 67.4818C39.6349 68.3458 39.2989 69.0285 38.6269 69.5298C37.9655 70.0312 37.0215 70.2818 35.7949 70.2818ZM46.8766 68.5858H46.7806C46.5993 69.0552 46.3113 69.4552 45.9166 69.7858C45.5326 70.1165 45.01 70.2818 44.3486 70.2818C43.954 70.2818 43.5913 70.2178 43.2606 70.0898C42.93 69.9512 42.6473 69.7485 42.4126 69.4818C42.178 69.2152 41.9913 68.8898 41.8526 68.5058C41.7246 68.1218 41.6606 67.6792 41.6606 67.1778V61.8338H44.0286V66.8578C44.0286 67.9245 44.4926 68.4578 45.4206 68.4578C45.602 68.4578 45.778 68.4365 45.9486 68.3938C46.13 68.3405 46.2846 68.2658 46.4126 68.1698C46.5513 68.0632 46.6633 67.9352 46.7486 67.7858C46.834 67.6365 46.8766 67.4605 46.8766 67.2578V61.8338H49.2446V70.0898H46.8766V68.5858ZM51.2224 61.8338H53.5904V63.3378H53.7024C53.905 62.8472 54.1984 62.4418 54.5824 62.1218C54.9664 61.8018 55.489 61.6418 56.1504 61.6418C56.609 61.6418 57.025 61.7272 57.3984 61.8978C57.7824 62.0685 58.1077 62.3298 58.3744 62.6818C58.6517 63.0338 58.865 63.4818 59.0144 64.0258C59.1744 64.5698 59.2544 65.2152 59.2544 65.9618C59.2544 66.7085 59.1744 67.3538 59.0144 67.8978C58.865 68.4418 58.6517 68.8898 58.3744 69.2418C58.1077 69.5938 57.7824 69.8552 57.3984 70.0258C57.025 70.1965 56.609 70.2818 56.1504 70.2818C55.489 70.2818 54.9664 70.1272 54.5824 69.8178C54.1984 69.4978 53.905 69.0872 53.7024 68.5858H53.5904V73.2898H51.2224V61.8338ZM55.1264 68.4418C55.6597 68.4418 56.0704 68.2818 56.3584 67.9618C56.6464 67.6312 56.7904 67.1778 56.7904 66.6018V65.3218C56.7904 64.7458 56.6464 64.2978 56.3584 63.9778C56.0704 63.6472 55.6597 63.4818 55.1264 63.4818C54.7104 63.4818 54.3477 63.5832 54.0384 63.7858C53.7397 63.9885 53.5904 64.3085 53.5904 64.7458V67.1778C53.5904 67.6152 53.7397 67.9352 54.0384 68.1378C54.3477 68.3405 54.7104 68.4418 55.1264 68.4418ZM60.8161 61.8338H63.1841V63.3378H63.2961C63.4988 62.8472 63.7921 62.4418 64.1761 62.1218C64.5601 61.8018 65.0828 61.6418 65.7441 61.6418C66.2028 61.6418 66.6188 61.7272 66.9921 61.8978C67.3761 62.0685 67.7015 62.3298 67.9681 62.6818C68.2455 63.0338 68.4588 63.4818 68.6081 64.0258C68.7681 64.5698 68.8481 65.2152 68.8481 65.9618C68.8481 66.7085 68.7681 67.3538 68.6081 67.8978C68.4588 68.4418 68.2455 68.8898 67.9681 69.2418C67.7015 69.5938 67.3761 69.8552 66.9921 70.0258C66.6188 70.1965 66.2028 70.2818 65.7441 70.2818C65.0828 70.2818 64.5601 70.1272 64.1761 69.8178C63.7921 69.4978 63.4988 69.0872 63.2961 68.5858H63.1841V73.2898H60.8161V61.8338ZM64.7201 68.4418C65.2535 68.4418 65.6641 68.2818 65.9521 67.9618C66.2401 67.6312 66.3841 67.1778 66.3841 66.6018V65.3218C66.3841 64.7458 66.2401 64.2978 65.9521 63.9778C65.6641 63.6472 65.2535 63.4818 64.7201 63.4818C64.3041 63.4818 63.9415 63.5832 63.6321 63.7858C63.3335 63.9885 63.1841 64.3085 63.1841 64.7458V67.1778C63.1841 67.6152 63.3335 67.9352 63.6321 68.1378C63.9415 68.3405 64.3041 68.4418 64.7201 68.4418ZM74.2659 70.2818C73.6259 70.2818 73.0499 70.1858 72.5379 69.9938C72.0259 69.7912 71.5885 69.5032 71.2259 69.1298C70.8739 68.7565 70.6019 68.3032 70.4099 67.7698C70.2179 67.2365 70.1219 66.6338 70.1219 65.9618C70.1219 65.2898 70.2179 64.6872 70.4099 64.1538C70.6019 63.6205 70.8739 63.1672 71.2259 62.7938C71.5885 62.4205 72.0259 62.1378 72.5379 61.9458C73.0499 61.7432 73.6259 61.6418 74.2659 61.6418C74.9059 61.6418 75.4819 61.7432 75.9939 61.9458C76.5059 62.1378 76.9379 62.4205 77.2899 62.7938C77.6525 63.1672 77.9299 63.6205 78.1219 64.1538C78.3139 64.6872 78.4099 65.2898 78.4099 65.9618C78.4099 66.6338 78.3139 67.2365 78.1219 67.7698C77.9299 68.3032 77.6525 68.7565 77.2899 69.1298C76.9379 69.5032 76.5059 69.7912 75.9939 69.9938C75.4819 70.1858 74.9059 70.2818 74.2659 70.2818ZM74.2659 68.5218C74.7992 68.5218 75.2152 68.3565 75.5139 68.0258C75.8125 67.6952 75.9619 67.2258 75.9619 66.6178V65.3058C75.9619 64.6978 75.8125 64.2285 75.5139 63.8978C75.2152 63.5672 74.7992 63.4018 74.2659 63.4018C73.7325 63.4018 73.3165 63.5672 73.0179 63.8978C72.7192 64.2285 72.5699 64.6978 72.5699 65.3058V66.6178C72.5699 67.2258 72.7192 67.6952 73.0179 68.0258C73.3165 68.3565 73.7325 68.5218 74.2659 68.5218ZM80.2436 68.2498H82.1476V63.6738H80.2436V61.8338H84.5156V64.1698H84.6276C84.7023 63.8712 84.8036 63.5832 84.9316 63.3058C85.0703 63.0178 85.241 62.7672 85.4436 62.5538C85.657 62.3298 85.913 62.1538 86.2116 62.0258C86.5103 61.8978 86.8623 61.8338 87.2676 61.8338H88.0516V64.0098H86.2916C85.705 64.0098 85.2623 64.1858 84.9636 64.5378C84.665 64.8792 84.5156 65.3005 84.5156 65.8018V68.2498H87.2356V70.0898H80.2436V68.2498ZM94.0934 70.0898C93.24 70.0898 92.6054 69.8658 92.1894 69.4178C91.7734 68.9698 91.5654 68.3992 91.5654 67.7058V63.6738H89.3254V61.8338H90.7814C91.1334 61.8338 91.384 61.7645 91.5334 61.6258C91.6827 61.4872 91.7574 61.2312 91.7574 60.8578V58.9218H93.9334V61.8338H97.1494V63.6738H93.9334V68.2498H97.1494V70.0898H94.0934Z" fill="#476481"/>
<path d="M63.6027 31.2667C57.6163 32.5864 51.499 32.8124 45.5067 34.393C40.0972 35.7946 34.8132 37.7737 29.7266 40.3033C20.2291 45.095 10.1634 52.2241 4.76653 62.5982C0.0593485 71.6183 2.04478 81.5802 9.49789 87.659C13.7299 91.1168 18.7525 92.4172 23.7384 93.8505C29.7682 95.5403 35.9598 96.4313 42.1883 96.5056C55.5206 96.7207 68.8419 95.0232 81.8313 91.454C93.3369 88.3098 105.386 83.8967 115.133 76.1273C122.845 70.0201 130.053 59.5897 122.394 49.9361C115.787 41.6438 103.379 39.062 94.0779 37.2586C80.1023 34.5017 65.4821 34.9883 51.4657 37.5456C40.4887 39.5633 27.189 43.0092 20.8173 54.4694C20.25 55.4758 21.4502 56.7016 22.2416 55.8417C29.5075 48.0767 37.2916 44.0543 47.044 41.8711C57.8668 39.477 68.8966 38.6024 79.8804 39.2671C90.3114 39.883 100.957 41.7065 110.762 45.7859C114.786 47.4635 119.127 49.8149 121.55 54.0117C125.529 60.961 120.466 67.7382 115.705 72.1049C107.401 79.7226 96.8924 84.1156 86.7777 87.5352C75.6681 91.1599 64.2598 93.441 52.7469 94.3395C41.6636 95.3973 30.5219 94.3615 19.7826 91.275C9.77961 88.4321 -0.410704 79.1847 4.0851 66.2694C8.204 54.438 19.6124 46.1915 29.345 41.0415C34.5483 38.3157 39.9726 36.1739 45.5385 34.6474C51.2704 33.0447 57.7405 31.3292 63.6302 31.6052C63.65 31.6029 63.6692 31.5962 63.6867 31.5856C63.7043 31.575 63.7198 31.5606 63.7325 31.5433C63.7452 31.526 63.7548 31.506 63.7607 31.4846C63.7665 31.4632 63.7686 31.4408 63.7668 31.4186C63.765 31.3963 63.7594 31.3748 63.7501 31.3551C63.7409 31.3355 63.7283 31.3181 63.7131 31.304C63.6978 31.2899 63.6803 31.2793 63.6613 31.2729C63.6424 31.2665 63.6225 31.2644 63.6027 31.2667Z" fill="#0083C7"/>
<defs>
<clipPath id="clip0">
<rect width="68" height="40" fill="white" transform="matrix(0.601815 -0.798635 -0.798635 -0.601815 196 79)"/>
</clipPath>
</defs>
</svg>
