<svg width="609" height="412" viewBox="0 0 609 412" fill="none" xmlns="http://www.w3.org/2000/svg">
<g opacity="0.4">
<g opacity="0.2">
<path opacity="0.2" d="M434.983 409.288C415.533 409.184 379.691 411.27 384.116 400.704C388.541 390.137 411.886 400.484 431.026 396.943C450.165 393.403 467.488 389.344 487.061 394.564C506.635 399.783 501.312 405.795 492.723 407.492C476.935 410.611 474.135 411.958 464.982 410.244C438.192 405.238 442.553 409.338 434.983 409.288Z" fill="#005386"/>
</g>
</g>
<path opacity="0.2" d="M164.869 406.246C146.446 406.162 112.495 407.832 116.687 399.37C120.879 390.907 142.991 399.191 161.119 396.362C179.246 393.532 195.657 390.273 214.197 394.454C232.736 398.636 227.695 403.451 219.559 404.812C204.605 407.319 201.953 408.393 193.283 407.016C167.909 403.001 172.04 406.28 164.869 406.246Z" fill="#005386"/>
<g opacity="0.4">
<g opacity="0.2">
<path opacity="0.2" d="M323.625 409.63C302.382 409.546 263.235 411.217 268.067 402.753C272.899 394.288 298.399 402.573 319.307 399.744C340.215 396.915 359.135 393.656 380.512 397.839C401.889 402.022 396.076 406.835 386.695 408.194C369.452 410.692 366.394 411.776 356.397 410.4C327.131 406.384 331.895 409.663 323.625 409.63Z" fill="#005386"/>
</g>
</g>
<path opacity="0.2" d="M346.205 409.63C268.434 409.546 125.111 411.217 142.805 402.753C160.499 394.288 253.854 402.573 330.386 399.744C406.917 396.915 476.19 393.656 554.454 397.839C632.718 402.022 611.438 406.835 577.096 408.194C513.964 410.692 502.77 411.776 466.169 410.4C359.037 406.384 376.478 409.663 346.205 409.63Z" fill="#005D92"/>
<path d="M149.928 110.256H0V117.096H149.928V110.256Z" fill="#3D95D1"/>
<path d="M149.928 116.065H0V208.975H149.928V116.065Z" fill="white"/>
<g opacity="0.1">
<path opacity="0.1" d="M136.316 186.002H13.6143V195.571H136.316V186.002Z" fill="#99B6CA"/>
<path opacity="0.1" d="M136.316 167.945H13.6143V177.514H136.316V167.945Z" fill="#99B6CA"/>
<path opacity="0.1" d="M136.316 148.511H13.6143V158.08H136.316V148.511Z" fill="#99B6CA"/>
<path opacity="0.1" d="M136.316 129.468H13.6143V139.037H136.316V129.468Z" fill="#99B6CA"/>
</g>
<path opacity="0.8" d="M19.9854 195.322L25.1452 184.992L33.4528 178.977L42.2639 162.983L50.0646 155.93L58.3722 162.004L66.6781 177.697L75.1147 169.897L83.2898 149.301L92.0848 142.062L99.511 149.896L108.209 162.004L116.517 175.297L124.823 172.33L130.344 195.571L19.9854 195.322Z" fill="#76BEEA"/>
<path d="M19.9854 195.415L25.1452 188.948L33.4528 185.182L42.2639 175.167L50.0646 170.751L58.3722 174.554L66.6781 184.38L75.1147 179.497L83.2898 166.602L92.0848 162.068L99.511 166.975L108.209 174.554L116.517 182.877L124.823 181.02L130.344 195.571L19.9854 195.415Z" fill="#FAA634"/>
<path d="M214.61 0H93.8115V6.84021H214.61V0Z" fill="#3D95D1"/>
<path d="M214.61 6.83984H93.8115V85.1495H214.61V6.83984Z" fill="white"/>
<path d="M131.907 46.8683V23.3394C127.25 23.3394 122.698 24.7195 118.827 27.3051C114.955 29.8908 111.937 33.5659 110.155 37.8657C108.373 42.1654 107.907 46.8968 108.816 51.4613C109.724 56.0259 111.967 60.2186 115.26 63.5094C118.552 66.8001 122.748 69.0411 127.315 69.9488C131.882 70.8565 136.616 70.3903 140.918 68.6091C145.22 66.8278 148.896 63.8115 151.483 59.9417C154.07 56.0719 155.451 51.5223 155.45 46.8683C155.45 46.7125 155.429 46.5603 155.427 46.4045L131.907 46.8683Z" fill="#005D92"/>
<path d="M158.736 43.4621C158.618 37.3056 156.088 31.441 151.691 27.1282C147.293 22.8155 141.379 20.3987 135.218 20.397V43.9277L158.736 43.4621Z" fill="#FAA634"/>
<path d="M181.002 23.3394H172.825V31.5118H181.002V23.3394Z" fill="#FAA634"/>
<path opacity="0.7" d="M203.377 23.3394H184.645V25.1962H203.377V23.3394Z" fill="#99B6CA"/>
<path opacity="0.7" d="M195.74 26.4956H184.645V28.3525H195.74V26.4956Z" fill="#99B6CA"/>
<path d="M181.002 38.6953H172.825V46.8678H181.002V38.6953Z" fill="#76BEEA"/>
<path opacity="0.7" d="M203.377 38.6953H184.645V40.5522H203.377V38.6953Z" fill="#99B6CA"/>
<path opacity="0.7" d="M195.74 41.854H184.645V43.7109H195.74V41.854Z" fill="#99B6CA"/>
<path d="M546.554 38.9966H237.628V229.321H546.554V38.9966Z" fill="white"/>
<path d="M546.554 32.541H237.628V39.3812H546.554V32.541Z" fill="#3D95D1"/>
<path d="M320.482 287.921H276.05L269.301 256.277C269.193 255.77 269.2 255.245 269.32 254.74C269.441 254.236 269.673 253.765 269.999 253.362C270.326 252.959 270.738 252.633 271.206 252.41C271.674 252.186 272.186 252.069 272.705 252.069H310.021C310.818 252.069 311.591 252.343 312.211 252.844C312.83 253.346 313.259 254.045 313.425 254.825L320.482 287.921Z" fill="#0F6698"/>
<path d="M285.445 322.708L277.496 287.405L278.874 287.094L286.823 322.396L285.445 322.708Z" fill="#002F49"/>
<path d="M326.833 322.708L318.884 287.405L320.26 287.094L328.209 322.396L326.833 322.708Z" fill="#002F49"/>
<path d="M286.591 325.702L277.123 401.458L278.524 401.633L287.992 325.877L286.591 325.702Z" fill="#002F49"/>
<path d="M344.929 325.705L343.524 325.844L351.051 401.609L352.456 401.47L344.929 325.705Z" fill="#002F49"/>
<path d="M349.887 331.696H281.597C280.951 331.696 280.331 331.44 279.874 330.983C279.417 330.526 279.16 329.907 279.16 329.261C279.16 327.396 279.902 325.607 281.221 324.288C282.541 322.969 284.331 322.228 286.198 322.228H345.288C347.154 322.228 348.944 322.969 350.263 324.288C351.583 325.607 352.324 327.396 352.324 329.261C352.324 329.907 352.067 330.526 351.61 330.983C351.153 331.44 350.533 331.696 349.887 331.696Z" fill="#0F6698"/>
<g opacity="0.8">
<path opacity="0.2" d="M512.262 183.609H271.829V198.135H512.262V183.609Z" fill="#99B6CA"/>
<path opacity="0.2" d="M512.262 154.556H271.829V169.082H512.262V154.556Z" fill="#99B6CA"/>
<path opacity="0.2" d="M512.262 125.505H271.829V140.03H512.262V125.505Z" fill="#99B6CA"/>
<path opacity="0.2" d="M512.262 96.4536H271.829V110.979H512.262V96.4536Z" fill="#99B6CA"/>
<path opacity="0.2" d="M512.262 67.4009H271.829V81.9265H512.262V67.4009Z" fill="#99B6CA"/>
</g>
<path d="M298.8 176.03H277.442V198.133H298.8V176.03Z" fill="#3D95D1"/>
<path d="M402.726 150.001H381.368V198.135H402.726V150.001Z" fill="#3D95D1"/>
<path d="M437.365 86.5288H416.008V198.133H437.365V86.5288Z" fill="#3D95D1"/>
<path d="M472.009 132.001H450.651V198.135H472.009V132.001Z" fill="#3D95D1"/>
<path d="M506.649 155.55H485.291V198.135H506.649V155.55Z" fill="#3D95D1"/>
<path d="M333.443 134.235H312.085V198.135H333.443V134.235Z" fill="#3D95D1"/>
<path d="M368.082 132.001H346.725V198.135H368.082V132.001Z" fill="#3D95D1"/>
<path d="M272.054 67.4033H271.604V198.135H272.054V67.4033Z" fill="#54656F"/>
<path d="M512.352 197.91H271.829V198.357H512.352V197.91Z" fill="#003E65"/>
<path d="M274.767 181.937L274.556 181.022L294.595 176.42L328.186 135.207H364.661L364.768 135.267L397.551 153.908L432.15 89.9072L467.3 135.774L500.423 157.299H517.601V158.24H500.142L466.603 136.41L432.287 91.6334L397.922 155.203L364.412 136.147H328.633L295.12 177.263L294.962 177.299L274.767 181.937Z" fill="#FAA634"/>
<path d="M408.677 254.875L404.569 255.738L402.297 256.633C402.297 256.633 401.369 257.21 401.084 257.433C400.974 257.518 400.894 257.637 400.857 257.772C400.857 257.772 400.857 257.79 400.857 257.799C400.843 257.869 400.847 257.941 400.867 258.009C400.888 258.078 400.925 258.14 400.975 258.191C401.224 258.456 401.745 258.37 402.587 257.929L403.028 257.774L403.129 257.736L403.994 257.636V257.65L404.433 257.666L402.756 258.902C402.738 259.04 402.677 259.908 403.731 261.317C403.731 261.317 405.149 263.251 406.855 263.776L410.913 260.954L412.536 259.029L422.223 251.208L418.64 246.715L408.677 254.875Z" fill="#F8C0AE"/>
<path d="M400.423 265.218L400.305 265.315C400.19 265.41 400.117 265.546 400.103 265.695C400.089 265.843 400.134 265.991 400.229 266.106C400.325 266.221 400.461 266.293 400.61 266.308C400.758 266.322 400.906 266.276 401.021 266.181L401.179 266.052L405.69 262.612L404.732 261.672L400.432 265.216L400.423 265.218Z" fill="#F8C0AE"/>
<path d="M402.691 265.644C402.631 265.69 402.581 265.749 402.544 265.815C402.507 265.882 402.484 265.955 402.476 266.03C402.468 266.106 402.475 266.183 402.498 266.255C402.52 266.328 402.557 266.396 402.606 266.454C402.655 266.512 402.715 266.559 402.783 266.594C402.851 266.628 402.925 266.648 403.001 266.653C403.077 266.658 403.153 266.647 403.225 266.622C403.297 266.596 403.363 266.557 403.419 266.505L403.684 266.281L407.088 263.613L405.87 262.784L402.901 265.47L402.691 265.644Z" fill="#F8C0AE"/>
<path d="M398.547 264.313C398.441 264.407 398.374 264.537 398.359 264.678C398.345 264.82 398.384 264.961 398.47 265.074C398.555 265.187 398.68 265.264 398.82 265.289C398.959 265.314 399.103 265.285 399.223 265.209L399.672 264.89L404.601 261.563L403.671 260.31L398.605 264.261L398.547 264.313Z" fill="#F8C0AE"/>
<path d="M398.214 262.091L397.893 262.309C397.829 262.35 397.774 262.403 397.731 262.465C397.688 262.527 397.658 262.598 397.643 262.672C397.627 262.746 397.627 262.822 397.642 262.897C397.657 262.971 397.686 263.041 397.729 263.104C397.772 263.166 397.827 263.22 397.89 263.261C397.954 263.301 398.026 263.329 398.1 263.342C398.175 263.355 398.251 263.352 398.325 263.335C398.399 263.317 398.468 263.285 398.529 263.24L398.685 263.135L403.533 260.062L402.908 258.796L398.214 262.091Z" fill="#F8C0AE"/>
<path d="M442.168 200.663C440.924 202.692 439.738 205.856 439.738 205.856L426.701 237.871L410.295 252.43L415.79 258.434L434.207 244.109L435.488 242.428C435.488 242.428 451.577 214.483 450.233 202.269C450.07 200.776 449.379 198.027 447.417 197.286C444.885 196.326 444.423 196.982 442.168 200.663Z" fill="#FAA634"/>
<path d="M442.015 268.7L476.907 268.953C476.907 268.953 477.605 267.764 477.534 265.014C477.534 265.014 479.505 264.075 479.401 262.191C478.947 254.058 478.852 242.853 478.809 238.347C478.745 231.393 480.812 207.149 480.812 207.149C480.748 200.182 477.747 194.753 470.779 194.817L465.688 194.805L461.667 194.794L457.663 194.783L449.504 194.762C442.533 194.828 441.232 204.87 441.297 211.837C441.297 211.837 442.193 226.341 442.134 236.143C442.105 240.869 440.951 259.762 440.96 262.166C440.96 263.946 442.214 264.17 442.194 264.811C442.153 266.163 442.015 268.7 442.015 268.7Z" fill="#FAA634"/>
<path d="M473.544 394.759L474.15 398.955L477.805 402.848V404.223H466.808L466.625 401.977L467.207 399.322L467.017 394.722L473.544 394.759Z" fill="#004165"/>
<path d="M427.128 394.019L426.203 397.416L416.573 402.847V404.222H433.287L433.914 401.713L433.25 398.614L433.705 394.646L427.128 394.019Z" fill="#004165"/>
<path d="M430.208 405.001L429.943 405.01V405.001H430.208Z" fill="#2A2A3B"/>
<path d="M477.912 265.25H457.337L457.869 271.019L462.662 334.277L466.625 398.6L475.767 398.339L479.014 290.707L477.912 265.25Z" fill="#005687"/>
<path d="M425.244 397.148L434.258 397.907L448.47 333.645L462.045 269.401V265.25H441.963L439.068 288.254L434.926 332.209L425.244 397.148Z" fill="#005687"/>
<path d="M466.454 190.546L462.776 190.46L452.822 190.228L452.005 182.27L450.315 181.912L452.58 176.494L452.655 172.017C452.938 169.558 455.086 167.051 457.546 167.334L460.116 167.63C461.42 167.78 462.682 168.185 463.83 168.823C464.978 169.461 465.988 170.318 466.805 171.346C467.621 172.374 468.226 173.553 468.587 174.815C468.947 176.077 469.055 177.398 468.905 178.701L466.454 190.546Z" fill="#F9C0B2"/>
<path d="M461.658 199.51C461.036 199.507 460.421 199.382 459.847 199.141C459.274 198.9 458.754 198.549 458.316 198.107C457.879 197.665 457.532 197.142 457.297 196.566C457.062 195.99 456.943 195.374 456.946 194.753L457 188.808L466.472 188.856L466.418 194.801C466.415 195.423 466.29 196.037 466.049 196.611C465.808 197.184 465.457 197.704 465.014 198.141C464.572 198.579 464.048 198.925 463.473 199.159C462.897 199.394 462.28 199.514 461.658 199.51Z" fill="#F9C0B2"/>
<path d="M456.586 165.873C460.762 164.428 466.528 166.155 466.918 170.559L468.242 171.023C469.496 171.444 471.051 173.482 470.815 174.784L470.277 177.903L468.335 181.484C468.335 181.484 468.246 181.436 467.552 180.182L466.925 178.533C466.925 178.533 467.104 177.568 467.06 177.249C467.018 176.99 466.682 176.401 466.418 176.413C466.049 176.433 465.94 176.95 465.94 176.95L465.558 178.146C465.415 178.2 465.258 178.207 465.111 178.165C464.963 178.123 464.833 178.035 464.74 177.914L464.439 176.177C464.439 176.177 464.118 174.148 464.618 172.805C464.618 172.805 460.723 169.725 456.796 170.581C452.868 171.437 450.613 172.268 450.315 164.806C450.315 164.799 452.408 167.318 456.586 165.873Z" fill="#002F49"/>
<path d="M456.991 190.324L456.982 191.517L461.467 190.324H456.991Z" fill="#BB9085"/>
<path d="M467.561 194.801L466.431 193.422L462.305 197.655L464.596 200.95L467.561 194.801Z" fill="#FDDBAE"/>
<path d="M462.305 197.655V200.452L463.844 199.867L462.305 197.655Z" fill="#FAA634"/>
<path d="M455.628 194.801L456.758 193.422L460.885 197.655L458.729 200.755L455.628 194.801Z" fill="#FDDBAE"/>
<path d="M460.885 197.655V200.452L459.346 199.867L460.885 197.655Z" fill="#FAA634"/>
<path d="M460.707 200.95H462.305L463.688 199.643L463.007 198.664L462.514 197.957H460.685L460.15 198.732L459.522 199.616L460.707 200.95Z" fill="#3D95D1"/>
<path d="M462.305 200.95L464.933 256.309L460.112 260.695L455.345 256.084L460.707 200.95H462.305Z" fill="#3D95D1"/>
<path d="M461.642 200.95C461.642 200.95 461.88 201.917 461.746 202.204C461.708 202.264 461.659 202.316 461.601 202.358C461.543 202.399 461.477 202.428 461.407 202.444C461.337 202.43 461.27 202.401 461.212 202.36C461.153 202.319 461.104 202.265 461.067 202.204C460.951 201.905 461.334 200.95 461.334 200.95H461.642Z" fill="#005D92"/>
<path d="M475.972 268.715L471.976 271.361L470.058 272.873C470.058 272.873 469.341 273.691 469.126 273.988C469.043 274.101 469 274.237 469.004 274.377C469.004 274.377 469.004 274.395 469.013 274.404C469.02 274.474 469.044 274.543 469.083 274.602C469.123 274.661 469.176 274.71 469.239 274.744C469.554 274.923 470.027 274.697 470.706 274.028L471.084 273.752L471.17 273.687L471.971 273.342V273.356L472.396 273.247L471.142 274.91C471.165 275.046 471.357 275.899 472.768 276.946C472.768 276.946 474.684 278.393 476.466 278.406L478.338 275.879L480.273 271.472L484.835 263.225L479.781 260.718L475.972 268.715Z" fill="#F8C0AE"/>
<path d="M470.726 281.629L470.64 281.756C470.566 281.88 470.543 282.027 470.574 282.167C470.606 282.307 470.69 282.43 470.81 282.51C470.93 282.59 471.075 282.622 471.217 282.597C471.359 282.573 471.487 282.496 471.573 282.381L471.686 282.212L475.024 277.625L473.836 277L470.724 281.629H470.726Z" fill="#F8C0AE"/>
<path d="M473.019 281.389C472.937 281.514 472.908 281.666 472.939 281.812C472.969 281.958 473.057 282.086 473.182 282.168C473.307 282.249 473.459 282.278 473.605 282.247C473.751 282.217 473.879 282.13 473.961 282.005L474.151 281.715L476.639 278.185L475.233 277.741L473.162 281.168L473.019 281.389Z" fill="#F8C0AE"/>
<path d="M468.665 281.308C468.597 281.428 468.576 281.568 468.604 281.702C468.632 281.836 468.708 281.955 468.819 282.037C468.929 282.119 469.065 282.158 469.202 282.146C469.338 282.135 469.466 282.074 469.561 281.975L469.901 281.539L473.664 276.941L472.41 276.012L468.69 281.249L468.665 281.308Z" fill="#F8C0AE"/>
<path d="M467.708 279.267L467.465 279.568C467.418 279.625 467.382 279.691 467.361 279.762C467.34 279.834 467.332 279.908 467.34 279.982C467.347 280.056 467.369 280.128 467.404 280.193C467.439 280.259 467.487 280.317 467.545 280.364C467.602 280.411 467.668 280.446 467.739 280.467C467.811 280.489 467.885 280.496 467.959 280.489C468.033 280.481 468.105 280.459 468.17 280.424C468.236 280.389 468.294 280.341 468.341 280.284L468.461 280.137L472.223 275.806L471.263 274.771L467.71 279.272L467.708 279.267Z" fill="#F8C0AE"/>
<path d="M470.582 201.532C471.109 203.859 472.467 206.943 472.467 206.943L485.457 242.756L476.141 266.956L482.571 269.38L495.27 244.451L495.397 241.692C495.397 241.692 486.977 204.86 477.481 197.048C476.32 196.094 473.898 194.607 471.983 195.436C469.5 196.527 469.627 197.327 470.582 201.532Z" fill="#FAA634"/>
<path d="M472.224 267.558C472.224 267.558 470.529 272.763 477.378 280.488V288.451H464.934V267.558H472.224Z" fill="#005687"/>
<path d="M185.845 383.229L185.816 394.313L187.814 395.391L193.909 398.124V399.561L180.862 399.622L179.855 398.292L180.094 383.347L185.845 383.229Z" fill="#F79C8C"/>
<path d="M189.062 395.371L187.396 394.745L186.484 396.714L181.346 395.932L179.787 394.908L179.328 398.358C179.314 398.596 179.371 398.833 179.493 399.039L179.663 399.33C179.769 399.511 179.921 399.66 180.103 399.764C180.284 399.867 180.49 399.922 180.699 399.921H197.628C197.628 399.921 198.269 399.071 198.045 398.915C197.304 398.415 189.062 395.371 189.062 395.371Z" fill="#005D92"/>
<path d="M186.287 386.588H178.932L177.039 338.449L172.074 276.203L172.562 270.683L192.413 273.601L191.839 278.056L188.322 338.449L186.287 386.588Z" fill="#005D92"/>
<path d="M135.206 380.122L131.217 390.465L132.696 392.185L137.412 396.913L136.9 398.256L124.692 393.654L124.228 392.053L129.792 378.179L135.206 380.122Z" fill="#F79C8C"/>
<path d="M133.868 392.619L132.537 391.439L130.978 392.956L126.46 390.39L125.369 388.877L123.708 391.935C123.61 392.153 123.579 392.395 123.618 392.63L123.674 392.963C123.709 393.169 123.797 393.363 123.929 393.525C124.062 393.687 124.235 393.811 124.43 393.885L126.82 394.799L131.806 396.706L140.241 399.929C140.241 399.929 141.137 399.363 140.99 399.137C140.483 398.392 133.868 392.619 133.868 392.619Z" fill="#005D92"/>
<path d="M134.428 385.25L127.399 382.412L147.008 331.723L153.972 279.644L152.371 273.721L155.757 270.043L156.411 266.911L176.314 270.682L175.839 275.313L159.114 333.775L134.428 385.25Z" fill="#005D92"/>
<path d="M179.322 201.398L198.245 203.247L203.996 206.551L205.044 213.495L203.512 220.581L191.868 251.406L168.742 246.407L168.869 217.848L170.231 204.959L172.888 202.671L176.17 201.032L179.322 201.398Z" fill="#F79C8C"/>
<path d="M183.961 208.684C183.404 206.462 183.766 201.032 183.766 201.032L172.848 200.211C168.45 199.596 163.763 203.118 163.822 208.403L164.485 222.651L161.36 244.744L156.362 263.414L154.212 270.086C154.212 270.086 163.788 275.066 167.249 275.963C186.726 281.006 194.783 275.376 194.783 275.376L195.829 250.962L197.692 241.767L206.93 217.127C208.085 211.791 211.708 204.771 203.502 203.358L196.605 202.239L194.423 211.148C193.441 214.613 191.103 218.631 188.546 217.685C185.26 216.466 184.603 211.241 183.961 208.684Z" fill="#76BEEA"/>
<path d="M187.122 195.995L200.745 196.396L201.184 191.459L203.014 189.343L200.609 185.788L199.989 176.925L185.855 177.913L187.122 195.995Z" fill="#F79C8C"/>
<path d="M187.421 204.465L191.218 205.264C191.473 205.318 191.737 205.321 191.995 205.273C192.252 205.225 192.497 205.127 192.716 204.984C192.935 204.842 193.124 204.657 193.272 204.442C193.419 204.226 193.523 203.983 193.577 203.727L195.811 193.147L188.118 191.522L185.884 202.105C185.83 202.361 185.827 202.625 185.875 202.882C185.923 203.139 186.021 203.384 186.163 203.603C186.306 203.823 186.491 204.011 186.706 204.159C186.922 204.307 187.165 204.411 187.421 204.465Z" fill="#F79C8C"/>
<path d="M199.563 175.512C198.87 175.061 197.981 174.49 197.386 174.379C196.321 174.043 195.212 173.862 194.095 173.842C194.02 173.827 193.944 173.818 193.868 173.815H193.76C193.581 173.815 193.441 173.836 193.273 173.844C193.176 173.844 193.079 173.858 192.963 173.867C192.608 173.888 192.255 173.929 191.906 173.99C189.238 174.37 184.739 175.555 184.291 179.246C183.946 182.098 176.681 182.688 175.118 186.858C173.556 191.028 176.253 192.466 179.339 196.155C182.426 199.844 189.252 198.56 191.621 193.687C192.71 191.449 189.292 187.332 190.098 185.724C190.904 184.116 193.705 185.904 194.283 181.001C194.314 180.752 194.348 180.535 194.389 180.322C195.093 180.095 195.976 180.422 197.39 180.082C197.594 180.034 198.184 180.019 198.535 179.885C200.04 179.314 199.715 178.352 199.715 178.352C200.088 178.762 199.816 179.292 199.491 179.694C199.734 179.657 199.974 179.601 200.208 179.527C202.363 178.469 201.36 176.685 199.563 175.512Z" fill="#005D92"/>
<path d="M251.091 212.505L253.805 209.998L255.609 208.83C255.609 208.83 256.505 208.46 256.802 208.37C256.919 208.332 257.044 208.332 257.161 208.37L257.18 208.385C257.237 208.41 257.287 208.45 257.325 208.5C257.363 208.549 257.389 208.607 257.399 208.669C257.463 208.983 257.137 209.312 256.392 209.688L256.055 209.924L255.976 209.978L255.46 210.546H255.473L255.262 210.868L257.001 210.297C257.109 210.354 257.764 210.754 258.237 212.227C258.237 212.227 258.899 214.229 258.406 215.717L255.457 216.985L252.535 217.479L247.006 221.159L244.299 216.953L251.091 212.505Z" fill="#F79C8C"/>
<path d="M262.713 211.871L262.844 211.837C262.907 211.82 262.972 211.816 263.036 211.824C263.101 211.833 263.162 211.854 263.219 211.886C263.275 211.919 263.324 211.962 263.363 212.013C263.403 212.064 263.432 212.123 263.449 212.186C263.466 212.248 263.47 212.313 263.462 212.378C263.453 212.442 263.432 212.504 263.4 212.56C263.367 212.616 263.324 212.665 263.273 212.705C263.222 212.744 263.163 212.773 263.1 212.79L262.921 212.836L258.154 214.314L257.975 213.148L262.712 211.869L262.713 211.871Z" fill="#F79C8C"/>
<path d="M261.864 213.71C261.989 213.685 262.118 213.709 262.226 213.777C262.333 213.844 262.411 213.951 262.442 214.074C262.474 214.197 262.457 214.327 262.395 214.438C262.333 214.549 262.231 214.632 262.11 214.67L261.814 214.747L258.17 215.821L258.199 214.525L261.64 213.771L261.864 213.71Z" fill="#F79C8C"/>
<path d="M263.023 210.065C263.147 210.028 263.281 210.042 263.395 210.102C263.509 210.163 263.595 210.266 263.634 210.389C263.673 210.512 263.662 210.646 263.604 210.761C263.546 210.877 263.445 210.965 263.322 211.006L263.281 211.019L257.906 212.912L257.548 211.696L262.966 210.084L263.023 210.065Z" fill="#F79C8C"/>
<path d="M261.599 208.693L261.921 208.575C262.044 208.531 262.18 208.537 262.298 208.593C262.416 208.648 262.508 208.748 262.553 208.871C262.598 208.993 262.593 209.129 262.539 209.248C262.485 209.367 262.386 209.459 262.263 209.506L262.108 209.563L257.433 211.474L256.844 210.381L261.601 208.7L261.599 208.693Z" fill="#F79C8C"/>
<path opacity="0.1" d="M255.271 210.89L254.829 212.471L253.295 213.737L255.022 212.483L255.525 210.777L255.271 210.89Z" fill="#1A2C3D"/>
<path d="M249.909 220.011L246.437 215.035L225.164 227.863C225.164 227.863 214.951 214.086 207.366 204.959C206.268 203.639 203.197 203.177 201.077 205.305C199.309 207.081 198.813 210.986 199.823 213.183C200.853 215.427 206.104 221.15 207.452 222.788C214.353 231.174 222.322 238.924 222.322 238.924L225.529 239.298L249.909 220.011Z" fill="#76BEEA"/>
<path d="M173.908 284.868L174.759 285.192H176.314L175.189 283.047L174.458 280.646L172.895 278.545L169.757 270.683L164.262 271.539L167.519 278.635L164.844 282.986L162.133 284.578L161.933 285.135H168.461L171.743 283.008L172.465 282.923L173.017 283.706L173.908 284.868Z" fill="#F79C8C"/>
<path d="M174.721 206.818C174.721 209.196 174.341 211.411 173.825 212.85C170.998 220.647 159.991 242.512 159.991 242.512L171.333 272.974L164.781 275.288L149.732 243.841L149.465 241.37C149.465 241.37 160.062 214.965 165.351 203.682C165.989 202.323 168.164 200.395 170.238 200.703C172.913 201.098 174.728 203.618 174.721 206.818Z" fill="#81C3EB"/>
<path d="M335.16 405.123H334.924L334.872 406.303H329.218L329.372 404.74H329.551V404.724L330.843 398.979H336.712L336.837 399.735L338.271 401.721L346.843 404.172C346.843 404.172 347.521 404.468 347.506 404.838L347.483 405.515L347.469 405.924C347.469 405.924 347.365 406.103 346.664 406.305H336.83L336.237 405.515L335.659 405.157L335.16 405.123Z" fill="#005386"/>
<path d="M372.193 401.997H371.956L371.904 403.177H366.252L366.404 401.614H366.583V401.597L367.875 395.853H373.744L373.87 396.609L375.303 398.595L383.878 401.046C383.878 401.046 384.553 401.341 384.541 401.71L384.516 402.389L384.501 402.795C384.501 402.795 384.397 402.974 383.697 403.179H373.864L373.27 402.389L372.691 402.031L372.193 401.997Z" fill="#005386"/>
<path d="M366.626 396.963L353.581 327.671L292.71 322.138V311.489L325.718 311.962L325.86 312.974L361.151 315.667L365.178 320.147L374.635 395.844L366.626 396.963Z" fill="#65B2E3"/>
<path d="M326.349 314.422L334.093 317.382L335.418 320.007L338.364 399.526L329.626 400.04L321.304 326.962L288.507 322.707L287.305 316.544L288.546 313.622L288.426 311.46L326.028 311.702L326.349 314.422Z" fill="#76BEEA"/>
<path d="M361.152 283.815L358.556 282.046L355.209 280.458L351.9 281.485L346.498 281.156L346.013 284.692L351.205 285.092L353.602 285.179H355.193L356.581 285.248H357.088H360.528L361.152 283.815Z" fill="#F9C0B2"/>
<path d="M355.352 285.325H363.795C363.795 285.325 363.975 284.788 363.778 284.63C362.631 283.761 358.234 282.277 358.234 282.277C358.089 282.225 357.936 282.198 357.781 282.198H356.009C355.801 282.199 355.595 282.248 355.409 282.341C355.222 282.434 355.06 282.569 354.934 282.735C354.934 282.735 354.253 283.513 354.119 283.824C354.029 284.034 353.999 284.54 354.119 284.736C354.295 285.029 355.352 285.325 355.352 285.325Z" fill="white"/>
<path d="M354.111 283.83C354.245 283.518 354.926 282.741 354.926 282.741C355.052 282.575 355.214 282.44 355.401 282.346C355.587 282.253 355.793 282.204 356.001 282.204H356.68C356.47 282.203 356.263 282.252 356.075 282.345C355.887 282.438 355.723 282.574 355.596 282.741C355.596 282.741 354.917 283.518 354.783 283.83C354.693 284.039 354.661 284.546 354.783 284.741C354.962 285.029 356.023 285.325 356.023 285.325H355.343C355.343 285.325 354.286 285.029 354.102 284.741C353.991 284.548 354.021 284.039 354.111 283.83Z" fill="#D1D3D4"/>
<path d="M355.208 280.458L359.105 281.074L361.999 283.043C361.999 283.043 361.927 283.537 361.789 283.593C361.013 283.905 358.77 282.15 358.77 282.15L355.724 282.173C355.611 282.173 355.499 282.147 355.398 282.097C355.296 282.048 355.207 281.975 355.138 281.885C355.068 281.796 355.021 281.692 354.998 281.581C354.976 281.47 354.979 281.355 355.008 281.245L355.208 280.458Z" fill="#F9C0B2"/>
<path d="M357.797 284.238L355.004 283.971L353.831 283.47L352.82 285.151L356.274 285.33C356.962 285.373 357.652 285.38 358.34 285.353C358.571 285.334 358.605 284.585 358.462 284.403C358.356 284.263 357.797 284.238 357.797 284.238Z" fill="#F9C0B2"/>
<path d="M324.73 285.323L322.225 283.632L315.582 247.868L317.585 244.625L321.028 244.586L323.062 246.98L328.845 278.842L349.475 280.952L348.415 285.197L324.73 285.323Z" fill="#3A8DC6"/>
<path d="M289.245 312.541H325.582V310.797L326.673 307.74L325.551 302.952C325.551 302.952 324.213 301.741 324.064 293.03C323.96 286.883 322.488 275.933 322.507 267.879C322.54 255.369 324.69 252.952 322.911 246.146C321.68 241.438 316.685 240.237 314.685 239.769C308.773 238.398 294.75 239.297 294.75 239.297C283.225 241.155 279.753 249.032 282.042 266L286.118 293.947L285.749 303.654L285.457 307.461L288.601 310.58L289.245 312.541Z" fill="#3D95D1"/>
<path d="M299.891 234.789L303.38 235.341L313.121 235.805L314.964 229.462L316.168 229.425L315.417 223.902L316.12 219.653C316.276 217.282 314.686 214.545 312.307 214.389L309.829 214.226C308.57 214.143 307.308 214.309 306.113 214.714C304.918 215.119 303.815 215.756 302.867 216.587C301.918 217.419 301.143 218.429 300.586 219.56C300.028 220.691 299.699 221.921 299.617 223.179L299.891 234.789Z" fill="#F9C0B2"/>
<path d="M303.27 242.21H305.314C307.016 242.21 307.753 240.049 307.779 238.931L307.731 233.225L299.918 233.262L299.966 238.971C300.04 239.778 301.111 242.221 303.27 242.21Z" fill="#F9C0B2"/>
<path d="M313.464 213.185C309.768 211.103 304.026 211.74 302.893 215.832L301.564 216.043C300.31 216.222 298.486 217.882 298.486 219.15L298.461 222.194L299.679 225.908C299.679 225.908 299.772 225.876 300.643 224.812L301.521 223.363C301.521 223.363 301.521 222.42 301.614 222.128C301.698 221.89 302.119 221.39 302.365 221.449C302.711 221.53 302.723 222.035 302.723 222.035L302.877 223.231C303.004 223.307 303.151 223.34 303.298 223.326C303.445 223.312 303.583 223.251 303.692 223.152L304.275 221.564C304.275 221.564 304.927 219.701 304.68 218.341C304.68 218.341 308.89 216.102 312.452 217.589C316.013 219.075 318.005 220.244 319.568 213.25C319.571 213.252 317.16 215.27 313.464 213.185Z" fill="#FAA634"/>
<path d="M312.772 282.728L311.047 280.914L308.813 279.398L304.642 278.871L300.324 280.964L294.806 280.988L294.213 284.929L300.491 284.888L302.291 284.478L305.733 282.734L306.792 283.23L307.535 283.208L311.049 282.651L311.667 282.889L312.772 282.728Z" fill="#F9C0B2"/>
<path d="M268.679 283.473C268.117 282.787 267.763 281.954 267.659 281.074C267.554 280.193 267.703 279.301 268.088 278.502L283.761 245.965L289.166 243.143L293.366 245.068L294.504 250.196L278.284 278.443L297.519 280.536L295.994 285.371L272.252 285.192C271.567 285.186 270.891 285.028 270.274 284.731C269.656 284.434 269.112 284.004 268.679 283.473Z" fill="#4D9DD4"/>
<path d="M357.885 283.826H320.303L329.784 261.443C329.846 261.296 329.95 261.17 330.084 261.082C330.217 260.994 330.373 260.947 330.533 260.947H366.349C366.483 260.947 366.615 260.98 366.733 261.044C366.852 261.107 366.953 261.199 367.027 261.311C367.101 261.423 367.146 261.551 367.158 261.685C367.171 261.818 367.15 261.953 367.098 262.077L357.885 283.826Z" fill="#F4FAFD"/>
<path d="M358.122 284.061L357.004 285.192H302.021V283.201H358.122V284.061Z" fill="#DEEFFA"/>
<path d="M343.536 276.28C343.252 275.996 343.026 275.658 342.872 275.287C342.718 274.915 342.639 274.517 342.639 274.115C342.639 273.713 342.718 273.315 342.872 272.943C343.026 272.572 343.252 272.234 343.536 271.95C343.821 271.666 344.158 271.44 344.53 271.286C344.902 271.132 345.3 271.053 345.702 271.053C346.105 271.053 346.503 271.132 346.875 271.286C347.247 271.44 347.584 271.666 347.869 271.95C348.153 272.234 348.379 272.572 348.533 272.943C348.687 273.315 348.766 273.713 348.766 274.115C348.766 274.517 348.687 274.915 348.533 275.287C348.379 275.658 348.153 275.996 347.869 276.28C347.584 276.564 347.247 276.79 346.875 276.944C346.503 277.098 346.105 277.177 345.702 277.177C345.3 277.177 344.902 277.098 344.53 276.944C344.158 276.79 343.821 276.564 343.536 276.28Z" fill="#DEEFFA"/>
<path d="M162.044 406.495L160.686 406.113L192.517 292.272L193.875 292.653L162.044 406.495Z" fill="#002F49"/>
<path d="M552.558 290.888L551.201 291.27L583.133 404.743L584.49 404.361L552.558 290.888Z" fill="#002F49"/>
<path d="M152.084 285.192H594.508C595.329 285.192 596.117 285.518 596.698 286.099C597.279 286.679 597.605 287.467 597.605 288.288V294.981H148.988V288.291C148.988 287.885 149.068 287.482 149.223 287.106C149.378 286.73 149.606 286.388 149.894 286.101C150.181 285.813 150.523 285.584 150.898 285.428C151.274 285.273 151.677 285.192 152.084 285.192Z" fill="#54656F"/>
</svg>
