<svg width="279" height="94" viewBox="0 0 279 94" fill="none" xmlns="http://www.w3.org/2000/svg">
<g clip-path="url(#clip0)">
<path d="M103.993 5.26594C93.8746 6.38617 83.497 6.3953 73.3777 7.77921C64.2418 9.00297 55.3386 10.8155 46.7894 13.192C30.8288 17.6984 13.9834 24.549 5.1749 34.8497C-2.50886 43.8055 1.20155 53.954 14.062 60.3707C21.3646 64.0204 29.9359 65.516 38.4494 67.1448C48.7437 69.0705 59.2857 70.194 69.8624 70.4926C92.504 71.1885 115.062 69.9492 136.992 66.8047C156.418 64.0368 176.723 60.0048 193.006 52.4951C205.89 46.5938 217.771 36.3011 204.44 26.261C192.94 17.6355 171.788 14.5786 155.935 12.4206C132.114 9.1304 107.31 9.09812 83.6018 11.1821C65.0349 12.8295 42.5735 15.8381 32.147 27.2025C31.2184 28.2003 33.2977 29.4833 34.6119 28.6419C46.6825 21.0475 59.7603 17.2578 76.2426 15.3991C94.5349 13.3656 113.23 12.8765 131.9 13.9431C149.63 14.9403 167.765 17.1669 184.551 21.6453C191.44 23.4867 198.89 26.0211 203.146 30.3534C210.137 37.526 201.773 44.2001 193.84 48.4466C180.001 55.8547 162.311 59.9216 145.256 63.0179C126.519 66.2861 107.229 68.1843 87.7139 68.6802C68.9338 69.3526 49.9831 67.9051 31.6457 64.3975C14.5667 61.1628 -3.04883 51.4427 4.14326 38.539C10.7324 26.7183 29.8193 18.7855 46.1667 13.925C54.9074 11.3543 64.0431 9.38227 73.4403 8.03773C83.1168 6.6221 94.0426 5.11881 104.051 5.6093C104.084 5.6077 104.117 5.60168 104.146 5.59157C104.176 5.58147 104.202 5.56748 104.223 5.55041C104.244 5.53333 104.259 5.51351 104.268 5.49207C104.278 5.47063 104.28 5.44799 104.277 5.42544C104.273 5.4029 104.262 5.38089 104.246 5.36067C104.23 5.34045 104.208 5.32243 104.181 5.30761C104.155 5.2928 104.125 5.2815 104.092 5.27435C104.06 5.2672 104.026 5.26434 103.993 5.26594Z" fill="#0083C7"/>
</g>
<path d="M35.1631 46.6738L34.4591 43.9858H31.4031L30.7151 46.6738H28.2831L31.3071 35.5058H34.6991L37.7231 46.6738H35.1631ZM33.0031 37.8258H32.8751L31.7871 42.0498H34.0911L33.0031 37.8258ZM38.8849 38.4178H41.2529V41.5698H43.9409V38.4178H46.3089V46.6738H43.9409V43.4098H41.2529V46.6738H38.8849V38.4178ZM55.1826 46.6738C54.692 46.6738 54.2973 46.5512 53.9986 46.3058C53.7 46.0498 53.524 45.6872 53.4706 45.2178H53.3906C53.2413 45.7618 52.9426 46.1725 52.4946 46.4498C52.0573 46.7272 51.5186 46.8658 50.8786 46.8658C50.0786 46.8658 49.4333 46.6525 48.9426 46.2258C48.4626 45.7885 48.2226 45.1805 48.2226 44.4018C48.2226 43.5378 48.5373 42.8978 49.1666 42.4818C49.796 42.0658 50.7186 41.8578 51.9346 41.8578H53.2626V41.4418C53.2626 40.9512 53.1453 40.5832 52.9106 40.3378C52.6866 40.0818 52.3026 39.9538 51.7586 39.9538C51.2573 39.9538 50.852 40.0498 50.5426 40.2418C50.2333 40.4338 49.9666 40.6845 49.7426 40.9938L48.4466 39.8418C48.724 39.3725 49.156 38.9885 49.7426 38.6898C50.34 38.3805 51.1026 38.2258 52.0306 38.2258C53.1613 38.2258 54.0413 38.4872 54.6706 39.0098C55.3106 39.5218 55.6306 40.3005 55.6306 41.3458V44.9618H56.5426V46.6738H55.1826ZM51.7746 45.3138C52.1906 45.3138 52.5426 45.2125 52.8306 45.0098C53.1186 44.8072 53.2626 44.5138 53.2626 44.1298V43.1378H51.9986C51.028 43.1378 50.5426 43.4632 50.5426 44.1138V44.4338C50.5426 44.7218 50.6546 44.9405 50.8786 45.0898C51.1026 45.2392 51.4013 45.3138 51.7746 45.3138ZM57.3364 44.8338H58.4564C58.691 44.5458 58.8724 44.1352 59.0004 43.6018C59.1284 43.0685 59.1924 42.3058 59.1924 41.3138V38.4178H65.4964V46.6738H63.1284V40.2578H61.3204V41.3778C61.3204 42.0498 61.2937 42.6365 61.2404 43.1378C61.187 43.6392 61.1124 44.0712 61.0164 44.4338C60.9204 44.7965 60.8084 45.1005 60.6804 45.3458C60.5524 45.5912 60.4137 45.7885 60.2644 45.9378C59.955 46.2472 59.6244 46.4658 59.2724 46.5938C58.931 46.7112 58.5044 46.7698 57.9924 46.7698H57.3364V44.8338ZM67.6661 38.4178H69.9701V41.0738L69.7781 43.5058H69.8741L72.8661 38.4178H75.0901V46.6738H72.7861V44.0178L72.9781 41.5858H72.8821L69.8901 46.6738H67.6661V38.4178ZM80.7959 46.8658C79.9319 46.8658 79.1692 46.7272 78.5079 46.4498C77.8465 46.1725 77.3399 45.7992 76.9879 45.3298L78.3479 44.0658C78.6679 44.4178 79.0199 44.6792 79.4039 44.8498C79.7879 45.0205 80.2732 45.1058 80.8599 45.1058C81.3505 45.1058 81.7239 45.0205 81.9799 44.8498C82.2359 44.6792 82.3639 44.4498 82.3639 44.1618V44.0658C82.3639 43.5752 82.0652 43.3298 81.4679 43.3298H79.5319V41.7618H81.2599C81.6012 41.7618 81.8412 41.6925 81.9799 41.5538C82.1292 41.4045 82.2039 41.2072 82.2039 40.9618V40.8658C82.2039 40.6205 82.0812 40.4125 81.8359 40.2418C81.6012 40.0712 81.2385 39.9858 80.7479 39.9858C80.2679 39.9858 79.8519 40.0658 79.4999 40.2258C79.1585 40.3752 78.8332 40.6098 78.5239 40.9298L77.2119 39.7138C77.6492 39.2445 78.1559 38.8818 78.7319 38.6258C79.3185 38.3592 80.0599 38.2258 80.9559 38.2258C81.5319 38.2258 82.0439 38.2845 82.4919 38.4018C82.9399 38.5085 83.3185 38.6632 83.6279 38.8658C83.9479 39.0685 84.1879 39.3085 84.3479 39.5858C84.5079 39.8525 84.5879 40.1458 84.5879 40.4658C84.5879 40.9778 84.4279 41.3938 84.1079 41.7138C83.7985 42.0232 83.3879 42.2258 82.8759 42.3218V42.4018C83.4199 42.4872 83.8679 42.7005 84.2199 43.0418C84.5719 43.3832 84.7479 43.8258 84.7479 44.3698C84.7479 45.1165 84.4119 45.7192 83.7399 46.1778C83.0679 46.6365 82.0865 46.8658 80.7959 46.8658ZM96.4474 38.4178H103.871V46.6738H101.503V40.2578H98.8154V46.6738H96.4474V38.4178ZM105.897 38.4178H108.265V39.9218H108.377C108.58 39.4312 108.873 39.0258 109.257 38.7058C109.641 38.3858 110.164 38.2258 110.825 38.2258C111.284 38.2258 111.7 38.3112 112.073 38.4818C112.457 38.6525 112.782 38.9138 113.049 39.2658C113.326 39.6178 113.54 40.0658 113.689 40.6098C113.849 41.1538 113.929 41.7992 113.929 42.5458C113.929 43.2925 113.849 43.9378 113.689 44.4818C113.54 45.0258 113.326 45.4738 113.049 45.8258C112.782 46.1778 112.457 46.4392 112.073 46.6098C111.7 46.7805 111.284 46.8658 110.825 46.8658C110.164 46.8658 109.641 46.7112 109.257 46.4018C108.873 46.0818 108.58 45.6712 108.377 45.1698H108.265V49.8738H105.897V38.4178ZM109.801 45.0258C110.334 45.0258 110.745 44.8658 111.033 44.5458C111.321 44.2152 111.465 43.7618 111.465 43.1858V41.9058C111.465 41.3298 111.321 40.8818 111.033 40.5618C110.745 40.2312 110.334 40.0658 109.801 40.0658C109.385 40.0658 109.022 40.1672 108.713 40.3698C108.414 40.5725 108.265 40.8925 108.265 41.3298V43.7618C108.265 44.1992 108.414 44.5192 108.713 44.7218C109.022 44.9245 109.385 45.0258 109.801 45.0258ZM119.347 46.8658C118.707 46.8658 118.131 46.7698 117.619 46.5778C117.107 46.3752 116.67 46.0872 116.307 45.7138C115.955 45.3405 115.683 44.8872 115.491 44.3538C115.299 43.8205 115.203 43.2178 115.203 42.5458C115.203 41.8738 115.299 41.2712 115.491 40.7378C115.683 40.2045 115.955 39.7512 116.307 39.3778C116.67 39.0045 117.107 38.7218 117.619 38.5298C118.131 38.3272 118.707 38.2258 119.347 38.2258C119.987 38.2258 120.563 38.3272 121.075 38.5298C121.587 38.7218 122.019 39.0045 122.371 39.3778C122.734 39.7512 123.011 40.2045 123.203 40.7378C123.395 41.2712 123.491 41.8738 123.491 42.5458C123.491 43.2178 123.395 43.8205 123.203 44.3538C123.011 44.8872 122.734 45.3405 122.371 45.7138C122.019 46.0872 121.587 46.3752 121.075 46.5778C120.563 46.7698 119.987 46.8658 119.347 46.8658ZM119.347 45.1058C119.88 45.1058 120.296 44.9405 120.595 44.6098C120.894 44.2792 121.043 43.8098 121.043 43.2018V41.8898C121.043 41.2818 120.894 40.8125 120.595 40.4818C120.296 40.1512 119.88 39.9858 119.347 39.9858C118.814 39.9858 118.398 40.1512 118.099 40.4818C117.8 40.8125 117.651 41.2818 117.651 41.8898V43.2018C117.651 43.8098 117.8 44.2792 118.099 44.6098C118.398 44.9405 118.814 45.1058 119.347 45.1058ZM124.301 44.8338H125.261C125.538 44.4178 125.757 43.8898 125.917 43.2498C126.077 42.5992 126.157 41.8312 126.157 40.9458V38.4178H132.189V44.8338H133.469V48.9138H131.325V46.6738H126.445V48.9138H124.301V44.8338ZM129.901 44.8338V40.2578H128.285V41.0098C128.285 41.8418 128.226 42.5832 128.109 43.2338C127.991 43.8845 127.826 44.4178 127.613 44.8338H129.901ZM140.614 38.4178H143.03L139.142 48.0018C138.897 48.6098 138.572 49.0738 138.166 49.3938C137.761 49.7138 137.206 49.8738 136.502 49.8738H134.87V48.0338H136.854L137.366 46.6258L134.038 38.4178H136.582L137.782 41.8898L138.534 44.2898H138.662L139.382 41.8898L140.614 38.4178ZM144.464 38.4178H146.832V41.5858H148.048L149.712 38.4178H152.224L150.624 41.2658C150.443 41.6072 150.245 41.8578 150.032 42.0178C149.829 42.1672 149.595 42.2685 149.328 42.3218V42.4178C149.637 42.4818 149.888 42.5992 150.08 42.7698C150.283 42.9298 150.485 43.2072 150.688 43.6018L151.312 44.8338H152.192V46.6738H151.088C150.64 46.6738 150.256 46.5832 149.936 46.4018C149.627 46.2205 149.36 45.9112 149.136 45.4738L148.048 43.3938H146.832V46.6738H144.464V38.4178ZM156.554 40.2578H153.834V38.4178H161.61V40.2578H158.89V46.6738H156.554V40.2578ZM170.308 46.6738C169.817 46.6738 169.422 46.5512 169.124 46.3058C168.825 46.0498 168.649 45.6872 168.596 45.2178H168.516C168.366 45.7618 168.068 46.1725 167.62 46.4498C167.182 46.7272 166.644 46.8658 166.004 46.8658C165.204 46.8658 164.558 46.6525 164.068 46.2258C163.588 45.7885 163.348 45.1805 163.348 44.4018C163.348 43.5378 163.662 42.8978 164.292 42.4818C164.921 42.0658 165.844 41.8578 167.06 41.8578H168.388V41.4418C168.388 40.9512 168.27 40.5832 168.036 40.3378C167.812 40.0818 167.428 39.9538 166.884 39.9538C166.382 39.9538 165.977 40.0498 165.668 40.2418C165.358 40.4338 165.092 40.6845 164.868 40.9938L163.572 39.8418C163.849 39.3725 164.281 38.9885 164.868 38.6898C165.465 38.3805 166.228 38.2258 167.156 38.2258C168.286 38.2258 169.166 38.4872 169.796 39.0098C170.436 39.5218 170.756 40.3005 170.756 41.3458V44.9618H171.668V46.6738H170.308ZM166.9 45.3138C167.316 45.3138 167.668 45.2125 167.956 45.0098C168.244 44.8072 168.388 44.5138 168.388 44.1298V43.1378H167.124C166.153 43.1378 165.668 43.4632 165.668 44.1138V44.4338C165.668 44.7218 165.78 44.9405 166.004 45.0898C166.228 45.2392 166.526 45.3138 166.9 45.3138Z" fill="#476481"/>
<g clip-path="url(#clip1)">
<path d="M228.468 50.3628C230.98 50.5971 233.588 50.4564 236.061 51.0035C238.301 51.5672 240.476 52.3528 242.555 53.3484C246.719 55.2616 250.67 57.5967 254.346 60.3171C257.982 62.9683 261.411 65.8885 264.603 69.0533C268.031 72.4613 270.87 76.4689 271.622 81.3378C271.789 82.389 273.416 81.957 273.24 80.9112C271.711 71.605 262.919 64.8673 255.757 59.6172C251.813 56.6976 247.514 54.28 242.96 52.4199C240.681 51.415 238.291 50.6773 235.836 50.2216C233.406 49.855 230.94 50.0405 228.469 49.921C228.182 49.8996 228.182 50.3343 228.468 50.3628Z" fill="#0083C7"/>
<path d="M269.111 63.2306C269.904 66.3606 270.008 69.864 270.556 73.0685C270.838 74.615 270.856 76.4042 271.353 77.8992C271.755 79.1043 272.686 80.3245 273.319 81.4207L274.383 80.3532C270.966 78.5633 267.967 75.8982 264.837 73.6527C263.15 72.4462 260.92 70.4784 258.646 70.7102C258.484 70.7114 258.326 70.7712 258.204 70.8786C258.081 70.9859 258.002 71.1335 257.98 71.2939C257.958 71.4542 257.995 71.6163 258.085 71.7501C258.175 71.8839 258.311 71.9802 258.468 72.021C264.278 73.8604 268.29 78.9246 273.606 81.7075C273.755 81.7847 273.924 81.8124 274.091 81.7865C274.257 81.7606 274.411 81.6824 274.531 81.5635C274.65 81.4447 274.728 81.2913 274.754 81.1259C274.78 80.9605 274.751 80.7918 274.673 80.6446C273.939 79.3717 273.005 78.093 272.574 76.6806C272.101 75.1417 271.881 73.4573 271.504 71.8629C270.841 68.9783 270.561 65.8904 269.635 63.0793C269.607 63.0218 269.56 62.9759 269.502 62.9492C269.444 62.9226 269.378 62.9169 269.315 62.9331C269.253 62.9493 269.197 62.9864 269.159 63.0382C269.12 63.0899 269.101 63.1531 269.104 63.2171L269.111 63.2306Z" fill="#0083C7"/>
</g>
<defs>
<clipPath id="clip0">
<rect width="208.373" height="67" fill="white" transform="translate(3.50684) rotate(3)"/>
</clipPath>
<clipPath id="clip1">
<rect width="50.4997" height="29.3954" fill="white" transform="translate(253.457 34.9551) rotate(60)"/>
</clipPath>
</defs>
</svg>
