<svg width="353" height="112" viewBox="0 0 353 112" fill="none" xmlns="http://www.w3.org/2000/svg">
<g clip-path="url(#clip0)">
<path d="M130.306 6.8853C117.707 8.17266 104.783 8.14785 92.184 9.7464C80.8098 11.1593 69.7274 13.2679 59.0877 16.0433C39.2249 21.3069 18.2679 29.3342 7.3326 41.4607C-2.20655 52.0039 2.44946 63.9937 18.4888 71.6108C27.5964 75.9431 38.2768 77.7377 48.8857 79.6891C61.7135 81.9971 74.847 83.3592 88.021 83.748C116.223 84.6469 144.313 83.2618 171.616 79.6258C195.801 76.4258 221.076 71.737 241.331 62.9299C257.356 56.0095 272.12 43.903 255.482 32.008C241.129 21.7888 214.774 18.1086 195.022 15.5074C165.343 11.5426 134.45 11.4194 104.93 13.7976C81.8107 15.678 53.8461 19.1518 40.8993 32.5281C39.7461 33.7025 42.3402 35.2239 43.9741 34.2353C58.9816 25.3139 75.2566 20.8862 95.7784 18.7492C118.554 16.412 141.837 15.8989 165.093 17.2217C187.178 18.4594 209.773 21.1494 230.694 26.4924C239.28 28.6893 248.568 31.7059 253.884 36.8334C262.616 45.3224 252.221 53.1704 242.356 58.1548C225.145 66.8503 203.127 71.5894 181.896 75.1851C158.57 78.9779 134.552 81.1519 110.248 81.6702C86.8606 82.3994 63.2531 80.626 40.4025 76.4235C19.12 72.5474 -2.85286 61.0153 6.06038 45.8113C14.2264 31.8832 37.9712 22.5864 58.3147 16.9063C69.1922 13.9023 80.5637 11.6063 92.263 10.0517C104.31 8.41421 117.912 6.67752 130.379 7.29073C130.421 7.28895 130.461 7.28196 130.498 7.27013C130.534 7.25831 130.567 7.24189 130.593 7.22181C130.619 7.20173 130.638 7.17839 130.649 7.15312C130.661 7.12785 130.664 7.10114 130.66 7.07452C130.655 7.04789 130.642 7.02188 130.621 6.99797C130.601 6.97405 130.573 6.9527 130.541 6.93513C130.508 6.91756 130.47 6.90411 130.43 6.89556C130.389 6.88701 130.347 6.88353 130.306 6.8853Z" fill="#38B9C6"/>
</g>
<path d="M30.1781 42.8752H37.8261V54.0432H35.4101V44.8432H32.5941V54.0432H30.1781V42.8752ZM39.7399 45.7872H42.1079V47.2912H42.2199C42.4226 46.8005 42.7159 46.3952 43.0999 46.0752C43.4839 45.7552 44.0066 45.5952 44.6679 45.5952C45.1266 45.5952 45.5426 45.6805 45.9159 45.8512C46.2999 46.0219 46.6252 46.2832 46.8919 46.6352C47.1692 46.9872 47.3826 47.4352 47.5319 47.9792C47.6919 48.5232 47.7719 49.1685 47.7719 49.9152C47.7719 50.6619 47.6919 51.3072 47.5319 51.8512C47.3826 52.3952 47.1692 52.8432 46.8919 53.1952C46.6252 53.5472 46.2999 53.8085 45.9159 53.9792C45.5426 54.1499 45.1266 54.2352 44.6679 54.2352C44.0066 54.2352 43.4839 54.0805 43.0999 53.7712C42.7159 53.4512 42.4226 53.0405 42.2199 52.5392H42.1079V57.2432H39.7399V45.7872ZM43.6439 52.3952C44.1772 52.3952 44.5879 52.2352 44.8759 51.9152C45.1639 51.5845 45.3079 51.1312 45.3079 50.5552V49.2752C45.3079 48.6992 45.1639 48.2512 44.8759 47.9312C44.5879 47.6005 44.1772 47.4352 43.6439 47.4352C43.2279 47.4352 42.8652 47.5365 42.5559 47.7392C42.2572 47.9419 42.1079 48.2619 42.1079 48.6992V51.1312C42.1079 51.5685 42.2572 51.8885 42.5559 52.0912C42.8652 52.2939 43.2279 52.3952 43.6439 52.3952ZM53.1896 54.2352C52.5496 54.2352 51.9736 54.1392 51.4616 53.9472C50.9496 53.7445 50.5123 53.4565 50.1496 53.0832C49.7976 52.7099 49.5256 52.2565 49.3336 51.7232C49.1416 51.1899 49.0456 50.5872 49.0456 49.9152C49.0456 49.2432 49.1416 48.6405 49.3336 48.1072C49.5256 47.5739 49.7976 47.1205 50.1496 46.7472C50.5123 46.3739 50.9496 46.0912 51.4616 45.8992C51.9736 45.6965 52.5496 45.5952 53.1896 45.5952C53.8296 45.5952 54.4056 45.6965 54.9176 45.8992C55.4296 46.0912 55.8616 46.3739 56.2136 46.7472C56.5763 47.1205 56.8536 47.5739 57.0456 48.1072C57.2376 48.6405 57.3336 49.2432 57.3336 49.9152C57.3336 50.5872 57.2376 51.1899 57.0456 51.7232C56.8536 52.2565 56.5763 52.7099 56.2136 53.0832C55.8616 53.4565 55.4296 53.7445 54.9176 53.9472C54.4056 54.1392 53.8296 54.2352 53.1896 54.2352ZM53.1896 52.4752C53.723 52.4752 54.139 52.3099 54.4376 51.9792C54.7363 51.6485 54.8856 51.1792 54.8856 50.5712V49.2592C54.8856 48.6512 54.7363 48.1819 54.4376 47.8512C54.139 47.5205 53.723 47.3552 53.1896 47.3552C52.6563 47.3552 52.2403 47.5205 51.9416 47.8512C51.643 48.1819 51.4936 48.6512 51.4936 49.2592V50.5712C51.4936 51.1792 51.643 51.6485 51.9416 51.9792C52.2403 52.3099 52.6563 52.4752 53.1896 52.4752ZM58.9274 45.7872H61.2954V47.2912H61.4074C61.6101 46.8005 61.9034 46.3952 62.2874 46.0752C62.6714 45.7552 63.1941 45.5952 63.8554 45.5952C64.3141 45.5952 64.7301 45.6805 65.1034 45.8512C65.4874 46.0219 65.8127 46.2832 66.0794 46.6352C66.3567 46.9872 66.5701 47.4352 66.7194 47.9792C66.8794 48.5232 66.9594 49.1685 66.9594 49.9152C66.9594 50.6619 66.8794 51.3072 66.7194 51.8512C66.5701 52.3952 66.3567 52.8432 66.0794 53.1952C65.8127 53.5472 65.4874 53.8085 65.1034 53.9792C64.7301 54.1499 64.3141 54.2352 63.8554 54.2352C63.1941 54.2352 62.6714 54.0805 62.2874 53.7712C61.9034 53.4512 61.6101 53.0405 61.4074 52.5392H61.2954V57.2432H58.9274V45.7872ZM62.8314 52.3952C63.3647 52.3952 63.7754 52.2352 64.0634 51.9152C64.3514 51.5845 64.4954 51.1312 64.4954 50.5552V49.2752C64.4954 48.6992 64.3514 48.2512 64.0634 47.9312C63.7754 47.6005 63.3647 47.4352 62.8314 47.4352C62.4154 47.4352 62.0527 47.5365 61.7434 47.7392C61.4447 47.9419 61.2954 48.2619 61.2954 48.6992V51.1312C61.2954 51.5685 61.4447 51.8885 61.7434 52.0912C62.0527 52.2939 62.4154 52.3952 62.8314 52.3952ZM75.3691 54.0432C74.8785 54.0432 74.4838 53.9205 74.1851 53.6752C73.8865 53.4192 73.7105 53.0565 73.6571 52.5872H73.5771C73.4278 53.1312 73.1291 53.5419 72.6811 53.8192C72.2438 54.0965 71.7051 54.2352 71.0651 54.2352C70.2651 54.2352 69.6198 54.0219 69.1291 53.5952C68.6491 53.1579 68.4091 52.5499 68.4091 51.7712C68.4091 50.9072 68.7238 50.2672 69.3531 49.8512C69.9825 49.4352 70.9051 49.2272 72.1211 49.2272H73.4491V48.8112C73.4491 48.3205 73.3318 47.9525 73.0971 47.7072C72.8731 47.4512 72.4891 47.3232 71.9451 47.3232C71.4438 47.3232 71.0385 47.4192 70.7291 47.6112C70.4198 47.8032 70.1531 48.0539 69.9291 48.3632L68.6331 47.2112C68.9105 46.7419 69.3425 46.3579 69.9291 46.0592C70.5265 45.7499 71.2891 45.5952 72.2171 45.5952C73.3478 45.5952 74.2278 45.8565 74.8571 46.3792C75.4971 46.8912 75.8171 47.6699 75.8171 48.7152V52.3312H76.7291V54.0432H75.3691ZM71.9611 52.6832C72.3771 52.6832 72.7291 52.5819 73.0171 52.3792C73.3051 52.1765 73.4491 51.8832 73.4491 51.4992V50.5072H72.1851C71.2145 50.5072 70.7291 50.8325 70.7291 51.4832V51.8032C70.7291 52.0912 70.8411 52.3099 71.0651 52.4592C71.2891 52.6085 71.5878 52.6832 71.9611 52.6832ZM81.9869 54.2352C80.7389 54.2352 79.7522 53.8352 79.0269 53.0352C78.3016 52.2352 77.9389 51.0832 77.9389 49.5792C77.9389 48.3205 78.0296 47.2379 78.2109 46.3312C78.3922 45.4245 78.6802 44.6725 79.0749 44.0752C79.4802 43.4779 80.0029 43.0299 80.6429 42.7312C81.2936 42.4325 82.0829 42.2619 83.0109 42.2192L85.4909 42.1072V44.2512L83.2509 44.3312C82.7069 44.3525 82.2536 44.4325 81.8909 44.5712C81.5389 44.6992 81.2562 44.8965 81.0429 45.1632C80.8402 45.4299 80.6909 45.7712 80.5949 46.1872C80.5096 46.5925 80.4562 47.0832 80.4349 47.6592H80.5469C80.7282 47.1259 81.0002 46.7205 81.3629 46.4432C81.7362 46.1552 82.2109 46.0112 82.7869 46.0112C83.2669 46.0112 83.7042 46.0965 84.0989 46.2672C84.4936 46.4379 84.8349 46.6885 85.1229 47.0192C85.4109 47.3392 85.6296 47.7445 85.7789 48.2352C85.9389 48.7152 86.0189 49.2752 86.0189 49.9152C86.0189 50.5872 85.9229 51.1899 85.7309 51.7232C85.5496 52.2565 85.2829 52.7099 84.9309 53.0832C84.5896 53.4565 84.1682 53.7445 83.6669 53.9472C83.1656 54.1392 82.6056 54.2352 81.9869 54.2352ZM81.9869 52.4752C82.4669 52.4752 82.8509 52.3099 83.1389 51.9792C83.4269 51.6485 83.5709 51.2112 83.5709 50.6672V49.4192C83.5709 48.8752 83.4322 48.4645 83.1549 48.1872C82.8776 47.9099 82.4882 47.7712 81.9869 47.7712C81.4962 47.7712 81.1069 47.9365 80.8189 48.2672C80.5416 48.5979 80.4029 49.0672 80.4029 49.6752V50.5712C80.4029 51.1792 80.5416 51.6485 80.8189 51.9792C81.1069 52.3099 81.4962 52.4752 81.9869 52.4752ZM91.5646 54.2352C90.9246 54.2352 90.3486 54.1392 89.8366 53.9472C89.3246 53.7445 88.8873 53.4565 88.5246 53.0832C88.1726 52.7099 87.9006 52.2565 87.7086 51.7232C87.5166 51.1899 87.4206 50.5872 87.4206 49.9152C87.4206 49.2432 87.5166 48.6405 87.7086 48.1072C87.9006 47.5739 88.1726 47.1205 88.5246 46.7472C88.8873 46.3739 89.3246 46.0912 89.8366 45.8992C90.3486 45.6965 90.9246 45.5952 91.5646 45.5952C92.2046 45.5952 92.7806 45.6965 93.2926 45.8992C93.8046 46.0912 94.2366 46.3739 94.5886 46.7472C94.9513 47.1205 95.2286 47.5739 95.4206 48.1072C95.6126 48.6405 95.7086 49.2432 95.7086 49.9152C95.7086 50.5872 95.6126 51.1899 95.4206 51.7232C95.2286 52.2565 94.9513 52.7099 94.5886 53.0832C94.2366 53.4565 93.8046 53.7445 93.2926 53.9472C92.7806 54.1392 92.2046 54.2352 91.5646 54.2352ZM91.5646 52.4752C92.098 52.4752 92.514 52.3099 92.8126 51.9792C93.1113 51.6485 93.2606 51.1792 93.2606 50.5712V49.2592C93.2606 48.6512 93.1113 48.1819 92.8126 47.8512C92.514 47.5205 92.098 47.3552 91.5646 47.3552C91.0313 47.3552 90.6153 47.5205 90.3166 47.8512C90.018 48.1819 89.8686 48.6512 89.8686 49.2592V50.5712C89.8686 51.1792 90.018 51.6485 90.3166 51.9792C90.6153 52.3099 91.0313 52.4752 91.5646 52.4752ZM99.9904 47.6272H97.2704V45.7872H105.046V47.6272H102.326V54.0432H99.9904V47.6272ZM107.088 45.7872H109.456V48.9552H110.672L112.336 45.7872H114.848L113.248 48.6352C113.067 48.9765 112.869 49.2272 112.656 49.3872C112.453 49.5365 112.219 49.6379 111.952 49.6912V49.7872C112.261 49.8512 112.512 49.9685 112.704 50.1392C112.907 50.2992 113.109 50.5765 113.312 50.9712L113.936 52.2032H114.816V54.0432H113.712C113.264 54.0432 112.88 53.9525 112.56 53.7712C112.251 53.5899 111.984 53.2805 111.76 52.8432L110.672 50.7632H109.456V54.0432H107.088V45.7872ZM123.338 54.0432C122.847 54.0432 122.453 53.9205 122.154 53.6752C121.855 53.4192 121.679 53.0565 121.626 52.5872H121.546C121.397 53.1312 121.098 53.5419 120.65 53.8192C120.213 54.0965 119.674 54.2352 119.034 54.2352C118.234 54.2352 117.589 54.0219 117.098 53.5952C116.618 53.1579 116.378 52.5499 116.378 51.7712C116.378 50.9072 116.693 50.2672 117.322 49.8512C117.951 49.4352 118.874 49.2272 120.09 49.2272H121.418V48.8112C121.418 48.3205 121.301 47.9525 121.066 47.7072C120.842 47.4512 120.458 47.3232 119.914 47.3232C119.413 47.3232 119.007 47.4192 118.698 47.6112C118.389 47.8032 118.122 48.0539 117.898 48.3632L116.602 47.2112C116.879 46.7419 117.311 46.3579 117.898 46.0592C118.495 45.7499 119.258 45.5952 120.186 45.5952C121.317 45.5952 122.197 45.8565 122.826 46.3792C123.466 46.8912 123.786 47.6699 123.786 48.7152V52.3312H124.698V54.0432H123.338ZM119.93 52.6832C120.346 52.6832 120.698 52.5819 120.986 52.3792C121.274 52.1765 121.418 51.8832 121.418 51.4992V50.5072H120.154C119.183 50.5072 118.698 50.8325 118.698 51.4832V51.8032C118.698 52.0912 118.81 52.3099 119.034 52.4592C119.258 52.6085 119.557 52.6832 119.93 52.6832ZM139.869 54.2352C139.219 54.2352 138.632 54.1392 138.109 53.9472C137.597 53.7445 137.16 53.4565 136.797 53.0832C136.445 52.7099 136.173 52.2565 135.981 51.7232C135.789 51.1899 135.693 50.5872 135.693 49.9152C135.693 49.2432 135.789 48.6405 135.981 48.1072C136.173 47.5739 136.445 47.1205 136.797 46.7472C137.16 46.3739 137.597 46.0912 138.109 45.8992C138.632 45.6965 139.213 45.5952 139.853 45.5952C140.76 45.5952 141.485 45.7819 142.029 46.1552C142.584 46.5179 143.005 47.0032 143.293 47.6112L141.469 48.6032C141.32 48.2832 141.123 48.0165 140.877 47.8032C140.643 47.5899 140.301 47.4832 139.853 47.4832C139.309 47.4832 138.888 47.6432 138.589 47.9632C138.301 48.2725 138.157 48.6992 138.157 49.2432V50.5872C138.157 51.1312 138.301 51.5632 138.589 51.8832C138.888 52.1925 139.32 52.3472 139.885 52.3472C140.344 52.3472 140.701 52.2405 140.957 52.0272C141.224 51.8139 141.448 51.5365 141.629 51.1952L143.421 52.2192C143.123 52.8272 142.685 53.3179 142.109 53.6912C141.544 54.0539 140.797 54.2352 139.869 54.2352ZM147.959 47.6272H145.239V45.7872H153.015V47.6272H150.295V54.0432H147.959V47.6272ZM154.865 45.7872H157.233V47.2912H157.345C157.548 46.8005 157.841 46.3952 158.225 46.0752C158.609 45.7552 159.132 45.5952 159.793 45.5952C160.252 45.5952 160.668 45.6805 161.041 45.8512C161.425 46.0219 161.75 46.2832 162.017 46.6352C162.294 46.9872 162.508 47.4352 162.657 47.9792C162.817 48.5232 162.897 49.1685 162.897 49.9152C162.897 50.6619 162.817 51.3072 162.657 51.8512C162.508 52.3952 162.294 52.8432 162.017 53.1952C161.75 53.5472 161.425 53.8085 161.041 53.9792C160.668 54.1499 160.252 54.2352 159.793 54.2352C159.132 54.2352 158.609 54.0805 158.225 53.7712C157.841 53.4512 157.548 53.0405 157.345 52.5392H157.233V57.2432H154.865V45.7872ZM158.769 52.3952C159.302 52.3952 159.713 52.2352 160.001 51.9152C160.289 51.5845 160.433 51.1312 160.433 50.5552V49.2752C160.433 48.6992 160.289 48.2512 160.001 47.9312C159.713 47.6005 159.302 47.4352 158.769 47.4352C158.353 47.4352 157.99 47.5365 157.681 47.7392C157.382 47.9419 157.233 48.2619 157.233 48.6992V51.1312C157.233 51.5685 157.382 51.8885 157.681 52.0912C157.99 52.2939 158.353 52.3952 158.769 52.3952ZM170.395 45.7872H172.811L168.923 55.3712C168.677 55.9792 168.352 56.4432 167.947 56.7632C167.541 57.0832 166.987 57.2432 166.283 57.2432H164.651V55.4032H166.635L167.147 53.9952L163.819 45.7872H166.363L167.563 49.2592L168.315 51.6592H168.443L169.163 49.2592L170.395 45.7872ZM174.244 45.7872H176.612V48.9552H177.828L179.492 45.7872H182.004L180.404 48.6352C180.223 48.9765 180.026 49.2272 179.812 49.3872C179.61 49.5365 179.375 49.6379 179.108 49.6912V49.7872C179.418 49.8512 179.668 49.9685 179.86 50.1392C180.063 50.2992 180.266 50.5765 180.468 50.9712L181.092 52.2032H181.972V54.0432H180.868C180.42 54.0432 180.036 53.9525 179.716 53.7712C179.407 53.5899 179.14 53.2805 178.916 52.8432L177.828 50.7632H176.612V54.0432H174.244V45.7872ZM186.334 47.6272H183.614V45.7872H191.39V47.6272H188.67V54.0432H186.334V47.6272ZM199.176 45.7872H201.592L197.704 55.3712C197.459 55.9792 197.133 56.4432 196.728 56.7632C196.323 57.0832 195.768 57.2432 195.064 57.2432H193.432V55.4032H195.416L195.928 53.9952L192.6 45.7872H195.144L196.344 49.2592L197.096 51.6592H197.224L197.944 49.2592L199.176 45.7872ZM202.834 45.7872H205.202V47.2912H205.314C205.516 46.8005 205.81 46.3952 206.194 46.0752C206.578 45.7552 207.1 45.5952 207.762 45.5952C208.22 45.5952 208.636 45.6805 209.01 45.8512C209.394 46.0219 209.719 46.2832 209.986 46.6352C210.263 46.9872 210.476 47.4352 210.626 47.9792C210.786 48.5232 210.866 49.1685 210.866 49.9152C210.866 50.6619 210.786 51.3072 210.626 51.8512C210.476 52.3952 210.263 52.8432 209.986 53.1952C209.719 53.5472 209.394 53.8085 209.01 53.9792C208.636 54.1499 208.22 54.2352 207.762 54.2352C207.1 54.2352 206.578 54.0805 206.194 53.7712C205.81 53.4512 205.516 53.0405 205.314 52.5392H205.202V57.2432H202.834V45.7872ZM206.738 52.3952C207.271 52.3952 207.682 52.2352 207.97 51.9152C208.258 51.5845 208.402 51.1312 208.402 50.5552V49.2752C208.402 48.6992 208.258 48.2512 207.97 47.9312C207.682 47.6005 207.271 47.4352 206.738 47.4352C206.322 47.4352 205.959 47.5365 205.65 47.7392C205.351 47.9419 205.202 48.2619 205.202 48.6992V51.1312C205.202 51.5685 205.351 51.8885 205.65 52.0912C205.959 52.2939 206.322 52.3952 206.738 52.3952ZM211.963 45.7872H213.947V48.1392H214.875C215.281 48.1392 215.659 48.2032 216.011 48.3312C216.363 48.4592 216.667 48.6512 216.923 48.9072C217.19 49.1525 217.398 49.4565 217.547 49.8192C217.697 50.1819 217.771 50.6032 217.771 51.0832C217.771 51.5632 217.697 51.9899 217.547 52.3632C217.398 52.7259 217.19 53.0352 216.923 53.2912C216.657 53.5365 216.342 53.7232 215.979 53.8512C215.627 53.9792 215.238 54.0432 214.811 54.0432H211.963V45.7872ZM214.795 52.4272C215.105 52.4272 215.345 52.3365 215.515 52.1552C215.686 51.9739 215.771 51.6859 215.771 51.2912V50.8912C215.771 50.4965 215.686 50.2085 215.515 50.0272C215.345 49.8459 215.105 49.7552 214.795 49.7552H213.947V52.4272H214.795ZM218.603 45.7872H220.587V54.0432H218.603V45.7872Z" fill="#476481"/>
<g clip-path="url(#clip1)">
<path d="M286.611 55.5701C289.906 55.8774 293.325 55.6929 296.567 56.4102C299.504 57.1493 302.356 58.1792 305.081 59.4845C310.541 61.9929 315.721 65.0544 320.54 68.6211C325.308 72.0971 329.803 75.9258 333.988 80.075C338.483 84.5432 342.206 89.7976 343.191 96.1812C343.41 97.5594 345.542 96.9931 345.312 95.6218C343.307 83.4207 331.781 74.5869 322.39 67.7035C317.219 63.8756 311.583 60.706 305.612 58.2672C302.625 56.9497 299.491 55.9825 296.272 55.385C293.086 54.9044 289.853 55.1477 286.614 54.9909C286.237 54.9629 286.237 55.5327 286.611 55.5701Z" fill="#38B9C6"/>
<path d="M339.901 72.4413C340.94 76.5449 341.076 81.1383 341.795 85.3397C342.164 87.3673 342.188 89.713 342.839 91.6732C343.367 93.2531 344.587 94.853 345.417 96.2902L346.812 94.8906C342.332 92.5439 338.4 89.0496 334.296 86.1056C332.085 84.5237 329.161 81.9438 326.18 82.2477C325.967 82.2492 325.761 82.3277 325.6 82.4684C325.439 82.6092 325.335 82.8027 325.306 83.0129C325.278 83.2231 325.327 83.4357 325.444 83.6111C325.562 83.7865 325.74 83.9128 325.946 83.9663C333.564 86.3779 338.824 93.0175 345.794 96.6662C345.989 96.7674 346.211 96.8037 346.429 96.7697C346.647 96.7357 346.849 96.6333 347.006 96.4774C347.162 96.3215 347.265 96.1204 347.299 95.9036C347.332 95.6868 347.295 95.4656 347.193 95.2726C346.23 93.6038 345.005 91.9272 344.441 90.0754C343.821 88.0579 343.531 85.8495 343.038 83.759C342.168 79.9771 341.802 75.9285 340.587 72.2428C340.551 72.1675 340.489 72.1073 340.413 72.0724C340.336 72.0375 340.25 72.03 340.168 72.0512C340.086 72.0725 340.013 72.1211 339.963 72.189C339.912 72.2568 339.887 72.3397 339.89 72.4235L339.901 72.4413Z" fill="#38B9C6"/>
</g>
<defs>
<clipPath id="clip0">
<rect width="259.559" height="79.0606" fill="white" transform="translate(5.13574 0.325439) rotate(3)"/>
</clipPath>
<clipPath id="clip1">
<rect width="66.2097" height="38.54" fill="white" transform="translate(319.376 35.3696) rotate(60)"/>
</clipPath>
</defs>
</svg>
