<svg width="316" height="103" viewBox="0 0 316 103" fill="none" xmlns="http://www.w3.org/2000/svg">
<g clip-path="url(#clip0)">
<path d="M126.823 6.4531C114.439 7.53866 101.727 7.45364 89.3442 8.81642C78.1644 10.0198 67.275 11.8443 56.8244 14.265C37.3147 18.8576 16.7425 25.9069 6.04652 36.6569C-3.28398 46.0031 1.35361 56.7073 17.1655 63.5712C26.144 67.4751 36.657 69.1258 47.1004 70.916C59.7279 73.0346 72.6514 74.312 85.61 74.7224C113.351 75.6606 140.972 74.5633 167.807 71.457C191.577 68.724 216.413 64.6698 236.29 56.9224C252.018 50.8352 266.478 40.1216 250.057 29.4437C235.892 20.2698 209.953 16.8629 190.515 14.4494C161.306 10.7727 130.922 10.5126 101.899 12.4876C79.1708 14.0503 51.6844 17.0088 39.0161 28.8625C37.8876 29.9031 40.4464 31.271 42.0486 30.3983C56.7651 22.5235 72.7502 18.6582 92.9231 16.8543C115.312 14.883 138.208 14.5393 161.087 15.8309C182.814 17.0411 205.049 19.5475 225.651 24.4093C234.107 26.4082 243.256 29.1409 248.509 33.7347C257.138 41.3399 246.953 48.2809 237.275 52.6734C220.391 60.3362 198.758 64.4509 177.895 67.5509C154.973 70.8163 131.361 72.6362 107.461 72.9796C84.4622 73.5153 61.2355 71.8206 38.7412 67.9654C17.7909 64.4087 -3.87576 54.0281 4.81646 40.5265C12.78 28.1581 36.088 19.9914 56.0683 15.0301C66.7518 12.4069 77.9245 10.4168 89.4233 9.0888C101.264 7.68863 114.633 6.20767 126.898 6.81465C126.938 6.81327 126.978 6.80724 127.014 6.79688C127.05 6.78652 127.082 6.77205 127.107 6.75429C127.133 6.73653 127.151 6.71583 127.163 6.69337C127.174 6.67091 127.177 6.64714 127.172 6.6234C127.167 6.59966 127.154 6.57642 127.134 6.55502C127.114 6.53361 127.087 6.51445 127.054 6.49864C127.022 6.48283 126.985 6.47067 126.945 6.46285C126.906 6.45504 126.864 6.45173 126.823 6.4531Z" fill="#F2706D"/>
</g>
<path d="M29.2591 49.2743C27.7658 49.2743 26.6565 48.7729 25.9311 47.7703C25.2165 46.7569 24.8591 45.3329 24.8591 43.4983C24.8591 41.6636 25.2165 40.2449 25.9311 39.2423C26.6565 38.2289 27.7658 37.7223 29.2591 37.7223C29.8351 37.7223 30.3418 37.8023 30.7791 37.9623C31.2271 38.1116 31.6111 38.3249 31.9311 38.6023C32.2511 38.8796 32.5125 39.2156 32.7151 39.6103C32.9285 40.0049 33.0938 40.4476 33.2111 40.9383L30.9711 41.4823C30.9071 41.2156 30.8325 40.9703 30.7471 40.7463C30.6618 40.5223 30.5498 40.3303 30.4111 40.1703C30.2831 40.0103 30.1178 39.8876 29.9151 39.8023C29.7231 39.7063 29.4885 39.6583 29.2111 39.6583C28.5605 39.6583 28.0965 39.9143 27.8191 40.4263C27.5525 40.9276 27.4191 41.6263 27.4191 42.5223V44.4743C27.4191 45.3703 27.5525 46.0743 27.8191 46.5863C28.0965 47.0876 28.5605 47.3383 29.2111 47.3383C29.7658 47.3383 30.1658 47.1676 30.4111 46.8263C30.6671 46.4849 30.8538 46.0476 30.9711 45.5143L33.2111 46.0583C33.0938 46.5489 32.9285 46.9916 32.7151 47.3863C32.5125 47.7809 32.2511 48.1223 31.9311 48.4103C31.6111 48.6876 31.2271 48.9009 30.7791 49.0503C30.3418 49.1996 29.8351 49.2743 29.2591 49.2743ZM34.8849 40.8263H37.1889V43.4823L36.9969 45.9143H37.0929L40.0849 40.8263H42.3089V49.0823H40.0049V46.4263L40.1969 43.9943H40.1009L37.1089 49.0823H34.8849V40.8263ZM44.4786 40.8263H46.8466V43.9783H49.5346V40.8263H51.9026V49.0823H49.5346V45.8183H46.8466V49.0823H44.4786V40.8263ZM53.3524 49.0823L56.4404 44.8903L53.5604 40.8263H56.2644L57.1444 42.1543L57.8164 43.2263H57.9444L58.6324 42.1543L59.5284 40.8263H62.0084L59.1284 44.7623L62.2164 49.0823H59.4964L58.4564 47.5303L57.7364 46.4263H57.6084L56.9044 47.5303L55.8484 49.0823H53.3524ZM63.5221 40.8263H65.8901V42.3303H66.0021C66.2048 41.8396 66.4981 41.4343 66.8821 41.1143C67.2661 40.7943 67.7888 40.6343 68.4501 40.6343C68.9088 40.6343 69.3248 40.7196 69.6981 40.8903C70.0821 41.0609 70.4075 41.3223 70.6741 41.6743C70.9515 42.0263 71.1648 42.4743 71.3141 43.0183C71.4741 43.5623 71.5541 44.2076 71.5541 44.9543C71.5541 45.7009 71.4741 46.3463 71.3141 46.8903C71.1648 47.4343 70.9515 47.8823 70.6741 48.2343C70.4075 48.5863 70.0821 48.8476 69.6981 49.0183C69.3248 49.1889 68.9088 49.2743 68.4501 49.2743C67.7888 49.2743 67.2661 49.1196 66.8821 48.8103C66.4981 48.4903 66.2048 48.0796 66.0021 47.5783H65.8901V52.2823H63.5221V40.8263ZM67.4261 47.4343C67.9595 47.4343 68.3701 47.2743 68.6581 46.9543C68.9461 46.6236 69.0901 46.1703 69.0901 45.5943V44.3143C69.0901 43.7383 68.9461 43.2903 68.6581 42.9703C68.3701 42.6396 67.9595 42.4743 67.4261 42.4743C67.0101 42.4743 66.6475 42.5756 66.3381 42.7783C66.0395 42.9809 65.8901 43.3009 65.8901 43.7383V46.1703C65.8901 46.6076 66.0395 46.9276 66.3381 47.1303C66.6475 47.3329 67.0101 47.4343 67.4261 47.4343ZM76.9719 49.2743C76.3319 49.2743 75.7559 49.1783 75.2439 48.9863C74.7319 48.7836 74.2945 48.4956 73.9319 48.1223C73.5799 47.7489 73.3079 47.2956 73.1159 46.7623C72.9239 46.2289 72.8279 45.6263 72.8279 44.9543C72.8279 44.2823 72.9239 43.6796 73.1159 43.1463C73.3079 42.6129 73.5799 42.1596 73.9319 41.7863C74.2945 41.4129 74.7319 41.1303 75.2439 40.9383C75.7559 40.7356 76.3319 40.6343 76.9719 40.6343C77.6119 40.6343 78.1879 40.7356 78.6999 40.9383C79.2119 41.1303 79.6439 41.4129 79.9959 41.7863C80.3585 42.1596 80.6359 42.6129 80.8279 43.1463C81.0199 43.6796 81.1159 44.2823 81.1159 44.9543C81.1159 45.6263 81.0199 46.2289 80.8279 46.7623C80.6359 47.2956 80.3585 47.7489 79.9959 48.1223C79.6439 48.4956 79.2119 48.7836 78.6999 48.9863C78.1879 49.1783 77.6119 49.2743 76.9719 49.2743ZM76.9719 47.5143C77.5052 47.5143 77.9212 47.3489 78.2199 47.0183C78.5185 46.6876 78.6679 46.2183 78.6679 45.6103V44.2983C78.6679 43.6903 78.5185 43.2209 78.2199 42.8903C77.9212 42.5596 77.5052 42.3943 76.9719 42.3943C76.4385 42.3943 76.0225 42.5596 75.7239 42.8903C75.4252 43.2209 75.2759 43.6903 75.2759 44.2983V45.6103C75.2759 46.2183 75.4252 46.6876 75.7239 47.0183C76.0225 47.3489 76.4385 47.5143 76.9719 47.5143ZM82.8536 40.8263H85.2216V43.9783H87.9096V40.8263H90.2776V49.0823H87.9096V45.8183H85.2216V49.0823H82.8536V40.8263ZM92.4474 40.8263H94.7514V43.4823L94.5594 45.9143H94.6554L97.6474 40.8263H99.8714V49.0823H97.5674V46.4263L97.7594 43.9943H97.6634L94.6714 49.0823H92.4474V40.8263ZM105.577 49.2743C104.713 49.2743 103.95 49.1356 103.289 48.8583C102.628 48.5809 102.121 48.2076 101.769 47.7383L103.129 46.4743C103.449 46.8263 103.801 47.0876 104.185 47.2583C104.569 47.4289 105.054 47.5143 105.641 47.5143C106.132 47.5143 106.505 47.4289 106.761 47.2583C107.017 47.0876 107.145 46.8583 107.145 46.5703V46.4743C107.145 45.9836 106.846 45.7383 106.249 45.7383H104.313V44.1703H106.041C106.382 44.1703 106.622 44.1009 106.761 43.9623C106.91 43.8129 106.985 43.6156 106.985 43.3703V43.2743C106.985 43.0289 106.862 42.8209 106.617 42.6503C106.382 42.4796 106.02 42.3943 105.529 42.3943C105.049 42.3943 104.633 42.4743 104.281 42.6343C103.94 42.7836 103.614 43.0183 103.305 43.3383L101.993 42.1223C102.43 41.6529 102.937 41.2903 103.513 41.0343C104.1 40.7676 104.841 40.6343 105.737 40.6343C106.313 40.6343 106.825 40.6929 107.273 40.8103C107.721 40.9169 108.1 41.0716 108.409 41.2743C108.729 41.4769 108.969 41.7169 109.129 41.9943C109.289 42.2609 109.369 42.5543 109.369 42.8743C109.369 43.3863 109.209 43.8023 108.889 44.1223C108.58 44.4316 108.169 44.6343 107.657 44.7303V44.8103C108.201 44.8956 108.649 45.1089 109.001 45.4503C109.353 45.7916 109.529 46.2343 109.529 46.7783C109.529 47.5249 109.193 48.1276 108.521 48.5863C107.849 49.0449 106.868 49.2743 105.577 49.2743ZM118.339 49.0823C117.848 49.0823 117.454 48.9596 117.155 48.7143C116.856 48.4583 116.68 48.0956 116.627 47.6263H116.547C116.398 48.1703 116.099 48.5809 115.651 48.8583C115.214 49.1356 114.675 49.2743 114.035 49.2743C113.235 49.2743 112.59 49.0609 112.099 48.6343C111.619 48.1969 111.379 47.5889 111.379 46.8103C111.379 45.9463 111.694 45.3063 112.323 44.8903C112.952 44.4743 113.875 44.2663 115.091 44.2663H116.419V43.8503C116.419 43.3596 116.302 42.9916 116.067 42.7463C115.843 42.4903 115.459 42.3623 114.915 42.3623C114.414 42.3623 114.008 42.4583 113.699 42.6503C113.39 42.8423 113.123 43.0929 112.899 43.4023L111.603 42.2503C111.88 41.7809 112.312 41.3969 112.899 41.0983C113.496 40.7889 114.259 40.6343 115.187 40.6343C116.318 40.6343 117.198 40.8956 117.827 41.4183C118.467 41.9303 118.787 42.7089 118.787 43.7543V47.3703H119.699V49.0823H118.339ZM114.931 47.7223C115.347 47.7223 115.699 47.6209 115.987 47.4183C116.275 47.2156 116.419 46.9223 116.419 46.5383V45.5463H115.155C114.184 45.5463 113.699 45.8716 113.699 46.5223V46.8423C113.699 47.1303 113.811 47.3489 114.035 47.4983C114.259 47.6476 114.558 47.7223 114.931 47.7223ZM127.325 49.0823H121.021V40.8263H123.389V47.2423H125.821V40.8263H128.189V47.2423H129.469V51.3223H127.325V49.0823ZM130.822 40.8263H133.126V43.4823L132.934 45.9143H133.03L136.022 40.8263H138.246V49.0823H135.942V46.4263L136.134 43.9943H136.038L133.046 49.0823H130.822V40.8263ZM140.048 47.2423H141.008L141.408 46.5383C141.675 46.0903 142.085 45.8663 142.64 45.8663V45.7703C141.947 45.7063 141.381 45.4929 140.944 45.1303C140.507 44.7676 140.288 44.2396 140.288 43.5463C140.288 43.1303 140.357 42.7569 140.496 42.4263C140.635 42.0849 140.827 41.7969 141.072 41.5623C141.317 41.3276 141.611 41.1463 141.952 41.0183C142.304 40.8903 142.683 40.8263 143.088 40.8263H147.696V49.0823H145.328V46.1223H144.304L143.312 47.8823C143.056 48.3409 142.779 48.6556 142.48 48.8263C142.181 48.9969 141.792 49.0823 141.312 49.0823H140.048V47.2423ZM145.328 42.5063H143.568C143.28 42.5063 143.056 42.5969 142.896 42.7783C142.747 42.9596 142.672 43.1569 142.672 43.3703V43.7383C142.672 43.9516 142.747 44.1436 142.896 44.3143C143.056 44.4743 143.28 44.5543 143.568 44.5543H145.328V42.5063ZM159.604 40.8263H167.028V49.0823H164.66V42.6663H161.972V49.0823H159.604V40.8263ZM169.053 40.8263H171.421V42.3303H171.533C171.736 41.8396 172.029 41.4343 172.413 41.1143C172.797 40.7943 173.32 40.6343 173.981 40.6343C174.44 40.6343 174.856 40.7196 175.229 40.8903C175.613 41.0609 175.939 41.3223 176.205 41.6743C176.483 42.0263 176.696 42.4743 176.845 43.0183C177.005 43.5623 177.085 44.2076 177.085 44.9543C177.085 45.7009 177.005 46.3463 176.845 46.8903C176.696 47.4343 176.483 47.8823 176.205 48.2343C175.939 48.5863 175.613 48.8476 175.229 49.0183C174.856 49.1889 174.44 49.2743 173.981 49.2743C173.32 49.2743 172.797 49.1196 172.413 48.8103C172.029 48.4903 171.736 48.0796 171.533 47.5783H171.421V52.2823H169.053V40.8263ZM172.957 47.4343C173.491 47.4343 173.901 47.2743 174.189 46.9543C174.477 46.6236 174.621 46.1703 174.621 45.5943V44.3143C174.621 43.7383 174.477 43.2903 174.189 42.9703C173.901 42.6396 173.491 42.4743 172.957 42.4743C172.541 42.4743 172.179 42.5756 171.869 42.7783C171.571 42.9809 171.421 43.3009 171.421 43.7383V46.1703C171.421 46.6076 171.571 46.9276 171.869 47.1303C172.179 47.3329 172.541 47.4343 172.957 47.4343ZM182.503 49.2743C181.863 49.2743 181.287 49.1783 180.775 48.9863C180.263 48.7836 179.826 48.4956 179.463 48.1223C179.111 47.7489 178.839 47.2956 178.647 46.7623C178.455 46.2289 178.359 45.6263 178.359 44.9543C178.359 44.2823 178.455 43.6796 178.647 43.1463C178.839 42.6129 179.111 42.1596 179.463 41.7863C179.826 41.4129 180.263 41.1303 180.775 40.9383C181.287 40.7356 181.863 40.6343 182.503 40.6343C183.143 40.6343 183.719 40.7356 184.231 40.9383C184.743 41.1303 185.175 41.4129 185.527 41.7863C185.89 42.1596 186.167 42.6129 186.359 43.1463C186.551 43.6796 186.647 44.2823 186.647 44.9543C186.647 45.6263 186.551 46.2289 186.359 46.7623C186.167 47.2956 185.89 47.7489 185.527 48.1223C185.175 48.4956 184.743 48.7836 184.231 48.9863C183.719 49.1783 183.143 49.2743 182.503 49.2743ZM182.503 47.5143C183.036 47.5143 183.452 47.3489 183.751 47.0183C184.05 46.6876 184.199 46.2183 184.199 45.6103V44.2983C184.199 43.6903 184.05 43.2209 183.751 42.8903C183.452 42.5596 183.036 42.3943 182.503 42.3943C181.97 42.3943 181.554 42.5596 181.255 42.8903C180.956 43.2209 180.807 43.6903 180.807 44.2983V45.6103C180.807 46.2183 180.956 46.6876 181.255 47.0183C181.554 47.3489 181.97 47.5143 182.503 47.5143ZM192.321 49.2743C190.934 49.2743 189.884 48.8903 189.169 48.1223C188.454 47.3543 188.097 46.3089 188.097 44.9863C188.097 44.3143 188.188 43.7116 188.369 43.1783C188.561 42.6343 188.828 42.1756 189.169 41.8023C189.521 41.4183 189.942 41.1303 190.433 40.9383C190.934 40.7356 191.494 40.6343 192.113 40.6343C192.732 40.6343 193.286 40.7356 193.777 40.9383C194.268 41.1303 194.684 41.4076 195.025 41.7703C195.366 42.1329 195.628 42.5756 195.809 43.0983C196.001 43.6103 196.097 44.1863 196.097 44.8263V45.5303H190.449V45.6743C190.449 46.2076 190.614 46.6396 190.945 46.9703C191.276 47.2903 191.761 47.4503 192.401 47.4503C192.892 47.4503 193.313 47.3596 193.665 47.1783C194.017 46.9863 194.321 46.7356 194.577 46.4263L195.857 47.8183C195.537 48.2129 195.089 48.5543 194.513 48.8423C193.937 49.1303 193.206 49.2743 192.321 49.2743ZM192.129 42.3303C191.617 42.3303 191.206 42.4903 190.897 42.8103C190.598 43.1196 190.449 43.5409 190.449 44.0743V44.2023H193.777V44.0743C193.777 43.5303 193.628 43.1036 193.329 42.7943C193.041 42.4849 192.641 42.3303 192.129 42.3303ZM198.027 40.8263H200.395V43.9943H201.611L203.275 40.8263H205.787L204.187 43.6743C204.005 44.0156 203.808 44.2663 203.595 44.4263C203.392 44.5756 203.157 44.6769 202.891 44.7303V44.8263C203.2 44.8903 203.451 45.0076 203.643 45.1783C203.845 45.3383 204.048 45.6156 204.251 46.0103L204.875 47.2423H205.755V49.0823H204.651C204.203 49.0823 203.819 48.9916 203.499 48.8103C203.189 48.6289 202.923 48.3196 202.699 47.8823L201.611 45.8023H200.395V49.0823H198.027V40.8263ZM210.116 42.6663H207.396V40.8263H215.172V42.6663H212.452V49.0823H210.116V42.6663ZM223.87 49.0823C223.379 49.0823 222.985 48.9596 222.686 48.7143C222.387 48.4583 222.211 48.0956 222.158 47.6263H222.078C221.929 48.1703 221.63 48.5809 221.182 48.8583C220.745 49.1356 220.206 49.2743 219.566 49.2743C218.766 49.2743 218.121 49.0609 217.63 48.6343C217.15 48.1969 216.91 47.5889 216.91 46.8103C216.91 45.9463 217.225 45.3063 217.854 44.8903C218.483 44.4743 219.406 44.2663 220.622 44.2663H221.95V43.8503C221.95 43.3596 221.833 42.9916 221.598 42.7463C221.374 42.4903 220.99 42.3623 220.446 42.3623C219.945 42.3623 219.539 42.4583 219.23 42.6503C218.921 42.8423 218.654 43.0929 218.43 43.4023L217.134 42.2503C217.411 41.7809 217.843 41.3969 218.43 41.0983C219.027 40.7889 219.79 40.6343 220.718 40.6343C221.849 40.6343 222.729 40.8956 223.358 41.4183C223.998 41.9303 224.318 42.7089 224.318 43.7543V47.3703H225.23V49.0823H223.87ZM220.462 47.7223C220.878 47.7223 221.23 47.6209 221.518 47.4183C221.806 47.2156 221.95 46.9223 221.95 46.5383V45.5463H220.686C219.715 45.5463 219.23 45.8716 219.23 46.5223V46.8423C219.23 47.1303 219.342 47.3489 219.566 47.4983C219.79 47.6476 220.089 47.7223 220.462 47.7223Z" fill="#476481"/>
<g clip-path="url(#clip1)">
<path d="M265.468 59.771C267.981 60.0053 270.589 59.8646 273.062 60.4117C275.302 60.9754 277.477 61.761 279.556 62.7566C283.72 64.6698 287.671 67.0049 291.347 69.7253C294.983 72.3765 298.412 75.2967 301.604 78.4615C305.032 81.8695 307.871 85.8771 308.623 90.746C308.79 91.7972 310.417 91.3652 310.241 90.3194C308.712 81.0132 299.92 74.2756 292.758 69.0254C288.814 66.1058 284.515 63.6882 279.961 61.8281C277.682 60.8232 275.292 60.0855 272.837 59.6298C270.407 59.2632 267.941 59.4487 265.47 59.3292C265.183 59.3078 265.183 59.7425 265.468 59.771Z" fill="#F2706D"/>
<path d="M306.112 72.6388C306.905 75.7688 307.009 79.2722 307.557 82.4767C307.839 84.0232 307.857 85.8124 308.354 87.3074C308.756 88.5125 309.687 89.7327 310.32 90.8289L311.384 89.7614C307.967 87.9715 304.968 85.3064 301.838 83.0609C300.151 81.8544 297.921 79.8866 295.647 80.1184C295.485 80.1196 295.327 80.1794 295.205 80.2868C295.082 80.3941 295.003 80.5417 294.981 80.7021C294.959 80.8624 294.996 81.0245 295.086 81.1583C295.176 81.2921 295.312 81.3884 295.469 81.4292C301.279 83.2686 305.291 88.3328 310.607 91.1157C310.756 91.1929 310.925 91.2206 311.092 91.1947C311.258 91.1688 311.412 91.0906 311.532 90.9717C311.651 90.8529 311.729 90.6995 311.755 90.5341C311.781 90.3687 311.752 90.2 311.674 90.0528C310.939 88.7799 310.006 87.5012 309.575 86.0888C309.102 84.5499 308.882 82.8655 308.505 81.2711C307.842 78.3866 307.562 75.2986 306.636 72.4875C306.608 72.43 306.561 72.3841 306.503 72.3574C306.444 72.3308 306.378 72.3251 306.316 72.3413C306.253 72.3575 306.198 72.3946 306.16 72.4464C306.121 72.4981 306.102 72.5613 306.105 72.6253L306.112 72.6388Z" fill="#F2706D"/>
</g>
<defs>
<clipPath id="clip0">
<rect width="255.345" height="70.413" fill="white" transform="translate(3.68555) rotate(3)"/>
</clipPath>
<clipPath id="clip1">
<rect width="50.4997" height="29.3954" fill="white" transform="translate(290.458 44.3635) rotate(60)"/>
</clipPath>
</defs>
</svg>
