<svg width="319" height="102" viewBox="0 0 319 102" fill="none" xmlns="http://www.w3.org/2000/svg">
<path d="M124.45 7.33806C112.289 8.35124 99.8049 8.24996 87.6457 9.52697C76.6679 10.6542 65.9764 12.373 55.7166 14.6598C36.5635 18.9989 16.3707 25.6742 5.88343 35.8868C-3.26511 44.7659 1.30663 54.9595 16.8465 61.5166C25.6706 65.246 35.9981 66.8337 46.2575 68.554C58.6624 70.5903 71.3566 71.8266 84.084 72.2379C111.33 73.1751 138.455 72.1752 164.804 69.2623C188.145 66.6995 212.529 62.8814 232.039 55.5407C247.475 49.7732 261.66 39.6012 245.515 29.4136C231.589 20.661 206.109 17.3773 187.014 15.0494C158.322 11.5039 128.482 11.2077 99.9819 13.0406C77.6628 14.4913 50.673 17.2626 38.2505 28.5224C37.1439 29.5108 39.659 30.8167 41.2311 29.9888C55.6717 22.5186 71.3645 18.866 91.1734 17.1816C113.158 15.3416 135.644 15.0512 158.116 16.317C179.456 17.5034 201.297 19.9242 221.538 24.5838C229.846 26.4995 238.835 29.1146 244.002 33.4946C252.489 40.7455 242.497 47.3344 232.999 51.4988C216.429 58.7638 195.191 62.6448 174.706 65.5613C152.199 68.632 129.012 70.326 105.541 70.6144C82.9547 71.0874 60.141 69.4375 38.0431 65.7328C17.4621 62.3146 -3.83344 52.4015 4.68158 39.5672C12.4828 27.81 35.3605 20.0759 54.9753 15.3867C65.4634 12.9075 76.433 11.0316 87.7238 9.78629C99.3499 8.47284 112.478 7.08497 124.524 7.68223C124.564 7.68099 124.603 7.6753 124.638 7.6655C124.673 7.65571 124.704 7.64199 124.729 7.62513C124.754 7.60827 124.773 7.5886 124.784 7.56725C124.795 7.54589 124.798 7.52327 124.793 7.50067C124.788 7.47807 124.776 7.45594 124.756 7.43554C124.736 7.41513 124.709 7.39686 124.677 7.38176C124.646 7.36666 124.609 7.35503 124.57 7.34753C124.531 7.34003 124.49 7.33681 124.45 7.33806Z" fill="#78859D"/>
<path d="M34.2031 38.4738V47.6738H31.8031V38.4738H28.5871V36.5058H37.4191V38.4738H34.2031ZM42.8209 47.8658C41.4342 47.8658 40.3835 47.4818 39.6689 46.7138C38.9542 45.9458 38.5969 44.9005 38.5969 43.5778C38.5969 42.9058 38.6875 42.3032 38.8689 41.7698C39.0609 41.2258 39.3275 40.7672 39.6689 40.3938C40.0209 40.0098 40.4422 39.7218 40.9329 39.5298C41.4342 39.3272 41.9942 39.2258 42.6129 39.2258C43.2315 39.2258 43.7862 39.3272 44.2769 39.5298C44.7675 39.7218 45.1835 39.9992 45.5249 40.3618C45.8662 40.7245 46.1275 41.1672 46.3089 41.6898C46.5009 42.2018 46.5969 42.7778 46.5969 43.4178V44.1218H40.9489V44.2658C40.9489 44.7992 41.1142 45.2312 41.4449 45.5618C41.7755 45.8818 42.2609 46.0418 42.9009 46.0418C43.3915 46.0418 43.8129 45.9512 44.1649 45.7698C44.5169 45.5778 44.8209 45.3272 45.0769 45.0178L46.3569 46.4098C46.0369 46.8045 45.5889 47.1458 45.0129 47.4338C44.4369 47.7218 43.7062 47.8658 42.8209 47.8658ZM42.6289 40.9218C42.1169 40.9218 41.7062 41.0818 41.3969 41.4018C41.0982 41.7112 40.9489 42.1325 40.9489 42.6658V42.7938H44.2769V42.6658C44.2769 42.1218 44.1275 41.6952 43.8289 41.3858C43.5409 41.0765 43.1409 40.9218 42.6289 40.9218ZM52.5266 47.8658C51.876 47.8658 51.2893 47.7698 50.7666 47.5778C50.2546 47.3752 49.8173 47.0872 49.4546 46.7138C49.1026 46.3405 48.8306 45.8872 48.6386 45.3538C48.4466 44.8205 48.3506 44.2178 48.3506 43.5458C48.3506 42.8738 48.4466 42.2712 48.6386 41.7378C48.8306 41.2045 49.1026 40.7512 49.4546 40.3778C49.8173 40.0045 50.2546 39.7218 50.7666 39.5298C51.2893 39.3272 51.8706 39.2258 52.5106 39.2258C53.4173 39.2258 54.1426 39.4125 54.6866 39.7858C55.2413 40.1485 55.6626 40.6338 55.9506 41.2418L54.1266 42.2338C53.9773 41.9138 53.78 41.6472 53.5346 41.4338C53.3 41.2205 52.9586 41.1138 52.5106 41.1138C51.9666 41.1138 51.5453 41.2738 51.2466 41.5938C50.9586 41.9032 50.8146 42.3298 50.8146 42.8738V44.2178C50.8146 44.7618 50.9586 45.1938 51.2466 45.5138C51.5453 45.8232 51.9773 45.9778 52.5426 45.9778C53.0013 45.9778 53.3586 45.8712 53.6146 45.6578C53.8813 45.4445 54.1053 45.1672 54.2866 44.8258L56.0786 45.8498C55.78 46.4578 55.3426 46.9485 54.7666 47.3218C54.2013 47.6845 53.4546 47.8658 52.5266 47.8658ZM60.6164 41.2578H57.8964V39.4178H65.6724V41.2578H62.9524V47.6738H60.6164V41.2578ZM67.6661 39.4178H69.9701V42.0738L69.7781 44.5058H69.8741L72.8661 39.4178H75.0901V47.6738H72.7861V45.0178L72.9781 42.5858H72.8821L69.8901 47.6738H67.6661V39.4178ZM77.1159 39.4178H79.4839V40.9218H79.5959C79.7985 40.4312 80.0919 40.0258 80.4759 39.7058C80.8599 39.3858 81.3825 39.2258 82.0439 39.2258C82.5025 39.2258 82.9185 39.3112 83.2919 39.4818C83.6759 39.6525 84.0012 39.9138 84.2679 40.2658C84.5452 40.6178 84.7585 41.0658 84.9079 41.6098C85.0679 42.1538 85.1479 42.7992 85.1479 43.5458C85.1479 44.2925 85.0679 44.9378 84.9079 45.4818C84.7585 46.0258 84.5452 46.4738 84.2679 46.8258C84.0012 47.1778 83.6759 47.4392 83.2919 47.6098C82.9185 47.7805 82.5025 47.8658 82.0439 47.8658C81.3825 47.8658 80.8599 47.7112 80.4759 47.4018C80.0919 47.0818 79.7985 46.6712 79.5959 46.1698H79.4839V50.8738H77.1159V39.4178ZM81.0199 46.0258C81.5532 46.0258 81.9639 45.8658 82.2519 45.5458C82.5399 45.2152 82.6839 44.7618 82.6839 44.1858V42.9058C82.6839 42.3298 82.5399 41.8818 82.2519 41.5618C81.9639 41.2312 81.5532 41.0658 81.0199 41.0658C80.6039 41.0658 80.2412 41.1672 79.9319 41.3698C79.6332 41.5725 79.4839 41.8925 79.4839 42.3298V44.7618C79.4839 45.1992 79.6332 45.5192 79.9319 45.7218C80.2412 45.9245 80.6039 46.0258 81.0199 46.0258ZM90.5656 47.8658C89.9256 47.8658 89.3496 47.7698 88.8376 47.5778C88.3256 47.3752 87.8883 47.0872 87.5256 46.7138C87.1736 46.3405 86.9016 45.8872 86.7096 45.3538C86.5176 44.8205 86.4216 44.2178 86.4216 43.5458C86.4216 42.8738 86.5176 42.2712 86.7096 41.7378C86.9016 41.2045 87.1736 40.7512 87.5256 40.3778C87.8883 40.0045 88.3256 39.7218 88.8376 39.5298C89.3496 39.3272 89.9256 39.2258 90.5656 39.2258C91.2056 39.2258 91.7816 39.3272 92.2936 39.5298C92.8056 39.7218 93.2376 40.0045 93.5896 40.3778C93.9523 40.7512 94.2296 41.2045 94.4216 41.7378C94.6136 42.2712 94.7096 42.8738 94.7096 43.5458C94.7096 44.2178 94.6136 44.8205 94.4216 45.3538C94.2296 45.8872 93.9523 46.3405 93.5896 46.7138C93.2376 47.0872 92.8056 47.3752 92.2936 47.5778C91.7816 47.7698 91.2056 47.8658 90.5656 47.8658ZM90.5656 46.1058C91.099 46.1058 91.515 45.9405 91.8136 45.6098C92.1123 45.2792 92.2616 44.8098 92.2616 44.2018V42.8898C92.2616 42.2818 92.1123 41.8125 91.8136 41.4818C91.515 41.1512 91.099 40.9858 90.5656 40.9858C90.0323 40.9858 89.6163 41.1512 89.3176 41.4818C89.019 41.8125 88.8696 42.2818 88.8696 42.8898V44.2018C88.8696 44.8098 89.019 45.2792 89.3176 45.6098C89.6163 45.9405 90.0323 46.1058 90.5656 46.1058ZM96.6394 39.4178H101.359C102.127 39.4178 102.714 39.6098 103.119 39.9938C103.525 40.3778 103.727 40.8898 103.727 41.5298C103.727 41.9992 103.589 42.3885 103.311 42.6978C103.045 43.0072 102.602 43.2205 101.983 43.3378V43.4178C102.645 43.4712 103.151 43.6525 103.503 43.9618C103.866 44.2712 104.047 44.6978 104.047 45.2418C104.047 45.9885 103.813 46.5805 103.343 47.0178C102.874 47.4552 102.223 47.6738 101.391 47.6738H96.6394V39.4178ZM100.975 45.9938C101.445 45.9938 101.679 45.7698 101.679 45.3218V44.9378C101.679 44.7032 101.615 44.5325 101.487 44.4258C101.359 44.3085 101.189 44.2498 100.975 44.2498H98.9434V45.9938H100.975ZM100.687 42.8418C100.901 42.8418 101.066 42.7832 101.183 42.6658C101.301 42.5378 101.359 42.3618 101.359 42.1378V41.8018C101.359 41.5778 101.301 41.4072 101.183 41.2898C101.066 41.1618 100.901 41.0978 100.687 41.0978H98.9434V42.8418H100.687ZM112.745 47.6738C112.254 47.6738 111.86 47.5512 111.561 47.3058C111.262 47.0498 111.086 46.6872 111.033 46.2178H110.953C110.804 46.7618 110.505 47.1725 110.057 47.4498C109.62 47.7272 109.081 47.8658 108.441 47.8658C107.641 47.8658 106.996 47.6525 106.505 47.2258C106.025 46.7885 105.785 46.1805 105.785 45.4018C105.785 44.5378 106.1 43.8978 106.729 43.4818C107.358 43.0658 108.281 42.8578 109.497 42.8578H110.825V42.4418C110.825 41.9512 110.708 41.5832 110.473 41.3378C110.249 41.0818 109.865 40.9538 109.321 40.9538C108.82 40.9538 108.414 41.0498 108.105 41.2418C107.796 41.4338 107.529 41.6845 107.305 41.9938L106.009 40.8418C106.286 40.3725 106.718 39.9885 107.305 39.6898C107.902 39.3805 108.665 39.2258 109.593 39.2258C110.724 39.2258 111.604 39.4872 112.233 40.0098C112.873 40.5218 113.193 41.3005 113.193 42.3458V45.9618H114.105V47.6738H112.745ZM109.337 46.3138C109.753 46.3138 110.105 46.2125 110.393 46.0098C110.681 45.8072 110.825 45.5138 110.825 45.1298V44.1378H109.561C108.59 44.1378 108.105 44.4632 108.105 45.1138V45.4338C108.105 45.7218 108.217 45.9405 108.441 46.0898C108.665 46.2392 108.964 46.3138 109.337 46.3138ZM115.635 39.4178H118.003V42.5698H120.691V39.4178H123.059V47.6738H120.691V44.4098H118.003V47.6738H115.635V39.4178ZM125.229 39.4178H127.533V42.0738L127.341 44.5058H127.437L130.429 39.4178H132.653V47.6738H130.349V45.0178L130.541 42.5858H130.445L127.453 47.6738H125.229V39.4178ZM138.758 47.8658C137.372 47.8658 136.321 47.4818 135.606 46.7138C134.892 45.9458 134.534 44.9005 134.534 43.5778C134.534 42.9058 134.625 42.3032 134.806 41.7698C134.998 41.2258 135.265 40.7672 135.606 40.3938C135.958 40.0098 136.38 39.7218 136.87 39.5298C137.372 39.3272 137.932 39.2258 138.55 39.2258C139.169 39.2258 139.724 39.3272 140.214 39.5298C140.705 39.7218 141.121 39.9992 141.462 40.3618C141.804 40.7245 142.065 41.1672 142.246 41.6898C142.438 42.2018 142.534 42.7778 142.534 43.4178V44.1218H136.886V44.2658C136.886 44.7992 137.052 45.2312 137.382 45.5618C137.713 45.8818 138.198 46.0418 138.838 46.0418C139.329 46.0418 139.75 45.9512 140.102 45.7698C140.454 45.5778 140.758 45.3272 141.014 45.0178L142.294 46.4098C141.974 46.8045 141.526 47.1458 140.95 47.4338C140.374 47.7218 139.644 47.8658 138.758 47.8658ZM138.566 40.9218C138.054 40.9218 137.644 41.0818 137.334 41.4018C137.036 41.7112 136.886 42.1325 136.886 42.6658V42.7938H140.214V42.6658C140.214 42.1218 140.065 41.6952 139.766 41.3858C139.478 41.0765 139.078 40.9218 138.566 40.9218ZM153.866 39.4178H156.234V40.9218H156.346C156.549 40.4312 156.842 40.0258 157.226 39.7058C157.61 39.3858 158.133 39.2258 158.794 39.2258C159.253 39.2258 159.669 39.3112 160.042 39.4818C160.426 39.6525 160.751 39.9138 161.018 40.2658C161.295 40.6178 161.509 41.0658 161.658 41.6098C161.818 42.1538 161.898 42.7992 161.898 43.5458C161.898 44.2925 161.818 44.9378 161.658 45.4818C161.509 46.0258 161.295 46.4738 161.018 46.8258C160.751 47.1778 160.426 47.4392 160.042 47.6098C159.669 47.7805 159.253 47.8658 158.794 47.8658C158.133 47.8658 157.61 47.7112 157.226 47.4018C156.842 47.0818 156.549 46.6712 156.346 46.1698H156.234V50.8738H153.866V39.4178ZM157.77 46.0258C158.303 46.0258 158.714 45.8658 159.002 45.5458C159.29 45.2152 159.434 44.7618 159.434 44.1858V42.9058C159.434 42.3298 159.29 41.8818 159.002 41.5618C158.714 41.2312 158.303 41.0658 157.77 41.0658C157.354 41.0658 156.991 41.1672 156.682 41.3698C156.383 41.5725 156.234 41.8925 156.234 42.3298V44.7618C156.234 45.1992 156.383 45.5192 156.682 45.7218C156.991 45.9245 157.354 46.0258 157.77 46.0258ZM167.54 47.8658C166.153 47.8658 165.102 47.4818 164.388 46.7138C163.673 45.9458 163.316 44.9005 163.316 43.5778C163.316 42.9058 163.406 42.3032 163.588 41.7698C163.78 41.2258 164.046 40.7672 164.388 40.3938C164.74 40.0098 165.161 39.7218 165.652 39.5298C166.153 39.3272 166.713 39.2258 167.332 39.2258C167.95 39.2258 168.505 39.3272 168.996 39.5298C169.486 39.7218 169.902 39.9992 170.244 40.3618C170.585 40.7245 170.846 41.1672 171.028 41.6898C171.22 42.2018 171.316 42.7778 171.316 43.4178V44.1218H165.668V44.2658C165.668 44.7992 165.833 45.2312 166.164 45.5618C166.494 45.8818 166.98 46.0418 167.62 46.0418C168.11 46.0418 168.532 45.9512 168.884 45.7698C169.236 45.5778 169.54 45.3272 169.796 45.0178L171.076 46.4098C170.756 46.8045 170.308 47.1458 169.732 47.4338C169.156 47.7218 168.425 47.8658 167.54 47.8658ZM167.348 40.9218C166.836 40.9218 166.425 41.0818 166.116 41.4018C165.817 41.7112 165.668 42.1325 165.668 42.6658V42.7938H168.996V42.6658C168.996 42.1218 168.846 41.6952 168.548 41.3858C168.26 41.0765 167.86 40.9218 167.348 40.9218ZM172.589 39.4178H174.493V45.9458H175.949V39.4178H177.853V45.9458H179.309V39.4178H181.213V47.6738H172.589V39.4178ZM186.727 47.8658C185.34 47.8658 184.29 47.4818 183.575 46.7138C182.86 45.9458 182.503 44.9005 182.503 43.5778C182.503 42.9058 182.594 42.3032 182.775 41.7698C182.967 41.2258 183.234 40.7672 183.575 40.3938C183.927 40.0098 184.348 39.7218 184.839 39.5298C185.34 39.3272 185.9 39.2258 186.519 39.2258C187.138 39.2258 187.692 39.3272 188.183 39.5298C188.674 39.7218 189.09 39.9992 189.431 40.3618C189.772 40.7245 190.034 41.1672 190.215 41.6898C190.407 42.2018 190.503 42.7778 190.503 43.4178V44.1218H184.855V44.2658C184.855 44.7992 185.02 45.2312 185.351 45.5618C185.682 45.8818 186.167 46.0418 186.807 46.0418C187.298 46.0418 187.719 45.9512 188.071 45.7698C188.423 45.5778 188.727 45.3272 188.983 45.0178L190.263 46.4098C189.943 46.8045 189.495 47.1458 188.919 47.4338C188.343 47.7218 187.612 47.8658 186.727 47.8658ZM186.535 40.9218C186.023 40.9218 185.612 41.0818 185.303 41.4018C185.004 41.7112 184.855 42.1325 184.855 42.6658V42.7938H188.183V42.6658C188.183 42.1218 188.034 41.6952 187.735 41.3858C187.447 41.0765 187.047 40.9218 186.535 40.9218ZM192.385 39.4178H194.753V42.5698H197.441V39.4178H199.809V47.6738H197.441V44.4098H194.753V47.6738H192.385V39.4178ZM201.979 39.4178H204.283V42.0738L204.091 44.5058H204.187L207.179 39.4178H209.403V47.6738H207.099V45.0178L207.291 42.5858H207.195L204.203 47.6738H201.979V39.4178ZM211.572 39.4178H213.876V42.0738L213.684 44.5058H213.78L216.772 39.4178H218.996V47.6738H216.692V45.0178L216.884 42.5858H216.788L213.796 47.6738H211.572V39.4178ZM215.316 38.5538C214.612 38.5538 214.036 38.3992 213.588 38.0898C213.14 37.7698 212.804 37.3165 212.58 36.7298L212.244 35.8498L214.084 35.1618L214.596 36.8738C214.66 36.9058 214.762 36.9325 214.9 36.9538C215.039 36.9752 215.178 36.9858 215.316 36.9858C215.455 36.9858 215.594 36.9752 215.732 36.9538C215.871 36.9325 215.972 36.9058 216.036 36.8738L216.548 35.1618L218.388 35.8498L218.052 36.7298C217.828 37.3165 217.492 37.7698 217.044 38.0898C216.596 38.3992 216.02 38.5538 215.316 38.5538Z" fill="#476481"/>
<g clip-path="url(#clip0)">
<path d="M268.468 58.3625C270.98 58.5969 273.588 58.4562 276.061 59.0032C278.301 59.567 280.476 60.3525 282.555 61.3481C286.719 63.2613 290.67 65.5964 294.346 68.3168C297.982 70.968 301.411 73.8883 304.603 77.053C308.031 80.461 310.87 84.4687 311.622 89.3376C311.789 90.3887 313.416 89.9568 313.24 88.9109C311.711 79.6048 302.919 72.8671 295.757 67.6169C291.813 64.6973 287.514 62.2798 282.96 60.4197C280.681 59.4148 278.291 58.6771 275.836 58.2213C273.406 57.8548 270.94 58.0403 268.469 57.9207C268.182 57.8994 268.182 58.334 268.468 58.3625Z" fill="#78859D"/>
<path d="M309.111 71.2304C309.904 74.3603 310.008 77.8638 310.556 81.0683C310.838 82.6148 310.856 84.4039 311.353 85.899C311.755 87.1041 312.686 88.3243 313.319 89.4205L314.383 88.353C310.966 86.5631 307.967 83.8979 304.837 81.6524C303.15 80.4459 300.92 78.4781 298.646 78.71C298.484 78.7111 298.326 78.7709 298.204 78.8783C298.081 78.9857 298.002 79.1333 297.98 79.2936C297.958 79.4539 297.995 79.6161 298.085 79.7499C298.175 79.8837 298.311 79.9799 298.468 80.0208C304.278 81.8601 308.29 86.9243 313.606 89.7073C313.755 89.7845 313.924 89.8121 314.091 89.7862C314.257 89.7603 314.411 89.6822 314.531 89.5633C314.65 89.4444 314.728 89.291 314.754 89.1256C314.78 88.9602 314.751 88.7916 314.673 88.6443C313.939 87.3715 313.005 86.0927 312.574 84.6803C312.101 83.1415 311.881 81.4571 311.504 79.8627C310.841 76.9781 310.561 73.8901 309.635 71.079C309.607 71.0215 309.56 70.9756 309.502 70.949C309.444 70.9224 309.378 70.9167 309.315 70.9329C309.253 70.9491 309.197 70.9862 309.159 71.0379C309.12 71.0897 309.101 71.1528 309.104 71.2168L309.111 71.2304Z" fill="#78859D"/>
</g>
<defs>
<clipPath id="clip0">
<rect width="50.4997" height="29.3954" fill="white" transform="translate(293.457 42.9551) rotate(60)"/>
</clipPath>
</defs>
</svg>
