<svg width="637" height="428" viewBox="0 0 637 428" fill="none" xmlns="http://www.w3.org/2000/svg">
<path opacity="0.2" d="M636.573 373.318C636.573 375.542 511.615 377.342 357.472 377.342C203.33 377.342 78.3633 375.542 78.3633 373.318C78.3633 371.094 203.321 369.289 357.464 369.289C511.606 369.289 636.573 371.094 636.573 373.318Z" fill="#435D88"/>
<path d="M627.853 10.1827H102.293C97.4773 10.1827 93.5732 14.0907 93.5732 18.9114V364.281C93.5732 369.102 97.4773 373.01 102.293 373.01H627.853C632.669 373.01 636.573 369.102 636.573 364.281V18.9114C636.573 14.0907 632.669 10.1827 627.853 10.1827Z" fill="#E8ECF1"/>
<path d="M100.003 0H630.139C631.845 0 633.482 0.678566 634.689 1.88642C635.895 3.09428 636.573 4.73248 636.573 6.44065V20.3612H93.5732V6.44065C93.5732 4.73322 94.2505 3.09567 95.4563 1.88793C96.662 0.6802 98.2974 0.00113375 100.003 0V0Z" fill="#4195C9"/>
<path d="M594.405 13.2876C594.405 14.3254 594.098 15.34 593.522 16.2029C592.946 17.0658 592.127 17.7384 591.169 18.1356C590.211 18.5327 589.157 18.6367 588.14 18.4342C587.124 18.2317 586.189 17.7319 585.456 16.9981C584.723 16.2642 584.224 15.3292 584.022 14.3113C583.819 13.2934 583.923 12.2383 584.32 11.2794C584.717 10.3206 585.389 9.50106 586.251 8.92446C587.113 8.34786 588.126 8.0401 589.163 8.0401C590.553 8.0401 591.887 8.59296 592.87 9.57705C593.853 10.5611 594.405 11.8958 594.405 13.2876V13.2876Z" fill="url(#paint0_radial)"/>
<path d="M591.743 10.6275C591.743 11.6653 591.436 12.6799 590.86 13.5428C590.284 14.4058 589.465 15.0783 588.507 15.4755C587.549 15.8727 586.495 15.9766 585.478 15.7741C584.461 15.5716 583.527 15.0719 582.794 14.338C582.061 13.6041 581.562 12.6691 581.36 11.6512C581.157 10.6333 581.261 9.57823 581.658 8.61938C582.055 7.66053 582.727 6.84099 583.589 6.26439C584.451 5.68779 585.464 5.38004 586.501 5.38004C587.891 5.38004 589.225 5.93289 590.208 6.91698C591.191 7.90107 591.743 9.23578 591.743 10.6275Z" fill="url(#paint1_radial)"/>
<path d="M605.205 18.535C608.1 18.535 610.447 16.1856 610.447 13.2876C610.447 10.3895 608.1 8.0401 605.205 8.0401C602.31 8.0401 599.963 10.3895 599.963 13.2876C599.963 16.1856 602.31 18.535 605.205 18.535Z" fill="url(#paint2_radial)"/>
<path d="M607.79 10.6275C607.79 11.6653 607.483 12.6799 606.907 13.5428C606.331 14.4058 605.512 15.0783 604.554 15.4755C603.596 15.8727 602.542 15.9766 601.525 15.7741C600.508 15.5716 599.574 15.0719 598.841 14.338C598.108 13.6041 597.609 12.6691 597.406 11.6512C597.204 10.6333 597.308 9.57823 597.705 8.61938C598.101 7.66053 598.773 6.84099 599.635 6.26439C600.498 5.68779 601.511 5.38004 602.548 5.38004C603.938 5.38117 605.271 5.93439 606.253 6.91823C607.236 7.90208 607.789 9.23613 607.79 10.6275V10.6275Z" fill="url(#paint3_radial)"/>
<path d="M621.248 18.535C624.143 18.535 626.49 16.1856 626.49 13.2876C626.49 10.3895 624.143 8.0401 621.248 8.0401C618.353 8.0401 616.006 10.3895 616.006 13.2876C616.006 16.1856 618.353 18.535 621.248 18.535Z" fill="url(#paint4_radial)"/>
<path d="M623.833 10.6275C623.833 11.6653 623.526 12.6799 622.95 13.5428C622.374 14.4058 621.555 15.0783 620.597 15.4755C619.639 15.8727 618.585 15.9766 617.568 15.7741C616.551 15.5716 615.617 15.0719 614.884 14.338C614.151 13.6041 613.652 12.6691 613.449 11.6512C613.247 10.6333 613.351 9.57823 613.748 8.61938C614.144 7.66053 614.816 6.84099 615.678 6.26439C616.541 5.68779 617.554 5.38004 618.591 5.38004C619.981 5.38004 621.315 5.93289 622.298 6.91698C623.281 7.90107 623.833 9.23578 623.833 10.6275V10.6275Z" fill="url(#paint5_radial)"/>
<path d="M463.346 117.766H362.164V193.715H463.346V117.766Z" fill="#C7DBE9"/>
<path d="M464.128 290.56H361.378V213.05H464.128V290.56ZM362.946 288.995H462.565V214.611H362.946V288.995Z" fill="#B4BECF"/>
<path d="M584.023 290.56H581.673V288.995H582.455V288.212H584.023V290.56Z" fill="#B4BECF"/>
<path d="M578.512 290.56H575.351V288.995H578.512V290.56ZM572.185 290.56H569.023V288.995H572.185V290.56ZM565.862 290.56H562.696V288.995H565.862V290.56ZM559.534 290.56H556.369V288.995H559.534V290.56ZM553.207 290.56H550.033V288.995H553.194L553.207 290.56ZM546.884 290.56H543.718V288.995H546.884V290.56ZM540.557 290.56H537.395V288.995H540.557V290.56ZM534.229 290.56H531.068V288.995H534.229V290.56ZM527.902 290.56H524.74V288.995H527.902V290.56ZM521.579 290.56H518.417V288.995H521.583L521.579 290.56ZM515.251 290.56H512.09V288.995H515.251V290.56ZM508.924 290.56H505.762V288.995H508.924V290.56ZM502.601 290.56H499.435V288.995H502.609L502.601 290.56ZM496.274 290.56H493.112V288.995H496.274V290.56ZM489.946 290.56H486.802V288.995H489.963L489.946 290.56Z" fill="#B4BECF"/>
<path d="M483.623 290.56H481.273V288.212H482.837V288.995H483.623V290.56Z" fill="#B4BECF"/>
<path d="M482.837 285.048H481.273V281.883H482.837V285.048ZM482.837 278.714H481.273V275.549H482.837V278.714ZM482.837 272.385H481.273V269.22H482.837V272.385ZM482.837 266.055H481.273V262.886H482.837V266.055ZM482.837 259.721H481.273V256.552H482.837V259.721ZM482.837 253.392H481.273V250.223H482.837V253.392ZM482.837 247.058H481.273V243.893H482.837V247.058ZM482.837 240.724H481.273V237.56H482.837V240.724ZM482.837 234.395H481.273V231.23H482.837V234.395ZM482.837 228.061H481.273V224.897H482.837V228.061ZM482.837 221.732H481.273V218.563H482.837V221.732Z" fill="#B4BECF"/>
<path d="M482.837 215.398H481.273V213.05H483.623V214.611H482.837V215.398Z" fill="#B4BECF"/>
<path d="M578.512 214.611H575.351V213.05H578.512V214.611ZM572.185 214.611H569.023V213.05H572.185V214.611ZM565.862 214.611H562.696V213.05H565.862V214.611ZM559.534 214.611H556.369V213.05H559.534V214.611ZM553.207 214.611H550.033V213.05H553.194L553.207 214.611ZM546.884 214.611H543.718V213.05H546.884V214.611ZM540.557 214.611H537.395V213.05H540.557V214.611ZM534.229 214.611H531.068V213.05H534.229V214.611ZM527.902 214.611H524.74V213.05H527.902V214.611ZM521.579 214.611H518.417V213.05H521.583L521.579 214.611ZM515.251 214.611H512.09V213.05H515.251V214.611ZM508.924 214.611H505.762V213.05H508.924V214.611ZM502.601 214.611H499.435V213.05H502.609L502.601 214.611ZM496.274 214.611H493.112V213.05H496.274V214.611ZM489.946 214.611H486.802V213.05H489.963L489.946 214.611Z" fill="#B4BECF"/>
<path d="M584.023 215.398H582.455V214.611H581.673V213.05H584.023V215.398Z" fill="#B4BECF"/>
<path d="M584.023 285.048H582.455V281.883H584.023V285.048ZM584.023 278.714H582.455V275.549H584.023V278.714ZM584.023 272.38H582.455V269.216H584.023V272.38ZM584.023 266.055H582.455V262.886H584.023V266.055ZM584.023 259.721H582.455V256.552H584.023V259.721ZM584.023 253.388H582.455V250.223H584.023V253.388ZM584.023 247.058H582.455V243.893H584.023V247.058ZM584.023 240.724H582.455V237.56H584.023V240.724ZM584.023 234.391H582.455V231.226H584.023V234.391ZM584.023 228.061H582.455V224.897H584.023V228.061ZM584.023 221.732H582.455V218.563H584.023V221.732Z" fill="#B4BECF"/>
<path d="M252.911 46.8722H151.729V94.8691H252.911V46.8722Z" fill="#C7DBE9"/>
<path d="M580.037 95.6474H265.519V46.0895H580.037V95.6474ZM267.082 94.0865H578.469V47.6548H267.082V94.0865Z" fill="#B4BECF"/>
<path d="M584.023 353.752H150.946V311.661H584.023V353.752ZM152.514 352.191H582.455V313.222H152.51L152.514 352.191Z" fill="#B4BECF"/>
<path d="M312.63 138.41H212.354V227.8H312.63V138.41Z" fill="#C7DBE9"/>
<path d="M265.199 136.105H260.191V141.117H265.199V136.105Z" fill="#435D88"/>
<path d="M215.058 185.71V180.697H210.05V185.71H215.058Z" fill="#435D88"/>
<path d="M313.031 228.006H312.027V227.604H312.63V227.001H313.031V228.006Z" fill="#435D88"/>
<path d="M310.413 228.006H308.794V227.604H310.413V228.006ZM307.179 228.006H305.56V227.604H307.179V228.006ZM303.94 228.006H302.325V227.604H303.945L303.94 228.006ZM300.706 228.006H299.091V227.604H300.706V228.006ZM297.472 228.006H295.853V227.604H297.472V228.006ZM294.238 228.006H292.619V227.604H294.238V228.006ZM290.999 228.006H289.384V227.604H290.999V228.006ZM287.765 228.006H286.15V227.604H287.765V228.006ZM284.531 228.006H282.916V227.604H284.531V228.006ZM281.297 228.006H279.678V227.604H281.301L281.297 228.006ZM278.063 228.006H276.443V227.604H278.063V228.006ZM274.824 228.006H273.209V227.604H274.824V228.006ZM271.59 228.006H269.975V227.604H271.59V228.006ZM268.356 228.006H266.737V227.604H268.356V228.006ZM265.122 228.006H263.502V227.604H265.122V228.006ZM261.883 228.006H260.268V227.604H261.883V228.006ZM258.649 228.006H257.034V227.604H258.658L258.649 228.006ZM255.415 228.006H253.796V227.604H255.415V228.006ZM252.181 228.006H250.561V227.604H252.181V228.006ZM248.942 228.006H247.327V227.604H248.942V228.006ZM245.708 228.006H244.089V227.604H245.708V228.006ZM242.474 228.006H240.855V227.604H242.474V228.006ZM239.24 228.006H237.62V227.604H239.24V228.006ZM236.005 228.006H234.386V227.604H236.014L236.005 228.006ZM232.767 228.006H231.152V227.604H232.767V228.006ZM229.533 228.006H227.897V227.604H229.516L229.533 228.006ZM226.299 228.006H224.679V227.604H226.299V228.006ZM223.065 228.006H221.445V227.604H223.065V228.006ZM219.826 228.006H218.211V227.604H219.826V228.006ZM216.592 228.006H214.973V227.604H216.592V228.006Z" fill="#435D88"/>
<path d="M213.358 228.006H212.354V227.001H212.755V227.604H213.358V228.006Z" fill="#435D88"/>
<path d="M212.755 225.41H212.354V223.815H212.755V225.41ZM212.755 222.224H212.354V220.633H212.755V222.224ZM212.755 219.038H212.354V217.447H212.755V219.038ZM212.755 215.856H212.354V214.261H212.755V215.856ZM212.755 212.67H212.354V211.074H212.755V212.67ZM212.755 209.483H212.354V207.893H212.755V209.483ZM212.755 206.297H212.354V204.706H212.755V206.297ZM212.755 203.116H212.354V201.52H212.755V203.116ZM212.755 199.929H212.354V198.334H212.755V199.929ZM212.755 196.743H212.354V195.152H212.755V196.743ZM212.755 193.557H212.354V191.966H212.755V193.557ZM212.755 190.371H212.354V188.78H212.755V190.371ZM212.755 187.189H212.354V185.607H212.755V187.189ZM212.755 184.003H212.354V182.412H212.755V184.003ZM212.755 180.817H212.354V179.226H212.755V180.817ZM212.755 177.631H212.354V176.04H212.755V177.631ZM212.755 174.449H212.354V172.854H212.755V174.449ZM212.755 171.263H212.354V169.672H212.755V171.263ZM212.755 168.077H212.354V166.486H212.755V168.077ZM212.755 164.891H212.354V163.3H212.755V164.891ZM212.755 161.709H212.354V160.114H212.755V161.709ZM212.755 158.523H212.354V156.928H212.755V158.523ZM212.755 155.337H212.354V153.746H212.755V155.337ZM212.755 152.151H212.354V150.56H212.755V152.151ZM212.755 148.969H212.354V147.374H212.755V148.969ZM212.755 145.783H212.354V144.187H212.755V145.783ZM212.755 142.597H212.354V141.006H212.755V142.597Z" fill="#435D88"/>
<path d="M212.755 139.41H212.354V138.41H213.358V138.812H212.755V139.41Z" fill="#435D88"/>
<path d="M310.413 138.812H308.794V138.41H310.413V138.812ZM307.179 138.812H305.56V138.41H307.179V138.812ZM303.94 138.812H302.325V138.41H303.945L303.94 138.812ZM300.706 138.812H299.091V138.41H300.706V138.812ZM297.472 138.812H295.853V138.41H297.472V138.812ZM294.238 138.812H292.619V138.41H294.238V138.812ZM290.999 138.812H289.384V138.41H290.999V138.812ZM287.765 138.812H286.15V138.41H287.765V138.812ZM284.531 138.812H282.916V138.41H284.531V138.812ZM281.297 138.812H279.678V138.41H281.301L281.297 138.812ZM278.063 138.812H276.443V138.41H278.063V138.812ZM274.824 138.812H273.209V138.41H274.824V138.812ZM271.59 138.812H269.975V138.41H271.59V138.812ZM268.356 138.812H266.737V138.41H268.356V138.812ZM265.122 138.812H263.502V138.41H265.122V138.812ZM261.883 138.812H260.268V138.41H261.883V138.812ZM258.649 138.812H257.034V138.41H258.658L258.649 138.812ZM255.415 138.812H253.796V138.41H255.415V138.812ZM252.181 138.812H250.561V138.41H252.181V138.812ZM248.942 138.812H247.327V138.41H248.942V138.812ZM245.708 138.812H244.089V138.41H245.708V138.812ZM242.474 138.812H240.855V138.41H242.474V138.812ZM239.24 138.812H237.62V138.41H239.24V138.812ZM236.005 138.812H234.386V138.41H236.014L236.005 138.812ZM232.767 138.812H231.152V138.41H232.767V138.812ZM229.533 138.812H227.897V138.41H229.516L229.533 138.812ZM226.299 138.812H224.679V138.41H226.299V138.812ZM223.065 138.812H221.445V138.41H223.065V138.812ZM219.826 138.812H218.211V138.41H219.826V138.812ZM216.592 138.812H214.973V138.41H216.592V138.812Z" fill="#435D88"/>
<path d="M313.031 139.41H312.63V138.812H312.027V138.41H313.031V139.41Z" fill="#435D88"/>
<path d="M313.031 225.41H312.63V223.815H313.031V225.41ZM313.031 222.224H312.63V220.633H313.031V222.224ZM313.031 219.038H312.63V217.447H313.031V219.038ZM313.031 215.856H312.63V214.261H313.031V215.856ZM313.031 212.67H312.63V211.074H313.031V212.67ZM313.031 209.483H312.63V207.893H313.031V209.483ZM313.031 206.297H312.63V204.706H313.031V206.297ZM313.031 203.116H312.63V201.52H313.031V203.116ZM313.031 199.929H312.63V198.334H313.031V199.929ZM313.031 196.743H312.63V195.152H313.031V196.743ZM313.031 193.557H312.63V191.966H313.031V193.557ZM313.031 190.371H312.63V188.78H313.031V190.371ZM313.031 187.189H312.63V185.607H313.031V187.189ZM313.031 184.003H312.63V182.412H313.031V184.003ZM313.031 180.817H312.63V179.226H313.031V180.817ZM313.031 177.631H312.63V176.04H313.031V177.631ZM313.031 174.449H312.63V172.854H313.031V174.449ZM313.031 171.263H312.63V169.668H313.031V171.263ZM313.031 168.077H312.63V166.486H313.031V168.077ZM313.031 164.891H312.63V163.3H313.031V164.891ZM313.031 161.709H312.63V160.114H313.031V161.709ZM313.031 158.523H312.63V156.928H313.031V158.523ZM313.031 155.337H312.63V153.746H313.031V155.337ZM313.031 152.151H312.63V150.56H313.031V152.151ZM313.031 148.969H312.63V147.374H313.031V148.969ZM313.031 145.783H312.63V144.187H313.031V145.783ZM313.031 142.597H312.63V141.006H313.031V142.597Z" fill="#435D88"/>
<path d="M215.058 136.105H210.051V141.117H215.058V136.105Z" fill="#435D88"/>
<path d="M314.395 137.045H311.268V140.176H314.395V137.045Z" fill="#435D88"/>
<path d="M314.395 181.642H311.268V184.773H314.395V181.642Z" fill="#435D88"/>
<path d="M314.395 226.239H311.268V229.37H314.395V226.239Z" fill="#435D88"/>
<path d="M264.258 226.239H261.131V229.37H264.258V226.239Z" fill="#435D88"/>
<path d="M214.118 226.239H210.99V229.37H214.118V226.239Z" fill="#435D88"/>
<path d="M583.242 117.766H482.06V193.715H583.242V117.766Z" fill="#C7DBE9"/>
<path d="M0 426.34L0.226437 426.348V426.34H0Z" fill="#2A2A3B"/>
<path d="M380.441 179.209H375.007V180.753H380.441V179.209Z" fill="#435D88"/>
<path d="M393.677 179.209H385.175V180.753H393.677V179.209Z" fill="#435D88"/>
<path d="M437.413 179.209H399.372V180.753H437.413V179.209Z" fill="#435D88"/>
<path d="M434.431 184.08H385.61V185.628H434.431V184.08Z" fill="#435D88"/>
<path d="M503.104 179.209H497.67V180.753H503.104V179.209Z" fill="#435D88"/>
<path d="M516.336 179.209H507.834V180.753H516.336V179.209Z" fill="#435D88"/>
<path d="M560.077 179.209H522.036V180.753H560.077V179.209Z" fill="#435D88"/>
<path d="M557.095 184.08H508.274V185.628H557.095V184.08Z" fill="#435D88"/>
<path d="M431.402 427.105C457.347 427.105 478.381 425.92 478.381 424.458C478.381 422.996 457.347 421.811 431.402 421.811C405.456 421.811 384.423 422.996 384.423 424.458C384.423 425.92 405.456 427.105 431.402 427.105Z" fill="#DEE5EC"/>
<path d="M282.851 387.782C282.851 389.244 261.818 390.429 235.855 390.429C209.892 390.429 188.859 389.244 188.859 387.782C188.859 386.319 209.896 385.13 235.855 385.13C261.814 385.13 282.851 386.319 282.851 387.782Z" fill="#DEE5EC"/>
<path d="M316.846 392.007C316.846 393.47 295.814 394.658 269.85 394.658C243.887 394.658 222.854 393.47 222.854 392.007C222.854 390.544 243.887 389.36 269.85 389.36C295.814 389.36 316.846 390.544 316.846 392.007Z" fill="#DEE5EC"/>
<path d="M314.284 390.283C340.229 390.283 361.262 389.098 361.262 387.636C361.262 386.174 340.229 384.989 314.284 384.989C288.338 384.989 267.305 386.174 267.305 387.636C267.305 389.098 288.338 390.283 314.284 390.283Z" fill="#DEE5EC"/>
<path d="M158.722 427.105C188.313 427.105 212.302 425.92 212.302 424.458C212.302 422.996 188.313 421.811 158.722 421.811C129.131 421.811 105.143 422.996 105.143 424.458C105.143 425.92 129.131 427.105 158.722 427.105Z" fill="#DEE5EC"/>
<path d="M158.496 423.701L158.723 423.706V423.701H158.496Z" fill="#2A2A3B"/>
<path d="M341.682 320.45H293.31C288.126 320.45 283.924 324.657 283.924 329.846V378.27C283.924 383.459 288.126 387.666 293.31 387.666H341.682C346.866 387.666 351.068 383.459 351.068 378.27V329.846C351.068 324.657 346.866 320.45 341.682 320.45Z" fill="#F47954"/>
<path d="M336.709 339.254H298.279V368.862H336.709V339.254Z" fill="white"/>
<path d="M334.048 364.341H301.902V365.128H334.048V364.341Z" fill="#435D88"/>
<path d="M306.73 364.739C306.73 365.048 306.639 365.349 306.467 365.606C306.296 365.863 306.052 366.063 305.767 366.181C305.483 366.299 305.169 366.33 304.866 366.27C304.564 366.21 304.286 366.061 304.068 365.843C303.85 365.624 303.701 365.346 303.641 365.043C303.581 364.741 303.612 364.427 303.73 364.142C303.848 363.856 304.048 363.613 304.304 363.441C304.561 363.27 304.862 363.178 305.171 363.178C305.584 363.178 305.981 363.342 306.273 363.635C306.566 363.928 306.73 364.325 306.73 364.739V364.739Z" fill="#435D88"/>
<path d="M322.29 351.644L312.698 346.392V356.896L322.29 351.644Z" fill="#435D88"/>
<path d="M210.901 332.065H248.878C251.206 332.065 253.439 332.99 255.086 334.638C256.733 336.285 257.66 338.519 257.662 340.85V378.865C257.662 381.197 256.736 383.433 255.089 385.082C253.442 386.731 251.207 387.658 248.878 387.658H210.901C208.572 387.658 206.339 386.732 204.693 385.083C203.046 383.435 202.121 381.2 202.121 378.869V340.85C202.123 338.52 203.049 336.286 204.695 334.639C206.342 332.992 208.573 332.066 210.901 332.065V332.065Z" fill="#85D2DA"/>
<path d="M232.109 357.768H241.718C242.765 357.769 243.77 358.186 244.511 358.928C245.252 359.67 245.669 360.675 245.67 361.724V364.718C245.667 365.548 245.404 366.356 244.916 367.027C244.428 367.698 243.741 368.198 242.952 368.455V372.146L239.483 368.648H232.109C231.061 368.648 230.056 368.231 229.315 367.489C228.574 366.747 228.157 365.741 228.157 364.692V361.698C228.164 360.654 228.583 359.654 229.324 358.918C230.064 358.181 231.065 357.768 232.109 357.768V357.768Z" fill="white"/>
<path d="M226.209 361.724C226.211 360.158 226.833 358.657 227.939 357.55C229.045 356.443 230.545 355.82 232.109 355.818H239.197C239.022 354.389 238.333 353.074 237.257 352.119C236.181 351.165 234.794 350.636 233.356 350.635H218.975C218.199 350.635 217.429 350.788 216.712 351.086C215.994 351.383 215.342 351.82 214.793 352.37C214.244 352.92 213.808 353.573 213.511 354.291C213.214 355.01 213.062 355.78 213.063 356.558V361.005C213.065 362.247 213.459 363.457 214.189 364.461C214.918 365.466 215.946 366.214 217.125 366.599V372.125L222.342 366.937H226.67C226.386 366.229 226.241 365.472 226.243 364.709L226.209 361.724Z" fill="white"/>
<path d="M287.193 345.742H255.59C251.553 345.742 248.28 349.018 248.28 353.059V384.694C248.28 388.735 251.553 392.011 255.59 392.011H287.193C291.23 392.011 294.503 388.735 294.503 384.694V353.059C294.503 349.018 291.23 345.742 287.193 345.742Z" fill="#0083C7"/>
<path d="M258.431 359.457L271.389 368.511L284.518 359.457H258.431Z" fill="white"/>
<path d="M271.389 370.726L270.534 370.11L258.089 361.313V376.992C258.089 377.332 258.224 377.658 258.464 377.899C258.705 378.139 259.031 378.275 259.371 378.275H283.415C283.755 378.275 284.081 378.139 284.322 377.899C284.562 377.658 284.697 377.332 284.697 376.992V361.313L272.252 370.11L271.389 370.726Z" fill="white"/>
<path opacity="0.1" d="M274.572 121.345L176.977 144.402L197.445 231.211L295.04 208.154L274.572 121.345Z" fill="#364766"/>
<path d="M265.929 116.687L168.334 139.744L188.802 226.553L286.397 203.496L265.929 116.687Z" fill="white"/>
<path d="M261.652 124.244L175.525 144.592L193.068 218.993L279.195 198.645L261.652 124.244Z" fill="#CEEDF0"/>
<path d="M248.694 148.379L213.071 214.278L279.173 198.574L271.099 164.318L248.694 148.379Z" fill="#85D2DA"/>
<path d="M207.081 168.954L188.937 201.499L193.059 218.986L256 204.048L207.081 168.954Z" fill="#9DDBE1"/>
<path d="M230.007 154.31C230.28 155.469 230.204 156.683 229.788 157.799C229.372 158.915 228.635 159.882 227.67 160.579C226.706 161.276 225.556 161.671 224.368 161.714C223.179 161.758 222.004 161.448 220.991 160.823C219.978 160.199 219.173 159.288 218.676 158.206C218.18 157.123 218.016 155.918 218.203 154.742C218.391 153.566 218.922 152.472 219.73 151.599C220.539 150.725 221.587 150.11 222.744 149.833C223.515 149.648 224.314 149.617 225.097 149.742C225.879 149.867 226.63 150.146 227.304 150.562C227.979 150.978 228.565 151.523 229.029 152.166C229.493 152.81 229.825 153.538 230.007 154.31Z" fill="#F47954"/>
<path d="M199.169 169.783C198.618 167.444 196.503 166.725 194.179 166.965C193.466 165.558 191.817 165.16 190.479 165.477C190.025 165.584 189.597 165.779 189.219 166.052C188.841 166.325 188.52 166.67 188.275 167.068C188.03 167.465 187.866 167.907 187.792 168.367C187.718 168.828 187.735 169.299 187.843 169.753C187.729 169.77 187.614 169.792 187.497 169.817C185.588 170.271 184.353 171.917 184.806 173.825L184.861 174.107C185.002 174.706 185.553 175.339 186.754 175.052L197.277 172.567C199.276 172.097 199.374 170.664 199.169 169.788V169.783Z" fill="white"/>
<path d="M265.604 154.387C265.087 152.189 263.096 151.513 260.905 151.74C260.238 150.414 258.683 150.029 257.427 150.337C257 150.438 256.597 150.622 256.242 150.878C255.886 151.135 255.584 151.459 255.354 151.832C255.123 152.206 254.968 152.621 254.898 153.054C254.828 153.487 254.844 153.93 254.945 154.357C254.945 154.357 254.945 154.357 254.945 154.357C254.838 154.357 254.727 154.392 254.62 154.417C253.758 154.621 253.011 155.16 252.545 155.915C252.079 156.669 251.931 157.578 252.134 158.442V158.442C252.27 159.006 252.787 159.601 253.915 159.335L263.814 156.996C265.698 156.568 265.792 155.204 265.6 154.379L265.604 154.387Z" fill="white"/>
<path d="M164.832 423.415H164.623L164.58 424.454H159.603L159.739 423.077H159.902L160.201 417.885H165.375L165.327 418.313L167.575 420.451L175.444 422.611C175.444 422.611 176.038 422.872 176.025 423.197L176.004 423.791V424.155C176.004 424.155 175.91 424.313 175.295 424.488H166.323L165.797 423.791L165.289 423.475L164.832 423.415Z" fill="#435D88"/>
<path d="M166.391 418.449H159.585L154.779 365.167L146.443 307.239H163.999L164.088 313.436L165.139 365.167L166.391 418.449Z" fill="#0083C7"/>
<path d="M133.597 423.415H133.388L133.341 424.454H128.351L128.487 423.077H128.65L129.299 417.885H134.469L134.426 418.313L136.327 420.451L144.192 422.611C144.192 422.611 144.786 422.872 144.778 423.197L144.756 423.791V424.155C144.756 424.155 144.662 424.313 144.047 424.488H135.075L134.554 423.791L134.046 423.475L133.597 423.415Z" fill="#435D88"/>
<path d="M135.404 418.274H128.598L133.114 366.039L136.643 307.239H155.214L143.47 366.039L135.404 418.274Z" fill="#0083C7"/>
<path d="M152.903 318.812L150.109 332.707L150.703 336.847L152.903 318.812Z" fill="#006295"/>
<path d="M186.788 218.092L186.454 218.439L186.219 218.131L187.488 216.501L187.309 215.308L184.421 218.05L184.378 221.351L182.759 223.844L185.886 226.577L187.458 223.956L188.031 223.43L186.788 218.092Z" fill="#F47954"/>
<path d="M147.79 248.752L147.687 248.217C147.192 246.639 149.511 242.546 151.144 242.277C160.393 240.746 171.074 239.985 171.074 239.985L183.797 221.787L187.138 225.487L177.282 243.958L174.684 246.062L154.04 252.519C152.532 253.208 148.781 251.895 147.79 248.752Z" fill="#FECE71"/>
<path d="M159.901 247.901L160.457 250.514L161.563 250.172L159.901 247.901Z" fill="#F47954"/>
<path d="M136.737 307.765H164.136L165.093 303.271L161.35 258.126L160.393 249.906C160.257 248.763 159.896 247.658 159.333 246.654C158.77 245.651 158.015 244.768 157.111 244.056C156.206 243.344 155.171 242.818 154.064 242.507C152.956 242.196 151.799 242.106 150.657 242.243L132.931 244.052C128.128 244.625 127.265 253.717 127.838 258.524L131.512 277.914L134.998 303.339L136.737 307.765Z" fill="#FECE71"/>
<path d="M140.06 238.496L153.236 234.938L152.771 229.994L154.001 227.36L150.592 224.482L147.469 215.783L134.194 222.348L140.06 238.496Z" fill="#F47954"/>
<path d="M143.205 246.045L146.858 245.591C148.067 245.437 149.054 244.924 148.9 243.714L147.413 232.222L139.386 233.227L140.744 244.133C140.78 244.42 140.872 244.698 141.016 244.95C141.159 245.201 141.35 245.422 141.579 245.6C141.807 245.777 142.069 245.908 142.348 245.984C142.627 246.061 142.918 246.081 143.205 246.045V246.045Z" fill="#F47954"/>
<path d="M139.386 235.473C139.36 234.842 139.469 234.214 139.706 233.629C140.078 232.898 141.146 228.925 139.979 228.373C138.493 227.651 138.984 225.47 139.873 225.234C140.3 225.119 141.086 225.944 141.543 225.974C141.911 225.996 142.107 223.892 141.97 223.682C141.735 223.289 141.774 222.664 141.641 222.228C141.509 221.792 142.047 220.265 142.496 220.09C143.196 219.833 148.242 220.338 148.904 219.966C149.302 219.735 149.161 219.153 149.067 218.708C148.926 218.037 147.785 216.279 147.785 216.279C147.646 216.014 147.43 215.798 147.166 215.659L145.328 214.722C145.144 214.625 144.942 214.569 144.734 214.556C144.526 214.544 144.318 214.575 144.124 214.65L142.735 216.788L142.641 216.826L136.972 218.34C136.703 218.463 136.478 218.664 136.327 218.918L133.195 223.194C133.094 223.359 133.027 223.542 132.997 223.733C132.968 223.924 132.977 224.119 133.024 224.306L134.767 230.358C134.806 230.529 134.877 230.692 134.976 230.837L136.685 233.052C136.765 233.172 136.863 233.279 136.976 233.369L138.911 235.597L139.386 235.473Z" fill="#435D88"/>
<path d="M144.351 236.837L147.969 236.508L148.132 237.748L144.351 236.837Z" fill="#B75B3F"/>
<path d="M146.063 247.875L146.662 248.136L148.64 247.896L149.105 247.413L148.806 244.937L145.756 245.305L146.063 247.875Z" fill="white"/>
<path d="M148.622 247.901L149.772 251.981L156.975 300.26L154.082 302.625L150.707 301.012L146.443 252.122L146.661 248.136L148.622 247.901Z" fill="white"/>
<path d="M149.806 241.708L148.401 240.151L148.354 244.924L151.746 247.747L149.806 241.708Z" fill="#FECE71"/>
<path d="M138.356 243.496L140.347 240.96L146.688 245.202L142.488 249.556L138.356 243.496Z" fill="#FECE71"/>
<path d="M136.874 253.922L162.418 242.179L164.2 240.588L159.949 240.96L153.476 244.937L142.983 249.958L138.621 252.699L136.874 253.922Z" fill="#F47954"/>
<path d="M190.287 208.111L189.898 203.693L186.36 204.916L183.806 205.267L183.31 204.809L183.451 204.283L183.101 202.769L181.563 204.963L181.246 208.132L179.157 210.651L182.084 213.764L184.869 210.655L187.121 209.988L190.287 208.111Z" fill="#F47954"/>
<path d="M130.281 251.061L129.948 250.343C129.235 248.85 129.32 245.403 132.46 244.176C140.445 241.049 158.522 233.724 158.522 233.724L180.17 209.043L183.72 212.623L165.139 238.556L162.337 241.007L138.463 253.178C135.75 255.056 131.704 254.033 130.281 251.061Z" fill="#FECE71"/>
<path d="M435.803 232.368C435.17 233.42 434.615 234.814 435.32 236.178C435.066 234.889 435.236 233.553 435.803 232.368Z" fill="#435D88"/>
<path d="M436.307 231.551C436.114 231.807 435.945 232.081 435.803 232.368C435.892 232.218 435.986 232.069 436.076 231.94C436.166 231.812 436.23 231.679 436.307 231.551Z" fill="#317097"/>
<path d="M448.914 409.426L450.7 420.46L448.995 421.383L443.787 423.718V424.95L455.186 425.104L456.045 423.966L453.943 408.964L448.914 409.426Z" fill="#FECE71"/>
<path d="M447.979 421.704L449.222 421.007L448.872 423.077L454.52 421.854L456.066 421.033L456.259 424.24L455.656 425.267H452.884H448.321L441.925 425.104L441.57 424.244L447.979 421.704Z" fill="#0083C7"/>
<path d="M449.324 416.709H455.536L449.743 354.877L449.303 314.621L451.542 303.091L431.214 303.155L433.538 323.803L439.665 354.877L449.324 416.709Z" fill="#85D2DA"/>
<path d="M410.707 409.849L408.963 419.814L407.255 420.733L402.051 423.073V424.3L413.449 424.458L414.308 423.316L416.073 409.357L410.707 409.849Z" fill="#FECE71"/>
<path d="M406.242 421.058L407.485 420.357L407.135 422.427L413.27 421.182L414.817 420.357L414.522 423.594L413.919 424.621H411.147H406.584L400.188 424.458L399.829 423.594L406.242 421.058Z" fill="#0083C7"/>
<path d="M409.583 414.01H416.265L425.502 354.471L441.57 303.155H420.772L415.423 354.471L409.583 414.01Z" fill="#85D2DA"/>
<path opacity="0.2" d="M438.208 313.898L434.145 326.869L434.73 329.837L438.208 313.898Z" fill="#006295"/>
<path d="M436.204 201.101L435.781 196.705L437.422 193.159L436.64 187.095L435.691 187.822L435.687 189.713L435.401 191.226L435.025 191.197L433.871 187.681L433.222 183.118L427.6 185.996L427.8 190.14L428.322 192.963L430.15 196.055L430.945 201.82L436.204 201.101Z" fill="#FECE71"/>
<path d="M428.928 196.701L397.205 194.019C396.397 193.951 395.61 193.724 394.89 193.352C394.169 192.979 393.529 192.468 393.006 191.848C392.483 191.227 392.087 190.51 391.842 189.736C391.596 188.962 391.505 188.148 391.574 187.339L394.253 155.585C394.321 154.776 394.547 153.988 394.919 153.267C395.292 152.546 395.802 151.905 396.422 151.381C397.042 150.858 397.759 150.462 398.532 150.216C399.305 149.97 400.118 149.879 400.926 149.948L432.649 152.63C433.457 152.697 434.244 152.924 434.964 153.297C435.685 153.669 436.325 154.181 436.848 154.801C437.371 155.421 437.767 156.139 438.012 156.913C438.258 157.686 438.349 158.501 438.28 159.31L435.601 191.064C435.533 191.873 435.307 192.661 434.934 193.382C434.562 194.103 434.052 194.744 433.432 195.267C432.812 195.791 432.095 196.187 431.322 196.433C430.549 196.679 429.736 196.77 428.928 196.701V196.701Z" fill="#F47954"/>
<path d="M427.979 172.469L423.66 175.557L423.993 171.588C424.006 171.473 423.994 171.357 423.96 171.246C423.927 171.135 423.871 171.033 423.796 170.944C423.721 170.856 423.629 170.784 423.526 170.732C423.423 170.68 423.31 170.65 423.194 170.643L402.738 168.928C402.623 168.919 402.508 168.932 402.398 168.967C402.289 169.003 402.187 169.059 402.099 169.134C402.012 169.209 401.94 169.3 401.887 169.403C401.835 169.505 401.803 169.617 401.794 169.732L400.696 182.712C400.678 182.944 400.752 183.174 400.903 183.351C401.053 183.529 401.267 183.64 401.499 183.661L421.951 185.372C422.183 185.391 422.413 185.317 422.591 185.166C422.769 185.015 422.88 184.8 422.899 184.568L423.233 180.625L426.898 184.315L427.428 184.448L428.441 172.473L427.979 172.469Z" fill="white"/>
<path d="M408.712 168.641C409.427 168.701 410.145 168.548 410.773 168.2C411.402 167.852 411.913 167.325 412.242 166.686C412.572 166.047 412.704 165.325 412.623 164.61C412.543 163.896 412.252 163.221 411.788 162.672C411.325 162.123 410.709 161.724 410.018 161.525C409.328 161.327 408.595 161.337 407.91 161.556C407.226 161.775 406.622 162.192 406.175 162.754C405.727 163.316 405.456 163.999 405.396 164.715C405.355 165.191 405.409 165.671 405.553 166.126C405.698 166.581 405.931 167.003 406.239 167.368C406.547 167.733 406.924 168.033 407.348 168.252C407.773 168.47 408.236 168.603 408.712 168.641V168.641Z" fill="white"/>
<path d="M417.008 169.356C417.724 169.417 418.441 169.264 419.07 168.916C419.699 168.569 420.211 168.042 420.541 167.403C420.871 166.765 421.005 166.042 420.924 165.327C420.844 164.613 420.554 163.938 420.09 163.389C419.627 162.839 419.011 162.439 418.321 162.24C417.63 162.041 416.897 162.052 416.212 162.27C415.528 162.489 414.923 162.906 414.476 163.468C414.028 164.03 413.757 164.713 413.697 165.43C413.656 165.905 413.71 166.384 413.854 166.839C413.999 167.293 414.232 167.715 414.539 168.08C414.847 168.444 415.223 168.745 415.647 168.964C416.07 169.183 416.533 169.316 417.008 169.356V169.356Z" fill="white"/>
<path d="M449.786 255.945C450.666 255.517 451.328 255.145 451.328 255.145C453.183 254.256 453.99 251.331 452.977 249.543C447.693 240.211 440.827 226.321 440.827 226.321L436.525 198.061L430.176 200.455L433.226 227.826L433.944 230.845L443.77 257.245C444.663 259.067 448.457 256.599 449.786 255.945Z" fill="#0083C7"/>
<path d="M406.113 202.491L405.22 198.398L405.857 194.904L405.49 192.137L403.832 189.212L403.277 190.653L403.644 191.881L403.785 193.296L403.43 193.309L402.085 190.739L401.11 186.779L397.53 189.948L397.325 193.1L398.133 195.7L399.846 198.424L401.243 203.761L406.113 202.491Z" fill="#FECE71"/>
<path d="M429.022 254.29C429.817 253.73 430.402 253.242 430.402 253.242C432.077 252.049 432.38 249.034 431.081 247.443C424.292 239.142 412.757 228.416 412.757 228.416L406.143 199.498L399.889 201.537L405.52 231.183L406.742 234.036L423.323 256.599C424.498 258.237 427.817 255.141 429.022 254.29Z" fill="#0083C7"/>
<path d="M440.715 240.934L428.227 236.405L428.949 230.627L427.642 229.49L431.273 225.115L433.696 217.84L447.547 223.186L440.715 240.934Z" fill="#FECE71"/>
<path d="M439.879 247.618H435.675C435.15 247.615 434.647 247.403 434.278 247.03C433.909 246.656 433.703 246.151 433.705 245.626L433.761 234.292L441.925 234.335L441.87 245.668C441.861 246.19 441.647 246.687 441.274 247.052C440.901 247.417 440.4 247.621 439.879 247.618V247.618Z" fill="#FECE71"/>
<path d="M442.407 216.42C447.325 218.071 450.162 219.414 449.845 228.917C449.777 230.948 450.986 232.415 452.781 233.044C453.421 234.327 454.323 237.342 451.371 239.27C447.585 241.747 448.38 245.544 444.377 243.337C441.386 241.7 440.617 241.345 439.827 240.643C439.502 240.352 436.605 237.65 436.221 237.316C434.033 235.443 435.191 233.275 436.076 231.936C436.742 230.918 437.857 228.827 438.212 228.292C438.396 228.014 438.562 226.487 437.652 226.282C436.11 225.931 436.917 224.332 436.798 223.84C436.724 223.584 436.607 223.342 436.452 223.126C436.452 223.126 434.593 222.566 434.209 222.07C433.106 220.675 431.41 212.729 442.407 216.42Z" fill="#435D88"/>
<path opacity="0.8" d="M439.827 240.639C439.502 240.352 436.605 237.645 436.221 237.316C435.848 237.001 435.541 236.614 435.319 236.178C435.559 237.551 436.221 239.172 437.81 240.968C439.003 242.371 440.368 243.617 441.873 244.676V241.973C441.142 241.609 440.455 241.161 439.827 240.639V240.639Z" fill="#BF9B55"/>
<path d="M452.802 307.714L449.918 291.604L449.82 281.263L454.092 257.228C454.387 252.348 453.144 246.173 448.273 245.882L446.517 245.779L432.59 244.864L428.689 244.595C422.362 244.595 421.61 258.443 421.61 258.443L423.263 280.489L422.712 286.904L418.017 301.363L416.786 305.571C416.786 305.571 423.451 304.404 426.425 304.318C438.37 303.98 452.802 307.714 452.802 307.714Z" fill="#0083C7"/>
<path d="M417.26 304.01L416.803 305.571L418.225 305.336L418.533 305.139L417.26 304.01Z" fill="#0083C7"/>
<path d="M440.425 306.812C443.738 307.596 447.093 308.19 450.473 308.591L450.738 307.222C448.602 306.743 445.043 305.991 440.873 305.37L440.425 306.812Z" fill="#85D2DA"/>
<path opacity="0.4" d="M440.874 305.353C436.102 304.593 431.274 304.241 426.442 304.301C424.964 304.344 422.597 304.652 420.584 304.951L420.499 305.772C423.182 305.238 429.74 304.1 433.167 305.033C434.734 305.46 437.469 306.136 440.43 306.795C443.742 307.579 447.097 308.173 450.478 308.574L450.743 307.205C448.62 306.743 445.044 305.991 440.874 305.353Z" fill="#006295"/>
<path opacity="0.4" d="M449.82 281.263L453.148 262.48C451.867 265.097 445.625 273.646 445.984 277.132C446.291 280.125 446.112 289.431 450.555 295.166L449.919 291.604L449.82 281.263Z" fill="#006295"/>
<defs>
<radialGradient id="paint0_radial" cx="0" cy="0" r="1" gradientUnits="userSpaceOnUse" gradientTransform="translate(589.176 13.2918) scale(5.25503 5.26029)">
<stop stop-color="#435D88"/>
<stop offset="1" stop-color="#4195C9"/>
</radialGradient>
<radialGradient id="paint1_radial" cx="0" cy="0" r="1" gradientUnits="userSpaceOnUse" gradientTransform="translate(586.484 10.6403) scale(5.25503 5.26029)">
<stop offset="0.02" stop-color="#F2F2F2"/>
<stop offset="1" stop-color="#85D2DA"/>
</radialGradient>
<radialGradient id="paint2_radial" cx="0" cy="0" r="1" gradientUnits="userSpaceOnUse" gradientTransform="translate(-3662.38 1700.35) scale(12.8959 12.9087)">
<stop stop-color="#435D88"/>
<stop offset="1" stop-color="#4195C9"/>
</radialGradient>
<radialGradient id="paint3_radial" cx="0" cy="0" r="1" gradientUnits="userSpaceOnUse" gradientTransform="translate(-3671.49 1691.18) scale(12.8957 12.9088)">
<stop offset="0.02" stop-color="#F2F2F2"/>
<stop offset="1" stop-color="#85D2DA"/>
</radialGradient>
<radialGradient id="paint4_radial" cx="0" cy="0" r="1" gradientUnits="userSpaceOnUse" gradientTransform="translate(-3606.87 1700.35) scale(12.8957 12.9087)">
<stop stop-color="#435D88"/>
<stop offset="1" stop-color="#4195C9"/>
</radialGradient>
<radialGradient id="paint5_radial" cx="0" cy="0" r="1" gradientUnits="userSpaceOnUse" gradientTransform="translate(-3616.05 1691.18) scale(12.8958 12.9088)">
<stop offset="0.02" stop-color="#F2F2F2"/>
<stop offset="1" stop-color="#85D2DA"/>
</radialGradient>
</defs>
</svg>
