<svg width="323" height="99" viewBox="0 0 323 99" fill="none" xmlns="http://www.w3.org/2000/svg">
<path d="M44.828 32.618C47.376 32.618 49.3607 33.242 50.782 34.49C52.2207 35.738 52.94 37.4887 52.94 39.742C52.94 41.874 52.29 43.5467 50.99 44.76C49.7073 45.9733 47.9047 46.58 45.582 46.58C44.8193 46.58 44.074 46.502 43.346 46.346C42.6353 46.19 41.864 45.93 41.032 45.566V51H36.872V40.236C36.872 37.792 37.548 35.9113 38.9 34.594C40.2693 33.2767 42.2453 32.618 44.828 32.618ZM44.854 43.408C46.0847 43.408 47.0293 43.096 47.688 42.472C48.364 41.848 48.702 40.964 48.702 39.82C48.702 38.6587 48.364 37.7573 47.688 37.116C47.0293 36.4747 46.1107 36.154 44.932 36.154C43.7013 36.154 42.7393 36.5093 42.046 37.22C41.37 37.9307 41.032 38.9273 41.032 40.21V42.238C41.552 42.602 42.1413 42.888 42.8 43.096C43.476 43.304 44.1607 43.408 44.854 43.408ZM62.4532 47.958C63.1812 47.958 63.8225 47.854 64.3772 47.646C64.9492 47.4207 65.4778 47.074 65.9632 46.606L68.1212 48.946C66.8038 50.454 64.8798 51.208 62.3492 51.208C60.7718 51.208 59.3765 50.9047 58.1632 50.298C56.9498 49.674 56.0138 48.816 55.3552 47.724C54.6965 46.632 54.3672 45.3927 54.3672 44.006C54.3672 42.6367 54.6878 41.406 55.3292 40.314C55.9878 39.2047 56.8805 38.3467 58.0072 37.74C59.1512 37.116 60.4338 36.804 61.8552 36.804C63.1898 36.804 64.4032 37.09 65.4952 37.662C66.5872 38.2167 67.4538 39.0313 68.0952 40.106C68.7538 41.1633 69.0832 42.42 69.0832 43.876L58.7352 45.878C59.0298 46.5713 59.4892 47.0913 60.1132 47.438C60.7545 47.7847 61.5345 47.958 62.4532 47.958ZM61.8552 39.872C60.8325 39.872 60.0005 40.2013 59.3592 40.86C58.7178 41.5187 58.3798 42.4287 58.3452 43.59L65.1572 42.264C64.9665 41.536 64.5765 40.9553 63.9872 40.522C63.3978 40.0887 62.6872 39.872 61.8552 39.872ZM80.7838 43.72C81.6158 43.98 82.2571 44.3787 82.7078 44.916C83.1758 45.4533 83.4098 46.0947 83.4098 46.84C83.4098 47.724 83.1064 48.504 82.4998 49.18C81.8931 49.8387 81.0611 50.35 80.0038 50.714C78.9464 51.078 77.7504 51.26 76.4158 51.26C75.3238 51.26 74.2491 51.1473 73.1918 50.922C72.1344 50.6967 71.1551 50.3587 70.2538 49.908L71.3458 47.074C72.8191 47.7847 74.4484 48.14 76.2338 48.14C77.1871 48.14 77.9324 48.0013 78.4698 47.724C79.0244 47.4293 79.3018 47.022 79.3018 46.502C79.3018 46.0513 79.1111 45.7133 78.7298 45.488C78.3484 45.2453 77.7938 45.124 77.0658 45.124H74.2058V42.602H76.7018C77.4124 42.602 77.9584 42.4893 78.3398 42.264C78.7211 42.0387 78.9118 41.7093 78.9118 41.276C78.9118 40.8253 78.6691 40.4787 78.1838 40.236C77.7158 39.9933 77.0398 39.872 76.1558 39.872C74.8038 39.872 73.3304 40.1927 71.7358 40.834L70.7478 38.026C72.6891 37.1767 74.5784 36.752 76.4158 36.752C77.6811 36.752 78.8078 36.908 79.7958 37.22C80.8011 37.532 81.5898 37.9913 82.1618 38.598C82.7338 39.1873 83.0198 39.8807 83.0198 40.678C83.0198 41.3367 82.8204 41.9347 82.4218 42.472C82.0231 42.992 81.4771 43.408 80.7838 43.72ZM100.374 37.012V48.66C100.374 51.2253 99.7242 53.132 98.4242 54.38C97.1242 55.628 95.2348 56.252 92.7562 56.252C91.4388 56.252 90.1908 56.0873 89.0122 55.758C87.8508 55.4287 86.8715 54.952 86.0742 54.328L87.6862 51.416C88.2755 51.9013 88.9948 52.2827 89.8442 52.56C90.6935 52.8373 91.5515 52.976 92.4182 52.976C93.7702 52.976 94.7582 52.664 95.3822 52.04C96.0062 51.416 96.3182 50.4627 96.3182 49.18V48.712C95.7982 49.232 95.1828 49.6307 94.4722 49.908C93.7615 50.1853 92.9988 50.324 92.1842 50.324C90.3468 50.324 88.8908 49.804 87.8162 48.764C86.7415 47.7067 86.2042 46.1293 86.2042 44.032V37.012H90.2602V43.434C90.2602 45.7047 91.2048 46.84 93.0942 46.84C94.0648 46.84 94.8448 46.528 95.4342 45.904C96.0235 45.2627 96.3182 44.318 96.3182 43.07V37.012H100.374ZM117.626 37.012V51H113.57V40.34H109.15L109.02 42.81C108.95 44.6473 108.777 46.1727 108.5 47.386C108.222 48.5993 107.772 49.5527 107.148 50.246C106.524 50.9393 105.657 51.286 104.548 51.286C103.958 51.286 103.256 51.182 102.442 50.974L102.65 47.646C102.927 47.6807 103.126 47.698 103.248 47.698C103.854 47.698 104.305 47.4813 104.6 47.048C104.912 46.5973 105.12 46.034 105.224 45.358C105.328 44.6647 105.406 43.7547 105.458 42.628L105.666 37.012H117.626ZM127.948 51.39C125.73 51.39 124.048 50.896 122.904 49.908C121.778 48.92 121.214 47.464 121.214 45.54V37.012H125.244V41.744C125.678 41.432 126.232 41.1893 126.908 41.016C127.602 40.8427 128.373 40.756 129.222 40.756C130.973 40.756 132.342 41.1893 133.33 42.056C134.318 42.9227 134.812 44.188 134.812 45.852C134.812 47.6373 134.197 49.0067 132.966 49.96C131.753 50.9133 130.08 51.39 127.948 51.39ZM127.948 48.53C128.815 48.53 129.482 48.296 129.95 47.828C130.436 47.36 130.678 46.7273 130.678 45.93C130.678 45.1673 130.444 44.5693 129.976 44.136C129.526 43.7027 128.876 43.486 128.026 43.486C127.402 43.486 126.848 43.5987 126.362 43.824C125.877 44.0493 125.504 44.37 125.244 44.786V45.93C125.244 46.7447 125.478 47.386 125.946 47.854C126.432 48.3047 127.099 48.53 127.948 48.53ZM155.309 36.804C157.059 36.804 158.446 37.324 159.469 38.364C160.509 39.3867 161.029 40.9293 161.029 42.992V51H156.973V43.616C156.973 42.5067 156.739 41.6833 156.271 41.146C155.82 40.5913 155.17 40.314 154.321 40.314C153.367 40.314 152.613 40.626 152.059 41.25C151.504 41.8567 151.227 42.7667 151.227 43.98V51H147.171V43.616C147.171 41.4147 146.287 40.314 144.519 40.314C143.583 40.314 142.837 40.626 142.283 41.25C141.728 41.8567 141.451 42.7667 141.451 43.98V51H137.395V37.012H141.269V38.624C141.789 38.0347 142.421 37.584 143.167 37.272C143.929 36.96 144.761 36.804 145.663 36.804C146.651 36.804 147.543 37.0033 148.341 37.402C149.138 37.7833 149.779 38.3467 150.265 39.092C150.837 38.364 151.556 37.8007 152.423 37.402C153.307 37.0033 154.269 36.804 155.309 36.804ZM178.681 37.012V51H174.807V49.388C173.802 50.6013 172.346 51.208 170.439 51.208C169.122 51.208 167.926 50.9133 166.851 50.324C165.794 49.7347 164.962 48.894 164.355 47.802C163.749 46.71 163.445 45.4447 163.445 44.006C163.445 42.5673 163.749 41.302 164.355 40.21C164.962 39.118 165.794 38.2773 166.851 37.688C167.926 37.0987 169.122 36.804 170.439 36.804C172.225 36.804 173.62 37.3673 174.625 38.494V37.012H178.681ZM171.141 47.88C172.164 47.88 173.013 47.5333 173.689 46.84C174.365 46.1293 174.703 45.1847 174.703 44.006C174.703 42.8273 174.365 41.8913 173.689 41.198C173.013 40.4873 172.164 40.132 171.141 40.132C170.101 40.132 169.243 40.4873 168.567 41.198C167.891 41.8913 167.553 42.8273 167.553 44.006C167.553 45.1847 167.891 46.1293 168.567 46.84C169.243 47.5333 170.101 47.88 171.141 47.88ZM200.402 36.804C202.153 36.804 203.54 37.324 204.562 38.364C205.602 39.3867 206.122 40.9293 206.122 42.992V51H202.066V43.616C202.066 42.5067 201.832 41.6833 201.364 41.146C200.914 40.5913 200.264 40.314 199.414 40.314C198.461 40.314 197.707 40.626 197.152 41.25C196.598 41.8567 196.32 42.7667 196.32 43.98V51H192.264V43.616C192.264 41.4147 191.38 40.314 189.612 40.314C188.676 40.314 187.931 40.626 187.376 41.25C186.822 41.8567 186.544 42.7667 186.544 43.98V51H182.488V37.012H186.362V38.624C186.882 38.0347 187.515 37.584 188.26 37.272C189.023 36.96 189.855 36.804 190.756 36.804C191.744 36.804 192.637 37.0033 193.434 37.402C194.232 37.7833 194.873 38.3467 195.358 39.092C195.93 38.364 196.65 37.8007 197.516 37.402C198.4 37.0033 199.362 36.804 200.402 36.804Z" fill="#476481"/>
<g clip-path="url(#clip0)">
<path d="M126.823 6.45316C114.439 7.53871 101.727 7.45369 89.3442 8.81647C78.1644 10.0198 67.275 11.8443 56.8244 14.2651C37.3147 18.8576 16.7425 25.907 6.04652 36.6569C-3.28398 46.0032 1.35361 56.7073 17.1655 63.5712C26.144 67.4752 36.657 69.1259 47.1004 70.916C59.7279 73.0346 72.6514 74.312 85.61 74.7225C113.351 75.6606 140.972 74.5633 167.807 71.4571C191.577 68.724 216.413 64.6699 236.29 56.9225C252.018 50.8353 266.478 40.1217 250.057 29.4437C235.892 20.2698 209.953 16.8629 190.515 14.4494C161.306 10.7728 130.922 10.5126 101.899 12.4876C79.1708 14.0503 51.6844 17.0089 39.0161 28.8625C37.8876 29.9031 40.4464 31.2711 42.0486 30.3984C56.7651 22.5236 72.7502 18.6583 92.9231 16.8543C115.312 14.8831 138.208 14.5393 161.087 15.8309C182.814 17.0411 205.049 19.5476 225.651 24.4094C234.107 26.4083 243.256 29.1409 248.509 33.7348C257.138 41.3399 246.953 48.2809 237.275 52.6734C220.391 60.3363 198.758 64.451 177.895 67.551C154.973 70.8163 131.361 72.6362 107.461 72.9796C84.4622 73.5154 61.2355 71.8206 38.7412 67.9655C17.7909 64.4087 -3.87576 54.0281 4.81646 40.5266C12.78 28.1581 36.088 19.9915 56.0683 15.0302C66.7518 12.407 77.9245 10.4168 89.4233 9.08885C101.264 7.68868 114.633 6.20773 126.898 6.8147C126.938 6.81333 126.978 6.80729 127.014 6.79693C127.05 6.78658 127.082 6.7721 127.107 6.75434C127.133 6.73659 127.151 6.71589 127.163 6.69343C127.174 6.67097 127.177 6.64719 127.172 6.62345C127.167 6.59971 127.154 6.57647 127.134 6.55507C127.114 6.53366 127.087 6.51451 127.054 6.49869C127.022 6.48288 126.985 6.47072 126.945 6.46291C126.906 6.45509 126.864 6.45178 126.823 6.45316Z" fill="#F2706D"/>
</g>
<g clip-path="url(#clip1)">
<path d="M272.468 55.4075C274.98 55.6419 277.588 55.5012 280.061 56.0482C282.301 56.612 284.476 57.3975 286.555 58.3931C290.719 60.3063 294.67 62.6415 298.346 65.3618C301.982 68.013 305.411 70.9333 308.603 74.098C312.031 77.506 314.87 81.5137 315.622 86.3826C315.789 87.4337 317.416 87.0018 317.24 85.9559C315.711 76.6498 306.919 69.9121 299.757 64.6619C295.813 61.7424 291.514 59.3248 286.96 57.4647C284.681 56.4598 282.291 55.7221 279.836 55.2664C277.406 54.8998 274.94 55.0853 272.469 54.9657C272.182 54.9444 272.182 55.379 272.468 55.4075Z" fill="#F2706D"/>
<path d="M313.111 68.2755C313.904 71.4054 314.008 74.9089 314.556 78.1133C314.838 79.6599 314.856 81.449 315.353 82.9441C315.755 84.1491 316.686 85.3694 317.319 86.4655L318.383 85.3981C314.966 83.6082 311.967 80.943 308.837 78.6975C307.15 77.491 304.92 75.5232 302.646 75.7551C302.484 75.7562 302.326 75.816 302.204 75.9234C302.081 76.0308 302.002 76.1784 301.98 76.3387C301.958 76.499 301.995 76.6612 302.085 76.795C302.175 76.9287 302.311 77.025 302.468 77.0659C308.278 78.9052 312.29 83.9694 317.606 86.7523C317.755 86.8295 317.924 86.8572 318.091 86.8313C318.257 86.8054 318.411 86.7273 318.531 86.6084C318.65 86.4895 318.728 86.3361 318.754 86.1707C318.78 86.0053 318.751 85.8366 318.673 85.6894C317.939 84.4166 317.005 83.1378 316.574 81.7254C316.101 80.1866 315.881 78.5022 315.504 76.9077C314.841 74.0232 314.561 70.9352 313.635 68.1241C313.607 68.0666 313.56 68.0207 313.502 67.9941C313.444 67.9674 313.378 67.9617 313.315 67.9779C313.253 67.9941 313.197 68.0313 313.159 68.083C313.12 68.1347 313.101 68.1979 313.104 68.2619L313.111 68.2755Z" fill="#F2706D"/>
</g>
<defs>
<clipPath id="clip0">
<rect width="255.345" height="70.413" fill="white" transform="translate(3.68555) rotate(3)"/>
</clipPath>
<clipPath id="clip1">
<rect width="50.4997" height="29.3954" fill="white" transform="translate(297.457 40) rotate(60)"/>
</clipPath>
</defs>
</svg>
