<svg width="114" height="79" viewBox="0 0 114 79" fill="none" xmlns="http://www.w3.org/2000/svg">
<path d="M28.8503 0.949458C23.5101 2.27903 18.1414 4.90073 12.9841 9.95996C9.14976 13.7165 4.05437 19.0343 1.52755 28.388C-4.35449 50.2547 17.4432 50.8375 20.8742 50.6229C31.5225 49.958 42.4293 47.2733 52.7194 36.6635C55.1359 34.1728 58.5684 30.4468 59.7423 23.6098C60.9887 16.374 58.4994 11.3822 56.3507 9.18911C52.4481 5.21809 47.7677 5.4671 43.5331 5.62021C36.4561 5.87472 29.3711 8.39188 22.3039 10.8762C21.9023 11.0183 22.0173 12.6275 22.4143 12.4965C31.4919 9.46922 40.727 6.23566 49.7501 7.87731C52.6542 8.40233 57.3656 9.17996 58.9832 16.4154C60.8864 24.9206 55.7213 31.5179 53.3223 34.221C45.3651 43.1844 36.5314 46.8779 28.1978 48.3259C23.4446 49.336 18.6967 49.4905 13.987 48.7883C11.6649 48.3382 9.37335 47.4122 7.1325 46.0184C5.12399 44.8336 1.52157 42.1884 1.14429 35.7766C0.695315 28.5485 4.4216 22.6255 6.37391 19.5612C8.7268 15.9141 11.1938 12.8816 13.7372 10.5102C18.6575 6.02722 23.723 3.18859 28.8114 2.06285C29.0768 1.99409 29.1195 0.891974 28.8503 0.949458Z" fill="#38B9C6"/>
<path d="M20.1336 32.939C19.4829 32.9372 18.8964 32.8395 18.3741 32.6461C17.8624 32.442 17.4256 32.1528 17.0636 31.7784C16.7122 31.4041 16.441 30.95 16.2499 30.4161C16.0588 29.8823 15.9638 29.2793 15.965 28.6073C15.9661 27.9353 16.0631 27.3329 16.256 26.8001C16.4489 26.2673 16.7217 25.8148 17.0743 25.4424C17.4376 25.0701 17.8754 24.7887 18.3878 24.5981C18.9108 24.3969 19.4923 24.2972 20.1323 24.299C21.0389 24.3015 21.764 24.4902 22.3073 24.8651C22.8614 25.2293 23.2819 25.7158 23.5688 26.3246L21.7432 27.3115C21.5944 26.9911 21.3975 26.7238 21.1525 26.5098C20.9182 26.2958 20.5771 26.1882 20.1291 26.187C19.5851 26.1854 19.1635 26.3443 18.8643 26.6634C18.5757 26.972 18.431 27.3982 18.4301 27.9422L18.4278 29.2862C18.4269 29.8302 18.5701 30.2626 18.8576 30.5834C19.1557 30.8936 19.5875 31.0495 20.1528 31.051C20.6115 31.0523 20.969 30.9467 21.2253 30.734C21.4924 30.5215 21.7168 30.2448 21.8988 29.9039L23.689 30.9329C23.3893 31.5401 22.9511 32.0295 22.3745 32.4013C21.8086 32.7624 21.0616 32.9416 20.1336 32.939ZM29.6153 32.9655C28.2286 32.9616 27.1786 32.5747 26.4653 31.8047C25.7519 31.0347 25.3964 29.9884 25.3986 28.6657C25.3998 27.9937 25.4914 27.3913 25.6737 26.8585C25.8666 26.315 26.1341 25.8571 26.476 25.4847C26.8287 25.1017 27.2505 24.8149 27.7415 24.6242C28.2432 24.423 28.8033 24.3232 29.422 24.3249C30.0407 24.3267 30.5951 24.4296 31.0855 24.6336C31.5758 24.827 31.9913 25.1055 32.3321 25.4691C32.6728 25.8327 32.9333 26.2761 33.1138 26.7993C33.3049 27.3118 33.3999 27.8881 33.3989 28.5281L33.3977 29.2321L27.7497 29.2163L27.7494 29.3603C27.7485 29.8936 27.9131 30.3261 28.2432 30.6577C28.5733 30.9786 29.0584 31.1399 29.6984 31.1417C30.1891 31.1431 30.6106 31.0536 30.9629 30.8733C31.3152 30.6823 31.6196 30.4324 31.8761 30.1238L33.1538 31.5194C32.8331 31.9132 32.3845 32.2533 31.808 32.5396C31.2315 32.826 30.5006 32.968 29.6153 32.9655ZM29.4351 26.021C28.9231 26.0196 28.5122 26.1784 28.2023 26.4975C27.9031 26.806 27.7531 27.227 27.7522 27.7603L27.7519 27.8883L31.0799 27.8976L31.0801 27.7696C31.0811 27.2256 30.9325 26.7985 30.6343 26.4883C30.3468 26.1782 29.9471 26.0224 29.4351 26.021ZM38.985 32.9917C38.345 32.9899 37.7692 32.8923 37.2575 32.6989C36.7459 32.4948 36.309 32.2056 35.947 31.8312C35.5956 31.4569 35.3244 31.0028 35.1333 30.4689C34.9422 29.9351 34.8472 29.3321 34.8484 28.6601C34.8495 27.9881 34.9465 27.3857 35.1394 26.8529C35.3324 26.3201 35.6051 25.8676 35.9578 25.4952C36.3211 25.1229 36.7589 24.8415 37.2712 24.6509C37.7835 24.4497 38.3597 24.3499 38.9997 24.3517C39.6397 24.3535 40.2155 24.4565 40.7272 24.6606C41.2389 24.854 41.6704 25.1379 42.0217 25.5122C42.3838 25.8865 42.6603 26.3406 42.8514 26.8745C43.0425 27.4084 43.1375 28.0113 43.1363 28.6833C43.1352 29.3553 43.0382 29.9577 42.8453 30.4905C42.6524 31.0233 42.3743 31.4758 42.011 31.8482C41.6583 32.2205 41.2258 32.5073 40.7135 32.7085C40.2012 32.8991 39.625 32.9935 38.985 32.9917ZM38.988 31.2317C39.5213 31.2332 39.9376 31.069 40.2368 30.7392C40.5361 30.4094 40.6862 29.9405 40.6872 29.3325L40.6895 28.0205C40.6905 27.4125 40.542 26.9427 40.2439 26.6112C39.9458 26.2797 39.53 26.1132 38.9967 26.1117C38.4634 26.1102 38.0471 26.2744 37.7479 26.6042C37.4486 26.9341 37.2985 27.403 37.2975 28.011L37.2953 29.323C37.2942 29.931 37.4428 30.4007 37.7409 30.7322C38.039 31.0637 38.4547 31.2302 38.988 31.2317Z" fill="#476481"/>
<g clip-path="url(#clip0)">
<path d="M108.965 73.168C103.521 67.1056 98.1141 60.9612 92.3603 55.1819C89.5957 52.5094 86.706 49.9705 83.7025 47.5752C81.031 45.37 78.2274 42.3798 75.0301 41.0729C74.8632 41.0278 74.6901 41.0313 74.5318 41.0828C74.3734 41.1344 74.2366 41.2317 74.1377 41.3632C74.0389 41.4947 73.9823 41.6547 73.9747 41.8238C73.9672 41.993 74.009 42.1641 74.0952 42.3165C76.1641 45.2332 79.83 47.2884 82.6034 49.5278C85.6496 51.8769 88.5714 54.3884 91.3548 57.0501C96.9806 62.6759 102.386 68.5133 107.795 74.3378C108.592 75.1938 109.761 74.0065 108.99 73.1425L108.965 73.168Z" fill="#38B9C6"/>
<path d="M107.874 72.442C102.305 66.9233 100.139 59.3998 96.2605 52.8345L95.2348 53.6059C100.205 58.5252 102.036 65.4936 106.494 70.7986L107.31 69.3097C103.42 68.0218 99.7265 66.1077 96.3827 63.6461C94.4799 62.2434 92.5225 60.9133 90.2024 61.6533C89.0532 62.0215 89.6047 63.9038 90.7536 63.5268C93.268 62.7014 96.1298 65.8514 98.2504 67.0819C100.991 68.7285 103.887 70.0725 106.885 71.0883C107.82 71.3879 108.255 70.263 107.702 69.5994C103.257 64.2817 101.369 57.4517 96.1333 52.7074C95.5766 52.2016 94.663 52.7883 95.1031 53.4743C99.2964 59.8969 101.812 67.3711 107.633 72.6836C107.666 72.7173 107.711 72.7371 107.757 72.7387C107.803 72.7403 107.847 72.7235 107.879 72.6921C107.91 72.6606 107.927 72.617 107.925 72.5709C107.924 72.5248 107.904 72.48 107.87 72.4462L107.874 72.442Z" fill="#38B9C6"/>
</g>
<defs>
<clipPath id="clip0">
<rect width="12" height="48" fill="white" transform="translate(113.426 69.9412) rotate(135)"/>
</clipPath>
</defs>
</svg>
