<svg width="280" height="123" viewBox="0 0 280 123" fill="none" xmlns="http://www.w3.org/2000/svg">
<path d="M101.41 6.61274C82.9779 8.56257 64.422 13.158 46.5464 22.7829C33.2565 29.9289 15.5894 40.093 6.69603 58.9073C-14.0081 102.894 61.1118 107.26 72.9415 107.319C109.657 107.504 147.303 103.585 182.979 83.3239C191.357 78.5677 203.261 71.426 207.442 57.576C211.88 42.9187 203.398 32.3198 196.036 27.5099C182.662 18.7988 166.525 18.6287 151.927 18.3268C127.529 17.8193 103.059 21.9508 78.6514 26.0175C77.2645 26.2504 77.6291 29.5673 79.0001 29.3563C110.348 24.4686 142.243 19.1807 173.311 23.8597C183.31 25.3588 199.534 27.6388 204.967 42.712C211.36 60.4304 193.427 73.2083 185.105 78.4027C157.502 95.6267 126.982 101.916 98.2297 103.673C81.8264 105.053 65.4587 104.68 49.2393 102.555C41.2444 101.294 33.3643 99.0616 25.6681 95.8775C18.7685 93.1555 6.40392 87.2071 5.22967 74.0033C3.82437 59.1152 16.7845 47.5109 23.5739 41.5109C31.7555 34.3739 40.3182 28.5141 49.1315 24.0208C66.1785 15.5432 83.6939 10.4588 101.255 8.89033C102.171 8.78792 102.339 6.53401 101.41 6.61274Z" fill="#0083C7"/>
<path d="M53.0088 49.982C52.5288 49.982 52.1021 49.8886 51.7288 49.702C51.3688 49.5153 50.9755 49.2553 50.5488 48.922C50.2288 48.682 49.9688 48.5086 49.7688 48.402C49.5821 48.2953 49.3888 48.242 49.1888 48.242C48.8288 48.242 48.5355 48.382 48.3088 48.662C48.0821 48.942 47.9621 49.322 47.9488 49.802H46.0088C46.0221 48.5753 46.3021 47.6353 46.8488 46.982C47.3955 46.3153 48.1155 45.982 49.0088 45.982C49.4888 45.982 49.9021 46.0753 50.2488 46.262C50.5955 46.4353 51.0021 46.6953 51.4688 47.042C51.7888 47.282 52.0421 47.4553 52.2288 47.562C52.4155 47.6686 52.6088 47.722 52.8088 47.722C53.1821 47.722 53.4755 47.582 53.6888 47.302C53.9021 47.022 54.0221 46.642 54.0488 46.162H56.0088C55.9821 47.3886 55.6955 48.3353 55.1488 49.002C54.6021 49.6553 53.8888 49.982 53.0088 49.982ZM74.3935 41.002V55.002H71.1535V49.262H64.7935V55.002H61.5535V41.002H64.7935V46.522H71.1535V41.002H74.3935ZM82.7011 55.162C81.5678 55.162 80.5478 54.9286 79.6411 54.462C78.7478 53.982 78.0478 53.322 77.5411 52.482C77.0345 51.642 76.7811 50.6886 76.7811 49.622C76.7811 48.5553 77.0345 47.602 77.5411 46.762C78.0478 45.922 78.7478 45.2686 79.6411 44.802C80.5478 44.322 81.5678 44.082 82.7011 44.082C83.8345 44.082 84.8478 44.322 85.7411 44.802C86.6345 45.2686 87.3345 45.922 87.8411 46.762C88.3478 47.602 88.6011 48.5553 88.6011 49.622C88.6011 50.6886 88.3478 51.642 87.8411 52.482C87.3345 53.322 86.6345 53.982 85.7411 54.462C84.8478 54.9286 83.8345 55.162 82.7011 55.162ZM82.7011 52.602C83.5011 52.602 84.1545 52.3353 84.6611 51.802C85.1811 51.2553 85.4411 50.5286 85.4411 49.622C85.4411 48.7153 85.1811 47.9953 84.6611 47.462C84.1545 46.9153 83.5011 46.642 82.7011 46.642C81.9011 46.642 81.2411 46.9153 80.7211 47.462C80.2011 47.9953 79.9411 48.7153 79.9411 49.622C79.9411 50.5286 80.2011 51.2553 80.7211 51.802C81.2411 52.3353 81.9011 52.602 82.7011 52.602ZM98.9671 49.382C100.234 49.8086 100.867 50.662 100.867 51.942C100.867 52.9153 100.5 53.6686 99.7671 54.202C99.0337 54.7353 97.9404 55.002 96.4871 55.002H90.7471V44.242H96.2471C97.5937 44.242 98.6471 44.4886 99.4071 44.982C100.167 45.462 100.547 46.142 100.547 47.022C100.547 47.5553 100.407 48.0286 100.127 48.442C99.8604 48.842 99.4737 49.1553 98.9671 49.382ZM93.6071 48.662H95.9671C97.0604 48.662 97.6071 48.2753 97.6071 47.502C97.6071 46.742 97.0604 46.362 95.9671 46.362H93.6071V48.662ZM96.2271 52.882C97.3737 52.882 97.9471 52.4886 97.9471 51.702C97.9471 51.2886 97.8137 50.9886 97.5471 50.802C97.2804 50.602 96.8604 50.502 96.2871 50.502H93.6071V52.882H96.2271ZM108.228 55.162C107.095 55.162 106.075 54.9286 105.168 54.462C104.275 53.982 103.575 53.322 103.068 52.482C102.562 51.642 102.308 50.6886 102.308 49.622C102.308 48.5553 102.562 47.602 103.068 46.762C103.575 45.922 104.275 45.2686 105.168 44.802C106.075 44.322 107.095 44.082 108.228 44.082C109.362 44.082 110.375 44.322 111.268 44.802C112.162 45.2686 112.862 45.922 113.368 46.762C113.875 47.602 114.128 48.5553 114.128 49.622C114.128 50.6886 113.875 51.642 113.368 52.482C112.862 53.322 112.162 53.982 111.268 54.462C110.375 54.9286 109.362 55.162 108.228 55.162ZM108.228 52.602C109.028 52.602 109.682 52.3353 110.188 51.802C110.708 51.2553 110.968 50.5286 110.968 49.622C110.968 48.7153 110.708 47.9953 110.188 47.462C109.682 46.9153 109.028 46.642 108.228 46.642C107.428 46.642 106.768 46.9153 106.248 47.462C105.728 47.9953 105.468 48.7153 105.468 49.622C105.468 50.5286 105.728 51.2553 106.248 51.802C106.768 52.3353 107.428 52.602 108.228 52.602ZM121.394 55.162C120.248 55.162 119.214 54.9286 118.294 54.462C117.388 53.982 116.674 53.322 116.154 52.482C115.648 51.642 115.394 50.6886 115.394 49.622C115.394 48.5553 115.648 47.602 116.154 46.762C116.674 45.922 117.388 45.2686 118.294 44.802C119.214 44.322 120.248 44.082 121.394 44.082C122.528 44.082 123.514 44.322 124.354 44.802C125.208 45.2686 125.828 45.942 126.214 46.822L123.794 48.122C123.234 47.1353 122.428 46.642 121.374 46.642C120.561 46.642 119.888 46.9086 119.354 47.442C118.821 47.9753 118.554 48.702 118.554 49.622C118.554 50.542 118.821 51.2686 119.354 51.802C119.888 52.3353 120.561 52.602 121.374 52.602C122.441 52.602 123.248 52.1086 123.794 51.122L126.214 52.442C125.828 53.2953 125.208 53.962 124.354 54.442C123.514 54.922 122.528 55.162 121.394 55.162ZM141.87 44.082C143.217 44.082 144.284 44.482 145.07 45.282C145.87 46.0686 146.27 47.2553 146.27 48.842V55.002H143.15V49.322C143.15 48.4686 142.97 47.8353 142.61 47.422C142.264 46.9953 141.764 46.782 141.11 46.782C140.377 46.782 139.797 47.022 139.37 47.502C138.944 47.9686 138.73 48.6686 138.73 49.602V55.002H135.61V49.322C135.61 47.6286 134.93 46.782 133.57 46.782C132.85 46.782 132.277 47.022 131.85 47.502C131.424 47.9686 131.21 48.6686 131.21 49.602V55.002H128.09V44.242H131.07V45.482C131.47 45.0286 131.957 44.682 132.53 44.442C133.117 44.202 133.757 44.082 134.45 44.082C135.21 44.082 135.897 44.2353 136.51 44.542C137.124 44.8353 137.617 45.2686 137.99 45.842C138.43 45.282 138.984 44.8486 139.65 44.542C140.33 44.2353 141.07 44.082 141.87 44.082ZM159.609 44.242V55.002H156.629V53.742C156.229 54.2086 155.736 54.562 155.149 54.802C154.576 55.042 153.963 55.162 153.309 55.162C151.896 55.162 150.769 54.7553 149.929 53.942C149.103 53.1286 148.689 51.922 148.689 50.322V44.242H151.809V49.862C151.809 51.5953 152.536 52.462 153.989 52.462C154.749 52.462 155.356 52.222 155.809 51.742C156.263 51.2486 156.489 50.522 156.489 49.562V44.242H159.609ZM57.2088 68.242V79.002H54.0888V70.802H49.6088V79.002H46.5088V68.242H57.2088ZM65.2402 79.162C64.1069 79.162 63.0869 78.9286 62.1802 78.462C61.2869 77.982 60.5869 77.322 60.0802 76.482C59.5735 75.642 59.3202 74.6886 59.3202 73.622C59.3202 72.5553 59.5735 71.602 60.0802 70.762C60.5869 69.922 61.2869 69.2686 62.1802 68.802C63.0869 68.322 64.1069 68.082 65.2402 68.082C66.3735 68.082 67.3869 68.322 68.2802 68.802C69.1735 69.2686 69.8735 69.922 70.3802 70.762C70.8869 71.602 71.1402 72.5553 71.1402 73.622C71.1402 74.6886 70.8869 75.642 70.3802 76.482C69.8735 77.322 69.1735 77.982 68.2802 78.462C67.3869 78.9286 66.3735 79.162 65.2402 79.162ZM65.2402 76.602C66.0402 76.602 66.6935 76.3353 67.2002 75.802C67.7202 75.2553 67.9802 74.5286 67.9802 73.622C67.9802 72.7153 67.7202 71.9953 67.2002 71.462C66.6935 70.9153 66.0402 70.642 65.2402 70.642C64.4402 70.642 63.7802 70.9153 63.2602 71.462C62.7402 71.9953 62.4802 72.7153 62.4802 73.622C62.4802 74.5286 62.7402 75.2553 63.2602 75.802C63.7802 76.3353 64.4402 76.602 65.2402 76.602ZM92.7102 68.082C94.0569 68.082 95.1235 68.482 95.9102 69.282C96.7102 70.0686 97.1102 71.2553 97.1102 72.842V79.002H93.9902V73.322C93.9902 72.4686 93.8102 71.8353 93.4502 71.422C93.1035 70.9953 92.6035 70.782 91.9502 70.782C91.2169 70.782 90.6369 71.022 90.2102 71.502C89.7835 71.9686 89.5702 72.6686 89.5702 73.602V79.002H86.4502V73.322C86.4502 71.6286 85.7702 70.782 84.4102 70.782C83.6902 70.782 83.1169 71.022 82.6902 71.502C82.2635 71.9686 82.0502 72.6686 82.0502 73.602V79.002H78.9302V68.242H81.9102V69.482C82.3102 69.0286 82.7969 68.682 83.3702 68.442C83.9569 68.202 84.5969 68.082 85.2902 68.082C86.0502 68.082 86.7369 68.2353 87.3502 68.542C87.9635 68.8353 88.4569 69.2686 88.8302 69.842C89.2702 69.282 89.8235 68.8486 90.4902 68.542C91.1702 68.2353 91.9102 68.082 92.7102 68.082ZM105.189 76.662C105.749 76.662 106.242 76.582 106.669 76.422C107.109 76.2486 107.516 75.982 107.889 75.622L109.549 77.422C108.536 78.582 107.056 79.162 105.109 79.162C103.896 79.162 102.822 78.9286 101.889 78.462C100.956 77.982 100.236 77.322 99.7291 76.482C99.2224 75.642 98.9691 74.6886 98.9691 73.622C98.9691 72.5686 99.2158 71.622 99.7091 70.782C100.216 69.9286 100.902 69.2686 101.769 68.802C102.649 68.322 103.636 68.082 104.729 68.082C105.756 68.082 106.689 68.302 107.529 68.742C108.369 69.1686 109.036 69.7953 109.529 70.622C110.036 71.4353 110.289 72.402 110.289 73.522L102.329 75.062C102.556 75.5953 102.909 75.9953 103.389 76.262C103.882 76.5286 104.482 76.662 105.189 76.662ZM104.729 70.442C103.942 70.442 103.302 70.6953 102.809 71.202C102.316 71.7086 102.056 72.4086 102.029 73.302L107.269 72.282C107.122 71.722 106.822 71.2753 106.369 70.942C105.916 70.6086 105.369 70.442 104.729 70.442ZM122.946 79.002V72.562L119.726 77.962H118.406L115.266 72.542V79.002H112.446V68.242H115.706L119.146 74.462L122.806 68.242H125.726L125.766 79.002H122.946ZM139.615 68.242V79.002H136.635V77.762C135.862 78.6953 134.742 79.162 133.275 79.162C132.262 79.162 131.342 78.9353 130.515 78.482C129.702 78.0286 129.062 77.382 128.595 76.542C128.128 75.702 127.895 74.7286 127.895 73.622C127.895 72.5153 128.128 71.542 128.595 70.702C129.062 69.862 129.702 69.2153 130.515 68.762C131.342 68.3086 132.262 68.082 133.275 68.082C134.648 68.082 135.722 68.5153 136.495 69.382V68.242H139.615ZM133.815 76.602C134.602 76.602 135.255 76.3353 135.775 75.802C136.295 75.2553 136.555 74.5286 136.555 73.622C136.555 72.7153 136.295 71.9953 135.775 71.462C135.255 70.9153 134.602 70.642 133.815 70.642C133.015 70.642 132.355 70.9153 131.835 71.462C131.315 71.9953 131.055 72.7153 131.055 73.622C131.055 74.5286 131.315 75.2553 131.835 75.802C132.355 76.3353 133.015 76.602 133.815 76.602ZM153.063 79.002V72.562L149.843 77.962H148.523L145.383 72.542V79.002H142.563V68.242H145.823L149.263 74.462L152.923 68.242H155.843L155.883 79.002H153.063Z" fill="#476481"/>
<g clip-path="url(#clip0)">
<path d="M213.612 66.2005C216.907 66.5077 220.326 66.3233 223.568 67.0405C226.505 67.7797 229.357 68.8096 232.082 70.1149C237.542 72.6232 242.722 75.6848 247.541 79.2515C252.309 82.7274 256.804 86.5561 260.989 90.7054C265.484 95.1736 269.206 100.428 270.192 106.812C270.411 108.19 272.543 107.623 272.313 106.252C270.308 94.051 258.782 85.2173 249.391 78.3338C244.22 74.506 238.584 71.3363 232.613 68.8976C229.626 67.5801 226.492 66.6129 223.273 66.0154C220.087 65.5348 216.854 65.778 213.615 65.6212C213.238 65.5933 213.238 66.1631 213.612 66.2005Z" fill="#0083C7"/>
<path d="M266.902 83.0717C267.941 87.1753 268.077 91.7687 268.796 95.97C269.165 97.9977 269.189 100.343 269.84 102.304C270.368 103.884 271.588 105.483 272.418 106.921L273.813 105.521C269.333 103.174 265.401 99.68 261.297 96.7359C259.086 95.1541 256.162 92.5741 253.181 92.8781C252.968 92.8796 252.762 92.958 252.601 93.0988C252.44 93.2396 252.336 93.4331 252.307 93.6433C252.279 93.8535 252.328 94.0661 252.445 94.2415C252.563 94.4169 252.741 94.5431 252.947 94.5967C260.565 97.0082 265.825 103.648 272.795 107.297C272.989 107.398 273.212 107.434 273.43 107.4C273.648 107.366 273.85 107.264 274.007 107.108C274.163 106.952 274.266 106.751 274.299 106.534C274.333 106.317 274.296 106.096 274.194 105.903C273.23 104.234 272.006 102.558 271.442 100.706C270.822 98.6882 270.532 96.4798 270.039 94.3894C269.169 90.6075 268.803 86.5589 267.588 82.8732C267.552 82.7979 267.49 82.7377 267.414 82.7027C267.337 82.6678 267.251 82.6604 267.169 82.6816C267.087 82.7029 267.014 82.7515 266.964 82.8193C266.913 82.8872 266.888 82.97 266.891 83.0539L266.902 83.0717Z" fill="#0083C7"/>
</g>
<defs>
<clipPath id="clip0">
<rect width="66.2097" height="38.54" fill="white" transform="translate(246.377 46) rotate(60)"/>
</clipPath>
</defs>
</svg>
