<svg width="5" height="11" viewBox="0 0 5 11" fill="none" xmlns="http://www.w3.org/2000/svg">
<path d="M4.17038 10.9999C4.06366 11.0003 3.9582 10.9744 3.86177 10.9241C3.76534 10.8738 3.68038 10.8004 3.61314 10.7093L0.162521 5.99542C0.0574434 5.85484 0 5.67851 0 5.49654C0 5.31456 0.0574434 5.13823 0.162521 4.99765L3.73459 0.283814C3.85586 0.123374 4.03011 0.0224781 4.21902 0.00332444C4.40793 -0.0158293 4.59602 0.0483276 4.74192 0.181681C4.88781 0.315034 4.97956 0.506661 4.99698 0.714405C5.01439 0.922149 4.95605 1.12899 4.83479 1.28943L1.64136 5.50046L4.72763 9.7115C4.81499 9.82682 4.87048 9.96724 4.88754 10.1162C4.9046 10.2651 4.88251 10.4163 4.82389 10.5518C4.76527 10.6873 4.67257 10.8016 4.55675 10.881C4.44094 10.9604 4.30686 11.0017 4.17038 10.9999Z" fill="#476481"/>
</svg>
