<svg width="5" height="11" viewBox="0 0 5 11" fill="none" xmlns="http://www.w3.org/2000/svg">
<path d="M0.829615 5.34058e-05C0.936345 -0.00034523 1.0418 0.0255585 1.13823 0.0758619C1.23466 0.126165 1.31962 0.199591 1.38686 0.290741L4.83748 5.00458C4.94256 5.14516 5 5.32149 5 5.50346C5 5.68544 4.94256 5.86177 4.83748 6.00235L1.26541 10.7162C1.14414 10.8766 0.96989 10.9775 0.780981 10.9967C0.592071 11.0158 0.403979 10.9517 0.258083 10.8183C0.112188 10.685 0.0204401 10.4933 0.00302267 10.2856C-0.0143943 10.0779 0.0439458 9.87101 0.165209 9.71057L3.35864 5.49954L0.272372 1.2885C0.185011 1.17318 0.129518 1.03276 0.112458 0.883841C0.0953979 0.734923 0.117485 0.583747 0.176107 0.448202C0.234729 0.312658 0.327431 0.198417 0.443245 0.118997C0.559059 0.0395756 0.693138 -0.00169945 0.829615 5.34058e-05Z" fill="#476481"/>
</svg>
