<svg width="751" height="320" viewBox="0 0 751 320" fill="none" xmlns="http://www.w3.org/2000/svg">
<path opacity="0.25" d="M380.048 296.61C504.062 296.61 604.595 293.555 604.595 289.788C604.595 286.02 504.062 282.965 380.048 282.965C256.035 282.965 155.502 286.02 155.502 289.788C155.502 293.555 256.035 296.61 380.048 296.61Z" fill="#3D659E"/>
<path d="M326.393 0H171.651C164.846 0 159.33 5.50665 159.33 12.2994V277.761C159.33 284.554 164.846 290.06 171.651 290.06H326.393C333.197 290.06 338.713 284.554 338.713 277.761V12.2994C338.713 5.50665 333.197 0 326.393 0Z" fill="#3D659E"/>
<path d="M319.695 22.2407H178.348V245.482H319.695V22.2407Z" fill="white"/>
<path d="M266.937 259.166H231.107C230.374 259.166 229.779 259.759 229.779 260.491V275.909C229.779 276.641 230.374 277.235 231.107 277.235H266.937C267.67 277.235 268.265 276.641 268.265 275.909V260.491C268.265 259.759 267.67 259.166 266.937 259.166Z" fill="#6484B1"/>
<path d="M319.695 22.2407H178.348V245.482H319.695V22.2407Z" fill="white"/>
<path d="M602.388 22.2407H461.041V245.482H602.388V22.2407Z" fill="white"/>
<path d="M461.042 22.2407H319.695V245.482H461.042V22.2407Z" fill="#E4E8F2"/>
<path d="M319.695 22.2407H178.348V54.0906H319.695V22.2407Z" fill="#30499B"/>
<path d="M319.695 22.2407H178.348V54.0906H319.695V22.2407Z" fill="#C4DEF2"/>
<path d="M602.388 22.2407H461.041V54.0906H602.388V22.2407Z" fill="#C4DEF2"/>
<path d="M461.042 22.2407H319.695V54.0906H461.042V22.2407Z" fill="#A7CDEB"/>
<path d="M307.452 33.7213L307.257 33.5459L302.825 37.9706L298.373 33.5459L298.197 33.7213L302.63 38.1655L298.197 42.5902L298.373 42.7851L302.825 38.3409L307.257 42.7851L307.452 42.5902L303.001 38.1655L307.452 33.7213Z" fill="#3D659E"/>
<path d="M449.345 42.7851L440.285 33.7213L440.461 33.5459L449.521 42.5902L449.345 42.7851Z" fill="#3D659E"/>
<path d="M440.461 42.7851L440.285 42.5902L449.345 33.5459L449.521 33.7213L440.461 42.7851Z" fill="#3D659E"/>
<path d="M589.599 42.7851L580.52 33.7213L580.715 33.5459L589.775 42.5902L589.599 42.7851Z" fill="#3D659E"/>
<path d="M580.715 42.7851L580.52 42.5902L589.599 33.5459L589.775 33.7213L580.715 42.7851Z" fill="#3D659E"/>
<path d="M530.417 167.417C551.219 167.417 568.082 150.583 568.082 129.817C568.082 109.051 551.219 92.2168 530.417 92.2168C509.615 92.2168 492.752 109.051 492.752 129.817C492.752 150.583 509.615 167.417 530.417 167.417Z" fill="#C4DEF2"/>
<path d="M530.417 93.016C537.708 93.016 544.836 95.1743 550.898 99.218C556.96 103.262 561.686 109.009 564.476 115.734C567.266 122.458 567.996 129.858 566.574 136.996C565.151 144.135 561.64 150.692 556.484 155.839C551.329 160.986 544.76 164.491 537.609 165.911C530.458 167.331 523.046 166.602 516.31 163.816C509.574 161.031 503.816 156.314 499.765 150.262C495.715 144.21 493.553 137.095 493.553 129.817C493.563 120.06 497.45 110.705 504.361 103.806C511.273 96.9068 520.643 93.0263 530.417 93.016ZM530.417 92.2168C522.967 92.2129 515.683 94.4149 509.486 98.5441C503.29 102.673 498.459 108.544 495.605 115.414C492.751 122.285 492.003 129.845 493.454 137.14C494.905 144.435 498.491 151.137 503.757 156.397C509.024 161.658 515.735 165.241 523.042 166.693C530.349 168.145 537.923 167.402 544.807 164.557C551.691 161.711 557.574 156.892 561.714 150.708C565.853 144.525 568.063 137.254 568.063 129.817C568.063 119.848 564.097 110.287 557.038 103.236C549.979 96.1857 540.403 92.222 530.417 92.2168Z" fill="#3D659E"/>
<path d="M530.416 87.7139V129.817H572.611C572.606 118.648 568.158 107.94 560.246 100.044C552.333 92.1491 541.603 87.7139 530.416 87.7139Z" fill="#FAA61A"/>
<path d="M341.486 95.3745H340.686V160.322H341.486V95.3745Z" fill="#3D659E"/>
<path d="M436.264 138.822H340.686V139.212H436.264V138.822Z" fill="#3D659E"/>
<path d="M436.264 117.517H340.686V117.907H436.264V117.517Z" fill="#3D659E"/>
<path d="M436.264 159.932H340.686V160.731H436.264V159.932Z" fill="#596DAF"/>
<path d="M411.896 131.98L397.955 121.63L378.527 145.235L362.965 135.391L341.74 159.776L436.284 159.971V103.502L411.896 131.98Z" fill="#FAA61A"/>
<path d="M199.025 95.4717H198.225V160.244H199.025V95.4717Z" fill="#3D659E"/>
<path d="M293.569 159.854H198.225V160.653H293.569V159.854Z" fill="#3D659E"/>
<path d="M293.569 138.783H198.225V139.173H293.569V138.783Z" fill="#3D659E"/>
<path d="M293.569 117.537H198.225V117.926H293.569V117.537Z" fill="#3D659E"/>
<path d="M217.847 144.202H210.271V159.815H217.847V144.202Z" fill="#6CACDE"/>
<path d="M225.445 131.883H217.869V159.815H225.445V131.883Z" fill="#FAA61A"/>
<path d="M245.107 130.265H237.531V159.796H245.107V130.265Z" fill="#6CACDE"/>
<path d="M252.703 106.953H245.127V159.815H252.703V106.953Z" fill="#FAA61A"/>
<path d="M272.385 127.458H264.809V159.815H272.385V127.458Z" fill="#6CACDE"/>
<path d="M279.961 119.193H272.385V159.815H279.961V119.193Z" fill="#FAA61A"/>
<path d="M574.741 195.251H513.645V197.317H574.741V195.251Z" fill="#E4E8F2"/>
<path d="M574.74 203.126H489.002V205.192H574.74V203.126Z" fill="#E4E8F2"/>
<path d="M574.74 211.02H489.002V213.086H574.74V211.02Z" fill="#E4E8F2"/>
<path d="M554.706 218.895H489.002V220.961H554.706V218.895Z" fill="#E4E8F2"/>
<path d="M431.342 195.251H370.246V197.317H431.342V195.251Z" fill="#CED4E8"/>
<path d="M431.343 203.126H345.605V205.192H431.343V203.126Z" fill="#CED4E8"/>
<path d="M431.343 211.02H345.605V213.086H431.343V211.02Z" fill="#CED4E8"/>
<path d="M411.31 218.895H345.605V220.961H411.31V218.895Z" fill="#CED4E8"/>
<path d="M287.985 195.251H226.889V197.317H287.985V195.251Z" fill="#99BCD0"/>
<path d="M287.986 203.126H202.248V205.192H287.986V203.126Z" fill="#99BCD0"/>
<path d="M287.986 211.02H202.248V213.086H287.986V211.02Z" fill="#99BCD0"/>
<path d="M267.952 218.895H202.248V220.961H267.952V218.895Z" fill="#99BCD0"/>
<path d="M708.061 213.71C709.76 214.549 710.756 216.069 710.229 217.102L706.538 224.567C706.031 225.581 704.234 225.737 702.536 224.899L653.272 200.651C651.554 199.813 650.597 198.292 651.105 197.259L654.795 189.794C655.303 188.761 657.099 188.605 658.7 189.443L708.061 213.71Z" fill="#2E4C77"/>
<path d="M710.23 217.102C710.757 216.069 709.761 214.549 708.063 213.71L658.799 189.443C657.1 188.605 655.304 188.761 654.894 189.794L653.098 193.439L709.039 219.733L710.23 217.102Z" fill="#3D659E"/>
<g opacity="0.6">
<path opacity="0.6" d="M626.289 124.866C617.322 120.451 607.245 118.791 597.332 120.094C587.419 121.396 578.116 125.605 570.599 132.186C563.082 138.767 557.689 147.425 555.101 157.066C552.514 166.707 552.848 176.898 556.062 186.349C559.276 195.8 565.226 204.088 573.158 210.164C581.091 216.24 590.65 219.831 600.627 220.483C610.604 221.136 620.55 218.82 629.209 213.829C637.868 208.838 644.849 201.396 649.271 192.444C652.209 186.501 653.946 180.038 654.381 173.425C654.817 166.811 653.942 160.177 651.808 153.901C649.673 147.625 646.321 141.831 641.943 136.849C637.564 131.867 632.245 127.795 626.289 124.866Z" fill="white"/>
<path opacity="0.6" d="M605.865 124.632C617.947 125.149 629.328 130.436 637.505 139.329C645.682 148.223 649.984 159.995 649.466 172.056C648.949 184.116 643.653 195.478 634.743 203.64C625.834 211.803 614.042 216.098 601.96 215.581C594.397 215.248 587.037 213.041 580.542 209.158C574.048 205.275 568.625 199.838 564.761 193.34C560.898 186.841 558.716 179.484 558.413 171.933C558.11 164.382 559.695 156.875 563.026 150.088C566.943 142.178 573.075 135.572 580.68 131.074C588.285 126.576 597.034 124.379 605.865 124.749V124.632ZM606.08 119.778C593.568 119.216 581.291 123.302 571.62 131.247C561.948 139.192 555.569 150.433 553.713 162.798C551.858 175.163 554.657 187.776 561.572 198.202C568.486 208.627 579.024 216.125 591.152 219.249C603.28 222.372 616.137 220.899 627.241 215.113C638.344 209.328 646.906 199.641 651.274 187.922C655.642 176.204 655.506 163.286 650.892 151.662C646.277 140.038 637.512 130.533 626.289 124.983C619.989 121.864 613.106 120.091 606.08 119.778Z" fill="#B9DBF4"/>
</g>
<path d="M633.044 166.423C632.724 166.271 632.451 166.034 632.255 165.739C632.059 165.444 631.947 165.101 631.931 164.747C631.705 159.928 630.192 155.258 627.548 151.221C624.904 147.183 621.227 143.925 616.897 141.785C612.754 139.742 608.156 138.789 603.541 139.017C603.023 139.043 602.516 138.862 602.132 138.515C601.747 138.168 601.517 137.682 601.491 137.165C601.465 136.648 601.646 136.142 601.994 135.759C602.341 135.375 602.828 135.145 603.346 135.119C608.635 134.87 613.902 135.963 618.654 138.296C623.611 140.754 627.822 144.489 630.849 149.115C633.877 153.741 635.612 159.091 635.876 164.61C635.894 164.877 635.858 165.146 635.768 165.398C635.678 165.65 635.538 165.882 635.354 166.077C635.171 166.273 634.95 166.429 634.703 166.535C634.457 166.642 634.191 166.696 633.923 166.696C633.613 166.676 633.311 166.582 633.044 166.423Z" fill="white"/>
<path d="M630.857 115.568C620.051 110.246 607.907 108.244 595.961 109.813C584.015 111.381 572.803 116.451 563.743 124.382C554.683 132.312 548.183 142.746 545.063 154.364C541.944 165.982 542.346 178.263 546.218 189.653C550.091 201.044 557.26 211.032 566.819 218.354C576.378 225.677 587.898 230.006 599.921 230.793C611.944 231.58 623.932 228.79 634.367 222.776C644.802 216.761 653.216 207.793 658.545 197.005C665.69 182.541 666.787 165.835 661.595 150.563C656.403 135.29 645.346 122.703 630.857 115.568ZM581.535 215.367C572.573 210.946 565.125 203.971 560.133 195.326C555.141 186.68 552.829 176.751 553.489 166.793C554.149 156.836 557.751 147.297 563.841 139.383C569.93 131.469 578.234 125.535 587.701 122.331C597.168 119.127 607.375 118.798 617.03 121.383C626.685 123.969 635.355 129.354 641.945 136.858C648.534 144.362 652.747 153.648 654.051 163.542C655.355 173.436 653.691 183.494 649.27 192.444C646.332 198.391 642.249 203.702 637.255 208.073C632.26 212.443 626.452 215.789 620.161 217.918C613.871 220.047 607.221 220.917 600.594 220.479C593.966 220.042 587.49 218.304 581.535 215.367Z" fill="#3D659E"/>
<path opacity="0.6" d="M630.857 115.568C620.051 110.246 607.907 108.244 595.961 109.813C584.015 111.381 572.803 116.451 563.743 124.382C554.683 132.312 548.183 142.746 545.063 154.364C541.944 165.982 542.346 178.263 546.218 189.653C550.091 201.044 557.26 211.032 566.819 218.354C576.378 225.677 587.898 230.006 599.921 230.793C611.944 231.58 623.932 228.79 634.367 222.776C644.802 216.761 653.216 207.793 658.545 197.005C662.088 189.844 664.183 182.056 664.709 174.086C665.235 166.116 664.182 158.121 661.61 150.557C659.039 142.994 654.999 136.011 649.722 130.007C644.446 124.003 638.035 119.097 630.857 115.568ZM654.112 194.803C649.317 204.528 641.794 212.653 632.459 218.189C623.124 223.726 612.379 226.436 601.53 225.99C592.217 225.6 583.149 222.894 575.15 218.117C567.151 213.34 560.475 206.643 555.728 198.635C550.98 190.627 548.313 181.562 547.968 172.263C547.622 162.965 549.61 153.727 553.75 145.39C558.54 135.665 566.059 127.54 575.391 122.003C584.723 116.466 595.467 113.756 606.313 114.203C615.628 114.59 624.698 117.294 632.7 122.07C640.701 126.846 647.38 133.542 652.129 141.55C656.879 149.559 659.548 158.625 659.894 167.925C660.241 177.225 658.253 186.464 654.112 194.803Z" fill="#6484B1"/>
<path d="M671.569 195.017L665.457 207.395C665.058 208.217 665 209.164 665.296 210.029C665.592 210.894 666.218 211.607 667.039 212.014L670.143 213.535L739.889 247.977C740.71 248.382 741.658 248.445 742.526 248.153C743.394 247.861 744.11 247.236 744.517 246.418L750.628 234.04C750.832 233.635 750.953 233.193 750.985 232.741C751.016 232.289 750.958 231.835 750.812 231.405C750.667 230.976 750.438 230.579 750.138 230.238C749.839 229.898 749.474 229.62 749.066 229.421L678.774 194.744L676.118 193.438C675.302 193.064 674.373 193.019 673.525 193.313C672.677 193.608 671.976 194.218 671.569 195.017Z" fill="#FAA61A"/>
<path d="M667.039 212.015L670.143 213.535L739.889 247.977C740.71 248.383 741.658 248.446 742.526 248.153C743.394 247.861 744.11 247.237 744.517 246.418L748.754 237.842L669.03 200.144L665.457 207.395C665.058 208.218 665 209.165 665.296 210.03C665.592 210.895 666.218 211.608 667.039 212.015Z" fill="#FBB848"/>
<path d="M740.943 225.406L739.283 224.587L743.345 212.892C743.583 212.254 744.051 211.727 744.658 211.413C745.264 211.1 745.965 211.023 746.625 211.196L747.289 211.372C747.641 211.479 747.966 211.659 748.246 211.898C748.668 212.268 748.951 212.772 749.047 213.325C749.143 213.879 749.046 214.448 748.773 214.939L742.778 226.322L740.943 225.406Z" fill="white"/>
<path d="M730.127 316.686V317.641L739.987 317.056L739.89 315.458L739.128 313.041L738.933 306.648L733.954 306.238L734.325 312.944L732.372 315.107L730.127 316.686ZM737.234 317.212L737.547 316.628H738.093L738.406 317.193L737.234 317.212Z" fill="#191A2D"/>
<path d="M738.25 224.022C738.484 229.226 740.769 233.319 739.812 238.036L739.343 240.356L739.011 269.438L739.265 311.365L733.544 311.716L729.932 268.834L723.82 223.827L738.25 224.022Z" fill="#233959"/>
<path d="M677.837 211.878L676.197 211.293L674.869 210.865L673.268 210.826L671.472 210.787L671.862 211.43L674.44 211.761L674.752 212.112L670.828 212.288L668.777 212.326L668.855 212.95L670.339 212.989L673.014 213.106V213.223L670.73 213.184H668.68L668.738 213.808L670.749 213.827L673.21 213.983L673.249 214.12L670.984 214.042L669.207 214.022L669.324 214.607H671.062L673.327 214.724L673.385 214.841L671.999 214.86L669.812 214.763L669.968 215.231L671.96 215.367L673.678 215.445L675.572 215.289L677.915 214.938L683.812 215.27L684.125 212.307L677.837 211.878Z" fill="#FFC590"/>
<path d="M719.367 195.875L724.034 186.129L720.324 186.012C716.302 186.012 714.193 185.505 711.44 190.066L698.904 209.89L703.044 213.788L716.927 195.524L719.367 195.875Z" fill="white"/>
<path d="M679.711 213.418L679.164 211.683L699.783 209.597C701.209 209.441 702.322 209.597 702.966 210.669L703.278 211.215C703.449 211.514 703.549 211.847 703.571 212.19C703.555 212.891 703.282 213.562 702.803 214.076C702.325 214.59 701.674 214.91 700.974 214.977L680.218 215.445L679.711 213.418Z" fill="white"/>
<path d="M704.274 306.316H709.234L708.14 312.339L708.492 315.634L708.414 317.096L705.036 317.115L704.118 316.511L702.322 316.452L701.795 317.076L693.262 317.212L693.32 316.238L698.866 314.289L703.122 311.482L704.274 306.316Z" fill="#191A2D"/>
<path d="M714.936 224.022L709.547 268.756L703.045 311.073L708.746 311.95L718.373 269.321L729.502 223.827L714.936 224.022Z" fill="#2E4C77"/>
<path d="M724.953 189.872H729.697V179.19H724.953V189.872Z" fill="#FFC590"/>
<path d="M732.216 171.16L730.83 179.6C730.565 180.357 730.104 181.03 729.493 181.551C728.883 182.071 728.144 182.42 727.354 182.562L724.406 183.225C723.997 183.306 723.575 183.292 723.172 183.186C722.77 183.079 722.397 182.881 722.082 182.609C721.767 182.336 721.519 181.995 721.357 181.612C721.195 181.229 721.122 180.814 721.145 180.399V174.902L721.457 174.044L721.145 171.744L721.711 166.969L728.252 167.476L732.216 171.16Z" fill="#FFC590"/>
<path d="M714.525 227.316L738.62 227.121L738.347 220.474V209.637L738.757 193.049C739.382 188.254 738.952 186.402 734.852 186.344L719.387 186.051C717.942 186.051 716.829 187.279 716.869 189.95L714.525 227.316Z" fill="white"/>
<path d="M733.251 170.711C733.993 169.034 733.466 168.528 733.466 168.528C732.37 167.713 731.023 167.306 729.659 167.378C729.444 167.378 730.147 167.378 725.05 166.267C719.095 165.039 719.329 169.034 719.329 169.054C719.837 169.775 720.506 170.369 721.282 170.789C724.601 168.001 722.414 170.457 724.328 170.301C724.173 170.747 724.049 171.203 723.957 171.666C723.957 172.134 724.836 173.342 724.836 173.342V175.174L725.187 175.389C725.187 175.389 725.48 174.434 725.753 174.375C726.027 174.317 726.652 174.902 726.73 175.213C726.808 175.525 726.378 175.954 726.359 176.208C726.448 177.148 726.72 178.061 727.159 178.897C729.463 180.847 730.85 179.736 730.85 179.736L732.509 174.414L732.626 173.401C733.935 171.529 733.251 170.711 733.251 170.711Z" fill="#414962"/>
<path d="M732.217 195.271L734.169 186.324L738.211 186.48C739.524 186.598 740.759 187.155 741.716 188.06C742.672 188.966 743.295 190.167 743.483 191.47L749.165 213.418L743.542 214.918L737.293 195.271H732.217Z" fill="white"/>
<path d="M724.68 184.531H729.952L730.655 186.324H724.211L724.68 184.531Z" fill="#D9DBE0"/>
<path d="M723.762 183.225C723.762 183.225 722.864 183.088 722.883 182.523C722.903 181.958 724.836 181.529 724.836 181.529V183.108L723.762 183.225Z" fill="#FFD1A6"/>
<path opacity="0.25" d="M136.954 320C154.747 320 169.171 318.691 169.171 317.076C169.171 315.461 154.747 314.152 136.954 314.152C119.161 314.152 104.736 315.461 104.736 317.076C104.736 318.691 119.161 320 136.954 320Z" fill="#3D659E"/>
<path opacity="0.25" d="M716.868 320C734.661 320 749.085 318.691 749.085 317.076C749.085 315.461 734.661 314.152 716.868 314.152C699.075 314.152 684.65 315.461 684.65 317.076C684.65 318.691 699.075 320 716.868 320Z" fill="#3D659E"/>
<path d="M120.455 314.133L118.502 311.969L118.873 305.264L113.914 305.673L113.719 312.066L112.937 314.483L112.84 316.082L122.72 316.667V315.711L120.455 314.133ZM114.597 316.179L114.91 315.614H115.456L115.769 316.199L114.597 316.179Z" fill="#191A2D"/>
<path d="M148.629 305.342H143.689L144.763 311.365L144.412 314.659L144.49 316.121L147.868 316.14L148.786 315.536L150.602 315.478L151.129 316.101L159.642 316.238L159.603 315.263L154.058 313.314L149.801 310.507L148.629 305.342Z" fill="#191A2D"/>
<path d="M137.988 223.047L143.358 267.781L149.879 310.098L144.158 310.975L134.552 268.346L123.422 222.852L137.988 223.047Z" fill="#233959"/>
<path d="M114.655 223.047C114.44 228.251 112.136 232.345 113.093 237.062L113.581 239.381L113.893 268.463L113.64 310.391L119.38 310.741L122.973 267.859L129.084 222.852L114.655 223.047Z" fill="#2E4C77"/>
<path d="M127.952 178.215H123.207V188.897H127.952V178.215Z" fill="#FFC590"/>
<path d="M120.67 170.185L122.056 178.625C122.322 179.381 122.784 180.053 123.394 180.574C124.005 181.094 124.742 181.444 125.532 181.588L128.461 182.173C128.871 182.254 129.295 182.24 129.699 182.132C130.103 182.024 130.477 181.825 130.792 181.55C131.107 181.275 131.355 180.932 131.516 180.546C131.677 180.161 131.747 179.744 131.721 179.327V173.927L131.409 173.07L131.721 170.77L131.175 165.994L124.634 166.501L120.67 170.185Z" fill="#FFC590"/>
<path d="M138.946 226.107H113.895L114.558 219.46V208.623L114.168 192.035C113.524 187.24 113.973 185.388 118.073 185.33L133.498 185.174C134.943 185.174 136.056 186.402 136.017 189.072L138.946 226.107Z" fill="white"/>
<path d="M122.133 185.096L123.07 183.244L126.077 185.174L123.851 188.487L122.133 185.096Z" fill="#D1D3D4"/>
<path d="M126.527 185.174L128.441 188.448L128.89 185.31L127.992 183.634L126.527 185.174Z" fill="#D1D3D4"/>
<path opacity="0.3" d="M128.459 182.172C128.87 182.253 129.294 182.24 129.698 182.132C130.102 182.024 130.476 181.825 130.791 181.55C131.106 181.275 131.354 180.932 131.515 180.546C131.676 180.16 131.746 179.743 131.72 179.326V177.689C131.154 177.28 131.232 177.202 130.666 177.202C129.849 177.177 129.035 177.303 128.264 177.572C127.834 177.745 127.452 178.019 127.151 178.371L125.199 177.728L123.676 174.044L123.324 174.258L123.5 176.519L123.363 179.326V180.535C123.5 180.535 124.457 181.236 124.574 181.256L126.019 181.665L128.459 182.172Z" fill="#091018"/>
<path d="M91.7712 228.544L116.042 223.651L115.163 239.381L90.834 243.865L91.7712 228.544Z" fill="#FAA61A"/>
<path d="M119.752 169.736C119.03 168.06 119.557 167.553 119.557 167.553C120.679 166.716 122.064 166.308 123.462 166.403C123.677 166.403 122.954 166.403 128.05 165.292C133.908 164.064 133.791 168.06 133.791 168.079C133.279 168.797 132.612 169.39 131.838 169.814C128.519 167.027 125.454 169.346 123.52 169.19C123.52 169.19 124.653 170.107 124.712 170.555C124.77 171.003 123.833 172.212 123.833 172.212V174.161L123.462 174.375C123.462 174.375 123.189 173.401 122.896 173.362C122.603 173.323 121.997 173.888 121.919 174.2C121.841 174.512 122.271 174.921 122.29 175.194C122.202 175.623 122.036 176.032 121.802 176.402L120.553 173.479L120.416 172.465C119.108 170.633 119.752 169.736 119.752 169.736Z" fill="#414962"/>
<path d="M126.078 185.174H126.527L127.62 187.045L126.859 188.351L125.648 188.429L124.906 186.909L126.078 185.174Z" fill="#FAA61A"/>
<path d="M126.859 188.351L128.87 200.845L131.194 220.415L129.69 221.877L127.562 220.474L127.054 201.235L125.648 188.429L126.859 188.351Z" fill="#FAA61A"/>
<path d="M181.16 196.675L182.82 196.168L184.187 195.797H185.788L187.565 195.817L187.174 196.441L184.577 196.713L184.245 197.045L188.151 197.357L190.22 197.474L190.123 198.097L188.639 198.058L185.944 198.097V198.214L188.248 198.253L190.279 198.331L190.201 198.955L188.19 198.897L185.71 198.955L185.671 199.092H187.955L189.713 199.15L189.576 199.715L187.858 199.657L185.573 199.696L185.515 199.813L186.901 199.891L189.088 199.871L188.932 200.32L186.92 200.397H185.202L183.308 200.183L180.985 199.754L175.088 199.871L174.873 196.889L181.16 196.675Z" fill="#FFC590"/>
<path d="M133.536 194.92L128.869 185.174L130.822 185.057C134.955 184.873 139.063 185.781 142.732 187.688L161.106 196.869L157.552 202.093L136.074 194.53L133.536 194.92Z" fill="white"/>
<path d="M180.144 197.941L180.476 196.167L159.759 196.674C158.314 196.674 157.221 196.967 156.732 198.136L156.479 198.721C156.351 199.043 156.297 199.389 156.322 199.735C156.322 200.768 157.24 202.385 158.275 202.268L179.871 200.027L180.144 197.941Z" fill="white"/>
<path d="M120.747 194.296L118.794 185.349L114.752 185.505C113.439 185.623 112.204 186.18 111.248 187.086C110.291 187.991 109.668 189.192 109.48 190.495L101.924 212.774L107.528 214.275L115.689 194.296H120.747Z" fill="white"/>
<path d="M102.119 241.116H102.217L102.373 242.149L103.017 241.993L102.822 240.96L103.056 241.973L103.74 241.837L103.564 240.901L103.759 241.662L104.501 241.506L104.247 239.05H104.403L104.618 240.473L105.516 240.765L105.438 238.289L104.482 236.34V230.493L101.592 231.233L101.416 236.808L101.26 239.128V240.765L101.494 242.285H102.275L102.119 241.116Z" fill="#FFC590"/>
<path d="M102.939 234.333L104.891 234.196L107.43 214.587C107.552 213.918 107.42 213.227 107.059 212.65C106.698 212.073 106.134 211.652 105.477 211.469L104.813 211.293C104.454 211.206 104.079 211.206 103.72 211.293C103.175 211.408 102.685 211.703 102.331 212.132C101.976 212.56 101.777 213.096 101.767 213.652L100.869 234.567L102.939 234.333Z" fill="white"/>
<path d="M22.3968 123.307L22.2598 123.111L22.3968 123.307Z" fill="#2E4C77"/>
<path d="M19.5251 149.679C19.1251 149.318 18.753 148.927 18.4121 148.509C18.7528 148.927 19.1249 149.318 19.5251 149.679Z" fill="#2E4C77"/>
</svg>
