<svg width="291" height="123" viewBox="0 0 291 123" fill="none" xmlns="http://www.w3.org/2000/svg">
<path d="M101.41 6.61274C82.9779 8.56257 64.422 13.158 46.5464 22.7829C33.2565 29.9289 15.5894 40.093 6.69603 58.9073C-14.0081 102.894 61.1118 107.26 72.9415 107.319C109.657 107.504 147.303 103.585 182.979 83.3239C191.357 78.5677 203.261 71.426 207.442 57.576C211.88 42.9187 203.398 32.3198 196.036 27.5099C182.662 18.7988 166.525 18.6287 151.927 18.3268C127.529 17.8193 103.059 21.9508 78.6514 26.0175C77.2645 26.2504 77.6291 29.5673 79.0001 29.3563C110.348 24.4686 142.243 19.1807 173.311 23.8597C183.31 25.3588 199.534 27.6388 204.967 42.712C211.36 60.4304 193.427 73.2083 185.105 78.4027C157.502 95.6267 126.982 101.916 98.2297 103.673C81.8264 105.053 65.4587 104.68 49.2393 102.555C41.2444 101.294 33.3643 99.0616 25.6681 95.8775C18.7685 93.1555 6.40392 87.2071 5.22967 74.0033C3.82437 59.1152 16.7845 47.5109 23.5739 41.5109C31.7555 34.3739 40.3182 28.5141 49.1315 24.0208C66.1785 15.5432 83.6939 10.4588 101.255 8.89033C102.171 8.78792 102.339 6.53401 101.41 6.61274Z" fill="#F2706D"/>
<path d="M53.0078 50.982C52.5278 50.982 52.1011 50.8886 51.7278 50.702C51.3678 50.5153 50.9745 50.2553 50.5478 49.922C50.2278 49.682 49.9678 49.5086 49.7678 49.402C49.5811 49.2953 49.3878 49.242 49.1878 49.242C48.8278 49.242 48.5345 49.382 48.3078 49.662C48.0811 49.942 47.9611 50.322 47.9478 50.802H46.0078C46.0211 49.5753 46.3011 48.6353 46.8478 47.982C47.3945 47.3153 48.1145 46.982 49.0078 46.982C49.4878 46.982 49.9011 47.0753 50.2478 47.262C50.5945 47.4353 51.0011 47.6953 51.4678 48.042C51.7878 48.282 52.0411 48.4553 52.2278 48.562C52.4145 48.6686 52.6078 48.722 52.8078 48.722C53.1811 48.722 53.4745 48.582 53.6878 48.302C53.9011 48.022 54.0211 47.642 54.0478 47.162H56.0078C55.9811 48.3886 55.6945 49.3353 55.1478 50.002C54.6011 50.6553 53.8878 50.982 53.0078 50.982ZM68.1725 56.242C66.7458 56.242 65.4525 55.9353 64.2925 55.322C63.1458 54.6953 62.2392 53.8353 61.5725 52.742C60.9192 51.6353 60.5925 50.3886 60.5925 49.002C60.5925 47.6153 60.9192 46.3753 61.5725 45.282C62.2392 44.1753 63.1458 43.3153 64.2925 42.702C65.4525 42.0753 66.7525 41.762 68.1925 41.762C69.4058 41.762 70.4992 41.9753 71.4725 42.402C72.4592 42.8286 73.2858 43.442 73.9525 44.242L71.8725 46.162C70.9258 45.0686 69.7525 44.522 68.3525 44.522C67.4858 44.522 66.7125 44.7153 66.0325 45.102C65.3525 45.4753 64.8192 46.002 64.4325 46.682C64.0592 47.362 63.8725 48.1353 63.8725 49.002C63.8725 49.8686 64.0592 50.642 64.4325 51.322C64.8192 52.002 65.3525 52.5353 66.0325 52.922C66.7125 53.2953 67.4858 53.482 68.3525 53.482C69.7525 53.482 70.9258 52.9286 71.8725 51.822L73.9525 53.742C73.2858 54.5553 72.4592 55.1753 71.4725 55.602C70.4858 56.0286 69.3858 56.242 68.1725 56.242ZM89.5842 45.082C90.9309 45.082 91.9976 45.482 92.7842 46.282C93.5842 47.0686 93.9842 48.2553 93.9842 49.842V56.002H90.8642V50.322C90.8642 49.4686 90.6842 48.8353 90.3242 48.422C89.9776 47.9953 89.4776 47.782 88.8242 47.782C88.0909 47.782 87.5109 48.022 87.0842 48.502C86.6576 48.9686 86.4442 49.6686 86.4442 50.602V56.002H83.3242V50.322C83.3242 48.6286 82.6442 47.782 81.2842 47.782C80.5642 47.782 79.9909 48.022 79.5642 48.502C79.1376 48.9686 78.9242 49.6686 78.9242 50.602V56.002H75.8042V45.242H78.7842V46.482C79.1842 46.0286 79.6709 45.682 80.2442 45.442C80.8309 45.202 81.4709 45.082 82.1642 45.082C82.9242 45.082 83.6109 45.2353 84.2242 45.542C84.8376 45.8353 85.3309 46.2686 85.7042 46.842C86.1442 46.282 86.6976 45.8486 87.3642 45.542C88.0442 45.2353 88.7842 45.082 89.5842 45.082ZM107.563 45.242V56.002H104.583V54.762C103.81 55.6953 102.69 56.162 101.223 56.162C100.21 56.162 99.2898 55.9353 98.4631 55.482C97.6498 55.0286 97.0098 54.382 96.5431 53.542C96.0765 52.702 95.8431 51.7286 95.8431 50.622C95.8431 49.5153 96.0765 48.542 96.5431 47.702C97.0098 46.862 97.6498 46.2153 98.4631 45.762C99.2898 45.3086 100.21 45.082 101.223 45.082C102.596 45.082 103.67 45.5153 104.443 46.382V45.242H107.563ZM101.763 53.602C102.55 53.602 103.203 53.3353 103.723 52.802C104.243 52.2553 104.503 51.5286 104.503 50.622C104.503 49.7153 104.243 48.9953 103.723 48.462C103.203 47.9153 102.55 47.642 101.763 47.642C100.963 47.642 100.303 47.9153 99.7831 48.462C99.2631 48.9953 99.0031 49.7153 99.0031 50.622C99.0031 51.5286 99.2631 52.2553 99.7831 52.802C100.303 53.3353 100.963 53.602 101.763 53.602ZM124.272 45.082C125.618 45.082 126.685 45.482 127.472 46.282C128.272 47.0686 128.672 48.2553 128.672 49.842V56.002H125.552V50.322C125.552 49.4686 125.372 48.8353 125.012 48.422C124.665 47.9953 124.165 47.782 123.512 47.782C122.778 47.782 122.198 48.022 121.772 48.502C121.345 48.9686 121.132 49.6686 121.132 50.602V56.002H118.012V50.322C118.012 48.6286 117.332 47.782 115.972 47.782C115.252 47.782 114.678 48.022 114.252 48.502C113.825 48.9686 113.612 49.6686 113.612 50.602V56.002H110.492V45.242H113.472V46.482C113.872 46.0286 114.358 45.682 114.932 45.442C115.518 45.202 116.158 45.082 116.852 45.082C117.612 45.082 118.298 45.2353 118.912 45.542C119.525 45.8353 120.018 46.2686 120.392 46.842C120.832 46.282 121.385 45.8486 122.052 45.542C122.732 45.2353 123.472 45.082 124.272 45.082ZM136.331 56.302C134.624 56.302 133.331 55.922 132.451 55.162C131.584 54.402 131.151 53.282 131.151 51.802V45.242H134.251V48.882C134.584 48.642 135.011 48.4553 135.531 48.322C136.064 48.1886 136.657 48.122 137.311 48.122C138.657 48.122 139.711 48.4553 140.471 49.122C141.231 49.7886 141.611 50.762 141.611 52.042C141.611 53.4153 141.137 54.4686 140.191 55.202C139.257 55.9353 137.971 56.302 136.331 56.302ZM136.331 54.102C136.997 54.102 137.511 53.922 137.871 53.562C138.244 53.202 138.431 52.7153 138.431 52.102C138.431 51.5153 138.251 51.0553 137.891 50.722C137.544 50.3886 137.044 50.222 136.391 50.222C135.911 50.222 135.484 50.3086 135.111 50.482C134.737 50.6553 134.451 50.902 134.251 51.222V52.102C134.251 52.7286 134.431 53.222 134.791 53.582C135.164 53.9286 135.677 54.102 136.331 54.102ZM154.237 45.242V56.002H151.257V54.742C150.857 55.2086 150.364 55.562 149.777 55.802C149.204 56.042 148.591 56.162 147.937 56.162C146.524 56.162 145.397 55.7553 144.557 54.942C143.731 54.1286 143.317 52.922 143.317 51.322V45.242H146.437V50.862C146.437 52.5953 147.164 53.462 148.617 53.462C149.377 53.462 149.984 53.222 150.437 52.742C150.891 52.2486 151.117 51.522 151.117 50.562V45.242H154.237ZM57.2078 69.242V80.002H54.0878V71.802H49.6078V80.002H46.5078V69.242H57.2078ZM65.2392 80.162C64.1059 80.162 63.0859 79.9286 62.1792 79.462C61.2859 78.982 60.5859 78.322 60.0792 77.482C59.5726 76.642 59.3192 75.6886 59.3192 74.622C59.3192 73.5553 59.5726 72.602 60.0792 71.762C60.5859 70.922 61.2859 70.2686 62.1792 69.802C63.0859 69.322 64.1059 69.082 65.2392 69.082C66.3726 69.082 67.3859 69.322 68.2792 69.802C69.1726 70.2686 69.8726 70.922 70.3792 71.762C70.8859 72.602 71.1392 73.5553 71.1392 74.622C71.1392 75.6886 70.8859 76.642 70.3792 77.482C69.8726 78.322 69.1726 78.982 68.2792 79.462C67.3859 79.9286 66.3726 80.162 65.2392 80.162ZM65.2392 77.602C66.0392 77.602 66.6926 77.3353 67.1992 76.802C67.7192 76.2553 67.9792 75.5286 67.9792 74.622C67.9792 73.7153 67.7192 72.9953 67.1992 72.462C66.6926 71.9153 66.0392 71.642 65.2392 71.642C64.4392 71.642 63.7792 71.9153 63.2592 72.462C62.7392 72.9953 62.4792 73.7153 62.4792 74.622C62.4792 75.5286 62.7392 76.2553 63.2592 76.802C63.7792 77.3353 64.4392 77.602 65.2392 77.602ZM92.7092 69.082C94.0559 69.082 95.1226 69.482 95.9092 70.282C96.7092 71.0686 97.1092 72.2553 97.1092 73.842V80.002H93.9892V74.322C93.9892 73.4686 93.8092 72.8353 93.4492 72.422C93.1026 71.9953 92.6026 71.782 91.9492 71.782C91.2159 71.782 90.6359 72.022 90.2092 72.502C89.7826 72.9686 89.5692 73.6686 89.5692 74.602V80.002H86.4492V74.322C86.4492 72.6286 85.7692 71.782 84.4092 71.782C83.6892 71.782 83.1159 72.022 82.6892 72.502C82.2626 72.9686 82.0492 73.6686 82.0492 74.602V80.002H78.9292V69.242H81.9092V70.482C82.3092 70.0286 82.7959 69.682 83.3692 69.442C83.9559 69.202 84.5959 69.082 85.2892 69.082C86.0492 69.082 86.7359 69.2353 87.3492 69.542C87.9626 69.8353 88.4559 70.2686 88.8292 70.842C89.2692 70.282 89.8226 69.8486 90.4892 69.542C91.1692 69.2353 91.9092 69.082 92.7092 69.082ZM105.188 77.662C105.748 77.662 106.241 77.582 106.668 77.422C107.108 77.2486 107.515 76.982 107.888 76.622L109.548 78.422C108.535 79.582 107.055 80.162 105.108 80.162C103.895 80.162 102.821 79.9286 101.888 79.462C100.955 78.982 100.235 78.322 99.7281 77.482C99.2215 76.642 98.9681 75.6886 98.9681 74.622C98.9681 73.5686 99.2148 72.622 99.7081 71.782C100.215 70.9286 100.901 70.2686 101.768 69.802C102.648 69.322 103.635 69.082 104.728 69.082C105.755 69.082 106.688 69.302 107.528 69.742C108.368 70.1686 109.035 70.7953 109.528 71.622C110.035 72.4353 110.288 73.402 110.288 74.522L102.328 76.062C102.555 76.5953 102.908 76.9953 103.388 77.262C103.881 77.5286 104.481 77.662 105.188 77.662ZM104.728 71.442C103.941 71.442 103.301 71.6953 102.808 72.202C102.315 72.7086 102.055 73.4086 102.028 74.302L107.268 73.282C107.121 72.722 106.821 72.2753 106.368 71.942C105.915 71.6086 105.368 71.442 104.728 71.442ZM122.945 80.002V73.562L119.725 78.962H118.405L115.265 73.542V80.002H112.445V69.242H115.705L119.145 75.462L122.805 69.242H125.725L125.765 80.002H122.945ZM139.614 69.242V80.002H136.634V78.762C135.861 79.6953 134.741 80.162 133.274 80.162C132.261 80.162 131.341 79.9353 130.514 79.482C129.701 79.0286 129.061 78.382 128.594 77.542C128.127 76.702 127.894 75.7286 127.894 74.622C127.894 73.5153 128.127 72.542 128.594 71.702C129.061 70.862 129.701 70.2153 130.514 69.762C131.341 69.3086 132.261 69.082 133.274 69.082C134.647 69.082 135.721 69.5153 136.494 70.382V69.242H139.614ZM133.814 77.602C134.601 77.602 135.254 77.3353 135.774 76.802C136.294 76.2553 136.554 75.5286 136.554 74.622C136.554 73.7153 136.294 72.9953 135.774 72.462C135.254 71.9153 134.601 71.642 133.814 71.642C133.014 71.642 132.354 71.9153 131.834 72.462C131.314 72.9953 131.054 73.7153 131.054 74.622C131.054 75.5286 131.314 76.2553 131.834 76.802C132.354 77.3353 133.014 77.602 133.814 77.602ZM153.063 80.002V73.562L149.843 78.962H148.523L145.383 73.542V80.002H142.563V69.242H145.823L149.263 75.462L152.923 69.242H155.843L155.883 80.002H153.063Z" fill="#476481"/>
<g clip-path="url(#clip0)">
<path d="M224.613 66.2005C227.908 66.5077 231.327 66.3233 234.569 67.0405C237.506 67.7797 240.358 68.8096 243.083 70.1149C248.543 72.6232 253.723 75.6848 258.542 79.2515C263.31 82.7274 267.805 86.5561 271.99 90.7054C276.485 95.1736 280.207 100.428 281.193 106.812C281.412 108.19 283.544 107.623 283.314 106.252C281.309 94.051 269.783 85.2173 260.392 78.3338C255.221 74.506 249.585 71.3363 243.614 68.8976C240.627 67.5801 237.493 66.6129 234.274 66.0154C231.088 65.5348 227.855 65.778 224.616 65.6212C224.239 65.5933 224.239 66.1631 224.613 66.2005Z" fill="#F2706D"/>
<path d="M277.902 83.0717C278.941 87.1753 279.077 91.7687 279.796 95.97C280.165 97.9977 280.189 100.343 280.84 102.304C281.368 103.884 282.588 105.483 283.418 106.921L284.813 105.521C280.333 103.174 276.401 99.68 272.297 96.7359C270.086 95.1541 267.162 92.5741 264.181 92.8781C263.968 92.8796 263.762 92.958 263.601 93.0988C263.44 93.2396 263.336 93.4331 263.307 93.6433C263.279 93.8535 263.328 94.0661 263.445 94.2415C263.563 94.4169 263.741 94.5431 263.947 94.5967C271.565 97.0082 276.825 103.648 283.795 107.297C283.989 107.398 284.212 107.434 284.43 107.4C284.648 107.366 284.85 107.264 285.007 107.108C285.163 106.952 285.266 106.751 285.299 106.534C285.333 106.317 285.296 106.096 285.194 105.903C284.23 104.234 283.006 102.558 282.442 100.706C281.822 98.6882 281.532 96.4798 281.039 94.3894C280.169 90.6075 279.803 86.5589 278.588 82.8732C278.552 82.7979 278.49 82.7377 278.414 82.7027C278.337 82.6678 278.251 82.6604 278.169 82.6816C278.087 82.7029 278.014 82.7515 277.964 82.8193C277.913 82.8872 277.888 82.97 277.891 83.0539L277.902 83.0717Z" fill="#F2706D"/>
</g>
<defs>
<clipPath id="clip0">
<rect width="66.2097" height="38.54" fill="white" transform="translate(257.377 46) rotate(60)"/>
</clipPath>
</defs>
</svg>
