<svg width="21" height="20" viewBox="0 0 21 20" fill="none" xmlns="http://www.w3.org/2000/svg">
<path d="M19.4226 12.1233C20.8706 5.61556 15.17 -0.296365 8.4754 0.838525C4.84106 -1.41709 0.00195312 1.13183 0.00195312 5.45641C0.00195312 6.46215 0.279402 7.40372 0.761814 8.21531C-0.583773 14.738 5.16351 20.5649 11.8523 19.3526C12.6321 19.765 13.522 20 14.4676 20C18.591 20 21.2314 15.7229 19.4226 12.1233ZM10.0801 16.5662C8.12879 16.5662 6.22248 16.0954 5.09435 14.4839C3.41299 12.1058 5.63009 10.9159 6.71822 11.8225C7.62639 12.5882 7.34144 14.4405 10.0084 14.4405C11.1841 14.4405 12.6355 13.9389 12.6355 12.7732C12.6355 10.4276 7.43226 11.5375 5.36347 8.98024C4.60361 8.04366 4.4603 6.39132 5.39346 5.1931C7.01983 3.09997 11.7923 2.97248 13.8444 4.55316C15.7391 6.01969 15.2275 7.96617 13.6986 7.96617C11.8598 7.96617 12.8263 5.55973 9.85764 5.55973C7.70554 5.55973 6.85903 7.09042 8.37458 7.83535C10.3917 8.83692 15.6649 8.52445 15.6649 12.5041C15.6582 15.3013 12.9596 16.5662 10.0801 16.5662Z" fill="#0083C7"/>
</svg>
