<svg width="19" height="18" viewBox="0 0 19 18" fill="none" xmlns="http://www.w3.org/2000/svg">
<path d="M13.0344 0H4.96917C2.23025 0 0.00195312 2.2284 0.00195312 4.96732V13.0326C0.00195312 15.7716 2.23025 17.9999 4.96917 17.9999H13.0344C15.7736 17.9999 18.0018 15.7715 18.0018 13.0326V4.96732C18.002 2.2284 15.7736 0 13.0344 0ZM16.4049 13.0326C16.4049 14.891 14.8929 16.4029 13.0345 16.4029H4.96917C3.11085 16.403 1.59899 14.891 1.59899 13.0326V4.96732C1.59899 3.10901 3.11085 1.59704 4.96917 1.59704H13.0344C14.8928 1.59704 16.4048 3.10901 16.4048 4.96732V13.0326H16.4049Z" fill="#222C36"/>
<path d="M9.0014 4.36182C6.4439 4.36182 4.36328 6.44244 4.36328 8.99993C4.36328 11.5573 6.4439 13.6378 9.0014 13.6378C11.5589 13.6378 13.6395 11.5573 13.6395 8.99993C13.6395 6.44244 11.5589 4.36182 9.0014 4.36182ZM9.0014 12.0407C7.32462 12.0407 5.96032 10.6766 5.96032 8.99983C5.96032 7.32294 7.32451 5.95875 9.0014 5.95875C10.6783 5.95875 12.0425 7.32294 12.0425 8.99983C12.0425 10.6766 10.6782 12.0407 9.0014 12.0407Z" fill="#222C36"/>
<path d="M13.8333 3.00781C13.5256 3.00781 13.2233 3.13238 13.006 3.35064C12.7876 3.56784 12.6621 3.87021 12.6621 4.17897C12.6621 4.48678 12.7877 4.78904 13.006 5.0073C13.2232 5.2245 13.5256 5.35013 13.8333 5.35013C14.142 5.35013 14.4433 5.2245 14.6616 5.0073C14.8799 4.78904 15.0044 4.48667 15.0044 4.17897C15.0044 3.87021 14.8799 3.56784 14.6616 3.35064C14.4444 3.13238 14.142 3.00781 13.8333 3.00781Z" fill="#222C36"/>
</svg>
