<svg width="315" height="108" viewBox="0 0 315 108" fill="none" xmlns="http://www.w3.org/2000/svg">
<g clip-path="url(#clip0)">
<path d="M112.866 5.69888C101.909 7.0675 90.676 7.12978 79.7158 8.80873C69.821 10.2943 60.1751 12.4716 50.9095 15.311C33.6113 20.6937 15.3436 28.8399 5.75806 41.0064C-2.60339 51.5845 1.36241 63.5098 15.2509 70.9977C23.1371 75.2567 32.4074 76.9744 41.6144 78.8489C52.7475 81.0642 64.1526 82.3341 75.5995 82.633C100.104 83.3396 124.526 81.7691 148.28 77.9594C169.32 74.6055 191.318 69.7594 208.981 60.8405C222.955 53.8313 235.868 41.6589 221.488 29.909C209.083 19.8148 186.202 16.3223 169.054 13.8613C143.286 10.1073 116.438 10.1925 90.7656 12.7628C70.6605 14.7938 46.3331 18.4461 34.991 31.8726C33.9808 33.0514 36.2251 34.5511 37.6518 33.5543C50.7548 24.5566 64.9293 20.0316 82.779 17.7623C102.589 15.2783 122.827 14.6099 143.031 15.7723C162.217 16.858 181.835 19.3884 199.982 24.5757C207.43 26.7086 215.481 29.6543 220.067 34.7318C227.598 43.1384 218.511 51.0346 209.904 56.0717C194.888 64.859 175.719 69.7331 157.243 73.4618C136.946 77.4011 116.057 79.7309 94.9312 80.4113C74.6 81.296 54.0948 79.6865 34.2636 75.6495C15.7932 71.9274 -3.22577 60.5753 4.62308 45.3534C11.814 31.409 32.5131 21.9782 50.2319 16.1768C59.7057 13.1079 69.6041 10.7417 79.7824 9.11266C90.2633 7.39858 102.097 5.57513 112.928 6.10269C112.964 6.10064 112.999 6.09339 113.031 6.08135C113.063 6.06931 113.091 6.05272 113.114 6.03252C113.136 6.01233 113.153 5.98892 113.164 5.96364C113.174 5.93836 113.177 5.9117 113.173 5.88519C113.169 5.85867 113.158 5.83282 113.14 5.80911C113.123 5.7854 113.099 5.76429 113.07 5.74699C113.042 5.72969 113.009 5.71653 112.974 5.70828C112.939 5.70003 112.903 5.69683 112.866 5.69888Z" fill="#4C6E80"/>
</g>
<path d="M44.2012 47.3784C43.7212 47.3784 43.2945 47.2851 42.9212 47.0984C42.5612 46.9118 42.1678 46.6518 41.7412 46.3184C41.4212 46.0784 41.1612 45.9051 40.9612 45.7984C40.7745 45.6918 40.5812 45.6384 40.3812 45.6384C40.0212 45.6384 39.7278 45.7784 39.5012 46.0584C39.2745 46.3384 39.1545 46.7184 39.1412 47.1984H37.2012C37.2145 45.9718 37.4945 45.0318 38.0412 44.3784C38.5878 43.7118 39.3078 43.3784 40.2012 43.3784C40.6812 43.3784 41.0945 43.4718 41.4412 43.6584C41.7878 43.8318 42.1945 44.0918 42.6612 44.4384C42.9812 44.6784 43.2345 44.8518 43.4212 44.9584C43.6078 45.0651 43.8012 45.1184 44.0012 45.1184C44.3745 45.1184 44.6678 44.9784 44.8812 44.6984C45.0945 44.4184 45.2145 44.0384 45.2412 43.5584H47.2012C47.1745 44.7851 46.8878 45.7318 46.3412 46.3984C45.7945 47.0518 45.0812 47.3784 44.2012 47.3784ZM58.5659 38.2584C60.5259 38.2584 62.0525 38.7384 63.1459 39.6984C64.2525 40.6584 64.8059 42.0051 64.8059 43.7384C64.8059 45.3784 64.3059 46.6651 63.3059 47.5984C62.3192 48.5318 60.9325 48.9984 59.1459 48.9984C58.5592 48.9984 57.9859 48.9384 57.4259 48.8184C56.8792 48.6984 56.2859 48.4984 55.6459 48.2184V52.3984H52.4459V44.1184C52.4459 42.2384 52.9659 40.7918 54.0059 39.7784C55.0592 38.7651 56.5792 38.2584 58.5659 38.2584ZM58.5859 46.5584C59.5325 46.5584 60.2592 46.3184 60.7659 45.8384C61.2859 45.3584 61.5459 44.6784 61.5459 43.7984C61.5459 42.9051 61.2859 42.2118 60.7659 41.7184C60.2592 41.2251 59.5525 40.9784 58.6459 40.9784C57.6992 40.9784 56.9592 41.2518 56.4259 41.7984C55.9059 42.3451 55.6459 43.1118 55.6459 44.0984V45.6584C56.0459 45.9384 56.4992 46.1584 57.0059 46.3184C57.5259 46.4784 58.0525 46.5584 58.5859 46.5584ZM72.1237 50.0584C72.6837 50.0584 73.177 49.9784 73.6037 49.8184C74.0437 49.6451 74.4503 49.3784 74.8237 49.0184L76.4837 50.8184C75.4703 51.9784 73.9903 52.5584 72.0437 52.5584C70.8303 52.5584 69.757 52.3251 68.8237 51.8584C67.8903 51.3784 67.1703 50.7184 66.6637 49.8784C66.157 49.0384 65.9037 48.0851 65.9037 47.0184C65.9037 45.9651 66.1503 45.0184 66.6437 44.1784C67.1503 43.3251 67.837 42.6651 68.7037 42.1984C69.5837 41.7184 70.5703 41.4784 71.6637 41.4784C72.6903 41.4784 73.6237 41.6984 74.4637 42.1384C75.3037 42.5651 75.9703 43.1918 76.4637 44.0184C76.9703 44.8318 77.2237 45.7984 77.2237 46.9184L69.2637 48.4584C69.4903 48.9918 69.8437 49.3918 70.3237 49.6584C70.817 49.9251 71.417 50.0584 72.1237 50.0584ZM71.6637 43.8384C70.877 43.8384 70.237 44.0918 69.7437 44.5984C69.2503 45.1051 68.9903 45.8051 68.9637 46.6984L74.2037 45.6784C74.057 45.1184 73.757 44.6718 73.3037 44.3384C72.8503 44.0051 72.3037 43.8384 71.6637 43.8384ZM84.1209 48.3184H82.5009V52.3984H79.3809V41.6384H82.5009V45.8184H84.1809L87.1009 41.6384H90.4209L86.6609 46.7984L90.6809 52.3984H87.0009L84.1209 48.3184ZM100.433 46.7784C101.7 47.2051 102.333 48.0584 102.333 49.3384C102.333 50.3118 101.966 51.0651 101.233 51.5984C100.5 52.1318 99.4062 52.3984 97.9529 52.3984H92.2129V41.6384H97.7129C99.0596 41.6384 100.113 41.8851 100.873 42.3784C101.633 42.8584 102.013 43.5384 102.013 44.4184C102.013 44.9518 101.873 45.4251 101.593 45.8384C101.326 46.2384 100.94 46.5518 100.433 46.7784ZM95.0729 46.0584H97.4329C98.5262 46.0584 99.0729 45.6718 99.0729 44.8984C99.0729 44.1384 98.5262 43.7584 97.4329 43.7584H95.0729V46.0584ZM97.6929 50.2784C98.8396 50.2784 99.4129 49.8851 99.4129 49.0984C99.4129 48.6851 99.2796 48.3851 99.0129 48.1984C98.7462 47.9984 98.3262 47.8984 97.7529 47.8984H95.0729V50.2784H97.6929ZM115.274 41.6384V52.3984H112.294V51.1384C111.894 51.6051 111.401 51.9584 110.814 52.1984C110.241 52.4384 109.628 52.5584 108.974 52.5584C107.561 52.5584 106.434 52.1518 105.594 51.3384C104.768 50.5251 104.354 49.3184 104.354 47.7184V41.6384H107.474V47.2584C107.474 48.9918 108.201 49.8584 109.654 49.8584C110.414 49.8584 111.021 49.6184 111.474 49.1384C111.928 48.6451 112.154 47.9184 112.154 46.9584V41.6384H115.274ZM125.13 46.7984C125.77 46.9984 126.264 47.3051 126.61 47.7184C126.97 48.1318 127.15 48.6251 127.15 49.1984C127.15 49.8784 126.917 50.4784 126.45 50.9984C125.984 51.5051 125.344 51.8984 124.53 52.1784C123.717 52.4584 122.797 52.5984 121.77 52.5984C120.93 52.5984 120.104 52.5118 119.29 52.3384C118.477 52.1651 117.724 51.9051 117.03 51.5584L117.87 49.3784C119.004 49.9251 120.257 50.1984 121.63 50.1984C122.364 50.1984 122.937 50.0918 123.35 49.8784C123.777 49.6518 123.99 49.3384 123.99 48.9384C123.99 48.5918 123.844 48.3318 123.55 48.1584C123.257 47.9718 122.83 47.8784 122.27 47.8784H120.07V45.9384H121.99C122.537 45.9384 122.957 45.8518 123.25 45.6784C123.544 45.5051 123.69 45.2518 123.69 44.9184C123.69 44.5718 123.504 44.3051 123.13 44.1184C122.77 43.9318 122.25 43.8384 121.57 43.8384C120.53 43.8384 119.397 44.0851 118.17 44.5784L117.41 42.4184C118.904 41.7651 120.357 41.4384 121.77 41.4384C122.744 41.4384 123.61 41.5584 124.37 41.7984C125.144 42.0384 125.75 42.3918 126.19 42.8584C126.63 43.3118 126.85 43.8451 126.85 44.4584C126.85 44.9651 126.697 45.4251 126.39 45.8384C126.084 46.2384 125.664 46.5584 125.13 46.7984ZM140.04 41.6384V52.3984H137.06V51.1384C136.66 51.6051 136.167 51.9584 135.58 52.1984C135.007 52.4384 134.393 52.5584 133.74 52.5584C132.327 52.5584 131.2 52.1518 130.36 51.3384C129.533 50.5251 129.12 49.3184 129.12 47.7184V41.6384H132.24V47.2584C132.24 48.9918 132.967 49.8584 134.42 49.8584C135.18 49.8584 135.787 49.6184 136.24 49.1384C136.693 48.6451 136.92 47.9184 136.92 46.9584V41.6384H140.04ZM156.774 41.4784C158.12 41.4784 159.187 41.8784 159.974 42.6784C160.774 43.4651 161.174 44.6518 161.174 46.2384V52.3984H158.054V46.7184C158.054 45.8651 157.874 45.2318 157.514 44.8184C157.167 44.3918 156.667 44.1784 156.014 44.1784C155.28 44.1784 154.7 44.4184 154.274 44.8984C153.847 45.3651 153.634 46.0651 153.634 46.9984V52.3984H150.514V46.7184C150.514 45.0251 149.834 44.1784 148.474 44.1784C147.754 44.1784 147.18 44.4184 146.754 44.8984C146.327 45.3651 146.114 46.0651 146.114 46.9984V52.3984H142.994V41.6384H145.974V42.8784C146.374 42.4251 146.86 42.0784 147.434 41.8384C148.02 41.5984 148.66 41.4784 149.354 41.4784C150.114 41.4784 150.8 41.6318 151.414 41.9384C152.027 42.2318 152.52 42.6651 152.894 43.2384C153.334 42.6784 153.887 42.2451 154.554 41.9384C155.234 41.6318 155.974 41.4784 156.774 41.4784ZM168.773 52.6984C167.066 52.6984 165.786 52.3184 164.933 51.5584C164.079 50.7984 163.653 49.6784 163.653 48.1984V41.6384H166.753V45.2784C167.059 45.0651 167.459 44.8851 167.953 44.7384C168.459 44.5918 169.033 44.5184 169.673 44.5184C170.993 44.5184 172.026 44.8518 172.773 45.5184C173.519 46.1851 173.893 47.1584 173.893 48.4384C173.893 49.7984 173.433 50.8518 172.513 51.5984C171.593 52.3318 170.346 52.6984 168.773 52.6984ZM175.033 41.6384H178.153V52.3984H175.033V41.6384ZM168.773 50.4984C169.413 50.4984 169.899 50.3118 170.233 49.9384C170.566 49.5651 170.733 49.0784 170.733 48.4784C170.733 47.9184 170.559 47.4718 170.213 47.1384C169.879 46.7918 169.393 46.6184 168.753 46.6184C168.299 46.6184 167.899 46.7118 167.553 46.8984C167.219 47.0718 166.953 47.3118 166.753 47.6184V48.4984C166.753 49.1251 166.926 49.6184 167.273 49.9784C167.619 50.3251 168.119 50.4984 168.773 50.4984Z" fill="white"/>
<g clip-path="url(#clip1)">
<path d="M248.611 51.2005C251.906 51.5077 255.325 51.3233 258.567 52.0405C261.504 52.7797 264.356 53.8096 267.081 55.1149C272.541 57.6232 277.721 60.6848 282.54 64.2515C287.308 67.7274 291.803 71.5561 295.988 75.7054C300.483 80.1736 304.206 85.428 305.191 91.8116C305.41 93.1897 307.542 92.6234 307.312 91.2522C305.307 79.051 293.781 70.2173 284.39 63.3338C279.219 59.506 273.583 56.3363 267.612 53.8976C264.625 52.5801 261.491 51.6129 258.272 51.0154C255.086 50.5348 251.853 50.778 248.614 50.6212C248.237 50.5933 248.237 51.1631 248.611 51.2005Z" fill="#4C6E80"/>
<path d="M301.9 68.0717C302.939 72.1753 303.075 76.7687 303.794 80.97C304.163 82.9977 304.187 85.3434 304.838 87.3035C305.366 88.8835 306.586 90.4833 307.416 91.9205L308.811 90.521C304.331 88.1742 300.399 84.68 296.295 81.7359C294.084 80.1541 291.16 77.5741 288.179 77.8781C287.966 77.8796 287.76 77.958 287.599 78.0988C287.438 78.2396 287.334 78.4331 287.305 78.6433C287.277 78.8535 287.326 79.0661 287.443 79.2415C287.561 79.4169 287.739 79.5431 287.945 79.5967C295.563 82.0082 300.823 88.6479 307.793 92.2965C307.988 92.3978 308.21 92.4341 308.428 92.4001C308.646 92.3661 308.848 92.2637 309.005 92.1078C309.161 91.9519 309.264 91.7508 309.298 91.534C309.331 91.3171 309.294 91.096 309.192 90.9029C308.229 89.2341 307.004 87.5576 306.44 85.7058C305.82 83.6882 305.53 81.4798 305.037 79.3894C304.167 75.6075 303.801 71.5589 302.586 67.8732C302.55 67.7979 302.488 67.7377 302.412 67.7027C302.335 67.6678 302.249 67.6604 302.167 67.6816C302.085 67.7029 302.012 67.7515 301.962 67.8193C301.911 67.8872 301.886 67.97 301.889 68.0539L301.9 68.0717Z" fill="#4C6E80"/>
</g>
<defs>
<clipPath id="clip0">
<rect width="225.491" height="78.8691" fill="white" transform="translate(4.12695) rotate(3)"/>
</clipPath>
<clipPath id="clip1">
<rect width="66.2097" height="38.54" fill="white" transform="translate(281.375 31) rotate(60)"/>
</clipPath>
</defs>
</svg>
