<svg width="179" height="134" viewBox="0 0 179 134" fill="none" xmlns="http://www.w3.org/2000/svg">
<g clip-path="url(#clip0)">
<path d="M155.219 63.1072C155.665 60.3504 156.539 57.6033 156.637 54.7958C156.653 52.2328 156.412 49.6729 155.918 47.1544C155.017 42.1326 153.603 37.2132 151.699 32.4736C149.858 27.797 147.67 23.2625 145.155 18.9081C142.443 14.229 138.923 10.0015 133.898 7.75089C132.815 7.26005 133.73 5.64858 134.806 6.14765C144.384 10.5481 149.186 21.9523 152.842 31.1725C154.886 36.2581 156.292 41.5736 157.028 46.9971C157.476 49.7323 157.606 52.5082 157.415 55.2691C157.135 57.9769 156.252 60.5588 155.695 63.2368C155.638 63.5505 155.171 63.4209 155.219 63.1072Z" fill="#F2706D"/>
<path d="M152.663 15.8159C149.519 14.0382 145.782 12.8861 142.491 11.3474C140.907 10.5865 138.989 10.0351 137.52 9.05985C136.336 8.27138 135.283 6.91351 134.28 5.91092L135.723 5.08987C136.699 9.27597 138.731 13.2756 140.276 17.2902C141.105 19.4525 142.602 22.4222 141.722 24.7853C141.675 24.9588 141.567 25.1092 141.418 25.2083C141.269 25.3075 141.088 25.3488 140.91 25.3244C140.731 25.3001 140.567 25.2118 140.448 25.0761C140.33 24.9403 140.264 24.7663 140.263 24.5864C139.898 17.8257 135.568 12.0305 134.052 5.51789C134.01 5.33638 134.027 5.14661 134.101 4.97644C134.175 4.80627 134.302 4.66465 134.463 4.57235C134.624 4.48005 134.81 4.44194 134.995 4.4636C135.18 4.48526 135.354 4.56555 135.49 4.6927C136.654 5.85686 137.77 7.23558 139.168 8.11561C140.691 9.07864 142.44 9.81531 144.049 10.6919C146.965 12.2583 150.207 13.4748 152.971 15.3008C153.025 15.3477 153.061 15.4117 153.074 15.482C153.086 15.5523 153.074 15.6245 153.039 15.6866C153.005 15.7486 152.949 15.7966 152.883 15.8224C152.817 15.8483 152.744 15.8503 152.676 15.8283L152.663 15.8159Z" fill="#F2706D"/>
</g>
<path d="M67.6056 66.9995C60.8561 68.6481 53.8936 69.2004 47.1527 71.1125C41.066 72.8131 35.1561 75.0896 29.5036 77.9109C18.9533 83.2477 7.89169 90.9723 2.34385 101.722C-2.49667 111.07 0.349689 121.013 9.20408 126.749C14.2321 130.012 20.0356 131.057 25.805 132.239C32.7797 133.623 39.8923 134.194 46.9993 133.938C62.2152 133.448 77.3068 131.029 91.9104 126.74C104.847 122.959 118.329 117.869 128.99 109.515C137.427 102.946 145.037 92.0431 135.739 82.7123C127.72 74.6987 113.42 72.7526 102.708 71.4269C86.6097 69.3874 69.9662 70.6536 54.1323 73.9763C41.7327 76.5937 26.768 80.7747 20.1719 92.6719C19.5839 93.7172 21.0241 94.8899 21.8764 93.9806C29.7081 85.7631 38.3494 81.2931 49.3429 78.5737C61.5446 75.585 74.0712 74.1178 86.6353 74.2058C98.5662 74.2738 110.812 75.5485 122.232 79.1431C126.919 80.6218 132.007 82.7633 135.015 86.8678C139.958 93.6662 134.58 100.771 129.407 105.427C120.383 113.552 108.656 118.54 97.3219 122.525C84.8652 126.771 71.9891 129.677 58.9131 131.193C46.3362 132.848 33.5703 132.394 21.1435 129.851C9.57053 127.514 -2.59041 118.727 1.78139 105.461C5.78675 93.3093 18.3141 84.3864 29.1116 78.6757C34.8858 75.6504 40.9461 73.2024 47.2038 71.3674C53.6465 69.4469 60.9243 67.3734 67.6567 67.3394C67.6791 67.336 67.7006 67.3283 67.72 67.3167C67.7394 67.3051 67.7563 67.2897 67.7698 67.2716C67.7832 67.2534 67.793 67.2328 67.7984 67.2109C67.8039 67.189 67.805 67.1662 67.8016 67.1439C67.7982 67.1216 67.7905 67.1002 67.7788 67.0808C67.7672 67.0615 67.7518 67.0446 67.7336 67.0312C67.7154 67.0178 67.6947 67.0081 67.6728 67.0026C67.6508 66.9972 67.628 66.9961 67.6056 66.9995Z" fill="#F2706D"/>
<path d="M38.1599 105.16H39.1199C39.3972 104.744 39.6159 104.216 39.7759 103.576C39.9359 102.925 40.0159 102.157 40.0159 101.272V98.7438H46.0479V105.16H47.3279V109.24H45.1839V107H40.3039V109.24H38.1599V105.16ZM43.7599 105.16V100.584H42.1439V101.336C42.1439 102.168 42.0852 102.909 41.9679 103.56C41.8506 104.21 41.6852 104.744 41.4719 105.16H43.7599ZM48.6817 98.7438H50.9857V101.4L50.7937 103.832H50.8897L53.8817 98.7438H56.1057V107H53.8017V104.344L53.9937 101.912H53.8977L50.9057 107H48.6817V98.7438ZM61.8114 107.192C60.9474 107.192 60.1847 107.053 59.5234 106.776C58.8621 106.498 58.3554 106.125 58.0034 105.656L59.3634 104.392C59.6834 104.744 60.0354 105.005 60.4194 105.176C60.8034 105.346 61.2887 105.432 61.8754 105.432C62.3661 105.432 62.7394 105.346 62.9954 105.176C63.2514 105.005 63.3794 104.776 63.3794 104.488V104.392C63.3794 103.901 63.0807 103.656 62.4834 103.656H60.5474V102.088H62.2754C62.6167 102.088 62.8567 102.018 62.9954 101.88C63.1447 101.73 63.2194 101.533 63.2194 101.288V101.192C63.2194 100.946 63.0967 100.738 62.8514 100.568C62.6167 100.397 62.2541 100.312 61.7634 100.312C61.2834 100.312 60.8674 100.392 60.5154 100.552C60.1741 100.701 59.8487 100.936 59.5394 101.256L58.2274 100.04C58.6647 99.5704 59.1714 99.2078 59.7474 98.9518C60.3341 98.6851 61.0754 98.5518 61.9714 98.5518C62.5474 98.5518 63.0594 98.6104 63.5074 98.7278C63.9554 98.8344 64.3341 98.9891 64.6434 99.1918C64.9634 99.3944 65.2034 99.6344 65.3634 99.9118C65.5234 100.178 65.6034 100.472 65.6034 100.792C65.6034 101.304 65.4434 101.72 65.1234 102.04C64.8141 102.349 64.4034 102.552 63.8914 102.648V102.728C64.4354 102.813 64.8834 103.026 65.2354 103.368C65.5874 103.709 65.7634 104.152 65.7634 104.696C65.7634 105.442 65.4274 106.045 64.7554 106.504C64.0834 106.962 63.1021 107.192 61.8114 107.192ZM74.5732 107C74.0825 107 73.6878 106.877 73.3892 106.632C73.0905 106.376 72.9145 106.013 72.8612 105.544H72.7812C72.6318 106.088 72.3332 106.498 71.8852 106.776C71.4478 107.053 70.9092 107.192 70.2692 107.192C69.4692 107.192 68.8238 106.978 68.3332 106.552C67.8532 106.114 67.6132 105.506 67.6132 104.728C67.6132 103.864 67.9278 103.224 68.5572 102.808C69.1865 102.392 70.1092 102.184 71.3252 102.184H72.6532V101.768C72.6532 101.277 72.5358 100.909 72.3012 100.664C72.0772 100.408 71.6932 100.28 71.1492 100.28C70.6478 100.28 70.2425 100.376 69.9332 100.568C69.6238 100.76 69.3572 101.01 69.1332 101.32L67.8372 100.168C68.1145 99.6984 68.5465 99.3144 69.1332 99.0158C69.7305 98.7064 70.4932 98.5518 71.4212 98.5518C72.5518 98.5518 73.4318 98.8131 74.0612 99.3358C74.7012 99.8478 75.0212 100.626 75.0212 101.672V105.288H75.9332V107H74.5732ZM71.1652 105.64C71.5812 105.64 71.9332 105.538 72.2212 105.336C72.5092 105.133 72.6532 104.84 72.6532 104.456V103.464H71.3892C70.4185 103.464 69.9332 103.789 69.9332 104.44V104.76C69.9332 105.048 70.0452 105.266 70.2692 105.416C70.4932 105.565 70.7918 105.64 71.1652 105.64ZM77.4629 98.7438H79.7669V101.4L79.5749 103.832H79.6709L82.6629 98.7438H84.8869V107H82.5829V104.344L82.7749 101.912H82.6789L79.6869 107H77.4629V98.7438ZM81.2069 97.8798C80.5029 97.8798 79.9269 97.7251 79.4789 97.4158C79.0309 97.0958 78.6949 96.6424 78.4709 96.0558L78.1349 95.1758L79.9749 94.4878L80.4869 96.1998C80.5509 96.2318 80.6522 96.2584 80.7909 96.2798C80.9296 96.3011 81.0682 96.3118 81.2069 96.3118C81.3456 96.3118 81.4842 96.3011 81.6229 96.2798C81.7616 96.2584 81.8629 96.2318 81.9269 96.1998L82.4389 94.4878L84.2789 95.1758L83.9429 96.0558C83.7189 96.6424 83.3829 97.0958 82.9349 97.4158C82.4869 97.7251 81.9109 97.8798 81.2069 97.8798ZM87.0567 98.7438H89.4247V101.896H92.1127V98.7438H94.4807V107H92.1127V103.736H89.4247V107H87.0567V98.7438Z" fill="#476481"/>
<defs>
<clipPath id="clip0">
<rect width="56.5685" height="32.3249" fill="white" transform="matrix(-0.707107 -0.707107 -0.707107 0.707107 178.744 40.2556)"/>
</clipPath>
</defs>
</svg>
