<svg width="101" height="242" xmlns="http://www.w3.org/2000/svg">

 <g>
  <title>background</title>
  <rect fill="none" id="canvas_background" height="402" width="582" y="-1" x="-1"/>
 </g>
 <g>
  <title>Layer 1</title>
  <g stroke="null" id="svg_1" opacity="0.6">
   <path stroke="null" id="svg_2" fill="#4C6E80" d="m36.5,237c12.4264,0 22.5,-1.119 22.5,-2.5c0,-1.381 -10.0736,-2.5 -22.5,-2.5c-12.4264,0 -22.5,1.119 -22.5,2.5c0,1.381 10.0736,2.5 22.5,2.5z" opacity="0.25"/>
   <g id="svg_10">
    <path stroke="null" id="svg_3" fill="#A7CDEB" d="m40.7354,159.18l-9.2748,0c0.1172,-0.819 7.4979,-34.5204 -9.5285,-62.8617c-5.7406,-9.5121 -15.38634,-43.23323 -9.7629,-45.9621c6.7559,-3.33313 24.9539,17.3868 28.8591,34.5398c8.3375,37.5805 0,72.12 -0.2929,74.284z"/>
    <path stroke="null" id="svg_4" fill="#B9D7EF" d="m41.0278,157.737c0,-2.202 -4.9791,-39.2956 28.6247,-72.8413c9.5481,-9.5316 27.3361,-17.1919 30.9875,-10.6231c3.026,5.3408 -13.8048,29.6668 -25.2664,39.1984c-28.1757,23.3904 -28.6443,43.409 -28.6248,43.818l-5.721,0.448z"/>
    <path stroke="null" id="svg_5" fill="#D5E7F5" d="m27.653,126.8235c-5.7211,-9.5511 -21.36119,-21.0513 -26.80888,-15.0673c-3.90516,4.2103 6.40445,19.7064 17.26078,26.4701c15.2691,9.5316 11.8326,28.9257 11.4616,32.3957l9.6262,0.175c0.301,-15.441 -3.6936,-30.6628 -11.5397,-43.9735z"/>
    <path stroke="null" id="svg_6" fill="#2E4C77" d="m50.264,230.228l-21.3221,0c-1.858,-0.001 -3.6457,-0.71 -4.9988,-1.981c-1.3532,-1.271 -2.17,-3.009 -2.2843,-4.861l-4.8424,-71.418l45.5731,7.329l-4.8424,64.089c-0.1142,1.852 -0.9311,3.59 -2.2842,4.861c-1.3532,1.271 -3.1408,1.98 -4.9989,1.981z"/>
    <path stroke="null" id="svg_7" fill="#2E4C77" d="m74.7681,94.5446c7.6027,-7.9593 15.9817,-15.142 25.0125,-21.4412l-0.1757,-0.0389c-5.6832,3.9758 -11.1454,8.2574 -16.3626,12.8257c-0.4584,-2.0187 -0.4651,-4.1134 -0.0196,-6.1349c0.4456,-2.0215 1.3323,-3.9201 2.597,-5.5603c-1.3496,1.6836 -2.3173,3.6395 -2.8364,5.7326c-0.5191,2.0931 -0.5773,4.2737 -0.1706,6.3914l0.1367,0c-3.1632,2.8264 -5.9749,5.5552 -8.4937,8.2061c-3.2608,3.4111 -6.0335,6.6468 -8.4547,9.746c-0.8129,-5.8046 -0.2238,-11.7192 1.7183,-17.2504c-2.0574,5.6862 -2.7789,11.7681 -2.1088,17.7767c-3.5989,4.6701 -6.9427,9.5306 -10.0167,14.5605l-1.5621,2.495c-1.966,-4.1857 -2.6455,-8.8591 -1.9525,-13.43c-0.7224,4.7039 -0.1207,9.5156 1.7377,13.8978l-1.3277,1.9492c-3.2518,5.5094 -5.5738,11.5151 -6.8731,17.7767c-2.008,-2.2792 -3.0817,-5.2302 -3.0069,-8.2646c-0.1552,3.1944 0.8658,6.3351 2.8702,8.8299c-1.1032,4.7115 -1.9377,9.4821 -2.4993,14.2881l0.4882,0c0.8829,-8.327 2.6836,-16.5308 5.3696,-24.463c1.576,0.5552 3.2301,0.8579 4.9009,0.8967c1.4086,-0.0896 2.7627,-0.5762 3.9052,-1.4034c-2.7336,1.8127 -7.4979,0.4093 -8.5913,0c0.9533,-2.6094 2.1908,-5.1064 3.6903,-7.446c1.0349,-1.5398 2.0893,-3.2356 3.2218,-5.0289c1.4644,-2.339 3.1046,-4.9705 5.0376,-7.7968c3.1041,1.2517 6.4153,1.9128 9.7629,1.9492c1.8824,-0.06 3.745,-0.4017 5.5258,-1.0136c-6.6388,2.1246 -13.668,-0.7407 -15.0934,-1.3449c3.9197,-5.7705 8.2943,-11.2195 13.0822,-16.2953c3.4326,1.3468 7.0723,2.0919 10.7588,2.2026c2.0317,-0.0355 4.0311,-0.5145 5.8577,-1.4035c-5.682,2.7094 -14.41,-0.5262 -16.1283,-1.2085z"/>
    <path stroke="null" id="svg_8" fill="#2E4C77" d="m36.6923,105.4989c0.7224,-0.4678 6.3654,-4.3077 6.4435,-8.8494l-0.1562,0c0,4.0154 -5.311,7.6214 -6.424,8.3621c-2.0379,-8.8787 -4.5472,-17.643 -7.5174,-26.2557c0.2148,-0.117 5.8577,-3.3331 5.4086,-9.4731c0.4296,5.5162 -4.8033,8.6154 -5.5063,9.0248c-1.0739,-3.0213 -2.2259,-5.8476 -3.417,-8.7519l0,-0.2339c-3.6708,-8.4596 -7.9665,-15.59363 -12.7893,-19.16067l-0.1953,0c4.7838,3.50856 9.0404,10.66217 12.6527,19.10217c-1.8354,0.1169 -10.0362,0.3508 -13.2385,-4.0154c2.7532,3.723 8.3961,4.5222 11.5983,4.5222c0.8787,0 1.5621,0 1.9526,0c3.1009,7.5426 5.7097,15.2776 7.8103,23.1565c-1.5425,0.1754 -8.8061,0.6822 -13.5313,-3.6061c3.0385,2.7714 6.9945,4.326 11.1101,4.3662c0.7778,-0.0309 1.5533,-0.1025 2.3236,-0.2144c2.4446,8.8456 4.4323,17.8108 5.9553,26.86c-1.152,0.1169 -6.1701,0.4678 -8.8256,-3.4306c0.9038,1.2495 2.1011,2.2584 3.4867,2.9381c1.3856,0.6798 2.9172,1.0095 4.4603,0.9603l1.0348,0c0,0.3509 0.0977,0.6432 0.1172,0.8577c0.7225,6.7832 -0.371,33.6232 -0.3905,33.8962l0.4881,0c0,-0.273 1.113,-27.152 0.3905,-33.9547c-0.2733,-1.7348 -1.3668,-7.9528 -3.2412,-16.1004z"/>
    <path stroke="null" id="svg_9" fill="#2E4C77" d="m34.3695,155.496c-0.1172,-0.371 -1.7769,-5.8478 -3.9052,-11.2276c0.5858,-0.5457 3.1827,-3.1187 3.2023,-5.2043c0,1.7543 -2.5384,4.0348 -3.3585,4.7365c-1.0917,-2.9365 -2.534,-5.731 -4.2956,-8.323c-1.1911,-1.5399 -2.7727,-3.4111 -4.6081,-5.4578c1.6844,-2.5724 2.4672,-5.6296 2.2259,-8.6934c0.1419,2.9928 -0.7623,5.9418 -2.5579,8.3426c-2.3821,-2.612 -5.1743,-5.4578 -8.1617,-8.2452c0.1562,-0.5847 1.523,-5.984 -0.3124,-8.9273c1.7378,2.8069 0,8.2451 0,8.4595l0.2538,0.3509c-3.74125,-3.5042 -7.75679,-6.7045 -12.00835,-9.5706l0,0.117c5.77536,4.0443 11.11495,8.6757 15.93305,13.8198c-1.484,0.4678 -7.81033,2.3195 -10.91493,0.8966c1.06075,0.5151 2.21851,0.8007 3.39749,0.8382c2.65124,-0.1044 5.27724,-0.5566 7.81034,-1.345c2.9901,3.1016 5.8185,6.3546 8.4741,9.746l0.4101,0.5848c-1.0778,0.8789 -2.3367,1.5094 -3.6869,1.8463c-1.3501,0.337 -2.7581,0.3721 -4.1234,0.1029c0.707,0.2523 1.4408,0.4224 2.1869,0.5068c2.1088,-0.0217 4.1576,-0.7035 5.8577,-1.9492c2.5812,4.6342 4.6813,9.5196 6.2678,14.5795c-0.7293,0.299 -1.529,0.382 -2.3042,0.24c-0.7752,-0.141 -1.4935,-0.502 -2.0696,-1.039c0.3876,0.454 0.8743,0.813 1.4227,1.05c0.5484,0.236 1.1438,0.344 1.7405,0.315c0.4743,0.004 0.947,-0.055 1.4058,-0.176c0.7615,2.261 1.2301,3.899 1.2497,3.899l0.4686,-0.273z"/>
   </g>
  </g>
 </g>
</svg>