<svg width="100" height="99" viewBox="0 0 100 99" fill="none" xmlns="http://www.w3.org/2000/svg">
<path d="M29.1075 47.8884C23.7703 49.23 18.4075 51.8638 13.2616 56.9346C9.43576 60.6998 4.35235 66.0291 1.84661 75.3884C-3.98615 97.2683 17.8128 97.802 21.2433 97.5797C31.8901 96.8908 42.7908 94.1816 53.0569 83.5486C55.4679 81.0525 58.892 77.3187 60.0505 70.4791C61.2805 63.2405 58.78 58.2543 56.6264 56.0661C52.7148 52.1039 48.035 52.3634 43.8008 52.5261C36.7244 52.7965 29.645 55.3296 22.5834 57.8299C22.1822 57.9728 22.3008 59.5818 22.6975 59.4499C31.7683 56.4022 40.9961 53.1478 50.0228 54.7692C52.9281 55.2876 57.6412 56.0547 59.2752 63.2865C61.1975 71.7873 56.0473 78.3962 53.6544 81.1047C45.7174 90.086 36.892 93.7994 28.5617 95.2662C23.8107 96.287 19.0633 96.4522 14.352 95.7606C12.0288 95.3157 9.73524 94.3949 7.49126 93.0062C5.48009 91.8258 1.87172 89.1888 1.48 82.7778C1.01474 75.5508 4.72768 69.6194 6.67308 66.5507C9.01775 62.8983 11.4779 59.8603 14.016 57.4831C18.9261 52.9891 23.9852 50.1391 29.0711 49.0019C29.3364 48.9325 29.3765 47.8303 29.1075 47.8884Z" fill="#38B9C6"/>
<path d="M14.1763 83.2109L19.3123 68.8429H21.4403L16.3043 83.2109H14.1763ZM27.402 81.1949C25.9087 81.1949 24.8047 80.6883 24.09 79.6749C23.386 78.6616 23.034 77.2429 23.034 75.4189C23.034 73.5949 23.386 72.1763 24.09 71.1629C24.8047 70.1496 25.9087 69.6429 27.402 69.6429C28.8954 69.6429 29.994 70.1496 30.698 71.1629C31.4127 72.1763 31.77 73.5949 31.77 75.4189C31.77 77.2429 31.4127 78.6616 30.698 79.6749C29.994 80.6883 28.8954 81.1949 27.402 81.1949ZM27.402 79.3069C28.1167 79.3069 28.6127 79.0563 28.89 78.5549C29.178 78.0536 29.322 77.3549 29.322 76.4589V74.3789C29.322 73.4829 29.178 72.7843 28.89 72.2829C28.6127 71.7816 28.1167 71.5309 27.402 71.5309C26.6874 71.5309 26.186 71.7816 25.898 72.2829C25.6207 72.7843 25.482 73.4829 25.482 74.3789V76.4589C25.482 77.3549 25.6207 78.0536 25.898 78.5549C26.186 79.0563 26.6874 79.3069 27.402 79.3069ZM27.402 76.3629C27.0287 76.3629 26.7674 76.2883 26.618 76.1389C26.4794 75.9896 26.41 75.8083 26.41 75.5949V75.2429C26.41 75.0296 26.4794 74.8483 26.618 74.6989C26.7674 74.5496 27.0287 74.4749 27.402 74.4749C27.7754 74.4749 28.0314 74.5496 28.17 74.6989C28.3194 74.8483 28.394 75.0296 28.394 75.2429V75.5949C28.394 75.8083 28.3194 75.9896 28.17 76.1389C28.0314 76.2883 27.7754 76.3629 27.402 76.3629ZM33.6998 81.0029V79.0669H36.7078V71.5789H36.5638L34.2918 74.5549L32.7558 73.3549L35.4278 69.8349H39.1078V79.0669H41.4758V81.0029H33.6998Z" fill="#476481"/>
<g clip-path="url(#clip0)">
<path d="M94.2948 4.96192C87.9297 10.0529 81.4797 15.0975 75.4055 20.5404C72.5955 23.1658 69.9231 25.935 67.3987 28.8373C65.0758 31.4112 61.935 34.0463 60.5403 37.2577C60.4916 37.4276 60.4933 37.6088 60.5451 37.7792C60.597 37.9496 60.6967 38.1022 60.8324 38.2183C60.968 38.3345 61.1338 38.4093 61.3096 38.4338C61.4854 38.4583 61.6639 38.4314 61.8233 38.3564C64.8795 36.4815 67.0576 32.8541 69.4173 30.1769C71.894 27.2257 74.5383 24.4202 77.3373 21.7741C83.2504 16.4499 89.3812 11.377 95.4985 6.29868C96.3976 5.55049 95.1757 4.21264 94.2687 4.93286L94.2948 4.96192Z" fill="#38B9C6"/>
<path d="M93.5279 6.02969C87.7268 11.3056 79.8784 12.8297 73.0076 16.2361L73.7985 17.3832C78.9696 12.6746 86.2369 11.4456 91.8034 7.3105L90.2641 6.31111C88.8816 10.2489 86.85 13.9187 84.2529 17.1698C82.773 19.0197 81.368 20.9337 82.1119 23.4298C82.4821 24.6663 84.4458 24.2751 84.0665 23.038C83.236 20.3305 86.5436 17.6504 87.8468 15.5562C89.5896 12.8555 91.0194 9.96176 92.109 6.9301C92.431 5.98243 91.2659 5.41784 90.5697 5.9307C84.9901 10.0513 77.866 11.3529 72.874 16.3565C72.3418 16.8883 72.9418 17.9003 73.6601 17.5079C80.3861 13.7583 88.187 11.8647 93.7764 6.30576C93.8119 6.27384 93.833 6.22895 93.8352 6.18096C93.8373 6.13296 93.8203 6.08579 93.788 6.04982C93.7556 6.01385 93.7104 5.99204 93.6625 5.98917C93.6145 5.9863 93.5677 6.00262 93.5322 6.03453L93.5279 6.02969Z" fill="#38B9C6"/>
</g>
<defs>
<clipPath id="clip0">
<rect width="12.9929" height="48.5124" fill="white" transform="translate(91.1707) rotate(48.2102)"/>
</clipPath>
</defs>
</svg>
