<svg width="172" height="79" viewBox="0 0 172 79" fill="none" xmlns="http://www.w3.org/2000/svg">
<g clip-path="url(#clip0)">
<path d="M99.5979 23.2446C102.906 23.2121 106.268 22.6715 109.583 23.0573C112.598 23.4968 115.57 24.2379 118.455 25.2696C124.221 27.229 129.787 29.7744 135.068 32.8659C140.285 35.8715 145.281 39.2605 150.016 43.0046C155.103 47.0377 159.536 51.9426 161.416 58.2687C161.828 59.6338 163.861 58.8422 163.438 57.4853C159.725 45.4065 147.052 37.707 136.772 31.7498C131.106 28.4318 125.072 25.8248 118.809 23.9886C115.663 22.9719 112.42 22.3232 109.145 22.0556C105.92 21.9023 102.751 22.4827 99.518 22.6611C99.1407 22.672 99.2219 23.2458 99.5979 23.2446Z" fill="#0083C7"/>
<path d="M154.795 34.7035C156.405 38.7281 157.19 43.3396 158.497 47.4958C159.15 49.4994 159.506 51.859 160.429 53.7654C161.175 55.3017 162.611 56.7861 163.637 58.1473L164.821 56.5931C160.05 54.6948 155.658 51.5842 151.175 49.0453C148.76 47.6819 145.497 45.3872 142.585 46.0028C142.374 46.0264 142.181 46.1268 142.042 46.2852C141.903 46.4437 141.826 46.6494 141.828 46.864C141.829 47.0787 141.908 47.2877 142.05 47.4521C142.191 47.6165 142.386 47.7251 142.597 47.7577C150.488 49.3955 156.64 55.5359 164.064 58.4868C164.271 58.5685 164.496 58.582 164.708 58.5251C164.919 58.4683 165.105 58.3442 165.238 58.1709C165.371 57.9977 165.444 57.7846 165.447 57.5627C165.449 57.3408 165.381 57.122 165.253 56.9382C164.062 55.3577 162.611 53.7964 161.79 51.9902C160.89 50.0228 160.29 47.829 159.505 45.7751C158.108 42.0569 157.172 38.0178 155.447 34.4324C155.4 34.3603 155.33 34.3061 155.25 34.2788C155.169 34.2516 155.082 34.2531 155.004 34.283C154.926 34.3129 154.861 34.3694 154.821 34.4429C154.78 34.5165 154.766 34.6026 154.782 34.6867L154.795 34.7035Z" fill="#0083C7"/>
</g>
<path d="M24.1677 37.1309L29.3037 22.7629H31.4317L26.2957 37.1309H24.1677ZM37.3935 35.1149C35.9002 35.1149 34.7962 34.6082 34.0815 33.5949C33.3775 32.5815 33.0255 31.1629 33.0255 29.3389C33.0255 27.5149 33.3775 26.0962 34.0815 25.0829C34.7962 24.0695 35.9002 23.5629 37.3935 23.5629C38.8868 23.5629 39.9855 24.0695 40.6895 25.0829C41.4042 26.0962 41.7615 27.5149 41.7615 29.3389C41.7615 31.1629 41.4042 32.5815 40.6895 33.5949C39.9855 34.6082 38.8868 35.1149 37.3935 35.1149ZM37.3935 33.2269C38.1082 33.2269 38.6042 32.9762 38.8815 32.4749C39.1695 31.9735 39.3135 31.2749 39.3135 30.3789V28.2989C39.3135 27.4029 39.1695 26.7042 38.8815 26.2029C38.6042 25.7015 38.1082 25.4509 37.3935 25.4509C36.6788 25.4509 36.1775 25.7015 35.8895 26.2029C35.6122 26.7042 35.4735 27.4029 35.4735 28.2989V30.3789C35.4735 31.2749 35.6122 31.9735 35.8895 32.4749C36.1775 32.9762 36.6788 33.2269 37.3935 33.2269ZM37.3935 30.2829C37.0202 30.2829 36.7588 30.2082 36.6095 30.0589C36.4708 29.9095 36.4015 29.7282 36.4015 29.5149V29.1629C36.4015 28.9495 36.4708 28.7682 36.6095 28.6189C36.7588 28.4695 37.0202 28.3949 37.3935 28.3949C37.7668 28.3949 38.0228 28.4695 38.1615 28.6189C38.3108 28.7682 38.3855 28.9495 38.3855 29.1629V29.5149C38.3855 29.7282 38.3108 29.9095 38.1615 30.0589C38.0228 30.2082 37.7668 30.2829 37.3935 30.2829ZM51.0672 34.9229H43.0352V32.7309L46.5552 29.8029C47.1632 29.2802 47.6006 28.8269 47.8672 28.4429C48.1339 28.0589 48.2672 27.6535 48.2672 27.2269V27.0669C48.2672 26.5975 48.1286 26.2455 47.8512 26.0109C47.5739 25.7655 47.2006 25.6429 46.7312 25.6429C46.1979 25.6429 45.7872 25.7975 45.4992 26.1069C45.2112 26.4162 45.0086 26.7842 44.8912 27.2109L42.7952 26.4109C42.9232 26.0269 43.0992 25.6642 43.3232 25.3229C43.5472 24.9709 43.8299 24.6669 44.1712 24.4109C44.5232 24.1549 44.9286 23.9522 45.3872 23.8029C45.8459 23.6429 46.3739 23.5629 46.9712 23.5629C47.5792 23.5629 48.1232 23.6482 48.6032 23.8189C49.0832 23.9895 49.4886 24.2242 49.8192 24.5229C50.1499 24.8215 50.4006 25.1789 50.5712 25.5949C50.7419 26.0002 50.8272 26.4429 50.8272 26.9229C50.8272 27.3922 50.7472 27.8242 50.5872 28.2189C50.4379 28.6029 50.2246 28.9655 49.9472 29.3069C49.6806 29.6482 49.3606 29.9789 48.9872 30.2989C48.6246 30.6189 48.2352 30.9389 47.8192 31.2589L45.6912 32.9069H51.0672V34.9229Z" fill="#476481"/>
<path d="M40.6123 6.00203C36.7983 6.90799 32.9049 7.0724 29.0862 8.1553C25.6391 9.11575 22.2698 10.4677 19.0242 12.1926C12.9639 15.4597 6.53397 20.3132 3.06379 27.359C0.0371672 33.4852 1.26608 40.238 5.98776 44.3472C8.66877 46.6846 11.8604 47.5574 15.0282 48.5204C18.8593 49.6555 22.7962 50.2486 26.7594 50.2876C35.2426 50.4092 43.7254 49.2336 52.0035 46.7892C59.3358 44.6358 67.0184 41.6208 73.2479 36.3336C78.1763 32.1776 82.7993 25.0903 77.9593 18.557C73.7836 12.9449 65.8969 11.2165 59.9842 10.0104C51.1005 8.16604 41.7953 8.5227 32.8672 10.2826C25.8751 11.6711 17.4 14.0324 13.3057 21.8166C12.9413 22.5002 13.7007 23.3294 14.2073 22.7447C18.8578 17.4651 23.8251 14.7228 30.0385 13.2243C36.9339 11.5809 43.9556 10.9676 50.9428 11.3984C57.5784 11.7971 64.3463 13.0145 70.5715 15.7634C73.1266 16.8938 75.8808 18.4807 77.4081 21.3226C79.9155 26.0285 76.6702 30.6342 73.6261 33.6045C68.3151 38.7862 61.6129 41.7848 55.1646 44.1224C48.0826 46.6011 40.8151 48.1689 33.4858 48.7992C26.4294 49.5369 19.343 48.8547 12.5198 46.7809C6.16435 44.871 -0.288155 38.6178 2.61746 29.8501C5.27947 21.8183 12.5677 16.2045 18.7788 12.694C22.0993 10.8358 25.5584 9.37327 29.1055 8.3278C32.7586 7.23037 36.8817 6.05507 40.6286 6.23152C40.6412 6.22994 40.6535 6.2254 40.6647 6.21818C40.6759 6.21095 40.6858 6.20116 40.694 6.18939C40.7021 6.17762 40.7082 6.16408 40.7121 6.14955C40.7159 6.13502 40.7173 6.11979 40.7162 6.10472C40.7152 6.08965 40.7116 6.07504 40.7058 6.06173C40.7 6.04841 40.6921 6.03665 40.6824 6.02711C40.6728 6.01758 40.6616 6.01045 40.6496 6.00615C40.6376 6.00184 40.6249 6.00044 40.6123 6.00203Z" fill="#0083C7"/>
<defs>
<clipPath id="clip0">
<rect width="68.8225" height="39" fill="white" transform="translate(130.786) rotate(53.3375)"/>
</clipPath>
</defs>
</svg>
