<svg width="165" height="40" viewBox="0 0 165 40" fill="none" xmlns="http://www.w3.org/2000/svg">
<path d="M134.97 0H147.345V3.2175C144.045 7.1775 142.313 12.4575 142.313 19.2225H137.363C137.445 13.365 139.508 8.25 143.468 3.795H134.64L134.97 0Z" fill="white"/>
<path d="M19.3875 29.73H22.77C23.595 29.73 24.3375 29.895 24.915 30.225C25.575 30.555 25.9875 30.9675 26.4 31.545C26.73 32.1225 26.895 32.7825 26.895 33.525C26.895 34.2675 26.73 34.9275 26.4 35.505C26.07 36.0825 25.575 36.495 24.915 36.825C24.255 37.155 23.595 37.32 22.77 37.32H19.3875V29.73ZM22.6875 35.835C23.43 35.835 24.0075 35.5875 24.5025 35.175C24.9975 34.7625 25.1625 34.185 25.1625 33.4425C25.1625 32.7 24.915 32.1225 24.5025 31.71C24.09 31.2975 23.43 31.05 22.6875 31.05H21.12V35.67H22.6875V35.835Z" fill="#DE9F62"/>
<path d="M29.205 30.3898C29.04 30.2248 28.875 29.9773 28.875 29.7298C28.875 29.4823 28.9575 29.2348 29.205 29.0698C29.37 28.9048 29.6175 28.8223 29.9475 28.8223C30.2775 28.8223 30.525 28.9048 30.69 29.0698C30.855 29.2348 31.02 29.4823 31.02 29.7298C31.02 29.9773 30.9375 30.2248 30.69 30.3898C30.525 30.5548 30.2775 30.6373 29.9475 30.6373C29.7 30.6373 29.4525 30.5548 29.205 30.3898ZM29.1225 31.4623H30.7725V37.2373H29.1225V31.4623Z" fill="#DE9F62"/>
<path d="M39.27 31.4624V36.2474C39.27 37.3199 39.0225 38.0624 38.445 38.6399C37.8675 39.2174 37.125 39.3824 36.0525 39.3824C35.475 39.3824 34.98 39.2999 34.485 39.2174C33.99 39.0524 33.5775 38.8874 33.2475 38.6399L33.9075 37.4024C34.155 37.5674 34.485 37.7324 34.815 37.8974C35.145 37.9799 35.5575 38.0624 35.97 38.0624C36.5475 38.0624 36.96 37.8974 37.29 37.6499C37.5375 37.4024 37.7025 36.9899 37.7025 36.4949V36.2474C37.29 36.7424 36.63 36.9899 35.8875 36.9899C35.3925 36.9899 34.8975 36.9074 34.4025 36.6599C33.99 36.4124 33.5775 36.0824 33.33 35.6699C33.0825 35.2574 32.9175 34.7624 32.9175 34.1849C32.9175 33.6074 33.0825 33.1124 33.33 32.6999C33.5775 32.2874 33.9075 31.9574 34.4025 31.7099C34.815 31.4624 35.31 31.3799 35.8875 31.3799C36.7125 31.3799 37.3725 31.6274 37.785 32.2049V31.4624H39.27ZM37.2075 35.1749C37.455 34.9274 37.62 34.5974 37.62 34.1849C37.62 33.7724 37.455 33.4424 37.2075 33.1949C36.96 32.9474 36.5475 32.7824 36.135 32.7824C35.7225 32.7824 35.31 32.9474 35.0625 33.1949C34.815 33.4424 34.65 33.7724 34.65 34.1849C34.65 34.5974 34.815 34.9274 35.0625 35.1749C35.31 35.4224 35.7225 35.5874 36.135 35.5874C36.5475 35.5874 36.96 35.4224 37.2075 35.1749Z" fill="#DE9F62"/>
<path d="M41.91 30.3898C41.745 30.2248 41.58 29.9773 41.58 29.7298C41.58 29.4823 41.6625 29.2348 41.91 29.0698C42.075 28.9048 42.3225 28.8223 42.6525 28.8223C42.9825 28.8223 43.23 28.9048 43.395 29.0698C43.56 29.2348 43.725 29.4823 43.725 29.7298C43.725 29.9773 43.6425 30.2248 43.395 30.3898C43.23 30.5548 42.9825 30.6373 42.6525 30.6373C42.405 30.6373 42.1575 30.5548 41.91 30.3898ZM41.8275 31.4623H43.4775V37.2373H41.8275V31.4623Z" fill="#DE9F62"/>
<path d="M49.5825 36.9901C49.4175 37.0726 49.2525 37.2376 49.005 37.2376C48.7575 37.3201 48.51 37.3201 48.2625 37.3201C47.6025 37.3201 47.025 37.1551 46.695 36.8251C46.2825 36.4951 46.1175 36.0001 46.1175 35.2576V30.2251H47.7675V31.6276H49.17V32.9476H47.7675V35.2576C47.7675 35.5051 47.85 35.6701 47.9325 35.8351C48.015 36.0001 48.2625 36.0001 48.4275 36.0001C48.675 36.0001 48.9225 35.9176 49.0875 35.7526L49.5825 36.9901Z" fill="#DE9F62"/>
<path d="M57.1725 31.4624V37.2374H55.605V36.5774C55.1925 37.0724 54.615 37.3199 53.79 37.3199C53.2125 37.3199 52.7175 37.2374 52.305 36.9899C51.8925 36.7424 51.48 36.4124 51.2325 35.9174C50.985 35.5049 50.82 34.9274 50.82 34.3499C50.82 33.7724 50.985 33.1949 51.2325 32.7824C51.48 32.3699 51.81 31.9574 52.305 31.7099C52.7175 31.4624 53.2125 31.3799 53.79 31.3799C54.5325 31.3799 55.11 31.6274 55.5225 32.0399V31.4624H57.1725ZM55.11 35.5049C55.3575 35.1749 55.5225 34.8449 55.5225 34.3499C55.5225 33.8549 55.3575 33.4424 55.11 33.1949C54.8625 32.8649 54.45 32.7824 54.0375 32.7824C53.625 32.7824 53.295 32.9474 52.965 33.1949C52.7175 33.5249 52.5525 33.8549 52.5525 34.3499C52.5525 34.8449 52.7175 35.2574 52.965 35.5049C53.2125 35.8349 53.625 35.9174 54.0375 35.9174C54.45 35.9174 54.78 35.8349 55.11 35.5049Z" fill="#DE9F62"/>
<path d="M60.225 36.8249C59.895 36.4949 59.6475 35.9999 59.6475 35.3399V29.3174H61.2975V35.2574C61.2975 35.5049 61.38 35.6699 61.4625 35.8349C61.545 35.9999 61.875 35.9999 62.04 35.9999C62.1225 35.9999 62.205 35.9999 62.2875 35.9999C62.37 35.9999 62.4525 35.9174 62.535 35.9174L62.6175 37.2374C62.37 37.3199 62.04 37.4024 61.71 37.4024C61.1325 37.3199 60.6375 37.1549 60.225 36.8249Z" fill="#DE9F62"/>
<path d="M64.2675 33.5249H67.32V34.8449H64.2675V33.5249Z" fill="#DE9F62"/>
<path d="M75.57 31.4624V37.2374H74.0025V36.5774C73.59 37.0724 73.0125 37.3199 72.1875 37.3199C71.61 37.3199 71.115 37.2374 70.7025 36.9899C70.29 36.7424 69.8775 36.4124 69.63 35.9174C69.3825 35.5049 69.2175 34.9274 69.2175 34.3499C69.2175 33.7724 69.3825 33.1949 69.63 32.7824C69.8775 32.3699 70.2075 31.9574 70.7025 31.7099C71.115 31.4624 71.61 31.3799 72.1875 31.3799C72.93 31.3799 73.5075 31.6274 73.92 32.0399V31.4624H75.57ZM73.5075 35.5049C73.755 35.1749 73.92 34.8449 73.92 34.3499C73.92 33.8549 73.755 33.4424 73.5075 33.1949C73.26 32.8649 72.8475 32.7824 72.435 32.7824C72.0225 32.7824 71.6925 32.9474 71.3625 33.1949C71.115 33.5249 70.95 33.8549 70.95 34.3499C70.95 34.8449 71.115 35.2574 71.3625 35.5049C71.61 35.8349 72.0225 35.9174 72.435 35.9174C72.8475 35.9174 73.1775 35.8349 73.5075 35.5049Z" fill="#DE9F62"/>
<path d="M82.7475 32.8649H79.7775V37.2374H78.1275V31.4624H82.7475V32.8649Z" fill="#DE9F62"/>
<path d="M88.0275 35.8348C88.275 35.7523 88.44 35.5873 88.6875 35.4223L89.595 36.4123C89.0175 37.0723 88.275 37.3198 87.2025 37.3198C86.5425 37.3198 85.965 37.1548 85.47 36.9073C84.975 36.6598 84.5625 36.3298 84.315 35.8348C84.0675 35.4223 83.9025 34.8448 83.9025 34.2673C83.9025 33.6898 84.0675 33.1948 84.315 32.6998C84.5625 32.2873 84.975 31.8748 85.3875 31.6273C85.8825 31.3798 86.3775 31.2148 86.955 31.2148C87.5325 31.2148 88.0275 31.2973 88.44 31.5448C88.8525 31.7923 89.265 32.1223 89.5125 32.5348C89.76 32.9473 89.925 33.5248 89.925 34.1023L85.635 34.9273C85.7175 35.1748 85.965 35.4223 86.2125 35.5873C86.46 35.7523 86.79 35.8348 87.2025 35.8348C87.5325 35.9998 87.78 35.9173 88.0275 35.8348ZM85.965 33.0298C85.7175 33.2773 85.5525 33.6898 85.5525 34.1848L88.3575 33.6073C88.275 33.2773 88.11 33.0298 87.8625 32.8648C87.615 32.6998 87.3675 32.6173 86.955 32.6173C86.5425 32.6173 86.2125 32.7823 85.965 33.0298Z" fill="#DE9F62"/>
<path d="M92.1525 31.4624H93.8025V33.6899H96.2775V31.4624H97.9275V37.2374H96.2775V35.0924H93.8025V37.2374H92.1525V31.4624Z" fill="#DE9F62"/>
<path d="M109.643 32.0396C110.055 32.4521 110.303 33.1121 110.303 33.9371V37.2371H108.653V34.1846C108.653 33.6896 108.57 33.3596 108.405 33.1946C108.24 33.0296 107.91 32.8646 107.58 32.8646C107.168 32.8646 106.838 33.0296 106.673 33.2771C106.508 33.5246 106.343 33.9371 106.343 34.4321V37.3196H104.693V34.2671C104.693 33.3596 104.363 32.9471 103.62 32.9471C103.208 32.9471 102.96 33.1121 102.713 33.3596C102.465 33.6071 102.383 34.0196 102.383 34.5146V37.4021H100.733V31.6271H102.3V32.2871C102.548 32.0396 102.795 31.8746 103.125 31.7096C103.455 31.5446 103.785 31.5446 104.115 31.5446C104.528 31.5446 104.858 31.6271 105.188 31.7921C105.518 31.9571 105.765 32.2046 106.013 32.5346C106.26 32.2046 106.508 32.0396 106.92 31.8746C107.25 31.7096 107.663 31.6271 108.075 31.6271C108.653 31.3796 109.23 31.6271 109.643 32.0396Z" fill="#DE9F62"/>
<path d="M113.85 36.9073C113.355 36.6598 112.943 36.3298 112.695 35.8348C112.448 35.4223 112.283 34.8448 112.283 34.2673C112.283 33.6898 112.448 33.1948 112.695 32.6998C112.943 32.2873 113.355 31.8748 113.85 31.6273C114.345 31.3798 114.922 31.2148 115.5 31.2148C116.077 31.2148 116.655 31.3798 117.067 31.6273C117.48 31.8748 117.81 32.2048 118.058 32.6998L116.737 33.3598C116.407 32.8648 115.995 32.5348 115.417 32.5348C115.005 32.5348 114.593 32.6998 114.345 32.9473C114.098 33.1948 113.933 33.6073 113.933 34.1023C113.933 34.5973 114.098 35.0098 114.345 35.2573C114.593 35.5048 115.005 35.6698 115.417 35.6698C115.995 35.6698 116.407 35.4223 116.737 34.8448L118.058 35.5873C117.81 36.0823 117.48 36.4123 117.067 36.6598C116.572 36.9073 116.077 37.0723 115.5 37.0723C114.84 37.3198 114.345 37.2373 113.85 36.9073Z" fill="#DE9F62"/>
<path d="M129.195 32.0396C129.607 32.4521 129.855 33.1121 129.855 33.9371V37.2371H128.205V34.1846C128.205 33.6896 128.122 33.3596 127.957 33.1946C127.792 33.0296 127.462 32.8646 127.132 32.8646C126.72 32.8646 126.39 33.0296 126.225 33.2771C126.06 33.5246 125.895 33.9371 125.895 34.4321V37.3196H124.245V34.2671C124.245 33.3596 123.915 32.9471 123.172 32.9471C122.76 32.9471 122.512 33.1121 122.265 33.3596C122.017 33.6071 121.935 34.0196 121.935 34.5146V37.4021H120.285V31.6271H121.852V32.2871C122.1 32.0396 122.347 31.8746 122.677 31.7096C123.007 31.5446 123.337 31.5446 123.667 31.5446C124.08 31.5446 124.41 31.6271 124.74 31.7921C125.07 31.9571 125.317 32.2046 125.565 32.5346C125.812 32.2046 126.06 32.0396 126.472 31.8746C126.802 31.7096 127.215 31.6271 127.627 31.6271C128.205 31.3796 128.782 31.6271 129.195 32.0396Z" fill="#DE9F62"/>
<path d="M137.692 35.5874C137.692 36.0824 137.527 36.4949 137.115 36.8249C136.702 37.0724 136.125 37.2374 135.382 37.2374H132.33V31.4624H135.3C136.042 31.4624 136.62 31.6274 137.032 31.8749C137.445 32.1224 137.61 32.5349 137.61 32.9474C137.61 33.1949 137.527 33.5249 137.362 33.6899C137.197 33.9374 137.032 34.1024 136.702 34.1849C137.362 34.4324 137.692 34.9274 137.692 35.5874ZM133.815 33.8549H135.052C135.63 33.8549 135.96 33.6074 135.96 33.1949C135.96 32.7824 135.63 32.6174 135.052 32.6174H133.815V33.8549ZM136.125 35.5049C136.125 35.2574 136.042 35.0924 135.877 35.0099C135.712 34.9274 135.547 34.8449 135.217 34.8449H133.815V36.0824H135.217C135.795 36.0824 136.125 35.9174 136.125 35.5049Z" fill="#DE9F62"/>
<path d="M140.992 36.9073C140.497 36.6598 140.167 36.3298 139.837 35.8348C139.59 35.4223 139.425 34.8448 139.425 34.2673C139.425 33.6898 139.59 33.1948 139.837 32.6998C140.085 32.2873 140.497 31.8748 140.992 31.6273C141.487 31.3798 141.982 31.2148 142.642 31.2148C143.22 31.2148 143.797 31.3798 144.292 31.6273C144.787 31.8748 145.117 32.2048 145.447 32.6998C145.695 33.1123 145.86 33.6898 145.86 34.2673C145.86 34.8448 145.695 35.3398 145.447 35.8348C145.2 36.2473 144.787 36.6598 144.292 36.9073C143.797 37.1548 143.302 37.3198 142.642 37.3198C141.982 37.3198 141.487 37.2373 140.992 36.9073ZM143.715 35.5048C143.962 35.1748 144.127 34.8448 144.127 34.3498C144.127 33.8548 143.962 33.4423 143.715 33.1948C143.467 32.8648 143.055 32.7823 142.642 32.7823C142.23 32.7823 141.9 32.9473 141.57 33.1948C141.322 33.5248 141.157 33.8548 141.157 34.3498C141.157 34.8448 141.322 35.2573 141.57 35.5048C141.817 35.8348 142.23 35.9173 142.642 35.9173C143.055 35.9173 143.385 35.8348 143.715 35.5048Z" fill="#DE9F62"/>
<path d="M21.8625 17.6551C20.3775 16.8301 19.2225 15.7576 18.3975 14.3551C17.5725 12.9526 17.16 11.3851 17.16 9.65262C17.16 7.92012 17.5725 6.27012 18.3975 4.95012C19.2225 3.54762 20.3775 2.47512 21.8625 1.65012C23.3475 0.825117 24.9975 0.495117 26.8125 0.495117C28.38 0.495117 29.7825 0.742616 31.02 1.32012C32.2575 1.89762 33.33 2.64012 34.155 3.63012L31.515 6.10512C30.2775 4.70262 28.7925 4.04262 27.06 4.04262C25.9875 4.04262 24.9975 4.29012 24.09 4.78512C23.265 5.28012 22.5225 5.94012 22.0275 6.84762C21.5325 7.67262 21.285 8.66262 21.285 9.81762C21.285 10.8901 21.5325 11.8801 22.0275 12.7876C22.5225 13.6126 23.1825 14.3551 24.09 14.8501C24.915 15.3451 25.905 15.5926 27.06 15.5926C28.875 15.5926 30.36 14.8501 31.515 13.4476L34.155 15.9226C33.33 16.9951 32.2575 17.7376 31.02 18.3151C29.7825 18.8926 28.38 19.1401 26.8125 19.1401C24.915 18.8101 23.3475 18.3976 21.8625 17.6551Z" fill="white"/>
<path d="M76.725 4.86766V16.2527C76.725 18.7277 76.065 20.6252 74.8275 21.8627C73.59 23.1002 71.6925 23.6777 69.3 23.6777C67.98 23.6777 66.825 23.5127 65.67 23.1827C64.515 22.8527 63.525 22.3577 62.7825 21.7802L64.35 18.8927C64.9275 19.3877 65.67 19.7177 66.495 20.0477C67.32 20.2952 68.145 20.4602 69.0525 20.4602C70.3725 20.4602 71.3625 20.1302 71.94 19.5527C72.5175 18.9752 72.8475 17.9852 72.8475 16.7477V16.2527C72.3525 16.7477 71.775 17.1602 71.0325 17.4077C70.3725 17.6552 69.63 17.8202 68.805 17.8202C66.99 17.8202 65.5875 17.3252 64.515 16.2527C63.4425 15.2627 62.9475 13.6952 62.9475 11.6327V4.78516H66.9075V11.0552C66.9075 13.2827 67.815 14.3552 69.7125 14.3552C70.7025 14.3552 71.445 14.0252 72.0225 13.4477C72.6 12.7877 72.8475 11.8802 72.8475 10.7252V4.78516H76.725V4.86766Z" fill="white"/>
<path d="M94.4625 4.86762V16.2526C94.4625 18.7276 93.8025 20.6251 92.4825 21.8626C91.1625 23.1001 89.265 23.6776 86.79 23.6776C85.47 23.6776 84.2325 23.5126 82.995 23.1826C81.84 22.8526 80.85 22.3576 80.025 21.7801L81.5925 18.8926C82.17 19.3876 82.9125 19.7176 83.82 20.0476C84.7275 20.2951 85.5525 20.4601 86.46 20.4601C87.8625 20.4601 88.8525 20.1301 89.5125 19.5526C90.1725 18.8926 90.5025 17.9851 90.5025 16.7476V16.1701C89.43 17.3251 88.0275 17.9026 86.2125 17.9026C84.975 17.9026 83.82 17.6551 82.7475 17.0776C81.675 16.5001 80.85 15.6751 80.2725 14.6851C79.695 13.6951 79.365 12.5401 79.365 11.2201C79.365 9.90012 79.695 8.74512 80.2725 7.75512C80.85 6.76512 81.675 5.94012 82.7475 5.44512C83.82 4.86762 84.975 4.62012 86.2125 4.62012C88.1925 4.62012 89.6775 5.28012 90.75 6.60012V4.86762H94.4625ZM89.595 13.6951C90.255 13.0351 90.585 12.2926 90.585 11.3026C90.585 10.3126 90.255 9.48762 89.595 8.91012C88.935 8.25012 88.0275 8.00262 87.0375 8.00262C85.965 8.00262 85.14 8.33262 84.48 8.91012C83.82 9.57012 83.49 10.3126 83.49 11.3026C83.49 12.2926 83.82 13.1176 84.48 13.6951C85.14 14.3551 86.0475 14.6026 87.0375 14.6026C88.0275 14.6026 88.935 14.2726 89.595 13.6951Z" fill="white"/>
<path d="M127.71 4.86719V18.5622H124.162V14.6847H121.275L118.717 18.5622H114.51L117.645 14.1072C116.655 13.6947 115.995 13.1997 115.5 12.4572C115.005 11.7147 114.675 10.8897 114.675 9.89969C114.675 8.24969 115.252 7.01219 116.407 6.18719C117.562 5.27969 119.13 4.86719 121.192 4.86719H127.71ZM119.377 8.49719C118.965 8.82719 118.717 9.32219 118.717 9.98218C118.717 10.6422 118.965 11.1372 119.377 11.4672C119.79 11.7972 120.45 11.9622 121.275 11.9622H124.245V8.08469H121.275C120.45 8.08469 119.79 8.24969 119.377 8.49719Z" fill="white"/>
<path d="M40.425 4.86719H36.465V18.5622H40.425V4.86719Z" fill="white"/>
<path d="M49.0875 6.84762C48.5925 6.10512 48.015 5.52762 47.19 5.19762C46.4475 4.78512 45.54 4.62012 44.55 4.62012C43.6425 4.62012 42.8175 4.78512 42.1575 5.11512C42.075 5.11512 41.9925 5.19762 41.9925 5.19762V8.49762C42.405 8.25012 42.9 8.08512 43.4775 8.08512C45.21 8.08512 46.035 9.15762 46.035 11.3026V18.5626H49.995V11.7151C49.995 11.5501 49.995 8.41512 49.0875 6.84762Z" fill="white"/>
<path d="M57.6675 6.10512C56.6775 5.11512 55.275 4.62012 53.625 4.62012C52.7175 4.62012 51.8925 4.78512 51.15 5.11512V8.49762C51.5625 8.25012 52.0575 8.08512 52.7175 8.08512C53.5425 8.08512 54.2025 8.33262 54.615 8.91012C55.0275 9.40512 55.275 10.2301 55.275 11.3026V18.5626H59.235V10.7251C59.235 8.66262 58.6575 7.17762 57.6675 6.10512Z" fill="white"/>
<path d="M106.342 14.7677C105.847 15.0977 105.352 15.2627 104.61 15.2627C102.795 15.2627 101.805 14.1902 101.805 11.9627V4.78516H97.845V12.5402C97.845 14.6027 98.34 16.0877 99.4125 17.1602C100.485 18.2327 101.887 18.7277 103.702 18.7277C104.527 18.7277 105.352 18.5627 106.095 18.2327C106.177 18.2327 106.26 18.1502 106.342 18.1502V14.7677Z" fill="white"/>
<path d="M111.787 4.86719H107.827V18.5622H111.787V4.86719Z" fill="white"/>
<path d="M164.753 12.1274C164.753 12.1274 164.753 12.0449 164.835 12.0449C164.918 11.8799 164.918 11.7149 165 11.6324C165 11.4674 165 11.3849 165 11.2199C165 11.1374 165 11.1374 165 11.0549C165 10.7249 164.835 10.3949 164.588 10.0649C164.423 9.81743 164.175 9.65242 163.928 9.56992L156.585 3.71242C155.76 3.05242 154.605 3.21743 153.945 4.04243C153.285 4.86743 153.45 6.02242 154.275 6.68242L160.133 11.3024L154.358 16.0049C153.533 16.6649 153.45 17.9024 154.11 18.6449C154.77 19.4699 156.008 19.5524 156.75 18.8924L164.01 12.9524C164.258 12.8699 164.423 12.7049 164.67 12.4574C164.67 12.3749 164.753 12.2924 164.753 12.1274Z" fill="#E9A95A"/>
<path d="M4.95 11.2199L10.89 6.68242C11.715 6.02242 11.88 4.86743 11.22 4.04243C10.56 3.21743 9.405 3.05242 8.58 3.71242L1.0725 9.40493C0.825 9.48743 0.5775 9.65242 0.4125 9.89992C0.165 10.1474 0.0825 10.5599 0 10.8899C0 10.9724 0 10.9724 0 11.0549C0 11.2199 0 11.3024 0 11.4674C0 11.6324 0.0825 11.7974 0.0825 11.9624C0.0825 11.9624 0.0825 12.0449 0.165 12.0449C0.2475 12.1274 0.2475 12.2924 0.33 12.3749C0.495 12.6224 0.7425 12.7874 0.9075 12.8699L8.085 18.9749C8.91 19.6349 10.065 19.5524 10.725 18.8099C11.385 17.9849 11.3025 16.8299 10.56 16.1699L4.95 11.2199Z" fill="#E9A95A"/>
</svg>
