<svg width="650" height="442" viewBox="0 0 650 442" fill="none" xmlns="http://www.w3.org/2000/svg">
<path d="M407.418 53.4939V355.005H557.633V4.32275L407.418 53.4939Z" fill="#368DBC" fill-opacity="0.5"/>
<rect x="90.7773" y="92.939" width="130.763" height="261.526" fill="#368DBC" fill-opacity="0.5"/>
<path d="M259.364 47.5503H351.222V354.465H259.364V47.5503Z" fill="#368DBC" fill-opacity="0.5"/>
<rect x="104.826" y="114.553" width="23.7751" height="34.5819" fill="white"/>
<rect x="269.09" y="72.4058" width="17.291" height="41.066" fill="white"/>
<rect x="144.812" y="114.553" width="23.7751" height="34.5819" fill="white"/>
<rect x="297.188" y="72.4058" width="17.291" height="41.066" fill="white"/>
<rect x="184.797" y="114.553" width="23.7751" height="34.5819" fill="white"/>
<rect x="424.709" y="85.374" width="27.0171" height="34.5819" fill="white"/>
<rect x="470.098" y="85.374" width="25.9364" height="34.5819" fill="white"/>
<rect x="514.406" y="85.374" width="27.0171" height="34.5819" fill="white"/>
<rect x="424.709" y="137.247" width="27.0171" height="34.5819" fill="white"/>
<rect x="470.098" y="137.247" width="25.9364" height="34.5819" fill="white"/>
<rect x="514.406" y="137.247" width="27.0171" height="34.5819" fill="white"/>
<rect x="424.709" y="189.12" width="27.0171" height="34.5819" fill="white"/>
<rect x="470.098" y="189.12" width="25.9364" height="34.5819" fill="white"/>
<rect x="514.406" y="189.12" width="27.0171" height="34.5819" fill="white"/>
<rect x="424.709" y="240.993" width="27.0171" height="34.5819" fill="white"/>
<rect x="470.098" y="240.993" width="25.9364" height="34.5819" fill="white"/>
<rect x="514.406" y="240.993" width="27.0171" height="34.5819" fill="white"/>
<rect x="325.286" y="72.4058" width="17.291" height="41.066" fill="white"/>
<rect x="104.826" y="165.345" width="23.7751" height="34.5819" fill="white"/>
<rect x="269.09" y="132.924" width="17.291" height="39.9853" fill="white"/>
<rect x="144.812" y="165.345" width="23.7751" height="34.5819" fill="white"/>
<rect x="297.188" y="132.924" width="17.291" height="39.9853" fill="white"/>
<rect x="184.797" y="165.345" width="23.7751" height="34.5819" fill="white"/>
<rect x="325.286" y="132.924" width="17.291" height="39.9853" fill="white"/>
<rect x="104.826" y="216.137" width="23.7751" height="34.5819" fill="white"/>
<rect x="144.812" y="216.137" width="23.7751" height="34.5819" fill="white"/>
<rect x="297.188" y="192.362" width="17.291" height="39.9853" fill="white"/>
<rect x="184.797" y="216.137" width="23.7751" height="34.5819" fill="white"/>
<rect x="325.286" y="192.362" width="17.291" height="39.9853" fill="white"/>
<rect x="104.826" y="261.526" width="23.7751" height="34.5819" fill="white"/>
<rect x="269.09" y="245.315" width="17.291" height="41.066" fill="white"/>
<rect x="144.812" y="261.526" width="23.7751" height="34.5819" fill="white"/>
<rect x="297.188" y="245.315" width="17.291" height="41.066" fill="white"/>
<rect x="184.797" y="261.526" width="23.7751" height="34.5819" fill="white"/>
<rect x="325.286" y="245.315" width="17.291" height="41.066" fill="white"/>
<ellipse cx="319" cy="404.5" rx="251" ry="23.5" fill="#153546" fill-opacity="0.3"/>
<path d="M96.8508 289.033C96.8674 289.019 96.8868 289.009 96.9076 289.003C96.8966 289.056 96.8874 289.111 96.8765 289.164L96.7812 289.146C96.7894 289.101 96.8142 289.06 96.8508 289.033Z" fill="#DFDAF7"/>
<path d="M128.207 378.769H92.9351C93.0354 378.653 93.1303 378.536 93.2252 378.419C95.8217 375.191 95.9767 372.015 95.3837 369.517C95.1748 368.634 94.8689 367.777 94.4714 366.962C94.4714 366.962 124.151 364.776 128.207 378.769Z" fill="#85D2DA"/>
<path d="M131.804 378.77H128.207C124.151 364.777 94.4623 366.966 94.4623 366.966C94.0486 366.103 93.5361 365.292 92.9351 364.547H131.8C137.686 372.146 131.804 378.77 131.804 378.77Z" fill="#38B9C6" fill-opacity="0.6"/>
<path d="M170.306 367.585C171.174 370.955 171.035 375.655 167.289 381.24H91.0044V378.77H131.804C131.804 378.77 137.686 372.137 131.804 364.538H91.0044V361.872H167.289C167.289 361.872 169.373 363.965 170.306 367.585Z" fill="#38B9C6"/>
<path d="M172.575 386.321C171.269 388.996 170.156 393.532 174.101 398.125H138.83C142.886 384.132 172.575 386.321 172.575 386.321Z" fill="#EDEBFC"/>
<path d="M172.575 386.322C172.575 386.322 142.886 384.132 138.83 398.125H135.236C135.236 398.125 129.353 391.492 135.236 383.893H174.101C173.501 384.638 172.989 385.45 172.575 386.312V386.322Z" fill="#D8CBEE"/>
<path d="M96.3634 389.005C96.4379 388.27 96.571 387.543 96.7611 386.829C96.9993 385.936 97.3245 385.069 97.7319 384.24C98.2477 383.144 98.9242 382.132 99.739 381.236H176.035V383.902H135.236C129.353 391.492 135.236 398.134 135.236 398.134H176.035V400.601H99.7481C99.728 400.572 99.7098 400.542 99.6915 400.513C98.6214 398.942 97.7626 397.237 97.137 395.443C96.4174 393.378 96.1535 391.182 96.3634 389.005Z" fill="#005D92"/>
<path d="M559.465 60.2141C559.355 60.1587 559.239 60.1135 559.121 60.0791C559.237 60.1284 559.352 60.174 559.465 60.2141Z" fill="#392D5E"/>
<path d="M113.61 100.464V100.497L113.63 100.51L113.61 100.464Z" fill="#F2BD98"/>
<path d="M194.557 214.25C194.557 214.25 194.557 214.259 194.557 214.262L194.648 214.341C194.636 214.328 194.603 214.297 194.557 214.25Z" fill="#F2BD98"/>
<path d="M417.927 70.8316L417.964 70.8632C417.964 70.8446 417.964 70.8242 417.964 70.8057C417.952 70.8156 417.94 70.8243 417.927 70.8316Z" fill="#392D5E"/>
<path d="M425.773 64.9429L425.775 64.9447L425.773 64.9429Z" fill="#392D5E"/>
<path d="M427.779 70.8862L427.716 70.9419L427.779 70.8862Z" fill="#F2BD98"/>
<path d="M427.716 70.9404C427.548 71.0072 427.394 71.1029 427.26 71.2232C427.424 71.1511 427.578 71.0558 427.716 70.9404Z" fill="#F2BD98"/>
<path d="M417.964 70.8626L417.928 70.8315C417.884 70.7968 417.829 70.7547 417.765 70.709C417.847 70.7821 417.917 70.837 417.966 70.8754C417.966 70.8699 417.964 70.8663 417.964 70.8626Z" fill="#F2BD98"/>
<path d="M417.965 70.8751L418.055 70.941C418.055 70.941 418.022 70.9099 417.963 70.8623C417.963 70.866 417.965 70.8696 417.965 70.8751Z" fill="#F2BD98"/>
<path d="M511.426 153.865C510.995 153.591 510.552 153.318 510.084 153.042L511.426 153.865Z" fill="#A196C7"/>
<path d="M493.174 144.125C493.174 144.135 493.174 144.144 493.174 144.153C494.149 144.192 495.125 144.118 496.082 143.93C495.126 144.127 494.148 144.193 493.174 144.125Z" fill="#A196C7"/>
<path d="M496.568 143.812L496.352 143.868C496.487 143.835 496.568 143.812 496.568 143.812Z" fill="#E5A1BB"/>
<path d="M476.752 152.524L476.787 152.506L476.752 152.524Z" fill="#E5A1BB"/>
<path d="M337.701 392.359L340.31 392.492H390.696L393.424 392.359L416.845 392.492V269.54C416.845 269.54 417.59 264.92 412.088 264.92L229.806 264.931C229.806 264.931 225.346 264.484 225.346 269.391V387.442C225.346 387.442 224.602 392.498 229.806 392.498H301.88L305.585 392.365L337.701 392.359ZM235.579 377.972V274.425H406.731V326.198V382.942H235.579V377.972Z" fill="#364766"/>
<path d="M406.736 377.972H235.584V382.944H406.736V377.972ZM315.735 381.849C315.46 381.849 315.191 381.768 314.962 381.615C314.733 381.462 314.554 381.244 314.449 380.99C314.344 380.736 314.316 380.456 314.37 380.186C314.424 379.916 314.556 379.668 314.751 379.473C314.946 379.278 315.194 379.146 315.464 379.092C315.734 379.038 316.014 379.066 316.268 379.171C316.523 379.276 316.74 379.455 316.893 379.684C317.046 379.913 317.128 380.182 317.128 380.457C317.128 380.827 316.981 381.181 316.72 381.442C316.459 381.703 316.105 381.849 315.735 381.849ZM321.131 381.849C320.855 381.85 320.586 381.768 320.357 381.616C320.128 381.463 319.949 381.246 319.843 380.991C319.738 380.737 319.71 380.457 319.763 380.187C319.817 379.917 319.949 379.668 320.144 379.474C320.339 379.279 320.587 379.146 320.857 379.092C321.127 379.038 321.407 379.066 321.661 379.171C321.916 379.276 322.133 379.455 322.286 379.684C322.44 379.913 322.521 380.182 322.521 380.457C322.522 380.825 322.376 381.178 322.117 381.439C321.858 381.7 321.506 381.848 321.138 381.849H321.131ZM326.362 381.849C326.087 381.849 325.818 381.768 325.589 381.615C325.36 381.462 325.181 381.244 325.076 380.99C324.971 380.736 324.943 380.456 324.997 380.186C325.05 379.916 325.183 379.668 325.378 379.473C325.572 379.278 325.82 379.146 326.091 379.092C326.361 379.038 326.641 379.066 326.895 379.171C327.149 379.276 327.367 379.455 327.52 379.684C327.673 379.913 327.754 380.182 327.754 380.457C327.754 380.827 327.608 381.181 327.347 381.442C327.085 381.703 326.731 381.849 326.362 381.849Z" fill="#0083C7"/>
<path d="M315.735 379.065C315.46 379.065 315.191 379.147 314.962 379.3C314.733 379.453 314.555 379.67 314.449 379.924C314.344 380.179 314.316 380.459 314.37 380.729C314.424 380.999 314.556 381.247 314.751 381.441C314.946 381.636 315.194 381.769 315.464 381.822C315.734 381.876 316.014 381.849 316.268 381.743C316.523 381.638 316.74 381.459 316.893 381.23C317.046 381.002 317.128 380.732 317.128 380.457C317.127 380.088 316.98 379.734 316.719 379.473C316.458 379.212 316.105 379.065 315.735 379.065Z" fill="#514782"/>
<path opacity="0.95" d="M315.735 379.065C315.46 379.065 315.191 379.147 314.962 379.3C314.733 379.453 314.555 379.67 314.449 379.924C314.344 380.179 314.316 380.459 314.37 380.729C314.424 380.999 314.556 381.247 314.751 381.441C314.946 381.636 315.194 381.769 315.464 381.822C315.734 381.876 316.014 381.849 316.268 381.743C316.523 381.638 316.74 381.459 316.893 381.23C317.046 381.002 317.128 380.732 317.128 380.457C317.127 380.088 316.98 379.734 316.719 379.473C316.458 379.212 316.105 379.065 315.735 379.065Z" fill="#EDEBFC"/>
<path d="M321.139 379.065C320.863 379.065 320.594 379.146 320.365 379.299C320.136 379.451 319.957 379.669 319.851 379.923C319.745 380.177 319.718 380.457 319.771 380.728C319.825 380.998 319.957 381.246 320.152 381.441C320.346 381.636 320.594 381.768 320.865 381.822C321.135 381.876 321.415 381.849 321.669 381.743C321.924 381.638 322.141 381.46 322.294 381.231C322.447 381.002 322.529 380.733 322.529 380.457C322.529 380.088 322.383 379.734 322.122 379.473C321.861 379.212 321.508 379.065 321.139 379.065Z" fill="#514782"/>
<path opacity="0.83" d="M321.139 379.065C320.863 379.065 320.594 379.146 320.365 379.299C320.136 379.451 319.957 379.669 319.851 379.923C319.745 380.177 319.718 380.457 319.771 380.728C319.825 380.998 319.957 381.246 320.152 381.441C320.346 381.636 320.594 381.768 320.865 381.822C321.135 381.876 321.415 381.849 321.669 381.743C321.924 381.638 322.141 381.46 322.294 381.231C322.447 381.002 322.529 380.733 322.529 380.457C322.529 380.088 322.383 379.734 322.122 379.473C321.861 379.212 321.508 379.065 321.139 379.065Z" fill="#EDEBFC"/>
<path d="M326.362 379.065C326.087 379.065 325.818 379.147 325.589 379.3C325.36 379.453 325.182 379.67 325.076 379.924C324.971 380.179 324.943 380.459 324.997 380.729C325.051 380.999 325.183 381.247 325.378 381.441C325.573 381.636 325.821 381.769 326.091 381.822C326.361 381.876 326.641 381.849 326.895 381.743C327.15 381.638 327.367 381.459 327.52 381.23C327.673 381.002 327.755 380.732 327.755 380.457C327.754 380.088 327.607 379.734 327.346 379.473C327.085 379.212 326.732 379.065 326.362 379.065Z" fill="#514782"/>
<path opacity="0.7" d="M326.362 379.065C326.087 379.065 325.818 379.147 325.589 379.3C325.36 379.453 325.182 379.67 325.076 379.924C324.971 380.179 324.943 380.459 324.997 380.729C325.051 380.999 325.183 381.247 325.378 381.441C325.573 381.636 325.821 381.769 326.091 381.822C326.361 381.876 326.641 381.849 326.895 381.743C327.15 381.638 327.367 381.459 327.52 381.23C327.673 381.002 327.755 380.732 327.755 380.457C327.754 380.088 327.607 379.734 327.346 379.473C327.085 379.212 326.732 379.065 326.362 379.065Z" fill="#EDEBFC"/>
<path d="M406.736 274.425H235.579V377.972H406.736V274.425Z" fill="#CEECF8"/>
<path d="M316.969 280.168H240.828V372.458H316.969V280.168Z" fill="white"/>
<path d="M323.682 317.62L322.394 316.328L347.459 291.388L371.07 313.36L399.64 280.891L401.01 282.097L371.199 315.974L347.501 293.921L323.682 317.62Z" fill="#0083C7"/>
<path d="M388.06 288.239L395.761 294.229L401.363 280.322L388.06 288.239Z" fill="#0083C7"/>
<path d="M347.479 295.444C348.988 295.444 350.211 294.195 350.211 292.654C350.211 291.113 348.988 289.864 347.479 289.864C345.971 289.864 344.748 291.113 344.748 292.654C344.748 294.195 345.971 295.444 347.479 295.444Z" fill="white"/>
<path d="M347.479 295.9C346.834 295.912 346.201 295.731 345.66 295.382C345.118 295.032 344.693 294.529 344.438 293.937C344.184 293.345 344.111 292.691 344.23 292.057C344.348 291.424 344.653 290.84 345.104 290.38C345.556 289.921 346.134 289.606 346.765 289.475C347.397 289.345 348.052 289.406 348.649 289.65C349.245 289.894 349.756 290.31 350.115 290.845C350.474 291.38 350.666 292.01 350.666 292.654C350.673 293.507 350.341 294.328 349.744 294.936C349.146 295.545 348.332 295.891 347.479 295.9ZM347.479 290.322C347.015 290.311 346.558 290.438 346.167 290.687C345.775 290.936 345.467 291.297 345.281 291.722C345.096 292.147 345.041 292.619 345.125 293.075C345.208 293.532 345.426 293.953 345.75 294.285C346.074 294.617 346.49 294.845 346.944 294.94C347.399 295.035 347.871 294.992 348.301 294.817C348.731 294.641 349.098 294.342 349.357 293.957C349.616 293.572 349.754 293.118 349.754 292.654C349.761 292.043 349.525 291.455 349.099 291.018C348.672 290.581 348.09 290.33 347.479 290.322Z" fill="#0083C7"/>
<path d="M371.127 316.839C372.635 316.839 373.858 315.59 373.858 314.05C373.858 312.509 372.635 311.26 371.127 311.26C369.618 311.26 368.395 312.509 368.395 314.05C368.395 315.59 369.618 316.839 371.127 316.839Z" fill="#FBB157"/>
<path d="M371.134 317.296C370.49 317.307 369.856 317.127 369.315 316.777C368.774 316.428 368.348 315.925 368.094 315.333C367.839 314.741 367.766 314.086 367.885 313.453C368.004 312.819 368.308 312.236 368.76 311.776C369.211 311.316 369.789 311.001 370.421 310.871C371.052 310.741 371.707 310.802 372.304 311.046C372.9 311.289 373.411 311.705 373.77 312.24C374.13 312.775 374.322 313.405 374.322 314.05C374.328 314.902 373.997 315.723 373.399 316.332C372.801 316.94 371.987 317.287 371.134 317.296ZM371.134 311.718C370.67 311.706 370.213 311.833 369.822 312.083C369.43 312.332 369.122 312.692 368.937 313.118C368.751 313.543 368.696 314.014 368.78 314.471C368.863 314.927 369.081 315.348 369.405 315.68C369.729 316.013 370.145 316.241 370.6 316.335C371.054 316.43 371.526 316.387 371.956 316.212C372.386 316.037 372.754 315.738 373.012 315.352C373.271 314.967 373.41 314.514 373.409 314.05C373.416 313.439 373.18 312.85 372.754 312.413C372.327 311.976 371.745 311.726 371.134 311.718Z" fill="#0083C7"/>
<path d="M312.355 285.051H245.443V289.089H312.355V285.051Z" fill="#435D88"/>
<path d="M312.355 294.28H245.443V298.318H312.355V294.28Z" fill="#435D88"/>
<path d="M312.357 303.509H278.9V307.547H312.357V303.509Z" fill="#435D88"/>
<path d="M312.357 312.648H278.9V316.686H312.357V312.648Z" fill="#435D88"/>
<path d="M312.357 321.877H278.9V325.915H312.357V321.877Z" fill="#435D88"/>
<path d="M278.9 335.66H245.443V339.698H278.9V335.66Z" fill="#435D88"/>
<path d="M278.9 344.889H245.443V348.926H278.9V344.889Z" fill="#435D88"/>
<path d="M278.9 354.117H245.443V358.155H278.9V354.117Z" fill="#435D88"/>
<path d="M312.355 363.328H245.443V367.366H312.355V363.328Z" fill="#435D88"/>
<path d="M273.061 316.874C273.05 315.608 272.866 314.35 272.513 313.135L259.263 317.029L273.061 316.874Z" fill="#0083C7"/>
<path d="M266.975 305.58C265.185 304.372 263.137 303.602 260.995 303.329C258.853 303.057 256.678 303.29 254.642 304.011C252.607 304.732 250.769 305.92 249.276 307.479C247.783 309.039 246.676 310.927 246.045 312.992C245.414 315.057 245.276 317.241 245.641 319.368C246.007 321.496 246.867 323.509 248.151 325.244C249.436 326.98 251.109 328.39 253.037 329.362C254.965 330.333 257.094 330.84 259.254 330.839C260.114 330.839 260.973 330.759 261.819 330.6L259.254 317.029L266.975 305.58Z" fill="#435D88"/>
<path d="M272.505 313.135C271.595 310.051 269.64 307.38 266.976 305.58L259.254 317.029L272.505 313.135Z" fill="#005D92"/>
<path d="M273.063 317.029C273.063 316.978 273.063 316.925 273.063 316.874L259.255 317.029L261.821 330.6C264.982 330.002 267.835 328.318 269.887 325.84C271.94 323.363 273.063 320.246 273.063 317.029Z" fill="#FBB157"/>
<path d="M401.237 321.588H323.038V372.471H401.237V321.588Z" fill="white"/>
<path d="M396.969 327.809C396.969 326.896 396.349 326.167 395.584 326.167H359.254C358.489 326.167 357.869 326.896 357.869 327.809V342.602C357.869 343.515 358.489 344.245 359.254 344.245H395.584C396.349 344.245 396.969 343.515 396.969 342.602V327.809Z" fill="#435D88"/>
<path d="M370.221 348.985H329.167C328.402 348.985 327.782 349.744 327.782 350.682V365.875C327.782 366.813 328.402 367.572 329.167 367.572H365.477C366.242 367.572 366.862 366.813 366.862 365.875V352.942L370.221 348.985Z" fill="#435D88"/>
<path d="M388.893 353.013C389.981 353.013 390.864 352.131 390.864 351.043C390.864 349.954 389.981 349.072 388.893 349.072C387.805 349.072 386.922 349.954 386.922 351.043C386.922 352.131 387.805 353.013 388.893 353.013Z" fill="#0083C7"/>
<path opacity="0.7" d="M382.249 353.013C383.338 353.013 384.22 352.131 384.22 351.043C384.22 349.954 383.338 349.072 382.249 349.072C381.161 349.072 380.279 349.954 380.279 351.043C380.279 352.131 381.161 353.013 382.249 353.013Z" fill="#0083C7"/>
<path opacity="0.5" d="M375.674 353.013C376.762 353.013 377.644 352.131 377.644 351.043C377.644 349.954 376.762 349.072 375.674 349.072C374.585 349.072 373.703 349.954 373.703 351.043C373.703 352.131 374.585 353.013 375.674 353.013Z" fill="#0083C7"/>
<path d="M393.057 329.433H361.909V331.741H393.057V329.433Z" fill="white"/>
<path d="M393.219 334.051H362.071V336.359H393.219V334.051Z" fill="white"/>
<path opacity="0.5" d="M312.354 330.839H284.751V360.308H312.354V330.839Z" fill="#CEECF8"/>
<path d="M303.638 357.353C299.954 357.353 298.894 353.045 297.87 348.879C296.982 345.27 296.143 341.86 293.833 341.86C291.594 341.86 290.696 345.593 289.829 349.202C288.866 353.202 287.871 357.338 284.755 357.353V356.076C286.87 356.067 287.745 352.426 288.587 348.903C289.57 344.812 290.594 340.583 293.833 340.583C297.144 340.583 298.144 344.646 299.109 348.575C300.022 352.262 300.954 356.076 303.638 356.076C306.01 356.076 307.151 351.728 308.158 347.894C309.189 343.971 310.079 340.583 312.355 340.583V341.86C311.065 341.86 310.176 345.238 309.393 348.219C308.267 352.499 306.992 357.353 303.638 357.353Z" fill="#0083C7"/>
<path d="M296.847 342.878C298.774 338.96 300.438 335.579 303.868 335.579C307.366 335.579 308.596 338.928 310.019 342.805C310.682 344.609 311.379 346.503 312.355 348.178V346.171C311.807 344.989 311.344 343.728 310.895 342.478C309.415 338.451 308.019 334.649 303.877 334.649C299.872 334.649 298.006 338.446 296.031 342.464C293.641 347.324 291.171 352.349 284.764 352.349V353.262C291.733 353.276 294.449 347.751 296.847 342.878Z" fill="white"/>
<path d="M420.007 400.555H222.184C216.345 400.555 211.617 396.641 211.617 391.812V391.722H430.575V391.812C430.575 396.641 425.844 400.555 420.007 400.555Z" fill="#E6E6E6"/>
<path d="M509.205 313.337L493.56 397.423L495.714 397.824L511.36 313.738L509.205 313.337Z" fill="#85D2DA"/>
<path d="M511.358 313.738L495.712 397.825L497.867 398.226L513.513 314.139L511.358 313.738Z" fill="#38B9C6"/>
<path d="M509.229 313.358L510.071 314.81L511.383 313.754L512.226 315.21L513.536 314.161L513.088 307.886L511.903 307.665L509.229 313.358Z" fill="#F2BD98"/>
<path d="M511.904 307.665L513.088 307.886L512.918 305.505L511.904 307.665Z" fill="#38B9C6"/>
<path d="M480.413 329.499L478.26 329.906L489.742 390.557L491.895 390.149L480.413 329.499Z" fill="#FFC885"/>
<path d="M482.566 329.092L480.413 329.5L491.895 390.151L494.048 389.743L482.566 329.092Z" fill="#FBB157"/>
<path d="M478.27 329.883L479.582 330.929L480.421 329.471L481.735 330.522L482.574 329.068L479.881 323.382L478.697 323.607L478.27 329.883Z" fill="#F2BD98"/>
<path d="M478.697 323.607L479.881 323.382L478.859 321.226L478.697 323.607Z" fill="#FBB157"/>
<path d="M467.302 321.491L465.234 322.216L489.888 392.457L491.956 391.731L467.302 321.491Z" fill="#F9C0B2"/>
<path d="M469.37 320.766L467.303 321.492L491.956 391.733L494.024 391.007L469.37 320.766Z" fill="#F79C8C"/>
<path d="M465.227 322.251L466.682 323.088L467.293 321.519L468.749 322.362L469.362 320.798L465.848 315.582L464.711 315.98L465.227 322.251Z" fill="#F2BD98"/>
<path d="M464.711 315.98L465.848 315.582L464.514 313.601L464.711 315.98Z" fill="#F79C8C"/>
<path d="M511.495 391.58V344.817H505.461V384.958C505.461 384.958 505.552 394.158 497.702 395.302V344.817H467.174V391.58C467.174 391.58 466.098 400.632 473.425 400.632H505.245C512.573 400.632 511.495 391.58 511.495 391.58Z" fill="#005984"/>
<path d="M497.702 344.817V395.318C505.548 394.174 505.461 384.975 505.461 384.975V344.834H497.702V344.817Z" fill="#0B6B99"/>
<path d="M467.539 378.065H463.613C463.275 378.065 462.94 377.998 462.627 377.869C462.315 377.739 462.031 377.55 461.792 377.31C461.553 377.071 461.363 376.787 461.234 376.475C461.104 376.162 461.038 375.827 461.038 375.489V364.64C461.038 364.302 461.104 363.967 461.234 363.654C461.363 363.341 461.553 363.057 461.792 362.818C462.031 362.579 462.315 362.389 462.627 362.26C462.94 362.13 463.275 362.063 463.613 362.063H467.539V354.083H461.217C461.217 354.083 454.537 353.22 454.537 362.917V377.207C454.537 386.905 461.217 386.044 461.217 386.044H467.539V378.065Z" fill="#005984"/>
<rect x="269.09" y="192.362" width="17.291" height="39.9853" fill="white"/>
</svg>
