<svg width="165" height="40" viewBox="0 0 165 40" fill="none" xmlns="http://www.w3.org/2000/svg">
<path d="M134.97 0H147.345V3.2175C144.045 7.1775 142.313 12.4575 142.313 19.2225H137.363C137.445 13.365 139.508 8.25 143.468 3.795H134.64L134.97 0Z" fill="#324150"/>
<path d="M19.3875 29.73H22.77C23.595 29.73 24.3375 29.895 24.915 30.225C25.575 30.555 25.9875 30.9675 26.4 31.545C26.73 32.1225 26.8949 32.7825 26.8949 33.525C26.8949 34.2675 26.73 34.9275 26.4 35.505C26.07 36.0825 25.575 36.495 24.915 36.825C24.255 37.155 23.595 37.32 22.77 37.32H19.3875V29.73ZM22.6875 35.835C23.43 35.835 24.0075 35.5875 24.5025 35.175C24.9975 34.7625 25.1625 34.185 25.1625 33.4425C25.1625 32.7 24.915 32.1225 24.5025 31.71C24.09 31.2975 23.43 31.05 22.6875 31.05H21.12V35.67H22.6875V35.835Z" fill="white"/>
<path d="M29.205 30.3898C29.04 30.2248 28.875 29.9773 28.875 29.7298C28.875 29.4823 28.9575 29.2348 29.205 29.0698C29.37 28.9048 29.6175 28.8223 29.9475 28.8223C30.2775 28.8223 30.525 28.9048 30.69 29.0698C30.855 29.2348 31.02 29.4823 31.02 29.7298C31.02 29.9773 30.9375 30.2248 30.69 30.3898C30.525 30.5548 30.2775 30.6373 29.9475 30.6373C29.7 30.6373 29.4525 30.5548 29.205 30.3898ZM29.1225 31.4623H30.7725V37.2373H29.1225V31.4623Z" fill="white"/>
<path d="M39.27 31.4624V36.2474C39.27 37.3199 39.0225 38.0624 38.445 38.6399C37.8675 39.2174 37.125 39.3824 36.0525 39.3824C35.475 39.3824 34.98 39.2999 34.485 39.2174C33.99 39.0524 33.5775 38.8874 33.2475 38.6399L33.9075 37.4024C34.155 37.5674 34.485 37.7324 34.815 37.8974C35.145 37.9799 35.5575 38.0624 35.97 38.0624C36.5475 38.0624 36.96 37.8974 37.29 37.6499C37.5375 37.4024 37.7025 36.9899 37.7025 36.4949V36.2474C37.29 36.7424 36.63 36.9899 35.8875 36.9899C35.3925 36.9899 34.8975 36.9074 34.4025 36.6599C33.99 36.4124 33.5775 36.0824 33.33 35.6699C33.0825 35.2574 32.9175 34.7624 32.9175 34.1849C32.9175 33.6074 33.0825 33.1124 33.33 32.6999C33.5775 32.2874 33.9075 31.9574 34.4025 31.7099C34.815 31.4624 35.31 31.3799 35.8875 31.3799C36.7125 31.3799 37.3725 31.6274 37.785 32.2049V31.4624H39.27ZM37.2075 35.1749C37.455 34.9274 37.62 34.5974 37.62 34.1849C37.62 33.7724 37.455 33.4424 37.2075 33.1949C36.96 32.9474 36.5475 32.7824 36.135 32.7824C35.7225 32.7824 35.31 32.9474 35.0625 33.1949C34.815 33.4424 34.65 33.7724 34.65 34.1849C34.65 34.5974 34.815 34.9274 35.0625 35.1749C35.31 35.4224 35.7225 35.5874 36.135 35.5874C36.5475 35.5874 36.96 35.4224 37.2075 35.1749Z" fill="white"/>
<path d="M41.9101 30.3898C41.7451 30.2248 41.5801 29.9773 41.5801 29.7298C41.5801 29.4823 41.6626 29.2348 41.9101 29.0698C42.0751 28.9048 42.3226 28.8223 42.6526 28.8223C42.9826 28.8223 43.2301 28.9048 43.3951 29.0698C43.5601 29.2348 43.7251 29.4823 43.7251 29.7298C43.7251 29.9773 43.6426 30.2248 43.3951 30.3898C43.2301 30.5548 42.9826 30.6373 42.6526 30.6373C42.4051 30.6373 42.1576 30.5548 41.9101 30.3898ZM41.8276 31.4623H43.4776V37.2373H41.8276V31.4623Z" fill="white"/>
<path d="M49.5824 36.9901C49.4174 37.0726 49.2524 37.2376 49.0049 37.2376C48.7574 37.3201 48.5099 37.3201 48.2624 37.3201C47.6024 37.3201 47.0249 37.1551 46.6949 36.8251C46.2824 36.4951 46.1174 36.0001 46.1174 35.2576V30.2251H47.7674V31.6276H49.1699V32.9476H47.7674V35.2576C47.7674 35.5051 47.8499 35.6701 47.9324 35.8351C48.0149 36.0001 48.2624 36.0001 48.4274 36.0001C48.6749 36.0001 48.9224 35.9176 49.0874 35.7526L49.5824 36.9901Z" fill="white"/>
<path d="M57.1723 31.4624V37.2374H55.6048V36.5774C55.1923 37.0724 54.6148 37.3199 53.7898 37.3199C53.2123 37.3199 52.7173 37.2374 52.3048 36.9899C51.8923 36.7424 51.4798 36.4124 51.2323 35.9174C50.9848 35.5049 50.8198 34.9274 50.8198 34.3499C50.8198 33.7724 50.9848 33.1949 51.2323 32.7824C51.4798 32.3699 51.8098 31.9574 52.3048 31.7099C52.7173 31.4624 53.2123 31.3799 53.7898 31.3799C54.5323 31.3799 55.1098 31.6274 55.5223 32.0399V31.4624H57.1723ZM55.1098 35.5049C55.3573 35.1749 55.5223 34.8449 55.5223 34.3499C55.5223 33.8549 55.3573 33.4424 55.1098 33.1949C54.8623 32.8649 54.4498 32.7824 54.0373 32.7824C53.6248 32.7824 53.2948 32.9474 52.9648 33.1949C52.7173 33.5249 52.5523 33.8549 52.5523 34.3499C52.5523 34.8449 52.7173 35.2574 52.9648 35.5049C53.2123 35.8349 53.6248 35.9174 54.0373 35.9174C54.4498 35.9174 54.7798 35.8349 55.1098 35.5049Z" fill="white"/>
<path d="M60.225 36.8249C59.895 36.4949 59.6475 35.9999 59.6475 35.3399V29.3174H61.2975V35.2574C61.2975 35.5049 61.38 35.6699 61.4625 35.8349C61.545 35.9999 61.875 35.9999 62.04 35.9999C62.1225 35.9999 62.205 35.9999 62.2875 35.9999C62.37 35.9999 62.4525 35.9174 62.535 35.9174L62.6175 37.2374C62.37 37.3199 62.04 37.4024 61.71 37.4024C61.1325 37.3199 60.6375 37.1549 60.225 36.8249Z" fill="white"/>
<path d="M64.2673 33.5249H67.3198V34.8449H64.2673V33.5249Z" fill="white"/>
<path d="M75.57 31.4624V37.2374H74.0025V36.5774C73.59 37.0724 73.0125 37.3199 72.1875 37.3199C71.61 37.3199 71.115 37.2374 70.7025 36.9899C70.29 36.7424 69.8775 36.4124 69.63 35.9174C69.3825 35.5049 69.2175 34.9274 69.2175 34.3499C69.2175 33.7724 69.3825 33.1949 69.63 32.7824C69.8775 32.3699 70.2075 31.9574 70.7025 31.7099C71.115 31.4624 71.61 31.3799 72.1875 31.3799C72.93 31.3799 73.5075 31.6274 73.92 32.0399V31.4624H75.57ZM73.5075 35.5049C73.755 35.1749 73.92 34.8449 73.92 34.3499C73.92 33.8549 73.755 33.4424 73.5075 33.1949C73.26 32.8649 72.8475 32.7824 72.435 32.7824C72.0225 32.7824 71.6925 32.9474 71.3625 33.1949C71.115 33.5249 70.95 33.8549 70.95 34.3499C70.95 34.8449 71.115 35.2574 71.3625 35.5049C71.61 35.8349 72.0225 35.9174 72.435 35.9174C72.8475 35.9174 73.1775 35.8349 73.5075 35.5049Z" fill="white"/>
<path d="M82.7474 32.8649H79.7774V37.2374H78.1274V31.4624H82.7474V32.8649Z" fill="white"/>
<path d="M88.0273 35.8348C88.2748 35.7523 88.4398 35.5873 88.6873 35.4223L89.5948 36.4123C89.0173 37.0723 88.2748 37.3198 87.2023 37.3198C86.5423 37.3198 85.9648 37.1548 85.4698 36.9073C84.9748 36.6598 84.5623 36.3298 84.3148 35.8348C84.0673 35.4223 83.9023 34.8448 83.9023 34.2673C83.9023 33.6898 84.0673 33.1948 84.3148 32.6998C84.5623 32.2873 84.9748 31.8748 85.3873 31.6273C85.8823 31.3798 86.3773 31.2148 86.9548 31.2148C87.5323 31.2148 88.0273 31.2973 88.4398 31.5448C88.8523 31.7923 89.2648 32.1223 89.5123 32.5348C89.7598 32.9473 89.9248 33.5248 89.9248 34.1023L85.6348 34.9273C85.7173 35.1748 85.9648 35.4223 86.2123 35.5873C86.4598 35.7523 86.7898 35.8348 87.2023 35.8348C87.5323 35.9998 87.7798 35.9173 88.0273 35.8348ZM85.9648 33.0298C85.7173 33.2773 85.5523 33.6898 85.5523 34.1848L88.3573 33.6073C88.2748 33.2773 88.1098 33.0298 87.8623 32.8648C87.6148 32.6998 87.3673 32.6173 86.9548 32.6173C86.5423 32.6173 86.2123 32.7823 85.9648 33.0298Z" fill="white"/>
<path d="M92.1523 31.4624H93.8023V33.6899H96.2773V31.4624H97.9273V37.2374H96.2773V35.0924H93.8023V37.2374H92.1523V31.4624Z" fill="white"/>
<path d="M109.642 32.0396C110.055 32.4521 110.302 33.1121 110.302 33.9371V37.2371H108.652V34.1846C108.652 33.6896 108.57 33.3596 108.405 33.1946C108.24 33.0296 107.91 32.8646 107.58 32.8646C107.167 32.8646 106.837 33.0296 106.672 33.2771C106.507 33.5246 106.342 33.9371 106.342 34.4321V37.3196H104.692V34.2671C104.692 33.3596 104.362 32.9471 103.62 32.9471C103.207 32.9471 102.96 33.1121 102.712 33.3596C102.465 33.6071 102.382 34.0196 102.382 34.5146V37.4021H100.732V31.6271H102.3V32.2871C102.547 32.0396 102.795 31.8746 103.125 31.7096C103.455 31.5446 103.785 31.5446 104.115 31.5446C104.527 31.5446 104.857 31.6271 105.187 31.7921C105.517 31.9571 105.765 32.2046 106.012 32.5346C106.26 32.2046 106.507 32.0396 106.92 31.8746C107.25 31.7096 107.662 31.6271 108.075 31.6271C108.652 31.3796 109.23 31.6271 109.642 32.0396Z" fill="white"/>
<path d="M113.85 36.9073C113.355 36.6598 112.942 36.3298 112.695 35.8348C112.447 35.4223 112.282 34.8448 112.282 34.2673C112.282 33.6898 112.447 33.1948 112.695 32.6998C112.942 32.2873 113.355 31.8748 113.85 31.6273C114.345 31.3798 114.922 31.2148 115.5 31.2148C116.077 31.2148 116.655 31.3798 117.067 31.6273C117.48 31.8748 117.81 32.2048 118.057 32.6998L116.737 33.3598C116.407 32.8648 115.995 32.5348 115.417 32.5348C115.005 32.5348 114.592 32.6998 114.345 32.9473C114.097 33.1948 113.932 33.6073 113.932 34.1023C113.932 34.5973 114.097 35.0098 114.345 35.2573C114.592 35.5048 115.005 35.6698 115.417 35.6698C115.995 35.6698 116.407 35.4223 116.737 34.8448L118.057 35.5873C117.81 36.0823 117.48 36.4123 117.067 36.6598C116.572 36.9073 116.077 37.0723 115.5 37.0723C114.84 37.3198 114.345 37.2373 113.85 36.9073Z" fill="white"/>
<path d="M129.195 32.0396C129.607 32.4521 129.855 33.1121 129.855 33.9371V37.2371H128.205V34.1846C128.205 33.6896 128.122 33.3596 127.957 33.1946C127.792 33.0296 127.462 32.8646 127.132 32.8646C126.72 32.8646 126.39 33.0296 126.225 33.2771C126.06 33.5246 125.895 33.9371 125.895 34.4321V37.3196H124.245V34.2671C124.245 33.3596 123.915 32.9471 123.172 32.9471C122.76 32.9471 122.512 33.1121 122.265 33.3596C122.017 33.6071 121.935 34.0196 121.935 34.5146V37.4021H120.285V31.6271H121.852V32.2871C122.1 32.0396 122.347 31.8746 122.677 31.7096C123.007 31.5446 123.337 31.5446 123.667 31.5446C124.08 31.5446 124.41 31.6271 124.74 31.7921C125.07 31.9571 125.317 32.2046 125.565 32.5346C125.812 32.2046 126.06 32.0396 126.472 31.8746C126.802 31.7096 127.215 31.6271 127.627 31.6271C128.205 31.3796 128.782 31.6271 129.195 32.0396Z" fill="white"/>
<path d="M137.692 35.5874C137.692 36.0824 137.527 36.4949 137.115 36.8249C136.702 37.0724 136.125 37.2374 135.382 37.2374H132.33V31.4624H135.3C136.042 31.4624 136.62 31.6274 137.032 31.8749C137.445 32.1224 137.61 32.5349 137.61 32.9474C137.61 33.1949 137.527 33.5249 137.362 33.6899C137.197 33.9374 137.032 34.1024 136.702 34.1849C137.362 34.4324 137.692 34.9274 137.692 35.5874ZM133.815 33.8549H135.052C135.63 33.8549 135.96 33.6074 135.96 33.1949C135.96 32.7824 135.63 32.6174 135.052 32.6174H133.815V33.8549ZM136.125 35.5049C136.125 35.2574 136.042 35.0924 135.877 35.0099C135.712 34.9274 135.547 34.8449 135.217 34.8449H133.815V36.0824H135.217C135.795 36.0824 136.125 35.9174 136.125 35.5049Z" fill="white"/>
<path d="M140.993 36.9073C140.498 36.6598 140.168 36.3298 139.838 35.8348C139.59 35.4223 139.425 34.8448 139.425 34.2673C139.425 33.6898 139.59 33.1948 139.838 32.6998C140.085 32.2873 140.498 31.8748 140.993 31.6273C141.488 31.3798 141.983 31.2148 142.643 31.2148C143.22 31.2148 143.798 31.3798 144.293 31.6273C144.788 31.8748 145.118 32.2048 145.448 32.6998C145.695 33.1123 145.86 33.6898 145.86 34.2673C145.86 34.8448 145.695 35.3398 145.448 35.8348C145.2 36.2473 144.788 36.6598 144.293 36.9073C143.798 37.1548 143.303 37.3198 142.643 37.3198C141.983 37.3198 141.488 37.2373 140.993 36.9073ZM143.715 35.5048C143.963 35.1748 144.128 34.8448 144.128 34.3498C144.128 33.8548 143.963 33.4423 143.715 33.1948C143.468 32.8648 143.055 32.7823 142.643 32.7823C142.23 32.7823 141.9 32.9473 141.57 33.1948C141.323 33.5248 141.158 33.8548 141.158 34.3498C141.158 34.8448 141.323 35.2573 141.57 35.5048C141.818 35.8348 142.23 35.9173 142.643 35.9173C143.055 35.9173 143.385 35.8348 143.715 35.5048Z" fill="white"/>
<path d="M21.8624 17.6551C20.3774 16.8301 19.2224 15.7576 18.3974 14.3551C17.5724 12.9526 17.1599 11.3851 17.1599 9.65262C17.1599 7.92012 17.5724 6.27012 18.3974 4.95012C19.2224 3.54762 20.3774 2.47512 21.8624 1.65012C23.3474 0.825117 24.9974 0.495117 26.8124 0.495117C28.3799 0.495117 29.7824 0.742616 31.0199 1.32012C32.2574 1.89762 33.3299 2.64012 34.1549 3.63012L31.5149 6.10512C30.2774 4.70262 28.7924 4.04262 27.0599 4.04262C25.9874 4.04262 24.9974 4.29012 24.0899 4.78512C23.2649 5.28012 22.5224 5.94012 22.0274 6.84762C21.5324 7.67262 21.2849 8.66262 21.2849 9.81762C21.2849 10.8901 21.5324 11.8801 22.0274 12.7876C22.5224 13.6126 23.1824 14.3551 24.0899 14.8501C24.9149 15.3451 25.9049 15.5926 27.0599 15.5926C28.8749 15.5926 30.3599 14.8501 31.5149 13.4476L34.1549 15.9226C33.3299 16.9951 32.2574 17.7376 31.0199 18.3151C29.7824 18.8926 28.3799 19.1401 26.8124 19.1401C24.9149 18.8101 23.3474 18.3976 21.8624 17.6551Z" fill="#324150"/>
<path d="M76.725 4.86766V16.2527C76.725 18.7277 76.065 20.6252 74.8275 21.8627C73.59 23.1002 71.6925 23.6777 69.3 23.6777C67.98 23.6777 66.825 23.5127 65.67 23.1827C64.515 22.8527 63.525 22.3577 62.7825 21.7802L64.35 18.8927C64.9275 19.3877 65.67 19.7177 66.495 20.0477C67.32 20.2952 68.145 20.4602 69.0525 20.4602C70.3725 20.4602 71.3625 20.1302 71.94 19.5527C72.5175 18.9752 72.8475 17.9852 72.8475 16.7477V16.2527C72.3525 16.7477 71.775 17.1602 71.0325 17.4077C70.3725 17.6552 69.63 17.8202 68.805 17.8202C66.99 17.8202 65.5875 17.3252 64.515 16.2527C63.4425 15.2627 62.9475 13.6952 62.9475 11.6327V4.78516H66.9075V11.0552C66.9075 13.2827 67.815 14.3552 69.7125 14.3552C70.7025 14.3552 71.445 14.0252 72.0225 13.4477C72.6 12.7877 72.8475 11.8802 72.8475 10.7252V4.78516H76.725V4.86766Z" fill="#324150"/>
<path d="M94.4625 4.86762V16.2526C94.4625 18.7276 93.8025 20.6251 92.4825 21.8626C91.1625 23.1001 89.265 23.6776 86.79 23.6776C85.47 23.6776 84.2325 23.5126 82.995 23.1826C81.84 22.8526 80.85 22.3576 80.025 21.7801L81.5925 18.8926C82.17 19.3876 82.9125 19.7176 83.82 20.0476C84.7275 20.2951 85.5525 20.4601 86.46 20.4601C87.8625 20.4601 88.8525 20.1301 89.5125 19.5526C90.1725 18.8926 90.5025 17.9851 90.5025 16.7476V16.1701C89.43 17.3251 88.0275 17.9026 86.2125 17.9026C84.975 17.9026 83.82 17.6551 82.7475 17.0776C81.675 16.5001 80.85 15.6751 80.2725 14.6851C79.695 13.6951 79.365 12.5401 79.365 11.2201C79.365 9.90012 79.695 8.74512 80.2725 7.75512C80.85 6.76512 81.675 5.94012 82.7475 5.44512C83.82 4.86762 84.975 4.62012 86.2125 4.62012C88.1925 4.62012 89.6775 5.28012 90.75 6.60012V4.86762H94.4625ZM89.595 13.6951C90.255 13.0351 90.585 12.2926 90.585 11.3026C90.585 10.3126 90.255 9.48762 89.595 8.91012C88.935 8.25012 88.0275 8.00262 87.0375 8.00262C85.965 8.00262 85.14 8.33262 84.48 8.91012C83.82 9.57012 83.49 10.3126 83.49 11.3026C83.49 12.2926 83.82 13.1176 84.48 13.6951C85.14 14.3551 86.0475 14.6026 87.0375 14.6026C88.0275 14.6026 88.935 14.2726 89.595 13.6951Z" fill="#324150"/>
<path d="M127.71 4.86719V18.5622H124.163V14.6847H121.275L118.718 18.5622H114.51L117.645 14.1072C116.655 13.6947 115.995 13.1997 115.5 12.4572C115.005 11.7147 114.675 10.8897 114.675 9.89969C114.675 8.24969 115.253 7.01219 116.408 6.18719C117.563 5.27969 119.13 4.86719 121.193 4.86719H127.71ZM119.378 8.49719C118.965 8.82719 118.718 9.32219 118.718 9.98218C118.718 10.6422 118.965 11.1372 119.378 11.4672C119.79 11.7972 120.45 11.9622 121.275 11.9622H124.245V8.08469H121.275C120.45 8.08469 119.79 8.24969 119.378 8.49719Z" fill="#324150"/>
<path d="M40.4248 4.86719H36.4648V18.5622H40.4248V4.86719Z" fill="#324150"/>
<path d="M49.0874 6.84762C48.5924 6.10512 48.0149 5.52762 47.1899 5.19762C46.4474 4.78512 45.5399 4.62012 44.5499 4.62012C43.6424 4.62012 42.8174 4.78512 42.1574 5.11512C42.0749 5.11512 41.9924 5.19762 41.9924 5.19762V8.49762C42.4049 8.25012 42.8999 8.08512 43.4774 8.08512C45.2099 8.08512 46.0349 9.15762 46.0349 11.3026V18.5626H49.9949V11.7151C49.9949 11.5501 49.9949 8.41512 49.0874 6.84762Z" fill="#324150"/>
<path d="M57.6674 6.10512C56.6774 5.11512 55.2749 4.62012 53.6249 4.62012C52.7174 4.62012 51.8924 4.78512 51.1499 5.11512V8.49762C51.5624 8.25012 52.0574 8.08512 52.7174 8.08512C53.5424 8.08512 54.2024 8.33262 54.6149 8.91012C55.0274 9.40512 55.2749 10.2301 55.2749 11.3026V18.5626H59.2349V10.7251C59.2349 8.66262 58.6574 7.17762 57.6674 6.10512Z" fill="#324150"/>
<path d="M106.342 14.7677C105.847 15.0977 105.352 15.2627 104.61 15.2627C102.795 15.2627 101.805 14.1902 101.805 11.9627V4.78516H97.845V12.5402C97.845 14.6027 98.34 16.0877 99.4125 17.1602C100.485 18.2327 101.887 18.7277 103.702 18.7277C104.527 18.7277 105.352 18.5627 106.095 18.2327C106.177 18.2327 106.26 18.1502 106.342 18.1502V14.7677Z" fill="#324150"/>
<path d="M111.787 4.86719H107.827V18.5622H111.787V4.86719Z" fill="#324150"/>
<path d="M164.753 12.1274C164.753 12.1274 164.753 12.0449 164.835 12.0449C164.918 11.8799 164.918 11.7149 165 11.6324C165 11.4674 165 11.3849 165 11.2199C165 11.1374 165 11.1374 165 11.0549C165 10.7249 164.835 10.3949 164.588 10.0649C164.423 9.81743 164.175 9.65242 163.928 9.56992L156.585 3.71242C155.76 3.05242 154.605 3.21743 153.945 4.04243C153.285 4.86743 153.45 6.02242 154.275 6.68242L160.133 11.3024L154.358 16.0049C153.533 16.6649 153.45 17.9024 154.11 18.6449C154.77 19.4699 156.008 19.5524 156.75 18.8924L164.01 12.9524C164.258 12.8699 164.423 12.7049 164.67 12.4574C164.67 12.3749 164.753 12.2924 164.753 12.1274Z" fill="white"/>
<path d="M4.95 11.2199L10.89 6.68242C11.715 6.02242 11.88 4.86743 11.22 4.04243C10.56 3.21743 9.405 3.05242 8.58 3.71242L1.0725 9.40493C0.825 9.48743 0.5775 9.65242 0.4125 9.89992C0.165 10.1474 0.0825 10.5599 0 10.8899C0 10.9724 0 10.9724 0 11.0549C0 11.2199 0 11.3024 0 11.4674C0 11.6324 0.0825 11.7974 0.0825 11.9624C0.0825 11.9624 0.0825 12.0449 0.165 12.0449C0.2475 12.1274 0.2475 12.2924 0.33 12.3749C0.495 12.6224 0.7425 12.7874 0.9075 12.8699L8.085 18.9749C8.91 19.6349 10.065 19.5524 10.725 18.8099C11.385 17.9849 11.3025 16.8299 10.56 16.1699L4.95 11.2199Z" fill="white"/>
</svg>
